%TF.GenerationSoftware,KiCad,Pcbnew,9.0.1*%
%TF.CreationDate,2025-12-15T20:55:04-06:00*%
%TF.ProjectId,ProtoCore_v1,50726f74-6f43-46f7-9265-5f76312e6b69,rev?*%
%TF.SameCoordinates,Original*%
%TF.FileFunction,Copper,L4,Inr*%
%TF.FilePolarity,Positive*%
%FSLAX46Y46*%
G04 Gerber Fmt 4.6, Leading zero omitted, Abs format (unit mm)*
G04 Created by KiCad (PCBNEW 9.0.1) date 2025-12-15 20:55:04*
%MOMM*%
%LPD*%
G01*
G04 APERTURE LIST*
%TA.AperFunction,ViaPad*%
%ADD10C,0.450000*%
%TD*%
%TA.AperFunction,ViaPad*%
%ADD11C,0.500000*%
%TD*%
%TA.AperFunction,Conductor*%
%ADD12C,0.200000*%
%TD*%
%TA.AperFunction,Conductor*%
%ADD13C,0.143000*%
%TD*%
%TA.AperFunction,Conductor*%
%ADD14C,0.150000*%
%TD*%
%TA.AperFunction,Conductor*%
%ADD15C,0.220000*%
%TD*%
%TA.AperFunction,Conductor*%
%ADD16C,0.146000*%
%TD*%
%TA.AperFunction,Profile*%
%ADD17C,0.100000*%
%TD*%
G04 APERTURE END LIST*
D10*
%TO.N,GND*%
X146775000Y-104925000D03*
D11*
X141175000Y-90825000D03*
X138250000Y-96437500D03*
D10*
X146110000Y-90400000D03*
D11*
X160687500Y-88250000D03*
X144825000Y-88575000D03*
X146450000Y-88275000D03*
X159250000Y-93275000D03*
X138250000Y-105937500D03*
X153825000Y-106575000D03*
X153950000Y-92950000D03*
X141687500Y-88250000D03*
X156175000Y-90625000D03*
X155600000Y-93400000D03*
X161750000Y-91687500D03*
D10*
X151430000Y-108600000D03*
D11*
X161750000Y-101187500D03*
X143825000Y-90925000D03*
D10*
X139450000Y-105785000D03*
X149075000Y-107850000D03*
D11*
X142400000Y-91775000D03*
X155550000Y-104200000D03*
D10*
X159950000Y-95350000D03*
D11*
X142800000Y-89325000D03*
X157525000Y-93750000D03*
X157975000Y-91550000D03*
D10*
X140125000Y-103700000D03*
D11*
X151525000Y-104612500D03*
X158975000Y-90425000D03*
X146650000Y-92970000D03*
X144050000Y-91900000D03*
D10*
X147575000Y-109400000D03*
D11*
X156625000Y-104225000D03*
X140050000Y-92000000D03*
X152325000Y-93425000D03*
D10*
X148350000Y-108550000D03*
X146110000Y-91399500D03*
X160380000Y-110900000D03*
D11*
X153125000Y-94400000D03*
X143800000Y-89850000D03*
X146630000Y-93770000D03*
D10*
X142075000Y-107500000D03*
X153375000Y-108275000D03*
D11*
X151225000Y-101700000D03*
X154640000Y-105940000D03*
D10*
X141630000Y-101150000D03*
D11*
X146437500Y-111750000D03*
X154637500Y-110687500D03*
D10*
X140175000Y-107425000D03*
D11*
X153450000Y-89485000D03*
D10*
X153600000Y-97600000D03*
D11*
X155937500Y-88250000D03*
X156125000Y-92075000D03*
X148812500Y-111750000D03*
D10*
X139925000Y-108437499D03*
D11*
X152780000Y-96350000D03*
X142925000Y-93125000D03*
X161750000Y-108312500D03*
X138250000Y-91687500D03*
D10*
X142350000Y-110040000D03*
X156050000Y-98850000D03*
D11*
X155325000Y-89525000D03*
X153450000Y-90775000D03*
X154125000Y-88875000D03*
X153462500Y-88250000D03*
D10*
X159200000Y-108825000D03*
X151760000Y-99810000D03*
D11*
X153775000Y-104125000D03*
X155937500Y-105500000D03*
X146690000Y-91880000D03*
D10*
X144710000Y-90400000D03*
D11*
X139312500Y-111750000D03*
D10*
X143525000Y-108425000D03*
X151650000Y-109975000D03*
D11*
X161750000Y-94062500D03*
X154640000Y-108315000D03*
X144062500Y-111750000D03*
D10*
X140125000Y-100275000D03*
D11*
X138250000Y-110687500D03*
D10*
X144710000Y-91400500D03*
D11*
X160687500Y-111750000D03*
X138250000Y-108312500D03*
X155925000Y-106250000D03*
X158312500Y-111750000D03*
X150375000Y-92475000D03*
X152160000Y-90775000D03*
D10*
X149375000Y-102700000D03*
D11*
X138250000Y-103562500D03*
X141375000Y-89525000D03*
X151225000Y-94450000D03*
X161750000Y-103562500D03*
D10*
X155525000Y-96050000D03*
D11*
X152825000Y-91450000D03*
X148925000Y-91350000D03*
D10*
X159075000Y-110100000D03*
X146110000Y-92399500D03*
D11*
X138250000Y-89312500D03*
X138250000Y-98812500D03*
X138250000Y-94062500D03*
X155937500Y-111750000D03*
X138250000Y-101187500D03*
D10*
X144080000Y-110410000D03*
X144710000Y-92400000D03*
X152525000Y-108287500D03*
D11*
X146600000Y-88975000D03*
X148290000Y-90775000D03*
D10*
X141350000Y-103775000D03*
D11*
X147000000Y-90775000D03*
D10*
X144800000Y-105850000D03*
D11*
X144160000Y-93000000D03*
X148930000Y-93020000D03*
D10*
X156550000Y-96925000D03*
X141044098Y-110150000D03*
D11*
X157700000Y-106250000D03*
X150250000Y-91400000D03*
X157060000Y-94670000D03*
D10*
X160800000Y-110375000D03*
D11*
X144000000Y-88250000D03*
D10*
X144710000Y-89400500D03*
D11*
X159650000Y-91900000D03*
X147650000Y-91425000D03*
X151975000Y-105725000D03*
X158312500Y-105500000D03*
X144230000Y-93780000D03*
X149175000Y-98775000D03*
D10*
X146420000Y-109600000D03*
D11*
X149580000Y-90775000D03*
X160687500Y-105500000D03*
X151187500Y-111750000D03*
X157040000Y-100420000D03*
X154150000Y-90125000D03*
X157525000Y-89575000D03*
X161750000Y-96437500D03*
X161750000Y-98812500D03*
X145625000Y-88975000D03*
X147396643Y-97764828D03*
X152481250Y-95400000D03*
D10*
X144830000Y-93410000D03*
D11*
X161750000Y-89312500D03*
X150850000Y-95750000D03*
X147398026Y-99548026D03*
X161750000Y-110687500D03*
D10*
X141020000Y-97560000D03*
D11*
X158312500Y-88250000D03*
X139312500Y-88250000D03*
D10*
X147200000Y-101700000D03*
D11*
X154200000Y-91350000D03*
X150870000Y-90775000D03*
D10*
X153350000Y-110875000D03*
X157870002Y-94900000D03*
X159975000Y-109650000D03*
D11*
X145601974Y-99551974D03*
X157630000Y-100770000D03*
X141687500Y-111750000D03*
D10*
X145990000Y-93410000D03*
D11*
X141175000Y-93325000D03*
X145600592Y-97764828D03*
X153575000Y-111750000D03*
D10*
X147125000Y-106850000D03*
X151425000Y-98075000D03*
D11*
X151550000Y-91375000D03*
X161750000Y-105937500D03*
%TO.N,+3V3*%
X139550000Y-93900000D03*
X157475000Y-110080000D03*
X151975000Y-106450000D03*
X156550000Y-99850000D03*
X141044098Y-109502500D03*
D10*
X142225003Y-101050000D03*
D11*
X152025000Y-96350000D03*
X141775000Y-94850000D03*
X157075000Y-95325000D03*
X158450000Y-110875000D03*
X158050000Y-101350000D03*
X155925000Y-107175000D03*
D10*
X153015000Y-100575000D03*
D11*
X146775000Y-104277297D03*
X156225000Y-104850000D03*
D10*
X154900000Y-94600000D03*
D11*
X153825000Y-105900000D03*
X148975000Y-93675000D03*
X142707149Y-109510702D03*
X156275000Y-110224999D03*
X152825000Y-104625000D03*
X158450000Y-109475000D03*
D10*
X141020000Y-96600000D03*
X158268355Y-95425659D03*
D11*
X155630000Y-110875000D03*
X141575000Y-93875000D03*
X152275000Y-107412500D03*
D10*
%TO.N,VIN*%
X159900000Y-107475000D03*
X160800000Y-107125000D03*
X159600000Y-106150000D03*
X159025000Y-108075000D03*
X160800000Y-108175000D03*
%TO.N,/Microcontroller/BOOT1*%
X155800000Y-94585000D03*
X147766915Y-95991915D03*
%TO.N,/Microcontroller/UART0_RX_MCU*%
X149390202Y-95500000D03*
X153675000Y-94925000D03*
%TO.N,I2C0_SCL*%
X143400000Y-104250000D03*
X141740000Y-106200000D03*
X143040000Y-105910000D03*
X141300000Y-104800000D03*
%TO.N,USB_D-*%
X144475000Y-105325000D03*
X143650000Y-110900000D03*
%TO.N,USB_D+*%
X144476248Y-110873830D03*
X145125000Y-105325000D03*
%TO.N,UART0_RX*%
X153725000Y-96200000D03*
X159050000Y-100950000D03*
%TO.N,EMMC_DAT1*%
X154900000Y-95850000D03*
X151390420Y-97467520D03*
%TO.N,EMMC_DAT2*%
X155740631Y-96635214D03*
X151900000Y-100400000D03*
%TO.N,EMMC_DAT3*%
X149245343Y-99454657D03*
X153065209Y-97909768D03*
%TO.N,EMMC_DAT0*%
X153099420Y-97334595D03*
X149725000Y-98400000D03*
%TO.N,IO4*%
X141950000Y-96125000D03*
D11*
X139200000Y-90500000D03*
D10*
%TO.N,QSPI_IO3*%
X150837500Y-108487500D03*
X146750000Y-102125000D03*
%TO.N,IO2*%
X143175000Y-96200000D03*
D11*
X140100000Y-89825000D03*
D10*
%TO.N,IO0*%
X145669818Y-96105182D03*
X159925000Y-96800000D03*
%TO.N,UART0_TX*%
X150000000Y-95950000D03*
X159050000Y-101600000D03*
%TO.N,IO7*%
X142000000Y-99000000D03*
X139180000Y-108650000D03*
%TO.N,IO11*%
X141000000Y-103025000D03*
X143825000Y-99925000D03*
%TO.N,IO9*%
X153984788Y-109750000D03*
X159175000Y-104625000D03*
X143275000Y-99350000D03*
%TO.N,QSPI_IO2*%
X146325000Y-109000000D03*
X147775000Y-103500000D03*
%TO.N,QSPI_IO0*%
X149175000Y-102075000D03*
X151050000Y-109925000D03*
%TO.N,IO10*%
X141900000Y-100400000D03*
X139275000Y-109500000D03*
%TO.N,IO8*%
X140825000Y-100150000D03*
X139925000Y-104300000D03*
%TO.N,IO5*%
X141725000Y-97400000D03*
X139250000Y-93025000D03*
%TO.N,IO14*%
X160700000Y-92850000D03*
X151025000Y-96900000D03*
%TO.N,IO1*%
X160275000Y-96325000D03*
X144525000Y-97075000D03*
%TO.N,IO6*%
X140975000Y-98300000D03*
%TO.N,QSPI_IO1*%
X146912500Y-106312500D03*
X147587500Y-101287500D03*
%TO.N,IO3*%
X143125000Y-98375000D03*
X150300000Y-110025000D03*
%TO.N,INT_IMU*%
X142087499Y-108300000D03*
X145650000Y-101400000D03*
%TO.N,+3V3_AUX*%
X152525000Y-110225000D03*
X152525000Y-109600000D03*
%TO.N,CORE_BOOT_SEL*%
X140975000Y-95850000D03*
X153910000Y-110400000D03*
D11*
%TO.N,IO16*%
X159500000Y-89250000D03*
D10*
X148225000Y-96950000D03*
%TO.N,CORE_RESET_N*%
X140080000Y-95850000D03*
%TO.N,3V3_AUX_EN*%
X152925000Y-107412500D03*
X150550000Y-103325000D03*
%TO.N,CORE_RST_REQ_N*%
X146500000Y-95200000D03*
X153625000Y-100600000D03*
D11*
%TO.N,IO15*%
X160750000Y-90675000D03*
D10*
X148950000Y-97625000D03*
%TD*%
D12*
%TO.N,INT_IMU*%
X143725000Y-104900000D02*
X144175000Y-104450000D01*
X145125000Y-101400000D02*
X145650000Y-101400000D01*
X143725000Y-106525000D02*
X143725000Y-104900000D01*
X142100000Y-108150000D02*
X143725000Y-106525000D01*
X142100000Y-108249999D02*
X142100000Y-108150000D01*
X144175000Y-104450000D02*
X144175000Y-102350000D01*
X142087499Y-108262500D02*
X142100000Y-108249999D01*
X144175000Y-102350000D02*
X145125000Y-101400000D01*
D13*
%TO.N,USB_D-*%
X144300000Y-105500000D02*
X144475000Y-105325000D01*
X144621250Y-109050958D02*
X144621250Y-106471250D01*
X143897459Y-110002541D02*
X143897459Y-109774749D01*
X143646887Y-110253113D02*
X143897459Y-110002541D01*
X144300000Y-106150000D02*
X144300000Y-105500000D01*
X143646887Y-110896887D02*
X143646887Y-110253113D01*
X143897459Y-109774749D02*
X144621250Y-109050958D01*
X144621250Y-106471250D02*
X144300000Y-106150000D01*
%TO.N,USB_D+*%
X145275000Y-106175000D02*
X145275000Y-105475000D01*
X144978750Y-106471250D02*
X145275000Y-106175000D01*
X144978750Y-109199042D02*
X144978750Y-106471250D01*
X144360000Y-109817792D02*
X144978750Y-109199042D01*
X145275000Y-105475000D02*
X145125000Y-105325000D01*
X144476248Y-110166248D02*
X144360000Y-110050000D01*
X144476248Y-110873830D02*
X144476248Y-110166248D01*
X144360000Y-110050000D02*
X144360000Y-109817792D01*
D12*
%TO.N,IO14*%
X160625000Y-92775000D02*
X160700000Y-92850000D01*
X156025000Y-92775000D02*
X160625000Y-92775000D01*
X155700000Y-92450000D02*
X156025000Y-92775000D01*
X151900000Y-92450000D02*
X155700000Y-92450000D01*
X149050000Y-94800000D02*
X149550000Y-94800000D01*
X150950000Y-96825000D02*
X149175000Y-96825000D01*
X149175000Y-96825000D02*
X148875000Y-96525000D01*
X151025000Y-96900000D02*
X150950000Y-96825000D01*
X148875000Y-96525000D02*
X148875000Y-94975000D01*
X148875000Y-94975000D02*
X149050000Y-94800000D01*
X149550000Y-94800000D02*
X151900000Y-92450000D01*
D14*
%TO.N,/Microcontroller/UART0_RX_MCU*%
X151700000Y-95325000D02*
X151700000Y-95875000D01*
X151175000Y-96400000D02*
X149650000Y-96400000D01*
X152100000Y-94925000D02*
X151700000Y-95325000D01*
X149390202Y-96140202D02*
X149390202Y-95500000D01*
X153675000Y-94925000D02*
X152100000Y-94925000D01*
X151700000Y-95875000D02*
X151175000Y-96400000D01*
X149650000Y-96400000D02*
X149390202Y-96140202D01*
D12*
%TO.N,I2C0_SCL*%
X141400000Y-104800000D02*
X141400000Y-105125000D01*
X141675000Y-104250000D02*
X141400000Y-104525000D01*
X141400000Y-104525000D02*
X141400000Y-104800000D01*
D15*
X141740000Y-106200000D02*
X142750000Y-106200000D01*
D12*
X141750000Y-106190000D02*
X141740000Y-106200000D01*
D15*
X142750000Y-106200000D02*
X143040000Y-105910000D01*
D12*
X141400000Y-105125000D02*
X141750000Y-105475000D01*
X143400000Y-104250000D02*
X141675000Y-104250000D01*
X141750000Y-105475000D02*
X141750000Y-106190000D01*
D14*
%TO.N,UART0_RX*%
X153725000Y-96200000D02*
X153725000Y-95750000D01*
X153725000Y-95750000D02*
X154450000Y-95025000D01*
X154450000Y-95025000D02*
X155400000Y-95025000D01*
X155400000Y-95025000D02*
X159050000Y-98675000D01*
X159050000Y-98675000D02*
X159050000Y-100950000D01*
D13*
%TO.N,EMMC_DAT1*%
X151390420Y-97467520D02*
X151703927Y-97467520D01*
X154321447Y-96703553D02*
X154826777Y-96198223D01*
X152632107Y-96850000D02*
X153967893Y-96850000D01*
X151880704Y-97394296D02*
X152278554Y-96996446D01*
X154900000Y-96021447D02*
X154900000Y-95850000D01*
X152278554Y-96996446D02*
G75*
G02*
X152632107Y-96850005I353546J-353554D01*
G01*
X153967893Y-96850000D02*
G75*
G03*
X154321450Y-96703556I7J500000D01*
G01*
X154900000Y-96021447D02*
G75*
G02*
X154826754Y-96198200I-250000J47D01*
G01*
X151703927Y-97467520D02*
G75*
G03*
X151880695Y-97394287I-27J250020D01*
G01*
%TO.N,EMMC_DAT2*%
X155740631Y-96635214D02*
X151975845Y-100400000D01*
X151975845Y-100400000D02*
X151900000Y-100400000D01*
D16*
%TO.N,EMMC_DAT3*%
X149245343Y-99454657D02*
X149245343Y-99425000D01*
D13*
X149728553Y-99075000D02*
X151567893Y-99075000D01*
X152940232Y-97909768D02*
X153065209Y-97909768D01*
X149245343Y-99454657D02*
X149551777Y-99148223D01*
X151921447Y-98928553D02*
X152940232Y-97909768D01*
X151921447Y-98928553D02*
G75*
G02*
X151567893Y-99074995I-353547J353553D01*
G01*
X149551777Y-99148223D02*
G75*
G02*
X149728553Y-99074967I176823J-176777D01*
G01*
%TO.N,EMMC_DAT0*%
X149725000Y-98400000D02*
X149826777Y-98501777D01*
X152943958Y-97334595D02*
X153099420Y-97334595D01*
X151746447Y-98428553D02*
X152767182Y-97407818D01*
X150003553Y-98575000D02*
X151392893Y-98575000D01*
X149826777Y-98501777D02*
G75*
G03*
X150003553Y-98575033I176823J176777D01*
G01*
X151746447Y-98428553D02*
G75*
G02*
X151392893Y-98574995I-353547J353553D01*
G01*
X152943958Y-97334595D02*
G75*
G03*
X152767202Y-97407838I42J-250005D01*
G01*
D12*
%TO.N,IO4*%
X139200000Y-92100000D02*
X139200000Y-90500000D01*
X141887500Y-96062500D02*
X140000000Y-94175000D01*
X141887500Y-96075000D02*
X141887500Y-96062500D01*
X140000000Y-92900000D02*
X139200000Y-92100000D01*
X140000000Y-94175000D02*
X140000000Y-92900000D01*
D13*
%TO.N,QSPI_IO3*%
X146750000Y-102125000D02*
X147201777Y-102576777D01*
X148973224Y-106623224D02*
X150837500Y-108487500D01*
X148473224Y-102723224D02*
X148826777Y-103076777D01*
X148900000Y-103253553D02*
X148900000Y-106446447D01*
X147378553Y-102650000D02*
X148296447Y-102650000D01*
X148473224Y-102723224D02*
G75*
G03*
X148296447Y-102649967I-176824J-176776D01*
G01*
X148826777Y-103076777D02*
G75*
G02*
X148900033Y-103253553I-176777J-176823D01*
G01*
X147201777Y-102576777D02*
G75*
G03*
X147378553Y-102650033I176823J176777D01*
G01*
X148973224Y-106623224D02*
G75*
G02*
X148899967Y-106446447I176776J176824D01*
G01*
D12*
%TO.N,IO2*%
X140825000Y-92125000D02*
X140825000Y-91700000D01*
X143175000Y-94475000D02*
X140825000Y-92125000D01*
X143175000Y-96200000D02*
X143175000Y-94475000D01*
X140100000Y-90975000D02*
X140100000Y-89825000D01*
X140825000Y-91700000D02*
X140100000Y-90975000D01*
%TO.N,IO0*%
X146175000Y-96610364D02*
X146175000Y-99200000D01*
X146175000Y-99200000D02*
X147300000Y-100325000D01*
X160175000Y-102200000D02*
X160175000Y-97050000D01*
X160175000Y-97050000D02*
X159925000Y-96800000D01*
X147300000Y-100325000D02*
X149025000Y-100325000D01*
X149025000Y-100325000D02*
X151400000Y-102700000D01*
X159675000Y-102700000D02*
X160175000Y-102200000D01*
X151400000Y-102700000D02*
X159675000Y-102700000D01*
X145669818Y-96105182D02*
X146175000Y-96610364D01*
D14*
%TO.N,UART0_TX*%
X151225000Y-95175000D02*
X152425000Y-93975000D01*
X159050000Y-101600000D02*
X159125000Y-101600000D01*
X156025000Y-93975000D02*
X154775000Y-93975000D01*
X159625000Y-98512811D02*
X156450000Y-95337811D01*
X150775000Y-95175000D02*
X151225000Y-95175000D01*
X159625000Y-101100000D02*
X159625000Y-98512811D01*
X159125000Y-101600000D02*
X159625000Y-101100000D01*
D12*
X150000000Y-95950000D02*
X150000000Y-95825000D01*
D14*
X152425000Y-93975000D02*
X154775000Y-93975000D01*
X150000000Y-95950000D02*
X150775000Y-95175000D01*
X156450000Y-95337811D02*
X156450000Y-94400000D01*
X156450000Y-94400000D02*
X156025000Y-93975000D01*
D12*
%TO.N,IO7*%
X142000000Y-99000000D02*
X140400000Y-99000000D01*
X140400000Y-99000000D02*
X138825000Y-100575000D01*
X138825000Y-100575000D02*
X138825000Y-107400000D01*
X138825000Y-107400000D02*
X139150000Y-107725000D01*
X139150000Y-107725000D02*
X139150000Y-108674998D01*
%TO.N,IO11*%
X141350000Y-103025000D02*
X141000000Y-103025000D01*
X143825000Y-100550000D02*
X141350000Y-103025000D01*
X143825000Y-99925000D02*
X143825000Y-100550000D01*
%TO.N,IO9*%
X156249000Y-106701000D02*
X154874000Y-106701000D01*
X154874000Y-106701000D02*
X153984788Y-107590212D01*
X158325000Y-104625000D02*
X156249000Y-106701000D01*
X159175000Y-104625000D02*
X158325000Y-104625000D01*
X153984788Y-107590212D02*
X153984788Y-109802692D01*
D13*
%TO.N,QSPI_IO2*%
X148265000Y-105839000D02*
X148265000Y-105925000D01*
X148093000Y-106957000D02*
X147947000Y-106957000D01*
X147947000Y-106527000D02*
X148093000Y-106527000D01*
X147775000Y-104549000D02*
X147775000Y-104635000D01*
X148265000Y-104119000D02*
X148265000Y-104205000D01*
X148265000Y-104979000D02*
X148265000Y-105065000D01*
X148093000Y-106097000D02*
X147947000Y-106097000D01*
X147947000Y-103947000D02*
X148093000Y-103947000D01*
X147775000Y-105409000D02*
X147775000Y-105495000D01*
X148265000Y-106699000D02*
X148265000Y-106785000D01*
X148093000Y-104377000D02*
X147947000Y-104377000D01*
X147701776Y-107623224D02*
X146325000Y-109000000D01*
X147775000Y-106269000D02*
X147775000Y-106355000D01*
X147775000Y-107215000D02*
X147775000Y-107275000D01*
X147775000Y-107275000D02*
X147775000Y-107446447D01*
X147947000Y-105667000D02*
X148093000Y-105667000D01*
X148093000Y-105237000D02*
X147947000Y-105237000D01*
X147947000Y-104807000D02*
X148093000Y-104807000D01*
X147775000Y-107129000D02*
X147775000Y-107215000D01*
X147775000Y-103500000D02*
X147775000Y-103775000D01*
X148265000Y-105065000D02*
G75*
G02*
X148093000Y-105237000I-172000J0D01*
G01*
X148265000Y-104205000D02*
G75*
G02*
X148093000Y-104377000I-172000J0D01*
G01*
X148093000Y-105667000D02*
G75*
G02*
X148265000Y-105839000I0J-172000D01*
G01*
X148093000Y-106527000D02*
G75*
G02*
X148265000Y-106699000I0J-172000D01*
G01*
X148265000Y-105925000D02*
G75*
G02*
X148093000Y-106097000I-172000J0D01*
G01*
X148093000Y-103947000D02*
G75*
G02*
X148265000Y-104119000I0J-172000D01*
G01*
X147775000Y-104635000D02*
G75*
G03*
X147947000Y-104807000I172000J0D01*
G01*
X148265000Y-106785000D02*
G75*
G02*
X148093000Y-106957000I-172000J0D01*
G01*
X147775000Y-106355000D02*
G75*
G03*
X147947000Y-106527000I172000J0D01*
G01*
X148093000Y-104807000D02*
G75*
G02*
X148265000Y-104979000I0J-172000D01*
G01*
X147775000Y-103775000D02*
G75*
G03*
X147947000Y-103947000I172000J0D01*
G01*
X147775000Y-105495000D02*
G75*
G03*
X147947000Y-105667000I172000J0D01*
G01*
X147947000Y-106097000D02*
G75*
G03*
X147775000Y-106269000I0J-172000D01*
G01*
X147947000Y-104377000D02*
G75*
G03*
X147775000Y-104549000I0J-172000D01*
G01*
X147947000Y-105237000D02*
G75*
G03*
X147775000Y-105409000I0J-172000D01*
G01*
X147947000Y-106957000D02*
G75*
G03*
X147775000Y-107129000I0J-172000D01*
G01*
X147701776Y-107623224D02*
G75*
G03*
X147775033Y-107446447I-176776J176824D01*
G01*
%TO.N,QSPI_IO0*%
X149801776Y-102451776D02*
X149498223Y-102148223D01*
X151975000Y-108896447D02*
X151975000Y-108528553D01*
X151901776Y-108351776D02*
X149948223Y-106398223D01*
X149321447Y-102075000D02*
X149175000Y-102075000D01*
X151050000Y-109925000D02*
X151901777Y-109073223D01*
X149875000Y-106221447D02*
X149875000Y-102628553D01*
X151901776Y-108351776D02*
G75*
G02*
X151975033Y-108528553I-176776J-176824D01*
G01*
X149875000Y-106221447D02*
G75*
G03*
X149948246Y-106398200I250000J47D01*
G01*
X149875000Y-102628553D02*
G75*
G03*
X149801753Y-102451799I-250000J-47D01*
G01*
X151901777Y-109073223D02*
G75*
G03*
X151975033Y-108896447I-176777J176823D01*
G01*
X149498223Y-102148223D02*
G75*
G03*
X149321447Y-102074967I-176823J-176777D01*
G01*
D12*
%TO.N,IO10*%
X140375000Y-103200000D02*
X140375000Y-101650000D01*
X139625000Y-109500000D02*
X140800000Y-108325000D01*
X140800000Y-103625000D02*
X140375000Y-103200000D01*
X140375000Y-101650000D02*
X141625000Y-100400000D01*
X140800000Y-108325000D02*
X140800000Y-103625000D01*
X139275000Y-109500000D02*
X139625000Y-109500000D01*
X141625000Y-100400000D02*
X141900000Y-100400000D01*
%TO.N,IO8*%
X139575000Y-103925000D02*
X139925000Y-104275000D01*
X140825000Y-100400000D02*
X139575000Y-101650000D01*
X140825000Y-100150000D02*
X140825000Y-100400000D01*
X139575000Y-101650000D02*
X139575000Y-103925000D01*
%TO.N,IO5*%
X141425000Y-97100000D02*
X140425000Y-97100000D01*
X138975000Y-95650000D02*
X138975000Y-93300000D01*
X140425000Y-97100000D02*
X138975000Y-95650000D01*
X138975000Y-93300000D02*
X139250000Y-93025000D01*
X141725000Y-97400000D02*
X141425000Y-97100000D01*
%TO.N,IO1*%
X148750000Y-100675000D02*
X151387500Y-103312500D01*
X144150000Y-97450000D02*
X144150000Y-99150000D01*
X160700000Y-96750000D02*
X160275000Y-96325000D01*
X151387500Y-103312500D02*
X159962500Y-103312500D01*
X144150000Y-99150000D02*
X145675000Y-100675000D01*
X160700000Y-102575000D02*
X160700000Y-96750000D01*
X144525000Y-97075000D02*
X144150000Y-97450000D01*
X159962500Y-103312500D02*
X160700000Y-102575000D01*
X145675000Y-100675000D02*
X148750000Y-100675000D01*
D13*
%TO.N,QSPI_IO1*%
X146015000Y-103690000D02*
X145985000Y-103690000D01*
X145825000Y-105130000D02*
X145825000Y-105050000D01*
X145985000Y-104090000D02*
X146015000Y-104090000D01*
X146853553Y-101250000D02*
X147375000Y-101250000D01*
X147375000Y-101250000D02*
X147412500Y-101287500D01*
X146175000Y-105575000D02*
X146175000Y-105450000D01*
X145825000Y-103530000D02*
X145825000Y-103450000D01*
X145985000Y-103290000D02*
X146015000Y-103290000D01*
X146912500Y-106312500D02*
X146175000Y-105575000D01*
X145985000Y-102490000D02*
X146015000Y-102490000D01*
X146175000Y-102150000D02*
X146175000Y-101928553D01*
X147412500Y-101287500D02*
X147587500Y-101287500D01*
X146248224Y-101751776D02*
X146676777Y-101323223D01*
X146175000Y-104730000D02*
X146175000Y-104650000D01*
X145825000Y-102730000D02*
X145825000Y-102650000D01*
X146015000Y-102890000D02*
X145985000Y-102890000D01*
X146175000Y-103930000D02*
X146175000Y-103850000D01*
X145825000Y-104330000D02*
X145825000Y-104250000D01*
X146175000Y-102330000D02*
X146175000Y-102250000D01*
X146175000Y-102250000D02*
X146175000Y-102150000D01*
X146015000Y-104490000D02*
X145985000Y-104490000D01*
X145985000Y-104890000D02*
X146015000Y-104890000D01*
X146175000Y-103130000D02*
X146175000Y-103050000D01*
X146015000Y-105290000D02*
X145985000Y-105290000D01*
X145825000Y-104250000D02*
G75*
G02*
X145985000Y-104090000I160000J0D01*
G01*
X145825000Y-102650000D02*
G75*
G02*
X145985000Y-102490000I160000J0D01*
G01*
X146175000Y-103050000D02*
G75*
G03*
X146015000Y-102890000I-160000J0D01*
G01*
X145985000Y-105290000D02*
G75*
G02*
X145825000Y-105130000I0J160000D01*
G01*
X145825000Y-103450000D02*
G75*
G02*
X145985000Y-103290000I160000J0D01*
G01*
X145825000Y-105050000D02*
G75*
G02*
X145985000Y-104890000I160000J0D01*
G01*
X145985000Y-104490000D02*
G75*
G02*
X145825000Y-104330000I0J160000D01*
G01*
X145985000Y-103690000D02*
G75*
G02*
X145825000Y-103530000I0J160000D01*
G01*
X146015000Y-104890000D02*
G75*
G03*
X146175000Y-104730000I0J160000D01*
G01*
X146015000Y-102490000D02*
G75*
G03*
X146175000Y-102330000I0J160000D01*
G01*
X145985000Y-102890000D02*
G75*
G02*
X145825000Y-102730000I0J160000D01*
G01*
X146175000Y-101928553D02*
G75*
G02*
X146248247Y-101751799I250000J-47D01*
G01*
X146015000Y-104090000D02*
G75*
G03*
X146175000Y-103930000I0J160000D01*
G01*
X146175000Y-103850000D02*
G75*
G03*
X146015000Y-103690000I-160000J0D01*
G01*
X146853553Y-101250000D02*
G75*
G03*
X146676800Y-101323246I47J-250000D01*
G01*
X146015000Y-103290000D02*
G75*
G03*
X146175000Y-103130000I0J160000D01*
G01*
X146175000Y-105450000D02*
G75*
G03*
X146015000Y-105290000I-160000J0D01*
G01*
X146175000Y-104650000D02*
G75*
G03*
X146015000Y-104490000I-160000J0D01*
G01*
D12*
%TO.N,3V3_AUX_EN*%
X152925000Y-105825000D02*
X152925000Y-107412500D01*
X150550000Y-103325000D02*
X150550000Y-104625000D01*
X151175000Y-105250000D02*
X152350000Y-105250000D01*
X150550000Y-104625000D02*
X151175000Y-105250000D01*
X152350000Y-105250000D02*
X152925000Y-105825000D01*
D14*
%TO.N,CORE_RST_REQ_N*%
X153595000Y-100725000D02*
X153345000Y-100975000D01*
X146700000Y-95400000D02*
X146500000Y-95200000D01*
X153345000Y-100975000D02*
X151275000Y-100975000D01*
X151275000Y-100975000D02*
X150300000Y-100000000D01*
X146700000Y-97850000D02*
X146700000Y-95400000D01*
X150300000Y-100000000D02*
X148850000Y-100000000D01*
X148850000Y-100000000D02*
X146700000Y-97850000D01*
D12*
%TO.N,IO15*%
X156475000Y-90975000D02*
X160450000Y-90975000D01*
X148950000Y-94125000D02*
X149525000Y-94125000D01*
X148300000Y-96175000D02*
X148300000Y-94775000D01*
X148950000Y-97625000D02*
X148775000Y-97800000D01*
X151700000Y-91950000D02*
X155500000Y-91950000D01*
X148300000Y-94775000D02*
X148950000Y-94125000D01*
X160450000Y-90975000D02*
X160750000Y-90675000D01*
X148775000Y-97800000D02*
X148300000Y-97800000D01*
X155500000Y-91950000D02*
X156475000Y-90975000D01*
X148300000Y-97800000D02*
X147800000Y-97300000D01*
X147800000Y-96675000D02*
X148300000Y-96175000D01*
X149525000Y-94125000D02*
X151700000Y-91950000D01*
X147800000Y-97300000D02*
X147800000Y-96675000D01*
%TD*%
D17*
X161500000Y-87500000D02*
X161500000Y-87500000D01*
G75*
G02*
X162500000Y-88500000I0J-1000000D01*
G01*
X162500000Y-111500000D01*
G75*
G02*
X161500000Y-112500000I-1000000J0D01*
G01*
X138500000Y-112500000D01*
G75*
G02*
X137500000Y-111500000I0J1000000D01*
G01*
X137500000Y-88500000D01*
G75*
G02*
X138500000Y-87500000I1000000J0D01*
G01*
X161500000Y-87500000D01*
M02*
