%TF.GenerationSoftware,KiCad,Pcbnew,9.0.1*%
%TF.CreationDate,2025-12-15T20:55:04-06:00*%
%TF.ProjectId,ProtoCore_v1,50726f74-6f43-46f7-9265-5f76312e6b69,rev?*%
%TF.SameCoordinates,Original*%
%TF.FileFunction,Copper,L1,Top*%
%TF.FilePolarity,Positive*%
%FSLAX46Y46*%
G04 Gerber Fmt 4.6, Leading zero omitted, Abs format (unit mm)*
G04 Created by KiCad (PCBNEW 9.0.1) date 2025-12-15 20:55:04*
%MOMM*%
%LPD*%
G01*
G04 APERTURE LIST*
G04 Aperture macros list*
%AMRoundRect*
0 Rectangle with rounded corners*
0 $1 Rounding radius*
0 $2 $3 $4 $5 $6 $7 $8 $9 X,Y pos of 4 corners*
0 Add a 4 corners polygon primitive as box body*
4,1,4,$2,$3,$4,$5,$6,$7,$8,$9,$2,$3,0*
0 Add four circle primitives for the rounded corners*
1,1,$1+$1,$2,$3*
1,1,$1+$1,$4,$5*
1,1,$1+$1,$6,$7*
1,1,$1+$1,$8,$9*
0 Add four rect primitives between the rounded corners*
20,1,$1+$1,$2,$3,$4,$5,0*
20,1,$1+$1,$4,$5,$6,$7,0*
20,1,$1+$1,$6,$7,$8,$9,0*
20,1,$1+$1,$8,$9,$2,$3,0*%
%AMRotRect*
0 Rectangle, with rotation*
0 The origin of the aperture is its center*
0 $1 length*
0 $2 width*
0 $3 Rotation angle, in degrees counterclockwise*
0 Add horizontal line*
21,1,$1,$2,0,0,$3*%
G04 Aperture macros list end*
%TA.AperFunction,Conductor*%
%ADD10C,0.001000*%
%TD*%
%TA.AperFunction,SMDPad,CuDef*%
%ADD11R,0.580000X0.730000*%
%TD*%
%TA.AperFunction,SMDPad,CuDef*%
%ADD12RoundRect,0.082500X-0.192500X0.197500X-0.192500X-0.197500X0.192500X-0.197500X0.192500X0.197500X0*%
%TD*%
%TA.AperFunction,SMDPad,CuDef*%
%ADD13R,0.246234X0.804110*%
%TD*%
%TA.AperFunction,SMDPad,CuDef*%
%ADD14R,0.246236X0.804111*%
%TD*%
%TA.AperFunction,SMDPad,CuDef*%
%ADD15R,0.242472X0.804111*%
%TD*%
%TA.AperFunction,SMDPad,CuDef*%
%ADD16R,0.246232X0.804111*%
%TD*%
%TA.AperFunction,SMDPad,CuDef*%
%ADD17RoundRect,0.076500X0.243500X-0.178500X0.243500X0.178500X-0.243500X0.178500X-0.243500X-0.178500X0*%
%TD*%
%TA.AperFunction,SMDPad,CuDef*%
%ADD18RoundRect,0.082500X0.197500X0.192500X-0.197500X0.192500X-0.197500X-0.192500X0.197500X-0.192500X0*%
%TD*%
%TA.AperFunction,SMDPad,CuDef*%
%ADD19RoundRect,0.082500X0.192500X-0.197500X0.192500X0.197500X-0.192500X0.197500X-0.192500X-0.197500X0*%
%TD*%
%TA.AperFunction,SMDPad,CuDef*%
%ADD20RoundRect,0.076500X-0.243500X0.178500X-0.243500X-0.178500X0.243500X-0.178500X0.243500X0.178500X0*%
%TD*%
%TA.AperFunction,SMDPad,CuDef*%
%ADD21RoundRect,0.082500X-0.197500X-0.192500X0.197500X-0.192500X0.197500X0.192500X-0.197500X0.192500X0*%
%TD*%
%TA.AperFunction,SMDPad,CuDef*%
%ADD22RoundRect,0.076500X0.178500X0.243500X-0.178500X0.243500X-0.178500X-0.243500X0.178500X-0.243500X0*%
%TD*%
%TA.AperFunction,SMDPad,CuDef*%
%ADD23C,0.600000*%
%TD*%
%TA.AperFunction,SMDPad,CuDef*%
%ADD24R,1.300000X0.750000*%
%TD*%
%TA.AperFunction,SMDPad,CuDef*%
%ADD25RotRect,0.840000X0.220000X315.000000*%
%TD*%
%TA.AperFunction,SMDPad,CuDef*%
%ADD26RotRect,0.220000X0.840000X315.000000*%
%TD*%
%TA.AperFunction,SMDPad,CuDef*%
%ADD27RotRect,4.000000X4.000000X315.000000*%
%TD*%
%TA.AperFunction,SMDPad,CuDef*%
%ADD28R,1.800000X0.800000*%
%TD*%
%TA.AperFunction,SMDPad,CuDef*%
%ADD29C,0.290000*%
%TD*%
%TA.AperFunction,SMDPad,CuDef*%
%ADD30RoundRect,0.125000X-0.250000X-0.125000X0.250000X-0.125000X0.250000X0.125000X-0.250000X0.125000X0*%
%TD*%
%TA.AperFunction,HeatsinkPad*%
%ADD31R,3.000000X3.750000*%
%TD*%
%TA.AperFunction,SMDPad,CuDef*%
%ADD32RoundRect,0.123750X-0.288750X-0.338750X0.288750X-0.338750X0.288750X0.338750X-0.288750X0.338750X0*%
%TD*%
%TA.AperFunction,SMDPad,CuDef*%
%ADD33RoundRect,0.123750X-0.288750X-0.351250X0.288750X-0.351250X0.288750X0.351250X-0.288750X0.351250X0*%
%TD*%
%TA.AperFunction,SMDPad,CuDef*%
%ADD34RoundRect,0.123750X0.288750X0.338750X-0.288750X0.338750X-0.288750X-0.338750X0.288750X-0.338750X0*%
%TD*%
%TA.AperFunction,SMDPad,CuDef*%
%ADD35RoundRect,0.123750X0.288750X0.351250X-0.288750X0.351250X-0.288750X-0.351250X0.288750X-0.351250X0*%
%TD*%
%TA.AperFunction,SMDPad,CuDef*%
%ADD36RoundRect,0.076500X-0.178500X-0.243500X0.178500X-0.243500X0.178500X0.243500X-0.178500X0.243500X0*%
%TD*%
%TA.AperFunction,SMDPad,CuDef*%
%ADD37RoundRect,0.135000X0.540000X-0.315000X0.540000X0.315000X-0.540000X0.315000X-0.540000X-0.315000X0*%
%TD*%
%TA.AperFunction,SMDPad,CuDef*%
%ADD38RoundRect,0.087500X-0.225000X-0.087500X0.225000X-0.087500X0.225000X0.087500X-0.225000X0.087500X0*%
%TD*%
%TA.AperFunction,SMDPad,CuDef*%
%ADD39RoundRect,0.087500X-0.087500X-0.225000X0.087500X-0.225000X0.087500X0.225000X-0.087500X0.225000X0*%
%TD*%
%TA.AperFunction,SMDPad,CuDef*%
%ADD40RoundRect,0.055000X-0.240000X-0.220000X0.240000X-0.220000X0.240000X0.220000X-0.240000X0.220000X0*%
%TD*%
%TA.AperFunction,SMDPad,CuDef*%
%ADD41R,0.200000X0.600000*%
%TD*%
%TA.AperFunction,SMDPad,CuDef*%
%ADD42R,0.200000X1.600000*%
%TD*%
%TA.AperFunction,SMDPad,CuDef*%
%ADD43RoundRect,0.056250X0.143750X-0.131250X0.143750X0.131250X-0.143750X0.131250X-0.143750X-0.131250X0*%
%TD*%
%TA.AperFunction,HeatsinkPad*%
%ADD44R,1.600000X1.000000*%
%TD*%
%TA.AperFunction,SMDPad,CuDef*%
%ADD45R,0.275000X0.250000*%
%TD*%
%TA.AperFunction,SMDPad,CuDef*%
%ADD46R,0.250000X0.275000*%
%TD*%
%TA.AperFunction,SMDPad,CuDef*%
%ADD47RoundRect,0.135000X-0.540000X0.315000X-0.540000X-0.315000X0.540000X-0.315000X0.540000X0.315000X0*%
%TD*%
%TA.AperFunction,SMDPad,CuDef*%
%ADD48RoundRect,0.135000X-0.315000X-0.540000X0.315000X-0.540000X0.315000X0.540000X-0.315000X0.540000X0*%
%TD*%
%TA.AperFunction,SMDPad,CuDef*%
%ADD49R,0.650000X0.200000*%
%TD*%
%TA.AperFunction,SMDPad,CuDef*%
%ADD50R,1.000000X0.200000*%
%TD*%
%TA.AperFunction,SMDPad,CuDef*%
%ADD51R,0.250000X0.550000*%
%TD*%
%TA.AperFunction,SMDPad,CuDef*%
%ADD52R,1.500000X0.600000*%
%TD*%
%TA.AperFunction,ViaPad*%
%ADD53C,0.450000*%
%TD*%
%TA.AperFunction,ViaPad*%
%ADD54C,0.500000*%
%TD*%
%TA.AperFunction,Conductor*%
%ADD55C,0.156500*%
%TD*%
%TA.AperFunction,Conductor*%
%ADD56C,0.250000*%
%TD*%
%TA.AperFunction,Conductor*%
%ADD57C,0.300000*%
%TD*%
%TA.AperFunction,Conductor*%
%ADD58C,0.200000*%
%TD*%
%TA.AperFunction,Conductor*%
%ADD59C,0.150000*%
%TD*%
%TA.AperFunction,Conductor*%
%ADD60C,0.220000*%
%TD*%
%TA.AperFunction,Conductor*%
%ADD61C,0.400000*%
%TD*%
%TA.AperFunction,Conductor*%
%ADD62C,0.500000*%
%TD*%
%TA.AperFunction,Conductor*%
%ADD63C,0.600000*%
%TD*%
%TA.AperFunction,Conductor*%
%ADD64C,0.100000*%
%TD*%
%TA.AperFunction,Conductor*%
%ADD65C,0.157500*%
%TD*%
%TA.AperFunction,Conductor*%
%ADD66C,0.225000*%
%TD*%
%TA.AperFunction,Profile*%
%ADD67C,0.100000*%
%TD*%
G04 APERTURE END LIST*
%TO.N,/External Interface/RF_FEED_ANT*%
D10*
X146080000Y-89400000D02*
X148990000Y-89400000D01*
X148990000Y-90000000D01*
X146080000Y-90000000D01*
X146080000Y-89400000D01*
%TA.AperFunction,Conductor*%
G36*
X146080000Y-89400000D02*
G01*
X148990000Y-89400000D01*
X148990000Y-90000000D01*
X146080000Y-90000000D01*
X146080000Y-89400000D01*
G37*
%TD.AperFunction*%
%TO.N,RF_FEED*%
X145710000Y-92800000D02*
X145520492Y-93700089D01*
X145520285Y-93700411D01*
X145520000Y-93700500D01*
X145300000Y-93700500D01*
X145299646Y-93700354D01*
X145299510Y-93700098D01*
X145110000Y-92800000D01*
X145110000Y-89400000D01*
X145710000Y-89400000D01*
X145710000Y-92800000D01*
%TA.AperFunction,Conductor*%
G36*
X145710000Y-92800000D02*
G01*
X145520492Y-93700089D01*
X145520285Y-93700411D01*
X145520000Y-93700500D01*
X145300000Y-93700500D01*
X145299646Y-93700354D01*
X145299510Y-93700098D01*
X145110000Y-92800000D01*
X145110000Y-89400000D01*
X145710000Y-89400000D01*
X145710000Y-92800000D01*
G37*
%TD.AperFunction*%
%TD*%
D11*
%TO.P,Y2,1*%
%TO.N,/Microcontroller/CLK_MAIN_IN*%
X151650000Y-93512500D03*
%TO.P,Y2,2,GND*%
%TO.N,GND*%
X151650000Y-94512500D03*
%TO.P,Y2,3*%
%TO.N,/Microcontroller/CLK_MAIN_OUT*%
X152350000Y-94512500D03*
%TO.P,Y2,4,GND__1*%
%TO.N,GND*%
X152350000Y-93512500D03*
%TD*%
D12*
%TO.P,C37,1*%
%TO.N,+3V3*%
X143175000Y-109327500D03*
%TO.P,C37,2*%
%TO.N,GND*%
X143175000Y-110287500D03*
%TD*%
D13*
%TO.P,U4,1,CTR*%
%TO.N,/Power Management/SUP_CTR*%
X139261883Y-97775444D03*
D14*
%TO.P,U4,2,CTS*%
%TO.N,/Power Management/SUP_CTS*%
X139761882Y-97775444D03*
D15*
%TO.P,U4,3,GND*%
%TO.N,GND*%
X140259999Y-97775444D03*
D14*
%TO.P,U4,4,VDD*%
%TO.N,+3V3*%
X140261881Y-96729556D03*
%TO.P,U4,5,SNS*%
%TO.N,CORE_RESET_N*%
X139761882Y-96729556D03*
D16*
%TO.P,U4,6,RST_N*%
%TO.N,CORE_RST_REQ_N*%
X139261884Y-96729556D03*
%TD*%
D17*
%TO.P,R4,1*%
%TO.N,+3V3*%
X143400000Y-105240000D03*
%TO.P,R4,2*%
%TO.N,I2C0_SCL*%
X143400000Y-104250000D03*
%TD*%
D18*
%TO.P,C31,1*%
%TO.N,Net-(U7-VDDI)*%
X153025000Y-98950000D03*
%TO.P,C31,2*%
%TO.N,GND*%
X152065000Y-98950000D03*
%TD*%
D12*
%TO.P,C3,1*%
%TO.N,/Microcontroller/CLK_MAIN_IN*%
X150790000Y-93712500D03*
%TO.P,C3,2*%
%TO.N,GND*%
X150790000Y-94672500D03*
%TD*%
D19*
%TO.P,C26,1*%
%TO.N,+3V3*%
X151975000Y-106575000D03*
%TO.P,C26,2*%
%TO.N,GND*%
X151975000Y-105615000D03*
%TD*%
D20*
%TO.P,R7,1*%
%TO.N,/Microcontroller/UART0_RX_MCU*%
X154000000Y-94580000D03*
%TO.P,R7,2*%
%TO.N,UART0_RX*%
X154000000Y-95570000D03*
%TD*%
D12*
%TO.P,C40,1*%
%TO.N,+3V3*%
X141469098Y-109327500D03*
%TO.P,C40,2*%
%TO.N,GND*%
X141469098Y-110287500D03*
%TD*%
D21*
%TO.P,C9,1*%
%TO.N,+3V3*%
X152040000Y-96350000D03*
%TO.P,C9,2*%
%TO.N,GND*%
X153000000Y-96350000D03*
%TD*%
D12*
%TO.P,C25,1*%
%TO.N,+3V3*%
X139425000Y-104825000D03*
%TO.P,C25,2*%
%TO.N,GND*%
X139425000Y-105785000D03*
%TD*%
D22*
%TO.P,R22,1*%
%TO.N,EMMC_DAT3*%
X153015000Y-98100000D03*
%TO.P,R22,2*%
%TO.N,+3V3*%
X152025000Y-98100000D03*
%TD*%
D17*
%TO.P,R3,1*%
%TO.N,+3V3*%
X142475000Y-105240000D03*
%TO.P,R3,2*%
%TO.N,I2C0_SDA*%
X142475000Y-104250000D03*
%TD*%
D20*
%TO.P,R15,1*%
%TO.N,+3V3*%
X139180000Y-94860000D03*
%TO.P,R15,2*%
%TO.N,CORE_RST_REQ_N*%
X139180000Y-95850000D03*
%TD*%
D12*
%TO.P,C11,1*%
%TO.N,+3V3*%
X147175000Y-104265000D03*
%TO.P,C11,2*%
%TO.N,GND*%
X147175000Y-105225000D03*
%TD*%
D23*
%TO.P,TP9,1,1*%
%TO.N,GND*%
X149375000Y-102700000D03*
%TD*%
D24*
%TO.P,Y1,1*%
%TO.N,/Microcontroller/CLK_RTC_IN*%
X139625000Y-101250002D03*
%TO.P,Y1,2*%
%TO.N,/Microcontroller/CLK_RTC_OUT*%
X139625000Y-102700000D03*
%TD*%
D25*
%TO.P,U1,1,LNA_IN*%
%TO.N,RF_FEED*%
X145917177Y-94398045D03*
%TO.P,U1,2,VDD3P3*%
%TO.N,/Microcontroller/VDD_PI_OUT*%
X145634334Y-94680887D03*
%TO.P,U1,3,VDD3P3*%
X145351491Y-94963730D03*
%TO.P,U1,4,CHIP_PU*%
%TO.N,CORE_RST_REQ_N*%
X145068649Y-95246573D03*
%TO.P,U1,5,BOOT0/GPIO0*%
%TO.N,CORE_BOOT_SEL*%
X144785806Y-95529415D03*
%TO.P,U1,6,GPIO1*%
%TO.N,IO0*%
X144502963Y-95812258D03*
%TO.P,U1,7,GPIO2*%
%TO.N,IO1*%
X144220121Y-96095101D03*
%TO.P,U1,8,GPIO3*%
%TO.N,unconnected-(U1A-GPIO3-Pad8)*%
X143937278Y-96377944D03*
%TO.P,U1,9,GPIO4*%
%TO.N,IO2*%
X143654435Y-96660786D03*
%TO.P,U1,10,GPIO5*%
%TO.N,IO3*%
X143371592Y-96943629D03*
%TO.P,U1,11,GPIO6*%
%TO.N,unconnected-(U1A-GPIO6-Pad11)*%
X143088750Y-97226472D03*
%TO.P,U1,12,GPIO7*%
%TO.N,IO4*%
X142805907Y-97509314D03*
%TO.P,U1,13,GPIO8*%
%TO.N,IO5*%
X142523064Y-97792157D03*
%TO.P,U1,14,GPIO9*%
%TO.N,IO6*%
X142240222Y-98075000D03*
D26*
%TO.P,U1,15,GPIO10*%
%TO.N,IO7*%
X142240222Y-99255868D03*
%TO.P,U1,16,GPIO11*%
%TO.N,IO8*%
X142523064Y-99538711D03*
%TO.P,U1,17,GPIO12*%
%TO.N,IO9*%
X142805907Y-99821554D03*
%TO.P,U1,18,GPIO13*%
%TO.N,IO10*%
X143088750Y-100104396D03*
%TO.P,U1,19,GPIO14*%
%TO.N,IO11*%
X143371592Y-100387239D03*
%TO.P,U1,20,VDD3P3_RTC*%
%TO.N,+3V3*%
X143654435Y-100670082D03*
%TO.P,U1,21,XTAL_32K_P*%
%TO.N,/Microcontroller/CLK_RTC_IN*%
X143937278Y-100952924D03*
%TO.P,U1,22,XTAL_32K_N*%
%TO.N,/Microcontroller/CLK_RTC_OUT*%
X144220121Y-101235767D03*
%TO.P,U1,23,GPIO17*%
%TO.N,I2C0_SDA*%
X144502963Y-101518610D03*
%TO.P,U1,24,GPIO18*%
%TO.N,I2C0_SCL*%
X144785806Y-101801453D03*
%TO.P,U1,25,GPIO19/USB_D-*%
%TO.N,/Microcontroller/USB_MCU_D-*%
X145068649Y-102084295D03*
%TO.P,U1,26,GPIO20/USB_D+*%
%TO.N,/Microcontroller/USB_MCU_D+*%
X145351491Y-102367138D03*
%TO.P,U1,27,GPIO21*%
%TO.N,INT_IMU*%
X145634334Y-102649981D03*
%TO.P,U1,28,GPIO26/SPICS1*%
%TO.N,unconnected-(U1A-GPIO26{slash}SPICS1-Pad28)*%
X145917177Y-102932823D03*
D25*
%TO.P,U1,29,VDD_SPI*%
%TO.N,+3V3*%
X147098045Y-102932823D03*
%TO.P,U1,30,GPIO27/SPIHD*%
%TO.N,QSPI_IO3*%
X147380888Y-102649981D03*
%TO.P,U1,31,GPIO28/SPIWP*%
%TO.N,QSPI_IO2*%
X147663731Y-102367138D03*
%TO.P,U1,32,GPIO29/SPICS0*%
%TO.N,QSPI_CS*%
X147946573Y-102084295D03*
%TO.P,U1,33,GPIO30/SPICLK*%
%TO.N,/Microcontroller/QSPI_CLK_MCU*%
X148229416Y-101801453D03*
%TO.P,U1,34,GPIO31/SPIQ*%
%TO.N,QSPI_IO1*%
X148512259Y-101518610D03*
%TO.P,U1,35,GPIO32/SPID*%
%TO.N,QSPI_IO0*%
X148795101Y-101235767D03*
%TO.P,U1,36,GPIO48/SPICLK_N*%
%TO.N,unconnected-(U1A-GPIO48{slash}SPICLK_N-Pad36)*%
X149077944Y-100952924D03*
%TO.P,U1,37,GPIO47/SPICLK_P*%
%TO.N,unconnected-(U1A-GPIO47{slash}SPICLK_P-Pad37)*%
X149360787Y-100670082D03*
%TO.P,U1,38,GPIO33*%
%TO.N,3V3_AUX_EN*%
X149643630Y-100387239D03*
%TO.P,U1,39,GPIO34*%
%TO.N,EMMC_CMD*%
X149926472Y-100104396D03*
%TO.P,U1,40,GPIO35*%
%TO.N,/Microcontroller/EMMC_CLK_MCU*%
X150209315Y-99821554D03*
%TO.P,U1,41,GPIO36*%
%TO.N,EMMC_DAT2*%
X150492158Y-99538711D03*
%TO.P,U1,42,GPIO37*%
%TO.N,EMMC_DAT3*%
X150775000Y-99255868D03*
D26*
%TO.P,U1,43,GPIO38*%
%TO.N,EMMC_DAT0*%
X150775000Y-98075000D03*
%TO.P,U1,44,GPIO39/MTCK*%
%TO.N,EMMC_DAT1*%
X150492158Y-97792157D03*
%TO.P,U1,45,GPIO40/MTDO*%
%TO.N,IO14*%
X150209315Y-97509314D03*
%TO.P,U1,46,VDD3P3_CPU*%
%TO.N,+3V3*%
X149926472Y-97226472D03*
%TO.P,U1,47,GPIO41/MTDI*%
%TO.N,IO15*%
X149643630Y-96943629D03*
%TO.P,U1,48,GPIO42/MTMS*%
%TO.N,IO16*%
X149360787Y-96660786D03*
%TO.P,U1,49,GPIO43/U0TXD*%
%TO.N,UART0_TX*%
X149077944Y-96377944D03*
%TO.P,U1,50,GPIO44/U0RXD*%
%TO.N,/Microcontroller/UART0_RX_MCU*%
X148795101Y-96095101D03*
%TO.P,U1,51,GPIO45*%
%TO.N,unconnected-(U1A-GPIO45-Pad51)*%
X148512259Y-95812258D03*
%TO.P,U1,52,BOOT1/GPIO46*%
%TO.N,/Microcontroller/BOOT1*%
X148229416Y-95529415D03*
%TO.P,U1,53,XTAL_40M_N*%
%TO.N,/Microcontroller/CLK_MAIN_OUT*%
X147946573Y-95246573D03*
%TO.P,U1,54,XTAL_40M_P*%
%TO.N,/Microcontroller/CLK_MAIN_IN*%
X147663731Y-94963730D03*
%TO.P,U1,55,VDDA*%
%TO.N,+3V3*%
X147380888Y-94680887D03*
%TO.P,U1,56,VDDA*%
X147098045Y-94398045D03*
D27*
%TO.P,U1,57,GND*%
%TO.N,GND*%
X146507611Y-98665434D03*
%TD*%
D22*
%TO.P,R13,1*%
%TO.N,/Power Management/REG_PG*%
X156915000Y-107175000D03*
%TO.P,R13,2*%
%TO.N,+3V3*%
X155925000Y-107175000D03*
%TD*%
D19*
%TO.P,C5,1*%
%TO.N,+3V3*%
X141575000Y-94075000D03*
%TO.P,C5,2*%
%TO.N,GND*%
X141575000Y-93115000D03*
%TD*%
%TO.P,C29,1*%
%TO.N,+3V3*%
X156650000Y-95575000D03*
%TO.P,C29,2*%
%TO.N,GND*%
X156650000Y-94615000D03*
%TD*%
D28*
%TO.P,L3,1,1*%
%TO.N,/Power Management/REG_SW*%
X156275000Y-108625001D03*
%TO.P,L3,2,2*%
%TO.N,+3V3*%
X156275000Y-110224999D03*
%TD*%
D21*
%TO.P,C13,1*%
%TO.N,/Microcontroller/CLK_RTC_OUT*%
X139165000Y-103675000D03*
%TO.P,C13,2*%
%TO.N,GND*%
X140125000Y-103675000D03*
%TD*%
D17*
%TO.P,R11,1*%
%TO.N,+3V3*%
X149975000Y-105240000D03*
%TO.P,R11,2*%
%TO.N,3V3_AUX_EN*%
X149975000Y-104250000D03*
%TD*%
D19*
%TO.P,C8,1*%
%TO.N,/Microcontroller/VDD_PI_OUT*%
X142400000Y-94075000D03*
%TO.P,C8,2*%
%TO.N,GND*%
X142400000Y-93115000D03*
%TD*%
D29*
%TO.P,U7,A3,DAT0*%
%TO.N,EMMC_DAT0*%
X154050000Y-97350000D03*
X154550000Y-97350000D03*
X155050000Y-97350000D03*
%TO.P,U7,A4,DAT1*%
%TO.N,EMMC_DAT1*%
X155550000Y-97350000D03*
%TO.P,U7,A5,DAT2*%
%TO.N,EMMC_DAT2*%
X156050000Y-97350000D03*
%TO.P,U7,A6,VSS*%
%TO.N,GND*%
X156550000Y-97350000D03*
%TO.P,U7,A7,NC*%
%TO.N,unconnected-(U7-NC-PadA7)*%
X157050000Y-97350000D03*
%TO.P,U7,A9,NC*%
%TO.N,unconnected-(U7-NC-PadA9)*%
X158050000Y-97350000D03*
%TO.P,U7,A10,NC*%
%TO.N,unconnected-(U7-NC-PadA10)*%
X158550000Y-97350000D03*
%TO.P,U7,A11,NC*%
%TO.N,unconnected-(U7-NC-PadA11)*%
X159050000Y-97350000D03*
%TO.P,U7,A12,NC*%
%TO.N,unconnected-(U7-NC-PadA12)*%
X159550000Y-97350000D03*
%TO.P,U7,A13,NC*%
%TO.N,unconnected-(U7-NC-PadA13)*%
X160050000Y-97350000D03*
%TO.P,U7,A14,NC*%
%TO.N,unconnected-(U7-NC-PadA14)*%
X160550000Y-97350000D03*
%TO.P,U7,B2,DAT3*%
%TO.N,EMMC_DAT3*%
X154050000Y-97850000D03*
X154550000Y-97850000D03*
%TO.P,U7,B3,NC*%
%TO.N,unconnected-(U7-NC-PadB3)*%
X155050000Y-97850000D03*
%TO.P,U7,B4,NC*%
%TO.N,unconnected-(U7-NC-PadB4)*%
X155550000Y-97850000D03*
%TO.P,U7,B5,NC*%
%TO.N,unconnected-(U7-NC-PadB5)*%
X156050000Y-97850000D03*
%TO.P,U7,B6,NC*%
%TO.N,unconnected-(U7-NC-PadB6)*%
X156550000Y-97850000D03*
%TO.P,U7,B8,NC*%
%TO.N,unconnected-(U7-NC-PadB8)*%
X157550000Y-97850000D03*
%TO.P,U7,B9,NC*%
%TO.N,unconnected-(U7-NC-PadB9)*%
X158050000Y-97850000D03*
%TO.P,U7,B10,NC*%
%TO.N,unconnected-(U7-NC-PadB10)*%
X158550000Y-97850000D03*
%TO.P,U7,B11,NC*%
%TO.N,unconnected-(U7-NC-PadB11)*%
X159050000Y-97850000D03*
%TO.P,U7,B12,NC*%
%TO.N,unconnected-(U7-NC-PadB12)*%
X159550000Y-97850000D03*
%TO.P,U7,B13,NC*%
%TO.N,unconnected-(U7-NC-PadB13)*%
X160050000Y-97850000D03*
%TO.P,U7,B14,NC*%
%TO.N,unconnected-(U7-NC-PadB14)*%
X160550000Y-97850000D03*
%TO.P,U7,C2,VDDI*%
%TO.N,Net-(U7-VDDI)*%
X154050000Y-98350000D03*
X154550000Y-98350000D03*
%TO.P,U7,C3,NC*%
%TO.N,unconnected-(U7-NC-PadC3)*%
X155050000Y-98350000D03*
%TO.P,U7,C4,VSSQ*%
%TO.N,GND*%
X155550000Y-98350000D03*
%TO.P,U7,C5,NC*%
%TO.N,unconnected-(U7-NC-PadC5)*%
X156050000Y-98350000D03*
%TO.P,U7,C6,VCCQ*%
%TO.N,+3V3*%
X156550000Y-98350000D03*
X157050000Y-97850000D03*
X157550000Y-97350000D03*
%TO.P,U7,C7,NC*%
%TO.N,unconnected-(U7-NC-PadC7)*%
X157050000Y-98350000D03*
%TO.P,U7,C8,NC*%
%TO.N,unconnected-(U7-NC-PadC8)*%
X157550000Y-98350000D03*
%TO.P,U7,C9,NC*%
%TO.N,unconnected-(U7-NC-PadC9)*%
X158050000Y-98350000D03*
%TO.P,U7,C10,NC*%
%TO.N,unconnected-(U7-NC-PadC10)*%
X158550000Y-98350000D03*
%TO.P,U7,C11,NC*%
%TO.N,unconnected-(U7-NC-PadC11)*%
X159050000Y-98350000D03*
%TO.P,U7,C12,NC*%
%TO.N,unconnected-(U7-NC-PadC12)*%
X159550000Y-98350000D03*
%TO.P,U7,C13,NC*%
%TO.N,unconnected-(U7-NC-PadC13)*%
X160050000Y-98350000D03*
%TO.P,U7,C14,NC*%
%TO.N,unconnected-(U7-NC-PadC14)*%
X160550000Y-98350000D03*
%TO.P,U7,D1,NC*%
%TO.N,unconnected-(U7-NC-PadD1)*%
X154050000Y-98850000D03*
%TO.P,U7,D2,NC*%
%TO.N,unconnected-(U7-NC-PadD2)*%
X154550000Y-98850000D03*
%TO.P,U7,D3,NC*%
%TO.N,unconnected-(U7-NC-PadD3)*%
X155050000Y-98850000D03*
%TO.P,U7,D4,NC*%
%TO.N,unconnected-(U7-NC-PadD4)*%
X155550000Y-98850000D03*
%TO.P,U7,D12,NC*%
%TO.N,unconnected-(U7-NC-PadD12)*%
X159550000Y-98850000D03*
%TO.P,U7,D13,NC*%
%TO.N,unconnected-(U7-NC-PadD13)*%
X160050000Y-98850000D03*
%TO.P,U7,D14,NC*%
%TO.N,unconnected-(U7-NC-PadD14)*%
X160550000Y-98850000D03*
%TO.P,U7,E1,NC*%
%TO.N,unconnected-(U7-NC-PadE1)*%
X154050000Y-99350000D03*
%TO.P,U7,E2,NC*%
%TO.N,unconnected-(U7-NC-PadE2)*%
X154550000Y-99350000D03*
%TO.P,U7,E3,NC*%
%TO.N,unconnected-(U7-NC-PadE3)*%
X155050000Y-99350000D03*
%TO.P,U7,E5,NC*%
%TO.N,unconnected-(U7-NC-PadE5)*%
X156050000Y-99350000D03*
%TO.P,U7,E6,VCC*%
%TO.N,+3V3*%
X156550000Y-99350000D03*
%TO.P,U7,E7,VSS*%
%TO.N,GND*%
X157050000Y-99350000D03*
%TO.P,U7,E8,NC*%
%TO.N,unconnected-(U7-NC-PadE8)*%
X157550000Y-99350000D03*
%TO.P,U7,E9,NC*%
%TO.N,unconnected-(U7-NC-PadE9)*%
X158050000Y-99350000D03*
%TO.P,U7,E10,NC*%
%TO.N,unconnected-(U7-NC-PadE10)*%
X158550000Y-99350000D03*
%TO.P,U7,E12,NC*%
%TO.N,unconnected-(U7-NC-PadE12)*%
X159550000Y-99350000D03*
%TO.P,U7,E13,NC*%
%TO.N,unconnected-(U7-NC-PadE13)*%
X160050000Y-99350000D03*
%TO.P,U7,E14,NC*%
%TO.N,unconnected-(U7-NC-PadE14)*%
X160550000Y-99350000D03*
%TO.P,U7,F1,NC*%
%TO.N,unconnected-(U7-NC-PadF1)*%
X154050000Y-99850000D03*
%TO.P,U7,F2,NC*%
%TO.N,unconnected-(U7-NC-PadF2)*%
X154550000Y-99850000D03*
%TO.P,U7,F3,NC*%
%TO.N,unconnected-(U7-NC-PadF3)*%
X155050000Y-99850000D03*
%TO.P,U7,F5,VCC*%
%TO.N,+3V3*%
X156050000Y-99850000D03*
%TO.P,U7,F10,NC*%
%TO.N,unconnected-(U7-NC-PadF10)*%
X158550000Y-99850000D03*
%TO.P,U7,F12,NC*%
%TO.N,unconnected-(U7-NC-PadF12)*%
X159550000Y-99850000D03*
%TO.P,U7,F13,NC*%
%TO.N,unconnected-(U7-NC-PadF13)*%
X160050000Y-99850000D03*
%TO.P,U7,F14,NC*%
%TO.N,unconnected-(U7-NC-PadF14)*%
X160550000Y-99850000D03*
%TO.P,U7,G1,NC*%
%TO.N,unconnected-(U7-NC-PadG1)*%
X154050000Y-100350000D03*
%TO.P,U7,G2,NC*%
%TO.N,unconnected-(U7-NC-PadG2)*%
X154550000Y-100350000D03*
%TO.P,U7,G3,NC*%
%TO.N,unconnected-(U7-NC-PadG3)*%
X155050000Y-100350000D03*
%TO.P,U7,G5,VSS*%
%TO.N,GND*%
X156050000Y-100350000D03*
%TO.P,U7,G10,NC*%
%TO.N,unconnected-(U7-NC-PadG10)*%
X158550000Y-100350000D03*
%TO.P,U7,G12,NC*%
%TO.N,unconnected-(U7-NC-PadG12)*%
X159550000Y-100350000D03*
%TO.P,U7,G13,NC*%
%TO.N,unconnected-(U7-NC-PadG13)*%
X160050000Y-100350000D03*
%TO.P,U7,G14,NC*%
%TO.N,unconnected-(U7-NC-PadG14)*%
X160550000Y-100350000D03*
%TO.P,U7,H1,NC*%
%TO.N,unconnected-(U7-NC-PadH1)*%
X154050000Y-100850000D03*
%TO.P,U7,H2,NC*%
%TO.N,unconnected-(U7-NC-PadH2)*%
X154550000Y-100850000D03*
%TO.P,U7,H3,NC*%
%TO.N,unconnected-(U7-NC-PadH3)*%
X155050000Y-100850000D03*
%TO.P,U7,H5,NC*%
%TO.N,unconnected-(U7-NC-PadH5)*%
X156050000Y-100850000D03*
%TO.P,U7,H10,VSS*%
%TO.N,GND*%
X158550000Y-100850000D03*
%TO.P,U7,H12,NC*%
%TO.N,unconnected-(U7-NC-PadH12)*%
X159550000Y-100850000D03*
%TO.P,U7,H13,NC*%
%TO.N,unconnected-(U7-NC-PadH13)*%
X160050000Y-100850000D03*
%TO.P,U7,H14,NC*%
%TO.N,unconnected-(U7-NC-PadH14)*%
X160550000Y-100850000D03*
%TO.P,U7,J5,VSS*%
%TO.N,GND*%
X156050000Y-101350000D03*
%TO.P,U7,J10,VCC*%
%TO.N,+3V3*%
X158550000Y-101350000D03*
%TO.P,U7,J12,NC*%
%TO.N,unconnected-(U7-NC-PadJ12)*%
X159550000Y-101350000D03*
%TO.P,U7,J13,NC*%
%TO.N,unconnected-(U7-NC-PadJ13)*%
X160050000Y-101350000D03*
%TO.P,U7,J14,NC*%
%TO.N,unconnected-(U7-NC-PadJ14)*%
X160550000Y-101350000D03*
%TO.P,U7,K5,RST_N*%
%TO.N,CORE_RST_REQ_N*%
X154050000Y-101350000D03*
X154550000Y-101350000D03*
X155050000Y-101350000D03*
X156050000Y-101850000D03*
%TO.P,U7,K6,NC*%
%TO.N,unconnected-(U7-NC-PadK6)*%
X156550000Y-101850000D03*
%TO.P,U7,K7,NC*%
%TO.N,unconnected-(U7-NC-PadK7)*%
X157050000Y-101850000D03*
%TO.P,U7,K8,VSS*%
%TO.N,GND*%
X157550000Y-101850000D03*
%TO.P,U7,K9,VCC*%
%TO.N,+3V3*%
X158050000Y-101850000D03*
%TO.P,U7,K10,NC*%
%TO.N,unconnected-(U7-NC-PadK10)*%
X158550000Y-101850000D03*
%TO.P,U7,K12,NC*%
%TO.N,unconnected-(U7-NC-PadK12)*%
X159550000Y-101850000D03*
%TO.P,U7,K13,NC*%
%TO.N,unconnected-(U7-NC-PadK13)*%
X160050000Y-101850000D03*
%TO.P,U7,K14,NC*%
%TO.N,unconnected-(U7-NC-PadK14)*%
X160550000Y-101850000D03*
%TO.P,U7,L12,NC*%
%TO.N,unconnected-(U7-NC-PadL12)*%
X159550000Y-102350000D03*
%TO.P,U7,L13,NC*%
%TO.N,unconnected-(U7-NC-PadL13)*%
X160050000Y-102350000D03*
%TO.P,U7,L14,NC*%
%TO.N,unconnected-(U7-NC-PadL14)*%
X160550000Y-102350000D03*
%TO.P,U7,M1,NC*%
%TO.N,unconnected-(U7-NC-PadM1)*%
X154050000Y-102850000D03*
%TO.P,U7,M2,NC*%
%TO.N,unconnected-(U7-NC-PadM2)*%
X154550000Y-102850000D03*
%TO.P,U7,M3,NC*%
%TO.N,unconnected-(U7-NC-PadM3)*%
X155050000Y-102850000D03*
%TO.P,U7,M4,VCCQ*%
%TO.N,+3V3*%
X155550000Y-102850000D03*
%TO.P,U7,M5,CMD*%
%TO.N,EMMC_CMD*%
X154050000Y-102350000D03*
X154550000Y-102350000D03*
X155050000Y-102350000D03*
X156050000Y-102850000D03*
%TO.P,U7,M6,CLK*%
%TO.N,EMMC_CLK*%
X154050000Y-101850000D03*
X154550000Y-101850000D03*
X155050000Y-101850000D03*
X156550000Y-102850000D03*
%TO.P,U7,M7,NC*%
%TO.N,unconnected-(U7-NC-PadM7)*%
X157050000Y-102850000D03*
%TO.P,U7,M8,NC*%
%TO.N,unconnected-(U7-NC-PadM8)*%
X157550000Y-102850000D03*
%TO.P,U7,M9,NC*%
%TO.N,unconnected-(U7-NC-PadM9)*%
X158050000Y-102850000D03*
%TO.P,U7,M10,NC*%
%TO.N,unconnected-(U7-NC-PadM10)*%
X158550000Y-102850000D03*
%TO.P,U7,M11,NC*%
%TO.N,unconnected-(U7-NC-PadM11)*%
X159050000Y-102850000D03*
%TO.P,U7,M12,NC*%
%TO.N,unconnected-(U7-NC-PadM12)*%
X159550000Y-102850000D03*
%TO.P,U7,M13,NC*%
%TO.N,unconnected-(U7-NC-PadM13)*%
X160050000Y-102850000D03*
%TO.P,U7,M14,NC*%
%TO.N,unconnected-(U7-NC-PadM14)*%
X160550000Y-102850000D03*
%TO.P,U7,N1,NC*%
%TO.N,unconnected-(U7-NC-PadN1)*%
X154050000Y-103350000D03*
%TO.P,U7,N2,VSSQ*%
%TO.N,GND*%
X154050000Y-103850000D03*
X154550000Y-103350000D03*
%TO.P,U7,N3,NC*%
%TO.N,unconnected-(U7-NC-PadN3)*%
X155050000Y-103350000D03*
%TO.P,U7,N4,VCCQ*%
%TO.N,+3V3*%
X155550000Y-103350000D03*
%TO.P,U7,N5,VSSQ*%
%TO.N,GND*%
X156050000Y-103350000D03*
%TO.P,U7,N6,NC*%
%TO.N,unconnected-(U7-NC-PadN6)*%
X156550000Y-103350000D03*
%TO.P,U7,N7,NC*%
%TO.N,unconnected-(U7-NC-PadN7)*%
X157050000Y-103350000D03*
%TO.P,U7,N8,NC*%
%TO.N,unconnected-(U7-NC-PadN8)*%
X157550000Y-103350000D03*
%TO.P,U7,N9,NC*%
%TO.N,unconnected-(U7-NC-PadN9)*%
X158050000Y-103350000D03*
%TO.P,U7,N10,NC*%
%TO.N,unconnected-(U7-NC-PadN10)*%
X158550000Y-103350000D03*
%TO.P,U7,N11,NC*%
%TO.N,unconnected-(U7-NC-PadN11)*%
X159050000Y-103350000D03*
%TO.P,U7,N12,NC*%
%TO.N,unconnected-(U7-NC-PadN12)*%
X159550000Y-103350000D03*
%TO.P,U7,N13,NC*%
%TO.N,unconnected-(U7-NC-PadN13)*%
X160050000Y-103350000D03*
%TO.P,U7,N14,NC*%
%TO.N,unconnected-(U7-NC-PadN14)*%
X160550000Y-103350000D03*
%TO.P,U7,P2,NC*%
%TO.N,unconnected-(U7-NC-PadP2)*%
X154550000Y-103850000D03*
%TO.P,U7,P3,VCCQ*%
%TO.N,+3V3*%
X155050000Y-103850000D03*
%TO.P,U7,P4,VSSQ*%
%TO.N,GND*%
X155550000Y-103850000D03*
%TO.P,U7,P5,VCCQ*%
%TO.N,+3V3*%
X156050000Y-103850000D03*
%TO.P,U7,P6,VSSQ*%
%TO.N,GND*%
X156550000Y-103850000D03*
%TO.P,U7,P7,NC*%
%TO.N,unconnected-(U7-NC-PadP7)*%
X157050000Y-103850000D03*
%TO.P,U7,P8,NC*%
%TO.N,unconnected-(U7-NC-PadP8)*%
X157550000Y-103850000D03*
%TO.P,U7,P9,NC*%
%TO.N,unconnected-(U7-NC-PadP9)*%
X158050000Y-103850000D03*
%TO.P,U7,P10,NC*%
%TO.N,unconnected-(U7-NC-PadP10)*%
X158550000Y-103850000D03*
%TO.P,U7,P11,NC*%
%TO.N,unconnected-(U7-NC-PadP11)*%
X159050000Y-103850000D03*
%TO.P,U7,P12,NC*%
%TO.N,unconnected-(U7-NC-PadP12)*%
X159550000Y-103850000D03*
%TO.P,U7,P13,NC*%
%TO.N,unconnected-(U7-NC-PadP13)*%
X160050000Y-103850000D03*
%TO.P,U7,P14,NC*%
%TO.N,unconnected-(U7-NC-PadP14)*%
X160550000Y-103850000D03*
%TD*%
D18*
%TO.P,C15,1*%
%TO.N,RF_FEED*%
X145400000Y-90530000D03*
%TO.P,C15,2*%
%TO.N,GND*%
X144440000Y-90530000D03*
%TD*%
D19*
%TO.P,C4,1*%
%TO.N,+3V3*%
X140750000Y-94075000D03*
%TO.P,C4,2*%
%TO.N,GND*%
X140750000Y-93115000D03*
%TD*%
D23*
%TO.P,TP15,1,1*%
%TO.N,GND*%
X151225000Y-101700000D03*
%TD*%
D30*
%TO.P,U6,1,CS*%
%TO.N,QSPI_CS*%
X145650000Y-106645000D03*
%TO.P,U6,2,IO1*%
%TO.N,QSPI_IO1*%
X145650000Y-107915000D03*
%TO.P,U6,3,IO2/WP*%
%TO.N,QSPI_IO2*%
X145650000Y-109185000D03*
%TO.P,U6,4,GND*%
%TO.N,GND*%
X145650000Y-110455000D03*
%TO.P,U6,5,IO0*%
%TO.N,QSPI_IO0*%
X151050000Y-110455000D03*
%TO.P,U6,6,CLK*%
%TO.N,QSPI_CLK*%
X151050000Y-109185000D03*
%TO.P,U6,7,IO3/HD*%
%TO.N,QSPI_IO3*%
X151050000Y-107915000D03*
%TO.P,U6,8,VDD*%
%TO.N,+3V3*%
X151050000Y-106645000D03*
D31*
%TO.P,U6,9,EP*%
%TO.N,GND*%
X148350000Y-108550000D03*
%TD*%
D23*
%TO.P,TP8,1,1*%
%TO.N,/Microcontroller/QSPI_CLK_MCU*%
X148875000Y-103375000D03*
%TD*%
D18*
%TO.P,C10,1*%
%TO.N,+3V3*%
X142375000Y-101050000D03*
%TO.P,C10,2*%
%TO.N,GND*%
X141415000Y-101050000D03*
%TD*%
D12*
%TO.P,C39,1*%
%TO.N,+3V3*%
X140619098Y-109327500D03*
%TO.P,C39,2*%
%TO.N,GND*%
X140619098Y-110287500D03*
%TD*%
D19*
%TO.P,C7,1*%
%TO.N,+3V3*%
X149350000Y-93910000D03*
%TO.P,C7,2*%
%TO.N,GND*%
X149350000Y-92950000D03*
%TD*%
D32*
%TO.P,C27,1*%
%TO.N,+3V3*%
X159200000Y-95337500D03*
D33*
%TO.P,C27,2*%
%TO.N,GND*%
X160675000Y-95350000D03*
%TD*%
D34*
%TO.P,C34,1*%
%TO.N,+3V3*%
X152825000Y-104625000D03*
D35*
%TO.P,C34,2*%
%TO.N,GND*%
X151350000Y-104612500D03*
%TD*%
D23*
%TO.P,TP19,1,1*%
%TO.N,+3V3*%
X139825000Y-109850000D03*
%TD*%
D18*
%TO.P,C33,1*%
%TO.N,Net-(U7-VDDI)*%
X153025000Y-99750000D03*
%TO.P,C33,2*%
%TO.N,GND*%
X152065000Y-99750000D03*
%TD*%
D36*
%TO.P,R17,1*%
%TO.N,EMMC_CMD*%
X152025000Y-102700000D03*
%TO.P,R17,2*%
%TO.N,+3V3*%
X153015000Y-102700000D03*
%TD*%
D37*
%TO.P,C1,1*%
%TO.N,+3V3*%
X139575000Y-93900000D03*
%TO.P,C1,2*%
%TO.N,GND*%
X139575000Y-92100000D03*
%TD*%
D12*
%TO.P,C6,1*%
%TO.N,+3V3*%
X146350000Y-104265000D03*
%TO.P,C6,2*%
%TO.N,GND*%
X146350000Y-105225000D03*
%TD*%
D21*
%TO.P,C24,1*%
%TO.N,/Power Management/SUP_CTR*%
X139160000Y-98670000D03*
%TO.P,C24,2*%
%TO.N,GND*%
X140120000Y-98670000D03*
%TD*%
%TO.P,C23,1*%
%TO.N,/Power Management/SUP_CTS*%
X139160000Y-99470000D03*
%TO.P,C23,2*%
%TO.N,GND*%
X140120000Y-99470000D03*
%TD*%
D20*
%TO.P,R9,1*%
%TO.N,/Microcontroller/QSPI_CLK_MCU*%
X149050000Y-104250000D03*
%TO.P,R9,2*%
%TO.N,QSPI_CLK*%
X149050000Y-105240000D03*
%TD*%
D36*
%TO.P,R8,1*%
%TO.N,/Microcontroller/EMMC_CLK_MCU*%
X152025000Y-101475000D03*
%TO.P,R8,2*%
%TO.N,EMMC_CLK*%
X153015000Y-101475000D03*
%TD*%
D23*
%TO.P,TP18,1,1*%
%TO.N,+3V3*%
X150800000Y-105675000D03*
%TD*%
D12*
%TO.P,C35,1*%
%TO.N,+3V3*%
X144025000Y-109327500D03*
%TO.P,C35,2*%
%TO.N,GND*%
X144025000Y-110287500D03*
%TD*%
D19*
%TO.P,C38,1*%
%TO.N,+3V3*%
X157450000Y-95575000D03*
%TO.P,C38,2*%
%TO.N,GND*%
X157450000Y-94615000D03*
%TD*%
D12*
%TO.P,C22,1*%
%TO.N,+3V3*%
X141020000Y-96600000D03*
%TO.P,C22,2*%
%TO.N,GND*%
X141020000Y-97560000D03*
%TD*%
D19*
%TO.P,C18,1*%
%TO.N,+3V3*%
X152900000Y-106575000D03*
%TO.P,C18,2*%
%TO.N,GND*%
X152900000Y-105615000D03*
%TD*%
D38*
%TO.P,U8,1,SDO*%
%TO.N,+3V3*%
X142087500Y-106762500D03*
%TO.P,U8,2,SDX*%
%TO.N,GND*%
X142087500Y-107262500D03*
%TO.P,U8,3,SCX*%
X142087500Y-107762500D03*
%TO.P,U8,4,INT1*%
%TO.N,INT_IMU*%
X142087500Y-108262500D03*
D39*
%TO.P,U8,5,VDDIO*%
%TO.N,+3V3*%
X142750000Y-108425000D03*
%TO.P,U8,6,GND*%
%TO.N,GND*%
X143250000Y-108425000D03*
%TO.P,U8,7,GND__1*%
X143750000Y-108425000D03*
D38*
%TO.P,U8,8,VDD*%
%TO.N,+3V3*%
X144412500Y-108262500D03*
%TO.P,U8,9,INT2*%
%TO.N,unconnected-(U8-INT2-Pad9)*%
X144412500Y-107762500D03*
%TO.P,U8,10,NC*%
%TO.N,unconnected-(U8-NC-Pad10)*%
X144412500Y-107262500D03*
%TO.P,U8,11,NC__1*%
%TO.N,unconnected-(U8-NC__1-Pad11)*%
X144412500Y-106762500D03*
D39*
%TO.P,U8,12,CS*%
%TO.N,+3V3*%
X143750000Y-106600000D03*
%TO.P,U8,13,SCL*%
%TO.N,I2C0_SCL*%
X143250000Y-106600000D03*
%TO.P,U8,14,SDA*%
%TO.N,I2C0_SDA*%
X142750000Y-106600000D03*
%TD*%
D40*
%TO.P,L1,1,1*%
%TO.N,+3V3*%
X141825000Y-94850000D03*
%TO.P,L1,2,2*%
%TO.N,/Microcontroller/VDD_PI_OUT*%
X142795000Y-94850000D03*
%TD*%
D12*
%TO.P,C21,1*%
%TO.N,+3V3_AUX*%
X152525000Y-109915000D03*
%TO.P,C21,2*%
%TO.N,GND*%
X152525000Y-110875000D03*
%TD*%
D20*
%TO.P,R5,1*%
%TO.N,/Microcontroller/USB_MCU_D-*%
X144325000Y-104250000D03*
%TO.P,R5,2*%
%TO.N,USB_D-*%
X144325000Y-105240000D03*
%TD*%
D12*
%TO.P,C28,1*%
%TO.N,+3V3*%
X142319098Y-109327500D03*
%TO.P,C28,2*%
%TO.N,GND*%
X142319098Y-110287500D03*
%TD*%
D22*
%TO.P,R12,1*%
%TO.N,/Power Management/REG_FB*%
X156915000Y-106250000D03*
%TO.P,R12,2*%
%TO.N,GND*%
X155925000Y-106250000D03*
%TD*%
D19*
%TO.P,C12,1*%
%TO.N,+3V3*%
X148550000Y-93910000D03*
%TO.P,C12,2*%
%TO.N,GND*%
X148550000Y-92950000D03*
%TD*%
D20*
%TO.P,R14,1*%
%TO.N,+3V3*%
X140080000Y-94860000D03*
%TO.P,R14,2*%
%TO.N,CORE_RESET_N*%
X140080000Y-95850000D03*
%TD*%
D41*
%TO.P,U5,1,VCC*%
%TO.N,+3V3*%
X140300000Y-105812500D03*
D42*
%TO.P,U5,2,GND*%
%TO.N,GND*%
X140700000Y-105312500D03*
D41*
%TO.P,U5,3,SDA*%
%TO.N,I2C0_SDA*%
X141100000Y-105812500D03*
%TO.P,U5,4,SCL*%
%TO.N,I2C0_SCL*%
X141100000Y-104812500D03*
%TO.P,U5,5,\u002AWC*%
%TO.N,unconnected-(U5-\u002AWC-Pad5)*%
X140300000Y-104812500D03*
%TD*%
D20*
%TO.P,R1,1*%
%TO.N,+3V3*%
X140970000Y-94860000D03*
%TO.P,R1,2*%
%TO.N,CORE_BOOT_SEL*%
X140970000Y-95850000D03*
%TD*%
D18*
%TO.P,C16,1*%
%TO.N,RF_FEED*%
X145410000Y-91350000D03*
%TO.P,C16,2*%
%TO.N,GND*%
X144450000Y-91350000D03*
%TD*%
D21*
%TO.P,C2,1*%
%TO.N,/Microcontroller/CLK_RTC_IN*%
X139165000Y-100275000D03*
%TO.P,C2,2*%
%TO.N,GND*%
X140125000Y-100275000D03*
%TD*%
D40*
%TO.P,L2,1,1*%
%TO.N,RF_FEED*%
X145410000Y-89700000D03*
%TO.P,L2,2,2*%
%TO.N,/External Interface/RF_FEED_ANT*%
X146380000Y-89700000D03*
%TD*%
D23*
%TO.P,TP11,1,1*%
%TO.N,VIN*%
X160675000Y-106225000D03*
%TD*%
%TO.P,TP20,1,1*%
%TO.N,GND*%
X139300000Y-110725000D03*
%TD*%
D21*
%TO.P,C14,1*%
%TO.N,/Microcontroller/CLK_MAIN_OUT*%
X151521250Y-95443750D03*
%TO.P,C14,2*%
%TO.N,GND*%
X152481250Y-95443750D03*
%TD*%
D43*
%TO.P,U3,1,VOUT*%
%TO.N,+3V3_AUX*%
X152275000Y-109187500D03*
%TO.P,U3,2,QOD*%
X152925000Y-109187500D03*
%TO.P,U3,3,CT*%
%TO.N,/Power Management/3V3_AUX_CT*%
X153575000Y-109187500D03*
%TO.P,U3,4,GND*%
%TO.N,GND*%
X153575000Y-107412500D03*
%TO.P,U3,5,EN*%
%TO.N,3V3_AUX_EN*%
X152925000Y-107412500D03*
%TO.P,U3,6,VIN*%
%TO.N,+3V3*%
X152275000Y-107412500D03*
D44*
%TO.P,U3,7,GND*%
%TO.N,GND*%
X152925000Y-108300000D03*
%TD*%
D12*
%TO.P,C19,1*%
%TO.N,/Power Management/3V3_AUX_CT*%
X153350000Y-109915000D03*
%TO.P,C19,2*%
%TO.N,GND*%
X153350000Y-110875000D03*
%TD*%
D45*
%TO.P,U10,1,VDDIO*%
%TO.N,+3V3*%
X140932098Y-107925500D03*
%TO.P,U10,2,SCL*%
%TO.N,I2C0_SCL*%
X140932098Y-107425500D03*
D46*
%TO.P,U10,3,GND*%
%TO.N,GND*%
X140669098Y-106913500D03*
%TO.P,U10,4,SDA*%
%TO.N,I2C0_SDA*%
X140169098Y-106913500D03*
%TO.P,U10,5,SDO*%
%TO.N,GND*%
X139669098Y-106913500D03*
D45*
%TO.P,U10,6,CSB*%
%TO.N,+3V3*%
X139406098Y-107425500D03*
%TO.P,U10,7,INT*%
%TO.N,unconnected-(U10-INT-Pad7)*%
X139406098Y-107925500D03*
D46*
%TO.P,U10,8,VSS_2*%
%TO.N,GND*%
X139669098Y-108437500D03*
%TO.P,U10,9,VSS_3*%
X140169098Y-108437500D03*
%TO.P,U10,10,VDD*%
%TO.N,+3V3*%
X140669098Y-108437500D03*
%TD*%
D19*
%TO.P,C32,1*%
%TO.N,+3V3*%
X158250000Y-95575000D03*
%TO.P,C32,2*%
%TO.N,GND*%
X158250000Y-94615000D03*
%TD*%
D22*
%TO.P,R21,1*%
%TO.N,EMMC_DAT0*%
X153015000Y-97200000D03*
%TO.P,R21,2*%
%TO.N,+3V3*%
X152025000Y-97200000D03*
%TD*%
D23*
%TO.P,TP14,1,1*%
%TO.N,/Microcontroller/EMMC_CLK_MCU*%
X151150000Y-100850000D03*
%TD*%
D20*
%TO.P,R6,1*%
%TO.N,/Microcontroller/USB_MCU_D+*%
X145250000Y-104250000D03*
%TO.P,R6,2*%
%TO.N,USB_D+*%
X145250000Y-105240000D03*
%TD*%
D17*
%TO.P,R20,1*%
%TO.N,EMMC_DAT1*%
X154900000Y-95575000D03*
%TO.P,R20,2*%
%TO.N,+3V3*%
X154900000Y-94585000D03*
%TD*%
D22*
%TO.P,R10,1*%
%TO.N,/Power Management/REG_CFG*%
X158690000Y-106250000D03*
%TO.P,R10,2*%
%TO.N,GND*%
X157700000Y-106250000D03*
%TD*%
D47*
%TO.P,C17,1*%
%TO.N,VIN*%
X160350000Y-107220000D03*
%TO.P,C17,2*%
%TO.N,GND*%
X160350000Y-109020000D03*
%TD*%
D48*
%TO.P,C20,1*%
%TO.N,+3V3*%
X157875000Y-110350000D03*
%TO.P,C20,2*%
%TO.N,GND*%
X159675000Y-110350000D03*
%TD*%
D12*
%TO.P,C30,1*%
%TO.N,+3V3*%
X153825000Y-105615000D03*
%TO.P,C30,2*%
%TO.N,GND*%
X153825000Y-106575000D03*
%TD*%
D20*
%TO.P,R2,1*%
%TO.N,/Microcontroller/BOOT1*%
X155800000Y-94585000D03*
%TO.P,R2,2*%
%TO.N,GND*%
X155800000Y-95575000D03*
%TD*%
D36*
%TO.P,R19,1*%
%TO.N,EMMC_DAT2*%
X152025000Y-100575000D03*
%TO.P,R19,2*%
%TO.N,+3V3*%
X153015000Y-100575000D03*
%TD*%
D49*
%TO.P,U2,1,PG*%
%TO.N,/Power Management/REG_PG*%
X157800000Y-107825000D03*
%TO.P,U2,2,SW*%
%TO.N,/Power Management/REG_SW*%
X157800000Y-108325000D03*
%TO.P,U2,3,VOS*%
%TO.N,+3V3*%
X157800000Y-108825000D03*
D50*
%TO.P,U2,4,GND*%
%TO.N,GND*%
X158875000Y-108825000D03*
D49*
%TO.P,U2,5,EN*%
%TO.N,VIN*%
X159050000Y-108325000D03*
D50*
%TO.P,U2,6,VIN*%
X158875000Y-107825000D03*
D51*
%TO.P,U2,7,SCONF*%
%TO.N,/Power Management/REG_CFG*%
X158925000Y-107150000D03*
%TO.P,U2,8,SS/TR*%
%TO.N,unconnected-(U2-SS{slash}TR-Pad8)*%
X158425000Y-107150000D03*
%TO.P,U2,9,FB*%
%TO.N,/Power Management/REG_FB*%
X157925000Y-107150000D03*
%TD*%
D52*
%TO.P,ANT1,1*%
%TO.N,/External Interface/RF_FEED_ANT*%
X148250000Y-89700000D03*
%TO.P,ANT1,2*%
%TO.N,unconnected-(ANT1-Pad2)*%
X151750000Y-89700000D03*
%TO.P,ANT1,3*%
%TO.N,GND*%
X151750000Y-88100000D03*
%TO.P,ANT1,4*%
X148250000Y-88100000D03*
%TD*%
D53*
%TO.N,GND*%
X146775000Y-104925000D03*
D54*
X141175000Y-90825000D03*
X138250000Y-96437500D03*
D53*
X146110000Y-90400000D03*
D54*
X160687500Y-88250000D03*
X144825000Y-88575000D03*
X146450000Y-88275000D03*
X159250000Y-93275000D03*
X138250000Y-105937500D03*
X153825000Y-106575000D03*
X153950000Y-92950000D03*
X141687500Y-88250000D03*
X156175000Y-90625000D03*
X155600000Y-93400000D03*
X161750000Y-91687500D03*
D53*
X151430000Y-108600000D03*
D54*
X161750000Y-101187500D03*
X143825000Y-90925000D03*
D53*
X139450000Y-105785000D03*
X149075000Y-107850000D03*
D54*
X142400000Y-91775000D03*
X155550000Y-104200000D03*
D53*
X159950000Y-95350000D03*
D54*
X142800000Y-89325000D03*
X157525000Y-93750000D03*
X157975000Y-91550000D03*
D53*
X140125000Y-103700000D03*
D54*
X151525000Y-104612500D03*
X158975000Y-90425000D03*
X146650000Y-92970000D03*
X144050000Y-91900000D03*
D53*
X147575000Y-109400000D03*
D54*
X156625000Y-104225000D03*
X140050000Y-92000000D03*
X152325000Y-93425000D03*
D53*
X148350000Y-108550000D03*
X146110000Y-91399500D03*
X160380000Y-110900000D03*
D54*
X153125000Y-94400000D03*
X143800000Y-89850000D03*
X146630000Y-93770000D03*
D53*
X142075000Y-107500000D03*
X153375000Y-108275000D03*
D54*
X151225000Y-101700000D03*
X154640000Y-105940000D03*
D53*
X141630000Y-101150000D03*
D54*
X146437500Y-111750000D03*
X154637500Y-110687500D03*
D53*
X140175000Y-107425000D03*
D54*
X153450000Y-89485000D03*
D53*
X153600000Y-97600000D03*
D54*
X155937500Y-88250000D03*
X156125000Y-92075000D03*
X148812500Y-111750000D03*
D53*
X139925000Y-108437499D03*
D54*
X152780000Y-96350000D03*
X142925000Y-93125000D03*
X161750000Y-108312500D03*
X138250000Y-91687500D03*
D53*
X142350000Y-110040000D03*
X156050000Y-98850000D03*
D54*
X155325000Y-89525000D03*
X153450000Y-90775000D03*
X154125000Y-88875000D03*
X153462500Y-88250000D03*
D53*
X159200000Y-108825000D03*
X151760000Y-99810000D03*
D54*
X153775000Y-104125000D03*
X155937500Y-105500000D03*
X146690000Y-91880000D03*
D53*
X144710000Y-90400000D03*
D54*
X139312500Y-111750000D03*
D53*
X143525000Y-108425000D03*
X151650000Y-109975000D03*
D54*
X161750000Y-94062500D03*
X154640000Y-108315000D03*
X144062500Y-111750000D03*
D53*
X140125000Y-100275000D03*
D54*
X138250000Y-110687500D03*
D53*
X144710000Y-91400500D03*
D54*
X160687500Y-111750000D03*
X138250000Y-108312500D03*
X155925000Y-106250000D03*
X158312500Y-111750000D03*
X150375000Y-92475000D03*
X152160000Y-90775000D03*
D53*
X149375000Y-102700000D03*
D54*
X138250000Y-103562500D03*
X141375000Y-89525000D03*
X151225000Y-94450000D03*
X161750000Y-103562500D03*
D53*
X155525000Y-96050000D03*
D54*
X152825000Y-91450000D03*
X148925000Y-91350000D03*
D53*
X159075000Y-110100000D03*
X146110000Y-92399500D03*
D54*
X138250000Y-89312500D03*
X138250000Y-98812500D03*
X138250000Y-94062500D03*
X155937500Y-111750000D03*
X138250000Y-101187500D03*
D53*
X144080000Y-110410000D03*
X144710000Y-92400000D03*
X152525000Y-108287500D03*
D54*
X146600000Y-88975000D03*
X148290000Y-90775000D03*
D53*
X141350000Y-103775000D03*
D54*
X147000000Y-90775000D03*
D53*
X144800000Y-105850000D03*
D54*
X144160000Y-93000000D03*
X148930000Y-93020000D03*
D53*
X156550000Y-96925000D03*
X141044098Y-110150000D03*
D54*
X157700000Y-106250000D03*
X150250000Y-91400000D03*
X157060000Y-94670000D03*
D53*
X160800000Y-110375000D03*
D54*
X144000000Y-88250000D03*
D53*
X144710000Y-89400500D03*
D54*
X159650000Y-91900000D03*
X147650000Y-91425000D03*
X151975000Y-105725000D03*
X158312500Y-105500000D03*
X144230000Y-93780000D03*
X149175000Y-98775000D03*
D53*
X146420000Y-109600000D03*
D54*
X149580000Y-90775000D03*
X160687500Y-105500000D03*
X151187500Y-111750000D03*
X157040000Y-100420000D03*
X154150000Y-90125000D03*
X157525000Y-89575000D03*
X161750000Y-96437500D03*
X161750000Y-98812500D03*
X145625000Y-88975000D03*
X147396643Y-97764828D03*
X152481250Y-95400000D03*
D53*
X144830000Y-93410000D03*
D54*
X161750000Y-89312500D03*
X150850000Y-95750000D03*
X147398026Y-99548026D03*
X161750000Y-110687500D03*
D53*
X141020000Y-97560000D03*
D54*
X158312500Y-88250000D03*
X139312500Y-88250000D03*
D53*
X147200000Y-101700000D03*
D54*
X154200000Y-91350000D03*
X150870000Y-90775000D03*
D53*
X153350000Y-110875000D03*
X157870002Y-94900000D03*
X159975000Y-109650000D03*
D54*
X145601974Y-99551974D03*
X157630000Y-100770000D03*
X141687500Y-111750000D03*
D53*
X145990000Y-93410000D03*
D54*
X141175000Y-93325000D03*
X145600592Y-97764828D03*
X153575000Y-111750000D03*
D53*
X147125000Y-106850000D03*
X151425000Y-98075000D03*
D54*
X151550000Y-91375000D03*
X161750000Y-105937500D03*
%TO.N,+3V3*%
X139550000Y-93900000D03*
X157475000Y-110080000D03*
X151975000Y-106450000D03*
X156550000Y-99850000D03*
X141044098Y-109502500D03*
D53*
X142225003Y-101050000D03*
D54*
X152025000Y-96350000D03*
X141775000Y-94850000D03*
X157075000Y-95325000D03*
X158450000Y-110875000D03*
X158050000Y-101350000D03*
X155925000Y-107175000D03*
D53*
X153015000Y-100575000D03*
D54*
X146775000Y-104277297D03*
X156225000Y-104850000D03*
D53*
X154900000Y-94600000D03*
D54*
X153825000Y-105900000D03*
X148975000Y-93675000D03*
X142707149Y-109510702D03*
X156275000Y-110224999D03*
X152825000Y-104625000D03*
X158450000Y-109475000D03*
D53*
X141020000Y-96600000D03*
X158268355Y-95425659D03*
D54*
X155630000Y-110875000D03*
X141575000Y-93875000D03*
X152275000Y-107412500D03*
D53*
%TO.N,VIN*%
X159900000Y-107475000D03*
X160800000Y-107125000D03*
X159600000Y-106150000D03*
X159025000Y-108075000D03*
X160800000Y-108175000D03*
%TO.N,/Microcontroller/BOOT1*%
X155800000Y-94585000D03*
X147766915Y-95991915D03*
%TO.N,/Microcontroller/UART0_RX_MCU*%
X149390202Y-95500000D03*
X153675000Y-94925000D03*
%TO.N,I2C0_SCL*%
X143400000Y-104250000D03*
X141740000Y-106200000D03*
X143040000Y-105910000D03*
X141300000Y-104800000D03*
%TO.N,USB_D-*%
X144475000Y-105325000D03*
X143650000Y-110900000D03*
%TO.N,USB_D+*%
X144476248Y-110873830D03*
X145125000Y-105325000D03*
%TO.N,UART0_RX*%
X153725000Y-96200000D03*
X159050000Y-100950000D03*
%TO.N,EMMC_DAT1*%
X154900000Y-95850000D03*
X151390420Y-97467520D03*
%TO.N,EMMC_DAT2*%
X155740631Y-96635214D03*
X151900000Y-100400000D03*
%TO.N,EMMC_DAT3*%
X149245343Y-99454657D03*
X153065209Y-97909768D03*
%TO.N,EMMC_DAT0*%
X153099420Y-97334595D03*
X149725000Y-98400000D03*
%TO.N,IO4*%
X141950000Y-96125000D03*
D54*
X139200000Y-90500000D03*
D53*
%TO.N,QSPI_IO3*%
X150837500Y-108487500D03*
X146750000Y-102125000D03*
%TO.N,IO2*%
X143175000Y-96200000D03*
D54*
X140100000Y-89825000D03*
D53*
%TO.N,IO0*%
X145669818Y-96105182D03*
X159925000Y-96800000D03*
%TO.N,UART0_TX*%
X150000000Y-95950000D03*
X159050000Y-101600000D03*
%TO.N,IO7*%
X142000000Y-99000000D03*
X139180000Y-108650000D03*
%TO.N,IO11*%
X141000000Y-103025000D03*
X143825000Y-99925000D03*
%TO.N,IO9*%
X153984788Y-109750000D03*
X159175000Y-104625000D03*
X143275000Y-99350000D03*
%TO.N,QSPI_IO2*%
X146325000Y-109000000D03*
X147775000Y-103500000D03*
%TO.N,QSPI_IO0*%
X149175000Y-102075000D03*
X151050000Y-109925000D03*
%TO.N,IO10*%
X141900000Y-100400000D03*
X139275000Y-109500000D03*
%TO.N,IO8*%
X140825000Y-100150000D03*
X139925000Y-104300000D03*
%TO.N,IO5*%
X141725000Y-97400000D03*
X139250000Y-93025000D03*
%TO.N,IO14*%
X160700000Y-92850000D03*
X151025000Y-96900000D03*
%TO.N,IO1*%
X160275000Y-96325000D03*
X144525000Y-97075000D03*
%TO.N,IO6*%
X140975000Y-98300000D03*
%TO.N,QSPI_IO1*%
X146912500Y-106312500D03*
X147587500Y-101287500D03*
%TO.N,IO3*%
X143125000Y-98375000D03*
X150300000Y-110025000D03*
%TO.N,INT_IMU*%
X142087499Y-108300000D03*
X145650000Y-101400000D03*
%TO.N,+3V3_AUX*%
X152525000Y-110225000D03*
X152525000Y-109600000D03*
%TO.N,CORE_BOOT_SEL*%
X140975000Y-95850000D03*
X153910000Y-110400000D03*
D54*
%TO.N,IO16*%
X159500000Y-89250000D03*
D53*
X148225000Y-96950000D03*
%TO.N,CORE_RESET_N*%
X140080000Y-95850000D03*
%TO.N,3V3_AUX_EN*%
X152925000Y-107412500D03*
X150550000Y-103325000D03*
%TO.N,CORE_RST_REQ_N*%
X146500000Y-95200000D03*
X153625000Y-100600000D03*
D54*
%TO.N,IO15*%
X160750000Y-90675000D03*
D53*
X148950000Y-97625000D03*
%TD*%
D55*
%TO.N,QSPI_CS*%
X148300000Y-102437722D02*
X147946573Y-102084295D01*
X148300000Y-105150000D02*
X148300000Y-102437722D01*
X146595000Y-105850000D02*
X147600000Y-105850000D01*
X147600000Y-105850000D02*
X148300000Y-105150000D01*
X145650000Y-106645000D02*
X145800000Y-106645000D01*
X145800000Y-106645000D02*
X146595000Y-105850000D01*
%TO.N,EMMC_DAT0*%
X153284015Y-97150000D02*
X153850000Y-97150000D01*
X153099420Y-97334595D02*
X153284015Y-97150000D01*
X153850000Y-97150000D02*
X154050000Y-97350000D01*
%TO.N,EMMC_DAT3*%
X153065000Y-98150000D02*
X153750000Y-98150000D01*
X153015000Y-98100000D02*
X153065000Y-98150000D01*
X153750000Y-98150000D02*
X154050000Y-97850000D01*
D56*
%TO.N,Net-(U7-VDDI)*%
X154000000Y-98350000D02*
X154050000Y-98350000D01*
X153625000Y-98675000D02*
X153800000Y-98500000D01*
X153800000Y-98500000D02*
X153850000Y-98500000D01*
X153850000Y-98500000D02*
X154000000Y-98350000D01*
D57*
X153400000Y-98900000D02*
X153225000Y-98900000D01*
X153225000Y-98900000D02*
X153200000Y-98925000D01*
X153200000Y-98925000D02*
X153200000Y-98950000D01*
X153625000Y-98675000D02*
X153400000Y-98900000D01*
D58*
%TO.N,IO4*%
X142150000Y-96853407D02*
X142805907Y-97509314D01*
X142150000Y-96337500D02*
X142150000Y-96853407D01*
X141950000Y-96137500D02*
X142150000Y-96337500D01*
X141950000Y-96125000D02*
X141950000Y-96137500D01*
D59*
%TO.N,IO14*%
X150215686Y-97509314D02*
X150209315Y-97509314D01*
X150800000Y-96925000D02*
X150215686Y-97509314D01*
X151025000Y-96900000D02*
X151000000Y-96925000D01*
X151000000Y-96925000D02*
X150800000Y-96925000D01*
%TO.N,I2C0_SDA*%
X142000000Y-104250000D02*
X142475000Y-104250000D01*
X141850000Y-104400000D02*
X142000000Y-104250000D01*
X141850000Y-105024999D02*
X141850000Y-104400000D01*
X141600000Y-105274999D02*
X141850000Y-105024999D01*
D58*
%TO.N,CORE_RST_REQ_N*%
X153595000Y-101019665D02*
X153925335Y-101350000D01*
X153595000Y-100630000D02*
X153595000Y-101019665D01*
X153925335Y-101350000D02*
X154050000Y-101350000D01*
X153625000Y-100600000D02*
X153595000Y-100630000D01*
%TO.N,GND*%
X157934300Y-94950000D02*
X158242150Y-94642150D01*
X157870002Y-94950000D02*
X157934300Y-94950000D01*
X156625000Y-104225000D02*
X156625000Y-104025000D01*
D60*
X143250000Y-108425000D02*
X143525000Y-108425000D01*
D59*
X140375000Y-107400000D02*
X140669098Y-107105902D01*
D61*
X142400000Y-93115000D02*
X142915000Y-93115000D01*
D62*
X156650000Y-94615000D02*
X158250000Y-94615000D01*
D56*
X156550000Y-101350000D02*
X157300000Y-100600000D01*
D58*
X155800000Y-95465000D02*
X156650000Y-94615000D01*
D61*
X148817638Y-92950000D02*
X148943465Y-93075827D01*
D56*
X155550000Y-104200000D02*
X155550000Y-103850000D01*
D62*
X141469098Y-110287500D02*
X142319098Y-110287500D01*
X151975000Y-105237500D02*
X151350000Y-104612500D01*
X152025000Y-105565000D02*
X151975000Y-105615000D01*
D57*
X146475000Y-109616692D02*
X146475000Y-109780000D01*
X153775000Y-104125000D02*
X154050000Y-103850000D01*
D62*
X140540000Y-93115000D02*
X139525000Y-92100000D01*
D56*
X157000000Y-100250000D02*
X157050000Y-100200000D01*
D60*
X153462500Y-88250000D02*
X153462500Y-88150000D01*
D62*
X141525000Y-93115000D02*
X142350000Y-93115000D01*
D60*
X142087500Y-107487500D02*
X142075000Y-107500000D01*
D57*
X153575000Y-107412500D02*
X153575000Y-106825000D01*
X151002500Y-94672500D02*
X150787500Y-94672500D01*
D60*
X146507611Y-101032611D02*
X146507611Y-98665434D01*
D58*
X155550000Y-98350000D02*
X156025000Y-98825000D01*
D56*
X139300000Y-110725000D02*
X139325000Y-110700000D01*
X158525000Y-100850000D02*
X158550000Y-100850000D01*
D58*
X156025000Y-98825000D02*
X156025000Y-98875000D01*
D57*
X146475000Y-109780000D02*
X145650000Y-110605000D01*
D63*
X153312500Y-88100000D02*
X153462500Y-88250000D01*
D58*
X152750000Y-96350000D02*
X153000000Y-96350000D01*
D62*
X151975000Y-105615000D02*
X152900000Y-105615000D01*
X140700000Y-93115000D02*
X140540000Y-93115000D01*
D58*
X156550000Y-97350000D02*
X156550000Y-96925000D01*
D57*
X153575000Y-107412500D02*
X153575000Y-108075000D01*
X151225000Y-94450000D02*
X151002500Y-94672500D01*
D60*
X139925000Y-108437499D02*
X139925000Y-108550000D01*
X151786759Y-99861782D02*
X151888215Y-99861782D01*
D56*
X145550000Y-110505000D02*
X145650000Y-110605000D01*
D62*
X140700000Y-93115000D02*
X141525000Y-93115000D01*
D59*
X140100000Y-107400000D02*
X140375000Y-107400000D01*
D62*
X153025000Y-108300000D02*
X153225000Y-108300000D01*
D60*
X139669098Y-108437500D02*
X139925000Y-108437499D01*
D61*
X142915000Y-93115000D02*
X142925000Y-93125000D01*
D60*
X140259999Y-98530001D02*
X140120000Y-98670000D01*
D63*
X146025000Y-88275000D02*
X146200000Y-88100000D01*
D59*
X139669098Y-106913500D02*
X139669098Y-106969098D01*
D61*
X149069292Y-92950000D02*
X149350000Y-92950000D01*
X148550000Y-92950000D02*
X148817638Y-92950000D01*
D56*
X140475443Y-97560000D02*
X140259999Y-97775444D01*
D59*
X139450000Y-105785000D02*
X139400000Y-105785000D01*
D56*
X141020000Y-97560000D02*
X140475443Y-97560000D01*
D58*
X154550000Y-103350000D02*
X154050000Y-103850000D01*
X156550000Y-103950000D02*
X156550000Y-103850000D01*
D57*
X153575000Y-106825000D02*
X153825000Y-106575000D01*
D62*
X140120000Y-99470000D02*
X140120000Y-98670000D01*
D56*
X140206598Y-110700000D02*
X140619098Y-110287500D01*
D57*
X151587500Y-94450000D02*
X151650000Y-94512500D01*
X153575000Y-108075000D02*
X153375000Y-108275000D01*
D56*
X157300000Y-100600000D02*
X157000000Y-100300000D01*
D60*
X139925000Y-108437499D02*
X140169098Y-108437499D01*
D58*
X152065000Y-99750000D02*
X152000000Y-99750000D01*
X156900000Y-100350000D02*
X156050000Y-100350000D01*
D62*
X146775000Y-105235000D02*
X146352297Y-105235000D01*
D58*
X140700000Y-104425000D02*
X141350000Y-103775000D01*
D60*
X141675000Y-101050000D02*
X141415000Y-101050000D01*
D62*
X152525000Y-110875000D02*
X153350000Y-110875000D01*
X152925000Y-108300000D02*
X153025000Y-108300000D01*
D59*
X139669098Y-106969098D02*
X140100000Y-107400000D01*
D62*
X151975000Y-105615000D02*
X151975000Y-105237500D01*
X140619098Y-110287500D02*
X141469098Y-110287500D01*
D61*
X159950000Y-95350000D02*
X160675000Y-95350000D01*
D60*
X142087500Y-107262500D02*
X142087500Y-107487500D01*
D58*
X156050000Y-103350000D02*
X156550000Y-103850000D01*
D61*
X152065000Y-99750000D02*
X152065000Y-98950000D01*
D58*
X146352297Y-105235000D02*
X146350000Y-105237297D01*
D59*
X140669098Y-107105902D02*
X140669098Y-106913500D01*
D56*
X157050000Y-100200000D02*
X157050000Y-99350000D01*
D60*
X151888215Y-99861782D02*
X151999997Y-99750000D01*
D56*
X139325000Y-110700000D02*
X140206598Y-110700000D01*
X156050000Y-101350000D02*
X156550000Y-101350000D01*
D58*
X155800000Y-95575000D02*
X155800000Y-95465000D01*
D59*
X146775000Y-104925000D02*
X146775000Y-105235000D01*
D58*
X157000000Y-100250000D02*
X156900000Y-100350000D01*
D62*
X142319098Y-110287500D02*
X143175000Y-110287500D01*
D63*
X146200000Y-88100000D02*
X148250000Y-88100000D01*
D57*
X146402782Y-109544474D02*
X146475000Y-109616692D01*
X151225000Y-94450000D02*
X151587500Y-94450000D01*
D62*
X140125000Y-99475000D02*
X140120000Y-99470000D01*
D58*
X156625000Y-104025000D02*
X156550000Y-103950000D01*
D60*
X140259999Y-97775444D02*
X140259999Y-98530001D01*
D62*
X143175000Y-110287500D02*
X144025000Y-110287500D01*
D61*
X148943465Y-93075827D02*
X149069292Y-92950000D01*
D62*
X147175000Y-105235000D02*
X146775000Y-105235000D01*
D58*
X140700000Y-105312500D02*
X140700000Y-104425000D01*
X157000000Y-100300000D02*
X157000000Y-100250000D01*
D63*
X151750000Y-88100000D02*
X153312500Y-88100000D01*
D60*
X151999997Y-99750000D02*
X152065000Y-99750000D01*
D58*
%TO.N,+3V3*%
X155550000Y-103350000D02*
X155050000Y-103850000D01*
D59*
X154900000Y-94585000D02*
X154900000Y-94650000D01*
D62*
X153825000Y-105615000D02*
X153825000Y-104812500D01*
D61*
X146775000Y-104277297D02*
X146775000Y-103275000D01*
D58*
X147000000Y-103030868D02*
X147000000Y-103050000D01*
D56*
X140932098Y-107925500D02*
X140037689Y-107925500D01*
D58*
X147098045Y-102932823D02*
X147000000Y-103030868D01*
X139475000Y-106400000D02*
X139800000Y-106400000D01*
D59*
X141475000Y-106950000D02*
X141662500Y-106762500D01*
D58*
X158025000Y-109625000D02*
X158050000Y-109650000D01*
D62*
X154600000Y-104525000D02*
X154312500Y-104812500D01*
D59*
X144412501Y-108262500D02*
X144300000Y-108375000D01*
D56*
X141319098Y-108165799D02*
X141078799Y-107925500D01*
D58*
X157050000Y-97850000D02*
X157550000Y-97350000D01*
D56*
X156100000Y-104575000D02*
X156100000Y-103900000D01*
D58*
X139406098Y-107425500D02*
X139250000Y-107269402D01*
X140391437Y-96600000D02*
X140261881Y-96729556D01*
D61*
X146725000Y-104277297D02*
X146775000Y-104277297D01*
X146350000Y-104265000D02*
X146762703Y-104265000D01*
X148975000Y-93910000D02*
X147890000Y-93910000D01*
D58*
X155025000Y-103875000D02*
X155050000Y-103850000D01*
D57*
X142225003Y-101050000D02*
X143274517Y-101050000D01*
D59*
X144300000Y-108375000D02*
X144300000Y-109052500D01*
D62*
X152275000Y-106575000D02*
X151975000Y-106575000D01*
D58*
X142750001Y-108425000D02*
X142750001Y-109302501D01*
D56*
X156225000Y-104850000D02*
X156225000Y-104700000D01*
D57*
X140669098Y-108437500D02*
X140669098Y-109312500D01*
D58*
X159225000Y-95312500D02*
X159200000Y-95337500D01*
X152040000Y-96365000D02*
X152040000Y-97185000D01*
D56*
X141319098Y-109212500D02*
X141319098Y-108165799D01*
D63*
X152900000Y-106575000D02*
X151975000Y-106575000D01*
D59*
X153150000Y-102835000D02*
X153015000Y-102700000D01*
D57*
X156550000Y-99350000D02*
X156550000Y-99850000D01*
D59*
X144300000Y-109052500D02*
X144025000Y-109327500D01*
X152825000Y-104625000D02*
X153150000Y-104300000D01*
D58*
X142750001Y-108425000D02*
X142750001Y-108124999D01*
D56*
X139537689Y-107425500D02*
X139406098Y-107425500D01*
D62*
X140619098Y-109327500D02*
X141469098Y-109327500D01*
D58*
X140300000Y-105900000D02*
X140300000Y-105700000D01*
X140300000Y-105700000D02*
X139450000Y-104850000D01*
X156550000Y-98350000D02*
X157050000Y-97850000D01*
X143749999Y-105799999D02*
X143400000Y-105450000D01*
D62*
X152825000Y-104625000D02*
X153012500Y-104812500D01*
D58*
X141020000Y-96600000D02*
X140391437Y-96600000D01*
X158050000Y-109650000D02*
X157900000Y-109800000D01*
D60*
X139450000Y-104850000D02*
X139450000Y-104825000D01*
D58*
X151050000Y-105850000D02*
X150450000Y-105250000D01*
D56*
X156100000Y-103900000D02*
X156050000Y-103850000D01*
D62*
X143175000Y-109327500D02*
X144025000Y-109327500D01*
D61*
X147350000Y-94450000D02*
X147100000Y-94700000D01*
D58*
X139250000Y-107269402D02*
X139250000Y-106625000D01*
D61*
X146762703Y-104265000D02*
X146775000Y-104277297D01*
D58*
X151000000Y-106795000D02*
X151050000Y-106795000D01*
D62*
X141469098Y-109327500D02*
X142319098Y-109327500D01*
D60*
X143654435Y-100670082D02*
X143654435Y-100675565D01*
D61*
X146775000Y-103275000D02*
X147000000Y-103050000D01*
D58*
X143749999Y-106600000D02*
X143749999Y-105799999D01*
D56*
X141078799Y-107925500D02*
X140932098Y-107925500D01*
D59*
X141078799Y-107925500D02*
X141475000Y-107529299D01*
D64*
X147380888Y-94480888D02*
X147350000Y-94450000D01*
D58*
X152040000Y-97185000D02*
X152025000Y-97200000D01*
D61*
X158268355Y-95425659D02*
X158392696Y-95550000D01*
D58*
X141469098Y-109327500D02*
X141319098Y-109177500D01*
X143400000Y-105450000D02*
X143400000Y-105240000D01*
X155550000Y-102850000D02*
X155550000Y-103350000D01*
D60*
X143274517Y-101050000D02*
X143654435Y-100670082D01*
D59*
X153150000Y-104300000D02*
X153150000Y-102835000D01*
D57*
X154600000Y-104500000D02*
X155025000Y-104075000D01*
X158550000Y-101350000D02*
X158050000Y-101350000D01*
D58*
X142750001Y-109302501D02*
X142775000Y-109327500D01*
D56*
X156225000Y-104700000D02*
X156100000Y-104575000D01*
D61*
X149350000Y-93910000D02*
X148975000Y-93910000D01*
D56*
X151305000Y-106795000D02*
X151525000Y-106575000D01*
D62*
X156650000Y-95575000D02*
X157450000Y-95575000D01*
D57*
X150800000Y-96350000D02*
X150600000Y-96550000D01*
D61*
X146775000Y-104277297D02*
X147162703Y-104277297D01*
D59*
X141662500Y-106762500D02*
X142087499Y-106762500D01*
D56*
X139400000Y-104825000D02*
X139475000Y-104825000D01*
D58*
X139250000Y-106625000D02*
X139475000Y-106400000D01*
D61*
X147890000Y-93910000D02*
X147350000Y-94450000D01*
D57*
X154600000Y-104525000D02*
X154600000Y-104500000D01*
D58*
X151050000Y-106795000D02*
X151050000Y-105850000D01*
D56*
X151525000Y-106575000D02*
X151975000Y-106575000D01*
X139825000Y-109850000D02*
X140347500Y-109327500D01*
D58*
X158025000Y-108825000D02*
X158025000Y-109625000D01*
D57*
X152025000Y-96350000D02*
X150800000Y-96350000D01*
D60*
X149926472Y-97226472D02*
X150600000Y-96552944D01*
D59*
X156650000Y-95500000D02*
X156650000Y-95575000D01*
D61*
X158987500Y-95550000D02*
X159200000Y-95337500D01*
D62*
X140980000Y-94850000D02*
X140970000Y-94860000D01*
D61*
X147162703Y-104277297D02*
X147175000Y-104265000D01*
D64*
X147380888Y-94680887D02*
X147380888Y-94480888D01*
D62*
X153012500Y-104812500D02*
X153825000Y-104812500D01*
D58*
X155550000Y-103350000D02*
X156050000Y-103850000D01*
D57*
X140669098Y-109277500D02*
X140619098Y-109327500D01*
D58*
X143654435Y-100670082D02*
X143654435Y-100670565D01*
D60*
X150600000Y-96552944D02*
X150600000Y-96550000D01*
D57*
X155025000Y-104075000D02*
X155025000Y-103875000D01*
D64*
X147098045Y-94398045D02*
X147380888Y-94680887D01*
D58*
X140037689Y-107925500D02*
X139537689Y-107425500D01*
D62*
X139180000Y-94860000D02*
X139180000Y-94245000D01*
X152275000Y-107412500D02*
X152275000Y-106575000D01*
X152825000Y-104625000D02*
X152825000Y-104700000D01*
D58*
X143749999Y-107125001D02*
X143749999Y-106600000D01*
X142750001Y-108124999D02*
X143749999Y-107125001D01*
D62*
X142775000Y-109327500D02*
X143175000Y-109327500D01*
X139180000Y-94245000D02*
X139525000Y-93900000D01*
X141825000Y-94850000D02*
X140980000Y-94850000D01*
X139700000Y-94075000D02*
X139525000Y-93900000D01*
D58*
X150450000Y-105250000D02*
X149975000Y-105250000D01*
D62*
X140700000Y-94075000D02*
X139700000Y-94075000D01*
D61*
X158392696Y-95550000D02*
X158987500Y-95550000D01*
D58*
X155925000Y-107175000D02*
X155925000Y-107125000D01*
D59*
X142475000Y-105275000D02*
X142475000Y-105240000D01*
D58*
X152025000Y-96350000D02*
X152040000Y-96365000D01*
X142475000Y-105240000D02*
X143400000Y-105240000D01*
D60*
X140300000Y-105812500D02*
X140300000Y-105900000D01*
D59*
X141475000Y-107529299D02*
X141475000Y-106950000D01*
D57*
X158050000Y-101850000D02*
X158050000Y-101350000D01*
D62*
X142319098Y-109327500D02*
X142775000Y-109327500D01*
X154312500Y-104812500D02*
X153825000Y-104812500D01*
D61*
X157450000Y-95575000D02*
X157550000Y-95675000D01*
D56*
X151050000Y-106795000D02*
X151305000Y-106795000D01*
D61*
X148975000Y-93675000D02*
X148975000Y-93910000D01*
D58*
X157800000Y-108825000D02*
X158025000Y-108825000D01*
D62*
X140080000Y-94860000D02*
X139180000Y-94860000D01*
D58*
X157900000Y-109800000D02*
X157900000Y-110450000D01*
D57*
X156050000Y-99850000D02*
X156550000Y-99850000D01*
D58*
X140300000Y-105900000D02*
X139800000Y-106400000D01*
D61*
X157550000Y-95675000D02*
X157550000Y-97350000D01*
D62*
X140700000Y-94075000D02*
X141525000Y-94075000D01*
X140970000Y-94860000D02*
X140080000Y-94860000D01*
D56*
X140347500Y-109327500D02*
X140619098Y-109327500D01*
D58*
X152025000Y-97200000D02*
X152025000Y-98100000D01*
D59*
%TO.N,/Microcontroller/CLK_MAIN_IN*%
X148002461Y-94625000D02*
X149875000Y-94625000D01*
X149875000Y-94625000D02*
X150787500Y-93712500D01*
X150787500Y-93712500D02*
X150987500Y-93512500D01*
X147663731Y-94963730D02*
X148002461Y-94625000D01*
X150987500Y-93512500D02*
X151650000Y-93512500D01*
%TO.N,/Microcontroller/CLK_RTC_IN*%
X139625000Y-101250002D02*
X139900002Y-101250002D01*
X140475000Y-101550000D02*
X140750000Y-101825000D01*
X140750000Y-101825000D02*
X143065202Y-101825000D01*
X139900002Y-101250002D02*
X140200000Y-101550000D01*
X139625000Y-100725002D02*
X139625000Y-101250002D01*
X143937278Y-100952924D02*
X143937278Y-100987722D01*
X139175000Y-100275000D02*
X139625000Y-100725002D01*
X140200000Y-101550000D02*
X140475000Y-101550000D01*
X143065202Y-101825000D02*
X143937278Y-100952924D01*
X139165000Y-100275000D02*
X139175000Y-100275000D01*
X143922076Y-100952924D02*
X143937278Y-100952924D01*
%TO.N,/Microcontroller/CLK_RTC_OUT*%
X139625000Y-102700000D02*
X139625000Y-103215000D01*
X139900000Y-102700000D02*
X139625000Y-102700000D01*
X140500000Y-102400000D02*
X140200000Y-102400000D01*
X143305888Y-102150000D02*
X144220121Y-101235767D01*
X144220121Y-101235767D02*
X144189233Y-101235767D01*
X139625000Y-103215000D02*
X139165000Y-103675000D01*
X140750000Y-102150000D02*
X143305888Y-102150000D01*
X140750000Y-102150000D02*
X140500000Y-102400000D01*
X140200000Y-102400000D02*
X139900000Y-102700000D01*
D62*
%TO.N,/Microcontroller/VDD_PI_OUT*%
X145675000Y-95000000D02*
X145075000Y-94400000D01*
D64*
X145675000Y-94721553D02*
X145634334Y-94680887D01*
D62*
X142795000Y-94520000D02*
X142795000Y-94850000D01*
D64*
X145351491Y-94963730D02*
X145387761Y-95000000D01*
D62*
X145075000Y-94400000D02*
X142675000Y-94400000D01*
D64*
X145387761Y-95000000D02*
X145675000Y-95000000D01*
D62*
X142350000Y-94075000D02*
X142795000Y-94520000D01*
X142675000Y-94400000D02*
X142350000Y-94075000D01*
D59*
%TO.N,/Microcontroller/CLK_MAIN_OUT*%
X152350000Y-94745000D02*
X152350000Y-94512500D01*
X151546250Y-95358750D02*
X151431250Y-95243750D01*
X151756250Y-95243750D02*
X151851250Y-95243750D01*
X151546250Y-95443750D02*
X151546250Y-95358750D01*
X151431250Y-95243750D02*
X150156250Y-95243750D01*
X151546250Y-95443750D02*
X151556250Y-95443750D01*
X147946573Y-95246573D02*
X148224396Y-94968750D01*
X151851250Y-95243750D02*
X152350000Y-94745000D01*
X148224396Y-94968750D02*
X149881250Y-94968750D01*
X151546250Y-95443750D02*
X151725750Y-95443750D01*
X151556250Y-95443750D02*
X151756250Y-95243750D01*
X150156250Y-95243750D02*
X149881250Y-94968750D01*
D58*
%TO.N,VIN*%
X159600000Y-107175000D02*
X159900000Y-107475000D01*
X159600000Y-106150000D02*
X159600000Y-107175000D01*
D59*
%TO.N,/Microcontroller/BOOT1*%
X147766915Y-95991915D02*
X148229416Y-95529415D01*
%TO.N,/Microcontroller/UART0_RX_MCU*%
X148795101Y-96095101D02*
X148795101Y-96079899D01*
X149390202Y-95500000D02*
X148795101Y-96095101D01*
X154000000Y-94600000D02*
X153675000Y-94925000D01*
X154000000Y-94580000D02*
X154000000Y-94600000D01*
D55*
%TO.N,/Microcontroller/EMMC_CLK_MCU*%
X150209315Y-99821554D02*
X150221554Y-99821554D01*
X151825000Y-101475000D02*
X152025000Y-101475000D01*
X150209315Y-99821554D02*
X150209315Y-99859315D01*
X150209315Y-99859315D02*
X151825000Y-101475000D01*
%TO.N,/Microcontroller/QSPI_CLK_MCU*%
X148229416Y-101801453D02*
X148229416Y-101804416D01*
X148229416Y-101804416D02*
X148525000Y-102100000D01*
X148875000Y-104075000D02*
X149050000Y-104250000D01*
X148525000Y-102100000D02*
X148875000Y-102450000D01*
X148875000Y-102450000D02*
X148875000Y-103375000D01*
X148875000Y-103375000D02*
X148875000Y-104075000D01*
D59*
%TO.N,/Power Management/SUP_CTS*%
X139761882Y-98168118D02*
X139640000Y-98290000D01*
X139761882Y-97775444D02*
X139761882Y-98168118D01*
X139640000Y-98290000D02*
X139640000Y-98990000D01*
X139640000Y-98990000D02*
X139160000Y-99470000D01*
%TO.N,I2C0_SDA*%
X144502963Y-101518610D02*
X144502963Y-101572037D01*
D58*
X144502963Y-101522037D02*
X142475000Y-103550000D01*
D59*
X140369098Y-106437500D02*
X140169098Y-106637500D01*
X141600000Y-105274999D02*
X141350001Y-105274999D01*
X141100000Y-106206598D02*
X140869098Y-106437500D01*
X141350001Y-105274999D02*
X141100000Y-105525000D01*
X140869098Y-106437500D02*
X140369098Y-106437500D01*
X142750001Y-106425001D02*
X141600000Y-105274999D01*
X140169098Y-106637500D02*
X140169098Y-106913501D01*
X141100000Y-105525000D02*
X141100000Y-106206598D01*
D58*
X144502963Y-101518610D02*
X144502963Y-101522037D01*
X142780903Y-106555903D02*
X142780903Y-106812500D01*
X142475000Y-103550000D02*
X142475000Y-104250000D01*
D59*
X142750001Y-106600000D02*
X142750001Y-106425001D01*
%TO.N,I2C0_SCL*%
X144785806Y-101801453D02*
X144785806Y-101839194D01*
D60*
X141130000Y-106770000D02*
X141700000Y-106200000D01*
D58*
X143470000Y-103680000D02*
X143600000Y-103550000D01*
X143040000Y-105910000D02*
X143250000Y-106120000D01*
X144000000Y-102587259D02*
X144785806Y-101801453D01*
X141387500Y-104812500D02*
X141100000Y-104812500D01*
D60*
X141700000Y-106200000D02*
X141740000Y-106200000D01*
D58*
X143400000Y-104100000D02*
X143400000Y-104250000D01*
X141400000Y-104800000D02*
X141387500Y-104812500D01*
X143470000Y-104030000D02*
X143400000Y-104100000D01*
X143250000Y-106120000D02*
X143250000Y-106600000D01*
D60*
X141130000Y-107227598D02*
X141130000Y-106770000D01*
D58*
X143470000Y-103680000D02*
X143470000Y-104030000D01*
D59*
X144785806Y-101801453D02*
X144798547Y-101801453D01*
D58*
X144000000Y-103150000D02*
X144000000Y-102587259D01*
D60*
X140932098Y-107425500D02*
X141130000Y-107227598D01*
D58*
X143600000Y-103550000D02*
X144000000Y-103150000D01*
D59*
%TO.N,UART0_RX*%
X154000000Y-95925000D02*
X153725000Y-96200000D01*
X154000000Y-95570000D02*
X154000000Y-95925000D01*
D55*
%TO.N,EMMC_CLK*%
X153575000Y-101475000D02*
X153015000Y-101475000D01*
X153950000Y-101850000D02*
X153575000Y-101475000D01*
X154050000Y-101850000D02*
X154550000Y-101850000D01*
X155550000Y-101850000D02*
X156550000Y-102850000D01*
X154550000Y-101850000D02*
X155050000Y-101850000D01*
X154050000Y-101850000D02*
X153950000Y-101850000D01*
X155050000Y-101850000D02*
X155550000Y-101850000D01*
%TO.N,QSPI_CLK*%
X151050000Y-109185000D02*
X150535000Y-109185000D01*
X150535000Y-109185000D02*
X150275000Y-108925000D01*
X150275000Y-108925000D02*
X150275000Y-106575000D01*
X150275000Y-106575000D02*
X149050000Y-105350000D01*
X149050000Y-105350000D02*
X149050000Y-105240000D01*
%TO.N,EMMC_CMD*%
X155550000Y-102350000D02*
X155050000Y-102350000D01*
X154050000Y-102350000D02*
X153725000Y-102350000D01*
X155050000Y-102350000D02*
X154550000Y-102350000D01*
X154550000Y-102350000D02*
X154050000Y-102350000D01*
X156050000Y-102850000D02*
X155550000Y-102350000D01*
X153475000Y-102100000D02*
X152625000Y-102100000D01*
X149926472Y-100104396D02*
X149929396Y-100104396D01*
X149929396Y-100104396D02*
X150425000Y-100600000D01*
X150425000Y-101750000D02*
X151375000Y-102700000D01*
X150425000Y-100600000D02*
X150425000Y-101750000D01*
X152625000Y-102100000D02*
X152025000Y-102700000D01*
X153725000Y-102350000D02*
X153475000Y-102100000D01*
X151375000Y-102700000D02*
X152025000Y-102700000D01*
%TO.N,EMMC_DAT1*%
X154900000Y-95850000D02*
X154900000Y-96700000D01*
X150507843Y-97792157D02*
X150492158Y-97792157D01*
X151390420Y-97467520D02*
X151317520Y-97467520D01*
X150884315Y-97400000D02*
X150492158Y-97792157D01*
X151250000Y-97400000D02*
X150884315Y-97400000D01*
X151317520Y-97467520D02*
X151250000Y-97400000D01*
X154900000Y-95575000D02*
X154900000Y-95850000D01*
X154900000Y-96700000D02*
X155550000Y-97350000D01*
%TO.N,EMMC_DAT2*%
X155740631Y-96635214D02*
X155750000Y-96644583D01*
X151750000Y-100300000D02*
X151250000Y-100300000D01*
X156050000Y-97150000D02*
X156050000Y-97350000D01*
X152025000Y-100575000D02*
X151750000Y-100300000D01*
X155750000Y-96644583D02*
X155750000Y-96850000D01*
X151250000Y-100300000D02*
X150492158Y-99542158D01*
X155750000Y-96850000D02*
X156050000Y-97150000D01*
X150492158Y-99542158D02*
X150492158Y-99538711D01*
%TO.N,EMMC_DAT3*%
X154550000Y-97850000D02*
X154050000Y-97850000D01*
X149775000Y-98925000D02*
X150444132Y-98925000D01*
X153065209Y-97909768D02*
X153065209Y-98049791D01*
X150775000Y-99255868D02*
X150780868Y-99255868D01*
X149245343Y-99454657D02*
X149775000Y-98925000D01*
X150444132Y-98925000D02*
X150775000Y-99255868D01*
X153065209Y-98049791D02*
X153015000Y-98100000D01*
%TO.N,EMMC_DAT0*%
X150775000Y-98075000D02*
X150800000Y-98075000D01*
X149725000Y-98400000D02*
X150450000Y-98400000D01*
X150450000Y-98400000D02*
X150775000Y-98075000D01*
X154050000Y-97350000D02*
X154550000Y-97350000D01*
X155050000Y-97350000D02*
X154550000Y-97350000D01*
%TO.N,QSPI_IO3*%
X146875000Y-102125000D02*
X146750000Y-102125000D01*
X151050000Y-108275000D02*
X151050000Y-108065000D01*
X147380888Y-102630888D02*
X146875000Y-102125000D01*
X150837500Y-108487500D02*
X151050000Y-108275000D01*
X147380888Y-102649981D02*
X147380888Y-102630888D01*
D58*
%TO.N,IO2*%
X143635786Y-96660786D02*
X143175000Y-96200000D01*
X143654435Y-96660786D02*
X143635786Y-96660786D01*
%TO.N,IO0*%
X145669818Y-96105182D02*
X144795887Y-96105182D01*
X144795887Y-96105182D02*
X144502963Y-95812258D01*
D59*
%TO.N,UART0_TX*%
X149077944Y-96377944D02*
X149077944Y-96372056D01*
X149900000Y-96050000D02*
X149405888Y-96050000D01*
X149405888Y-96050000D02*
X149077944Y-96377944D01*
X150000000Y-95950000D02*
X149900000Y-96050000D01*
D58*
%TO.N,IO7*%
X142000000Y-99000000D02*
X142000000Y-99015646D01*
X142000000Y-99015646D02*
X142240222Y-99255868D01*
%TO.N,IO11*%
X143371592Y-100378408D02*
X143825000Y-99925000D01*
X143371592Y-100387239D02*
X143371592Y-100378408D01*
D59*
%TO.N,IO9*%
X142805907Y-99821554D02*
X142803446Y-99821554D01*
D58*
X142805907Y-99819093D02*
X143275000Y-99350000D01*
D59*
X142805907Y-99821554D02*
X142805907Y-99819093D01*
D55*
%TO.N,QSPI_IO2*%
X147663731Y-102367138D02*
X147934905Y-102638312D01*
X145800000Y-109185000D02*
X145650000Y-109335000D01*
X146140000Y-109185000D02*
X145800000Y-109185000D01*
X147934905Y-103340095D02*
X147775000Y-103500000D01*
X147934905Y-102638312D02*
X147934905Y-103340095D01*
X146325000Y-109000000D02*
X146140000Y-109185000D01*
%TO.N,QSPI_IO0*%
X151050000Y-109925000D02*
X151050000Y-110605000D01*
X149222897Y-101663563D02*
X148795101Y-101235767D01*
X149222897Y-102027103D02*
X149222897Y-101663563D01*
X149175000Y-102075000D02*
X149222897Y-102027103D01*
D59*
%TO.N,IO10*%
X143088750Y-100104396D02*
X142718146Y-100475000D01*
X141975000Y-100475000D02*
X141900000Y-100400000D01*
X142450000Y-100475000D02*
X141975000Y-100475000D01*
X143070604Y-100104396D02*
X143088750Y-100104396D01*
X142718146Y-100475000D02*
X142450000Y-100475000D01*
X143088750Y-100104396D02*
X143088750Y-100111250D01*
%TO.N,unconnected-(U1A-GPIO45-Pad51)*%
X148512259Y-95812741D02*
X148512259Y-95812258D01*
%TO.N,IO8*%
X142523064Y-99538711D02*
X142511289Y-99538711D01*
X141575000Y-99875000D02*
X142186775Y-99875000D01*
X140825000Y-100150000D02*
X141300000Y-100150000D01*
X142186775Y-99875000D02*
X142523064Y-99538711D01*
X141300000Y-100150000D02*
X141575000Y-99875000D01*
D58*
%TO.N,IO5*%
X141725000Y-97400000D02*
X142130907Y-97400000D01*
X142130907Y-97400000D02*
X142523064Y-97792157D01*
D55*
%TO.N,QSPI_CS*%
X147934295Y-102084295D02*
X147946573Y-102084295D01*
D58*
%TO.N,IO1*%
X144525000Y-96399980D02*
X144220121Y-96095101D01*
X144525000Y-97075000D02*
X144525000Y-96399980D01*
%TO.N,IO6*%
X142015222Y-98300000D02*
X142240222Y-98075000D01*
X140975000Y-98300000D02*
X142015222Y-98300000D01*
D55*
%TO.N,QSPI_IO1*%
X148518610Y-101518610D02*
X148512259Y-101518610D01*
X148200000Y-101200000D02*
X147675000Y-101200000D01*
X148512259Y-101537259D02*
X148512259Y-101518610D01*
X146912500Y-106312500D02*
X146350000Y-106875000D01*
X146350000Y-107755000D02*
X146190000Y-107915000D01*
X146190000Y-107915000D02*
X145650000Y-107915000D01*
X148512259Y-101512259D02*
X148200000Y-101200000D01*
X147675000Y-101200000D02*
X147587500Y-101287500D01*
X146350000Y-106875000D02*
X146350000Y-107755000D01*
X148512259Y-101518610D02*
X148512259Y-101512259D01*
D58*
%TO.N,IO3*%
X143371592Y-96946592D02*
X143371592Y-96943629D01*
X143125000Y-98375000D02*
X143675000Y-97825000D01*
X143675000Y-97250000D02*
X143371592Y-96946592D01*
X143675000Y-97825000D02*
X143675000Y-97250000D01*
D59*
%TO.N,/Power Management/REG_CFG*%
X158925000Y-107150000D02*
X158925000Y-107000000D01*
D58*
X158925000Y-106485000D02*
X158690000Y-106250000D01*
D59*
X158925000Y-107000000D02*
X158875000Y-106950000D01*
D58*
X158925000Y-107150000D02*
X158925000Y-106485000D01*
D65*
%TO.N,/Microcontroller/USB_MCU_D-*%
X144608750Y-102574246D02*
X144608750Y-103486249D01*
X145068649Y-102084295D02*
X145065705Y-102084295D01*
X145068649Y-102084295D02*
X145068649Y-102114347D01*
X145068649Y-102114347D02*
X144608750Y-102574246D01*
X144608750Y-103486249D02*
X144325000Y-103769999D01*
X144325000Y-103769999D02*
X144325000Y-104250000D01*
%TO.N,/Microcontroller/USB_MCU_D+*%
X145351491Y-102367138D02*
X145321440Y-102367138D01*
X145321440Y-102367138D02*
X144966250Y-102722328D01*
X144966250Y-103486249D02*
X145250000Y-103769999D01*
X145250000Y-103769999D02*
X145250000Y-104250000D01*
X144966250Y-102722328D02*
X144966250Y-103486249D01*
D59*
%TO.N,INT_IMU*%
X145634334Y-102640666D02*
X145634334Y-102649981D01*
X145800000Y-101400000D02*
X146100000Y-101700000D01*
X146100000Y-101700000D02*
X146100000Y-102175000D01*
X146100000Y-102175000D02*
X145634334Y-102640666D01*
X145650000Y-101400000D02*
X145800000Y-101400000D01*
D58*
%TO.N,/Power Management/3V3_AUX_CT*%
X153575000Y-109187500D02*
X153425000Y-109337500D01*
X153425000Y-109840000D02*
X153350000Y-109915000D01*
X153425000Y-109337500D02*
X153425000Y-109840000D01*
D61*
%TO.N,+3V3_AUX*%
X152275000Y-109187500D02*
X152925000Y-109187500D01*
X152525000Y-109600000D02*
X152525000Y-109575000D01*
X152275000Y-109350000D02*
X152525000Y-109600000D01*
D62*
X152525000Y-109915000D02*
X152525000Y-109600000D01*
D61*
X152912500Y-109187500D02*
X152925000Y-109187500D01*
X152525000Y-109575000D02*
X152912500Y-109187500D01*
X152275000Y-109187500D02*
X152275000Y-109350000D01*
D62*
X152525000Y-109915000D02*
X152525000Y-110225000D01*
D58*
%TO.N,/Power Management/REG_SW*%
X157800000Y-108325000D02*
X156650001Y-108325000D01*
X156650001Y-108325000D02*
X156350000Y-108625001D01*
D59*
%TO.N,CORE_BOOT_SEL*%
X144517882Y-95261491D02*
X143863509Y-95261491D01*
X141145000Y-95675000D02*
X140970000Y-95850000D01*
X143450000Y-95675000D02*
X141145000Y-95675000D01*
X143863509Y-95261491D02*
X143450000Y-95675000D01*
X144785806Y-95529415D02*
X144517882Y-95261491D01*
X140970000Y-95850000D02*
X140975000Y-95850000D01*
D58*
%TO.N,IO16*%
X148500000Y-96950000D02*
X148503711Y-96953711D01*
X148225000Y-96950000D02*
X148500000Y-96950000D01*
X149067862Y-96953711D02*
X149360787Y-96660786D01*
X148503711Y-96953711D02*
X149067862Y-96953711D01*
D59*
%TO.N,CORE_RESET_N*%
X139761882Y-96729556D02*
X139761882Y-96168118D01*
X139761882Y-96168118D02*
X140080000Y-95850000D01*
%TO.N,3V3_AUX_EN*%
X149643630Y-100387239D02*
X149643630Y-100418630D01*
D58*
X149975000Y-104260000D02*
X149975000Y-104250000D01*
D59*
X150550000Y-103325000D02*
X150550000Y-103675000D01*
X150061554Y-102238446D02*
X150063446Y-102238446D01*
X150063446Y-102238446D02*
X150550000Y-102725000D01*
X149643630Y-100387239D02*
X149911554Y-100655163D01*
X149911554Y-102088446D02*
X150061554Y-102238446D01*
X150550000Y-102725000D02*
X150550000Y-103325000D01*
X150550000Y-103675000D02*
X149975000Y-104250000D01*
X149911554Y-100655163D02*
X149911554Y-102088446D01*
D58*
%TO.N,CORE_RST_REQ_N*%
X146500000Y-95200000D02*
X146160503Y-95539497D01*
X145361573Y-95539497D02*
X145068649Y-95246573D01*
D59*
X143587500Y-94975000D02*
X143212500Y-95350000D01*
D58*
X155050000Y-101350000D02*
X155550000Y-101350000D01*
D59*
X139261884Y-95931884D02*
X139180000Y-95850000D01*
D58*
X146160503Y-95539497D02*
X145361573Y-95539497D01*
D59*
X145068649Y-95246573D02*
X144797076Y-94975000D01*
X139261884Y-96729556D02*
X139261884Y-95931884D01*
D58*
X154050000Y-101350000D02*
X154550000Y-101350000D01*
X156050000Y-101850000D02*
X155550000Y-101350000D01*
X154550000Y-101350000D02*
X155050000Y-101350000D01*
D59*
X144797076Y-94975000D02*
X143587500Y-94975000D01*
D58*
X156050000Y-101850000D02*
X156025000Y-101850000D01*
X145068649Y-95246573D02*
X145071573Y-95246573D01*
D59*
X143212500Y-95350000D02*
X139680000Y-95350000D01*
X139680000Y-95350000D02*
X139180000Y-95850000D01*
%TO.N,/Power Management/REG_PG*%
X157315000Y-107175000D02*
X157550000Y-107410000D01*
X156915000Y-107175000D02*
X157315000Y-107175000D01*
X157575000Y-107825000D02*
X157550000Y-107800000D01*
X157800000Y-107825000D02*
X157575000Y-107825000D01*
X157550000Y-107800000D02*
X157550000Y-107410000D01*
%TO.N,IO15*%
X148950000Y-97625000D02*
X149631371Y-96943629D01*
X149631371Y-96943629D02*
X149643630Y-96943629D01*
%TO.N,/Power Management/SUP_CTR*%
X139261883Y-98568117D02*
X139160000Y-98670000D01*
X139261883Y-97775444D02*
X139261883Y-98568117D01*
D60*
%TO.N,RF_FEED*%
X145917177Y-94397177D02*
X145917177Y-94398045D01*
D66*
X145410000Y-93390000D02*
X145410000Y-93682893D01*
D60*
X145556447Y-94036447D02*
X145917177Y-94397177D01*
X145556447Y-94036447D02*
G75*
G02*
X145410005Y-93682893I353553J353547D01*
G01*
D59*
%TO.N,/Power Management/REG_FB*%
X156915000Y-106340000D02*
X156915000Y-106250000D01*
X157925000Y-107150000D02*
X157925000Y-107000000D01*
X157425000Y-106850000D02*
X156915000Y-106340000D01*
X157775000Y-106850000D02*
X157425000Y-106850000D01*
X157925000Y-107000000D02*
X157775000Y-106850000D01*
D58*
%TO.N,Net-(U7-VDDI)*%
X153200000Y-98950000D02*
X153025000Y-98950000D01*
D62*
X153025000Y-99750000D02*
X153025000Y-98950000D01*
D56*
X154550000Y-98350000D02*
X154050000Y-98350000D01*
D59*
%TO.N,unconnected-(U1A-GPIO3-Pad8)*%
X143937278Y-96377944D02*
X143927944Y-96377944D01*
%TO.N,unconnected-(U1A-GPIO6-Pad11)*%
X143088750Y-97213750D02*
X143088750Y-97226472D01*
D58*
%TO.N,GND*%
X157550000Y-101001468D02*
X157550000Y-101850000D01*
X157625734Y-100925734D02*
X157550000Y-101001468D01*
X157701468Y-100850000D02*
X158550000Y-100850000D01*
D56*
X157300000Y-100600000D02*
X157625734Y-100925734D01*
D58*
X157625734Y-100925734D02*
X157701468Y-100850000D01*
%TD*%
%TA.AperFunction,Conductor*%
%TO.N,VIN*%
G36*
X161009191Y-105943907D02*
G01*
X161045155Y-105993407D01*
X161050000Y-106024000D01*
X161050000Y-108326000D01*
X161031093Y-108384191D01*
X160981593Y-108420155D01*
X160951000Y-108425000D01*
X159450000Y-108425000D01*
X158474000Y-108425000D01*
X158415809Y-108406093D01*
X158379845Y-108356593D01*
X158375000Y-108326000D01*
X158375000Y-107799000D01*
X158393907Y-107740809D01*
X158443407Y-107704845D01*
X158474000Y-107700000D01*
X159374999Y-107700000D01*
X159375000Y-107700000D01*
X159375000Y-106024000D01*
X159393907Y-105965809D01*
X159443407Y-105929845D01*
X159474000Y-105925000D01*
X160951000Y-105925000D01*
X161009191Y-105943907D01*
G37*
%TD.AperFunction*%
%TD*%
%TA.AperFunction,Conductor*%
%TO.N,+3V3*%
G36*
X139699027Y-93451007D02*
G01*
X139707341Y-93452203D01*
X139726791Y-93455000D01*
X139726794Y-93455000D01*
X140121541Y-93455000D01*
X140161530Y-93463436D01*
X140172806Y-93468415D01*
X140202816Y-93488971D01*
X140211016Y-93497170D01*
X140231581Y-93527189D01*
X140241564Y-93549798D01*
X140250000Y-93589787D01*
X140250000Y-93800000D01*
X140528456Y-93800000D01*
X140528460Y-93800001D01*
X140940387Y-93800000D01*
X140959698Y-93801901D01*
X141003073Y-93810529D01*
X141003073Y-93810528D01*
X141010983Y-93812102D01*
X141019565Y-93814211D01*
X141037767Y-93819556D01*
X141051883Y-93823701D01*
X141060645Y-93824960D01*
X141095689Y-93830000D01*
X141095693Y-93830000D01*
X141158524Y-93830000D01*
X141180654Y-93828417D01*
X141215589Y-93823394D01*
X141222366Y-93820865D01*
X141222426Y-93821205D01*
X141227167Y-93820379D01*
X141252439Y-93809645D01*
X141261558Y-93806242D01*
X141296158Y-93800000D01*
X141816688Y-93800000D01*
X141866696Y-93813559D01*
X141903966Y-93835373D01*
X141909951Y-93837894D01*
X141909258Y-93839537D01*
X141953303Y-93868510D01*
X141974893Y-93925760D01*
X141975000Y-93930359D01*
X141975000Y-95051000D01*
X141956093Y-95109191D01*
X141906593Y-95145155D01*
X141876000Y-95150000D01*
X138999000Y-95150000D01*
X138940809Y-95131093D01*
X138904845Y-95081593D01*
X138900000Y-95051000D01*
X138900000Y-94622390D01*
X138908280Y-94584728D01*
X138907735Y-94584523D01*
X138909012Y-94581120D01*
X138909016Y-94581112D01*
X138928701Y-94514073D01*
X138934473Y-94473930D01*
X138935000Y-94470266D01*
X138935000Y-94369324D01*
X138934610Y-94363877D01*
X138933417Y-94347194D01*
X138928394Y-94312259D01*
X138926346Y-94306771D01*
X138924306Y-94300707D01*
X138923103Y-94296709D01*
X138921087Y-94287149D01*
X138911183Y-94256424D01*
X138910550Y-94254991D01*
X138909199Y-94250500D01*
X138909310Y-94245410D01*
X138905000Y-94221975D01*
X138905000Y-93578457D01*
X138913432Y-93538476D01*
X138918415Y-93527190D01*
X138938976Y-93497175D01*
X138951806Y-93484346D01*
X138957160Y-93478993D01*
X139011678Y-93451218D01*
X139027160Y-93450000D01*
X139684939Y-93450000D01*
X139699027Y-93451007D01*
G37*
%TD.AperFunction*%
%TD*%
%TA.AperFunction,Conductor*%
%TO.N,GND*%
G36*
X161009191Y-108618907D02*
G01*
X161045155Y-108668407D01*
X161050000Y-108699000D01*
X161050000Y-111051000D01*
X161031093Y-111109191D01*
X160981593Y-111145155D01*
X160951000Y-111150000D01*
X158949000Y-111150000D01*
X158890809Y-111131093D01*
X158854845Y-111081593D01*
X158850000Y-111051000D01*
X158850000Y-108699000D01*
X158868907Y-108640809D01*
X158918407Y-108604845D01*
X158949000Y-108600000D01*
X160951000Y-108600000D01*
X161009191Y-108618907D01*
G37*
%TD.AperFunction*%
%TD*%
%TA.AperFunction,Conductor*%
%TO.N,+3V3*%
G36*
X158659191Y-109243907D02*
G01*
X158695155Y-109293407D01*
X158700000Y-109324000D01*
X158700000Y-111020500D01*
X158681093Y-111078691D01*
X158631593Y-111114655D01*
X158601000Y-111119500D01*
X158514651Y-111119500D01*
X158502861Y-111119886D01*
X158502860Y-111119863D01*
X158498692Y-111120000D01*
X158401308Y-111120000D01*
X158397139Y-111119863D01*
X158397139Y-111119886D01*
X158385349Y-111119500D01*
X155684593Y-111119500D01*
X155684592Y-111119500D01*
X155681360Y-111119712D01*
X155681348Y-111119538D01*
X155674307Y-111120000D01*
X155585693Y-111120000D01*
X155578651Y-111119538D01*
X155578640Y-111119712D01*
X155575407Y-111119500D01*
X155575406Y-111119500D01*
X155149000Y-111119500D01*
X155090809Y-111100593D01*
X155054845Y-111051093D01*
X155050000Y-111020500D01*
X155050000Y-109924000D01*
X155068907Y-109865809D01*
X155118407Y-109829845D01*
X155149000Y-109825000D01*
X157424999Y-109825000D01*
X157425000Y-109825000D01*
X157425000Y-109324000D01*
X157443907Y-109265809D01*
X157493407Y-109229845D01*
X157524000Y-109225000D01*
X158601000Y-109225000D01*
X158659191Y-109243907D01*
G37*
%TD.AperFunction*%
%TD*%
%TA.AperFunction,Conductor*%
%TO.N,GND*%
G36*
X146793039Y-87820185D02*
G01*
X146838794Y-87872989D01*
X146850000Y-87924500D01*
X146850000Y-89105000D01*
X146830315Y-89172039D01*
X146777511Y-89217794D01*
X146726000Y-89229000D01*
X146114014Y-89229000D01*
X146045986Y-89229000D01*
X146045984Y-89229000D01*
X146045982Y-89229001D01*
X145983138Y-89255030D01*
X145983136Y-89255032D01*
X145981549Y-89256620D01*
X145977240Y-89258972D01*
X145972985Y-89261816D01*
X145972730Y-89261434D01*
X145920224Y-89290102D01*
X145850533Y-89285114D01*
X145811646Y-89261750D01*
X145805855Y-89256620D01*
X145791791Y-89244160D01*
X145791789Y-89244159D01*
X145710004Y-89224000D01*
X145710000Y-89224000D01*
X145110000Y-89224000D01*
X145109994Y-89224000D01*
X145088784Y-89225283D01*
X145010022Y-89255154D01*
X145010021Y-89255155D01*
X144954160Y-89318209D01*
X144954159Y-89318210D01*
X144954159Y-89318211D01*
X144934000Y-89399995D01*
X144934000Y-92800004D01*
X144937775Y-92836260D01*
X145126844Y-93734260D01*
X145127585Y-93738078D01*
X145129504Y-93748859D01*
X145129504Y-93759762D01*
X145147957Y-93852537D01*
X145148177Y-93853771D01*
X145144492Y-93887298D01*
X145141486Y-93920901D01*
X145140687Y-93921929D01*
X145140545Y-93923223D01*
X145119306Y-93949451D01*
X145098622Y-93976078D01*
X145097395Y-93976510D01*
X145096576Y-93977523D01*
X145064527Y-93988105D01*
X145032733Y-93999322D01*
X145030368Y-93999385D01*
X145030230Y-93999431D01*
X145030082Y-93999393D01*
X145026096Y-93999500D01*
X142949499Y-93999500D01*
X142882460Y-93979815D01*
X142836705Y-93927011D01*
X142825499Y-93875500D01*
X142825499Y-93854554D01*
X142825499Y-93854552D01*
X142811981Y-93786588D01*
X142760484Y-93709516D01*
X142708078Y-93674500D01*
X142683411Y-93658018D01*
X142683408Y-93658017D01*
X142615451Y-93644500D01*
X142184554Y-93644500D01*
X142143846Y-93652597D01*
X142116588Y-93658019D01*
X142116587Y-93658019D01*
X142116585Y-93658020D01*
X142079165Y-93683023D01*
X142012488Y-93703900D01*
X141945108Y-93685415D01*
X141902890Y-93641922D01*
X141895480Y-93629087D01*
X141820913Y-93554520D01*
X141729587Y-93501793D01*
X141627727Y-93474500D01*
X141522273Y-93474500D01*
X141420413Y-93501793D01*
X141420410Y-93501794D01*
X141329085Y-93554521D01*
X141252516Y-93631090D01*
X141252237Y-93631703D01*
X141251305Y-93632301D01*
X141248773Y-93634834D01*
X141248222Y-93634283D01*
X141225823Y-93648677D01*
X141200477Y-93667187D01*
X141195736Y-93668013D01*
X141193459Y-93669477D01*
X141158524Y-93674500D01*
X141095693Y-93674500D01*
X141045862Y-93659868D01*
X141044693Y-93662692D01*
X141033408Y-93658017D01*
X140965451Y-93644500D01*
X140965449Y-93644500D01*
X140965307Y-93644500D01*
X140528460Y-93644501D01*
X140528460Y-93643217D01*
X140466349Y-93631428D01*
X140415645Y-93583355D01*
X140399683Y-93535337D01*
X140397730Y-93518504D01*
X140397730Y-93518501D01*
X140354619Y-93420864D01*
X140354617Y-93420861D01*
X140354616Y-93420859D01*
X140279141Y-93345384D01*
X140279138Y-93345383D01*
X140279136Y-93345381D01*
X140181500Y-93302270D01*
X140181501Y-93302270D01*
X140157624Y-93299500D01*
X140157623Y-93299500D01*
X139726794Y-93299500D01*
X139659755Y-93279815D01*
X139614000Y-93227011D01*
X139604056Y-93157853D01*
X139607019Y-93143407D01*
X139609894Y-93132677D01*
X139625500Y-93074435D01*
X139625500Y-92975565D01*
X139599910Y-92880062D01*
X139550475Y-92794438D01*
X139480562Y-92724525D01*
X139394938Y-92675090D01*
X139299435Y-92649500D01*
X139200565Y-92649500D01*
X139105062Y-92675090D01*
X139105060Y-92675091D01*
X139105059Y-92675091D01*
X139019436Y-92724526D01*
X138949526Y-92794436D01*
X138900091Y-92880059D01*
X138900091Y-92880060D01*
X138900090Y-92880062D01*
X138874500Y-92975565D01*
X138874500Y-93074435D01*
X138900090Y-93169938D01*
X138900091Y-93169939D01*
X138900091Y-93169940D01*
X138906991Y-93181891D01*
X138923464Y-93249791D01*
X138900611Y-93315818D01*
X138878882Y-93337157D01*
X138878984Y-93337259D01*
X138795386Y-93420856D01*
X138795381Y-93420863D01*
X138752270Y-93518499D01*
X138749500Y-93542375D01*
X138749500Y-94257615D01*
X138749502Y-94257638D01*
X138752269Y-94281495D01*
X138752269Y-94281497D01*
X138752270Y-94281498D01*
X138768356Y-94317928D01*
X138768934Y-94319237D01*
X138770983Y-94328953D01*
X138774477Y-94334389D01*
X138779500Y-94369324D01*
X138779500Y-94470262D01*
X138759815Y-94537301D01*
X138758602Y-94539152D01*
X138722671Y-94592925D01*
X138722670Y-94592929D01*
X138709500Y-94659139D01*
X138709500Y-94995000D01*
X137800500Y-94995000D01*
X137800500Y-90447273D01*
X138799500Y-90447273D01*
X138799500Y-90552727D01*
X138826793Y-90654587D01*
X138879520Y-90745913D01*
X138954087Y-90820480D01*
X139045413Y-90873207D01*
X139147273Y-90900500D01*
X139147275Y-90900500D01*
X139252725Y-90900500D01*
X139252727Y-90900500D01*
X139354587Y-90873207D01*
X139445913Y-90820480D01*
X139520480Y-90745913D01*
X139573207Y-90654587D01*
X139600500Y-90552727D01*
X139600500Y-90447273D01*
X139573207Y-90345413D01*
X139520480Y-90254087D01*
X139445913Y-90179520D01*
X139354587Y-90126793D01*
X139252727Y-90099500D01*
X139147273Y-90099500D01*
X139045413Y-90126793D01*
X139045410Y-90126794D01*
X138954085Y-90179521D01*
X138879521Y-90254085D01*
X138826794Y-90345410D01*
X138826793Y-90345413D01*
X138799500Y-90447273D01*
X137800500Y-90447273D01*
X137800500Y-89772273D01*
X139699500Y-89772273D01*
X139699500Y-89877727D01*
X139726793Y-89979587D01*
X139779520Y-90070913D01*
X139854087Y-90145480D01*
X139945413Y-90198207D01*
X140047273Y-90225500D01*
X140047275Y-90225500D01*
X140152725Y-90225500D01*
X140152727Y-90225500D01*
X140254587Y-90198207D01*
X140345913Y-90145480D01*
X140420480Y-90070913D01*
X140473207Y-89979587D01*
X140500500Y-89877727D01*
X140500500Y-89772273D01*
X140473207Y-89670413D01*
X140420480Y-89579087D01*
X140345913Y-89504520D01*
X140254587Y-89451793D01*
X140152727Y-89424500D01*
X140047273Y-89424500D01*
X139945413Y-89451793D01*
X139945410Y-89451794D01*
X139854085Y-89504521D01*
X139779521Y-89579085D01*
X139726794Y-89670410D01*
X139726793Y-89670413D01*
X139699500Y-89772273D01*
X137800500Y-89772273D01*
X137800500Y-88505209D01*
X137800537Y-88502173D01*
X137801559Y-88460438D01*
X137801921Y-88445652D01*
X137804264Y-88424519D01*
X137827315Y-88308631D01*
X137834363Y-88285396D01*
X137877575Y-88181074D01*
X137889026Y-88159650D01*
X137951752Y-88065775D01*
X137967163Y-88046997D01*
X138046994Y-87967166D01*
X138065775Y-87951752D01*
X138159654Y-87889025D01*
X138181079Y-87877573D01*
X138285394Y-87834364D01*
X138308634Y-87827314D01*
X138424512Y-87804265D01*
X138445658Y-87801921D01*
X138497495Y-87800651D01*
X138502174Y-87800537D01*
X138505210Y-87800500D01*
X146726000Y-87800500D01*
X146793039Y-87820185D01*
G37*
%TD.AperFunction*%
%TA.AperFunction,Conductor*%
G36*
X151291105Y-94017244D02*
G01*
X151345177Y-94028000D01*
X151785500Y-94028000D01*
X151852539Y-94047685D01*
X151898294Y-94100489D01*
X151909500Y-94152000D01*
X151909500Y-94815233D01*
X151900855Y-94844673D01*
X151894332Y-94874660D01*
X151890577Y-94879675D01*
X151889815Y-94882272D01*
X151873181Y-94902914D01*
X151817414Y-94958681D01*
X151756091Y-94992166D01*
X151729733Y-94995000D01*
X150277767Y-94995000D01*
X150210728Y-94975315D01*
X150190086Y-94958681D01*
X150112835Y-94881430D01*
X150079350Y-94820107D01*
X150084334Y-94750415D01*
X150112833Y-94706070D01*
X150639586Y-94179318D01*
X150700909Y-94145833D01*
X150727267Y-94142999D01*
X151005446Y-94142999D01*
X151005448Y-94142999D01*
X151073412Y-94129481D01*
X151150484Y-94077984D01*
X151157362Y-94067690D01*
X151210971Y-94022884D01*
X151280296Y-94014174D01*
X151291105Y-94017244D01*
G37*
%TD.AperFunction*%
%TA.AperFunction,Conductor*%
G36*
X161497826Y-87800537D02*
G01*
X161501548Y-87800628D01*
X161554345Y-87801921D01*
X161575480Y-87804264D01*
X161691365Y-87827314D01*
X161714605Y-87834364D01*
X161818920Y-87877573D01*
X161840352Y-87889029D01*
X161893438Y-87924500D01*
X161934216Y-87951747D01*
X161953006Y-87967168D01*
X162032827Y-88046989D01*
X162048249Y-88065780D01*
X162110970Y-88159650D01*
X162122425Y-88181081D01*
X162122428Y-88181086D01*
X162165630Y-88285385D01*
X162172686Y-88308643D01*
X162195732Y-88424510D01*
X162198077Y-88445660D01*
X162199463Y-88502171D01*
X162199500Y-88505211D01*
X162199500Y-94995000D01*
X159869392Y-94995000D01*
X159802353Y-94975315D01*
X159756598Y-94922511D01*
X159747775Y-94895194D01*
X159747089Y-94891746D01*
X159747088Y-94891745D01*
X159747088Y-94891743D01*
X159710751Y-94837362D01*
X159686473Y-94801026D01*
X159610727Y-94750415D01*
X159595757Y-94740412D01*
X159595755Y-94740411D01*
X159595752Y-94740410D01*
X159515766Y-94724500D01*
X159515762Y-94724500D01*
X158884238Y-94724500D01*
X158884233Y-94724500D01*
X158804247Y-94740410D01*
X158804243Y-94740412D01*
X158713526Y-94801026D01*
X158652912Y-94891743D01*
X158652910Y-94891746D01*
X158652225Y-94895194D01*
X158648658Y-94902012D01*
X158648237Y-94903029D01*
X158648145Y-94902991D01*
X158619838Y-94957104D01*
X158559122Y-94991677D01*
X158530608Y-94995000D01*
X157337649Y-94995000D01*
X157275649Y-94978387D01*
X157229589Y-94951794D01*
X157229588Y-94951793D01*
X157229587Y-94951793D01*
X157127727Y-94924500D01*
X157022273Y-94924500D01*
X156920413Y-94951793D01*
X156920410Y-94951794D01*
X156874351Y-94978387D01*
X156812351Y-94995000D01*
X156379993Y-94995000D01*
X156312954Y-94975315D01*
X156267199Y-94922511D01*
X156257255Y-94853353D01*
X156258376Y-94846808D01*
X156270500Y-94785858D01*
X156270500Y-94384141D01*
X156270499Y-94384139D01*
X156257329Y-94317929D01*
X156257329Y-94317928D01*
X156228968Y-94275484D01*
X156207158Y-94242842D01*
X156176585Y-94222414D01*
X156132071Y-94192670D01*
X156065859Y-94179500D01*
X156065856Y-94179500D01*
X155534144Y-94179500D01*
X155534141Y-94179500D01*
X155467929Y-94192670D01*
X155418890Y-94225437D01*
X155352213Y-94246314D01*
X155284833Y-94227829D01*
X155281110Y-94225437D01*
X155232070Y-94192670D01*
X155165859Y-94179500D01*
X155165856Y-94179500D01*
X154634144Y-94179500D01*
X154634141Y-94179500D01*
X154567929Y-94192670D01*
X154522631Y-94222937D01*
X154455953Y-94243814D01*
X154388573Y-94225329D01*
X154384850Y-94222936D01*
X154332071Y-94187670D01*
X154265859Y-94174500D01*
X154265856Y-94174500D01*
X153734144Y-94174500D01*
X153734141Y-94174500D01*
X153667929Y-94187670D01*
X153667928Y-94187670D01*
X153592842Y-94237842D01*
X153542670Y-94312928D01*
X153542670Y-94312929D01*
X153529500Y-94379139D01*
X153529500Y-94503823D01*
X153509815Y-94570862D01*
X153467500Y-94611210D01*
X153444441Y-94624522D01*
X153444435Y-94624527D01*
X153374526Y-94694436D01*
X153325091Y-94780059D01*
X153325091Y-94780060D01*
X153325090Y-94780062D01*
X153315666Y-94815233D01*
X153299499Y-94875567D01*
X153298439Y-94883625D01*
X153295891Y-94883289D01*
X153279815Y-94938039D01*
X153227011Y-94983794D01*
X153175500Y-94995000D01*
X152914500Y-94995000D01*
X152847461Y-94975315D01*
X152801706Y-94922511D01*
X152790500Y-94871000D01*
X152790500Y-94132677D01*
X152781768Y-94088782D01*
X152781767Y-94088781D01*
X152781767Y-94088778D01*
X152748504Y-94038996D01*
X152748503Y-94038995D01*
X152698724Y-94005734D01*
X152698717Y-94005731D01*
X152654822Y-93997000D01*
X152654820Y-93997000D01*
X152214500Y-93997000D01*
X152147461Y-93977315D01*
X152101706Y-93924511D01*
X152090500Y-93873000D01*
X152090500Y-93132677D01*
X152081768Y-93088782D01*
X152081767Y-93088781D01*
X152081767Y-93088778D01*
X152048504Y-93038996D01*
X152048503Y-93038995D01*
X151998724Y-93005734D01*
X151998717Y-93005731D01*
X151954822Y-92997000D01*
X151954820Y-92997000D01*
X151345180Y-92997000D01*
X151345178Y-92997000D01*
X151301282Y-93005731D01*
X151301275Y-93005734D01*
X151251496Y-93038995D01*
X151251495Y-93038996D01*
X151218234Y-93088775D01*
X151218231Y-93088782D01*
X151209500Y-93132677D01*
X151209500Y-93163000D01*
X151206949Y-93171685D01*
X151208238Y-93180647D01*
X151197259Y-93204687D01*
X151189815Y-93230039D01*
X151182974Y-93235966D01*
X151179213Y-93244203D01*
X151156978Y-93258492D01*
X151137011Y-93275794D01*
X151126496Y-93278081D01*
X151120435Y-93281977D01*
X151085500Y-93287000D01*
X151046797Y-93287000D01*
X151046789Y-93286999D01*
X151042793Y-93286999D01*
X151018601Y-93284616D01*
X151005449Y-93282000D01*
X151005448Y-93282000D01*
X150574554Y-93282000D01*
X150506587Y-93295519D01*
X150429516Y-93347016D01*
X150378018Y-93424088D01*
X150378017Y-93424091D01*
X150364500Y-93492048D01*
X150364500Y-93765232D01*
X150344815Y-93832271D01*
X150328181Y-93852913D01*
X149987180Y-94193913D01*
X149925857Y-94227398D01*
X149856165Y-94222414D01*
X149800232Y-94180542D01*
X149775815Y-94115078D01*
X149775499Y-94106258D01*
X149775499Y-93689552D01*
X149761981Y-93621588D01*
X149710484Y-93544516D01*
X149646545Y-93501794D01*
X149633411Y-93493018D01*
X149633408Y-93493017D01*
X149565451Y-93479500D01*
X149565449Y-93479500D01*
X149395313Y-93479500D01*
X149328274Y-93459815D01*
X149296938Y-93430987D01*
X149295480Y-93429087D01*
X149220914Y-93354521D01*
X149220913Y-93354520D01*
X149129587Y-93301793D01*
X149027727Y-93274500D01*
X148922273Y-93274500D01*
X148820413Y-93301793D01*
X148820410Y-93301794D01*
X148729087Y-93354520D01*
X148654511Y-93429095D01*
X148653053Y-93430996D01*
X148651415Y-93432191D01*
X148648773Y-93434834D01*
X148648360Y-93434421D01*
X148596621Y-93472193D01*
X148554686Y-93479500D01*
X148334554Y-93479500D01*
X148293846Y-93487597D01*
X148266588Y-93493019D01*
X148266587Y-93493019D01*
X148266585Y-93493020D01*
X148198364Y-93538603D01*
X148131687Y-93559480D01*
X148129475Y-93559500D01*
X147843856Y-93559500D01*
X147754712Y-93583386D01*
X147754711Y-93583386D01*
X147754709Y-93583387D01*
X147754706Y-93583388D01*
X147674794Y-93629526D01*
X147674784Y-93629534D01*
X147461900Y-93842415D01*
X147400577Y-93875899D01*
X147350032Y-93876351D01*
X147317249Y-93869831D01*
X147317248Y-93869831D01*
X147301316Y-93873000D01*
X147258524Y-93881511D01*
X147221313Y-93906376D01*
X147221305Y-93906382D01*
X146606382Y-94521305D01*
X146606377Y-94521311D01*
X146580643Y-94559823D01*
X146527029Y-94604626D01*
X146457704Y-94613332D01*
X146394677Y-94583175D01*
X146388385Y-94577108D01*
X146380635Y-94569090D01*
X146370007Y-94553184D01*
X146227987Y-94411164D01*
X146227236Y-94410387D01*
X146221224Y-94398919D01*
X146196619Y-94356302D01*
X146178561Y-94288908D01*
X146178557Y-94288901D01*
X146177455Y-94286992D01*
X146177448Y-94286981D01*
X146141633Y-94224946D01*
X146089407Y-94172720D01*
X145773347Y-93856661D01*
X145770457Y-93853771D01*
X145760535Y-93843848D01*
X145749843Y-93831655D01*
X145729848Y-93805596D01*
X145713665Y-93777566D01*
X145708707Y-93765597D01*
X145701237Y-93696128D01*
X145701927Y-93692594D01*
X145882224Y-92836261D01*
X145885941Y-92800565D01*
X160324500Y-92800565D01*
X160324500Y-92899435D01*
X160350090Y-92994938D01*
X160399525Y-93080562D01*
X160469438Y-93150475D01*
X160555062Y-93199910D01*
X160650565Y-93225500D01*
X160650567Y-93225500D01*
X160749432Y-93225500D01*
X160749435Y-93225500D01*
X160844938Y-93199910D01*
X160930562Y-93150475D01*
X161000475Y-93080562D01*
X161049910Y-92994938D01*
X161075500Y-92899435D01*
X161075500Y-92800565D01*
X161049910Y-92705062D01*
X161000475Y-92619438D01*
X160930562Y-92549525D01*
X160844938Y-92500090D01*
X160749435Y-92474500D01*
X160650565Y-92474500D01*
X160555062Y-92500090D01*
X160555060Y-92500091D01*
X160555059Y-92500091D01*
X160469436Y-92549526D01*
X160399526Y-92619436D01*
X160350091Y-92705059D01*
X160350091Y-92705060D01*
X160350090Y-92705062D01*
X160324500Y-92800565D01*
X145885941Y-92800565D01*
X145886000Y-92800000D01*
X145886000Y-90622273D01*
X160349500Y-90622273D01*
X160349500Y-90727727D01*
X160376793Y-90829587D01*
X160429520Y-90920913D01*
X160504087Y-90995480D01*
X160595413Y-91048207D01*
X160697273Y-91075500D01*
X160697275Y-91075500D01*
X160802725Y-91075500D01*
X160802727Y-91075500D01*
X160904587Y-91048207D01*
X160995913Y-90995480D01*
X161070480Y-90920913D01*
X161123207Y-90829587D01*
X161150500Y-90727727D01*
X161150500Y-90622273D01*
X161123207Y-90520413D01*
X161070480Y-90429087D01*
X160995913Y-90354520D01*
X160904587Y-90301793D01*
X160802727Y-90274500D01*
X160697273Y-90274500D01*
X160595413Y-90301793D01*
X160595410Y-90301794D01*
X160504085Y-90354521D01*
X160429521Y-90429085D01*
X160376794Y-90520410D01*
X160376793Y-90520413D01*
X160349500Y-90622273D01*
X145886000Y-90622273D01*
X145886000Y-90290271D01*
X145905685Y-90223232D01*
X145958489Y-90177477D01*
X146027647Y-90167533D01*
X146034192Y-90168654D01*
X146045985Y-90171000D01*
X146045986Y-90171000D01*
X146114014Y-90171000D01*
X146726000Y-90171000D01*
X146793039Y-90190685D01*
X146838794Y-90243489D01*
X146850000Y-90295000D01*
X146850000Y-90500000D01*
X153150000Y-90500000D01*
X153150000Y-89197273D01*
X159099500Y-89197273D01*
X159099500Y-89302727D01*
X159126793Y-89404587D01*
X159179520Y-89495913D01*
X159254087Y-89570480D01*
X159345413Y-89623207D01*
X159447273Y-89650500D01*
X159447275Y-89650500D01*
X159552725Y-89650500D01*
X159552727Y-89650500D01*
X159654587Y-89623207D01*
X159745913Y-89570480D01*
X159820480Y-89495913D01*
X159873207Y-89404587D01*
X159900500Y-89302727D01*
X159900500Y-89197273D01*
X159873207Y-89095413D01*
X159820480Y-89004087D01*
X159745913Y-88929520D01*
X159654587Y-88876793D01*
X159552727Y-88849500D01*
X159447273Y-88849500D01*
X159345413Y-88876793D01*
X159345410Y-88876794D01*
X159254085Y-88929521D01*
X159179521Y-89004085D01*
X159126794Y-89095410D01*
X159126793Y-89095413D01*
X159099500Y-89197273D01*
X153150000Y-89197273D01*
X153150000Y-87924500D01*
X153169685Y-87857461D01*
X153222489Y-87811706D01*
X153274000Y-87800500D01*
X161494790Y-87800500D01*
X161497826Y-87800537D01*
G37*
%TD.AperFunction*%
%TD*%
%TA.AperFunction,Conductor*%
%TO.N,GND*%
G36*
X161450000Y-105750000D02*
G01*
X161275000Y-105750009D01*
X154910000Y-105750345D01*
X154910000Y-105750346D01*
X154910000Y-111300000D01*
X154330000Y-111300000D01*
X154330000Y-105349000D01*
X154348907Y-105290809D01*
X154398407Y-105254845D01*
X154429000Y-105250000D01*
X161274999Y-105250000D01*
X161450000Y-105250000D01*
X161450000Y-105750000D01*
G37*
%TD.AperFunction*%
%TD*%
%TA.AperFunction,Conductor*%
%TO.N,GND*%
G36*
X138709500Y-95060858D02*
G01*
X138722617Y-95126799D01*
X138725000Y-95150991D01*
X138725000Y-95559007D01*
X138722617Y-95583199D01*
X138709500Y-95649141D01*
X138709500Y-96050858D01*
X138722617Y-96116799D01*
X138725000Y-96140991D01*
X138725000Y-110975000D01*
X138727233Y-111025000D01*
X138727642Y-111034149D01*
X138772912Y-111143440D01*
X138856560Y-111227088D01*
X138965852Y-111272358D01*
X139025000Y-111275000D01*
X143598699Y-111275000D01*
X143600565Y-111275500D01*
X143699435Y-111275500D01*
X143701301Y-111275000D01*
X154030000Y-111275000D01*
X154330000Y-111275000D01*
X154330000Y-111300000D01*
X154910000Y-111300000D01*
X154910000Y-111275000D01*
X155575407Y-111275000D01*
X155577273Y-111275500D01*
X155682727Y-111275500D01*
X155684593Y-111275000D01*
X158385349Y-111275000D01*
X158392978Y-111275500D01*
X158397273Y-111275500D01*
X158507022Y-111275500D01*
X158514651Y-111275000D01*
X160974989Y-111275000D01*
X160975000Y-111275000D01*
X161034148Y-111272358D01*
X161143440Y-111227088D01*
X161227088Y-111143440D01*
X161272358Y-111034148D01*
X161275000Y-110975000D01*
X161275000Y-105750009D01*
X161450000Y-105750000D01*
X161450000Y-105250000D01*
X161275000Y-105250000D01*
X161275000Y-94995000D01*
X162199500Y-94995000D01*
X162199500Y-111494787D01*
X162199463Y-111497825D01*
X162199463Y-111497827D01*
X162198077Y-111554338D01*
X162195732Y-111575488D01*
X162172686Y-111691355D01*
X162165629Y-111714619D01*
X162122428Y-111818912D01*
X162110970Y-111840348D01*
X162048249Y-111934218D01*
X162032829Y-111953006D01*
X162032827Y-111953009D01*
X161953006Y-112032830D01*
X161934216Y-112048251D01*
X161840355Y-112110967D01*
X161818917Y-112122426D01*
X161714612Y-112165631D01*
X161691355Y-112172686D01*
X161575492Y-112195732D01*
X161554344Y-112198077D01*
X161499135Y-112199430D01*
X161497825Y-112199463D01*
X161494787Y-112199500D01*
X138505213Y-112199500D01*
X138502174Y-112199463D01*
X138501117Y-112199437D01*
X138445660Y-112198077D01*
X138424510Y-112195732D01*
X138308643Y-112172686D01*
X138285385Y-112165630D01*
X138185086Y-112124085D01*
X138181086Y-112122428D01*
X138159650Y-112110970D01*
X138065780Y-112048249D01*
X138046989Y-112032827D01*
X137967168Y-111953006D01*
X137951747Y-111934216D01*
X137889027Y-111840348D01*
X137877572Y-111818917D01*
X137877570Y-111818912D01*
X137834364Y-111714605D01*
X137827314Y-111691365D01*
X137804264Y-111575480D01*
X137801921Y-111554340D01*
X137801647Y-111543171D01*
X137800537Y-111497825D01*
X137800500Y-111494789D01*
X137800500Y-94995000D01*
X138709500Y-94995000D01*
X138709500Y-95060858D01*
G37*
%TD.AperFunction*%
%TD*%
D67*
X161500000Y-87500000D02*
X161500000Y-87500000D01*
G75*
G02*
X162500000Y-88500000I0J-1000000D01*
G01*
X162500000Y-111500000D01*
G75*
G02*
X161500000Y-112500000I-1000000J0D01*
G01*
X138500000Y-112500000D01*
G75*
G02*
X137500000Y-111500000I0J1000000D01*
G01*
X137500000Y-88500000D01*
G75*
G02*
X138500000Y-87500000I1000000J0D01*
G01*
X161500000Y-87500000D01*
M02*
