M48
; DRILL file {KiCad 9.0.1} date 2025-12-15T19:46:45-0600
; FORMAT={-:-/ absolute / metric / decimal}
; #@! TF.CreationDate,2025-12-15T19:46:45-06:00
; #@! TF.GenerationSoftware,Kicad,Pcbnew,9.0.1
; #@! TF.FileFunction,Plated,1,6,PTH
FMAT,2
METRIC
; #@! TA.AperFunction,Plated,PTH,ViaDrill
T1C0.300
%
G90
G05
T1
X138.25Y-89.312
X138.25Y-91.688
X138.25Y-94.062
X138.25Y-96.438
X138.25Y-98.812
X138.25Y-101.188
X138.25Y-103.562
X138.25Y-105.938
X138.25Y-108.312
X138.25Y-110.688
X139.15Y-108.675
X139.2Y-90.5
X139.25Y-93.025
X139.275Y-109.5
X139.312Y-88.25
X139.312Y-111.75
X139.45Y-89.65
X139.45Y-105.785
X139.55Y-93.9
X139.925Y-104.275
X139.925Y-108.437
X140.05Y-92.0
X140.08Y-95.85
X140.1Y-89.825
X140.125Y-100.275
X140.125Y-103.7
X140.175Y-107.425
X140.825Y-100.15
X140.975Y-95.85
X140.975Y-98.3
X141.0Y-103.025
X141.02Y-96.6
X141.02Y-97.56
X141.044Y-109.502
X141.044Y-110.078
X141.175Y-90.825
X141.175Y-93.325
X141.35Y-103.775
X141.375Y-89.525
X141.4Y-104.8
X141.575Y-93.875
X141.675Y-101.05
X141.688Y-88.25
X141.688Y-111.75
X141.725Y-97.4
X141.74Y-106.2
X141.775Y-94.85
X141.887Y-96.075
X141.9Y-100.4
X142.0Y-99.0
X142.075Y-107.5
X142.087Y-108.262
X142.225Y-101.05
X142.4Y-91.775
X142.425Y-110.05
X142.707Y-109.511
X142.8Y-89.325
X142.925Y-93.125
X143.04Y-105.91
X143.125Y-98.375
X143.175Y-96.2
X143.275Y-99.35
X143.4Y-104.25
X143.525Y-108.425
X143.65Y-110.9
X143.8Y-89.85
X143.825Y-90.925
X143.825Y-99.925
X144.0Y-88.25
X144.05Y-91.9
X144.052Y-110.524
X144.062Y-111.75
X144.16Y-93.0
X144.23Y-93.78
X144.475Y-105.325
X144.476Y-110.874
X144.525Y-97.075
X144.71Y-89.4
X144.71Y-90.4
X144.71Y-91.4
X144.71Y-92.4
X144.8Y-105.775
X144.825Y-88.575
X144.83Y-93.41
X145.125Y-105.325
X145.601Y-97.765
X145.602Y-99.552
X145.625Y-88.975
X145.65Y-101.4
X145.67Y-96.105
X145.99Y-93.41
X146.11Y-90.4
X146.11Y-91.399
X146.11Y-92.399
X146.325Y-109.0
X146.403Y-109.544
X146.438Y-111.75
X146.45Y-88.275
X146.5Y-95.2
X146.6Y-88.975
X146.63Y-93.77
X146.65Y-92.97
X146.69Y-91.88
X146.75Y-102.125
X146.775Y-104.277
X146.775Y-104.925
X146.912Y-106.312
X147.0Y-90.775
X147.125Y-106.85
X147.2Y-101.7
X147.397Y-97.765
X147.398Y-99.548
X147.575Y-109.4
X147.588Y-101.287
X147.65Y-91.425
X147.767Y-95.992
X147.775Y-103.5
X148.225Y-96.95
X148.29Y-90.775
X148.35Y-108.55
X148.812Y-111.75
X148.925Y-91.35
X148.943Y-93.076
X148.95Y-97.625
X148.975Y-93.675
X149.075Y-107.85
X149.175Y-98.775
X149.175Y-102.075
X149.245Y-99.455
X149.375Y-102.7
X149.39Y-95.5
X149.58Y-90.775
X149.725Y-98.4
X150.0Y-95.95
X150.25Y-91.4
X150.3Y-110.025
X150.375Y-92.475
X150.55Y-103.325
X150.838Y-108.487
X150.85Y-95.75
X150.87Y-90.775
X151.05Y-109.925
X151.188Y-111.75
X151.225Y-94.45
X151.225Y-101.7
X151.35Y-96.825
X151.39Y-97.468
X151.4Y-108.6
X151.425Y-98.075
X151.525Y-104.612
X151.55Y-91.375
X151.6Y-109.975
X151.787Y-99.862
X151.9Y-100.4
X151.975Y-105.85
X151.975Y-106.45
X152.025Y-96.35
X152.16Y-90.775
X152.275Y-107.412
X152.325Y-93.425
X152.481Y-95.4
X152.525Y-108.287
X152.525Y-109.6
X152.525Y-110.225
X152.75Y-96.35
X152.825Y-91.45
X152.825Y-104.625
X152.925Y-107.412
X153.015Y-100.575
X153.065Y-97.91
X153.099Y-97.335
X153.125Y-94.4
X153.35Y-110.875
X153.375Y-108.275
X153.45Y-89.485
X153.45Y-90.775
X153.463Y-88.25
X153.575Y-111.75
X153.58Y-97.628
X153.595Y-100.725
X153.675Y-94.925
X153.725Y-96.2
X153.775Y-104.125
X153.825Y-105.9
X153.825Y-106.575
X153.875Y-110.375
X153.95Y-92.95
X153.985Y-109.803
X154.125Y-88.875
X154.15Y-90.125
X154.2Y-91.35
X154.637Y-110.688
X154.64Y-105.94
X154.64Y-108.315
X154.9Y-94.6
X154.9Y-95.85
X155.325Y-89.525
X155.325Y-96.275
X155.55Y-104.2
X155.6Y-93.4
X155.6Y-110.875
X155.741Y-96.635
X155.8Y-94.585
X155.925Y-106.25
X155.925Y-107.175
X155.938Y-88.25
X155.938Y-105.5
X155.938Y-111.75
X156.05Y-98.85
X156.125Y-92.075
X156.175Y-90.625
X156.225Y-104.85
X156.275Y-110.225
X156.55Y-96.925
X156.55Y-99.85
X156.625Y-104.225
X157.0Y-100.25
X157.05Y-94.725
X157.075Y-95.325
X157.475Y-110.1
X157.525Y-89.575
X157.525Y-93.75
X157.626Y-100.926
X157.7Y-106.25
X157.87Y-95.014
X157.975Y-91.55
X158.05Y-101.35
X158.268Y-95.426
X158.312Y-88.25
X158.312Y-105.5
X158.312Y-111.75
X158.45Y-109.475
X158.45Y-110.875
X158.975Y-90.425
X159.025Y-108.075
X159.05Y-100.95
X159.05Y-101.6
X159.075Y-110.1
X159.175Y-104.625
X159.2Y-108.825
X159.25Y-93.275
X159.5Y-89.25
X159.6Y-106.15
X159.65Y-91.9
X159.9Y-107.475
X159.925Y-96.8
X159.95Y-95.35
X159.975Y-109.65
X160.275Y-96.325
X160.325Y-110.9
X160.688Y-88.25
X160.688Y-105.5
X160.688Y-111.75
X160.7Y-92.85
X160.75Y-90.675
X160.8Y-107.125
X160.8Y-108.175
X160.8Y-110.375
X161.75Y-89.312
X161.75Y-91.688
X161.75Y-94.062
X161.75Y-96.438
X161.75Y-98.812
X161.75Y-101.188
X161.75Y-103.562
X161.75Y-105.938
X161.75Y-108.312
X161.75Y-110.688
M30
