%TF.GenerationSoftware,KiCad,Pcbnew,9.0.1*%
%TF.CreationDate,2025-12-15T19:45:57-06:00*%
%TF.ProjectId,ProtoCore_v1,50726f74-6f43-46f7-9265-5f76312e6b69,rev?*%
%TF.SameCoordinates,Original*%
%TF.FileFunction,Copper,L3,Inr*%
%TF.FilePolarity,Positive*%
%FSLAX46Y46*%
G04 Gerber Fmt 4.6, Leading zero omitted, Abs format (unit mm)*
G04 Created by KiCad (PCBNEW 9.0.1) date 2025-12-15 19:45:57*
%MOMM*%
%LPD*%
G01*
G04 APERTURE LIST*
%TA.AperFunction,ViaPad*%
%ADD10C,0.450000*%
%TD*%
%TA.AperFunction,ViaPad*%
%ADD11C,0.500000*%
%TD*%
%TA.AperFunction,Profile*%
%ADD12C,0.100000*%
%TD*%
G04 APERTURE END LIST*
D10*
%TO.N,GND*%
X146775000Y-104925000D03*
D11*
X141175000Y-90825000D03*
X138250000Y-96437500D03*
D10*
X146110000Y-90400000D03*
D11*
X160687500Y-88250000D03*
X144825000Y-88575000D03*
X146450000Y-88275000D03*
X159250000Y-93275000D03*
X139450000Y-89650000D03*
X138250000Y-105937500D03*
X153825000Y-106575000D03*
X153950000Y-92950000D03*
X141687500Y-88250000D03*
X156175000Y-90625000D03*
X155600000Y-93400000D03*
X161750000Y-91687500D03*
D10*
X151400000Y-108600000D03*
D11*
X161750000Y-101187500D03*
X143825000Y-90925000D03*
D10*
X139450000Y-105785000D03*
X149075000Y-107850000D03*
D11*
X142400000Y-91775000D03*
X155550000Y-104200000D03*
D10*
X159950000Y-95350000D03*
D11*
X142800000Y-89325000D03*
X157525000Y-93750000D03*
X157975000Y-91550000D03*
D10*
X140125000Y-103700000D03*
D11*
X151525000Y-104612500D03*
X158975000Y-90425000D03*
X146650000Y-92970000D03*
X144050000Y-91900000D03*
D10*
X147575000Y-109400000D03*
D11*
X156625000Y-104225000D03*
X140050000Y-92000000D03*
X152325000Y-93425000D03*
D10*
X148350000Y-108550000D03*
X146110000Y-91399500D03*
X160325000Y-110900000D03*
D11*
X153125000Y-94400000D03*
X143800000Y-89850000D03*
X146630000Y-93770000D03*
D10*
X142075000Y-107500000D03*
X153375000Y-108275000D03*
D11*
X151225000Y-101700000D03*
X154640000Y-105940000D03*
D10*
X141675000Y-101050000D03*
D11*
X146437500Y-111750000D03*
X154637500Y-110687500D03*
D10*
X140175000Y-107425000D03*
D11*
X153450000Y-89485000D03*
D10*
X153579696Y-97628250D03*
D11*
X155937500Y-88250000D03*
X156125000Y-92075000D03*
X148812500Y-111750000D03*
D10*
X139925000Y-108437499D03*
D11*
X152750000Y-96350000D03*
X142925000Y-93125000D03*
X161750000Y-108312500D03*
X138250000Y-91687500D03*
D10*
X142425000Y-110050000D03*
X156050000Y-98850000D03*
D11*
X155325000Y-89525000D03*
X153450000Y-90775000D03*
X154125000Y-88875000D03*
X153462500Y-88250000D03*
D10*
X159200000Y-108825000D03*
X151786759Y-99861782D03*
D11*
X153775000Y-104125000D03*
X155937500Y-105500000D03*
X146690000Y-91880000D03*
D10*
X144710000Y-90400000D03*
D11*
X139312500Y-111750000D03*
D10*
X143525000Y-108425000D03*
X151600000Y-109975000D03*
D11*
X161750000Y-94062500D03*
X154640000Y-108315000D03*
X144062500Y-111750000D03*
D10*
X140125000Y-100275000D03*
D11*
X138250000Y-110687500D03*
D10*
X144710000Y-91400500D03*
D11*
X160687500Y-111750000D03*
X138250000Y-108312500D03*
X155925000Y-106250000D03*
X158312500Y-111750000D03*
X150375000Y-92475000D03*
X152160000Y-90775000D03*
D10*
X149375000Y-102700000D03*
D11*
X138250000Y-103562500D03*
X141375000Y-89525000D03*
X151225000Y-94450000D03*
X161750000Y-103562500D03*
D10*
X155325000Y-96275000D03*
D11*
X152825000Y-91450000D03*
X148925000Y-91350000D03*
D10*
X159075000Y-110100000D03*
X146110000Y-92399500D03*
D11*
X138250000Y-89312500D03*
X138250000Y-98812500D03*
X138250000Y-94062500D03*
X155937500Y-111750000D03*
X138250000Y-101187500D03*
D10*
X144051637Y-110524248D03*
X144710000Y-92400000D03*
X152525000Y-108287500D03*
D11*
X146600000Y-88975000D03*
X148290000Y-90775000D03*
D10*
X141350000Y-103775000D03*
D11*
X147000000Y-90775000D03*
D10*
X144800000Y-105775000D03*
D11*
X144160000Y-93000000D03*
X148943465Y-93075827D03*
D10*
X156550000Y-96925000D03*
X141044098Y-110077500D03*
D11*
X157700000Y-106250000D03*
X150250000Y-91400000D03*
X157050000Y-94724997D03*
D10*
X160800000Y-110375000D03*
D11*
X144000000Y-88250000D03*
D10*
X144710000Y-89400500D03*
D11*
X159650000Y-91900000D03*
X147650000Y-91425000D03*
X151975000Y-105850000D03*
X158312500Y-105500000D03*
X144230000Y-93780000D03*
X149175000Y-98775000D03*
D10*
X146402782Y-109544474D03*
D11*
X149580000Y-90775000D03*
X160687500Y-105500000D03*
X151187500Y-111750000D03*
X157000000Y-100250000D03*
X154150000Y-90125000D03*
X157525000Y-89575000D03*
X161750000Y-96437500D03*
X161750000Y-98812500D03*
X145625000Y-88975000D03*
X147396643Y-97764828D03*
X152481250Y-95400000D03*
D10*
X144830000Y-93410000D03*
D11*
X161750000Y-89312500D03*
X150850000Y-95750000D03*
X147398026Y-99548026D03*
X161750000Y-110687500D03*
D10*
X141020000Y-97560000D03*
D11*
X158312500Y-88250000D03*
X139312500Y-88250000D03*
D10*
X147200000Y-101700000D03*
D11*
X154200000Y-91350000D03*
X150870000Y-90775000D03*
D10*
X153350000Y-110875000D03*
X157870002Y-95014297D03*
X159975000Y-109650000D03*
D11*
X145601974Y-99551974D03*
X157625734Y-100925734D03*
X141687500Y-111750000D03*
D10*
X145990000Y-93410000D03*
D11*
X141175000Y-93325000D03*
X145600592Y-97764828D03*
X153575000Y-111750000D03*
D10*
X147125000Y-106850000D03*
X151425000Y-98075000D03*
D11*
X151550000Y-91375000D03*
X161750000Y-105937500D03*
%TO.N,+3V3*%
X139550000Y-93900000D03*
X157475000Y-110100000D03*
X151975000Y-106450000D03*
X156550000Y-99850000D03*
X141044098Y-109502500D03*
D10*
X142225003Y-101050000D03*
D11*
X152025000Y-96350000D03*
X141775000Y-94850000D03*
X157075000Y-95325000D03*
X158450000Y-110875000D03*
X158050000Y-101350000D03*
X155925000Y-107175000D03*
D10*
X153015000Y-100575000D03*
D11*
X146775000Y-104277297D03*
X156225000Y-104850000D03*
D10*
X154900000Y-94600000D03*
D11*
X153825000Y-105900000D03*
X148975000Y-93675000D03*
X142707149Y-109510702D03*
X156275000Y-110224999D03*
X152825000Y-104625000D03*
X158450000Y-109475000D03*
D10*
X141020000Y-96600000D03*
X158268355Y-95425659D03*
D11*
X155600000Y-110875000D03*
X141575000Y-93875000D03*
X152275000Y-107412500D03*
D10*
%TO.N,VIN*%
X159900000Y-107475000D03*
X160800000Y-107125000D03*
X159600000Y-106150000D03*
X159025000Y-108075000D03*
X160800000Y-108175000D03*
%TO.N,/Microcontroller/BOOT1*%
X155800000Y-94585000D03*
X147766915Y-95991915D03*
%TO.N,/Microcontroller/UART0_RX_MCU*%
X149390202Y-95500000D03*
X153675000Y-94925000D03*
%TO.N,I2C0_SCL*%
X143400000Y-104250000D03*
X141740000Y-106200000D03*
X143040000Y-105910000D03*
X141400000Y-104800000D03*
%TO.N,USB_D-*%
X144475000Y-105325000D03*
X143650000Y-110900000D03*
%TO.N,USB_D+*%
X144476248Y-110873830D03*
X145125000Y-105325000D03*
%TO.N,UART0_RX*%
X153725000Y-96200000D03*
X159050000Y-100950000D03*
%TO.N,EMMC_DAT1*%
X154900000Y-95850000D03*
X151390420Y-97467520D03*
%TO.N,EMMC_DAT2*%
X155740631Y-96635214D03*
X151900000Y-100400000D03*
%TO.N,EMMC_DAT3*%
X149245343Y-99454657D03*
X153065209Y-97909768D03*
%TO.N,EMMC_DAT0*%
X153099420Y-97334595D03*
X149725000Y-98400000D03*
%TO.N,IO4*%
X141887500Y-96075000D03*
D11*
X139200000Y-90500000D03*
D10*
%TO.N,QSPI_IO3*%
X150837500Y-108487500D03*
X146750000Y-102125000D03*
%TO.N,IO2*%
X143175000Y-96200000D03*
D11*
X140100000Y-89825000D03*
D10*
%TO.N,IO0*%
X145669818Y-96105182D03*
X159925000Y-96800000D03*
%TO.N,UART0_TX*%
X150000000Y-95950000D03*
X159050000Y-101600000D03*
%TO.N,IO7*%
X142000000Y-99000000D03*
X139150000Y-108674998D03*
%TO.N,IO11*%
X141000000Y-103025000D03*
X143825000Y-99925000D03*
%TO.N,IO9*%
X153984788Y-109802692D03*
X159175000Y-104625000D03*
X143275000Y-99350000D03*
%TO.N,QSPI_IO2*%
X146325000Y-109000000D03*
X147775000Y-103500000D03*
%TO.N,QSPI_IO0*%
X149175000Y-102075000D03*
X151050000Y-109925000D03*
%TO.N,IO10*%
X141900000Y-100400000D03*
X139275000Y-109500000D03*
%TO.N,IO8*%
X140825000Y-100150000D03*
X139925000Y-104275000D03*
%TO.N,IO5*%
X141725000Y-97400000D03*
X139250000Y-93025000D03*
%TO.N,IO14*%
X160700000Y-92850000D03*
X151350000Y-96825000D03*
%TO.N,IO1*%
X160275000Y-96325000D03*
X144525000Y-97075000D03*
%TO.N,IO6*%
X140975000Y-98300000D03*
%TO.N,QSPI_IO1*%
X146912500Y-106312500D03*
X147587500Y-101287500D03*
%TO.N,IO3*%
X143125000Y-98375000D03*
X150300000Y-110025000D03*
%TO.N,INT_IMU*%
X142087499Y-108262500D03*
X145650000Y-101400000D03*
%TO.N,+3V3_AUX*%
X152525000Y-110225000D03*
X152525000Y-109600000D03*
%TO.N,CORE_BOOT_SEL*%
X140975000Y-95850000D03*
X153875000Y-110375000D03*
D11*
%TO.N,IO16*%
X159500000Y-89250000D03*
D10*
X148225000Y-96950000D03*
%TO.N,CORE_RESET_N*%
X140080000Y-95850000D03*
%TO.N,3V3_AUX_EN*%
X152925000Y-107412500D03*
X150550000Y-103325000D03*
%TO.N,CORE_RST_REQ_N*%
X146500000Y-95200000D03*
X153595000Y-100725000D03*
D11*
%TO.N,IO15*%
X160750000Y-90675000D03*
D10*
X148950000Y-97625000D03*
%TD*%
%TA.AperFunction,Conductor*%
%TO.N,GND*%
G36*
X146793039Y-87720185D02*
G01*
X146838794Y-87772989D01*
X146850000Y-87824500D01*
X146850000Y-90500000D01*
X153150000Y-90500000D01*
X153150000Y-89197273D01*
X159099500Y-89197273D01*
X159099500Y-89302727D01*
X159126793Y-89404587D01*
X159179520Y-89495913D01*
X159254087Y-89570480D01*
X159345413Y-89623207D01*
X159447273Y-89650500D01*
X159447275Y-89650500D01*
X159552725Y-89650500D01*
X159552727Y-89650500D01*
X159654587Y-89623207D01*
X159745913Y-89570480D01*
X159820480Y-89495913D01*
X159873207Y-89404587D01*
X159900500Y-89302727D01*
X159900500Y-89197273D01*
X159873207Y-89095413D01*
X159820480Y-89004087D01*
X159745913Y-88929520D01*
X159654587Y-88876793D01*
X159552727Y-88849500D01*
X159447273Y-88849500D01*
X159345413Y-88876793D01*
X159345410Y-88876794D01*
X159254085Y-88929521D01*
X159179521Y-89004085D01*
X159126794Y-89095410D01*
X159126793Y-89095413D01*
X159099500Y-89197273D01*
X153150000Y-89197273D01*
X153150000Y-87824500D01*
X153169685Y-87757461D01*
X153222489Y-87711706D01*
X153274000Y-87700500D01*
X161496018Y-87700500D01*
X161499054Y-87700537D01*
X161503317Y-87700641D01*
X161565407Y-87702162D01*
X161586552Y-87704507D01*
X161720529Y-87731157D01*
X161743777Y-87738208D01*
X161866288Y-87788954D01*
X161887711Y-87800405D01*
X161997965Y-87874074D01*
X162016751Y-87889492D01*
X162110506Y-87983247D01*
X162125925Y-88002034D01*
X162199590Y-88112284D01*
X162211046Y-88133715D01*
X162261787Y-88256214D01*
X162268843Y-88279476D01*
X162295490Y-88413442D01*
X162297836Y-88434593D01*
X162299463Y-88500943D01*
X162299500Y-88503983D01*
X162299500Y-111496015D01*
X162299463Y-111499053D01*
X162299463Y-111499055D01*
X162297836Y-111565405D01*
X162295490Y-111586556D01*
X162268843Y-111720522D01*
X162261787Y-111743784D01*
X162211046Y-111866283D01*
X162199587Y-111887721D01*
X162125927Y-111997961D01*
X162110506Y-112016751D01*
X162016751Y-112110506D01*
X161997961Y-112125927D01*
X161887721Y-112199587D01*
X161866283Y-112211046D01*
X161743784Y-112261787D01*
X161720522Y-112268843D01*
X161586556Y-112295490D01*
X161565405Y-112297836D01*
X161500435Y-112299429D01*
X161499053Y-112299463D01*
X161496015Y-112299500D01*
X138503985Y-112299500D01*
X138500946Y-112299463D01*
X138499551Y-112299428D01*
X138434593Y-112297836D01*
X138413442Y-112295490D01*
X138279476Y-112268843D01*
X138256214Y-112261787D01*
X138133715Y-112211046D01*
X138112284Y-112199590D01*
X138002034Y-112125925D01*
X137983247Y-112110506D01*
X137889492Y-112016751D01*
X137874074Y-111997965D01*
X137800405Y-111887711D01*
X137788954Y-111866288D01*
X137738208Y-111743777D01*
X137731157Y-111720529D01*
X137704507Y-111586552D01*
X137702162Y-111565407D01*
X137700537Y-111499053D01*
X137700500Y-111496017D01*
X137700500Y-110850565D01*
X143274500Y-110850565D01*
X143274500Y-110949435D01*
X143300090Y-111044938D01*
X143349525Y-111130562D01*
X143419438Y-111200475D01*
X143505062Y-111249910D01*
X143600565Y-111275500D01*
X143600567Y-111275500D01*
X143699432Y-111275500D01*
X143699435Y-111275500D01*
X143794938Y-111249910D01*
X143880562Y-111200475D01*
X143950475Y-111130562D01*
X143963292Y-111108361D01*
X144013856Y-111060147D01*
X144082463Y-111046923D01*
X144147328Y-111072890D01*
X144169755Y-111098767D01*
X144170827Y-111097946D01*
X144175772Y-111104391D01*
X144175773Y-111104392D01*
X144245686Y-111174305D01*
X144331310Y-111223740D01*
X144426813Y-111249330D01*
X144426815Y-111249330D01*
X144525680Y-111249330D01*
X144525683Y-111249330D01*
X144621186Y-111223740D01*
X144706810Y-111174305D01*
X144776723Y-111104392D01*
X144826158Y-111018768D01*
X144851748Y-110923265D01*
X144851748Y-110824395D01*
X144851179Y-110822273D01*
X155199500Y-110822273D01*
X155199500Y-110927727D01*
X155226793Y-111029587D01*
X155279520Y-111120913D01*
X155354087Y-111195480D01*
X155445413Y-111248207D01*
X155547273Y-111275500D01*
X155547275Y-111275500D01*
X155652725Y-111275500D01*
X155652727Y-111275500D01*
X155754587Y-111248207D01*
X155845913Y-111195480D01*
X155920480Y-111120913D01*
X155973207Y-111029587D01*
X156000500Y-110927727D01*
X156000500Y-110822273D01*
X158049500Y-110822273D01*
X158049500Y-110927727D01*
X158076793Y-111029587D01*
X158129520Y-111120913D01*
X158204087Y-111195480D01*
X158295413Y-111248207D01*
X158397273Y-111275500D01*
X158397275Y-111275500D01*
X158502725Y-111275500D01*
X158502727Y-111275500D01*
X158604587Y-111248207D01*
X158695913Y-111195480D01*
X158770480Y-111120913D01*
X158823207Y-111029587D01*
X158850500Y-110927727D01*
X158850500Y-110822273D01*
X158823207Y-110720413D01*
X158770480Y-110629087D01*
X158695913Y-110554520D01*
X158604587Y-110501793D01*
X158502727Y-110474500D01*
X158397273Y-110474500D01*
X158295413Y-110501793D01*
X158295410Y-110501794D01*
X158204085Y-110554521D01*
X158129521Y-110629085D01*
X158076794Y-110720410D01*
X158076793Y-110720413D01*
X158049500Y-110822273D01*
X156000500Y-110822273D01*
X155981764Y-110752350D01*
X155981444Y-110751038D01*
X155982992Y-110717459D01*
X155983792Y-110683864D01*
X155984595Y-110682676D01*
X155984662Y-110681242D01*
X156004117Y-110653832D01*
X156022954Y-110626001D01*
X156024273Y-110625435D01*
X156025104Y-110624266D01*
X156056280Y-110611729D01*
X156087183Y-110598497D01*
X156088887Y-110598618D01*
X156089929Y-110598200D01*
X156094053Y-110598988D01*
X156133992Y-110601844D01*
X156222273Y-110625499D01*
X156222276Y-110625499D01*
X156327725Y-110625499D01*
X156327727Y-110625499D01*
X156429587Y-110598206D01*
X156520913Y-110545479D01*
X156595480Y-110470912D01*
X156648207Y-110379586D01*
X156675500Y-110277726D01*
X156675500Y-110172272D01*
X156648207Y-110070412D01*
X156634848Y-110047273D01*
X157074500Y-110047273D01*
X157074500Y-110152727D01*
X157101793Y-110254587D01*
X157154520Y-110345913D01*
X157229087Y-110420480D01*
X157320413Y-110473207D01*
X157422273Y-110500500D01*
X157422275Y-110500500D01*
X157527725Y-110500500D01*
X157527727Y-110500500D01*
X157629587Y-110473207D01*
X157720913Y-110420480D01*
X157795480Y-110345913D01*
X157848207Y-110254587D01*
X157875500Y-110152727D01*
X157875500Y-110047273D01*
X157848207Y-109945413D01*
X157795480Y-109854087D01*
X157720913Y-109779520D01*
X157629587Y-109726793D01*
X157527727Y-109699500D01*
X157422273Y-109699500D01*
X157320413Y-109726793D01*
X157320410Y-109726794D01*
X157229085Y-109779521D01*
X157154521Y-109854085D01*
X157101794Y-109945410D01*
X157101793Y-109945413D01*
X157074500Y-110047273D01*
X156634848Y-110047273D01*
X156595480Y-109979086D01*
X156520913Y-109904519D01*
X156429587Y-109851792D01*
X156327727Y-109824499D01*
X156222273Y-109824499D01*
X156120413Y-109851792D01*
X156120410Y-109851793D01*
X156029085Y-109904520D01*
X155954521Y-109979084D01*
X155901794Y-110070409D01*
X155901793Y-110070412D01*
X155874500Y-110172272D01*
X155874500Y-110277727D01*
X155892870Y-110346286D01*
X155891207Y-110416135D01*
X155852044Y-110473998D01*
X155787815Y-110501501D01*
X155741002Y-110498153D01*
X155652727Y-110474500D01*
X155547273Y-110474500D01*
X155445413Y-110501793D01*
X155445410Y-110501794D01*
X155354085Y-110554521D01*
X155279521Y-110629085D01*
X155226794Y-110720410D01*
X155226793Y-110720413D01*
X155199500Y-110822273D01*
X144851179Y-110822273D01*
X144826158Y-110728892D01*
X144776723Y-110643268D01*
X144706810Y-110573355D01*
X144621186Y-110523920D01*
X144525683Y-110498330D01*
X144426813Y-110498330D01*
X144331310Y-110523920D01*
X144331308Y-110523921D01*
X144331307Y-110523921D01*
X144245684Y-110573356D01*
X144175775Y-110643265D01*
X144162955Y-110665470D01*
X144112386Y-110713684D01*
X144043779Y-110726905D01*
X143978915Y-110700936D01*
X143956493Y-110675061D01*
X143955421Y-110675884D01*
X143950475Y-110669438D01*
X143880563Y-110599526D01*
X143880562Y-110599525D01*
X143794938Y-110550090D01*
X143699435Y-110524500D01*
X143600565Y-110524500D01*
X143505062Y-110550090D01*
X143505060Y-110550091D01*
X143505059Y-110550091D01*
X143419436Y-110599526D01*
X143349526Y-110669436D01*
X143300091Y-110755059D01*
X143300091Y-110755060D01*
X143300090Y-110755062D01*
X143274500Y-110850565D01*
X137700500Y-110850565D01*
X137700500Y-109975565D01*
X149924500Y-109975565D01*
X149924500Y-110074435D01*
X149950090Y-110169938D01*
X149950091Y-110169939D01*
X149950091Y-110169940D01*
X149951439Y-110172274D01*
X149999525Y-110255562D01*
X150069438Y-110325475D01*
X150155062Y-110374910D01*
X150250565Y-110400500D01*
X150250567Y-110400500D01*
X150349432Y-110400500D01*
X150349435Y-110400500D01*
X150444938Y-110374910D01*
X150530562Y-110325475D01*
X150600475Y-110255562D01*
X150610834Y-110237618D01*
X150661397Y-110189405D01*
X150730004Y-110176180D01*
X150794869Y-110202147D01*
X150805901Y-110211938D01*
X150819438Y-110225475D01*
X150905062Y-110274910D01*
X151000565Y-110300500D01*
X151000567Y-110300500D01*
X151099432Y-110300500D01*
X151099435Y-110300500D01*
X151194938Y-110274910D01*
X151280562Y-110225475D01*
X151350475Y-110155562D01*
X151399910Y-110069938D01*
X151425500Y-109974435D01*
X151425500Y-109875565D01*
X151399910Y-109780062D01*
X151350475Y-109694438D01*
X151280562Y-109624525D01*
X151194938Y-109575090D01*
X151103410Y-109550565D01*
X152149500Y-109550565D01*
X152149500Y-109649435D01*
X152175090Y-109744938D01*
X152220146Y-109822978D01*
X152224527Y-109830565D01*
X152229474Y-109837012D01*
X152230297Y-109838096D01*
X152230300Y-109838100D01*
X152254776Y-109903542D01*
X152239986Y-109971829D01*
X152230300Y-109986900D01*
X152230297Y-109986904D01*
X152229474Y-109987988D01*
X152224527Y-109994434D01*
X152175091Y-110080059D01*
X152175091Y-110080060D01*
X152175090Y-110080062D01*
X152149500Y-110175565D01*
X152149500Y-110274435D01*
X152175090Y-110369938D01*
X152175091Y-110369939D01*
X152175091Y-110369940D01*
X152180660Y-110379585D01*
X152224525Y-110455562D01*
X152294438Y-110525475D01*
X152380062Y-110574910D01*
X152475565Y-110600500D01*
X152475567Y-110600500D01*
X152574432Y-110600500D01*
X152574435Y-110600500D01*
X152669938Y-110574910D01*
X152755562Y-110525475D01*
X152825475Y-110455562D01*
X152874910Y-110369938D01*
X152886800Y-110325565D01*
X153499500Y-110325565D01*
X153499500Y-110424435D01*
X153525090Y-110519938D01*
X153525091Y-110519939D01*
X153525091Y-110519940D01*
X153527724Y-110524500D01*
X153574525Y-110605562D01*
X153644438Y-110675475D01*
X153730062Y-110724910D01*
X153825565Y-110750500D01*
X153825567Y-110750500D01*
X153924432Y-110750500D01*
X153924435Y-110750500D01*
X154019938Y-110724910D01*
X154105562Y-110675475D01*
X154175475Y-110605562D01*
X154224910Y-110519938D01*
X154250500Y-110424435D01*
X154250500Y-110325565D01*
X154224910Y-110230062D01*
X154222537Y-110225951D01*
X154206066Y-110158050D01*
X154228919Y-110092024D01*
X154242239Y-110076277D01*
X154285263Y-110033254D01*
X154334698Y-109947630D01*
X154360288Y-109852127D01*
X154360288Y-109753257D01*
X154334698Y-109657754D01*
X154285263Y-109572130D01*
X154215350Y-109502217D01*
X154129726Y-109452782D01*
X154034223Y-109427192D01*
X153935353Y-109427192D01*
X153839850Y-109452782D01*
X153839848Y-109452783D01*
X153839847Y-109452783D01*
X153754224Y-109502218D01*
X153684314Y-109572128D01*
X153634879Y-109657751D01*
X153634879Y-109657752D01*
X153634878Y-109657754D01*
X153609288Y-109753257D01*
X153609288Y-109852127D01*
X153623327Y-109904520D01*
X153634878Y-109947630D01*
X153637250Y-109951738D01*
X153653721Y-110019638D01*
X153630869Y-110085665D01*
X153617545Y-110101416D01*
X153574526Y-110144436D01*
X153525091Y-110230059D01*
X153525091Y-110230060D01*
X153525090Y-110230062D01*
X153499500Y-110325565D01*
X152886800Y-110325565D01*
X152900500Y-110274435D01*
X152900500Y-110175565D01*
X152874910Y-110080062D01*
X152825475Y-109994438D01*
X152825473Y-109994436D01*
X152825472Y-109994434D01*
X152820526Y-109987988D01*
X152823368Y-109985806D01*
X152797733Y-109938858D01*
X152802717Y-109869166D01*
X152822438Y-109838479D01*
X152820526Y-109837012D01*
X152825472Y-109830565D01*
X152825475Y-109830562D01*
X152874910Y-109744938D01*
X152900500Y-109649435D01*
X152900500Y-109550565D01*
X152874910Y-109455062D01*
X152855979Y-109422273D01*
X158049500Y-109422273D01*
X158049500Y-109527727D01*
X158076793Y-109629587D01*
X158129520Y-109720913D01*
X158204087Y-109795480D01*
X158295413Y-109848207D01*
X158397273Y-109875500D01*
X158397275Y-109875500D01*
X158502725Y-109875500D01*
X158502727Y-109875500D01*
X158604587Y-109848207D01*
X158695913Y-109795480D01*
X158770480Y-109720913D01*
X158823207Y-109629587D01*
X158850500Y-109527727D01*
X158850500Y-109422273D01*
X158823207Y-109320413D01*
X158770480Y-109229087D01*
X158695913Y-109154520D01*
X158604587Y-109101793D01*
X158502727Y-109074500D01*
X158397273Y-109074500D01*
X158295413Y-109101793D01*
X158295410Y-109101794D01*
X158204085Y-109154521D01*
X158129521Y-109229085D01*
X158076794Y-109320410D01*
X158076793Y-109320413D01*
X158049500Y-109422273D01*
X152855979Y-109422273D01*
X152825475Y-109369438D01*
X152755562Y-109299525D01*
X152669938Y-109250090D01*
X152574435Y-109224500D01*
X152475565Y-109224500D01*
X152380062Y-109250090D01*
X152380060Y-109250091D01*
X152380059Y-109250091D01*
X152294436Y-109299526D01*
X152224526Y-109369436D01*
X152175091Y-109455059D01*
X152175091Y-109455060D01*
X152175090Y-109455062D01*
X152149500Y-109550565D01*
X151103410Y-109550565D01*
X151099435Y-109549500D01*
X151000565Y-109549500D01*
X150905062Y-109575090D01*
X150905060Y-109575091D01*
X150905059Y-109575091D01*
X150819436Y-109624526D01*
X150749527Y-109694435D01*
X150749525Y-109694437D01*
X150749525Y-109694438D01*
X150739163Y-109712384D01*
X150688596Y-109760597D01*
X150619989Y-109773818D01*
X150555125Y-109747849D01*
X150544098Y-109738061D01*
X150530563Y-109724526D01*
X150530562Y-109724525D01*
X150444938Y-109675090D01*
X150349435Y-109649500D01*
X150250565Y-109649500D01*
X150155062Y-109675090D01*
X150155060Y-109675091D01*
X150155059Y-109675091D01*
X150069436Y-109724526D01*
X149999526Y-109794436D01*
X149950091Y-109880059D01*
X149950091Y-109880060D01*
X149950090Y-109880062D01*
X149924500Y-109975565D01*
X137700500Y-109975565D01*
X137700500Y-108625563D01*
X138774500Y-108625563D01*
X138774500Y-108724433D01*
X138800090Y-108819936D01*
X138849525Y-108905560D01*
X138919438Y-108975473D01*
X138988026Y-109015072D01*
X139000779Y-109022435D01*
X139048994Y-109073003D01*
X139062216Y-109141610D01*
X139036248Y-109206474D01*
X139026460Y-109217502D01*
X138974526Y-109269436D01*
X138925091Y-109355059D01*
X138925091Y-109355060D01*
X138925090Y-109355062D01*
X138899500Y-109450565D01*
X138899500Y-109549435D01*
X138925090Y-109644938D01*
X138925091Y-109644939D01*
X138925091Y-109644940D01*
X138927686Y-109649435D01*
X138974525Y-109730562D01*
X139044438Y-109800475D01*
X139130062Y-109849910D01*
X139225565Y-109875500D01*
X139225567Y-109875500D01*
X139324432Y-109875500D01*
X139324435Y-109875500D01*
X139419938Y-109849910D01*
X139505562Y-109800475D01*
X139575475Y-109730562D01*
X139624910Y-109644938D01*
X139650500Y-109549435D01*
X139650500Y-109450565D01*
X139650288Y-109449773D01*
X140643598Y-109449773D01*
X140643598Y-109555227D01*
X140667637Y-109644940D01*
X140670891Y-109657086D01*
X140670892Y-109657089D01*
X140681285Y-109675090D01*
X140723618Y-109748413D01*
X140798185Y-109822980D01*
X140889511Y-109875707D01*
X140991371Y-109903000D01*
X140991373Y-109903000D01*
X141096823Y-109903000D01*
X141096825Y-109903000D01*
X141198685Y-109875707D01*
X141290011Y-109822980D01*
X141364578Y-109748413D01*
X141417305Y-109657087D01*
X141444598Y-109555227D01*
X141444598Y-109457975D01*
X142306649Y-109457975D01*
X142306649Y-109563429D01*
X142333942Y-109665289D01*
X142386669Y-109756615D01*
X142461236Y-109831182D01*
X142552562Y-109883909D01*
X142654422Y-109911202D01*
X142654424Y-109911202D01*
X142759874Y-109911202D01*
X142759876Y-109911202D01*
X142861736Y-109883909D01*
X142953062Y-109831182D01*
X143027629Y-109756615D01*
X143080356Y-109665289D01*
X143107649Y-109563429D01*
X143107649Y-109457975D01*
X143080356Y-109356115D01*
X143027629Y-109264789D01*
X142953062Y-109190222D01*
X142874631Y-109144940D01*
X142861738Y-109137496D01*
X142861737Y-109137495D01*
X142861736Y-109137495D01*
X142759876Y-109110202D01*
X142654422Y-109110202D01*
X142552562Y-109137495D01*
X142552559Y-109137496D01*
X142461234Y-109190223D01*
X142386670Y-109264787D01*
X142333943Y-109356112D01*
X142333942Y-109356115D01*
X142306649Y-109457975D01*
X141444598Y-109457975D01*
X141444598Y-109449773D01*
X141417305Y-109347913D01*
X141364578Y-109256587D01*
X141290011Y-109182020D01*
X141198685Y-109129293D01*
X141096825Y-109102000D01*
X140991371Y-109102000D01*
X140889511Y-109129293D01*
X140889508Y-109129294D01*
X140798183Y-109182021D01*
X140723619Y-109256585D01*
X140670892Y-109347910D01*
X140670891Y-109347913D01*
X140643598Y-109449773D01*
X139650288Y-109449773D01*
X139624910Y-109355062D01*
X139575475Y-109269438D01*
X139505562Y-109199525D01*
X139424220Y-109152561D01*
X139410607Y-109138284D01*
X139393837Y-109127887D01*
X139386989Y-109113514D01*
X139376005Y-109101994D01*
X139372271Y-109082623D01*
X139363785Y-109064810D01*
X139365795Y-109049016D01*
X139362783Y-109033387D01*
X139370115Y-109015072D01*
X139372606Y-108995500D01*
X139385537Y-108976549D01*
X139388751Y-108968522D01*
X139391203Y-108965503D01*
X139394686Y-108961348D01*
X139405469Y-108950565D01*
X145949500Y-108950565D01*
X145949500Y-109049435D01*
X145975090Y-109144938D01*
X145975091Y-109144939D01*
X145975091Y-109144940D01*
X145979491Y-109152561D01*
X146024525Y-109230562D01*
X146094438Y-109300475D01*
X146180062Y-109349910D01*
X146275565Y-109375500D01*
X146275567Y-109375500D01*
X146374432Y-109375500D01*
X146374435Y-109375500D01*
X146469938Y-109349910D01*
X146555562Y-109300475D01*
X146625475Y-109230562D01*
X146674910Y-109144938D01*
X146700500Y-109049435D01*
X146700500Y-108950565D01*
X146674910Y-108855062D01*
X146625475Y-108769438D01*
X146555562Y-108699525D01*
X146469938Y-108650090D01*
X146374435Y-108624500D01*
X146275565Y-108624500D01*
X146180062Y-108650090D01*
X146180060Y-108650091D01*
X146180059Y-108650091D01*
X146094436Y-108699526D01*
X146024526Y-108769436D01*
X145975091Y-108855059D01*
X145975091Y-108855060D01*
X145975090Y-108855062D01*
X145949500Y-108950565D01*
X139405469Y-108950565D01*
X139450475Y-108905560D01*
X139499910Y-108819936D01*
X139525500Y-108724433D01*
X139525500Y-108625563D01*
X139499910Y-108530060D01*
X139450475Y-108444436D01*
X139380562Y-108374523D01*
X139294938Y-108325088D01*
X139199435Y-108299498D01*
X139100565Y-108299498D01*
X139005062Y-108325088D01*
X139005060Y-108325089D01*
X139005059Y-108325089D01*
X138919436Y-108374524D01*
X138849526Y-108444434D01*
X138800091Y-108530057D01*
X138800091Y-108530058D01*
X138800090Y-108530060D01*
X138774500Y-108625563D01*
X137700500Y-108625563D01*
X137700500Y-108213065D01*
X141711999Y-108213065D01*
X141711999Y-108311935D01*
X141737589Y-108407438D01*
X141787024Y-108493062D01*
X141856937Y-108562975D01*
X141942561Y-108612410D01*
X142038064Y-108638000D01*
X142038066Y-108638000D01*
X142136931Y-108638000D01*
X142136934Y-108638000D01*
X142232437Y-108612410D01*
X142318061Y-108562975D01*
X142387974Y-108493062D01*
X142419727Y-108438065D01*
X150462000Y-108438065D01*
X150462000Y-108536935D01*
X150487590Y-108632438D01*
X150537025Y-108718062D01*
X150606938Y-108787975D01*
X150692562Y-108837410D01*
X150788065Y-108863000D01*
X150788067Y-108863000D01*
X150886932Y-108863000D01*
X150886935Y-108863000D01*
X150982438Y-108837410D01*
X151068062Y-108787975D01*
X151137975Y-108718062D01*
X151187410Y-108632438D01*
X151213000Y-108536935D01*
X151213000Y-108438065D01*
X151187410Y-108342562D01*
X151137975Y-108256938D01*
X151068062Y-108187025D01*
X150982440Y-108137591D01*
X150982439Y-108137590D01*
X150981972Y-108137465D01*
X150981028Y-108137212D01*
X150933332Y-108124432D01*
X150886935Y-108112000D01*
X150788065Y-108112000D01*
X150692562Y-108137590D01*
X150692560Y-108137591D01*
X150692559Y-108137591D01*
X150606936Y-108187026D01*
X150537026Y-108256936D01*
X150487591Y-108342559D01*
X150487591Y-108342560D01*
X150487590Y-108342562D01*
X150462000Y-108438065D01*
X142419727Y-108438065D01*
X142437409Y-108407438D01*
X142462999Y-108311935D01*
X142462999Y-108213065D01*
X142437409Y-108117562D01*
X142387974Y-108031938D01*
X142381601Y-108025565D01*
X158649500Y-108025565D01*
X158649500Y-108124435D01*
X158675090Y-108219938D01*
X158675091Y-108219939D01*
X158675091Y-108219940D01*
X158677686Y-108224435D01*
X158724525Y-108305562D01*
X158794438Y-108375475D01*
X158880062Y-108424910D01*
X158975565Y-108450500D01*
X158975567Y-108450500D01*
X159074432Y-108450500D01*
X159074435Y-108450500D01*
X159169938Y-108424910D01*
X159255562Y-108375475D01*
X159325475Y-108305562D01*
X159374910Y-108219938D01*
X159400197Y-108125565D01*
X160424500Y-108125565D01*
X160424500Y-108224435D01*
X160450090Y-108319938D01*
X160499525Y-108405562D01*
X160569438Y-108475475D01*
X160655062Y-108524910D01*
X160750565Y-108550500D01*
X160750567Y-108550500D01*
X160849432Y-108550500D01*
X160849435Y-108550500D01*
X160944938Y-108524910D01*
X161030562Y-108475475D01*
X161100475Y-108405562D01*
X161149910Y-108319938D01*
X161175500Y-108224435D01*
X161175500Y-108125565D01*
X161149910Y-108030062D01*
X161100475Y-107944438D01*
X161030562Y-107874525D01*
X160944938Y-107825090D01*
X160849435Y-107799500D01*
X160750565Y-107799500D01*
X160655062Y-107825090D01*
X160655060Y-107825091D01*
X160655059Y-107825091D01*
X160569436Y-107874526D01*
X160499526Y-107944436D01*
X160450091Y-108030059D01*
X160450091Y-108030060D01*
X160450090Y-108030062D01*
X160424500Y-108125565D01*
X159400197Y-108125565D01*
X159400500Y-108124435D01*
X159400500Y-108025565D01*
X159374910Y-107930062D01*
X159325475Y-107844438D01*
X159255562Y-107774525D01*
X159169938Y-107725090D01*
X159074435Y-107699500D01*
X158975565Y-107699500D01*
X158880062Y-107725090D01*
X158880060Y-107725091D01*
X158880059Y-107725091D01*
X158794436Y-107774526D01*
X158724526Y-107844436D01*
X158675091Y-107930059D01*
X158675091Y-107930060D01*
X158675090Y-107930062D01*
X158649500Y-108025565D01*
X142381601Y-108025565D01*
X142318061Y-107962025D01*
X142232437Y-107912590D01*
X142136934Y-107887000D01*
X142038064Y-107887000D01*
X141942561Y-107912590D01*
X141942559Y-107912591D01*
X141942558Y-107912591D01*
X141856935Y-107962026D01*
X141787025Y-108031936D01*
X141737590Y-108117559D01*
X141737590Y-108117560D01*
X141737589Y-108117562D01*
X141711999Y-108213065D01*
X137700500Y-108213065D01*
X137700500Y-106150565D01*
X141364500Y-106150565D01*
X141364500Y-106249435D01*
X141390090Y-106344938D01*
X141439525Y-106430562D01*
X141509438Y-106500475D01*
X141595062Y-106549910D01*
X141690565Y-106575500D01*
X141690567Y-106575500D01*
X141789432Y-106575500D01*
X141789435Y-106575500D01*
X141884938Y-106549910D01*
X141970562Y-106500475D01*
X142040475Y-106430562D01*
X142089910Y-106344938D01*
X142115500Y-106249435D01*
X142115500Y-106150565D01*
X142089910Y-106055062D01*
X142040475Y-105969438D01*
X141970562Y-105899525D01*
X141903081Y-105860565D01*
X142664500Y-105860565D01*
X142664500Y-105959435D01*
X142690090Y-106054938D01*
X142690091Y-106054939D01*
X142690091Y-106054940D01*
X142702708Y-106076793D01*
X142739525Y-106140562D01*
X142809438Y-106210475D01*
X142895062Y-106259910D01*
X142990565Y-106285500D01*
X142990567Y-106285500D01*
X143089432Y-106285500D01*
X143089435Y-106285500D01*
X143173163Y-106263065D01*
X146537000Y-106263065D01*
X146537000Y-106361935D01*
X146562590Y-106457438D01*
X146612025Y-106543062D01*
X146681938Y-106612975D01*
X146767562Y-106662410D01*
X146863065Y-106688000D01*
X146863067Y-106688000D01*
X146961932Y-106688000D01*
X146961935Y-106688000D01*
X147057438Y-106662410D01*
X147143062Y-106612975D01*
X147212975Y-106543062D01*
X147262410Y-106457438D01*
X147278531Y-106397273D01*
X151574500Y-106397273D01*
X151574500Y-106502727D01*
X151601793Y-106604587D01*
X151654520Y-106695913D01*
X151729087Y-106770480D01*
X151820413Y-106823207D01*
X151922273Y-106850500D01*
X151922275Y-106850500D01*
X151984639Y-106850500D01*
X152051678Y-106870185D01*
X152097433Y-106922989D01*
X152107377Y-106992147D01*
X152078352Y-107055703D01*
X152046641Y-107081884D01*
X152032525Y-107090034D01*
X152029085Y-107092021D01*
X151954521Y-107166585D01*
X151901794Y-107257910D01*
X151901793Y-107257913D01*
X151874500Y-107359773D01*
X151874500Y-107465227D01*
X151901793Y-107567087D01*
X151954520Y-107658413D01*
X152029087Y-107732980D01*
X152120413Y-107785707D01*
X152222273Y-107813000D01*
X152222275Y-107813000D01*
X152327725Y-107813000D01*
X152327727Y-107813000D01*
X152429587Y-107785707D01*
X152520913Y-107732980D01*
X152530677Y-107723215D01*
X152591997Y-107689730D01*
X152661689Y-107694712D01*
X152687382Y-107708940D01*
X152687400Y-107708911D01*
X152689063Y-107709871D01*
X152693848Y-107712521D01*
X152694432Y-107712969D01*
X152694438Y-107712975D01*
X152780062Y-107762410D01*
X152875565Y-107788000D01*
X152875567Y-107788000D01*
X152974432Y-107788000D01*
X152974435Y-107788000D01*
X153069938Y-107762410D01*
X153155562Y-107712975D01*
X153225475Y-107643062D01*
X153274910Y-107557438D01*
X153300500Y-107461935D01*
X153300500Y-107363065D01*
X153274910Y-107267562D01*
X153225475Y-107181938D01*
X153165810Y-107122273D01*
X155524500Y-107122273D01*
X155524500Y-107227727D01*
X155548181Y-107316104D01*
X155551793Y-107329586D01*
X155551794Y-107329589D01*
X155552066Y-107330060D01*
X155604520Y-107420913D01*
X155679087Y-107495480D01*
X155770413Y-107548207D01*
X155872273Y-107575500D01*
X155872275Y-107575500D01*
X155977725Y-107575500D01*
X155977727Y-107575500D01*
X156079587Y-107548207D01*
X156170913Y-107495480D01*
X156240828Y-107425565D01*
X159524500Y-107425565D01*
X159524500Y-107524435D01*
X159550090Y-107619938D01*
X159599525Y-107705562D01*
X159669438Y-107775475D01*
X159755062Y-107824910D01*
X159850565Y-107850500D01*
X159850567Y-107850500D01*
X159949432Y-107850500D01*
X159949435Y-107850500D01*
X160044938Y-107824910D01*
X160130562Y-107775475D01*
X160200475Y-107705562D01*
X160249910Y-107619938D01*
X160275500Y-107524435D01*
X160275500Y-107428898D01*
X160295185Y-107361859D01*
X160347989Y-107316104D01*
X160417147Y-107306160D01*
X160480703Y-107335185D01*
X160497878Y-107353415D01*
X160499524Y-107355560D01*
X160499525Y-107355562D01*
X160569438Y-107425475D01*
X160655062Y-107474910D01*
X160750565Y-107500500D01*
X160750567Y-107500500D01*
X160849432Y-107500500D01*
X160849435Y-107500500D01*
X160944938Y-107474910D01*
X161030562Y-107425475D01*
X161100475Y-107355562D01*
X161149910Y-107269938D01*
X161175500Y-107174435D01*
X161175500Y-107075565D01*
X161149910Y-106980062D01*
X161100475Y-106894438D01*
X161030562Y-106824525D01*
X160944938Y-106775090D01*
X160849435Y-106749500D01*
X160750565Y-106749500D01*
X160655062Y-106775090D01*
X160655060Y-106775091D01*
X160655059Y-106775091D01*
X160569436Y-106824526D01*
X160499526Y-106894436D01*
X160450091Y-106980059D01*
X160450091Y-106980060D01*
X160450090Y-106980062D01*
X160424500Y-107075565D01*
X160424500Y-107075567D01*
X160424500Y-107171101D01*
X160404815Y-107238140D01*
X160352011Y-107283895D01*
X160282853Y-107293839D01*
X160219297Y-107264814D01*
X160202126Y-107246590D01*
X160200473Y-107244436D01*
X160130563Y-107174526D01*
X160130562Y-107174525D01*
X160044938Y-107125090D01*
X159949435Y-107099500D01*
X159850565Y-107099500D01*
X159755062Y-107125090D01*
X159755060Y-107125091D01*
X159755059Y-107125091D01*
X159669436Y-107174526D01*
X159599526Y-107244436D01*
X159550091Y-107330059D01*
X159550091Y-107330060D01*
X159550090Y-107330062D01*
X159524500Y-107425565D01*
X156240828Y-107425565D01*
X156245480Y-107420913D01*
X156298207Y-107329587D01*
X156325500Y-107227727D01*
X156325500Y-107122273D01*
X156298207Y-107020413D01*
X156245480Y-106929087D01*
X156170913Y-106854520D01*
X156079587Y-106801793D01*
X155977727Y-106774500D01*
X155872273Y-106774500D01*
X155770413Y-106801793D01*
X155770410Y-106801794D01*
X155679085Y-106854521D01*
X155604521Y-106929085D01*
X155551794Y-107020410D01*
X155551793Y-107020413D01*
X155524500Y-107122273D01*
X153165810Y-107122273D01*
X153155562Y-107112025D01*
X153069938Y-107062590D01*
X152974435Y-107037000D01*
X152875565Y-107037000D01*
X152780062Y-107062590D01*
X152780060Y-107062591D01*
X152780059Y-107062591D01*
X152694437Y-107112025D01*
X152693839Y-107112485D01*
X152693243Y-107112715D01*
X152687400Y-107116089D01*
X152686873Y-107115177D01*
X152628668Y-107137675D01*
X152560224Y-107123632D01*
X152530678Y-107101785D01*
X152520914Y-107092021D01*
X152520913Y-107092020D01*
X152429587Y-107039293D01*
X152327727Y-107012000D01*
X152265361Y-107012000D01*
X152198322Y-106992315D01*
X152152567Y-106939511D01*
X152142623Y-106870353D01*
X152171648Y-106806797D01*
X152203358Y-106780615D01*
X152220913Y-106770480D01*
X152295480Y-106695913D01*
X152348207Y-106604587D01*
X152375500Y-106502727D01*
X152375500Y-106397273D01*
X152348207Y-106295413D01*
X152295480Y-106204087D01*
X152220913Y-106129520D01*
X152154059Y-106090922D01*
X152129589Y-106076794D01*
X152129588Y-106076793D01*
X152129587Y-106076793D01*
X152027727Y-106049500D01*
X151922273Y-106049500D01*
X151820413Y-106076793D01*
X151820410Y-106076794D01*
X151729085Y-106129521D01*
X151654521Y-106204085D01*
X151601794Y-106295410D01*
X151601793Y-106295413D01*
X151574500Y-106397273D01*
X147278531Y-106397273D01*
X147288000Y-106361935D01*
X147288000Y-106263065D01*
X147262410Y-106167562D01*
X147212975Y-106081938D01*
X147143062Y-106012025D01*
X147057440Y-105962591D01*
X147057439Y-105962590D01*
X147053065Y-105961418D01*
X147043742Y-105958920D01*
X147013044Y-105950694D01*
X146961935Y-105937000D01*
X146863065Y-105937000D01*
X146767562Y-105962590D01*
X146767560Y-105962591D01*
X146767559Y-105962591D01*
X146681936Y-106012026D01*
X146612026Y-106081936D01*
X146562591Y-106167559D01*
X146562591Y-106167560D01*
X146562590Y-106167562D01*
X146537000Y-106263065D01*
X143173163Y-106263065D01*
X143184938Y-106259910D01*
X143270562Y-106210475D01*
X143340475Y-106140562D01*
X143389910Y-106054938D01*
X143415500Y-105959435D01*
X143415500Y-105860565D01*
X143411938Y-105847273D01*
X153424500Y-105847273D01*
X153424500Y-105952727D01*
X153451793Y-106054585D01*
X153451793Y-106054586D01*
X153451794Y-106054589D01*
X153452066Y-106055060D01*
X153504520Y-106145913D01*
X153579087Y-106220480D01*
X153670413Y-106273207D01*
X153772273Y-106300500D01*
X153772275Y-106300500D01*
X153877725Y-106300500D01*
X153877727Y-106300500D01*
X153979587Y-106273207D01*
X154070913Y-106220480D01*
X154145480Y-106145913D01*
X154171662Y-106100565D01*
X159224500Y-106100565D01*
X159224500Y-106199435D01*
X159250090Y-106294938D01*
X159250091Y-106294939D01*
X159250091Y-106294940D01*
X159250364Y-106295413D01*
X159299525Y-106380562D01*
X159369438Y-106450475D01*
X159455062Y-106499910D01*
X159550565Y-106525500D01*
X159550567Y-106525500D01*
X159649432Y-106525500D01*
X159649435Y-106525500D01*
X159744938Y-106499910D01*
X159830562Y-106450475D01*
X159900475Y-106380562D01*
X159949910Y-106294938D01*
X159975500Y-106199435D01*
X159975500Y-106100565D01*
X159949910Y-106005062D01*
X159900475Y-105919438D01*
X159830562Y-105849525D01*
X159744938Y-105800090D01*
X159649435Y-105774500D01*
X159550565Y-105774500D01*
X159455062Y-105800090D01*
X159455060Y-105800091D01*
X159455059Y-105800091D01*
X159369436Y-105849526D01*
X159299526Y-105919436D01*
X159250091Y-106005059D01*
X159250091Y-106005060D01*
X159250090Y-106005062D01*
X159224500Y-106100565D01*
X154171662Y-106100565D01*
X154198207Y-106054587D01*
X154225500Y-105952727D01*
X154225500Y-105847273D01*
X154198207Y-105745413D01*
X154145480Y-105654087D01*
X154070913Y-105579520D01*
X153979587Y-105526793D01*
X153877727Y-105499500D01*
X153772273Y-105499500D01*
X153670413Y-105526793D01*
X153670410Y-105526794D01*
X153579085Y-105579521D01*
X153504521Y-105654085D01*
X153451794Y-105745410D01*
X153451793Y-105745413D01*
X153424500Y-105847273D01*
X143411938Y-105847273D01*
X143389910Y-105765062D01*
X143340475Y-105679438D01*
X143270562Y-105609525D01*
X143184938Y-105560090D01*
X143089435Y-105534500D01*
X142990565Y-105534500D01*
X142895062Y-105560090D01*
X142895060Y-105560091D01*
X142895059Y-105560091D01*
X142809436Y-105609526D01*
X142739526Y-105679436D01*
X142690091Y-105765059D01*
X142690091Y-105765060D01*
X142690090Y-105765062D01*
X142664500Y-105860565D01*
X141903081Y-105860565D01*
X141884938Y-105850090D01*
X141789435Y-105824500D01*
X141690565Y-105824500D01*
X141595062Y-105850090D01*
X141595060Y-105850091D01*
X141595059Y-105850091D01*
X141509436Y-105899526D01*
X141439526Y-105969436D01*
X141390091Y-106055059D01*
X141390091Y-106055060D01*
X141390090Y-106055062D01*
X141364500Y-106150565D01*
X137700500Y-106150565D01*
X137700500Y-105275565D01*
X144099500Y-105275565D01*
X144099500Y-105374435D01*
X144125090Y-105469938D01*
X144174525Y-105555562D01*
X144244438Y-105625475D01*
X144330062Y-105674910D01*
X144425565Y-105700500D01*
X144425567Y-105700500D01*
X144524432Y-105700500D01*
X144524435Y-105700500D01*
X144619938Y-105674910D01*
X144705562Y-105625475D01*
X144712319Y-105618718D01*
X144773642Y-105585233D01*
X144843334Y-105590217D01*
X144887681Y-105618718D01*
X144894438Y-105625475D01*
X144980062Y-105674910D01*
X145075565Y-105700500D01*
X145075567Y-105700500D01*
X145174432Y-105700500D01*
X145174435Y-105700500D01*
X145269938Y-105674910D01*
X145355562Y-105625475D01*
X145425475Y-105555562D01*
X145474910Y-105469938D01*
X145500500Y-105374435D01*
X145500500Y-105275565D01*
X145474910Y-105180062D01*
X145425475Y-105094438D01*
X145355562Y-105024525D01*
X145269938Y-104975090D01*
X145174435Y-104949500D01*
X145075565Y-104949500D01*
X144980062Y-104975090D01*
X144980060Y-104975091D01*
X144980059Y-104975091D01*
X144894436Y-105024526D01*
X144887681Y-105031282D01*
X144826358Y-105064767D01*
X144756666Y-105059783D01*
X144712319Y-105031282D01*
X144705563Y-105024526D01*
X144705562Y-105024525D01*
X144619938Y-104975090D01*
X144524435Y-104949500D01*
X144425565Y-104949500D01*
X144330062Y-104975090D01*
X144330060Y-104975091D01*
X144330059Y-104975091D01*
X144244436Y-105024526D01*
X144174526Y-105094436D01*
X144125091Y-105180059D01*
X144125091Y-105180060D01*
X144125090Y-105180062D01*
X144099500Y-105275565D01*
X137700500Y-105275565D01*
X137700500Y-104750565D01*
X141024500Y-104750565D01*
X141024500Y-104849435D01*
X141050090Y-104944938D01*
X141099525Y-105030562D01*
X141169438Y-105100475D01*
X141255062Y-105149910D01*
X141350565Y-105175500D01*
X141350567Y-105175500D01*
X141449432Y-105175500D01*
X141449435Y-105175500D01*
X141544938Y-105149910D01*
X141630562Y-105100475D01*
X141700475Y-105030562D01*
X141749910Y-104944938D01*
X141775500Y-104849435D01*
X141775500Y-104750565D01*
X141749910Y-104655062D01*
X141700475Y-104569438D01*
X141630562Y-104499525D01*
X141544938Y-104450090D01*
X141449435Y-104424500D01*
X141350565Y-104424500D01*
X141255062Y-104450090D01*
X141255060Y-104450091D01*
X141255059Y-104450091D01*
X141169436Y-104499526D01*
X141099526Y-104569436D01*
X141050091Y-104655059D01*
X141050091Y-104655060D01*
X141050090Y-104655062D01*
X141024500Y-104750565D01*
X137700500Y-104750565D01*
X137700500Y-104225565D01*
X139549500Y-104225565D01*
X139549500Y-104324435D01*
X139575090Y-104419938D01*
X139624525Y-104505562D01*
X139694438Y-104575475D01*
X139780062Y-104624910D01*
X139875565Y-104650500D01*
X139875567Y-104650500D01*
X139974432Y-104650500D01*
X139974435Y-104650500D01*
X140069938Y-104624910D01*
X140155562Y-104575475D01*
X140225475Y-104505562D01*
X140274910Y-104419938D01*
X140300500Y-104324435D01*
X140300500Y-104225565D01*
X140300233Y-104224570D01*
X140300225Y-104224538D01*
X140300223Y-104224532D01*
X140293801Y-104200565D01*
X143024500Y-104200565D01*
X143024500Y-104299435D01*
X143050090Y-104394938D01*
X143099525Y-104480562D01*
X143169438Y-104550475D01*
X143255062Y-104599910D01*
X143350565Y-104625500D01*
X143350567Y-104625500D01*
X143449432Y-104625500D01*
X143449435Y-104625500D01*
X143544938Y-104599910D01*
X143630562Y-104550475D01*
X143700475Y-104480562D01*
X143749910Y-104394938D01*
X143775500Y-104299435D01*
X143775500Y-104224570D01*
X146374500Y-104224570D01*
X146374500Y-104330024D01*
X146401793Y-104431884D01*
X146454520Y-104523210D01*
X146529087Y-104597777D01*
X146620413Y-104650504D01*
X146722273Y-104677797D01*
X146722275Y-104677797D01*
X146827725Y-104677797D01*
X146827727Y-104677797D01*
X146929587Y-104650504D01*
X147020913Y-104597777D01*
X147046417Y-104572273D01*
X152424500Y-104572273D01*
X152424500Y-104677727D01*
X152451793Y-104779587D01*
X152504520Y-104870913D01*
X152579087Y-104945480D01*
X152670413Y-104998207D01*
X152772273Y-105025500D01*
X152772275Y-105025500D01*
X152877725Y-105025500D01*
X152877727Y-105025500D01*
X152979587Y-104998207D01*
X153070913Y-104945480D01*
X153145480Y-104870913D01*
X153187996Y-104797273D01*
X155824500Y-104797273D01*
X155824500Y-104902727D01*
X155851793Y-105004587D01*
X155904520Y-105095913D01*
X155979087Y-105170480D01*
X156070413Y-105223207D01*
X156172273Y-105250500D01*
X156172275Y-105250500D01*
X156277725Y-105250500D01*
X156277727Y-105250500D01*
X156379587Y-105223207D01*
X156470913Y-105170480D01*
X156545480Y-105095913D01*
X156598207Y-105004587D01*
X156625500Y-104902727D01*
X156625500Y-104797273D01*
X156598207Y-104695413D01*
X156545480Y-104604087D01*
X156516958Y-104575565D01*
X158799500Y-104575565D01*
X158799500Y-104674435D01*
X158825090Y-104769938D01*
X158874525Y-104855562D01*
X158944438Y-104925475D01*
X159030062Y-104974910D01*
X159125565Y-105000500D01*
X159125567Y-105000500D01*
X159224432Y-105000500D01*
X159224435Y-105000500D01*
X159319938Y-104974910D01*
X159405562Y-104925475D01*
X159475475Y-104855562D01*
X159524910Y-104769938D01*
X159550500Y-104674435D01*
X159550500Y-104575565D01*
X159524910Y-104480062D01*
X159475475Y-104394438D01*
X159405562Y-104324525D01*
X159319938Y-104275090D01*
X159224435Y-104249500D01*
X159125565Y-104249500D01*
X159030062Y-104275090D01*
X159030060Y-104275091D01*
X159030059Y-104275091D01*
X158944436Y-104324526D01*
X158874526Y-104394436D01*
X158825091Y-104480059D01*
X158825091Y-104480060D01*
X158825090Y-104480062D01*
X158799500Y-104575565D01*
X156516958Y-104575565D01*
X156470913Y-104529520D01*
X156379587Y-104476793D01*
X156277727Y-104449500D01*
X156172273Y-104449500D01*
X156070413Y-104476793D01*
X156070410Y-104476794D01*
X155979085Y-104529521D01*
X155904521Y-104604085D01*
X155851794Y-104695410D01*
X155851793Y-104695413D01*
X155824500Y-104797273D01*
X153187996Y-104797273D01*
X153198207Y-104779587D01*
X153200792Y-104769938D01*
X153204246Y-104757051D01*
X153210792Y-104732616D01*
X153225500Y-104677727D01*
X153225500Y-104572273D01*
X153198207Y-104470413D01*
X153145480Y-104379087D01*
X153070913Y-104304520D01*
X152979587Y-104251793D01*
X152877727Y-104224500D01*
X152772273Y-104224500D01*
X152670413Y-104251793D01*
X152670410Y-104251794D01*
X152579085Y-104304521D01*
X152504521Y-104379085D01*
X152451794Y-104470410D01*
X152451793Y-104470413D01*
X152424500Y-104572273D01*
X147046417Y-104572273D01*
X147095480Y-104523210D01*
X147148207Y-104431884D01*
X147175500Y-104330024D01*
X147175500Y-104224570D01*
X147148207Y-104122710D01*
X147095480Y-104031384D01*
X147020913Y-103956817D01*
X146929587Y-103904090D01*
X146827727Y-103876797D01*
X146722273Y-103876797D01*
X146620413Y-103904090D01*
X146620410Y-103904091D01*
X146529085Y-103956818D01*
X146454521Y-104031382D01*
X146401794Y-104122707D01*
X146401793Y-104122710D01*
X146374500Y-104224570D01*
X143775500Y-104224570D01*
X143775500Y-104200565D01*
X143749910Y-104105062D01*
X143700475Y-104019438D01*
X143630562Y-103949525D01*
X143544938Y-103900090D01*
X143449435Y-103874500D01*
X143350565Y-103874500D01*
X143255062Y-103900090D01*
X143255060Y-103900091D01*
X143255059Y-103900091D01*
X143169436Y-103949526D01*
X143099526Y-104019436D01*
X143050091Y-104105059D01*
X143050091Y-104105060D01*
X143050090Y-104105062D01*
X143024500Y-104200565D01*
X140293801Y-104200565D01*
X140274910Y-104130062D01*
X140225475Y-104044438D01*
X140155562Y-103974525D01*
X140069938Y-103925090D01*
X139974435Y-103899500D01*
X139875565Y-103899500D01*
X139780062Y-103925090D01*
X139780060Y-103925091D01*
X139780059Y-103925091D01*
X139694436Y-103974526D01*
X139624526Y-104044436D01*
X139575091Y-104130059D01*
X139575091Y-104130060D01*
X139575090Y-104130062D01*
X139549500Y-104225565D01*
X137700500Y-104225565D01*
X137700500Y-103450565D01*
X147399500Y-103450565D01*
X147399500Y-103549435D01*
X147425090Y-103644938D01*
X147474525Y-103730562D01*
X147544438Y-103800475D01*
X147630062Y-103849910D01*
X147725565Y-103875500D01*
X147725567Y-103875500D01*
X147824432Y-103875500D01*
X147824435Y-103875500D01*
X147919938Y-103849910D01*
X148005562Y-103800475D01*
X148075475Y-103730562D01*
X148124910Y-103644938D01*
X148150500Y-103549435D01*
X148150500Y-103450565D01*
X148124910Y-103355062D01*
X148079012Y-103275565D01*
X150174500Y-103275565D01*
X150174500Y-103374435D01*
X150200090Y-103469938D01*
X150249525Y-103555562D01*
X150319438Y-103625475D01*
X150405062Y-103674910D01*
X150500565Y-103700500D01*
X150500567Y-103700500D01*
X150599432Y-103700500D01*
X150599435Y-103700500D01*
X150694938Y-103674910D01*
X150780562Y-103625475D01*
X150850475Y-103555562D01*
X150899910Y-103469938D01*
X150925500Y-103374435D01*
X150925500Y-103275565D01*
X150899910Y-103180062D01*
X150850475Y-103094438D01*
X150780562Y-103024525D01*
X150694938Y-102975090D01*
X150599435Y-102949500D01*
X150500565Y-102949500D01*
X150405062Y-102975090D01*
X150405060Y-102975091D01*
X150405059Y-102975091D01*
X150319436Y-103024526D01*
X150249526Y-103094436D01*
X150200091Y-103180059D01*
X150200091Y-103180060D01*
X150200090Y-103180062D01*
X150174500Y-103275565D01*
X148079012Y-103275565D01*
X148075475Y-103269438D01*
X148005562Y-103199525D01*
X147919938Y-103150090D01*
X147824435Y-103124500D01*
X147725565Y-103124500D01*
X147630062Y-103150090D01*
X147630060Y-103150091D01*
X147630059Y-103150091D01*
X147544436Y-103199526D01*
X147474526Y-103269436D01*
X147425091Y-103355059D01*
X147425091Y-103355060D01*
X147425090Y-103355062D01*
X147399500Y-103450565D01*
X137700500Y-103450565D01*
X137700500Y-102975565D01*
X140624500Y-102975565D01*
X140624500Y-103074435D01*
X140650090Y-103169938D01*
X140699525Y-103255562D01*
X140769438Y-103325475D01*
X140855062Y-103374910D01*
X140950565Y-103400500D01*
X140950567Y-103400500D01*
X141049432Y-103400500D01*
X141049435Y-103400500D01*
X141144938Y-103374910D01*
X141230562Y-103325475D01*
X141300475Y-103255562D01*
X141349910Y-103169938D01*
X141375500Y-103074435D01*
X141375500Y-102975565D01*
X141349910Y-102880062D01*
X141300475Y-102794438D01*
X141230562Y-102724525D01*
X141144938Y-102675090D01*
X141049435Y-102649500D01*
X140950565Y-102649500D01*
X140855062Y-102675090D01*
X140855060Y-102675091D01*
X140855059Y-102675091D01*
X140769436Y-102724526D01*
X140699526Y-102794436D01*
X140650091Y-102880059D01*
X140650091Y-102880060D01*
X140650090Y-102880062D01*
X140624500Y-102975565D01*
X137700500Y-102975565D01*
X137700500Y-102075565D01*
X146374500Y-102075565D01*
X146374500Y-102174435D01*
X146400090Y-102269938D01*
X146449525Y-102355562D01*
X146519438Y-102425475D01*
X146605062Y-102474910D01*
X146700565Y-102500500D01*
X146700567Y-102500500D01*
X146799432Y-102500500D01*
X146799435Y-102500500D01*
X146894938Y-102474910D01*
X146980562Y-102425475D01*
X147050475Y-102355562D01*
X147099910Y-102269938D01*
X147125500Y-102174435D01*
X147125500Y-102075565D01*
X147112103Y-102025565D01*
X148799500Y-102025565D01*
X148799500Y-102124435D01*
X148825090Y-102219938D01*
X148874525Y-102305562D01*
X148944438Y-102375475D01*
X149030062Y-102424910D01*
X149125565Y-102450500D01*
X149125567Y-102450500D01*
X149224432Y-102450500D01*
X149224435Y-102450500D01*
X149319938Y-102424910D01*
X149405562Y-102375475D01*
X149475475Y-102305562D01*
X149524910Y-102219938D01*
X149550500Y-102124435D01*
X149550500Y-102025565D01*
X149524910Y-101930062D01*
X149475475Y-101844438D01*
X149405562Y-101774525D01*
X149319938Y-101725090D01*
X149224435Y-101699500D01*
X149125565Y-101699500D01*
X149030062Y-101725090D01*
X149030060Y-101725091D01*
X149030059Y-101725091D01*
X148944436Y-101774526D01*
X148874526Y-101844436D01*
X148825091Y-101930059D01*
X148825091Y-101930060D01*
X148825090Y-101930062D01*
X148799500Y-102025565D01*
X147112103Y-102025565D01*
X147099910Y-101980062D01*
X147050475Y-101894438D01*
X146980562Y-101824525D01*
X146894938Y-101775090D01*
X146799435Y-101749500D01*
X146700565Y-101749500D01*
X146605062Y-101775090D01*
X146605060Y-101775091D01*
X146605059Y-101775091D01*
X146519436Y-101824526D01*
X146449526Y-101894436D01*
X146400091Y-101980059D01*
X146400091Y-101980060D01*
X146400090Y-101980062D01*
X146374500Y-102075565D01*
X137700500Y-102075565D01*
X137700500Y-100100565D01*
X140449500Y-100100565D01*
X140449500Y-100199435D01*
X140475090Y-100294938D01*
X140524525Y-100380562D01*
X140594438Y-100450475D01*
X140680062Y-100499910D01*
X140775565Y-100525500D01*
X140775567Y-100525500D01*
X140874432Y-100525500D01*
X140874435Y-100525500D01*
X140969938Y-100499910D01*
X141055562Y-100450475D01*
X141125475Y-100380562D01*
X141142794Y-100350565D01*
X141524500Y-100350565D01*
X141524500Y-100449435D01*
X141550090Y-100544938D01*
X141599525Y-100630562D01*
X141669438Y-100700475D01*
X141755062Y-100749910D01*
X141786067Y-100758217D01*
X141845726Y-100794582D01*
X141876255Y-100857429D01*
X141873747Y-100910085D01*
X141861561Y-100955563D01*
X141849503Y-101000565D01*
X141849503Y-101099435D01*
X141875093Y-101194938D01*
X141875094Y-101194939D01*
X141875094Y-101194940D01*
X141875367Y-101195413D01*
X141924528Y-101280562D01*
X141994441Y-101350475D01*
X142080065Y-101399910D01*
X142175568Y-101425500D01*
X142175570Y-101425500D01*
X142274435Y-101425500D01*
X142274438Y-101425500D01*
X142369941Y-101399910D01*
X142455409Y-101350565D01*
X145274500Y-101350565D01*
X145274500Y-101449435D01*
X145300090Y-101544938D01*
X145349525Y-101630562D01*
X145419438Y-101700475D01*
X145505062Y-101749910D01*
X145600565Y-101775500D01*
X145600567Y-101775500D01*
X145699432Y-101775500D01*
X145699435Y-101775500D01*
X145794938Y-101749910D01*
X145880562Y-101700475D01*
X145950475Y-101630562D01*
X145999910Y-101544938D01*
X146025500Y-101449435D01*
X146025500Y-101350565D01*
X145999910Y-101255062D01*
X145990097Y-101238065D01*
X147212000Y-101238065D01*
X147212000Y-101336935D01*
X147237590Y-101432438D01*
X147287025Y-101518062D01*
X147356938Y-101587975D01*
X147442562Y-101637410D01*
X147538065Y-101663000D01*
X147538067Y-101663000D01*
X147636932Y-101663000D01*
X147636935Y-101663000D01*
X147732438Y-101637410D01*
X147818062Y-101587975D01*
X147887975Y-101518062D01*
X147937410Y-101432438D01*
X147963000Y-101336935D01*
X147963000Y-101297273D01*
X157649500Y-101297273D01*
X157649500Y-101402727D01*
X157676793Y-101504587D01*
X157729520Y-101595913D01*
X157804087Y-101670480D01*
X157895413Y-101723207D01*
X157997273Y-101750500D01*
X157997275Y-101750500D01*
X158102725Y-101750500D01*
X158102727Y-101750500D01*
X158204587Y-101723207D01*
X158295913Y-101670480D01*
X158370480Y-101595913D01*
X158423207Y-101504587D01*
X158450500Y-101402727D01*
X158450500Y-101297273D01*
X158423207Y-101195413D01*
X158370480Y-101104087D01*
X158295913Y-101029520D01*
X158204587Y-100976793D01*
X158102727Y-100949500D01*
X157997273Y-100949500D01*
X157895413Y-100976793D01*
X157895410Y-100976794D01*
X157804085Y-101029521D01*
X157729521Y-101104085D01*
X157676794Y-101195410D01*
X157676793Y-101195413D01*
X157649500Y-101297273D01*
X147963000Y-101297273D01*
X147963000Y-101238065D01*
X147937410Y-101142562D01*
X147887975Y-101056938D01*
X147818062Y-100987025D01*
X147732438Y-100937590D01*
X147636935Y-100912000D01*
X147538065Y-100912000D01*
X147442562Y-100937590D01*
X147442560Y-100937591D01*
X147442559Y-100937591D01*
X147356936Y-100987026D01*
X147287026Y-101056936D01*
X147237591Y-101142559D01*
X147237591Y-101142560D01*
X147237590Y-101142562D01*
X147212000Y-101238065D01*
X145990097Y-101238065D01*
X145950475Y-101169438D01*
X145880562Y-101099525D01*
X145794938Y-101050090D01*
X145699435Y-101024500D01*
X145600565Y-101024500D01*
X145505062Y-101050090D01*
X145505060Y-101050091D01*
X145505059Y-101050091D01*
X145419436Y-101099526D01*
X145349526Y-101169436D01*
X145300091Y-101255059D01*
X145300091Y-101255060D01*
X145300090Y-101255062D01*
X145274500Y-101350565D01*
X142455409Y-101350565D01*
X142455565Y-101350475D01*
X142525478Y-101280562D01*
X142574913Y-101194938D01*
X142600503Y-101099435D01*
X142600503Y-101000565D01*
X142574913Y-100905062D01*
X142525478Y-100819438D01*
X142455565Y-100749525D01*
X142370608Y-100700475D01*
X142369943Y-100700091D01*
X142369938Y-100700089D01*
X142338934Y-100691781D01*
X142279274Y-100655415D01*
X142248746Y-100592567D01*
X142251254Y-100539919D01*
X142275500Y-100449435D01*
X142275500Y-100350565D01*
X151524500Y-100350565D01*
X151524500Y-100449435D01*
X151550090Y-100544938D01*
X151599525Y-100630562D01*
X151669438Y-100700475D01*
X151755062Y-100749910D01*
X151850565Y-100775500D01*
X151850567Y-100775500D01*
X151949432Y-100775500D01*
X151949435Y-100775500D01*
X152044938Y-100749910D01*
X152130562Y-100700475D01*
X152200475Y-100630562D01*
X152249910Y-100544938D01*
X152255101Y-100525565D01*
X152639500Y-100525565D01*
X152639500Y-100624435D01*
X152665090Y-100719938D01*
X152714525Y-100805562D01*
X152784438Y-100875475D01*
X152870062Y-100924910D01*
X152965565Y-100950500D01*
X152965567Y-100950500D01*
X153064432Y-100950500D01*
X153064435Y-100950500D01*
X153159938Y-100924910D01*
X153159939Y-100924908D01*
X153167788Y-100922806D01*
X153168361Y-100924945D01*
X153226327Y-100918701D01*
X153288813Y-100949962D01*
X153292017Y-100953054D01*
X153294525Y-100955562D01*
X153364438Y-101025475D01*
X153450062Y-101074910D01*
X153545565Y-101100500D01*
X153545567Y-101100500D01*
X153644432Y-101100500D01*
X153644435Y-101100500D01*
X153739938Y-101074910D01*
X153825562Y-101025475D01*
X153895475Y-100955562D01*
X153927228Y-100900565D01*
X158674500Y-100900565D01*
X158674500Y-100999435D01*
X158700090Y-101094938D01*
X158700091Y-101094939D01*
X158700091Y-101094940D01*
X158702686Y-101099435D01*
X158743101Y-101169436D01*
X158749526Y-101180563D01*
X158756282Y-101187319D01*
X158789767Y-101248642D01*
X158784783Y-101318334D01*
X158756282Y-101362681D01*
X158749526Y-101369436D01*
X158700091Y-101455059D01*
X158700091Y-101455060D01*
X158700090Y-101455062D01*
X158674500Y-101550565D01*
X158674500Y-101649435D01*
X158700090Y-101744938D01*
X158700091Y-101744939D01*
X158700091Y-101744940D01*
X158703301Y-101750499D01*
X158749525Y-101830562D01*
X158819438Y-101900475D01*
X158905062Y-101949910D01*
X159000565Y-101975500D01*
X159000567Y-101975500D01*
X159099432Y-101975500D01*
X159099435Y-101975500D01*
X159194938Y-101949910D01*
X159280562Y-101900475D01*
X159350475Y-101830562D01*
X159399910Y-101744938D01*
X159425500Y-101649435D01*
X159425500Y-101550565D01*
X159399910Y-101455062D01*
X159350475Y-101369438D01*
X159343718Y-101362681D01*
X159310233Y-101301358D01*
X159315217Y-101231666D01*
X159343718Y-101187319D01*
X159350475Y-101180562D01*
X159399910Y-101094938D01*
X159425500Y-100999435D01*
X159425500Y-100900565D01*
X159399910Y-100805062D01*
X159350475Y-100719438D01*
X159280562Y-100649525D01*
X159194938Y-100600090D01*
X159099435Y-100574500D01*
X159000565Y-100574500D01*
X158905062Y-100600090D01*
X158905060Y-100600091D01*
X158905059Y-100600091D01*
X158819436Y-100649526D01*
X158749526Y-100719436D01*
X158700091Y-100805059D01*
X158700091Y-100805060D01*
X158700090Y-100805062D01*
X158674500Y-100900565D01*
X153927228Y-100900565D01*
X153944910Y-100869938D01*
X153970500Y-100774435D01*
X153970500Y-100675565D01*
X153944910Y-100580062D01*
X153895475Y-100494438D01*
X153825562Y-100424525D01*
X153739938Y-100375090D01*
X153644435Y-100349500D01*
X153545565Y-100349500D01*
X153450062Y-100375090D01*
X153450060Y-100375091D01*
X153442212Y-100377194D01*
X153441640Y-100375060D01*
X153383639Y-100381292D01*
X153321162Y-100350014D01*
X153317982Y-100346945D01*
X153245563Y-100274526D01*
X153245562Y-100274525D01*
X153159938Y-100225090D01*
X153064435Y-100199500D01*
X152965565Y-100199500D01*
X152870062Y-100225090D01*
X152870060Y-100225091D01*
X152870059Y-100225091D01*
X152784436Y-100274526D01*
X152714526Y-100344436D01*
X152665091Y-100430059D01*
X152665091Y-100430060D01*
X152665090Y-100430062D01*
X152639500Y-100525565D01*
X152255101Y-100525565D01*
X152275500Y-100449435D01*
X152275500Y-100350565D01*
X152249910Y-100255062D01*
X152200475Y-100169438D01*
X152130562Y-100099525D01*
X152044938Y-100050090D01*
X151949435Y-100024500D01*
X151850565Y-100024500D01*
X151755062Y-100050090D01*
X151755060Y-100050091D01*
X151755059Y-100050091D01*
X151669436Y-100099526D01*
X151599526Y-100169436D01*
X151550091Y-100255059D01*
X151550091Y-100255060D01*
X151550090Y-100255062D01*
X151524500Y-100350565D01*
X142275500Y-100350565D01*
X142249910Y-100255062D01*
X142200475Y-100169438D01*
X142130562Y-100099525D01*
X142044938Y-100050090D01*
X141949435Y-100024500D01*
X141850565Y-100024500D01*
X141755062Y-100050090D01*
X141755060Y-100050091D01*
X141755059Y-100050091D01*
X141669436Y-100099526D01*
X141599526Y-100169436D01*
X141550091Y-100255059D01*
X141550091Y-100255060D01*
X141550090Y-100255062D01*
X141524500Y-100350565D01*
X141142794Y-100350565D01*
X141174910Y-100294938D01*
X141200500Y-100199435D01*
X141200500Y-100100565D01*
X141174910Y-100005062D01*
X141125475Y-99919438D01*
X141055562Y-99849525D01*
X140969938Y-99800090D01*
X140874435Y-99774500D01*
X140775565Y-99774500D01*
X140680062Y-99800090D01*
X140680060Y-99800091D01*
X140680059Y-99800091D01*
X140594436Y-99849526D01*
X140524526Y-99919436D01*
X140475091Y-100005059D01*
X140475091Y-100005060D01*
X140475090Y-100005062D01*
X140449500Y-100100565D01*
X137700500Y-100100565D01*
X137700500Y-98950565D01*
X141624500Y-98950565D01*
X141624500Y-99049435D01*
X141650090Y-99144938D01*
X141699525Y-99230562D01*
X141769438Y-99300475D01*
X141855062Y-99349910D01*
X141950565Y-99375500D01*
X141950567Y-99375500D01*
X142049432Y-99375500D01*
X142049435Y-99375500D01*
X142144938Y-99349910D01*
X142230406Y-99300565D01*
X142899500Y-99300565D01*
X142899500Y-99399435D01*
X142925090Y-99494938D01*
X142974525Y-99580562D01*
X143044438Y-99650475D01*
X143130062Y-99699910D01*
X143225565Y-99725500D01*
X143225567Y-99725500D01*
X143328110Y-99725500D01*
X143395149Y-99745185D01*
X143440904Y-99797989D01*
X143450848Y-99867147D01*
X143450179Y-99870407D01*
X143449500Y-99875563D01*
X143449500Y-99875565D01*
X143449500Y-99974435D01*
X143475090Y-100069938D01*
X143524525Y-100155562D01*
X143594438Y-100225475D01*
X143680062Y-100274910D01*
X143775565Y-100300500D01*
X143775567Y-100300500D01*
X143874432Y-100300500D01*
X143874435Y-100300500D01*
X143969938Y-100274910D01*
X144055562Y-100225475D01*
X144125475Y-100155562D01*
X144174910Y-100069938D01*
X144200500Y-99974435D01*
X144200500Y-99875565D01*
X144174910Y-99780062D01*
X144125475Y-99694438D01*
X144055562Y-99624525D01*
X143969938Y-99575090D01*
X143874435Y-99549500D01*
X143775565Y-99549500D01*
X143771890Y-99549500D01*
X143704851Y-99529815D01*
X143659096Y-99477011D01*
X143648410Y-99414154D01*
X143649230Y-99405222D01*
X148869843Y-99405222D01*
X148869843Y-99504092D01*
X148895433Y-99599595D01*
X148944868Y-99685219D01*
X149014781Y-99755132D01*
X149100405Y-99804567D01*
X149195908Y-99830157D01*
X149195910Y-99830157D01*
X149294775Y-99830157D01*
X149294778Y-99830157D01*
X149390281Y-99804567D01*
X149402915Y-99797273D01*
X156149500Y-99797273D01*
X156149500Y-99902726D01*
X156176793Y-100004586D01*
X156176794Y-100004589D01*
X156177066Y-100005060D01*
X156229520Y-100095913D01*
X156304087Y-100170480D01*
X156395413Y-100223207D01*
X156497273Y-100250500D01*
X156497275Y-100250500D01*
X156602725Y-100250500D01*
X156602727Y-100250500D01*
X156704587Y-100223207D01*
X156795913Y-100170480D01*
X156870480Y-100095913D01*
X156923207Y-100004587D01*
X156950500Y-99902727D01*
X156950500Y-99797273D01*
X156923207Y-99695413D01*
X156870480Y-99604087D01*
X156795913Y-99529520D01*
X156704587Y-99476793D01*
X156602727Y-99449500D01*
X156497273Y-99449500D01*
X156395413Y-99476793D01*
X156395410Y-99476794D01*
X156304085Y-99529521D01*
X156229521Y-99604085D01*
X156176794Y-99695410D01*
X156176793Y-99695413D01*
X156149500Y-99797273D01*
X149402915Y-99797273D01*
X149475905Y-99755132D01*
X149545818Y-99685219D01*
X149595253Y-99599595D01*
X149620843Y-99504092D01*
X149620843Y-99405222D01*
X149595253Y-99309719D01*
X149545818Y-99224095D01*
X149475905Y-99154182D01*
X149390281Y-99104747D01*
X149294778Y-99079157D01*
X149195908Y-99079157D01*
X149100405Y-99104747D01*
X149100403Y-99104748D01*
X149100402Y-99104748D01*
X149014779Y-99154183D01*
X148944869Y-99224093D01*
X148895434Y-99309716D01*
X148895434Y-99309717D01*
X148895433Y-99309719D01*
X148869843Y-99405222D01*
X143649230Y-99405222D01*
X143649377Y-99403624D01*
X143650500Y-99399435D01*
X143650500Y-99300565D01*
X143624910Y-99205062D01*
X143575475Y-99119438D01*
X143505562Y-99049525D01*
X143419938Y-99000090D01*
X143324435Y-98974500D01*
X143225565Y-98974500D01*
X143144965Y-98996096D01*
X143144963Y-98996097D01*
X143130060Y-99000090D01*
X143130059Y-99000091D01*
X143044436Y-99049526D01*
X142974526Y-99119436D01*
X142925091Y-99205059D01*
X142925091Y-99205060D01*
X142925090Y-99205062D01*
X142899500Y-99300565D01*
X142230406Y-99300565D01*
X142230562Y-99300475D01*
X142300475Y-99230562D01*
X142349910Y-99144938D01*
X142375500Y-99049435D01*
X142375500Y-98950565D01*
X142349910Y-98855062D01*
X142300475Y-98769438D01*
X142230562Y-98699525D01*
X142144938Y-98650090D01*
X142049435Y-98624500D01*
X141950565Y-98624500D01*
X141855062Y-98650090D01*
X141855060Y-98650091D01*
X141855059Y-98650091D01*
X141769436Y-98699526D01*
X141699526Y-98769436D01*
X141650091Y-98855059D01*
X141650091Y-98855060D01*
X141650090Y-98855062D01*
X141624500Y-98950565D01*
X137700500Y-98950565D01*
X137700500Y-98250565D01*
X140599500Y-98250565D01*
X140599500Y-98349435D01*
X140625090Y-98444938D01*
X140625091Y-98444939D01*
X140625091Y-98444940D01*
X140627686Y-98449435D01*
X140674525Y-98530562D01*
X140744438Y-98600475D01*
X140830062Y-98649910D01*
X140925565Y-98675500D01*
X140925567Y-98675500D01*
X141024432Y-98675500D01*
X141024435Y-98675500D01*
X141119938Y-98649910D01*
X141205562Y-98600475D01*
X141275475Y-98530562D01*
X141324910Y-98444938D01*
X141350500Y-98349435D01*
X141350500Y-98325565D01*
X142749500Y-98325565D01*
X142749500Y-98424435D01*
X142775090Y-98519938D01*
X142824525Y-98605562D01*
X142894438Y-98675475D01*
X142980062Y-98724910D01*
X143075565Y-98750500D01*
X143075567Y-98750500D01*
X143110462Y-98750500D01*
X143174435Y-98750500D01*
X143269938Y-98724910D01*
X143355562Y-98675475D01*
X143425475Y-98605562D01*
X143474910Y-98519938D01*
X143500500Y-98424435D01*
X143500500Y-98350565D01*
X149349500Y-98350565D01*
X149349500Y-98449435D01*
X149375090Y-98544938D01*
X149424525Y-98630562D01*
X149494438Y-98700475D01*
X149580062Y-98749910D01*
X149675565Y-98775500D01*
X149675567Y-98775500D01*
X149774432Y-98775500D01*
X149774435Y-98775500D01*
X149869938Y-98749910D01*
X149955562Y-98700475D01*
X150025475Y-98630562D01*
X150074910Y-98544938D01*
X150100500Y-98449435D01*
X150100500Y-98350565D01*
X150074910Y-98255062D01*
X150025475Y-98169438D01*
X149955562Y-98099525D01*
X149869938Y-98050090D01*
X149774435Y-98024500D01*
X149675565Y-98024500D01*
X149580062Y-98050090D01*
X149580060Y-98050091D01*
X149580059Y-98050091D01*
X149494436Y-98099526D01*
X149424526Y-98169436D01*
X149375091Y-98255059D01*
X149375091Y-98255060D01*
X149375090Y-98255062D01*
X149349500Y-98350565D01*
X143500500Y-98350565D01*
X143500500Y-98325565D01*
X143474910Y-98230062D01*
X143425475Y-98144438D01*
X143355562Y-98074525D01*
X143269938Y-98025090D01*
X143174435Y-97999500D01*
X143075565Y-97999500D01*
X142980062Y-98025090D01*
X142980060Y-98025091D01*
X142980059Y-98025091D01*
X142894436Y-98074526D01*
X142824526Y-98144436D01*
X142775091Y-98230059D01*
X142775091Y-98230060D01*
X142775090Y-98230062D01*
X142749500Y-98325565D01*
X141350500Y-98325565D01*
X141350500Y-98250565D01*
X141324910Y-98155062D01*
X141275475Y-98069438D01*
X141205562Y-97999525D01*
X141119938Y-97950090D01*
X141024435Y-97924500D01*
X140925565Y-97924500D01*
X140830062Y-97950090D01*
X140830060Y-97950091D01*
X140830059Y-97950091D01*
X140744436Y-97999526D01*
X140674526Y-98069436D01*
X140625091Y-98155059D01*
X140625091Y-98155060D01*
X140625090Y-98155062D01*
X140599500Y-98250565D01*
X137700500Y-98250565D01*
X137700500Y-97350565D01*
X141349500Y-97350565D01*
X141349500Y-97449435D01*
X141375090Y-97544938D01*
X141424525Y-97630562D01*
X141494438Y-97700475D01*
X141580062Y-97749910D01*
X141675565Y-97775500D01*
X141675567Y-97775500D01*
X141774432Y-97775500D01*
X141774435Y-97775500D01*
X141869938Y-97749910D01*
X141955562Y-97700475D01*
X142025475Y-97630562D01*
X142057228Y-97575565D01*
X148574500Y-97575565D01*
X148574500Y-97674435D01*
X148600090Y-97769938D01*
X148649525Y-97855562D01*
X148719438Y-97925475D01*
X148805062Y-97974910D01*
X148900565Y-98000500D01*
X148900567Y-98000500D01*
X148999432Y-98000500D01*
X148999435Y-98000500D01*
X149094938Y-97974910D01*
X149180562Y-97925475D01*
X149245704Y-97860333D01*
X152689709Y-97860333D01*
X152689709Y-97959203D01*
X152715299Y-98054706D01*
X152715300Y-98054707D01*
X152715300Y-98054708D01*
X152726741Y-98074525D01*
X152764734Y-98140330D01*
X152834647Y-98210243D01*
X152920271Y-98259678D01*
X153015774Y-98285268D01*
X153015776Y-98285268D01*
X153114641Y-98285268D01*
X153114644Y-98285268D01*
X153210147Y-98259678D01*
X153295771Y-98210243D01*
X153365684Y-98140330D01*
X153415119Y-98054706D01*
X153440709Y-97959203D01*
X153440709Y-97860333D01*
X153415119Y-97764830D01*
X153384034Y-97710990D01*
X153367562Y-97643091D01*
X153390415Y-97577064D01*
X153394998Y-97571647D01*
X153394946Y-97571607D01*
X153399892Y-97565160D01*
X153399895Y-97565157D01*
X153449330Y-97479533D01*
X153474920Y-97384030D01*
X153474920Y-97285160D01*
X153449330Y-97189657D01*
X153399895Y-97104033D01*
X153329982Y-97034120D01*
X153244358Y-96984685D01*
X153148855Y-96959095D01*
X153049985Y-96959095D01*
X152954482Y-96984685D01*
X152954480Y-96984686D01*
X152954479Y-96984686D01*
X152868856Y-97034121D01*
X152798946Y-97104031D01*
X152749511Y-97189654D01*
X152749511Y-97189655D01*
X152749510Y-97189657D01*
X152723920Y-97285160D01*
X152723920Y-97384030D01*
X152749510Y-97479533D01*
X152749511Y-97479534D01*
X152749511Y-97479535D01*
X152780593Y-97533371D01*
X152797066Y-97601272D01*
X152774213Y-97667298D01*
X152769631Y-97672716D01*
X152769683Y-97672756D01*
X152764736Y-97679202D01*
X152715300Y-97764827D01*
X152715300Y-97764828D01*
X152715299Y-97764830D01*
X152689709Y-97860333D01*
X149245704Y-97860333D01*
X149250475Y-97855562D01*
X149299910Y-97769938D01*
X149325500Y-97674435D01*
X149325500Y-97575565D01*
X149299910Y-97480062D01*
X149250475Y-97394438D01*
X149180562Y-97324525D01*
X149094938Y-97275090D01*
X148999435Y-97249500D01*
X148900565Y-97249500D01*
X148805062Y-97275090D01*
X148805060Y-97275091D01*
X148805059Y-97275091D01*
X148762076Y-97299908D01*
X148719438Y-97324525D01*
X148649525Y-97394438D01*
X148634727Y-97420068D01*
X148634723Y-97420073D01*
X148600093Y-97480055D01*
X148600090Y-97480060D01*
X148600090Y-97480062D01*
X148574500Y-97575565D01*
X142057228Y-97575565D01*
X142074910Y-97544938D01*
X142100500Y-97449435D01*
X142100500Y-97350565D01*
X142074910Y-97255062D01*
X142025475Y-97169438D01*
X141955562Y-97099525D01*
X141869938Y-97050090D01*
X141778410Y-97025565D01*
X144149500Y-97025565D01*
X144149500Y-97124435D01*
X144175090Y-97219938D01*
X144224525Y-97305562D01*
X144294438Y-97375475D01*
X144380062Y-97424910D01*
X144475565Y-97450500D01*
X144475567Y-97450500D01*
X144574432Y-97450500D01*
X144574435Y-97450500D01*
X144669938Y-97424910D01*
X144755562Y-97375475D01*
X144825475Y-97305562D01*
X144874910Y-97219938D01*
X144900500Y-97124435D01*
X144900500Y-97025565D01*
X144874910Y-96930062D01*
X144857880Y-96900565D01*
X147849500Y-96900565D01*
X147849500Y-96999435D01*
X147875090Y-97094938D01*
X147924525Y-97180562D01*
X147994438Y-97250475D01*
X148080062Y-97299910D01*
X148175565Y-97325500D01*
X148175567Y-97325500D01*
X148274432Y-97325500D01*
X148274435Y-97325500D01*
X148369938Y-97299910D01*
X148455562Y-97250475D01*
X148525475Y-97180562D01*
X148574910Y-97094938D01*
X148600500Y-96999435D01*
X148600500Y-96900565D01*
X148574910Y-96805062D01*
X148557880Y-96775565D01*
X150974500Y-96775565D01*
X150974500Y-96874435D01*
X151000090Y-96969938D01*
X151046366Y-97050091D01*
X151049526Y-97055563D01*
X151074266Y-97080303D01*
X151107751Y-97141626D01*
X151102767Y-97211318D01*
X151093972Y-97229984D01*
X151089946Y-97236956D01*
X151089945Y-97236958D01*
X151079494Y-97255060D01*
X151040511Y-97322579D01*
X151040511Y-97322580D01*
X151040510Y-97322582D01*
X151014920Y-97418085D01*
X151014920Y-97516955D01*
X151040510Y-97612458D01*
X151089945Y-97698082D01*
X151159858Y-97767995D01*
X151245482Y-97817430D01*
X151340985Y-97843020D01*
X151340987Y-97843020D01*
X151439852Y-97843020D01*
X151439855Y-97843020D01*
X151535358Y-97817430D01*
X151620982Y-97767995D01*
X151690895Y-97698082D01*
X151740330Y-97612458D01*
X151765920Y-97516955D01*
X151765920Y-97418085D01*
X151740330Y-97322582D01*
X151690895Y-97236958D01*
X151666153Y-97212216D01*
X151632668Y-97150893D01*
X151637652Y-97081201D01*
X151646448Y-97062533D01*
X151650469Y-97055567D01*
X151650475Y-97055562D01*
X151699910Y-96969938D01*
X151725500Y-96874435D01*
X151725500Y-96845977D01*
X151745185Y-96778938D01*
X151797989Y-96733183D01*
X151867147Y-96723239D01*
X151881579Y-96726199D01*
X151972273Y-96750500D01*
X151972275Y-96750500D01*
X152077725Y-96750500D01*
X152077727Y-96750500D01*
X152179587Y-96723207D01*
X152270913Y-96670480D01*
X152345480Y-96595913D01*
X152351331Y-96585779D01*
X155365131Y-96585779D01*
X155365131Y-96684649D01*
X155390721Y-96780152D01*
X155440156Y-96865776D01*
X155510069Y-96935689D01*
X155595693Y-96985124D01*
X155691196Y-97010714D01*
X155691198Y-97010714D01*
X155790063Y-97010714D01*
X155790066Y-97010714D01*
X155885569Y-96985124D01*
X155971193Y-96935689D01*
X156041106Y-96865776D01*
X156090541Y-96780152D01*
X156098469Y-96750565D01*
X159549500Y-96750565D01*
X159549500Y-96849435D01*
X159575090Y-96944938D01*
X159575091Y-96944939D01*
X159575091Y-96944940D01*
X159588337Y-96967882D01*
X159624525Y-97030562D01*
X159694438Y-97100475D01*
X159780062Y-97149910D01*
X159875565Y-97175500D01*
X159875567Y-97175500D01*
X159974432Y-97175500D01*
X159974435Y-97175500D01*
X160069938Y-97149910D01*
X160155562Y-97100475D01*
X160225475Y-97030562D01*
X160274910Y-96944938D01*
X160300500Y-96849435D01*
X160300500Y-96802061D01*
X160320185Y-96735022D01*
X160372989Y-96689267D01*
X160392400Y-96682288D01*
X160419938Y-96674910D01*
X160505562Y-96625475D01*
X160575475Y-96555562D01*
X160624910Y-96469938D01*
X160650500Y-96374435D01*
X160650500Y-96275565D01*
X160624910Y-96180062D01*
X160575475Y-96094438D01*
X160505562Y-96024525D01*
X160419938Y-95975090D01*
X160324435Y-95949500D01*
X160225565Y-95949500D01*
X160130062Y-95975090D01*
X160130060Y-95975091D01*
X160130059Y-95975091D01*
X160044436Y-96024526D01*
X159974526Y-96094436D01*
X159925091Y-96180059D01*
X159925091Y-96180060D01*
X159925090Y-96180062D01*
X159899500Y-96275565D01*
X159899500Y-96275567D01*
X159899500Y-96322938D01*
X159879815Y-96389977D01*
X159827011Y-96435732D01*
X159807595Y-96442712D01*
X159780066Y-96450088D01*
X159780059Y-96450091D01*
X159694436Y-96499526D01*
X159624526Y-96569436D01*
X159575091Y-96655059D01*
X159575091Y-96655060D01*
X159575090Y-96655062D01*
X159549500Y-96750565D01*
X156098469Y-96750565D01*
X156116131Y-96684649D01*
X156116131Y-96585779D01*
X156090541Y-96490276D01*
X156041106Y-96404652D01*
X155971193Y-96334739D01*
X155885569Y-96285304D01*
X155790066Y-96259714D01*
X155691196Y-96259714D01*
X155595693Y-96285304D01*
X155595691Y-96285305D01*
X155595690Y-96285305D01*
X155510067Y-96334740D01*
X155440157Y-96404650D01*
X155390722Y-96490273D01*
X155390722Y-96490274D01*
X155390721Y-96490276D01*
X155365131Y-96585779D01*
X152351331Y-96585779D01*
X152398207Y-96504587D01*
X152425500Y-96402727D01*
X152425500Y-96297273D01*
X152398207Y-96195413D01*
X152372314Y-96150565D01*
X153349500Y-96150565D01*
X153349500Y-96249435D01*
X153375090Y-96344938D01*
X153424525Y-96430562D01*
X153494438Y-96500475D01*
X153580062Y-96549910D01*
X153675565Y-96575500D01*
X153675567Y-96575500D01*
X153774432Y-96575500D01*
X153774435Y-96575500D01*
X153869938Y-96549910D01*
X153955562Y-96500475D01*
X154025475Y-96430562D01*
X154074910Y-96344938D01*
X154100500Y-96249435D01*
X154100500Y-96150565D01*
X154074910Y-96055062D01*
X154025475Y-95969438D01*
X153955562Y-95899525D01*
X153869938Y-95850090D01*
X153774435Y-95824500D01*
X153675565Y-95824500D01*
X153580062Y-95850090D01*
X153580060Y-95850091D01*
X153580059Y-95850091D01*
X153494436Y-95899526D01*
X153424526Y-95969436D01*
X153375091Y-96055059D01*
X153375091Y-96055060D01*
X153375090Y-96055062D01*
X153349500Y-96150565D01*
X152372314Y-96150565D01*
X152345480Y-96104087D01*
X152270913Y-96029520D01*
X152179587Y-95976793D01*
X152077727Y-95949500D01*
X151972273Y-95949500D01*
X151870413Y-95976793D01*
X151870410Y-95976794D01*
X151779085Y-96029521D01*
X151704521Y-96104085D01*
X151651794Y-96195410D01*
X151651793Y-96195413D01*
X151624500Y-96297273D01*
X151624500Y-96348206D01*
X151604815Y-96415245D01*
X151552011Y-96461000D01*
X151482853Y-96470944D01*
X151468407Y-96467981D01*
X151462185Y-96466314D01*
X151399435Y-96449500D01*
X151300565Y-96449500D01*
X151205062Y-96475090D01*
X151205060Y-96475091D01*
X151205059Y-96475091D01*
X151119436Y-96524526D01*
X151049526Y-96594436D01*
X151000091Y-96680059D01*
X151000091Y-96680060D01*
X151000090Y-96680062D01*
X150974500Y-96775565D01*
X148557880Y-96775565D01*
X148525475Y-96719438D01*
X148455562Y-96649525D01*
X148369938Y-96600090D01*
X148274435Y-96574500D01*
X148175565Y-96574500D01*
X148080062Y-96600090D01*
X148080060Y-96600091D01*
X148080059Y-96600091D01*
X147994436Y-96649526D01*
X147924526Y-96719436D01*
X147875091Y-96805059D01*
X147875091Y-96805060D01*
X147875090Y-96805062D01*
X147849500Y-96900565D01*
X144857880Y-96900565D01*
X144825475Y-96844438D01*
X144755562Y-96774525D01*
X144669938Y-96725090D01*
X144574435Y-96699500D01*
X144475565Y-96699500D01*
X144380062Y-96725090D01*
X144380060Y-96725091D01*
X144380059Y-96725091D01*
X144294436Y-96774526D01*
X144224526Y-96844436D01*
X144175091Y-96930059D01*
X144175091Y-96930060D01*
X144175090Y-96930062D01*
X144149500Y-97025565D01*
X141778410Y-97025565D01*
X141774435Y-97024500D01*
X141675565Y-97024500D01*
X141580062Y-97050090D01*
X141580060Y-97050091D01*
X141580059Y-97050091D01*
X141494436Y-97099526D01*
X141424526Y-97169436D01*
X141375091Y-97255059D01*
X141375091Y-97255060D01*
X141375090Y-97255062D01*
X141349500Y-97350565D01*
X137700500Y-97350565D01*
X137700500Y-95800565D01*
X139704500Y-95800565D01*
X139704500Y-95899435D01*
X139730090Y-95994938D01*
X139730091Y-95994939D01*
X139730091Y-95994940D01*
X139741313Y-96014376D01*
X139779525Y-96080562D01*
X139849438Y-96150475D01*
X139935062Y-96199910D01*
X140030565Y-96225500D01*
X140030567Y-96225500D01*
X140129432Y-96225500D01*
X140129435Y-96225500D01*
X140224938Y-96199910D01*
X140310562Y-96150475D01*
X140380475Y-96080562D01*
X140420114Y-96011904D01*
X140470680Y-95963690D01*
X140539287Y-95950467D01*
X140604152Y-95976435D01*
X140624170Y-95996247D01*
X140630126Y-96003662D01*
X140674525Y-96080562D01*
X140744438Y-96150475D01*
X140751206Y-96154382D01*
X140763244Y-96169367D01*
X140771105Y-96188428D01*
X140783263Y-96205078D01*
X140784156Y-96220071D01*
X140789884Y-96233959D01*
X140786192Y-96254244D01*
X140787418Y-96274824D01*
X140780012Y-96288195D01*
X140777373Y-96302700D01*
X140764123Y-96316886D01*
X140754256Y-96334706D01*
X140719526Y-96369436D01*
X140670091Y-96455059D01*
X140670091Y-96455060D01*
X140670090Y-96455062D01*
X140644500Y-96550565D01*
X140644500Y-96649435D01*
X140670090Y-96744938D01*
X140719525Y-96830562D01*
X140789438Y-96900475D01*
X140875062Y-96949910D01*
X140970565Y-96975500D01*
X140970567Y-96975500D01*
X141069432Y-96975500D01*
X141069435Y-96975500D01*
X141164938Y-96949910D01*
X141250562Y-96900475D01*
X141320475Y-96830562D01*
X141369910Y-96744938D01*
X141395500Y-96649435D01*
X141395500Y-96550565D01*
X141369910Y-96455062D01*
X141320475Y-96369438D01*
X141250562Y-96299525D01*
X141244815Y-96293778D01*
X141246314Y-96292278D01*
X141245588Y-96291283D01*
X141235077Y-96284595D01*
X141225374Y-96263599D01*
X141211734Y-96244917D01*
X141210993Y-96232478D01*
X141205768Y-96221171D01*
X141208956Y-96198263D01*
X141207582Y-96175171D01*
X141213916Y-96162633D01*
X141215401Y-96151968D01*
X141229922Y-96130952D01*
X141234349Y-96122192D01*
X141237411Y-96118625D01*
X141275475Y-96080562D01*
X141286514Y-96061441D01*
X141294041Y-96052676D01*
X141314034Y-96039699D01*
X141331291Y-96023244D01*
X141342810Y-96021023D01*
X141352649Y-96014638D01*
X141376487Y-96014530D01*
X141399897Y-96010018D01*
X141410786Y-96014376D01*
X141422518Y-96014324D01*
X141442632Y-96027123D01*
X141464763Y-96035982D01*
X141471567Y-96045536D01*
X141481465Y-96051835D01*
X141491465Y-96073475D01*
X141505295Y-96092894D01*
X141510379Y-96114405D01*
X141510774Y-96115259D01*
X141510702Y-96115772D01*
X141511055Y-96117263D01*
X141511998Y-96124428D01*
X141512000Y-96124435D01*
X141537590Y-96219938D01*
X141587025Y-96305562D01*
X141656938Y-96375475D01*
X141742562Y-96424910D01*
X141838065Y-96450500D01*
X141838067Y-96450500D01*
X141936932Y-96450500D01*
X141936935Y-96450500D01*
X142032438Y-96424910D01*
X142118062Y-96375475D01*
X142187975Y-96305562D01*
X142237410Y-96219938D01*
X142255998Y-96150565D01*
X142799500Y-96150565D01*
X142799500Y-96249435D01*
X142825090Y-96344938D01*
X142874525Y-96430562D01*
X142944438Y-96500475D01*
X143030062Y-96549910D01*
X143125565Y-96575500D01*
X143125567Y-96575500D01*
X143224432Y-96575500D01*
X143224435Y-96575500D01*
X143319938Y-96549910D01*
X143405562Y-96500475D01*
X143475475Y-96430562D01*
X143524910Y-96344938D01*
X143550500Y-96249435D01*
X143550500Y-96150565D01*
X143525094Y-96055747D01*
X145294318Y-96055747D01*
X145294318Y-96154617D01*
X145319908Y-96250120D01*
X145369343Y-96335744D01*
X145439256Y-96405657D01*
X145524880Y-96455092D01*
X145620383Y-96480682D01*
X145620385Y-96480682D01*
X145719250Y-96480682D01*
X145719253Y-96480682D01*
X145814756Y-96455092D01*
X145900380Y-96405657D01*
X145970293Y-96335744D01*
X146019728Y-96250120D01*
X146045318Y-96154617D01*
X146045318Y-96055747D01*
X146019728Y-95960244D01*
X146009472Y-95942480D01*
X147391415Y-95942480D01*
X147391415Y-96041350D01*
X147417005Y-96136853D01*
X147417006Y-96136854D01*
X147417006Y-96136855D01*
X147424870Y-96150475D01*
X147466440Y-96222477D01*
X147536353Y-96292390D01*
X147621977Y-96341825D01*
X147717480Y-96367415D01*
X147717482Y-96367415D01*
X147816347Y-96367415D01*
X147816350Y-96367415D01*
X147911853Y-96341825D01*
X147997477Y-96292390D01*
X148067390Y-96222477D01*
X148116825Y-96136853D01*
X148142415Y-96041350D01*
X148142415Y-95942480D01*
X148116825Y-95846977D01*
X148067390Y-95761353D01*
X147997477Y-95691440D01*
X147911853Y-95642005D01*
X147816350Y-95616415D01*
X147717480Y-95616415D01*
X147621977Y-95642005D01*
X147621975Y-95642006D01*
X147621974Y-95642006D01*
X147536351Y-95691441D01*
X147466441Y-95761351D01*
X147417006Y-95846974D01*
X147417006Y-95846975D01*
X147417005Y-95846977D01*
X147391415Y-95942480D01*
X146009472Y-95942480D01*
X145970293Y-95874620D01*
X145900380Y-95804707D01*
X145814756Y-95755272D01*
X145719253Y-95729682D01*
X145620383Y-95729682D01*
X145524880Y-95755272D01*
X145524878Y-95755273D01*
X145524877Y-95755273D01*
X145439254Y-95804708D01*
X145369344Y-95874618D01*
X145319909Y-95960241D01*
X145319909Y-95960242D01*
X145319908Y-95960244D01*
X145294318Y-96055747D01*
X143525094Y-96055747D01*
X143524910Y-96055062D01*
X143475475Y-95969438D01*
X143405562Y-95899525D01*
X143319938Y-95850090D01*
X143224435Y-95824500D01*
X143125565Y-95824500D01*
X143030062Y-95850090D01*
X143030060Y-95850091D01*
X143030059Y-95850091D01*
X142944436Y-95899526D01*
X142874526Y-95969436D01*
X142825091Y-96055059D01*
X142825091Y-96055060D01*
X142825090Y-96055062D01*
X142799500Y-96150565D01*
X142255998Y-96150565D01*
X142263000Y-96124435D01*
X142263000Y-96025565D01*
X142237410Y-95930062D01*
X142187975Y-95844438D01*
X142118062Y-95774525D01*
X142032438Y-95725090D01*
X141936935Y-95699500D01*
X141838065Y-95699500D01*
X141742562Y-95725090D01*
X141742560Y-95725091D01*
X141742559Y-95725091D01*
X141656936Y-95774526D01*
X141587026Y-95844436D01*
X141581768Y-95853544D01*
X141531200Y-95901759D01*
X141462593Y-95914980D01*
X141397728Y-95889011D01*
X141357201Y-95832096D01*
X141351443Y-95807729D01*
X141350500Y-95800567D01*
X141350500Y-95800565D01*
X141324910Y-95705062D01*
X141275475Y-95619438D01*
X141205562Y-95549525D01*
X141119938Y-95500090D01*
X141024435Y-95474500D01*
X140925565Y-95474500D01*
X140830062Y-95500090D01*
X140830060Y-95500091D01*
X140830059Y-95500091D01*
X140744436Y-95549526D01*
X140674527Y-95619435D01*
X140674525Y-95619437D01*
X140674525Y-95619438D01*
X140634885Y-95688095D01*
X140584319Y-95736309D01*
X140515712Y-95749531D01*
X140450848Y-95723563D01*
X140420114Y-95688095D01*
X140380475Y-95619438D01*
X140310562Y-95549525D01*
X140224938Y-95500090D01*
X140129435Y-95474500D01*
X140030565Y-95474500D01*
X139935062Y-95500090D01*
X139935060Y-95500091D01*
X139935059Y-95500091D01*
X139849436Y-95549526D01*
X139779526Y-95619436D01*
X139730091Y-95705059D01*
X139730091Y-95705060D01*
X139730090Y-95705062D01*
X139704500Y-95800565D01*
X137700500Y-95800565D01*
X137700500Y-92975565D01*
X138874500Y-92975565D01*
X138874500Y-93074435D01*
X138900090Y-93169938D01*
X138949525Y-93255562D01*
X139019438Y-93325475D01*
X139105062Y-93374910D01*
X139200565Y-93400500D01*
X139200571Y-93400500D01*
X139200936Y-93400548D01*
X139201226Y-93400676D01*
X139208416Y-93402603D01*
X139208115Y-93403723D01*
X139264834Y-93428812D01*
X139303307Y-93487135D01*
X139304142Y-93557000D01*
X139272438Y-93611168D01*
X139229521Y-93654085D01*
X139176794Y-93745410D01*
X139176794Y-93745411D01*
X139176793Y-93745413D01*
X139149500Y-93847273D01*
X139149500Y-93952727D01*
X139176793Y-94054587D01*
X139229520Y-94145913D01*
X139304087Y-94220480D01*
X139395413Y-94273207D01*
X139497273Y-94300500D01*
X139497275Y-94300500D01*
X139602725Y-94300500D01*
X139602727Y-94300500D01*
X139704587Y-94273207D01*
X139795913Y-94220480D01*
X139870480Y-94145913D01*
X139923207Y-94054587D01*
X139950500Y-93952727D01*
X139950500Y-93847273D01*
X139943801Y-93822273D01*
X141174500Y-93822273D01*
X141174500Y-93927727D01*
X141201793Y-94029587D01*
X141254520Y-94120913D01*
X141329087Y-94195480D01*
X141420413Y-94248207D01*
X141522273Y-94275500D01*
X141522284Y-94275500D01*
X141523928Y-94275717D01*
X141525224Y-94276290D01*
X141530123Y-94277603D01*
X141529918Y-94278366D01*
X141587826Y-94303981D01*
X141626300Y-94362304D01*
X141627134Y-94432169D01*
X141590064Y-94491394D01*
X141569750Y-94506043D01*
X141529085Y-94529521D01*
X141454521Y-94604085D01*
X141401794Y-94695410D01*
X141401793Y-94695413D01*
X141374500Y-94797273D01*
X141374500Y-94902727D01*
X141401793Y-95004587D01*
X141454520Y-95095913D01*
X141529087Y-95170480D01*
X141620413Y-95223207D01*
X141722273Y-95250500D01*
X141722275Y-95250500D01*
X141827725Y-95250500D01*
X141827727Y-95250500D01*
X141929587Y-95223207D01*
X142020913Y-95170480D01*
X142040828Y-95150565D01*
X146124500Y-95150565D01*
X146124500Y-95249435D01*
X146150090Y-95344938D01*
X146199525Y-95430562D01*
X146269438Y-95500475D01*
X146355062Y-95549910D01*
X146450565Y-95575500D01*
X146450567Y-95575500D01*
X146549432Y-95575500D01*
X146549435Y-95575500D01*
X146644938Y-95549910D01*
X146730562Y-95500475D01*
X146780472Y-95450565D01*
X149014702Y-95450565D01*
X149014702Y-95549435D01*
X149040292Y-95644938D01*
X149089727Y-95730562D01*
X149159640Y-95800475D01*
X149245264Y-95849910D01*
X149340767Y-95875500D01*
X149340769Y-95875500D01*
X149439635Y-95875500D01*
X149439637Y-95875500D01*
X149468407Y-95867791D01*
X149538254Y-95869452D01*
X149596117Y-95908614D01*
X149623623Y-95972842D01*
X149624500Y-95987565D01*
X149624500Y-95999435D01*
X149650090Y-96094938D01*
X149650091Y-96094939D01*
X149650091Y-96094940D01*
X149662979Y-96117263D01*
X149699525Y-96180562D01*
X149769438Y-96250475D01*
X149855062Y-96299910D01*
X149950565Y-96325500D01*
X149950567Y-96325500D01*
X150049432Y-96325500D01*
X150049435Y-96325500D01*
X150144938Y-96299910D01*
X150230562Y-96250475D01*
X150300475Y-96180562D01*
X150349910Y-96094938D01*
X150375500Y-95999435D01*
X150375500Y-95900565D01*
X150349910Y-95805062D01*
X150347314Y-95800565D01*
X154524500Y-95800565D01*
X154524500Y-95899435D01*
X154550090Y-95994938D01*
X154550091Y-95994939D01*
X154550091Y-95994940D01*
X154561313Y-96014376D01*
X154599525Y-96080562D01*
X154669438Y-96150475D01*
X154755062Y-96199910D01*
X154850565Y-96225500D01*
X154850567Y-96225500D01*
X154949432Y-96225500D01*
X154949435Y-96225500D01*
X155044938Y-96199910D01*
X155130562Y-96150475D01*
X155200475Y-96080562D01*
X155249910Y-95994938D01*
X155275500Y-95899435D01*
X155275500Y-95800565D01*
X155249910Y-95705062D01*
X155200475Y-95619438D01*
X155130562Y-95549525D01*
X155044938Y-95500090D01*
X154949435Y-95474500D01*
X154850565Y-95474500D01*
X154755062Y-95500090D01*
X154755060Y-95500091D01*
X154755059Y-95500091D01*
X154669436Y-95549526D01*
X154599526Y-95619436D01*
X154550091Y-95705059D01*
X154550091Y-95705060D01*
X154550090Y-95705062D01*
X154524500Y-95800565D01*
X150347314Y-95800565D01*
X150300475Y-95719438D01*
X150230562Y-95649525D01*
X150144938Y-95600090D01*
X150049435Y-95574500D01*
X149950565Y-95574500D01*
X149921795Y-95582209D01*
X149851945Y-95580546D01*
X149794083Y-95541383D01*
X149766579Y-95477154D01*
X149765702Y-95462434D01*
X149765702Y-95450567D01*
X149765702Y-95450565D01*
X149740112Y-95355062D01*
X149690677Y-95269438D01*
X149620764Y-95199525D01*
X149535140Y-95150090D01*
X149439637Y-95124500D01*
X149340767Y-95124500D01*
X149245264Y-95150090D01*
X149245262Y-95150091D01*
X149245261Y-95150091D01*
X149159638Y-95199526D01*
X149089728Y-95269436D01*
X149040293Y-95355059D01*
X149040293Y-95355060D01*
X149040292Y-95355062D01*
X149014702Y-95450565D01*
X146780472Y-95450565D01*
X146800475Y-95430562D01*
X146849910Y-95344938D01*
X146875500Y-95249435D01*
X146875500Y-95150565D01*
X146849910Y-95055062D01*
X146800475Y-94969438D01*
X146730562Y-94899525D01*
X146689062Y-94875565D01*
X153299500Y-94875565D01*
X153299500Y-94974435D01*
X153325090Y-95069938D01*
X153325091Y-95069939D01*
X153325091Y-95069940D01*
X153330371Y-95079085D01*
X153374525Y-95155562D01*
X153444438Y-95225475D01*
X153530062Y-95274910D01*
X153625565Y-95300500D01*
X153625567Y-95300500D01*
X153724432Y-95300500D01*
X153724435Y-95300500D01*
X153819938Y-95274910D01*
X153824505Y-95272273D01*
X156674500Y-95272273D01*
X156674500Y-95377727D01*
X156700589Y-95475091D01*
X156701793Y-95479586D01*
X156701794Y-95479589D01*
X156713853Y-95500475D01*
X156754520Y-95570913D01*
X156829087Y-95645480D01*
X156920413Y-95698207D01*
X157022273Y-95725500D01*
X157022275Y-95725500D01*
X157127725Y-95725500D01*
X157127727Y-95725500D01*
X157229587Y-95698207D01*
X157320913Y-95645480D01*
X157395480Y-95570913D01*
X157448207Y-95479587D01*
X157475500Y-95377727D01*
X157475500Y-95376224D01*
X157892855Y-95376224D01*
X157892855Y-95475094D01*
X157918445Y-95570597D01*
X157967880Y-95656221D01*
X158037793Y-95726134D01*
X158123417Y-95775569D01*
X158218920Y-95801159D01*
X158218922Y-95801159D01*
X158317787Y-95801159D01*
X158317790Y-95801159D01*
X158413293Y-95775569D01*
X158498917Y-95726134D01*
X158568830Y-95656221D01*
X158618265Y-95570597D01*
X158643855Y-95475094D01*
X158643855Y-95376224D01*
X158618265Y-95280721D01*
X158568830Y-95195097D01*
X158498917Y-95125184D01*
X158413293Y-95075749D01*
X158317790Y-95050159D01*
X158218920Y-95050159D01*
X158123417Y-95075749D01*
X158123415Y-95075750D01*
X158123414Y-95075750D01*
X158037791Y-95125185D01*
X157967881Y-95195095D01*
X157918446Y-95280718D01*
X157918446Y-95280719D01*
X157918445Y-95280721D01*
X157892855Y-95376224D01*
X157475500Y-95376224D01*
X157475500Y-95272273D01*
X157448207Y-95170413D01*
X157395480Y-95079087D01*
X157320913Y-95004520D01*
X157229587Y-94951793D01*
X157127727Y-94924500D01*
X157022273Y-94924500D01*
X156920413Y-94951793D01*
X156920410Y-94951794D01*
X156829085Y-95004521D01*
X156754521Y-95079085D01*
X156701794Y-95170410D01*
X156701793Y-95170413D01*
X156674500Y-95272273D01*
X153824505Y-95272273D01*
X153905562Y-95225475D01*
X153975475Y-95155562D01*
X154024910Y-95069938D01*
X154050500Y-94974435D01*
X154050500Y-94875565D01*
X154024910Y-94780062D01*
X153975475Y-94694438D01*
X153905562Y-94624525D01*
X153819938Y-94575090D01*
X153728410Y-94550565D01*
X154524500Y-94550565D01*
X154524500Y-94649435D01*
X154550090Y-94744938D01*
X154599525Y-94830562D01*
X154669438Y-94900475D01*
X154755062Y-94949910D01*
X154850565Y-94975500D01*
X154850567Y-94975500D01*
X154949432Y-94975500D01*
X154949435Y-94975500D01*
X155044938Y-94949910D01*
X155130562Y-94900475D01*
X155200475Y-94830562D01*
X155246944Y-94750074D01*
X155297510Y-94701860D01*
X155366117Y-94688637D01*
X155430982Y-94714605D01*
X155461716Y-94750074D01*
X155499525Y-94815562D01*
X155569438Y-94885475D01*
X155655062Y-94934910D01*
X155750565Y-94960500D01*
X155750567Y-94960500D01*
X155849432Y-94960500D01*
X155849435Y-94960500D01*
X155944938Y-94934910D01*
X156030562Y-94885475D01*
X156100475Y-94815562D01*
X156149910Y-94729938D01*
X156175500Y-94634435D01*
X156175500Y-94535565D01*
X156149910Y-94440062D01*
X156100475Y-94354438D01*
X156030562Y-94284525D01*
X155944938Y-94235090D01*
X155849435Y-94209500D01*
X155750565Y-94209500D01*
X155655062Y-94235090D01*
X155655060Y-94235091D01*
X155655059Y-94235091D01*
X155569436Y-94284526D01*
X155499525Y-94354437D01*
X155453055Y-94434924D01*
X155402488Y-94483139D01*
X155333880Y-94496361D01*
X155269016Y-94470393D01*
X155238283Y-94434924D01*
X155200475Y-94369438D01*
X155130562Y-94299525D01*
X155044938Y-94250090D01*
X154949435Y-94224500D01*
X154850565Y-94224500D01*
X154755062Y-94250090D01*
X154755060Y-94250091D01*
X154755059Y-94250091D01*
X154669436Y-94299526D01*
X154599526Y-94369436D01*
X154550091Y-94455059D01*
X154550091Y-94455060D01*
X154550090Y-94455062D01*
X154524500Y-94550565D01*
X153728410Y-94550565D01*
X153724435Y-94549500D01*
X153625565Y-94549500D01*
X153530062Y-94575090D01*
X153530060Y-94575091D01*
X153530059Y-94575091D01*
X153444436Y-94624526D01*
X153374526Y-94694436D01*
X153325091Y-94780059D01*
X153325091Y-94780060D01*
X153325090Y-94780062D01*
X153299500Y-94875565D01*
X146689062Y-94875565D01*
X146644938Y-94850090D01*
X146549435Y-94824500D01*
X146450565Y-94824500D01*
X146355062Y-94850090D01*
X146355060Y-94850091D01*
X146355059Y-94850091D01*
X146269436Y-94899526D01*
X146199526Y-94969436D01*
X146150091Y-95055059D01*
X146150091Y-95055060D01*
X146150090Y-95055062D01*
X146124500Y-95150565D01*
X142040828Y-95150565D01*
X142095480Y-95095913D01*
X142148207Y-95004587D01*
X142175500Y-94902727D01*
X142175500Y-94797273D01*
X142148207Y-94695413D01*
X142095480Y-94604087D01*
X142020913Y-94529520D01*
X141929587Y-94476793D01*
X141848485Y-94455062D01*
X141827720Y-94449498D01*
X141826060Y-94449280D01*
X141824763Y-94448706D01*
X141819877Y-94447397D01*
X141820081Y-94446634D01*
X141762165Y-94421011D01*
X141723696Y-94362685D01*
X141722868Y-94292820D01*
X141759943Y-94233598D01*
X141780240Y-94218962D01*
X141820913Y-94195480D01*
X141895480Y-94120913D01*
X141948207Y-94029587D01*
X141975500Y-93927727D01*
X141975500Y-93822273D01*
X141948207Y-93720413D01*
X141895480Y-93629087D01*
X141888666Y-93622273D01*
X148574500Y-93622273D01*
X148574500Y-93727727D01*
X148601793Y-93829587D01*
X148654520Y-93920913D01*
X148729087Y-93995480D01*
X148820413Y-94048207D01*
X148922273Y-94075500D01*
X148922275Y-94075500D01*
X149027725Y-94075500D01*
X149027727Y-94075500D01*
X149129587Y-94048207D01*
X149220913Y-93995480D01*
X149295480Y-93920913D01*
X149348207Y-93829587D01*
X149375500Y-93727727D01*
X149375500Y-93622273D01*
X149348207Y-93520413D01*
X149295480Y-93429087D01*
X149220913Y-93354520D01*
X149129587Y-93301793D01*
X149027727Y-93274500D01*
X148922273Y-93274500D01*
X148820413Y-93301793D01*
X148820410Y-93301794D01*
X148729085Y-93354521D01*
X148654521Y-93429085D01*
X148601794Y-93520410D01*
X148601793Y-93520413D01*
X148574500Y-93622273D01*
X141888666Y-93622273D01*
X141820913Y-93554520D01*
X141729587Y-93501793D01*
X141627727Y-93474500D01*
X141522273Y-93474500D01*
X141420413Y-93501793D01*
X141420410Y-93501794D01*
X141329085Y-93554521D01*
X141254521Y-93629085D01*
X141201794Y-93720410D01*
X141201793Y-93720413D01*
X141174500Y-93822273D01*
X139943801Y-93822273D01*
X139923207Y-93745413D01*
X139870480Y-93654087D01*
X139795913Y-93579520D01*
X139704587Y-93526793D01*
X139602727Y-93499500D01*
X139602726Y-93499500D01*
X139594667Y-93498439D01*
X139594950Y-93496285D01*
X139538860Y-93479815D01*
X139493105Y-93427011D01*
X139483161Y-93357853D01*
X139512186Y-93294297D01*
X139518218Y-93287819D01*
X139531537Y-93274500D01*
X139550475Y-93255562D01*
X139599910Y-93169938D01*
X139625500Y-93074435D01*
X139625500Y-92975565D01*
X139599910Y-92880062D01*
X139554012Y-92800565D01*
X160324500Y-92800565D01*
X160324500Y-92899435D01*
X160350090Y-92994938D01*
X160399525Y-93080562D01*
X160469438Y-93150475D01*
X160555062Y-93199910D01*
X160650565Y-93225500D01*
X160650567Y-93225500D01*
X160749432Y-93225500D01*
X160749435Y-93225500D01*
X160844938Y-93199910D01*
X160930562Y-93150475D01*
X161000475Y-93080562D01*
X161049910Y-92994938D01*
X161075500Y-92899435D01*
X161075500Y-92800565D01*
X161049910Y-92705062D01*
X161000475Y-92619438D01*
X160930562Y-92549525D01*
X160844938Y-92500090D01*
X160749435Y-92474500D01*
X160650565Y-92474500D01*
X160555062Y-92500090D01*
X160555060Y-92500091D01*
X160555059Y-92500091D01*
X160469436Y-92549526D01*
X160399526Y-92619436D01*
X160350091Y-92705059D01*
X160350091Y-92705060D01*
X160350090Y-92705062D01*
X160324500Y-92800565D01*
X139554012Y-92800565D01*
X139550475Y-92794438D01*
X139480562Y-92724525D01*
X139394938Y-92675090D01*
X139299435Y-92649500D01*
X139200565Y-92649500D01*
X139105062Y-92675090D01*
X139105060Y-92675091D01*
X139105059Y-92675091D01*
X139019436Y-92724526D01*
X138949526Y-92794436D01*
X138900091Y-92880059D01*
X138900091Y-92880060D01*
X138900090Y-92880062D01*
X138874500Y-92975565D01*
X137700500Y-92975565D01*
X137700500Y-90447273D01*
X138799500Y-90447273D01*
X138799500Y-90552727D01*
X138826793Y-90654587D01*
X138879520Y-90745913D01*
X138954087Y-90820480D01*
X139045413Y-90873207D01*
X139147273Y-90900500D01*
X139147275Y-90900500D01*
X139252725Y-90900500D01*
X139252727Y-90900500D01*
X139354587Y-90873207D01*
X139445913Y-90820480D01*
X139520480Y-90745913D01*
X139573207Y-90654587D01*
X139581865Y-90622273D01*
X160349500Y-90622273D01*
X160349500Y-90727727D01*
X160376793Y-90829587D01*
X160429520Y-90920913D01*
X160504087Y-90995480D01*
X160595413Y-91048207D01*
X160697273Y-91075500D01*
X160697275Y-91075500D01*
X160802725Y-91075500D01*
X160802727Y-91075500D01*
X160904587Y-91048207D01*
X160995913Y-90995480D01*
X161070480Y-90920913D01*
X161123207Y-90829587D01*
X161150500Y-90727727D01*
X161150500Y-90622273D01*
X161123207Y-90520413D01*
X161070480Y-90429087D01*
X160995913Y-90354520D01*
X160904587Y-90301793D01*
X160802727Y-90274500D01*
X160697273Y-90274500D01*
X160595413Y-90301793D01*
X160595410Y-90301794D01*
X160504085Y-90354521D01*
X160429521Y-90429085D01*
X160376794Y-90520410D01*
X160376793Y-90520413D01*
X160349500Y-90622273D01*
X139581865Y-90622273D01*
X139600500Y-90552727D01*
X139600500Y-90447273D01*
X139573207Y-90345413D01*
X139520480Y-90254087D01*
X139445913Y-90179520D01*
X139354587Y-90126793D01*
X139252727Y-90099500D01*
X139147273Y-90099500D01*
X139045413Y-90126793D01*
X139045410Y-90126794D01*
X138954085Y-90179521D01*
X138879521Y-90254085D01*
X138826794Y-90345410D01*
X138826793Y-90345413D01*
X138799500Y-90447273D01*
X137700500Y-90447273D01*
X137700500Y-89772273D01*
X139699500Y-89772273D01*
X139699500Y-89877727D01*
X139726793Y-89979587D01*
X139779520Y-90070913D01*
X139854087Y-90145480D01*
X139945413Y-90198207D01*
X140047273Y-90225500D01*
X140047275Y-90225500D01*
X140152725Y-90225500D01*
X140152727Y-90225500D01*
X140254587Y-90198207D01*
X140345913Y-90145480D01*
X140420480Y-90070913D01*
X140473207Y-89979587D01*
X140500500Y-89877727D01*
X140500500Y-89772273D01*
X140473207Y-89670413D01*
X140420480Y-89579087D01*
X140345913Y-89504520D01*
X140254587Y-89451793D01*
X140152727Y-89424500D01*
X140047273Y-89424500D01*
X139945413Y-89451793D01*
X139945410Y-89451794D01*
X139854085Y-89504521D01*
X139779521Y-89579085D01*
X139726794Y-89670410D01*
X139726793Y-89670413D01*
X139699500Y-89772273D01*
X137700500Y-89772273D01*
X137700500Y-88503981D01*
X137700537Y-88500945D01*
X137702162Y-88434596D01*
X137702163Y-88434593D01*
X137702162Y-88434590D01*
X137704508Y-88413442D01*
X137731157Y-88279466D01*
X137738207Y-88256224D01*
X137788956Y-88133706D01*
X137800403Y-88112291D01*
X137874078Y-88002028D01*
X137889487Y-87983252D01*
X137983252Y-87889487D01*
X138002028Y-87874078D01*
X138112291Y-87800403D01*
X138133706Y-87788956D01*
X138256224Y-87738207D01*
X138279466Y-87731157D01*
X138413447Y-87704507D01*
X138434590Y-87702162D01*
X138496859Y-87700637D01*
X138500946Y-87700537D01*
X138503982Y-87700500D01*
X146726000Y-87700500D01*
X146793039Y-87720185D01*
G37*
%TD.AperFunction*%
%TD*%
D12*
X161500000Y-87500000D02*
X161500000Y-87500000D01*
G75*
G02*
X162500000Y-88500000I0J-1000000D01*
G01*
X162500000Y-111500000D01*
G75*
G02*
X161500000Y-112500000I-1000000J0D01*
G01*
X138500000Y-112500000D01*
G75*
G02*
X137500000Y-111500000I0J1000000D01*
G01*
X137500000Y-88500000D01*
G75*
G02*
X138500000Y-87500000I1000000J0D01*
G01*
X161500000Y-87500000D01*
M02*
