%TF.GenerationSoftware,KiCad,Pcbnew,9.0.1*%
%TF.CreationDate,2025-12-15T19:45:58-06:00*%
%TF.ProjectId,ProtoCore_v1,50726f74-6f43-46f7-9265-5f76312e6b69,rev?*%
%TF.SameCoordinates,Original*%
%TF.FileFunction,Legend,Top*%
%TF.FilePolarity,Positive*%
%FSLAX46Y46*%
G04 Gerber Fmt 4.6, Leading zero omitted, Abs format (unit mm)*
G04 Created by KiCad (PCBNEW 9.0.1) date 2025-12-15 19:45:58*
%MOMM*%
%LPD*%
G01*
G04 APERTURE LIST*
G04 Aperture macros list*
%AMRoundRect*
0 Rectangle with rounded corners*
0 $1 Rounding radius*
0 $2 $3 $4 $5 $6 $7 $8 $9 X,Y pos of 4 corners*
0 Add a 4 corners polygon primitive as box body*
4,1,4,$2,$3,$4,$5,$6,$7,$8,$9,$2,$3,0*
0 Add four circle primitives for the rounded corners*
1,1,$1+$1,$2,$3*
1,1,$1+$1,$4,$5*
1,1,$1+$1,$6,$7*
1,1,$1+$1,$8,$9*
0 Add four rect primitives between the rounded corners*
20,1,$1+$1,$2,$3,$4,$5,0*
20,1,$1+$1,$4,$5,$6,$7,0*
20,1,$1+$1,$6,$7,$8,$9,0*
20,1,$1+$1,$8,$9,$2,$3,0*%
G04 Aperture macros list end*
%ADD10C,0.120000*%
%ADD11C,0.150000*%
%ADD12C,0.125001*%
%ADD13C,0.000000*%
%ADD14C,0.127000*%
%ADD15C,0.200000*%
%ADD16C,0.100000*%
%ADD17C,0.161803*%
%ADD18C,0.177475*%
%ADD19C,0.010000*%
%ADD20RoundRect,0.082500X-0.192500X0.197500X-0.192500X-0.197500X0.192500X-0.197500X0.192500X0.197500X0*%
%ADD21R,0.246234X0.804110*%
%ADD22R,0.246236X0.804111*%
%ADD23R,0.242472X0.804111*%
%ADD24R,0.246232X0.804111*%
%ADD25RoundRect,0.076500X0.243500X-0.178500X0.243500X0.178500X-0.243500X0.178500X-0.243500X-0.178500X0*%
%ADD26RoundRect,0.082500X0.197500X0.192500X-0.197500X0.192500X-0.197500X-0.192500X0.197500X-0.192500X0*%
%ADD27RoundRect,0.082500X0.192500X-0.197500X0.192500X0.197500X-0.192500X0.197500X-0.192500X-0.197500X0*%
%ADD28RoundRect,0.076500X-0.243500X0.178500X-0.243500X-0.178500X0.243500X-0.178500X0.243500X0.178500X0*%
%ADD29RoundRect,0.082500X-0.197500X-0.192500X0.197500X-0.192500X0.197500X0.192500X-0.197500X0.192500X0*%
%ADD30RoundRect,0.076500X0.178500X0.243500X-0.178500X0.243500X-0.178500X-0.243500X0.178500X-0.243500X0*%
%ADD31C,0.600000*%
%ADD32RoundRect,0.102000X-0.650000X0.375000X-0.650000X-0.375000X0.650000X-0.375000X0.650000X0.375000X0*%
%ADD33RoundRect,0.050000X-0.290000X-0.365000X0.290000X-0.365000X0.290000X0.365000X-0.290000X0.365000X0*%
%ADD34R,1.800000X0.800000*%
%ADD35C,0.290000*%
%ADD36RoundRect,0.125000X-0.250000X-0.125000X0.250000X-0.125000X0.250000X0.125000X-0.250000X0.125000X0*%
%ADD37R,3.000000X3.750000*%
%ADD38RoundRect,0.123750X-0.288750X-0.338750X0.288750X-0.338750X0.288750X0.338750X-0.288750X0.338750X0*%
%ADD39RoundRect,0.123750X-0.288750X-0.351250X0.288750X-0.351250X0.288750X0.351250X-0.288750X0.351250X0*%
%ADD40RoundRect,0.123750X0.288750X0.338750X-0.288750X0.338750X-0.288750X-0.338750X0.288750X-0.338750X0*%
%ADD41RoundRect,0.123750X0.288750X0.351250X-0.288750X0.351250X-0.288750X-0.351250X0.288750X-0.351250X0*%
%ADD42RoundRect,0.076500X-0.178500X-0.243500X0.178500X-0.243500X0.178500X0.243500X-0.178500X0.243500X0*%
%ADD43RoundRect,0.135000X0.540000X-0.315000X0.540000X0.315000X-0.540000X0.315000X-0.540000X-0.315000X0*%
%ADD44RoundRect,0.087500X-0.225000X-0.087500X0.225000X-0.087500X0.225000X0.087500X-0.225000X0.087500X0*%
%ADD45RoundRect,0.087500X-0.087500X-0.225000X0.087500X-0.225000X0.087500X0.225000X-0.087500X0.225000X0*%
%ADD46RoundRect,0.055000X-0.240000X-0.220000X0.240000X-0.220000X0.240000X0.220000X-0.240000X0.220000X0*%
%ADD47R,0.200000X0.600000*%
%ADD48R,0.200000X1.600000*%
%ADD49RoundRect,0.056250X0.143750X-0.131250X0.143750X0.131250X-0.143750X0.131250X-0.143750X-0.131250X0*%
%ADD50R,1.600000X1.000000*%
%ADD51R,0.275000X0.250000*%
%ADD52R,0.250000X0.275000*%
%ADD53RoundRect,0.135000X-0.540000X0.315000X-0.540000X-0.315000X0.540000X-0.315000X0.540000X0.315000X0*%
%ADD54RoundRect,0.135000X-0.315000X-0.540000X0.315000X-0.540000X0.315000X0.540000X-0.315000X0.540000X0*%
%ADD55RoundRect,0.102000X0.750000X0.300000X-0.750000X0.300000X-0.750000X-0.300000X0.750000X-0.300000X0*%
%TA.AperFunction,Profile*%
%ADD56C,0.100000*%
%TD*%
G04 APERTURE END LIST*
D10*
%TO.C,C37*%
X142875000Y-109699664D02*
X142875000Y-109915336D01*
X142875000Y-109807500D02*
X143475000Y-109807500D01*
X143475000Y-109699664D02*
X143475000Y-109915336D01*
D11*
%TO.C,U4*%
X138935000Y-97827500D02*
X138935000Y-96502499D01*
X140585000Y-98002501D02*
X140585000Y-96502499D01*
D12*
X138997500Y-98127500D02*
G75*
G02*
X138872500Y-98127500I-62500J0D01*
G01*
X138872500Y-98127500D02*
G75*
G02*
X138997500Y-98127500I62500J0D01*
G01*
D10*
%TO.C,R4*%
X143020000Y-104898641D02*
X143020000Y-104591359D01*
X143780000Y-104898641D02*
X143780000Y-104591359D01*
%TO.C,C31*%
X152545000Y-98650000D02*
X152545000Y-99250000D01*
X152652836Y-98650000D02*
X152437164Y-98650000D01*
X152652836Y-99250000D02*
X152437164Y-99250000D01*
%TO.C,C3*%
X150490000Y-94084663D02*
X150490000Y-94300337D01*
X151090000Y-94084663D02*
X151090000Y-94300337D01*
%TO.C,C26*%
X151675000Y-106202836D02*
X151675000Y-105987164D01*
X152275000Y-106095000D02*
X151675000Y-106095000D01*
X152275000Y-106202836D02*
X152275000Y-105987164D01*
%TO.C,R7*%
X153620000Y-94921359D02*
X153620000Y-95228641D01*
X154380000Y-94921359D02*
X154380000Y-95228641D01*
%TO.C,C40*%
X141169098Y-109699664D02*
X141169098Y-109915336D01*
X141169098Y-109807500D02*
X141769098Y-109807500D01*
X141769098Y-109699664D02*
X141769098Y-109915336D01*
D13*
%TO.C,G\u002A\u002A\u002A*%
G36*
X156832095Y-91557697D02*
G01*
X156836568Y-91569369D01*
X156844946Y-91591968D01*
X156856637Y-91623869D01*
X156871047Y-91663443D01*
X156887584Y-91709063D01*
X156905655Y-91759102D01*
X156920771Y-91801094D01*
X156939552Y-91852898D01*
X156957300Y-91901024D01*
X156973432Y-91943947D01*
X156987361Y-91980143D01*
X156998502Y-92008086D01*
X157006269Y-92026252D01*
X157009743Y-92032822D01*
X157025832Y-92043053D01*
X157044007Y-92042350D01*
X157059220Y-92031044D01*
X157060291Y-92029487D01*
X157065551Y-92018622D01*
X157074330Y-91997433D01*
X157085747Y-91968184D01*
X157098916Y-91933141D01*
X157112953Y-91894567D01*
X157112994Y-91894452D01*
X157144299Y-91807326D01*
X157171374Y-91732577D01*
X157194207Y-91670243D01*
X157212783Y-91620360D01*
X157227088Y-91582966D01*
X157237109Y-91558098D01*
X157242831Y-91545793D01*
X157244042Y-91544360D01*
X157247380Y-91550326D01*
X157254354Y-91566909D01*
X157264195Y-91592137D01*
X157276131Y-91624041D01*
X157288946Y-91659390D01*
X157305669Y-91706198D01*
X157325023Y-91760373D01*
X157345152Y-91816721D01*
X157364201Y-91870050D01*
X157374107Y-91897786D01*
X157392438Y-91947646D01*
X157407761Y-91985811D01*
X157420673Y-92013431D01*
X157431773Y-92031651D01*
X157441656Y-92041620D01*
X157450451Y-92044491D01*
X157457268Y-92042558D01*
X157464547Y-92035990D01*
X157472824Y-92023638D01*
X157482635Y-92004353D01*
X157494515Y-91976983D01*
X157508999Y-91940379D01*
X157526624Y-91893392D01*
X157547403Y-91836314D01*
X157565710Y-91785414D01*
X157583467Y-91735779D01*
X157599905Y-91689576D01*
X157614258Y-91648970D01*
X157625758Y-91616126D01*
X157633637Y-91593211D01*
X157634735Y-91589937D01*
X157643910Y-91563651D01*
X157650363Y-91548758D01*
X157654922Y-91543797D01*
X157658418Y-91547306D01*
X157658647Y-91547836D01*
X157662095Y-91556959D01*
X157669506Y-91577152D01*
X157680341Y-91606932D01*
X157694063Y-91644814D01*
X157710135Y-91689315D01*
X157728019Y-91738951D01*
X157747177Y-91792236D01*
X157747963Y-91794426D01*
X157767280Y-91847634D01*
X157785610Y-91897028D01*
X157802386Y-91941158D01*
X157817039Y-91978574D01*
X157829002Y-92007826D01*
X157837705Y-92027467D01*
X157842582Y-92036045D01*
X157842712Y-92036156D01*
X157861880Y-92043869D01*
X157881364Y-92040988D01*
X157892344Y-92032822D01*
X157896925Y-92023940D01*
X157905405Y-92004024D01*
X157917209Y-91974601D01*
X157931761Y-91937199D01*
X157948486Y-91893348D01*
X157966808Y-91844577D01*
X157986154Y-91792413D01*
X158005946Y-91738386D01*
X158025611Y-91684024D01*
X158044572Y-91630856D01*
X158058106Y-91592337D01*
X158067639Y-91566758D01*
X158076028Y-91547430D01*
X158082156Y-91536761D01*
X158084438Y-91535656D01*
X158088246Y-91543584D01*
X158095504Y-91561699D01*
X158105287Y-91587589D01*
X158116671Y-91618843D01*
X158121021Y-91631049D01*
X158132686Y-91663936D01*
X158142900Y-91692652D01*
X158150769Y-91714689D01*
X158155398Y-91727541D01*
X158156089Y-91729409D01*
X158159824Y-91731636D01*
X158169844Y-91733459D01*
X158187164Y-91734911D01*
X158212797Y-91736024D01*
X158247756Y-91736831D01*
X158293057Y-91737366D01*
X158349712Y-91737659D01*
X158415286Y-91737744D01*
X158671307Y-91737744D01*
X158671268Y-91772753D01*
X158670212Y-91795152D01*
X158667418Y-91825583D01*
X158663394Y-91858931D01*
X158661251Y-91873957D01*
X158636174Y-91997275D01*
X158599325Y-92115340D01*
X158551414Y-92227602D01*
X158493149Y-92333506D01*
X158425241Y-92432502D01*
X158348399Y-92524037D01*
X158263332Y-92607559D01*
X158170749Y-92682516D01*
X158071361Y-92748355D01*
X157965876Y-92804525D01*
X157855004Y-92850473D01*
X157739454Y-92885646D01*
X157619935Y-92909494D01*
X157497158Y-92921464D01*
X157371831Y-92921003D01*
X157320953Y-92917196D01*
X157196033Y-92898662D01*
X157074084Y-92867456D01*
X156956135Y-92824101D01*
X156843215Y-92769120D01*
X156736354Y-92703035D01*
X156636581Y-92626370D01*
X156544926Y-92539647D01*
X156516206Y-92508426D01*
X156439714Y-92412769D01*
X156371999Y-92308510D01*
X156314703Y-92198311D01*
X156290791Y-92142610D01*
X156273340Y-92093872D01*
X156256696Y-92038017D01*
X156241579Y-91978362D01*
X156228707Y-91918222D01*
X156218797Y-91860913D01*
X156212567Y-91809751D01*
X156210700Y-91772753D01*
X156210661Y-91737744D01*
X156336180Y-91737744D01*
X156461699Y-91737744D01*
X156513921Y-91872780D01*
X156533516Y-91923389D01*
X156548996Y-91962928D01*
X156561065Y-91992762D01*
X156570430Y-92014256D01*
X156577795Y-92028775D01*
X156583865Y-92037683D01*
X156589347Y-92042346D01*
X156594946Y-92044129D01*
X156601366Y-92044396D01*
X156602602Y-92044389D01*
X156619400Y-92042403D01*
X156629346Y-92038845D01*
X156632258Y-92035096D01*
X156636905Y-92026062D01*
X156643577Y-92010986D01*
X156652568Y-91989112D01*
X156664169Y-91959682D01*
X156678673Y-91921940D01*
X156696371Y-91875128D01*
X156717557Y-91818488D01*
X156742522Y-91751265D01*
X156771558Y-91672701D01*
X156790598Y-91621047D01*
X156822527Y-91534357D01*
X156832095Y-91557697D01*
G37*
G36*
X157564201Y-90482913D02*
G01*
X157641019Y-90492813D01*
X157719090Y-90508703D01*
X157742506Y-90514469D01*
X157862819Y-90550898D01*
X157974702Y-90597004D01*
X158079515Y-90653560D01*
X158178615Y-90721343D01*
X158273360Y-90801126D01*
X158314588Y-90840801D01*
X158400819Y-90935099D01*
X158474546Y-91033253D01*
X158536252Y-91136087D01*
X158586420Y-91244423D01*
X158625534Y-91359085D01*
X158631409Y-91380351D01*
X158641610Y-91422338D01*
X158651172Y-91468564D01*
X158659500Y-91515451D01*
X158665999Y-91559421D01*
X158670073Y-91596896D01*
X158671185Y-91619380D01*
X158671307Y-91644386D01*
X158451249Y-91644386D01*
X158398590Y-91644320D01*
X158350450Y-91644131D01*
X158308381Y-91643837D01*
X158273938Y-91643453D01*
X158248675Y-91642995D01*
X158234147Y-91642479D01*
X158231191Y-91642107D01*
X158228919Y-91634116D01*
X158222624Y-91615763D01*
X158213085Y-91589127D01*
X158201084Y-91556287D01*
X158187402Y-91519322D01*
X158172819Y-91480312D01*
X158158116Y-91441335D01*
X158144075Y-91404472D01*
X158131474Y-91371800D01*
X158121097Y-91345400D01*
X158113722Y-91327349D01*
X158110136Y-91319734D01*
X158097598Y-91313146D01*
X158079183Y-91311245D01*
X158061466Y-91314044D01*
X158052287Y-91319592D01*
X158049385Y-91324789D01*
X158044475Y-91336084D01*
X158037284Y-91354225D01*
X158027536Y-91379961D01*
X158014958Y-91414037D01*
X157999276Y-91457203D01*
X157980214Y-91510206D01*
X157957499Y-91573794D01*
X157930857Y-91648715D01*
X157910165Y-91707056D01*
X157895422Y-91748464D01*
X157884377Y-91778615D01*
X157876331Y-91798841D01*
X157870586Y-91810475D01*
X157866444Y-91814851D01*
X157863204Y-91813302D01*
X157860169Y-91807160D01*
X157859122Y-91804428D01*
X157855462Y-91794443D01*
X157847828Y-91773450D01*
X157836777Y-91742987D01*
X157822865Y-91704591D01*
X157806650Y-91659799D01*
X157788687Y-91610146D01*
X157770930Y-91561031D01*
X157751773Y-91508459D01*
X157733653Y-91459556D01*
X157717149Y-91415819D01*
X157702838Y-91378746D01*
X157691299Y-91349835D01*
X157683109Y-91330584D01*
X157678980Y-91322635D01*
X157664891Y-91313863D01*
X157646853Y-91311256D01*
X157631061Y-91315207D01*
X157626283Y-91319301D01*
X157621248Y-91329189D01*
X157613458Y-91348179D01*
X157604346Y-91372711D01*
X157601443Y-91380984D01*
X157594262Y-91401589D01*
X157583851Y-91431263D01*
X157570909Y-91468028D01*
X157556138Y-91509904D01*
X157540236Y-91554912D01*
X157523906Y-91601074D01*
X157507848Y-91646411D01*
X157492761Y-91688943D01*
X157479347Y-91726692D01*
X157468306Y-91757678D01*
X157460338Y-91779924D01*
X157456278Y-91791091D01*
X157451006Y-91801776D01*
X157446504Y-91800639D01*
X157444771Y-91797760D01*
X157441387Y-91789361D01*
X157434082Y-91769864D01*
X157423390Y-91740742D01*
X157409847Y-91703468D01*
X157393988Y-91659514D01*
X157376348Y-91610352D01*
X157357548Y-91557697D01*
X157338644Y-91504886D01*
X157320927Y-91455892D01*
X157304941Y-91412177D01*
X157291225Y-91375201D01*
X157280322Y-91346422D01*
X157272773Y-91327302D01*
X157269120Y-91319301D01*
X157255752Y-91311620D01*
X157237899Y-91311805D01*
X157221282Y-91319139D01*
X157214640Y-91326118D01*
X157209441Y-91336858D01*
X157200694Y-91358036D01*
X157189233Y-91387497D01*
X157175893Y-91423084D01*
X157161510Y-91462641D01*
X157158469Y-91471156D01*
X157130983Y-91548194D01*
X157107569Y-91613428D01*
X157087926Y-91667653D01*
X157071749Y-91711665D01*
X157058738Y-91746259D01*
X157048589Y-91772229D01*
X157041001Y-91790371D01*
X157035670Y-91801480D01*
X157032294Y-91806351D01*
X157030927Y-91806470D01*
X157027717Y-91800121D01*
X157021420Y-91784700D01*
X157011857Y-91759716D01*
X156998847Y-91724678D01*
X156982211Y-91679097D01*
X156961769Y-91622481D01*
X156937339Y-91554341D01*
X156908744Y-91474185D01*
X156902950Y-91457911D01*
X156888681Y-91418348D01*
X156875502Y-91382804D01*
X156864191Y-91353304D01*
X156855530Y-91331870D01*
X156850296Y-91320528D01*
X156849645Y-91319541D01*
X156836609Y-91312591D01*
X156818618Y-91311545D01*
X156802647Y-91316340D01*
X156798295Y-91319988D01*
X156793658Y-91329006D01*
X156785489Y-91348358D01*
X156774678Y-91375795D01*
X156762116Y-91409068D01*
X156751413Y-91438352D01*
X156736101Y-91480645D01*
X156719391Y-91526440D01*
X156701903Y-91574073D01*
X156684256Y-91621885D01*
X156667069Y-91668212D01*
X156650962Y-91711395D01*
X156636553Y-91749769D01*
X156624461Y-91781675D01*
X156615307Y-91805450D01*
X156609709Y-91819433D01*
X156608274Y-91822480D01*
X156605225Y-91817484D01*
X156598454Y-91802270D01*
X156588924Y-91779113D01*
X156577594Y-91750282D01*
X156576021Y-91746191D01*
X156564183Y-91715222D01*
X156553848Y-91688034D01*
X156546093Y-91667463D01*
X156541990Y-91656345D01*
X156541888Y-91656056D01*
X156539694Y-91652421D01*
X156534908Y-91649625D01*
X156525959Y-91647560D01*
X156511276Y-91646117D01*
X156489287Y-91645187D01*
X156458421Y-91644661D01*
X156417108Y-91644431D01*
X156373263Y-91644386D01*
X156208694Y-91644386D01*
X156213033Y-91587932D01*
X156228710Y-91469652D01*
X156256977Y-91353737D01*
X156297164Y-91241117D01*
X156348602Y-91132723D01*
X156410621Y-91029485D01*
X156482551Y-90932334D01*
X156563723Y-90842200D01*
X156653468Y-90760014D01*
X156751115Y-90686705D01*
X156855996Y-90623206D01*
X156935347Y-90584200D01*
X157039706Y-90542635D01*
X157142957Y-90512074D01*
X157248570Y-90491727D01*
X157360015Y-90480801D01*
X157395958Y-90479214D01*
X157484045Y-90478536D01*
X157564201Y-90482913D01*
G37*
D10*
%TO.C,C9*%
X152412164Y-96050000D02*
X152627836Y-96050000D01*
X152412164Y-96650000D02*
X152627836Y-96650000D01*
X152520000Y-96650000D02*
X152520000Y-96050000D01*
%TO.C,C25*%
X139125000Y-105197164D02*
X139125000Y-105412836D01*
X139125000Y-105305000D02*
X139725000Y-105305000D01*
X139725000Y-105197164D02*
X139725000Y-105412836D01*
%TO.C,R22*%
X152673641Y-97720000D02*
X152366359Y-97720000D01*
X152673641Y-98480000D02*
X152366359Y-98480000D01*
%TO.C,R3*%
X142095000Y-104898641D02*
X142095000Y-104591359D01*
X142855000Y-104898641D02*
X142855000Y-104591359D01*
%TO.C,R15*%
X138800000Y-95201359D02*
X138800000Y-95508641D01*
X139560000Y-95201359D02*
X139560000Y-95508641D01*
%TO.C,C11*%
X146875000Y-104637164D02*
X146875000Y-104852836D01*
X146875000Y-104745000D02*
X147475000Y-104745000D01*
X147475000Y-104637164D02*
X147475000Y-104852836D01*
D14*
%TO.C,U1*%
X141557864Y-98665434D02*
X141890204Y-98333094D01*
X141557864Y-98665434D02*
X141890204Y-98997774D01*
X146507611Y-93715687D02*
X146175271Y-94048027D01*
X146507611Y-93715687D02*
X146839951Y-94048027D01*
X146507611Y-103615181D02*
X146175271Y-103282841D01*
X146507611Y-103615181D02*
X146839951Y-103282841D01*
X151457358Y-98665434D02*
X151125018Y-98333094D01*
X151457358Y-98665434D02*
X151125018Y-98997774D01*
D15*
X145292141Y-93980852D02*
G75*
G02*
X145142141Y-93980852I-75000J0D01*
G01*
X145142141Y-93980852D02*
G75*
G02*
X145292141Y-93980852I75000J0D01*
G01*
D16*
%TO.C,Y2*%
X151250000Y-93037500D02*
X151250000Y-93437500D01*
X151650000Y-93037500D02*
X151250000Y-93037500D01*
D10*
%TO.C,R13*%
X156573641Y-106795000D02*
X156266359Y-106795000D01*
X156573641Y-107555000D02*
X156266359Y-107555000D01*
%TO.C,C5*%
X141275000Y-93702836D02*
X141275000Y-93487164D01*
X141875000Y-93595000D02*
X141275000Y-93595000D01*
X141875000Y-93702836D02*
X141875000Y-93487164D01*
%TO.C,C29*%
X156350000Y-95202836D02*
X156350000Y-94987164D01*
X156950000Y-95095000D02*
X156350000Y-95095000D01*
X156950000Y-95202836D02*
X156950000Y-94987164D01*
%TO.C,L3*%
X155715000Y-109025378D02*
X155715000Y-109824622D01*
X156835000Y-109025378D02*
X156835000Y-109824622D01*
%TO.C,C13*%
X139537163Y-103375000D02*
X139752837Y-103375000D01*
X139537163Y-103975000D02*
X139752837Y-103975000D01*
%TO.C,R11*%
X149595000Y-104898641D02*
X149595000Y-104591359D01*
X150355000Y-104898641D02*
X150355000Y-104591359D01*
%TO.C,C8*%
X142100000Y-93702836D02*
X142100000Y-93487164D01*
X142700000Y-93595000D02*
X142100000Y-93595000D01*
X142700000Y-93702836D02*
X142700000Y-93487164D01*
D15*
%TO.C,U7*%
X153550000Y-101625000D02*
X153550000Y-99575000D01*
X156350000Y-96100000D02*
X158250000Y-96100000D01*
X158325000Y-105000000D02*
X156324999Y-105000000D01*
X161050000Y-99150000D02*
X161050000Y-97150000D01*
X161050000Y-103450000D02*
X161050000Y-101450000D01*
X153275737Y-95700000D02*
G75*
G02*
X153074263Y-95700000I-100737J0D01*
G01*
X153074263Y-95700000D02*
G75*
G02*
X153275737Y-95700000I100737J0D01*
G01*
D10*
%TO.C,C15*%
X145027837Y-90230000D02*
X144812163Y-90230000D01*
X145027837Y-90830000D02*
X144812163Y-90830000D01*
%TO.C,C4*%
X140450000Y-93702836D02*
X140450000Y-93487164D01*
X140750000Y-93661418D02*
X140750000Y-93528582D01*
X140841418Y-93595000D02*
X140658582Y-93595000D01*
X141050000Y-93702836D02*
X141050000Y-93487164D01*
%TO.C,U6*%
X145250000Y-111150000D02*
X145250000Y-110900000D01*
X145250000Y-111160000D02*
X145550000Y-111160000D01*
X151450000Y-105950000D02*
X151150000Y-105950000D01*
X151450000Y-105960000D02*
X151450000Y-106210000D01*
D15*
X145300000Y-105950000D02*
G75*
G02*
X145100000Y-105950000I-100000J0D01*
G01*
X145100000Y-105950000D02*
G75*
G02*
X145300000Y-105950000I100000J0D01*
G01*
D10*
%TO.C,C10*%
X141895000Y-100750000D02*
X141895000Y-101350000D01*
X142002836Y-100750000D02*
X141787164Y-100750000D01*
X142002836Y-101350000D02*
X141787164Y-101350000D01*
%TO.C,C39*%
X140319098Y-109699664D02*
X140319098Y-109915336D01*
X140319098Y-109807500D02*
X140919098Y-109807500D01*
X140919098Y-109699664D02*
X140919098Y-109915336D01*
%TO.C,C7*%
X149050000Y-93537836D02*
X149050000Y-93322164D01*
X149350000Y-93496418D02*
X149350000Y-93363582D01*
X149441418Y-93430000D02*
X149258582Y-93430000D01*
X149650000Y-93537836D02*
X149650000Y-93322164D01*
%TO.C,C27*%
X159796919Y-94840000D02*
X160078081Y-94840000D01*
X159796919Y-95860000D02*
X160078081Y-95860000D01*
%TO.C,C34*%
X152228081Y-104102500D02*
X151946919Y-104102500D01*
X152228081Y-105122500D02*
X151946919Y-105122500D01*
%TO.C,C33*%
X152545000Y-99658582D02*
X152545000Y-99841418D01*
X152611418Y-99750000D02*
X152478582Y-99750000D01*
X152652836Y-99450000D02*
X152437164Y-99450000D01*
X152652836Y-100050000D02*
X152437164Y-100050000D01*
%TO.C,R17*%
X152366359Y-102320000D02*
X152673641Y-102320000D01*
X152366359Y-103080000D02*
X152673641Y-103080000D01*
%TO.C,C1*%
X138900000Y-93261252D02*
X138900000Y-92738748D01*
X140250000Y-93261252D02*
X140250000Y-92738748D01*
%TO.C,C6*%
X146050000Y-104637164D02*
X146050000Y-104852836D01*
X146258582Y-104745000D02*
X146441418Y-104745000D01*
X146350000Y-104678582D02*
X146350000Y-104811418D01*
X146650000Y-104637164D02*
X146650000Y-104852836D01*
%TO.C,C24*%
X139532164Y-98370000D02*
X139747836Y-98370000D01*
X139532164Y-98970000D02*
X139747836Y-98970000D01*
X139640000Y-98970000D02*
X139640000Y-98370000D01*
%TO.C,C23*%
X139532164Y-99170000D02*
X139747836Y-99170000D01*
X139532164Y-99770000D02*
X139747836Y-99770000D01*
X139640000Y-99770000D02*
X139640000Y-99520000D01*
%TO.C,R9*%
X148670000Y-104591359D02*
X148670000Y-104898641D01*
X149430000Y-104591359D02*
X149430000Y-104898641D01*
%TO.C,R8*%
X152366359Y-101095000D02*
X152673641Y-101095000D01*
X152366359Y-101855000D02*
X152673641Y-101855000D01*
%TO.C,C35*%
X143725000Y-109699664D02*
X143725000Y-109915336D01*
X143725000Y-109807500D02*
X144325000Y-109807500D01*
X144325000Y-109699664D02*
X144325000Y-109915336D01*
%TO.C,C38*%
X157150000Y-95202836D02*
X157150000Y-94987164D01*
X157450000Y-95161418D02*
X157450000Y-95028582D01*
X157541418Y-95095000D02*
X157358582Y-95095000D01*
X157750000Y-95202836D02*
X157750000Y-94987164D01*
%TO.C,C22*%
X140720000Y-96972164D02*
X140720000Y-97187836D01*
X140720000Y-97080000D02*
X141320000Y-97080000D01*
X141320000Y-96972164D02*
X141320000Y-97187836D01*
%TO.C,C18*%
X152600000Y-106202836D02*
X152600000Y-105987164D01*
X152900000Y-106161418D02*
X152900000Y-106028582D01*
X152991418Y-106095000D02*
X152808582Y-106095000D01*
X153200000Y-106202836D02*
X153200000Y-105987164D01*
%TO.C,U8*%
X141640000Y-108872500D02*
X141640000Y-108587500D01*
D16*
X141800000Y-105912500D02*
X142000000Y-105706250D01*
X142000000Y-106362500D02*
X142000000Y-105712500D01*
X142200000Y-105912500D02*
X142000000Y-105706250D01*
D10*
X142315000Y-108872500D02*
X141640000Y-108872500D01*
D16*
X142450000Y-105940625D02*
X142325000Y-105762500D01*
X142450000Y-106137500D02*
X142450000Y-105937500D01*
X142575000Y-105762500D02*
X142446875Y-105937500D01*
D10*
X144185000Y-106152500D02*
X144860000Y-106152500D01*
X144185000Y-108872500D02*
X145075000Y-108872500D01*
X144860000Y-106152500D02*
X144860000Y-106462500D01*
D16*
X144871875Y-108662500D02*
X145078125Y-108862499D01*
X144871875Y-109087499D02*
X145078125Y-108887500D01*
X144887500Y-108525000D02*
X145112500Y-108237500D01*
X145112500Y-108525000D02*
X144887500Y-108237500D01*
D17*
X141580901Y-106762500D02*
G75*
G02*
X141419099Y-106762500I-80901J0D01*
G01*
X141419099Y-106762500D02*
G75*
G02*
X141580901Y-106762500I80901J0D01*
G01*
D10*
%TO.C,C21*%
X152225000Y-110287164D02*
X152225000Y-110502836D01*
X152225000Y-110395000D02*
X152825000Y-110395000D01*
X152825000Y-110287164D02*
X152825000Y-110502836D01*
%TO.C,R5*%
X143945000Y-104591359D02*
X143945000Y-104898641D01*
X144705000Y-104591359D02*
X144705000Y-104898641D01*
%TO.C,C28*%
X142019098Y-109699664D02*
X142019098Y-109915336D01*
X142227680Y-109807500D02*
X142410516Y-109807500D01*
X142319098Y-109741082D02*
X142319098Y-109873918D01*
X142619098Y-109699664D02*
X142619098Y-109915336D01*
%TO.C,R12*%
X156573641Y-105870000D02*
X156266359Y-105870000D01*
X156573641Y-106630000D02*
X156266359Y-106630000D01*
%TO.C,C12*%
X148250000Y-93537836D02*
X148250000Y-93322164D01*
X148850000Y-93430000D02*
X148600000Y-93430000D01*
X148850000Y-93537836D02*
X148850000Y-93322164D01*
%TO.C,R14*%
X139700000Y-95201359D02*
X139700000Y-95508641D01*
X140460000Y-95201359D02*
X140460000Y-95508641D01*
D16*
%TO.C,U5*%
X140225000Y-106537500D02*
X140225000Y-106537500D01*
X140275000Y-106512500D02*
X140275000Y-106587500D01*
X141400000Y-104362500D02*
X140000000Y-104362500D01*
X141400000Y-106262500D02*
X140000000Y-106262500D01*
X140175000Y-106537500D02*
G75*
G02*
X140375000Y-106537500I100000J0D01*
G01*
X140378078Y-106537500D02*
G75*
G02*
X140175000Y-106512500I-103078J0D01*
G01*
D10*
%TO.C,R1*%
X140590000Y-95201359D02*
X140590000Y-95508641D01*
X141350000Y-95201359D02*
X141350000Y-95508641D01*
%TO.C,C16*%
X145037837Y-91050000D02*
X144822163Y-91050000D01*
X145037837Y-91650000D02*
X144822163Y-91650000D01*
%TO.C,C2*%
X139537163Y-99975000D02*
X139752837Y-99975000D01*
X139537163Y-100575000D02*
X139752837Y-100575000D01*
%TO.C,C14*%
X151893413Y-95143750D02*
X152109087Y-95143750D01*
X151893413Y-95743750D02*
X152109087Y-95743750D01*
%TO.C,U3*%
X153925000Y-107100000D02*
X151925000Y-107100000D01*
X153925000Y-109475000D02*
X151925000Y-109475000D01*
D18*
X151813737Y-108975000D02*
G75*
G02*
X151636263Y-108975000I-88737J0D01*
G01*
X151636263Y-108975000D02*
G75*
G02*
X151813737Y-108975000I88737J0D01*
G01*
D10*
%TO.C,C19*%
X153050000Y-110287164D02*
X153050000Y-110502836D01*
X153050000Y-110395000D02*
X153300000Y-110395000D01*
X153650000Y-110287164D02*
X153650000Y-110502836D01*
D16*
%TO.C,U10*%
X141319098Y-107925500D02*
X141319098Y-107925500D01*
X141319098Y-107925500D02*
X141419098Y-107925500D01*
X141269098Y-107925500D02*
G75*
G02*
X141469098Y-107925500I100000J0D01*
G01*
X141469098Y-107925500D02*
G75*
G02*
X141269098Y-107925500I-100000J0D01*
G01*
D10*
%TO.C,C32*%
X157950000Y-95202836D02*
X157950000Y-94987164D01*
X158250000Y-95161418D02*
X158250000Y-95028582D01*
X158341418Y-95095000D02*
X158158582Y-95095000D01*
X158550000Y-95202836D02*
X158550000Y-94987164D01*
%TO.C,R21*%
X152673641Y-96820000D02*
X152366359Y-96820000D01*
X152673641Y-97580000D02*
X152366359Y-97580000D01*
%TO.C,R6*%
X144870000Y-104591359D02*
X144870000Y-104898641D01*
X145630000Y-104591359D02*
X145630000Y-104898641D01*
%TO.C,R20*%
X154520000Y-95233641D02*
X154520000Y-94926359D01*
X155280000Y-95233641D02*
X155280000Y-94926359D01*
%TO.C,R10*%
X158348641Y-105870000D02*
X158041359Y-105870000D01*
X158348641Y-106630000D02*
X158041359Y-106630000D01*
%TO.C,C17*%
X159675000Y-107858748D02*
X159675000Y-108381252D01*
X161025000Y-107858748D02*
X161025000Y-108381252D01*
%TO.C,C20*%
X158513748Y-109675000D02*
X159036252Y-109675000D01*
X158513748Y-111025000D02*
X159036252Y-111025000D01*
%TO.C,C30*%
X153525000Y-105987164D02*
X153525000Y-106202836D01*
X153525000Y-106095000D02*
X154125000Y-106095000D01*
X154125000Y-105987164D02*
X154125000Y-106202836D01*
%TO.C,R2*%
X155420000Y-94926359D02*
X155420000Y-95233641D01*
X156180000Y-94926359D02*
X156180000Y-95233641D01*
%TO.C,R19*%
X152366359Y-100195000D02*
X152673641Y-100195000D01*
X152366359Y-100955000D02*
X152673641Y-100955000D01*
D16*
%TO.C,U2*%
X157525000Y-109200000D02*
X159325000Y-109200000D01*
X157550000Y-107606250D02*
X157550000Y-106993750D01*
X159300000Y-107606250D02*
X159300000Y-106993750D01*
D15*
X157225000Y-107800000D02*
G75*
G02*
X157025000Y-107800000I-100000J0D01*
G01*
X157025000Y-107800000D02*
G75*
G02*
X157225000Y-107800000I100000J0D01*
G01*
D14*
%TO.C,ANT1*%
X147500000Y-89086500D02*
X147500000Y-88713500D01*
X150686500Y-87900000D02*
X149313500Y-87900000D01*
X150686500Y-89900000D02*
X149313500Y-89900000D01*
X152500000Y-89086500D02*
X152500000Y-88713500D01*
D11*
X147350000Y-90200000D02*
G75*
G02*
X147200000Y-90200000I-75000J0D01*
G01*
X147200000Y-90200000D02*
G75*
G02*
X147350000Y-90200000I75000J0D01*
G01*
%TD*%
%LPC*%
D13*
G36*
X146860000Y-88725000D02*
G01*
X142797500Y-88725000D01*
X139025000Y-88725000D01*
X138990000Y-88730000D01*
X138930000Y-88750000D01*
X138825000Y-88825000D01*
X138750000Y-88930000D01*
X138730000Y-88990000D01*
X138725000Y-89025000D01*
X138725000Y-110975000D01*
X138737642Y-111034148D01*
X138782912Y-111143440D01*
X138866560Y-111227088D01*
X138975852Y-111272358D01*
X139035000Y-111275000D01*
X160985000Y-111275000D01*
X161044148Y-111272358D01*
X161153440Y-111227088D01*
X161237088Y-111143440D01*
X161282358Y-111034148D01*
X161285000Y-110975000D01*
X161285000Y-89025000D01*
X161280000Y-88990000D01*
X161260000Y-88930000D01*
X161185000Y-88825000D01*
X161080000Y-88750000D01*
X161020000Y-88730000D01*
X160985000Y-88725000D01*
X153160000Y-88725000D01*
X153160000Y-87700000D01*
X161610000Y-87700000D01*
X161860000Y-87775000D01*
X162085000Y-87925000D01*
X162235000Y-88150000D01*
X162310000Y-88400000D01*
X162310000Y-111600000D01*
X162260000Y-111775000D01*
X162210000Y-111900000D01*
X162085000Y-112050000D01*
X162010000Y-112125000D01*
X161810000Y-112250000D01*
X161610000Y-112300000D01*
X138410000Y-112300000D01*
X138222500Y-112250000D01*
X138035000Y-112150000D01*
X137910000Y-112025000D01*
X137810000Y-111900000D01*
X137735000Y-111700000D01*
X137710000Y-111600000D01*
X137710000Y-88400000D01*
X137785000Y-88150000D01*
X137935000Y-87925000D01*
X138160000Y-87775000D01*
X138410000Y-87700000D01*
X146860000Y-87700000D01*
X146860000Y-88725000D01*
G37*
D19*
X153775000Y-91050000D02*
X146075000Y-91050000D01*
X146075000Y-90500000D01*
X153150000Y-90500000D01*
X153150000Y-88350000D01*
X153775000Y-88350000D01*
X153775000Y-91050000D01*
G36*
X153775000Y-91050000D02*
G01*
X146075000Y-91050000D01*
X146075000Y-90500000D01*
X153150000Y-90500000D01*
X153150000Y-88350000D01*
X153775000Y-88350000D01*
X153775000Y-91050000D01*
G37*
X146850000Y-91050000D02*
X145875000Y-91050000D01*
X145875000Y-90175000D01*
X146850000Y-90175000D01*
X146850000Y-91050000D01*
G36*
X146850000Y-91050000D02*
G01*
X145875000Y-91050000D01*
X145875000Y-90175000D01*
X146850000Y-90175000D01*
X146850000Y-91050000D01*
G37*
D16*
X161450000Y-105750000D02*
X154900000Y-105750347D01*
X154900000Y-111300000D01*
X154377476Y-111300000D01*
X154377476Y-105250000D01*
X161450000Y-105250000D01*
X161450000Y-105750000D01*
G36*
X161450000Y-105750000D02*
G01*
X154900000Y-105750347D01*
X154900000Y-111300000D01*
X154377476Y-111300000D01*
X154377476Y-105250000D01*
X161450000Y-105250000D01*
X161450000Y-105750000D01*
G37*
D19*
%TO.C,U1*%
X142685699Y-98294203D02*
X142459425Y-98520477D01*
X141794744Y-97855797D01*
X142021018Y-97629523D01*
X142685699Y-98294203D01*
G36*
X142685699Y-98294203D02*
G01*
X142459425Y-98520477D01*
X141794744Y-97855797D01*
X142021018Y-97629523D01*
X142685699Y-98294203D01*
G37*
X142968542Y-98011360D02*
X142742267Y-98237634D01*
X142077587Y-97572954D01*
X142303861Y-97346680D01*
X142968542Y-98011360D01*
G36*
X142968542Y-98011360D02*
G01*
X142742267Y-98237634D01*
X142077587Y-97572954D01*
X142303861Y-97346680D01*
X142968542Y-98011360D01*
G37*
X142685699Y-99036665D02*
X142021018Y-99701345D01*
X141794744Y-99475071D01*
X142459425Y-98810391D01*
X142685699Y-99036665D01*
G36*
X142685699Y-99036665D02*
G01*
X142021018Y-99701345D01*
X141794744Y-99475071D01*
X142459425Y-98810391D01*
X142685699Y-99036665D01*
G37*
X143251384Y-97728518D02*
X143025110Y-97954792D01*
X142360430Y-97290111D01*
X142586704Y-97063837D01*
X143251384Y-97728518D01*
G36*
X143251384Y-97728518D02*
G01*
X143025110Y-97954792D01*
X142360430Y-97290111D01*
X142586704Y-97063837D01*
X143251384Y-97728518D01*
G37*
X142968542Y-99319508D02*
X142303861Y-99984188D01*
X142077587Y-99757914D01*
X142742267Y-99093234D01*
X142968542Y-99319508D01*
G36*
X142968542Y-99319508D02*
G01*
X142303861Y-99984188D01*
X142077587Y-99757914D01*
X142742267Y-99093234D01*
X142968542Y-99319508D01*
G37*
X143534227Y-97445675D02*
X143307953Y-97671949D01*
X142643272Y-97007269D01*
X142869547Y-96780994D01*
X143534227Y-97445675D01*
G36*
X143534227Y-97445675D02*
G01*
X143307953Y-97671949D01*
X142643272Y-97007269D01*
X142869547Y-96780994D01*
X143534227Y-97445675D01*
G37*
X143251384Y-99602350D02*
X142586704Y-100267031D01*
X142360430Y-100040757D01*
X143025110Y-99376076D01*
X143251384Y-99602350D01*
G36*
X143251384Y-99602350D02*
G01*
X142586704Y-100267031D01*
X142360430Y-100040757D01*
X143025110Y-99376076D01*
X143251384Y-99602350D01*
G37*
X143817070Y-97162832D02*
X143590796Y-97389106D01*
X142926115Y-96724426D01*
X143152389Y-96498152D01*
X143817070Y-97162832D01*
G36*
X143817070Y-97162832D02*
G01*
X143590796Y-97389106D01*
X142926115Y-96724426D01*
X143152389Y-96498152D01*
X143817070Y-97162832D01*
G37*
X143534227Y-99885193D02*
X142869547Y-100549874D01*
X142643272Y-100323599D01*
X143307953Y-99658919D01*
X143534227Y-99885193D01*
G36*
X143534227Y-99885193D02*
G01*
X142869547Y-100549874D01*
X142643272Y-100323599D01*
X143307953Y-99658919D01*
X143534227Y-99885193D01*
G37*
X144099912Y-96879989D02*
X143873638Y-97106264D01*
X143208958Y-96441583D01*
X143435232Y-96215309D01*
X144099912Y-96879989D01*
G36*
X144099912Y-96879989D02*
G01*
X143873638Y-97106264D01*
X143208958Y-96441583D01*
X143435232Y-96215309D01*
X144099912Y-96879989D01*
G37*
X143817070Y-100168036D02*
X143152389Y-100832716D01*
X142926115Y-100606442D01*
X143590796Y-99941762D01*
X143817070Y-100168036D01*
G36*
X143817070Y-100168036D02*
G01*
X143152389Y-100832716D01*
X142926115Y-100606442D01*
X143590796Y-99941762D01*
X143817070Y-100168036D01*
G37*
X144382755Y-96597147D02*
X144156481Y-96823421D01*
X143491801Y-96158740D01*
X143718075Y-95932466D01*
X144382755Y-96597147D01*
G36*
X144382755Y-96597147D02*
G01*
X144156481Y-96823421D01*
X143491801Y-96158740D01*
X143718075Y-95932466D01*
X144382755Y-96597147D01*
G37*
X144099912Y-100450879D02*
X143435232Y-101115559D01*
X143208958Y-100889285D01*
X143873638Y-100224604D01*
X144099912Y-100450879D01*
G36*
X144099912Y-100450879D02*
G01*
X143435232Y-101115559D01*
X143208958Y-100889285D01*
X143873638Y-100224604D01*
X144099912Y-100450879D01*
G37*
X144665598Y-96314304D02*
X144439324Y-96540578D01*
X143774643Y-95875898D01*
X144000917Y-95649624D01*
X144665598Y-96314304D01*
G36*
X144665598Y-96314304D02*
G01*
X144439324Y-96540578D01*
X143774643Y-95875898D01*
X144000917Y-95649624D01*
X144665598Y-96314304D01*
G37*
X144382755Y-100733721D02*
X143718075Y-101398402D01*
X143491801Y-101172128D01*
X144156481Y-100507447D01*
X144382755Y-100733721D01*
G36*
X144382755Y-100733721D02*
G01*
X143718075Y-101398402D01*
X143491801Y-101172128D01*
X144156481Y-100507447D01*
X144382755Y-100733721D01*
G37*
X144948441Y-96031461D02*
X144722166Y-96257735D01*
X144057486Y-95593055D01*
X144283760Y-95366781D01*
X144948441Y-96031461D01*
G36*
X144948441Y-96031461D02*
G01*
X144722166Y-96257735D01*
X144057486Y-95593055D01*
X144283760Y-95366781D01*
X144948441Y-96031461D01*
G37*
X144665598Y-101016564D02*
X144000917Y-101681244D01*
X143774643Y-101454970D01*
X144439324Y-100790290D01*
X144665598Y-101016564D01*
G36*
X144665598Y-101016564D02*
G01*
X144000917Y-101681244D01*
X143774643Y-101454970D01*
X144439324Y-100790290D01*
X144665598Y-101016564D01*
G37*
X145231283Y-95748619D02*
X145005009Y-95974893D01*
X144340329Y-95310212D01*
X144566603Y-95083938D01*
X145231283Y-95748619D01*
G36*
X145231283Y-95748619D02*
G01*
X145005009Y-95974893D01*
X144340329Y-95310212D01*
X144566603Y-95083938D01*
X145231283Y-95748619D01*
G37*
X144948441Y-101299407D02*
X144283760Y-101964087D01*
X144057486Y-101737813D01*
X144722166Y-101073133D01*
X144948441Y-101299407D01*
G36*
X144948441Y-101299407D02*
G01*
X144283760Y-101964087D01*
X144057486Y-101737813D01*
X144722166Y-101073133D01*
X144948441Y-101299407D01*
G37*
X145514126Y-95465776D02*
X145287852Y-95692050D01*
X144623171Y-95027370D01*
X144849446Y-94801095D01*
X145514126Y-95465776D01*
G36*
X145514126Y-95465776D02*
G01*
X145287852Y-95692050D01*
X144623171Y-95027370D01*
X144849446Y-94801095D01*
X145514126Y-95465776D01*
G37*
X145231283Y-101582249D02*
X144566603Y-102246930D01*
X144340329Y-102020656D01*
X145005009Y-101355975D01*
X145231283Y-101582249D01*
G36*
X145231283Y-101582249D02*
G01*
X144566603Y-102246930D01*
X144340329Y-102020656D01*
X145005009Y-101355975D01*
X145231283Y-101582249D01*
G37*
X145796969Y-95182933D02*
X145570695Y-95409207D01*
X144906014Y-94744527D01*
X145132288Y-94518253D01*
X145796969Y-95182933D01*
G36*
X145796969Y-95182933D02*
G01*
X145570695Y-95409207D01*
X144906014Y-94744527D01*
X145132288Y-94518253D01*
X145796969Y-95182933D01*
G37*
X145514126Y-101865092D02*
X144849446Y-102529773D01*
X144623171Y-102303498D01*
X145287852Y-101638818D01*
X145514126Y-101865092D01*
G36*
X145514126Y-101865092D02*
G01*
X144849446Y-102529773D01*
X144623171Y-102303498D01*
X145287852Y-101638818D01*
X145514126Y-101865092D01*
G37*
X146079811Y-94900090D02*
X145853537Y-95126365D01*
X145188857Y-94461684D01*
X145415131Y-94235410D01*
X146079811Y-94900090D01*
G36*
X146079811Y-94900090D02*
G01*
X145853537Y-95126365D01*
X145188857Y-94461684D01*
X145415131Y-94235410D01*
X146079811Y-94900090D01*
G37*
X145796969Y-102147935D02*
X145132288Y-102812615D01*
X144906014Y-102586341D01*
X145570695Y-101921661D01*
X145796969Y-102147935D01*
G36*
X145796969Y-102147935D02*
G01*
X145132288Y-102812615D01*
X144906014Y-102586341D01*
X145570695Y-101921661D01*
X145796969Y-102147935D01*
G37*
X146362654Y-94617248D02*
X146136380Y-94843522D01*
X145471700Y-94178841D01*
X145697974Y-93952567D01*
X146362654Y-94617248D01*
G36*
X146362654Y-94617248D02*
G01*
X146136380Y-94843522D01*
X145471700Y-94178841D01*
X145697974Y-93952567D01*
X146362654Y-94617248D01*
G37*
X146079811Y-102430778D02*
X145415131Y-103095458D01*
X145188857Y-102869184D01*
X145853537Y-102204503D01*
X146079811Y-102430778D01*
G36*
X146079811Y-102430778D02*
G01*
X145415131Y-103095458D01*
X145188857Y-102869184D01*
X145853537Y-102204503D01*
X146079811Y-102430778D01*
G37*
X146362654Y-102713620D02*
X145697974Y-103378301D01*
X145471700Y-103152027D01*
X146136380Y-102487346D01*
X146362654Y-102713620D01*
G36*
X146362654Y-102713620D02*
G01*
X145697974Y-103378301D01*
X145471700Y-103152027D01*
X146136380Y-102487346D01*
X146362654Y-102713620D01*
G37*
X149336038Y-98665434D02*
X146507611Y-101493861D01*
X143679184Y-98665434D01*
X146507611Y-95837007D01*
X149336038Y-98665434D01*
G36*
X149336038Y-98665434D02*
G01*
X146507611Y-101493861D01*
X143679184Y-98665434D01*
X146507611Y-95837007D01*
X149336038Y-98665434D01*
G37*
X147543522Y-103152027D02*
X147317248Y-103378301D01*
X146652568Y-102713620D01*
X146878842Y-102487346D01*
X147543522Y-103152027D01*
G36*
X147543522Y-103152027D02*
G01*
X147317248Y-103378301D01*
X146652568Y-102713620D01*
X146878842Y-102487346D01*
X147543522Y-103152027D01*
G37*
X147826365Y-102869184D02*
X147600091Y-103095458D01*
X146935411Y-102430778D01*
X147161685Y-102204503D01*
X147826365Y-102869184D01*
G36*
X147826365Y-102869184D02*
G01*
X147600091Y-103095458D01*
X146935411Y-102430778D01*
X147161685Y-102204503D01*
X147826365Y-102869184D01*
G37*
X147543522Y-94178841D02*
X146878842Y-94843522D01*
X146652568Y-94617248D01*
X147317248Y-93952567D01*
X147543522Y-94178841D01*
G36*
X147543522Y-94178841D02*
G01*
X146878842Y-94843522D01*
X146652568Y-94617248D01*
X147317248Y-93952567D01*
X147543522Y-94178841D01*
G37*
X148109208Y-102586341D02*
X147882934Y-102812615D01*
X147218253Y-102147935D01*
X147444527Y-101921661D01*
X148109208Y-102586341D01*
G36*
X148109208Y-102586341D02*
G01*
X147882934Y-102812615D01*
X147218253Y-102147935D01*
X147444527Y-101921661D01*
X148109208Y-102586341D01*
G37*
X147826365Y-94461684D02*
X147161685Y-95126365D01*
X146935411Y-94900090D01*
X147600091Y-94235410D01*
X147826365Y-94461684D01*
G36*
X147826365Y-94461684D02*
G01*
X147161685Y-95126365D01*
X146935411Y-94900090D01*
X147600091Y-94235410D01*
X147826365Y-94461684D01*
G37*
X148392051Y-102303498D02*
X148165776Y-102529773D01*
X147501096Y-101865092D01*
X147727370Y-101638818D01*
X148392051Y-102303498D01*
G36*
X148392051Y-102303498D02*
G01*
X148165776Y-102529773D01*
X147501096Y-101865092D01*
X147727370Y-101638818D01*
X148392051Y-102303498D01*
G37*
X148109208Y-94744527D02*
X147444527Y-95409207D01*
X147218253Y-95182933D01*
X147882934Y-94518253D01*
X148109208Y-94744527D01*
G36*
X148109208Y-94744527D02*
G01*
X147444527Y-95409207D01*
X147218253Y-95182933D01*
X147882934Y-94518253D01*
X148109208Y-94744527D01*
G37*
X148674893Y-102020656D02*
X148448619Y-102246930D01*
X147783939Y-101582249D01*
X148010213Y-101355975D01*
X148674893Y-102020656D01*
G36*
X148674893Y-102020656D02*
G01*
X148448619Y-102246930D01*
X147783939Y-101582249D01*
X148010213Y-101355975D01*
X148674893Y-102020656D01*
G37*
X148392051Y-95027370D02*
X147727370Y-95692050D01*
X147501096Y-95465776D01*
X148165776Y-94801095D01*
X148392051Y-95027370D01*
G36*
X148392051Y-95027370D02*
G01*
X147727370Y-95692050D01*
X147501096Y-95465776D01*
X148165776Y-94801095D01*
X148392051Y-95027370D01*
G37*
X148957736Y-101737813D02*
X148731462Y-101964087D01*
X148066781Y-101299407D01*
X148293056Y-101073133D01*
X148957736Y-101737813D01*
G36*
X148957736Y-101737813D02*
G01*
X148731462Y-101964087D01*
X148066781Y-101299407D01*
X148293056Y-101073133D01*
X148957736Y-101737813D01*
G37*
X148674893Y-95310212D02*
X148010213Y-95974893D01*
X147783939Y-95748619D01*
X148448619Y-95083938D01*
X148674893Y-95310212D01*
G36*
X148674893Y-95310212D02*
G01*
X148010213Y-95974893D01*
X147783939Y-95748619D01*
X148448619Y-95083938D01*
X148674893Y-95310212D01*
G37*
X149240579Y-101454970D02*
X149014305Y-101681244D01*
X148349624Y-101016564D01*
X148575898Y-100790290D01*
X149240579Y-101454970D01*
G36*
X149240579Y-101454970D02*
G01*
X149014305Y-101681244D01*
X148349624Y-101016564D01*
X148575898Y-100790290D01*
X149240579Y-101454970D01*
G37*
X148957736Y-95593055D02*
X148293056Y-96257735D01*
X148066781Y-96031461D01*
X148731462Y-95366781D01*
X148957736Y-95593055D01*
G36*
X148957736Y-95593055D02*
G01*
X148293056Y-96257735D01*
X148066781Y-96031461D01*
X148731462Y-95366781D01*
X148957736Y-95593055D01*
G37*
X149523421Y-101172128D02*
X149297147Y-101398402D01*
X148632467Y-100733721D01*
X148858741Y-100507447D01*
X149523421Y-101172128D01*
G36*
X149523421Y-101172128D02*
G01*
X149297147Y-101398402D01*
X148632467Y-100733721D01*
X148858741Y-100507447D01*
X149523421Y-101172128D01*
G37*
X149240579Y-95875898D02*
X148575898Y-96540578D01*
X148349624Y-96314304D01*
X149014305Y-95649624D01*
X149240579Y-95875898D01*
G36*
X149240579Y-95875898D02*
G01*
X148575898Y-96540578D01*
X148349624Y-96314304D01*
X149014305Y-95649624D01*
X149240579Y-95875898D01*
G37*
X149806264Y-100889285D02*
X149579990Y-101115559D01*
X148915310Y-100450879D01*
X149141584Y-100224604D01*
X149806264Y-100889285D01*
G36*
X149806264Y-100889285D02*
G01*
X149579990Y-101115559D01*
X148915310Y-100450879D01*
X149141584Y-100224604D01*
X149806264Y-100889285D01*
G37*
X149523421Y-96158740D02*
X148858741Y-96823421D01*
X148632467Y-96597147D01*
X149297147Y-95932466D01*
X149523421Y-96158740D01*
G36*
X149523421Y-96158740D02*
G01*
X148858741Y-96823421D01*
X148632467Y-96597147D01*
X149297147Y-95932466D01*
X149523421Y-96158740D01*
G37*
X150089107Y-100606442D02*
X149862833Y-100832716D01*
X149198152Y-100168036D01*
X149424426Y-99941762D01*
X150089107Y-100606442D01*
G36*
X150089107Y-100606442D02*
G01*
X149862833Y-100832716D01*
X149198152Y-100168036D01*
X149424426Y-99941762D01*
X150089107Y-100606442D01*
G37*
X149806264Y-96441583D02*
X149141584Y-97106264D01*
X148915310Y-96879989D01*
X149579990Y-96215309D01*
X149806264Y-96441583D01*
G36*
X149806264Y-96441583D02*
G01*
X149141584Y-97106264D01*
X148915310Y-96879989D01*
X149579990Y-96215309D01*
X149806264Y-96441583D01*
G37*
X150371950Y-100323599D02*
X150145675Y-100549874D01*
X149480995Y-99885193D01*
X149707269Y-99658919D01*
X150371950Y-100323599D01*
G36*
X150371950Y-100323599D02*
G01*
X150145675Y-100549874D01*
X149480995Y-99885193D01*
X149707269Y-99658919D01*
X150371950Y-100323599D01*
G37*
X150089107Y-96724426D02*
X149424426Y-97389106D01*
X149198152Y-97162832D01*
X149862833Y-96498152D01*
X150089107Y-96724426D01*
G36*
X150089107Y-96724426D02*
G01*
X149424426Y-97389106D01*
X149198152Y-97162832D01*
X149862833Y-96498152D01*
X150089107Y-96724426D01*
G37*
X150654792Y-100040757D02*
X150428518Y-100267031D01*
X149763838Y-99602350D01*
X149990112Y-99376076D01*
X150654792Y-100040757D01*
G36*
X150654792Y-100040757D02*
G01*
X150428518Y-100267031D01*
X149763838Y-99602350D01*
X149990112Y-99376076D01*
X150654792Y-100040757D01*
G37*
X150371950Y-97007269D02*
X149707269Y-97671949D01*
X149480995Y-97445675D01*
X150145675Y-96780994D01*
X150371950Y-97007269D01*
G36*
X150371950Y-97007269D02*
G01*
X149707269Y-97671949D01*
X149480995Y-97445675D01*
X150145675Y-96780994D01*
X150371950Y-97007269D01*
G37*
X150937635Y-99757914D02*
X150711361Y-99984188D01*
X150046680Y-99319508D01*
X150272955Y-99093234D01*
X150937635Y-99757914D01*
G36*
X150937635Y-99757914D02*
G01*
X150711361Y-99984188D01*
X150046680Y-99319508D01*
X150272955Y-99093234D01*
X150937635Y-99757914D01*
G37*
X150654792Y-97290111D02*
X149990112Y-97954792D01*
X149763838Y-97728518D01*
X150428518Y-97063837D01*
X150654792Y-97290111D01*
G36*
X150654792Y-97290111D02*
G01*
X149990112Y-97954792D01*
X149763838Y-97728518D01*
X150428518Y-97063837D01*
X150654792Y-97290111D01*
G37*
X151220478Y-99475071D02*
X150994204Y-99701345D01*
X150329523Y-99036665D01*
X150555797Y-98810391D01*
X151220478Y-99475071D01*
G36*
X151220478Y-99475071D02*
G01*
X150994204Y-99701345D01*
X150329523Y-99036665D01*
X150555797Y-98810391D01*
X151220478Y-99475071D01*
G37*
X150937635Y-97572954D02*
X150272955Y-98237634D01*
X150046680Y-98011360D01*
X150711361Y-97346680D01*
X150937635Y-97572954D01*
G36*
X150937635Y-97572954D02*
G01*
X150272955Y-98237634D01*
X150046680Y-98011360D01*
X150711361Y-97346680D01*
X150937635Y-97572954D01*
G37*
X151220478Y-97855797D02*
X150555797Y-98520477D01*
X150329523Y-98294203D01*
X150994204Y-97629523D01*
X151220478Y-97855797D01*
G36*
X151220478Y-97855797D02*
G01*
X150555797Y-98520477D01*
X150329523Y-98294203D01*
X150994204Y-97629523D01*
X151220478Y-97855797D01*
G37*
%TO.C,U2*%
X158175000Y-107975000D02*
X157425000Y-107975000D01*
X157425000Y-107675000D01*
X158175000Y-107675000D01*
X158175000Y-107975000D01*
G36*
X158175000Y-107975000D02*
G01*
X157425000Y-107975000D01*
X157425000Y-107675000D01*
X158175000Y-107675000D01*
X158175000Y-107975000D01*
G37*
X158175000Y-108475000D02*
X157425000Y-108475000D01*
X157425000Y-108175000D01*
X158175000Y-108175000D01*
X158175000Y-108475000D01*
G36*
X158175000Y-108475000D02*
G01*
X157425000Y-108475000D01*
X157425000Y-108175000D01*
X158175000Y-108175000D01*
X158175000Y-108475000D01*
G37*
X158175000Y-108975000D02*
X157425000Y-108975000D01*
X157425000Y-108675000D01*
X158175000Y-108675000D01*
X158175000Y-108975000D01*
G36*
X158175000Y-108975000D02*
G01*
X157425000Y-108975000D01*
X157425000Y-108675000D01*
X158175000Y-108675000D01*
X158175000Y-108975000D01*
G37*
X158100000Y-107475000D02*
X157750000Y-107475000D01*
X157750000Y-106825000D01*
X158100000Y-106825000D01*
X158100000Y-107475000D01*
G36*
X158100000Y-107475000D02*
G01*
X157750000Y-107475000D01*
X157750000Y-106825000D01*
X158100000Y-106825000D01*
X158100000Y-107475000D01*
G37*
X158600000Y-107475000D02*
X158250000Y-107475000D01*
X158250000Y-106825000D01*
X158600000Y-106825000D01*
X158600000Y-107475000D01*
G36*
X158600000Y-107475000D02*
G01*
X158250000Y-107475000D01*
X158250000Y-106825000D01*
X158600000Y-106825000D01*
X158600000Y-107475000D01*
G37*
X159425000Y-107975000D02*
X158325000Y-107975000D01*
X158325000Y-107675000D01*
X159425000Y-107675000D01*
X159425000Y-107975000D01*
G36*
X159425000Y-107975000D02*
G01*
X158325000Y-107975000D01*
X158325000Y-107675000D01*
X159425000Y-107675000D01*
X159425000Y-107975000D01*
G37*
X159425000Y-108975000D02*
X158325000Y-108975000D01*
X158325000Y-108675000D01*
X159425000Y-108675000D01*
X159425000Y-108975000D01*
G36*
X159425000Y-108975000D02*
G01*
X158325000Y-108975000D01*
X158325000Y-108675000D01*
X159425000Y-108675000D01*
X159425000Y-108975000D01*
G37*
X159425000Y-108475000D02*
X158675000Y-108475000D01*
X158675000Y-108175000D01*
X159425000Y-108175000D01*
X159425000Y-108475000D01*
G36*
X159425000Y-108475000D02*
G01*
X158675000Y-108475000D01*
X158675000Y-108175000D01*
X159425000Y-108175000D01*
X159425000Y-108475000D01*
G37*
X159100000Y-107475000D02*
X158750000Y-107475000D01*
X158750000Y-106825000D01*
X159100000Y-106825000D01*
X159100000Y-107475000D01*
G36*
X159100000Y-107475000D02*
G01*
X158750000Y-107475000D01*
X158750000Y-106825000D01*
X159100000Y-106825000D01*
X159100000Y-107475000D01*
G37*
%TD*%
D20*
%TO.C,C37*%
X143175000Y-109327500D03*
X143175000Y-110287500D03*
%TD*%
D21*
%TO.C,U4*%
X139261883Y-97775444D03*
D22*
X139761882Y-97775444D03*
D23*
X140259999Y-97775444D03*
D22*
X140261881Y-96729556D03*
X139761882Y-96729556D03*
D24*
X139261884Y-96729556D03*
%TD*%
D25*
%TO.C,R4*%
X143400000Y-105240000D03*
X143400000Y-104250000D03*
%TD*%
D26*
%TO.C,C31*%
X153025000Y-98950000D03*
X152065000Y-98950000D03*
%TD*%
D20*
%TO.C,C3*%
X150790000Y-93712500D03*
X150790000Y-94672500D03*
%TD*%
D27*
%TO.C,C26*%
X151975000Y-106575000D03*
X151975000Y-105615000D03*
%TD*%
D28*
%TO.C,R7*%
X154000000Y-94580000D03*
X154000000Y-95570000D03*
%TD*%
D20*
%TO.C,C40*%
X141469098Y-109327500D03*
X141469098Y-110287500D03*
%TD*%
D29*
%TO.C,C9*%
X152040000Y-96350000D03*
X153000000Y-96350000D03*
%TD*%
D20*
%TO.C,C25*%
X139425000Y-104825000D03*
X139425000Y-105785000D03*
%TD*%
D30*
%TO.C,R22*%
X153015000Y-98100000D03*
X152025000Y-98100000D03*
%TD*%
D25*
%TO.C,R3*%
X142475000Y-105240000D03*
X142475000Y-104250000D03*
%TD*%
D28*
%TO.C,R15*%
X139180000Y-94860000D03*
X139180000Y-95850000D03*
%TD*%
D20*
%TO.C,C11*%
X147175000Y-104265000D03*
X147175000Y-105225000D03*
%TD*%
D31*
%TO.C,TP9*%
X149375000Y-102700000D03*
%TD*%
D32*
%TO.C,Y1*%
X139625000Y-101250002D03*
X139625000Y-102700000D03*
%TD*%
D33*
%TO.C,Y2*%
X151650000Y-93512500D03*
X151650000Y-94512500D03*
X152350000Y-94512500D03*
X152350000Y-93512500D03*
%TD*%
D30*
%TO.C,R13*%
X156915000Y-107175000D03*
X155925000Y-107175000D03*
%TD*%
D27*
%TO.C,C5*%
X141575000Y-94075000D03*
X141575000Y-93115000D03*
%TD*%
%TO.C,C29*%
X156650000Y-95575000D03*
X156650000Y-94615000D03*
%TD*%
D34*
%TO.C,L3*%
X156275000Y-108625001D03*
X156275000Y-110224999D03*
%TD*%
D29*
%TO.C,C13*%
X139165000Y-103675000D03*
X140125000Y-103675000D03*
%TD*%
D25*
%TO.C,R11*%
X149975000Y-105240000D03*
X149975000Y-104250000D03*
%TD*%
D27*
%TO.C,C8*%
X142400000Y-94075000D03*
X142400000Y-93115000D03*
%TD*%
D35*
%TO.C,U7*%
X154050000Y-97350000D03*
X154550000Y-97350000D03*
X155050000Y-97350000D03*
X155550000Y-97350000D03*
X156050000Y-97350000D03*
X156550000Y-97350000D03*
X157050000Y-97350000D03*
X158050000Y-97350000D03*
X158550000Y-97350000D03*
X159050000Y-97350000D03*
X159550000Y-97350000D03*
X160050000Y-97350000D03*
X160550000Y-97350000D03*
X154050000Y-97850000D03*
X154550000Y-97850000D03*
X155050000Y-97850000D03*
X155550000Y-97850000D03*
X156050000Y-97850000D03*
X156550000Y-97850000D03*
X157550000Y-97850000D03*
X158050000Y-97850000D03*
X158550000Y-97850000D03*
X159050000Y-97850000D03*
X159550000Y-97850000D03*
X160050000Y-97850000D03*
X160550000Y-97850000D03*
X154050000Y-98350000D03*
X154550000Y-98350000D03*
X155050000Y-98350000D03*
X155550000Y-98350000D03*
X156050000Y-98350000D03*
X156550000Y-98350000D03*
X157050000Y-97850000D03*
X157550000Y-97350000D03*
X157050000Y-98350000D03*
X157550000Y-98350000D03*
X158050000Y-98350000D03*
X158550000Y-98350000D03*
X159050000Y-98350000D03*
X159550000Y-98350000D03*
X160050000Y-98350000D03*
X160550000Y-98350000D03*
X154050000Y-98850000D03*
X154550000Y-98850000D03*
X155050000Y-98850000D03*
X155550000Y-98850000D03*
X159550000Y-98850000D03*
X160050000Y-98850000D03*
X160550000Y-98850000D03*
X154050000Y-99350000D03*
X154550000Y-99350000D03*
X155050000Y-99350000D03*
X156050000Y-99350000D03*
X156550000Y-99350000D03*
X157050000Y-99350000D03*
X157550000Y-99350000D03*
X158050000Y-99350000D03*
X158550000Y-99350000D03*
X159550000Y-99350000D03*
X160050000Y-99350000D03*
X160550000Y-99350000D03*
X154050000Y-99850000D03*
X154550000Y-99850000D03*
X155050000Y-99850000D03*
X156050000Y-99850000D03*
X158550000Y-99850000D03*
X159550000Y-99850000D03*
X160050000Y-99850000D03*
X160550000Y-99850000D03*
X154050000Y-100350000D03*
X154550000Y-100350000D03*
X155050000Y-100350000D03*
X156050000Y-100350000D03*
X158550000Y-100350000D03*
X159550000Y-100350000D03*
X160050000Y-100350000D03*
X160550000Y-100350000D03*
X154050000Y-100850000D03*
X154550000Y-100850000D03*
X155050000Y-100850000D03*
X156050000Y-100850000D03*
X158550000Y-100850000D03*
X159550000Y-100850000D03*
X160050000Y-100850000D03*
X160550000Y-100850000D03*
X156050000Y-101350000D03*
X158550000Y-101350000D03*
X159550000Y-101350000D03*
X160050000Y-101350000D03*
X160550000Y-101350000D03*
X154050000Y-101350000D03*
X154550000Y-101350000D03*
X155050000Y-101350000D03*
X156050000Y-101850000D03*
X156550000Y-101850000D03*
X157050000Y-101850000D03*
X157550000Y-101850000D03*
X158050000Y-101850000D03*
X158550000Y-101850000D03*
X159550000Y-101850000D03*
X160050000Y-101850000D03*
X160550000Y-101850000D03*
X159550000Y-102350000D03*
X160050000Y-102350000D03*
X160550000Y-102350000D03*
X154050000Y-102850000D03*
X154550000Y-102850000D03*
X155050000Y-102850000D03*
X155550000Y-102850000D03*
X154050000Y-102350000D03*
X154550000Y-102350000D03*
X155050000Y-102350000D03*
X156050000Y-102850000D03*
X154050000Y-101850000D03*
X154550000Y-101850000D03*
X155050000Y-101850000D03*
X156550000Y-102850000D03*
X157050000Y-102850000D03*
X157550000Y-102850000D03*
X158050000Y-102850000D03*
X158550000Y-102850000D03*
X159050000Y-102850000D03*
X159550000Y-102850000D03*
X160050000Y-102850000D03*
X160550000Y-102850000D03*
X154050000Y-103350000D03*
X154050000Y-103850000D03*
X154550000Y-103350000D03*
X155050000Y-103350000D03*
X155550000Y-103350000D03*
X156050000Y-103350000D03*
X156550000Y-103350000D03*
X157050000Y-103350000D03*
X157550000Y-103350000D03*
X158050000Y-103350000D03*
X158550000Y-103350000D03*
X159050000Y-103350000D03*
X159550000Y-103350000D03*
X160050000Y-103350000D03*
X160550000Y-103350000D03*
X154550000Y-103850000D03*
X155050000Y-103850000D03*
X155550000Y-103850000D03*
X156050000Y-103850000D03*
X156550000Y-103850000D03*
X157050000Y-103850000D03*
X157550000Y-103850000D03*
X158050000Y-103850000D03*
X158550000Y-103850000D03*
X159050000Y-103850000D03*
X159550000Y-103850000D03*
X160050000Y-103850000D03*
X160550000Y-103850000D03*
%TD*%
D26*
%TO.C,C15*%
X145400000Y-90530000D03*
X144440000Y-90530000D03*
%TD*%
D27*
%TO.C,C4*%
X140750000Y-94075000D03*
X140750000Y-93115000D03*
%TD*%
D31*
%TO.C,TP15*%
X151225000Y-101700000D03*
%TD*%
D36*
%TO.C,U6*%
X145650000Y-106645000D03*
X145650000Y-107915000D03*
X145650000Y-109185000D03*
X145650000Y-110455000D03*
X151050000Y-110455000D03*
X151050000Y-109185000D03*
X151050000Y-107915000D03*
X151050000Y-106645000D03*
D37*
X148350000Y-108550000D03*
%TD*%
D31*
%TO.C,TP8*%
X148875000Y-103375000D03*
%TD*%
D26*
%TO.C,C10*%
X142375000Y-101050000D03*
X141415000Y-101050000D03*
%TD*%
D20*
%TO.C,C39*%
X140619098Y-109327500D03*
X140619098Y-110287500D03*
%TD*%
D27*
%TO.C,C7*%
X149350000Y-93910000D03*
X149350000Y-92950000D03*
%TD*%
D38*
%TO.C,C27*%
X159200000Y-95337500D03*
D39*
X160675000Y-95350000D03*
%TD*%
D40*
%TO.C,C34*%
X152825000Y-104625000D03*
D41*
X151350000Y-104612500D03*
%TD*%
D31*
%TO.C,TP19*%
X139825000Y-109850000D03*
%TD*%
D26*
%TO.C,C33*%
X153025000Y-99750000D03*
X152065000Y-99750000D03*
%TD*%
D42*
%TO.C,R17*%
X152025000Y-102700000D03*
X153015000Y-102700000D03*
%TD*%
D43*
%TO.C,C1*%
X139575000Y-93900000D03*
X139575000Y-92100000D03*
%TD*%
D20*
%TO.C,C6*%
X146350000Y-104265000D03*
X146350000Y-105225000D03*
%TD*%
D29*
%TO.C,C24*%
X139160000Y-98670000D03*
X140120000Y-98670000D03*
%TD*%
%TO.C,C23*%
X139160000Y-99470000D03*
X140120000Y-99470000D03*
%TD*%
D28*
%TO.C,R9*%
X149050000Y-104250000D03*
X149050000Y-105240000D03*
%TD*%
D42*
%TO.C,R8*%
X152025000Y-101475000D03*
X153015000Y-101475000D03*
%TD*%
D31*
%TO.C,TP18*%
X150800000Y-105675000D03*
%TD*%
D20*
%TO.C,C35*%
X144025000Y-109327500D03*
X144025000Y-110287500D03*
%TD*%
D27*
%TO.C,C38*%
X157450000Y-95575000D03*
X157450000Y-94615000D03*
%TD*%
D20*
%TO.C,C22*%
X141020000Y-96600000D03*
X141020000Y-97560000D03*
%TD*%
D27*
%TO.C,C18*%
X152900000Y-106575000D03*
X152900000Y-105615000D03*
%TD*%
D44*
%TO.C,U8*%
X142087500Y-106762500D03*
X142087500Y-107262500D03*
X142087500Y-107762500D03*
X142087500Y-108262500D03*
D45*
X142750000Y-108425000D03*
X143250000Y-108425000D03*
X143750000Y-108425000D03*
D44*
X144412500Y-108262500D03*
X144412500Y-107762500D03*
X144412500Y-107262500D03*
X144412500Y-106762500D03*
D45*
X143750000Y-106600000D03*
X143250000Y-106600000D03*
X142750000Y-106600000D03*
%TD*%
D46*
%TO.C,L1*%
X141825000Y-94850000D03*
X142795000Y-94850000D03*
%TD*%
D20*
%TO.C,C21*%
X152525000Y-109915000D03*
X152525000Y-110875000D03*
%TD*%
D28*
%TO.C,R5*%
X144325000Y-104250000D03*
X144325000Y-105240000D03*
%TD*%
D20*
%TO.C,C28*%
X142319098Y-109327500D03*
X142319098Y-110287500D03*
%TD*%
D30*
%TO.C,R12*%
X156915000Y-106250000D03*
X155925000Y-106250000D03*
%TD*%
D27*
%TO.C,C12*%
X148550000Y-93910000D03*
X148550000Y-92950000D03*
%TD*%
D28*
%TO.C,R14*%
X140080000Y-94860000D03*
X140080000Y-95850000D03*
%TD*%
D47*
%TO.C,U5*%
X140300000Y-105812500D03*
D48*
X140700000Y-105312500D03*
D47*
X141100000Y-105812500D03*
X141100000Y-104812500D03*
X140300000Y-104812500D03*
%TD*%
D28*
%TO.C,R1*%
X140970000Y-94860000D03*
X140970000Y-95850000D03*
%TD*%
D26*
%TO.C,C16*%
X145410000Y-91350000D03*
X144450000Y-91350000D03*
%TD*%
D29*
%TO.C,C2*%
X139165000Y-100275000D03*
X140125000Y-100275000D03*
%TD*%
D46*
%TO.C,L2*%
X145410000Y-89700000D03*
X146380000Y-89700000D03*
%TD*%
D31*
%TO.C,TP11*%
X160675000Y-106225000D03*
%TD*%
%TO.C,TP20*%
X139300000Y-110725000D03*
%TD*%
D29*
%TO.C,C14*%
X151521250Y-95443750D03*
X152481250Y-95443750D03*
%TD*%
D49*
%TO.C,U3*%
X152275000Y-109187500D03*
X152925000Y-109187500D03*
X153575000Y-109187500D03*
X153575000Y-107412500D03*
X152925000Y-107412500D03*
X152275000Y-107412500D03*
D50*
X152925000Y-108300000D03*
%TD*%
D20*
%TO.C,C19*%
X153350000Y-109915000D03*
X153350000Y-110875000D03*
%TD*%
D51*
%TO.C,U10*%
X140932098Y-107925500D03*
X140932098Y-107425500D03*
D52*
X140669098Y-106913500D03*
X140169098Y-106913500D03*
X139669098Y-106913500D03*
D51*
X139406098Y-107425500D03*
X139406098Y-107925500D03*
D52*
X139669098Y-108437500D03*
X140169098Y-108437500D03*
X140669098Y-108437500D03*
%TD*%
D27*
%TO.C,C32*%
X158250000Y-95575000D03*
X158250000Y-94615000D03*
%TD*%
D30*
%TO.C,R21*%
X153015000Y-97200000D03*
X152025000Y-97200000D03*
%TD*%
D31*
%TO.C,TP14*%
X151150000Y-100850000D03*
%TD*%
D28*
%TO.C,R6*%
X145250000Y-104250000D03*
X145250000Y-105240000D03*
%TD*%
D25*
%TO.C,R20*%
X154900000Y-95575000D03*
X154900000Y-94585000D03*
%TD*%
D30*
%TO.C,R10*%
X158690000Y-106250000D03*
X157700000Y-106250000D03*
%TD*%
D53*
%TO.C,C17*%
X160350000Y-107220000D03*
X160350000Y-109020000D03*
%TD*%
D54*
%TO.C,C20*%
X157875000Y-110350000D03*
X159675000Y-110350000D03*
%TD*%
D20*
%TO.C,C30*%
X153825000Y-105615000D03*
X153825000Y-106575000D03*
%TD*%
D28*
%TO.C,R2*%
X155800000Y-94585000D03*
X155800000Y-95575000D03*
%TD*%
D42*
%TO.C,R19*%
X152025000Y-100575000D03*
X153015000Y-100575000D03*
%TD*%
D55*
%TO.C,ANT1*%
X148250000Y-89700000D03*
X151750000Y-89700000D03*
X151750000Y-88100000D03*
X148250000Y-88100000D03*
%TD*%
%LPD*%
D56*
X161500000Y-87500000D02*
X161500000Y-87500000D01*
G75*
G02*
X162500000Y-88500000I0J-1000000D01*
G01*
X162500000Y-111500000D01*
G75*
G02*
X161500000Y-112500000I-1000000J0D01*
G01*
X138500000Y-112500000D01*
G75*
G02*
X137500000Y-111500000I0J1000000D01*
G01*
X137500000Y-88500000D01*
G75*
G02*
X138500000Y-87500000I1000000J0D01*
G01*
X161500000Y-87500000D01*
M02*
