%TF.GenerationSoftware,KiCad,Pcbnew,9.0.1*%
%TF.CreationDate,2025-12-15T21:38:02-06:00*%
%TF.ProjectId,ProtoCore_v1,50726f74-6f43-46f7-9265-5f76312e6b69,rev?*%
%TF.SameCoordinates,Original*%
%TF.FileFunction,Legend,Bot*%
%TF.FilePolarity,Positive*%
%FSLAX46Y46*%
G04 Gerber Fmt 4.6, Leading zero omitted, Abs format (unit mm)*
G04 Created by KiCad (PCBNEW 9.0.1) date 2025-12-15 21:38:02*
%MOMM*%
%LPD*%
G01*
G04 APERTURE LIST*
%ADD10C,0.150000*%
%ADD11C,0.100000*%
%ADD12C,0.200000*%
%ADD13C,0.175000*%
%ADD14R,1.750000X1.000000*%
%ADD15R,1.000000X1.750000*%
%ADD16C,0.800000*%
G04 APERTURE END LIST*
D10*
X147010000Y-104740000D02*
X152640000Y-104740000D01*
X152640000Y-106100000D01*
X147010000Y-106100000D01*
X147010000Y-104740000D01*
D11*
X144525000Y-89150000D02*
X144525000Y-89750000D01*
X160250000Y-105425000D02*
X160250000Y-103975000D01*
D12*
X142125000Y-89175000D02*
X142125000Y-89775000D01*
X146000000Y-89175000D02*
X146000000Y-89775000D01*
X154000000Y-89175000D02*
X154000000Y-89775000D01*
X139200000Y-100750000D02*
X139800000Y-100750000D01*
X155475000Y-89775000D02*
X154025000Y-89775000D01*
D11*
X148855000Y-104780000D02*
X148855000Y-106070000D01*
D12*
X154025000Y-110225000D02*
X155475000Y-110225000D01*
X139775000Y-110225000D02*
X141225000Y-110225000D01*
D11*
X157850000Y-89150000D02*
X157850000Y-89750000D01*
X141225000Y-110850000D02*
X141225000Y-110250000D01*
D12*
X160225000Y-105475000D02*
X160225000Y-104025000D01*
D11*
X157850000Y-89750000D02*
X156400000Y-89750000D01*
X160850000Y-103975000D02*
X160250000Y-103975000D01*
D12*
X148375000Y-110800000D02*
X148375000Y-110200000D01*
D11*
X139175000Y-100725000D02*
X139775000Y-100725000D01*
D12*
X160825000Y-105500000D02*
X160225000Y-105500000D01*
D11*
X139775000Y-110250000D02*
X141225000Y-110250000D01*
X160850000Y-105425000D02*
X160250000Y-105425000D01*
X139775000Y-110850000D02*
X139775000Y-110250000D01*
D12*
X143650000Y-89175000D02*
X143650000Y-89775000D01*
X157850000Y-89800000D02*
X156400000Y-89800000D01*
D11*
X143600000Y-89750000D02*
X142150000Y-89750000D01*
X145975000Y-89750000D02*
X144525000Y-89750000D01*
X148935000Y-104830000D02*
X152545000Y-104830000D01*
D12*
X146875000Y-110825000D02*
X146875000Y-110225000D01*
X139800000Y-99275000D02*
X139800000Y-100725000D01*
X157875000Y-89200000D02*
X157875000Y-89800000D01*
D11*
X148885000Y-106000000D02*
X152565000Y-106000000D01*
D12*
X156375000Y-89200000D02*
X156375000Y-89800000D01*
X155500000Y-89175000D02*
X155500000Y-89775000D01*
D11*
X156400000Y-89150000D02*
X156400000Y-89750000D01*
D12*
X139750000Y-110825000D02*
X139750000Y-110225000D01*
D11*
X143600000Y-89150000D02*
X143600000Y-89750000D01*
D12*
X143600000Y-89775000D02*
X142150000Y-89775000D01*
X144500000Y-89175000D02*
X144500000Y-89775000D01*
X154000000Y-110825000D02*
X154000000Y-110225000D01*
D11*
X142150000Y-89150000D02*
X142150000Y-89750000D01*
D12*
X155500000Y-110825000D02*
X155500000Y-110225000D01*
D11*
X148350000Y-110850000D02*
X148350000Y-110250000D01*
X146900000Y-110250000D02*
X148350000Y-110250000D01*
X139175000Y-99275000D02*
X139775000Y-99275000D01*
X139775000Y-99275000D02*
X139775000Y-100725000D01*
D12*
X141250000Y-110825000D02*
X141250000Y-110225000D01*
X146900000Y-110225000D02*
X148350000Y-110225000D01*
X160825000Y-104000000D02*
X160225000Y-104000000D01*
D11*
X146900000Y-110850000D02*
X146900000Y-110250000D01*
X145975000Y-89150000D02*
X145975000Y-89750000D01*
D12*
X145975000Y-89775000D02*
X144525000Y-89775000D01*
X139200000Y-99250000D02*
X139800000Y-99250000D01*
D11*
X155475000Y-89750000D02*
X154025000Y-89750000D01*
X155475000Y-89150000D02*
X155475000Y-89750000D01*
X154025000Y-89150000D02*
X154025000Y-89750000D01*
D12*
G36*
X156732143Y-109246409D02*
G01*
X156762110Y-109259468D01*
X156786668Y-109281369D01*
X156806334Y-109314177D01*
X156822100Y-109363691D01*
X156833350Y-109436111D01*
X156837713Y-109538197D01*
X156833958Y-109636568D01*
X156824249Y-109706773D01*
X156812247Y-109749701D01*
X156797027Y-109781946D01*
X156779241Y-109805643D01*
X156755944Y-109824013D01*
X156727947Y-109835079D01*
X156693787Y-109838958D01*
X156658464Y-109834900D01*
X156629894Y-109823372D01*
X156606464Y-109804275D01*
X156588633Y-109779738D01*
X156573625Y-109747135D01*
X156562061Y-109704575D01*
X156552816Y-109634488D01*
X156549201Y-109533801D01*
X156552959Y-109438105D01*
X156562665Y-109369914D01*
X156574653Y-109328311D01*
X156589881Y-109297053D01*
X156607728Y-109274073D01*
X156630946Y-109256434D01*
X156659495Y-109245654D01*
X156694996Y-109241833D01*
X156732143Y-109246409D01*
G37*
G36*
X157691763Y-109813947D02*
G01*
X157497389Y-109813947D01*
X157433792Y-109809628D01*
X157387763Y-109798234D01*
X157355094Y-109781373D01*
X157332698Y-109759508D01*
X157318969Y-109731871D01*
X157314060Y-109696613D01*
X157319776Y-109658898D01*
X157335582Y-109630698D01*
X157361376Y-109609614D01*
X157394481Y-109595703D01*
X157440587Y-109586205D01*
X157503544Y-109582600D01*
X157691763Y-109582600D01*
X157691763Y-109813947D01*
G37*
G36*
X157691763Y-109463801D02*
G01*
X157526295Y-109463801D01*
X157462309Y-109460547D01*
X157421606Y-109452517D01*
X157399071Y-109442754D01*
X157380532Y-109428618D01*
X157365498Y-109409579D01*
X157354178Y-109385912D01*
X157350330Y-109359216D01*
X157356285Y-109322255D01*
X157372307Y-109296978D01*
X157398251Y-109280179D01*
X157431169Y-109270280D01*
X157478738Y-109263290D01*
X157545309Y-109260591D01*
X157691763Y-109260591D01*
X157691763Y-109463801D01*
G37*
G36*
X157977840Y-110051505D02*
G01*
X156277248Y-110051505D01*
X156277248Y-109544792D01*
X156377248Y-109544792D01*
X156380599Y-109631810D01*
X156389613Y-109699886D01*
X156407414Y-109762391D01*
X156435280Y-109817709D01*
X156466585Y-109857750D01*
X156502769Y-109890501D01*
X156544146Y-109916676D01*
X156590016Y-109935929D01*
X156639212Y-109947547D01*
X156692578Y-109951505D01*
X156753544Y-109946204D01*
X156809317Y-109930616D01*
X156861124Y-109904561D01*
X156906170Y-109869783D01*
X156943483Y-109826887D01*
X156973341Y-109774722D01*
X156989682Y-109727473D01*
X156993743Y-109708874D01*
X157125511Y-109708874D01*
X157129944Y-109752989D01*
X157142944Y-109793384D01*
X157164528Y-109830849D01*
X157193671Y-109863943D01*
X157228549Y-109890480D01*
X157269822Y-109910960D01*
X157313222Y-109923829D01*
X157364948Y-109932698D01*
X157420771Y-109937308D01*
X157490025Y-109939000D01*
X157765403Y-109939000D01*
X157804782Y-109935803D01*
X157832591Y-109927398D01*
X157851846Y-109914819D01*
X157865414Y-109897172D01*
X157874436Y-109872380D01*
X157877840Y-109838078D01*
X157877840Y-109236459D01*
X157874321Y-109201472D01*
X157865054Y-109176594D01*
X157851187Y-109159230D01*
X157831640Y-109146862D01*
X157803964Y-109138644D01*
X157765403Y-109135538D01*
X157473428Y-109135538D01*
X157410817Y-109137462D01*
X157361156Y-109142670D01*
X157315565Y-109153272D01*
X157275812Y-109170221D01*
X157245504Y-109189429D01*
X157218769Y-109213305D01*
X157196892Y-109240820D01*
X157180960Y-109270995D01*
X157171228Y-109303272D01*
X157167936Y-109337722D01*
X157170457Y-109359216D01*
X157173353Y-109383912D01*
X157188884Y-109423373D01*
X157214341Y-109457542D01*
X157250722Y-109487295D01*
X157300102Y-109512845D01*
X157243616Y-109533473D01*
X157200275Y-109558642D01*
X157167813Y-109588122D01*
X157144746Y-109622284D01*
X157130508Y-109662066D01*
X157126820Y-109696613D01*
X157125511Y-109708874D01*
X156993743Y-109708874D01*
X157001423Y-109673703D01*
X157008018Y-109617256D01*
X157010326Y-109554122D01*
X157007727Y-109473190D01*
X157000489Y-109404645D01*
X156987289Y-109340718D01*
X156969659Y-109290144D01*
X156940843Y-109240833D01*
X156905554Y-109201382D01*
X156863597Y-109170465D01*
X156815279Y-109147969D01*
X156760398Y-109134113D01*
X156697469Y-109129286D01*
X156635827Y-109134037D01*
X156581844Y-109147702D01*
X156533040Y-109170370D01*
X156490620Y-109201533D01*
X156454950Y-109240348D01*
X156424125Y-109289118D01*
X156405359Y-109333725D01*
X156390599Y-109389719D01*
X156380819Y-109459272D01*
X156377707Y-109533801D01*
X156377248Y-109544792D01*
X156277248Y-109544792D01*
X156277248Y-109029286D01*
X157977840Y-109029286D01*
X157977840Y-110051505D01*
G37*
G36*
X148469165Y-104966554D02*
G01*
X148497961Y-104975682D01*
X148518439Y-104989374D01*
X148533139Y-105008827D01*
X148542918Y-105036852D01*
X148546631Y-105076477D01*
X148546631Y-105769510D01*
X148543382Y-105805066D01*
X148534567Y-105832116D01*
X148520967Y-105852601D01*
X148502202Y-105868301D01*
X148479987Y-105877763D01*
X148453263Y-105881068D01*
X148427780Y-105877801D01*
X148405934Y-105868312D01*
X148386823Y-105852327D01*
X148372859Y-105831574D01*
X148363825Y-105804202D01*
X148360499Y-105768246D01*
X148360499Y-105515290D01*
X148195031Y-105515290D01*
X148109377Y-105509998D01*
X148040402Y-105495459D01*
X147985140Y-105473198D01*
X147941140Y-105444014D01*
X147904756Y-105405531D01*
X147878335Y-105359025D01*
X147861682Y-105302840D01*
X147856086Y-105238593D01*
X148044345Y-105238593D01*
X148050337Y-105284210D01*
X148066767Y-105317783D01*
X148093537Y-105343247D01*
X148132108Y-105361307D01*
X148177841Y-105370958D01*
X148239324Y-105374606D01*
X148360499Y-105374606D01*
X148360499Y-105103789D01*
X148239324Y-105103789D01*
X148175251Y-105107148D01*
X148130027Y-105115823D01*
X148099147Y-105128119D01*
X148078912Y-105143027D01*
X148060022Y-105169437D01*
X148048427Y-105200831D01*
X148044345Y-105238593D01*
X147856086Y-105238593D01*
X147855741Y-105234636D01*
X147861195Y-105172119D01*
X147876789Y-105118133D01*
X147902852Y-105070089D01*
X147938448Y-105030425D01*
X147982406Y-104999900D01*
X148034728Y-104979152D01*
X148096959Y-104967744D01*
X148195086Y-104963106D01*
X148429303Y-104963106D01*
X148469165Y-104966554D01*
G37*
G36*
X147449956Y-105779896D02*
G01*
X147449956Y-105225184D01*
X147558741Y-105301555D01*
X147623011Y-105334882D01*
X147658454Y-105342952D01*
X147683219Y-105337813D01*
X147705550Y-105321849D01*
X147720956Y-105298852D01*
X147725993Y-105272885D01*
X147720633Y-105244130D01*
X147705935Y-105225569D01*
X147681706Y-105210229D01*
X147635867Y-105186991D01*
X147566537Y-105149503D01*
X147517275Y-105113407D01*
X147475383Y-105072463D01*
X147438470Y-105026853D01*
X147393353Y-104967502D01*
X147379572Y-104959445D01*
X147352906Y-104956071D01*
X147331847Y-104959004D01*
X147314279Y-104967484D01*
X147299325Y-104981845D01*
X147284662Y-105010942D01*
X147279212Y-105052462D01*
X147279212Y-105755826D01*
X147283773Y-105806868D01*
X147295504Y-105841121D01*
X147312644Y-105863313D01*
X147335258Y-105876415D01*
X147365216Y-105881068D01*
X147389575Y-105878079D01*
X147409747Y-105869539D01*
X147426710Y-105855404D01*
X147439014Y-105836884D01*
X147447006Y-105812316D01*
X147449956Y-105779896D01*
G37*
G36*
X160012520Y-107651505D02*
G01*
X157731278Y-107651505D01*
X157731278Y-106814380D01*
X157831278Y-106814380D01*
X157831278Y-107444478D01*
X157836162Y-107486532D01*
X157848974Y-107515550D01*
X157868351Y-107535099D01*
X157894978Y-107547121D01*
X157931406Y-107551505D01*
X157955568Y-107549840D01*
X157976359Y-107545106D01*
X157995452Y-107537007D01*
X158013728Y-107524931D01*
X158045931Y-107492691D01*
X158075552Y-107455127D01*
X158414732Y-106992482D01*
X158414732Y-107456983D01*
X158417840Y-107487257D01*
X158426264Y-107510209D01*
X158439241Y-107527520D01*
X158457039Y-107540824D01*
X158477641Y-107548759D01*
X158501945Y-107551505D01*
X158527085Y-107548692D01*
X158547882Y-107540644D01*
X158565362Y-107527276D01*
X158577968Y-107509876D01*
X158586146Y-107486992D01*
X158589158Y-107457032D01*
X158589158Y-106838951D01*
X158587718Y-106819851D01*
X158792050Y-106819851D01*
X158792050Y-107451023D01*
X158795389Y-107483841D01*
X158804370Y-107508326D01*
X158818099Y-107526445D01*
X158837009Y-107540266D01*
X158859306Y-107548597D01*
X158886023Y-107551505D01*
X158911512Y-107548614D01*
X158933261Y-107540236D01*
X158952188Y-107526152D01*
X158965925Y-107507868D01*
X158974870Y-107483443D01*
X158978182Y-107451023D01*
X158978182Y-106819851D01*
X158975582Y-106794157D01*
X159118975Y-106794157D01*
X159122712Y-106820437D01*
X159132000Y-106847939D01*
X159143046Y-106875587D01*
X159361325Y-107399097D01*
X159384736Y-107456299D01*
X159397674Y-107482321D01*
X159411994Y-107504170D01*
X159429962Y-107522901D01*
X159453429Y-107538218D01*
X159481290Y-107547992D01*
X159516682Y-107551505D01*
X159552052Y-107548055D01*
X159579935Y-107538462D01*
X159603410Y-107523292D01*
X159621700Y-107504170D01*
X159649233Y-107456055D01*
X159672643Y-107399097D01*
X159887186Y-106879935D01*
X159898617Y-106852042D01*
X159908509Y-106822342D01*
X159912520Y-106795231D01*
X159906319Y-106768488D01*
X159886802Y-106743354D01*
X159868261Y-106730361D01*
X159847019Y-106722591D01*
X159822230Y-106719907D01*
X159791941Y-106723166D01*
X159770255Y-106731946D01*
X159754911Y-106745796D01*
X159736672Y-106775858D01*
X159714849Y-106827569D01*
X159512341Y-107360605D01*
X159309283Y-106823759D01*
X159285213Y-106764163D01*
X159274674Y-106748379D01*
X159258230Y-106733584D01*
X159236918Y-106723591D01*
X159206793Y-106719907D01*
X159183790Y-106722564D01*
X159162609Y-106730507D01*
X159144361Y-106742905D01*
X159130626Y-106758692D01*
X159121796Y-106776609D01*
X159118975Y-106794157D01*
X158975582Y-106794157D01*
X158974899Y-106787407D01*
X158966054Y-106763095D01*
X158952518Y-106745015D01*
X158933797Y-106731120D01*
X158911958Y-106722797D01*
X158886023Y-106719907D01*
X158859286Y-106722791D01*
X158836989Y-106731047D01*
X158818099Y-106744722D01*
X158804383Y-106762662D01*
X158795397Y-106787036D01*
X158792050Y-106819851D01*
X158587718Y-106819851D01*
X158586340Y-106801567D01*
X158579211Y-106776620D01*
X158563563Y-106754041D01*
X158539808Y-106735734D01*
X158511087Y-106723836D01*
X158480403Y-106719907D01*
X158456575Y-106721839D01*
X158437593Y-106727185D01*
X158420818Y-106735698D01*
X158406379Y-106746676D01*
X158379121Y-106778232D01*
X158350435Y-106818385D01*
X158002627Y-107288357D01*
X158002627Y-106814819D01*
X157999671Y-106783885D01*
X157991742Y-106760802D01*
X157979711Y-106743745D01*
X157962846Y-106730608D01*
X157942589Y-106722685D01*
X157917887Y-106719907D01*
X157892323Y-106722701D01*
X157871578Y-106730620D01*
X157854524Y-106743647D01*
X157842301Y-106760665D01*
X157834268Y-106783640D01*
X157831278Y-106814380D01*
X157731278Y-106814380D01*
X157731278Y-106619907D01*
X160012520Y-106619907D01*
X160012520Y-107651505D01*
G37*
G36*
X145814290Y-109782695D02*
G01*
X145677728Y-109782695D01*
X145606672Y-109780545D01*
X145553586Y-109769701D01*
X145527750Y-109759141D01*
X145506105Y-109745374D01*
X145475761Y-109716905D01*
X145451015Y-109680765D01*
X145432038Y-109635461D01*
X145419619Y-109579051D01*
X145415100Y-109509240D01*
X145420474Y-109430620D01*
X145434583Y-109373316D01*
X145455107Y-109332457D01*
X145485189Y-109296805D01*
X145517865Y-109272563D01*
X145553640Y-109257866D01*
X145615549Y-109246179D01*
X145695533Y-109241843D01*
X145814290Y-109241843D01*
X145814290Y-109782695D01*
G37*
G36*
X146100422Y-110014000D02*
G01*
X144382025Y-110014000D01*
X144382025Y-109445053D01*
X144482025Y-109445053D01*
X144482025Y-109591990D01*
X144718715Y-109591990D01*
X144718715Y-109798326D01*
X144880831Y-109798326D01*
X144880831Y-109591990D01*
X145116311Y-109591990D01*
X145116311Y-109510266D01*
X145226550Y-109510266D01*
X145230251Y-109580819D01*
X145240729Y-109642255D01*
X145259062Y-109699787D01*
X145284528Y-109750015D01*
X145318236Y-109795389D01*
X145360530Y-109835939D01*
X145398810Y-109862074D01*
X145440269Y-109882346D01*
X145484804Y-109897147D01*
X145533197Y-109906916D01*
X145584447Y-109912127D01*
X145645140Y-109914000D01*
X145883094Y-109914000D01*
X145929828Y-109910106D01*
X145959096Y-109900371D01*
X145980387Y-109883855D01*
X145992618Y-109862025D01*
X145998249Y-109835492D01*
X146000422Y-109798326D01*
X146000422Y-109211459D01*
X145996887Y-109176871D01*
X145987529Y-109152031D01*
X145973439Y-109134474D01*
X145953658Y-109121977D01*
X145925676Y-109113675D01*
X145886721Y-109110538D01*
X145648822Y-109110538D01*
X145559205Y-109114683D01*
X145489069Y-109125877D01*
X145446200Y-109139000D01*
X145405963Y-109158077D01*
X145367949Y-109183469D01*
X145326471Y-109220577D01*
X145292107Y-109263465D01*
X145264606Y-109312827D01*
X145244106Y-109369610D01*
X145231128Y-109434977D01*
X145226612Y-109509240D01*
X145226550Y-109510266D01*
X145116311Y-109510266D01*
X145116311Y-109445053D01*
X144880831Y-109445053D01*
X144880831Y-109235591D01*
X144718715Y-109235591D01*
X144718715Y-109445053D01*
X144482025Y-109445053D01*
X144382025Y-109445053D01*
X144382025Y-109010538D01*
X146100422Y-109010538D01*
X146100422Y-110014000D01*
G37*
G36*
X159866763Y-99951306D02*
G01*
X159704977Y-99951306D01*
X159642091Y-99948574D01*
X159594903Y-99941341D01*
X159554583Y-99927366D01*
X159527144Y-99907635D01*
X159514656Y-99890642D01*
X159506716Y-99869198D01*
X159503843Y-99842080D01*
X159508642Y-99811084D01*
X159522637Y-99784586D01*
X159544797Y-99763031D01*
X159574679Y-99747461D01*
X159614089Y-99739366D01*
X159700086Y-99735591D01*
X159866763Y-99735591D01*
X159866763Y-99951306D01*
G37*
G36*
X160152840Y-100526505D02*
G01*
X158406746Y-100526505D01*
X158406746Y-100355772D01*
X158506746Y-100355772D01*
X158509452Y-100374558D01*
X158517462Y-100391480D01*
X158530234Y-100405842D01*
X158547632Y-100417028D01*
X158568065Y-100424079D01*
X158591486Y-100426505D01*
X158616382Y-100423940D01*
X158635999Y-100416784D01*
X158652586Y-100405799D01*
X158665400Y-100392750D01*
X158706726Y-100337503D01*
X158863896Y-100118319D01*
X159030848Y-100344048D01*
X159058875Y-100382297D01*
X159079098Y-100403790D01*
X159107290Y-100420399D01*
X159124489Y-100424895D01*
X159145484Y-100426505D01*
X159176889Y-100421774D01*
X159201757Y-100408089D01*
X159218107Y-100386431D01*
X159223087Y-100359924D01*
X159299302Y-100359924D01*
X159302100Y-100375799D01*
X159310952Y-100392164D01*
X159324603Y-100406359D01*
X159342661Y-100417321D01*
X159363833Y-100424121D01*
X159388988Y-100426505D01*
X159418391Y-100423084D01*
X159441524Y-100413462D01*
X159461174Y-100398769D01*
X159477959Y-100380538D01*
X159518955Y-100322408D01*
X159592155Y-100214160D01*
X159631587Y-100158945D01*
X159662277Y-100123790D01*
X159694558Y-100096884D01*
X159724706Y-100081487D01*
X159758657Y-100073216D01*
X159804555Y-100070106D01*
X159866763Y-100070106D01*
X159866763Y-100326023D01*
X159870104Y-100359606D01*
X159879010Y-100384197D01*
X159892482Y-100401983D01*
X159911133Y-100415501D01*
X159933125Y-100423657D01*
X159959472Y-100426505D01*
X159987826Y-100423457D01*
X160010360Y-100414901D01*
X160028440Y-100400957D01*
X160041314Y-100382651D01*
X160049727Y-100358340D01*
X160052840Y-100326267D01*
X160052840Y-99711313D01*
X160049312Y-99676788D01*
X160039973Y-99651996D01*
X160025912Y-99634474D01*
X160006131Y-99621977D01*
X159978149Y-99613675D01*
X159939193Y-99610538D01*
X159642274Y-99610538D01*
X159536871Y-99615228D01*
X159494523Y-99622440D01*
X159457736Y-99634181D01*
X159417555Y-99653461D01*
X159382228Y-99679659D01*
X159353352Y-99711614D01*
X159332329Y-99748438D01*
X159319555Y-99788564D01*
X159315239Y-99831431D01*
X159316177Y-99842080D01*
X159319163Y-99875966D01*
X159330297Y-99914024D01*
X159348090Y-99946731D01*
X159372556Y-99974949D01*
X159414245Y-100005705D01*
X159469445Y-100030991D01*
X159541267Y-100050175D01*
X159498360Y-100075989D01*
X159452240Y-100116219D01*
X159410205Y-100162633D01*
X159373051Y-100211815D01*
X159341030Y-100261779D01*
X159318756Y-100303406D01*
X159302958Y-100341648D01*
X159299302Y-100359924D01*
X159223087Y-100359924D01*
X159224069Y-100354697D01*
X159219953Y-100328468D01*
X159205972Y-100295961D01*
X159178841Y-100255290D01*
X158977872Y-99995318D01*
X159146912Y-99762457D01*
X159183073Y-99703741D01*
X159192261Y-99679084D01*
X159195163Y-99656260D01*
X159189533Y-99634273D01*
X159171587Y-99613762D01*
X159145636Y-99599698D01*
X159114105Y-99594907D01*
X159078702Y-99600299D01*
X159053654Y-99615325D01*
X159031091Y-99640548D01*
X158994578Y-99690357D01*
X158860764Y-99884286D01*
X158717772Y-99690357D01*
X158687327Y-99647907D01*
X158662817Y-99618501D01*
X158636164Y-99600866D01*
X158620608Y-99596464D01*
X158601982Y-99594907D01*
X158569533Y-99599784D01*
X158544500Y-99613762D01*
X158527644Y-99634501D01*
X158522133Y-99658459D01*
X158526189Y-99682454D01*
X158540604Y-99715080D01*
X158569724Y-99759233D01*
X158746788Y-99995367D01*
X158556205Y-100255290D01*
X158518561Y-100312492D01*
X158509549Y-100335277D01*
X158506746Y-100355772D01*
X158406746Y-100355772D01*
X158406746Y-99494907D01*
X160152840Y-99494907D01*
X160152840Y-100526505D01*
G37*
D13*
G36*
X161273514Y-88907584D02*
G01*
X161277428Y-88941588D01*
X161290141Y-88980460D01*
X161310821Y-89018279D01*
X161342287Y-89057269D01*
X161367515Y-89080294D01*
X161397573Y-89100695D01*
X161433072Y-89118433D01*
X161470617Y-89131154D01*
X161513247Y-89139141D01*
X161561769Y-89141942D01*
X161616035Y-89139195D01*
X161663026Y-89131427D01*
X161706931Y-89117876D01*
X161745904Y-89098772D01*
X161781212Y-89073383D01*
X161814335Y-89040257D01*
X161840020Y-89005302D01*
X161861907Y-88965971D01*
X161879033Y-88923758D01*
X161891400Y-88878349D01*
X161898715Y-88830903D01*
X161901230Y-88779442D01*
X161898320Y-88723199D01*
X161889948Y-88672697D01*
X161876525Y-88627236D01*
X161857356Y-88583982D01*
X161833748Y-88545787D01*
X161805658Y-88512131D01*
X161773130Y-88482762D01*
X161737229Y-88458556D01*
X161697605Y-88439298D01*
X161655689Y-88425478D01*
X161611823Y-88417122D01*
X161565616Y-88414293D01*
X161509451Y-88418261D01*
X161459000Y-88429733D01*
X161413367Y-88448359D01*
X161371007Y-88473798D01*
X161337277Y-88501902D01*
X161311042Y-88532690D01*
X161290353Y-88567457D01*
X161279001Y-88598859D01*
X161275437Y-88627792D01*
X161279794Y-88651133D01*
X161293047Y-88671774D01*
X161312570Y-88686082D01*
X161335619Y-88690795D01*
X161360951Y-88687162D01*
X161377336Y-88677587D01*
X161390700Y-88661549D01*
X161408067Y-88632536D01*
X161428488Y-88599458D01*
X161450087Y-88573947D01*
X161472865Y-88554873D01*
X161498802Y-88540926D01*
X161529062Y-88532243D01*
X161564633Y-88529185D01*
X161606633Y-88533490D01*
X161642976Y-88545889D01*
X161674859Y-88566268D01*
X161703033Y-88595393D01*
X161724266Y-88629346D01*
X161740356Y-88670990D01*
X161750776Y-88721883D01*
X161754538Y-88783888D01*
X161751693Y-88838150D01*
X161743819Y-88882930D01*
X161731714Y-88919723D01*
X161713773Y-88953678D01*
X161692286Y-88980221D01*
X161667172Y-89000421D01*
X161638318Y-89015004D01*
X161605994Y-89023949D01*
X161569420Y-89027050D01*
X161529870Y-89023486D01*
X161495995Y-89013317D01*
X161466710Y-88996874D01*
X161441677Y-88974320D01*
X161420560Y-88945123D01*
X161403366Y-88908097D01*
X161392695Y-88881832D01*
X161380584Y-88862235D01*
X161370191Y-88852673D01*
X161355951Y-88846606D01*
X161336559Y-88844368D01*
X161312502Y-88848907D01*
X161292107Y-88862534D01*
X161278206Y-88882752D01*
X161273514Y-88907584D01*
G37*
G36*
X161088327Y-88430653D02*
G01*
X161110724Y-88437753D01*
X161126651Y-88448402D01*
X161138084Y-88463532D01*
X161145690Y-88485329D01*
X161148578Y-88516149D01*
X161148578Y-89055174D01*
X161146051Y-89082829D01*
X161139195Y-89103868D01*
X161128617Y-89119801D01*
X161114022Y-89132012D01*
X161096744Y-89139371D01*
X161075958Y-89141942D01*
X161056138Y-89139401D01*
X161039147Y-89132021D01*
X161024282Y-89119587D01*
X161013422Y-89103447D01*
X161006396Y-89082157D01*
X161003809Y-89054191D01*
X161003809Y-88857448D01*
X160875111Y-88857448D01*
X160808492Y-88853331D01*
X160754844Y-88842024D01*
X160711863Y-88824710D01*
X160677641Y-88802010D01*
X160649341Y-88772079D01*
X160628792Y-88735908D01*
X160615840Y-88692209D01*
X160611487Y-88642239D01*
X160757911Y-88642239D01*
X160762572Y-88677719D01*
X160775350Y-88703831D01*
X160796172Y-88723636D01*
X160826171Y-88737683D01*
X160861741Y-88745190D01*
X160909562Y-88748027D01*
X161003809Y-88748027D01*
X161003809Y-88537392D01*
X160909562Y-88537392D01*
X160859727Y-88540004D01*
X160824552Y-88546751D01*
X160800535Y-88556315D01*
X160784796Y-88567910D01*
X160770104Y-88588451D01*
X160761086Y-88612868D01*
X160757911Y-88642239D01*
X160611487Y-88642239D01*
X160611219Y-88639162D01*
X160615461Y-88590537D01*
X160627589Y-88548547D01*
X160647861Y-88511181D01*
X160675546Y-88480330D01*
X160709736Y-88456589D01*
X160750431Y-88440452D01*
X160798833Y-88431579D01*
X160875154Y-88427971D01*
X161057322Y-88427971D01*
X161088327Y-88430653D01*
G37*
D12*
G36*
X160163954Y-102876505D02*
G01*
X158450448Y-102876505D01*
X158450448Y-102705772D01*
X158550448Y-102705772D01*
X158553154Y-102724558D01*
X158561164Y-102741480D01*
X158573936Y-102755842D01*
X158591334Y-102767028D01*
X158611767Y-102774079D01*
X158635188Y-102776505D01*
X158660084Y-102773940D01*
X158679701Y-102766784D01*
X158696288Y-102755799D01*
X158709102Y-102742750D01*
X158750428Y-102687503D01*
X158907598Y-102468319D01*
X159074550Y-102694048D01*
X159102577Y-102732297D01*
X159122800Y-102753790D01*
X159150992Y-102770399D01*
X159168191Y-102774895D01*
X159189186Y-102776505D01*
X159220591Y-102771774D01*
X159245459Y-102758089D01*
X159261809Y-102736431D01*
X159267771Y-102704697D01*
X159263656Y-102678468D01*
X159249674Y-102645961D01*
X159222543Y-102605290D01*
X159021574Y-102345318D01*
X159190614Y-102112457D01*
X159226775Y-102053741D01*
X159235767Y-102029610D01*
X159294369Y-102029610D01*
X159300473Y-102057706D01*
X159318274Y-102079289D01*
X159346201Y-102092890D01*
X159389550Y-102098096D01*
X159587002Y-102098096D01*
X159587002Y-102676414D01*
X159590322Y-102709491D01*
X159599209Y-102733944D01*
X159612721Y-102751836D01*
X159631404Y-102765471D01*
X159653227Y-102773658D01*
X159679161Y-102776505D01*
X159705485Y-102773622D01*
X159727613Y-102765335D01*
X159746536Y-102751543D01*
X159760237Y-102733491D01*
X159769198Y-102709100D01*
X159772529Y-102676414D01*
X159772529Y-102098096D01*
X159969926Y-102098096D01*
X160000886Y-102095669D01*
X160023826Y-102089168D01*
X160040653Y-102079289D01*
X160057982Y-102057752D01*
X160063954Y-102029610D01*
X160057701Y-102000548D01*
X160039719Y-101979052D01*
X160011768Y-101965608D01*
X159969926Y-101960538D01*
X159389550Y-101960538D01*
X159358240Y-101963001D01*
X159335031Y-101969602D01*
X159317999Y-101979638D01*
X159300406Y-102001408D01*
X159294369Y-102029610D01*
X159235767Y-102029610D01*
X159235963Y-102029084D01*
X159238865Y-102006260D01*
X159233235Y-101984273D01*
X159215289Y-101963762D01*
X159189338Y-101949698D01*
X159157807Y-101944907D01*
X159122405Y-101950299D01*
X159097356Y-101965325D01*
X159074793Y-101990548D01*
X159038280Y-102040357D01*
X158904466Y-102234286D01*
X158761474Y-102040357D01*
X158731029Y-101997907D01*
X158706519Y-101968501D01*
X158679866Y-101950866D01*
X158664310Y-101946464D01*
X158645684Y-101944907D01*
X158613235Y-101949784D01*
X158588202Y-101963762D01*
X158571346Y-101984501D01*
X158565835Y-102008459D01*
X158569891Y-102032454D01*
X158584306Y-102065080D01*
X158613426Y-102109233D01*
X158790490Y-102345367D01*
X158599907Y-102605290D01*
X158562263Y-102662492D01*
X158553251Y-102685277D01*
X158550448Y-102705772D01*
X158450448Y-102705772D01*
X158450448Y-101844907D01*
X160163954Y-101844907D01*
X160163954Y-102876505D01*
G37*
G36*
X153663505Y-110026505D02*
G01*
X151216080Y-110026505D01*
X151216080Y-109670196D01*
X151316080Y-109670196D01*
X151321704Y-109719046D01*
X151338667Y-109766428D01*
X151366382Y-109810087D01*
X151405217Y-109849226D01*
X151452749Y-109881351D01*
X151509356Y-109906037D01*
X151571743Y-109921232D01*
X151642456Y-109926505D01*
X151691351Y-109923767D01*
X151735436Y-109915856D01*
X151775391Y-109903057D01*
X151829873Y-109876048D01*
X151872111Y-109844341D01*
X151906096Y-109807717D01*
X151929649Y-109771362D01*
X151944929Y-109734714D01*
X151949158Y-109708836D01*
X151943089Y-109679390D01*
X151925582Y-109656958D01*
X151899426Y-109642260D01*
X151866891Y-109637224D01*
X151849663Y-109639480D01*
X151832709Y-109646456D01*
X151818778Y-109656944D01*
X151811112Y-109668633D01*
X151775877Y-109738113D01*
X151743078Y-109780643D01*
X151716433Y-109800480D01*
X151683158Y-109812716D01*
X151641247Y-109817084D01*
X151604454Y-109813027D01*
X151568652Y-109800671D01*
X151537034Y-109780479D01*
X151510894Y-109751822D01*
X151493947Y-109717384D01*
X151488088Y-109676791D01*
X151492822Y-109636003D01*
X151505982Y-109603618D01*
X151526941Y-109577775D01*
X151555215Y-109558380D01*
X151590574Y-109546299D01*
X151635092Y-109541969D01*
X151673121Y-109544167D01*
X151706423Y-109546365D01*
X151738052Y-109542253D01*
X151759894Y-109531124D01*
X151773893Y-109513365D01*
X151778853Y-109488724D01*
X151773141Y-109464605D01*
X151756157Y-109445786D01*
X151729886Y-109433975D01*
X151689167Y-109429422D01*
X151663998Y-109429422D01*
X151627889Y-109426052D01*
X151596134Y-109416273D01*
X151567773Y-109400064D01*
X151545767Y-109378217D01*
X151532259Y-109350716D01*
X151527436Y-109315800D01*
X151531049Y-109289054D01*
X151541642Y-109265328D01*
X151559529Y-109243846D01*
X151582840Y-109227384D01*
X151611214Y-109217283D01*
X151646138Y-109213706D01*
X151681398Y-109216220D01*
X151707247Y-109222890D01*
X151729060Y-109233781D01*
X151745111Y-109247168D01*
X151771599Y-109286247D01*
X151794570Y-109331578D01*
X151803248Y-109342785D01*
X151817431Y-109351606D01*
X151834768Y-109356925D01*
X151855185Y-109358787D01*
X151879012Y-109354406D01*
X151901622Y-109340566D01*
X151917247Y-109319751D01*
X151922725Y-109292011D01*
X151918112Y-109263284D01*
X151903161Y-109231341D01*
X151879816Y-109201015D01*
X151846173Y-109170817D01*
X151843490Y-109169157D01*
X152045713Y-109169157D01*
X152049450Y-109195437D01*
X152058737Y-109222939D01*
X152069783Y-109250587D01*
X152288063Y-109774097D01*
X152311474Y-109831299D01*
X152324411Y-109857321D01*
X152338731Y-109879170D01*
X152356700Y-109897901D01*
X152380167Y-109913218D01*
X152408028Y-109922992D01*
X152443420Y-109926505D01*
X152478790Y-109923055D01*
X152506673Y-109913462D01*
X152530148Y-109898292D01*
X152548438Y-109879170D01*
X152575970Y-109831055D01*
X152599381Y-109774097D01*
X152642318Y-109670196D01*
X152930428Y-109670196D01*
X152936052Y-109719046D01*
X152953014Y-109766428D01*
X152980730Y-109810087D01*
X153019564Y-109849226D01*
X153067096Y-109881351D01*
X153123703Y-109906037D01*
X153186090Y-109921232D01*
X153256803Y-109926505D01*
X153305699Y-109923767D01*
X153349784Y-109915856D01*
X153389739Y-109903057D01*
X153444220Y-109876048D01*
X153486459Y-109844341D01*
X153520443Y-109807717D01*
X153543996Y-109771362D01*
X153559276Y-109734714D01*
X153563505Y-109708836D01*
X153557437Y-109679390D01*
X153539930Y-109656958D01*
X153513774Y-109642260D01*
X153481238Y-109637224D01*
X153464011Y-109639480D01*
X153447056Y-109646456D01*
X153433125Y-109656944D01*
X153425459Y-109668633D01*
X153390224Y-109738113D01*
X153357425Y-109780643D01*
X153330780Y-109800480D01*
X153297505Y-109812716D01*
X153255594Y-109817084D01*
X153218802Y-109813027D01*
X153182999Y-109800671D01*
X153151382Y-109780479D01*
X153125242Y-109751822D01*
X153108295Y-109717384D01*
X153102436Y-109676791D01*
X153107170Y-109636003D01*
X153120330Y-109603618D01*
X153141289Y-109577775D01*
X153169563Y-109558380D01*
X153204922Y-109546299D01*
X153249439Y-109541969D01*
X153287468Y-109544167D01*
X153320771Y-109546365D01*
X153352399Y-109542253D01*
X153374241Y-109531124D01*
X153388241Y-109513365D01*
X153393201Y-109488724D01*
X153387488Y-109464605D01*
X153370505Y-109445786D01*
X153344234Y-109433975D01*
X153303515Y-109429422D01*
X153278346Y-109429422D01*
X153242237Y-109426052D01*
X153210482Y-109416273D01*
X153182120Y-109400064D01*
X153160115Y-109378217D01*
X153146606Y-109350716D01*
X153141783Y-109315800D01*
X153145397Y-109289054D01*
X153155990Y-109265328D01*
X153173877Y-109243846D01*
X153197188Y-109227384D01*
X153225562Y-109217283D01*
X153260485Y-109213706D01*
X153295746Y-109216220D01*
X153321595Y-109222890D01*
X153343407Y-109233781D01*
X153359459Y-109247168D01*
X153385947Y-109286247D01*
X153408918Y-109331578D01*
X153417595Y-109342785D01*
X153431779Y-109351606D01*
X153449116Y-109356925D01*
X153469533Y-109358787D01*
X153493359Y-109354406D01*
X153515969Y-109340566D01*
X153531595Y-109319751D01*
X153537072Y-109292011D01*
X153532460Y-109263284D01*
X153517508Y-109231341D01*
X153494163Y-109201015D01*
X153460520Y-109170817D01*
X153419576Y-109145487D01*
X153367482Y-109124802D01*
X153309755Y-109111923D01*
X153243285Y-109107412D01*
X153185049Y-109111191D01*
X153133925Y-109122018D01*
X153087208Y-109140041D01*
X153047866Y-109164125D01*
X153015601Y-109194096D01*
X152992746Y-109228019D01*
X152978826Y-109265560D01*
X152974117Y-109306274D01*
X152977308Y-109342348D01*
X152986412Y-109373559D01*
X153001045Y-109400748D01*
X153032345Y-109438331D01*
X153076003Y-109475974D01*
X153032812Y-109500068D01*
X152997033Y-109527363D01*
X152967789Y-109558749D01*
X152947189Y-109592771D01*
X152934688Y-109629733D01*
X152930428Y-109670196D01*
X152642318Y-109670196D01*
X152813924Y-109254935D01*
X152825355Y-109227042D01*
X152835246Y-109197342D01*
X152839258Y-109170231D01*
X152833057Y-109143488D01*
X152813539Y-109118354D01*
X152794998Y-109105361D01*
X152773757Y-109097591D01*
X152748968Y-109094907D01*
X152718678Y-109098166D01*
X152696993Y-109106946D01*
X152681648Y-109120796D01*
X152663410Y-109150858D01*
X152641586Y-109202569D01*
X152439078Y-109735605D01*
X152236021Y-109198759D01*
X152211951Y-109139163D01*
X152201412Y-109123379D01*
X152184968Y-109108584D01*
X152163655Y-109098591D01*
X152133531Y-109094907D01*
X152110528Y-109097564D01*
X152089347Y-109105507D01*
X152071099Y-109117905D01*
X152057363Y-109133692D01*
X152048534Y-109151609D01*
X152045713Y-109169157D01*
X151843490Y-109169157D01*
X151805228Y-109145487D01*
X151753135Y-109124802D01*
X151695408Y-109111923D01*
X151628937Y-109107412D01*
X151570701Y-109111191D01*
X151519577Y-109122018D01*
X151472861Y-109140041D01*
X151433518Y-109164125D01*
X151401254Y-109194096D01*
X151378399Y-109228019D01*
X151364479Y-109265560D01*
X151359769Y-109306274D01*
X151362961Y-109342348D01*
X151372065Y-109373559D01*
X151386697Y-109400748D01*
X151417998Y-109438331D01*
X151461655Y-109475974D01*
X151418465Y-109500068D01*
X151382685Y-109527363D01*
X151353442Y-109558749D01*
X151332841Y-109592771D01*
X151320341Y-109629733D01*
X151316080Y-109670196D01*
X151216080Y-109670196D01*
X151216080Y-108994907D01*
X153663505Y-108994907D01*
X153663505Y-110026505D01*
G37*
G36*
X142366763Y-95226306D02*
G01*
X142204977Y-95226306D01*
X142142091Y-95223574D01*
X142094903Y-95216341D01*
X142054583Y-95202366D01*
X142027144Y-95182635D01*
X142014656Y-95165642D01*
X142006716Y-95144198D01*
X142003843Y-95117080D01*
X142008642Y-95086084D01*
X142022637Y-95059586D01*
X142044797Y-95038031D01*
X142074679Y-95022461D01*
X142114089Y-95014366D01*
X142200086Y-95010591D01*
X142366763Y-95010591D01*
X142366763Y-95226306D01*
G37*
G36*
X142652840Y-95801505D02*
G01*
X140024009Y-95801505D01*
X140024009Y-94954610D01*
X140124009Y-94954610D01*
X140130114Y-94982706D01*
X140147915Y-95004289D01*
X140175842Y-95017890D01*
X140219191Y-95023096D01*
X140416643Y-95023096D01*
X140416643Y-95601414D01*
X140419962Y-95634491D01*
X140428850Y-95658944D01*
X140442362Y-95676836D01*
X140461045Y-95690471D01*
X140482868Y-95698658D01*
X140508802Y-95701505D01*
X140535125Y-95698622D01*
X140557254Y-95690335D01*
X140576176Y-95676543D01*
X140589878Y-95658491D01*
X140598839Y-95634100D01*
X140602170Y-95601414D01*
X140602170Y-95446173D01*
X140957561Y-95446173D01*
X140962384Y-95493736D01*
X140976521Y-95537198D01*
X140999986Y-95577429D01*
X141031848Y-95612770D01*
X141072708Y-95643100D01*
X141123909Y-95668581D01*
X141179460Y-95686348D01*
X141243392Y-95697556D01*
X141317130Y-95701505D01*
X141405262Y-95695988D01*
X141478015Y-95680620D01*
X141538102Y-95656613D01*
X141573036Y-95634924D01*
X141799302Y-95634924D01*
X141802100Y-95650799D01*
X141810952Y-95667164D01*
X141824603Y-95681359D01*
X141842661Y-95692321D01*
X141863833Y-95699121D01*
X141888988Y-95701505D01*
X141918391Y-95698084D01*
X141941524Y-95688462D01*
X141961174Y-95673769D01*
X141977959Y-95655538D01*
X142018955Y-95597408D01*
X142092155Y-95489160D01*
X142131587Y-95433945D01*
X142162277Y-95398790D01*
X142194558Y-95371884D01*
X142224706Y-95356487D01*
X142258657Y-95348216D01*
X142304555Y-95345106D01*
X142366763Y-95345106D01*
X142366763Y-95601023D01*
X142370104Y-95634606D01*
X142379010Y-95659197D01*
X142392482Y-95676983D01*
X142411133Y-95690501D01*
X142433125Y-95698657D01*
X142459472Y-95701505D01*
X142487826Y-95698457D01*
X142510360Y-95689901D01*
X142528440Y-95675957D01*
X142541314Y-95657651D01*
X142549727Y-95633340D01*
X142552840Y-95601267D01*
X142552840Y-94986313D01*
X142549312Y-94951788D01*
X142539973Y-94926996D01*
X142525912Y-94909474D01*
X142506131Y-94896977D01*
X142478149Y-94888675D01*
X142439193Y-94885538D01*
X142142274Y-94885538D01*
X142036871Y-94890228D01*
X141994523Y-94897440D01*
X141957736Y-94909181D01*
X141917555Y-94928461D01*
X141882228Y-94954659D01*
X141853352Y-94986614D01*
X141832329Y-95023438D01*
X141819555Y-95063564D01*
X141815239Y-95106431D01*
X141816177Y-95117080D01*
X141819163Y-95150966D01*
X141830297Y-95189024D01*
X141848090Y-95221731D01*
X141872556Y-95249949D01*
X141914245Y-95280705D01*
X141969445Y-95305991D01*
X142041267Y-95325175D01*
X141998360Y-95350989D01*
X141952240Y-95391219D01*
X141910205Y-95437633D01*
X141873051Y-95486815D01*
X141841030Y-95536779D01*
X141818756Y-95578406D01*
X141802958Y-95616648D01*
X141799302Y-95634924D01*
X141573036Y-95634924D01*
X141576823Y-95632573D01*
X141610215Y-95603856D01*
X141638669Y-95570102D01*
X141660862Y-95532854D01*
X141673355Y-95497954D01*
X141677357Y-95464687D01*
X141671460Y-95436738D01*
X141653782Y-95413103D01*
X141627294Y-95397087D01*
X141593826Y-95391609D01*
X141566350Y-95395855D01*
X141543872Y-95408316D01*
X141525761Y-95427878D01*
X141509141Y-95457604D01*
X141490688Y-95493724D01*
X141472267Y-95521156D01*
X141448930Y-95543982D01*
X141416543Y-95563117D01*
X141377271Y-95575052D01*
X141322076Y-95579579D01*
X141269536Y-95575530D01*
X141226608Y-95564227D01*
X141191393Y-95546362D01*
X141162877Y-95521661D01*
X141146657Y-95494477D01*
X141141220Y-95463661D01*
X141144395Y-95438458D01*
X141153427Y-95417525D01*
X141168203Y-95399914D01*
X141198490Y-95378650D01*
X141238270Y-95362349D01*
X141353784Y-95334554D01*
X141446718Y-95311549D01*
X141516945Y-95287122D01*
X141558467Y-95266348D01*
X141593031Y-95241609D01*
X141621413Y-95212775D01*
X141642441Y-95179795D01*
X141655502Y-95141210D01*
X141660102Y-95095685D01*
X141655447Y-95052388D01*
X141641833Y-95013200D01*
X141619215Y-94977227D01*
X141588739Y-94946060D01*
X141549809Y-94919575D01*
X141501063Y-94897702D01*
X141448649Y-94882714D01*
X141388563Y-94873242D01*
X141319603Y-94869907D01*
X141239495Y-94874838D01*
X141175457Y-94888371D01*
X141118540Y-94910430D01*
X141074395Y-94937367D01*
X141038698Y-94969615D01*
X141015539Y-95001602D01*
X141001387Y-95035507D01*
X140996909Y-95067353D01*
X141002702Y-95095260D01*
X141020484Y-95120695D01*
X141037622Y-95133974D01*
X141056943Y-95141771D01*
X141079231Y-95144436D01*
X141108488Y-95140615D01*
X141127921Y-95130416D01*
X141143890Y-95113644D01*
X141163806Y-95084792D01*
X141191582Y-95043256D01*
X141222333Y-95014010D01*
X141246792Y-95000988D01*
X141282098Y-94992106D01*
X141331912Y-94988706D01*
X141377774Y-94992060D01*
X141414821Y-95001359D01*
X141444789Y-95015915D01*
X141469401Y-95036196D01*
X141483059Y-95057642D01*
X141487544Y-95081128D01*
X141483846Y-95103272D01*
X141473091Y-95121770D01*
X141456339Y-95137389D01*
X141433084Y-95151372D01*
X141381152Y-95170912D01*
X141293939Y-95191623D01*
X141219630Y-95208704D01*
X141155728Y-95226648D01*
X141096950Y-95248540D01*
X141050160Y-95273347D01*
X141011313Y-95304484D01*
X140982071Y-95342956D01*
X140968902Y-95371851D01*
X140960536Y-95405925D01*
X140957561Y-95446173D01*
X140602170Y-95446173D01*
X140602170Y-95023096D01*
X140799567Y-95023096D01*
X140830526Y-95020669D01*
X140853467Y-95014168D01*
X140870293Y-95004289D01*
X140887622Y-94982752D01*
X140893594Y-94954610D01*
X140887342Y-94925548D01*
X140869359Y-94904052D01*
X140841408Y-94890608D01*
X140799567Y-94885538D01*
X140219191Y-94885538D01*
X140187880Y-94888001D01*
X140164672Y-94894602D01*
X140147640Y-94904638D01*
X140130047Y-94926408D01*
X140124009Y-94954610D01*
X140024009Y-94954610D01*
X140024009Y-94769907D01*
X142652840Y-94769907D01*
X142652840Y-95801505D01*
G37*
G36*
X143314290Y-109782695D02*
G01*
X143177728Y-109782695D01*
X143106672Y-109780545D01*
X143053586Y-109769701D01*
X143027750Y-109759141D01*
X143006105Y-109745374D01*
X142975761Y-109716905D01*
X142951015Y-109680765D01*
X142932038Y-109635461D01*
X142919619Y-109579051D01*
X142915100Y-109509240D01*
X142920474Y-109430620D01*
X142934583Y-109373316D01*
X142955107Y-109332457D01*
X142985189Y-109296805D01*
X143017865Y-109272563D01*
X143053640Y-109257866D01*
X143115549Y-109246179D01*
X143195533Y-109241843D01*
X143314290Y-109241843D01*
X143314290Y-109782695D01*
G37*
G36*
X143600422Y-110014000D02*
G01*
X142166690Y-110014000D01*
X142166690Y-109621983D01*
X142266690Y-109621983D01*
X142272458Y-109649053D01*
X142289331Y-109670245D01*
X142305731Y-109680038D01*
X142328240Y-109686491D01*
X142358794Y-109688905D01*
X142553114Y-109688905D01*
X142594266Y-109683799D01*
X142621642Y-109670245D01*
X142639245Y-109648985D01*
X142645218Y-109621983D01*
X142639345Y-109594440D01*
X142622247Y-109573183D01*
X142595223Y-109559648D01*
X142553114Y-109554474D01*
X142358794Y-109554474D01*
X142316693Y-109559650D01*
X142289716Y-109573183D01*
X142272574Y-109594444D01*
X142266690Y-109621983D01*
X142166690Y-109621983D01*
X142166690Y-109510266D01*
X142726550Y-109510266D01*
X142730251Y-109580819D01*
X142740729Y-109642255D01*
X142759062Y-109699787D01*
X142784528Y-109750015D01*
X142818236Y-109795389D01*
X142860530Y-109835939D01*
X142898810Y-109862074D01*
X142940269Y-109882346D01*
X142984804Y-109897147D01*
X143033197Y-109906916D01*
X143084447Y-109912127D01*
X143145140Y-109914000D01*
X143383094Y-109914000D01*
X143429828Y-109910106D01*
X143459096Y-109900371D01*
X143480387Y-109883855D01*
X143492618Y-109862025D01*
X143498249Y-109835492D01*
X143500422Y-109798326D01*
X143500422Y-109211459D01*
X143496887Y-109176871D01*
X143487529Y-109152031D01*
X143473439Y-109134474D01*
X143453658Y-109121977D01*
X143425676Y-109113675D01*
X143386721Y-109110538D01*
X143148822Y-109110538D01*
X143059205Y-109114683D01*
X142989069Y-109125877D01*
X142946200Y-109139000D01*
X142905963Y-109158077D01*
X142867949Y-109183469D01*
X142826471Y-109220577D01*
X142792107Y-109263465D01*
X142764606Y-109312827D01*
X142744106Y-109369610D01*
X142731128Y-109434977D01*
X142726612Y-109509240D01*
X142726550Y-109510266D01*
X142166690Y-109510266D01*
X142166690Y-109010538D01*
X143600422Y-109010538D01*
X143600422Y-110014000D01*
G37*
G36*
X150357636Y-105346469D02*
G01*
X150195849Y-105346469D01*
X150132963Y-105343396D01*
X150085775Y-105335258D01*
X150045455Y-105319537D01*
X150018016Y-105297340D01*
X150005528Y-105278222D01*
X149997589Y-105254097D01*
X149994715Y-105223591D01*
X149999515Y-105188720D01*
X150013510Y-105158909D01*
X150035669Y-105134659D01*
X150065552Y-105117143D01*
X150104962Y-105108037D01*
X150190958Y-105103789D01*
X150357636Y-105103789D01*
X150357636Y-105346469D01*
G37*
G36*
X151194026Y-105098457D02*
G01*
X151241691Y-105113736D01*
X151284449Y-105138835D01*
X151320990Y-105173417D01*
X151350012Y-105216672D01*
X151373527Y-105273654D01*
X151387779Y-105336936D01*
X151392816Y-105410821D01*
X151387788Y-105485362D01*
X151373527Y-105549581D01*
X151349646Y-105607472D01*
X151319177Y-105652292D01*
X151281091Y-105688167D01*
X151238613Y-105713181D01*
X151191484Y-105728197D01*
X151138816Y-105733350D01*
X151093399Y-105729427D01*
X151051025Y-105717843D01*
X151010991Y-105698509D01*
X150975626Y-105671828D01*
X150944735Y-105636363D01*
X150918173Y-105590688D01*
X150899686Y-105540852D01*
X150887841Y-105481489D01*
X150883606Y-105410821D01*
X150887421Y-105345486D01*
X150898241Y-105288838D01*
X150915370Y-105239637D01*
X150940235Y-105194327D01*
X150970389Y-105158280D01*
X151006045Y-105130278D01*
X151046718Y-105109906D01*
X151091481Y-105097505D01*
X151141289Y-105093238D01*
X151194026Y-105098457D01*
G37*
G36*
X152607296Y-105981068D02*
G01*
X148838597Y-105981068D01*
X148838597Y-105793745D01*
X148938597Y-105793745D01*
X148944294Y-105823491D01*
X148960963Y-105846666D01*
X148987074Y-105861408D01*
X149027074Y-105867000D01*
X149523204Y-105867000D01*
X149562577Y-105863450D01*
X149590604Y-105854095D01*
X149610198Y-105840072D01*
X149624101Y-105820349D01*
X149628797Y-105806165D01*
X149790174Y-105806165D01*
X149792972Y-105824023D01*
X149801824Y-105842435D01*
X149815475Y-105858404D01*
X149833533Y-105870736D01*
X149854706Y-105878386D01*
X149879860Y-105881068D01*
X149909263Y-105877220D01*
X149932397Y-105866395D01*
X149952046Y-105849865D01*
X149968831Y-105829356D01*
X150009828Y-105763960D01*
X150083027Y-105642180D01*
X150122459Y-105580063D01*
X150153149Y-105540514D01*
X150185431Y-105510245D01*
X150215578Y-105492923D01*
X150249529Y-105483618D01*
X150295427Y-105480119D01*
X150357636Y-105480119D01*
X150357636Y-105768026D01*
X150360977Y-105805807D01*
X150369883Y-105833472D01*
X150383354Y-105853481D01*
X150402005Y-105868688D01*
X150423997Y-105877864D01*
X150450344Y-105881068D01*
X150478698Y-105877640D01*
X150501232Y-105868014D01*
X150519312Y-105852327D01*
X150532186Y-105831732D01*
X150540599Y-105804383D01*
X150543712Y-105768301D01*
X150543712Y-105412085D01*
X150695002Y-105412085D01*
X150698322Y-105481481D01*
X150707929Y-105544763D01*
X150723414Y-105602613D01*
X150745777Y-105657885D01*
X150774147Y-105707286D01*
X150808593Y-105751430D01*
X150849078Y-105789897D01*
X150895387Y-105821944D01*
X150948178Y-105847765D01*
X151004252Y-105865839D01*
X151067058Y-105877131D01*
X151137607Y-105881068D01*
X151207663Y-105877052D01*
X151270701Y-105865475D01*
X151327640Y-105846831D01*
X151381255Y-105820429D01*
X151427736Y-105788247D01*
X151467829Y-105750166D01*
X151501823Y-105706391D01*
X151530128Y-105656624D01*
X151552734Y-105600140D01*
X151558171Y-105579752D01*
X151700232Y-105579752D01*
X151705265Y-105623471D01*
X151721610Y-105673449D01*
X151748199Y-105722073D01*
X151788654Y-105772203D01*
X151821091Y-105801807D01*
X151859737Y-105828037D01*
X151905378Y-105850843D01*
X151953651Y-105867198D01*
X152008460Y-105877468D01*
X152070846Y-105881068D01*
X152140617Y-105877536D01*
X152201034Y-105867549D01*
X152257483Y-105850127D01*
X152307591Y-105825564D01*
X152352987Y-105792922D01*
X152395573Y-105750331D01*
X152428597Y-105705388D01*
X152456738Y-105654820D01*
X152478757Y-105600546D01*
X152494657Y-105542163D01*
X152504062Y-105481162D01*
X152507296Y-105414998D01*
X152503554Y-105342685D01*
X152492790Y-105277753D01*
X152475532Y-105219304D01*
X152450886Y-105163692D01*
X152420534Y-105114583D01*
X152384418Y-105071311D01*
X152342596Y-105033551D01*
X152296437Y-105002429D01*
X152245492Y-104977669D01*
X152191600Y-104959900D01*
X152135201Y-104949157D01*
X152075792Y-104945520D01*
X152003580Y-104950621D01*
X151938714Y-104965371D01*
X151880044Y-104989319D01*
X151825580Y-105022026D01*
X151782213Y-105058160D01*
X151748483Y-105097744D01*
X151721883Y-105142445D01*
X151707287Y-105182819D01*
X151702705Y-105220019D01*
X151708307Y-105250028D01*
X151725347Y-105276567D01*
X151750448Y-105294963D01*
X151780081Y-105301022D01*
X151812652Y-105296351D01*
X151833717Y-105284041D01*
X151850901Y-105263420D01*
X151873230Y-105226118D01*
X151899485Y-105183589D01*
X151927254Y-105150789D01*
X151956541Y-105126266D01*
X151989888Y-105108333D01*
X152028794Y-105097169D01*
X152074528Y-105093238D01*
X152128528Y-105098774D01*
X152175255Y-105114715D01*
X152216248Y-105140916D01*
X152252472Y-105178363D01*
X152279770Y-105222016D01*
X152300457Y-105275559D01*
X152313855Y-105340992D01*
X152318692Y-105420713D01*
X152315034Y-105490479D01*
X152304910Y-105548053D01*
X152289346Y-105595359D01*
X152266280Y-105639015D01*
X152238653Y-105673141D01*
X152206365Y-105699113D01*
X152169267Y-105717863D01*
X152127706Y-105729364D01*
X152080683Y-105733350D01*
X152029833Y-105728767D01*
X151986280Y-105715694D01*
X151948627Y-105694552D01*
X151916442Y-105665555D01*
X151889292Y-105628015D01*
X151867185Y-105580411D01*
X151853466Y-105546641D01*
X151837894Y-105521445D01*
X151824532Y-105509151D01*
X151806223Y-105501351D01*
X151781290Y-105498474D01*
X151750360Y-105504309D01*
X151724138Y-105521829D01*
X151706265Y-105547824D01*
X151700232Y-105579752D01*
X151558171Y-105579752D01*
X151568477Y-105541105D01*
X151578124Y-105478166D01*
X151581420Y-105410821D01*
X151577955Y-105341893D01*
X151567875Y-105278391D01*
X151551525Y-105219689D01*
X151528114Y-105163617D01*
X151499186Y-105114480D01*
X151464752Y-105071531D01*
X151424399Y-105034164D01*
X151378499Y-105003027D01*
X151326431Y-104977943D01*
X151271204Y-104960314D01*
X151209795Y-104949336D01*
X151141289Y-104945520D01*
X151070812Y-104949387D01*
X151007655Y-104960510D01*
X150950890Y-104978359D01*
X150899708Y-105002673D01*
X150852155Y-105034346D01*
X150811139Y-105071698D01*
X150776133Y-105115070D01*
X150746879Y-105165064D01*
X150718749Y-105236961D01*
X150701161Y-105318718D01*
X150695085Y-105410821D01*
X150695002Y-105412085D01*
X150543712Y-105412085D01*
X150543712Y-105076477D01*
X150540184Y-105037636D01*
X150530846Y-105009745D01*
X150516784Y-104990033D01*
X150497003Y-104975974D01*
X150469022Y-104966634D01*
X150430066Y-104963106D01*
X150133146Y-104963106D01*
X150027743Y-104968381D01*
X149985395Y-104976495D01*
X149948608Y-104989704D01*
X149908427Y-105011394D01*
X149873101Y-105040866D01*
X149844224Y-105076815D01*
X149823202Y-105118243D01*
X149810427Y-105163384D01*
X149806111Y-105211610D01*
X149807049Y-105223591D01*
X149810035Y-105261712D01*
X149821169Y-105304527D01*
X149838962Y-105341323D01*
X149863428Y-105373067D01*
X149905118Y-105407669D01*
X149960318Y-105436115D01*
X150032139Y-105457697D01*
X149989232Y-105486738D01*
X149943113Y-105531996D01*
X149901077Y-105584212D01*
X149863923Y-105639542D01*
X149831902Y-105695751D01*
X149809628Y-105742582D01*
X149793830Y-105785604D01*
X149790174Y-105806165D01*
X149628797Y-105806165D01*
X149633352Y-105792407D01*
X149636851Y-105753463D01*
X149636851Y-105076642D01*
X149633606Y-105039073D01*
X149624980Y-105011631D01*
X149609691Y-104989719D01*
X149587721Y-104974701D01*
X149560313Y-104966266D01*
X149523204Y-104963106D01*
X149041197Y-104963106D01*
X149000764Y-104968617D01*
X148975142Y-104982944D01*
X148958943Y-105005555D01*
X148953380Y-105034876D01*
X148958972Y-105064766D01*
X148975142Y-105087468D01*
X149000764Y-105101795D01*
X149041197Y-105107307D01*
X149450719Y-105107307D01*
X149450719Y-105325367D01*
X149073785Y-105325367D01*
X149034977Y-105330679D01*
X149010148Y-105344546D01*
X148994411Y-105366464D01*
X148988990Y-105395104D01*
X148994317Y-105423878D01*
X149009818Y-105446267D01*
X149034511Y-105460555D01*
X149073785Y-105466050D01*
X149450719Y-105466050D01*
X149450719Y-105719281D01*
X149027074Y-105719281D01*
X148987079Y-105724886D01*
X148960963Y-105739670D01*
X148944350Y-105762967D01*
X148938597Y-105793745D01*
X148838597Y-105793745D01*
X148838597Y-104845520D01*
X152607296Y-104845520D01*
X152607296Y-105981068D01*
G37*
D13*
G36*
X150712663Y-106715709D02*
G01*
X150608244Y-107008367D01*
X150495703Y-106702758D01*
X150481164Y-106668417D01*
X150469074Y-106649415D01*
X150453135Y-106637777D01*
X150428896Y-106633515D01*
X150405318Y-106637828D01*
X150385641Y-106650655D01*
X150372138Y-106669361D01*
X150367774Y-106690363D01*
X150370937Y-106710751D01*
X150378161Y-106732421D01*
X150387479Y-106755417D01*
X150512757Y-107066155D01*
X150526434Y-107100178D01*
X150545284Y-107135611D01*
X150556975Y-107148814D01*
X150571058Y-107158650D01*
X150587497Y-107164749D01*
X150608244Y-107166942D01*
X150634431Y-107163471D01*
X150653251Y-107154033D01*
X150668174Y-107140176D01*
X150678042Y-107125909D01*
X150704671Y-107066155D01*
X150829009Y-106758751D01*
X150837899Y-106735755D01*
X150845593Y-106712161D01*
X150848713Y-106691303D01*
X150846711Y-106677851D01*
X150840421Y-106664076D01*
X150830597Y-106651909D01*
X150817425Y-106642064D01*
X150802170Y-106635656D01*
X150785668Y-106633515D01*
X150764437Y-106635977D01*
X150749816Y-106642482D01*
X150739976Y-106652536D01*
X150728147Y-106675012D01*
X150712663Y-106715709D01*
G37*
G36*
X150067936Y-107088253D02*
G01*
X150067936Y-106656810D01*
X150152546Y-106716209D01*
X150202534Y-106742130D01*
X150230101Y-106748407D01*
X150249362Y-106744410D01*
X150266731Y-106731994D01*
X150278714Y-106714107D01*
X150282631Y-106693910D01*
X150278462Y-106671546D01*
X150267030Y-106657109D01*
X150248186Y-106645178D01*
X150212534Y-106627104D01*
X150158610Y-106597946D01*
X150120295Y-106569872D01*
X150087712Y-106538027D01*
X150059002Y-106502552D01*
X150023911Y-106456390D01*
X150013192Y-106450124D01*
X149992452Y-106447500D01*
X149976073Y-106449781D01*
X149962409Y-106456376D01*
X149950778Y-106467546D01*
X149939374Y-106490177D01*
X149935135Y-106522470D01*
X149935135Y-107069531D01*
X149938682Y-107109231D01*
X149947806Y-107135872D01*
X149961138Y-107153132D01*
X149978726Y-107163323D01*
X150002027Y-107166942D01*
X150020973Y-107164617D01*
X150036662Y-107157975D01*
X150049856Y-107146981D01*
X150059426Y-107132576D01*
X150065641Y-107113468D01*
X150067936Y-107088253D01*
G37*
G36*
X149607001Y-107166942D02*
G01*
X149635166Y-107161999D01*
X149659104Y-107147280D01*
X149671042Y-107132848D01*
X149678405Y-107114893D01*
X149681031Y-107092356D01*
X149678682Y-107073252D01*
X149671782Y-107056271D01*
X149660087Y-107040851D01*
X149644997Y-107028812D01*
X149627986Y-107021673D01*
X149608411Y-107019224D01*
X149588852Y-107021631D01*
X149571612Y-107028680D01*
X149556094Y-107040595D01*
X149543974Y-107055921D01*
X149536822Y-107072972D01*
X149534381Y-107092356D01*
X149536968Y-107114601D01*
X149544249Y-107132506D01*
X149556094Y-107147066D01*
X149579704Y-107161983D01*
X149607001Y-107166942D01*
G37*
G36*
X149215655Y-106451724D02*
G01*
X149258340Y-106463848D01*
X149295921Y-106483532D01*
X149328554Y-106510584D01*
X149356001Y-106545104D01*
X149378414Y-106588251D01*
X149392126Y-106632503D01*
X149402392Y-106688439D01*
X149408022Y-106748416D01*
X149410043Y-106819231D01*
X149408248Y-106874474D01*
X149403119Y-106923865D01*
X149393987Y-106970914D01*
X149381277Y-107012256D01*
X149358055Y-107057901D01*
X149329033Y-107095435D01*
X149293997Y-107125866D01*
X149253703Y-107148664D01*
X149210324Y-107162303D01*
X149162906Y-107166942D01*
X149121399Y-107163478D01*
X149083135Y-107153312D01*
X149047459Y-107136466D01*
X149015277Y-107113563D01*
X148987134Y-107084906D01*
X148962786Y-107049870D01*
X148941112Y-107001467D01*
X148927267Y-106946775D01*
X148920256Y-106887209D01*
X148917650Y-106811068D01*
X148918007Y-106801450D01*
X149051391Y-106801450D01*
X149054202Y-106889552D01*
X149061393Y-106950878D01*
X149070387Y-106988118D01*
X149082060Y-107016646D01*
X149095928Y-107038116D01*
X149114152Y-107054825D01*
X149136373Y-107064912D01*
X149163846Y-107068463D01*
X149190416Y-107065069D01*
X149212190Y-107055387D01*
X149230311Y-107039312D01*
X149244144Y-107018578D01*
X149255982Y-106990363D01*
X149265317Y-106952802D01*
X149272868Y-106891372D01*
X149275789Y-106805297D01*
X149272395Y-106715972D01*
X149263645Y-106652605D01*
X149251383Y-106609280D01*
X149236087Y-106580573D01*
X149216986Y-106561410D01*
X149193679Y-106549983D01*
X149164787Y-106545979D01*
X149137175Y-106549322D01*
X149114970Y-106558755D01*
X149096912Y-106574189D01*
X149083030Y-106594296D01*
X149071187Y-106621647D01*
X149061863Y-106658049D01*
X149054313Y-106717717D01*
X149051391Y-106801450D01*
X148918007Y-106801450D01*
X148920427Y-106736238D01*
X148928034Y-106675379D01*
X148939514Y-106626384D01*
X148954109Y-106587353D01*
X148978084Y-106544680D01*
X149005827Y-106510716D01*
X149038821Y-106483449D01*
X149076780Y-106463614D01*
X149118766Y-106451657D01*
X149166710Y-106447500D01*
X149215655Y-106451724D01*
G37*
%LPC*%
D14*
%TO.C,MOD1*%
X138675000Y-109500000D03*
X138675000Y-107125000D03*
X138675000Y-104750000D03*
X138675000Y-102375000D03*
X138675000Y-100000000D03*
X138675000Y-97625000D03*
X138675000Y-95250000D03*
X138675000Y-92875000D03*
X138675000Y-90500000D03*
D15*
X140500000Y-88675000D03*
X142875000Y-88675000D03*
X145250000Y-88675000D03*
X154750000Y-88675000D03*
X157125000Y-88675000D03*
X159500000Y-88675000D03*
D14*
X161325000Y-90500000D03*
X161325000Y-92875000D03*
X161325000Y-95250000D03*
X161325000Y-97625000D03*
X161325000Y-100000000D03*
X161325000Y-102375000D03*
X161325000Y-104750000D03*
X161325000Y-107125000D03*
X161325000Y-109500000D03*
D15*
X159500000Y-111325000D03*
X157125000Y-111325000D03*
X154750000Y-111325000D03*
X152375000Y-111325000D03*
X150000000Y-111325000D03*
X147625000Y-111325000D03*
X145250000Y-111325000D03*
X142875000Y-111325000D03*
X140500000Y-111325000D03*
%TD*%
D16*
%TO.C,TP13*%
X157575000Y-101825000D03*
%TD*%
%TO.C,TP7*%
X156800000Y-101025000D03*
%TD*%
%TO.C,TP12*%
X154550000Y-97025000D03*
%TD*%
%TO.C,TP21*%
X141600000Y-94000000D03*
%TD*%
%TO.C,TP22*%
X151975000Y-96300000D03*
%TD*%
%TO.C,TP2*%
X157650000Y-95800000D03*
%TD*%
%TO.C,TP3*%
X153725000Y-100750000D03*
%TD*%
%LPD*%
M02*
