%TF.GenerationSoftware,KiCad,Pcbnew,9.0.1*%
%TF.CreationDate,2025-12-15T21:38:01-06:00*%
%TF.ProjectId,ProtoCore_v1,50726f74-6f43-46f7-9265-5f76312e6b69,rev?*%
%TF.SameCoordinates,Original*%
%TF.FileFunction,Copper,L5,Inr*%
%TF.FilePolarity,Positive*%
%FSLAX46Y46*%
G04 Gerber Fmt 4.6, Leading zero omitted, Abs format (unit mm)*
G04 Created by KiCad (PCBNEW 9.0.1) date 2025-12-15 21:38:01*
%MOMM*%
%LPD*%
G01*
G04 APERTURE LIST*
%TA.AperFunction,ViaPad*%
%ADD10C,0.450000*%
%TD*%
%TA.AperFunction,ViaPad*%
%ADD11C,0.500000*%
%TD*%
%TA.AperFunction,Conductor*%
%ADD12C,0.150000*%
%TD*%
%TA.AperFunction,Conductor*%
%ADD13C,0.200000*%
%TD*%
G04 APERTURE END LIST*
D10*
%TO.N,GND*%
X146775000Y-104925000D03*
D11*
X141175000Y-90825000D03*
X138250000Y-96437500D03*
D10*
X146110000Y-90400000D03*
D11*
X160687500Y-88250000D03*
X144825000Y-88575000D03*
X146450000Y-88275000D03*
X159250000Y-93275000D03*
X138250000Y-105937500D03*
X153825000Y-106575000D03*
X153950000Y-92950000D03*
X141687500Y-88250000D03*
X156175000Y-90625000D03*
X155600000Y-93400000D03*
X161750000Y-91687500D03*
D10*
X151430000Y-108600000D03*
D11*
X161750000Y-101187500D03*
X143825000Y-90925000D03*
D10*
X139450000Y-105785000D03*
X149075000Y-107850000D03*
D11*
X142400000Y-91775000D03*
X155550000Y-104200000D03*
D10*
X159950000Y-95350000D03*
D11*
X142800000Y-89325000D03*
X157525000Y-93750000D03*
X157975000Y-91550000D03*
D10*
X140125000Y-103700000D03*
D11*
X151525000Y-104612500D03*
X158975000Y-90425000D03*
X146650000Y-92970000D03*
X144050000Y-91900000D03*
D10*
X147575000Y-109400000D03*
D11*
X156625000Y-104225000D03*
X140050000Y-92000000D03*
X152325000Y-93425000D03*
D10*
X148350000Y-108550000D03*
X146110000Y-91399500D03*
X160380000Y-110900000D03*
D11*
X153125000Y-94400000D03*
X143800000Y-89850000D03*
X146630000Y-93770000D03*
D10*
X142075000Y-107500000D03*
X153375000Y-108275000D03*
D11*
X151225000Y-101700000D03*
X154640000Y-105940000D03*
D10*
X141630000Y-101150000D03*
D11*
X146437500Y-111750000D03*
X154637500Y-110687500D03*
D10*
X140175000Y-107425000D03*
D11*
X153450000Y-89485000D03*
D10*
X153600000Y-97600000D03*
D11*
X155937500Y-88250000D03*
X156125000Y-92075000D03*
X148812500Y-111750000D03*
D10*
X139925000Y-108437499D03*
D11*
X152780000Y-96350000D03*
X142925000Y-93125000D03*
X161750000Y-108312500D03*
X138250000Y-91687500D03*
D10*
X142350000Y-110040000D03*
X156050000Y-98850000D03*
D11*
X155325000Y-89525000D03*
X153450000Y-90775000D03*
X154125000Y-88875000D03*
X153462500Y-88250000D03*
D10*
X159200000Y-108825000D03*
X151760000Y-99810000D03*
D11*
X153775000Y-104125000D03*
X155937500Y-105500000D03*
X146690000Y-91880000D03*
D10*
X144710000Y-90400000D03*
D11*
X139312500Y-111750000D03*
D10*
X143525000Y-108425000D03*
X151750000Y-109925000D03*
D11*
X161750000Y-94062500D03*
X154640000Y-108315000D03*
X144062500Y-111750000D03*
D10*
X140125000Y-100275000D03*
D11*
X138250000Y-110687500D03*
D10*
X144710000Y-91400500D03*
D11*
X160687500Y-111750000D03*
X138250000Y-108312500D03*
X155925000Y-106250000D03*
X158312500Y-111750000D03*
X150375000Y-92475000D03*
X152160000Y-90775000D03*
D10*
X149375000Y-102700000D03*
D11*
X138250000Y-103562500D03*
X141375000Y-89525000D03*
X151225000Y-94450000D03*
X161750000Y-103562500D03*
D10*
X155525000Y-96050000D03*
D11*
X152825000Y-91450000D03*
X148925000Y-91350000D03*
D10*
X159075000Y-110100000D03*
X146110000Y-92399500D03*
D11*
X138250000Y-89312500D03*
X138250000Y-98812500D03*
X138250000Y-94062500D03*
X155937500Y-111750000D03*
X138250000Y-101187500D03*
D10*
X144080000Y-110410000D03*
X144710000Y-92400000D03*
X152525000Y-108287500D03*
D11*
X146600000Y-88975000D03*
X148290000Y-90775000D03*
D10*
X141350000Y-103775000D03*
D11*
X147000000Y-90775000D03*
D10*
X144800000Y-105850000D03*
D11*
X144160000Y-93000000D03*
X148930000Y-93020000D03*
D10*
X156550000Y-96925000D03*
X141044098Y-110150000D03*
D11*
X157700000Y-106250000D03*
X150250000Y-91400000D03*
X157060000Y-94670000D03*
D10*
X160800000Y-110375000D03*
D11*
X144000000Y-88250000D03*
D10*
X144710000Y-89400500D03*
D11*
X159650000Y-91900000D03*
X147650000Y-91425000D03*
X151975000Y-105725000D03*
X158312500Y-105500000D03*
X144230000Y-93780000D03*
X149175000Y-98775000D03*
D10*
X146420000Y-109600000D03*
D11*
X149580000Y-90775000D03*
X160687500Y-105500000D03*
X151187500Y-111750000D03*
X157040000Y-100420000D03*
X154150000Y-90125000D03*
X157525000Y-89575000D03*
X161750000Y-96437500D03*
X161750000Y-98812500D03*
X145625000Y-88975000D03*
X147396643Y-97764828D03*
X152481250Y-95400000D03*
D10*
X144830000Y-93410000D03*
D11*
X161750000Y-89312500D03*
X150850000Y-95750000D03*
X147398026Y-99548026D03*
X161750000Y-110687500D03*
D10*
X141020000Y-97560000D03*
D11*
X158312500Y-88250000D03*
X139312500Y-88250000D03*
D10*
X147200000Y-101700000D03*
D11*
X154200000Y-91350000D03*
X150870000Y-90775000D03*
D10*
X153350000Y-110875000D03*
X157870002Y-94900000D03*
X159975000Y-109650000D03*
D11*
X145601974Y-99551974D03*
X157630000Y-100770000D03*
X141687500Y-111750000D03*
D10*
X145990000Y-93410000D03*
D11*
X141175000Y-93325000D03*
X145600592Y-97764828D03*
X153575000Y-111750000D03*
D10*
X147125000Y-106850000D03*
X151425000Y-98075000D03*
D11*
X151550000Y-91375000D03*
X161750000Y-105937500D03*
%TO.N,+3V3*%
X139550000Y-93900000D03*
X157475000Y-110080000D03*
X151975000Y-106450000D03*
X156550000Y-99850000D03*
X141044098Y-109502500D03*
D10*
X142225003Y-101050000D03*
D11*
X152025000Y-96350000D03*
X141775000Y-94850000D03*
X157075000Y-95325000D03*
X158450000Y-110875000D03*
X158050000Y-101350000D03*
X155925000Y-107175000D03*
D10*
X153015000Y-100575000D03*
D11*
X146775000Y-104277297D03*
X156225000Y-104850000D03*
D10*
X154900000Y-94600000D03*
D11*
X153825000Y-105900000D03*
X148975000Y-93675000D03*
X142707149Y-109510702D03*
X156275000Y-110224999D03*
X152825000Y-104625000D03*
X158450000Y-109475000D03*
D10*
X141020000Y-96600000D03*
X158268355Y-95425659D03*
D11*
X155630000Y-110875000D03*
X141575000Y-93875000D03*
X152275000Y-107400000D03*
D10*
%TO.N,VIN*%
X159900000Y-107475000D03*
X160800000Y-107125000D03*
X159600000Y-106150000D03*
X159025000Y-108075000D03*
X160800000Y-108175000D03*
%TO.N,/Microcontroller/BOOT1*%
X155800000Y-94585000D03*
X147766915Y-95991915D03*
%TO.N,/Microcontroller/UART0_RX_MCU*%
X149390202Y-95500000D03*
X153675000Y-94925000D03*
%TO.N,I2C0_SCL*%
X143400000Y-104250000D03*
X141740000Y-106200000D03*
X143040000Y-105910000D03*
X141300000Y-104800000D03*
%TO.N,USB_D-*%
X144475000Y-105325000D03*
X143650000Y-110900000D03*
%TO.N,USB_D+*%
X144476248Y-110873830D03*
X145125000Y-105325000D03*
%TO.N,UART0_RX*%
X153725000Y-96200000D03*
X159050000Y-100950000D03*
%TO.N,EMMC_DAT1*%
X154900000Y-95850000D03*
X151390420Y-97467520D03*
%TO.N,EMMC_DAT2*%
X155740631Y-96635214D03*
X151900000Y-100400000D03*
%TO.N,EMMC_DAT3*%
X149245343Y-99454657D03*
X153065209Y-97909768D03*
%TO.N,EMMC_DAT0*%
X153099420Y-97334595D03*
X149725000Y-98400000D03*
%TO.N,IO4*%
X141950000Y-96125000D03*
D11*
X139200000Y-90500000D03*
D10*
%TO.N,QSPI_IO3*%
X150800000Y-108550000D03*
X146750000Y-102125000D03*
%TO.N,IO2*%
X143175000Y-96200000D03*
D11*
X140100000Y-89825000D03*
D10*
%TO.N,IO0*%
X145669818Y-96105182D03*
X159925000Y-96800000D03*
%TO.N,UART0_TX*%
X150000000Y-95950000D03*
X159050000Y-101600000D03*
%TO.N,IO7*%
X142000000Y-99000000D03*
X139180000Y-108650000D03*
%TO.N,IO11*%
X141000000Y-103025000D03*
X143825000Y-99925000D03*
%TO.N,IO9*%
X153984788Y-109750000D03*
X159175000Y-104625000D03*
X143275000Y-99350000D03*
%TO.N,QSPI_IO2*%
X146400000Y-109000000D03*
X147775000Y-103500000D03*
%TO.N,QSPI_IO0*%
X149175000Y-102075000D03*
X151050000Y-109925000D03*
%TO.N,IO10*%
X141900000Y-100400000D03*
X139275000Y-109400000D03*
%TO.N,IO8*%
X140825000Y-100150000D03*
X139925000Y-104300000D03*
%TO.N,IO5*%
X141725000Y-97400000D03*
X139250000Y-93025000D03*
%TO.N,IO14*%
X160700000Y-92850000D03*
X151025000Y-96900000D03*
%TO.N,IO1*%
X160575000Y-96275000D03*
X144525000Y-97075000D03*
%TO.N,IO6*%
X140975000Y-98300000D03*
%TO.N,QSPI_IO1*%
X146912500Y-106312500D03*
X147587500Y-101287500D03*
%TO.N,IO3*%
X143125000Y-98375000D03*
X150300000Y-110025000D03*
%TO.N,INT_IMU*%
X142087499Y-108300000D03*
X145650000Y-101400000D03*
%TO.N,+3V3_AUX*%
X152525000Y-110225000D03*
X152525000Y-109600000D03*
%TO.N,CORE_BOOT_SEL*%
X140975000Y-95850000D03*
X153910000Y-110400000D03*
D11*
%TO.N,IO16*%
X159500000Y-89250000D03*
D10*
X148225000Y-96950000D03*
%TO.N,CORE_RESET_N*%
X140080000Y-95850000D03*
%TO.N,3V3_AUX_EN*%
X152925000Y-107412500D03*
X150550000Y-103325000D03*
%TO.N,CORE_RST_REQ_N*%
X146500000Y-95200000D03*
X153625000Y-100600000D03*
D11*
%TO.N,IO15*%
X160750000Y-90675000D03*
D10*
X148950000Y-97625000D03*
%TD*%
D12*
%TO.N,IO3*%
X142075000Y-98375000D02*
X143125000Y-98375000D01*
X141650000Y-97950000D02*
X142075000Y-97950000D01*
X141401000Y-98199000D02*
X141650000Y-97950000D01*
X141401000Y-98476455D02*
X141401000Y-98199000D01*
X141151455Y-98726000D02*
X141401000Y-98476455D01*
X140874000Y-98726000D02*
X141151455Y-98726000D01*
X139487500Y-100112500D02*
X140874000Y-98726000D01*
X140625000Y-103375000D02*
X139487500Y-102237500D01*
X140625000Y-108500000D02*
X140625000Y-103375000D01*
X139800000Y-109325000D02*
X140625000Y-108500000D01*
X139800000Y-110575000D02*
X139800000Y-109325000D01*
X142825000Y-110925000D02*
X140150000Y-110925000D01*
X143800000Y-109950000D02*
X142825000Y-110925000D01*
X140150000Y-110925000D02*
X139800000Y-110575000D01*
X145325000Y-110800000D02*
X144475000Y-109950000D01*
X139487500Y-102237500D02*
X139487500Y-100112500D01*
X149525000Y-110800000D02*
X145325000Y-110800000D01*
X142075000Y-97950000D02*
X142075000Y-98375000D01*
X144475000Y-109950000D02*
X143800000Y-109950000D01*
X150300000Y-110025000D02*
X149525000Y-110800000D01*
%TO.N,IO9*%
X142950000Y-99675000D02*
X143275000Y-99350000D01*
X141900000Y-99675000D02*
X142950000Y-99675000D01*
X141300000Y-100275000D02*
X141900000Y-99675000D01*
X141300000Y-100675000D02*
X141300000Y-100275000D01*
X141025000Y-100950000D02*
X141300000Y-100675000D01*
X141025000Y-101575000D02*
X141025000Y-100950000D01*
X142375000Y-102925000D02*
X141025000Y-101575000D01*
X142375000Y-106450000D02*
X142375000Y-102925000D01*
X141150000Y-107675000D02*
X142375000Y-106450000D01*
X141150000Y-108575000D02*
X141150000Y-107675000D01*
X140325000Y-109400000D02*
X141150000Y-108575000D01*
X140325000Y-110300000D02*
X140325000Y-109400000D01*
X140600000Y-110575000D02*
X140325000Y-110300000D01*
X142500000Y-110575000D02*
X140600000Y-110575000D01*
X145775000Y-110100000D02*
X145125000Y-109450000D01*
X143625000Y-109450000D02*
X142500000Y-110575000D01*
X153332096Y-109150000D02*
X149900000Y-109150000D01*
X149900000Y-109150000D02*
X148950000Y-110100000D01*
X148950000Y-110100000D02*
X145775000Y-110100000D01*
X153984788Y-109802692D02*
X153332096Y-109150000D01*
X145125000Y-109450000D02*
X143625000Y-109450000D01*
%TO.N,CORE_BOOT_SEL*%
X138750000Y-110275000D02*
X138750000Y-98075000D01*
X139800000Y-111325000D02*
X138750000Y-110275000D01*
X152300000Y-111325000D02*
X139800000Y-111325000D01*
X153250000Y-110375000D02*
X152300000Y-111325000D01*
X153875000Y-110375000D02*
X153250000Y-110375000D01*
X138750000Y-98075000D02*
X140975000Y-95850000D01*
%TO.N,/Microcontroller/BOOT1*%
X148725000Y-95025000D02*
X147766915Y-95983085D01*
X147766915Y-95983085D02*
X147766915Y-95991915D01*
X155065000Y-93850000D02*
X152575000Y-93850000D01*
X155800000Y-94585000D02*
X155065000Y-93850000D01*
X151400000Y-95025000D02*
X148725000Y-95025000D01*
X152575000Y-93850000D02*
X151400000Y-95025000D01*
D13*
%TO.N,IO16*%
X158100000Y-90225000D02*
X159075000Y-89250000D01*
X155300000Y-92200000D02*
X157275000Y-90225000D01*
X149875000Y-94275000D02*
X151950000Y-92200000D01*
X148325000Y-94275000D02*
X149875000Y-94275000D01*
X148125000Y-97150000D02*
X147875000Y-97150000D01*
X148225000Y-97050000D02*
X148125000Y-97150000D01*
X151950000Y-92200000D02*
X155300000Y-92200000D01*
X148225000Y-96950000D02*
X148225000Y-97050000D01*
X147225000Y-95375000D02*
X148325000Y-94275000D01*
X147875000Y-97150000D02*
X147225000Y-96500000D01*
X147225000Y-96500000D02*
X147225000Y-95375000D01*
X157275000Y-90225000D02*
X158100000Y-90225000D01*
X159075000Y-89250000D02*
X159500000Y-89250000D01*
%TD*%
%TA.AperFunction,Conductor*%
%TO.N,+3V3*%
G36*
X140701131Y-93019685D02*
G01*
X140746886Y-93072489D01*
X140756830Y-93141647D01*
X140753867Y-93156090D01*
X140724500Y-93265691D01*
X140724500Y-93384309D01*
X140755201Y-93498886D01*
X140814511Y-93601613D01*
X140898387Y-93685489D01*
X141001114Y-93744799D01*
X141115691Y-93775500D01*
X141115694Y-93775500D01*
X141234306Y-93775500D01*
X141234309Y-93775500D01*
X141348886Y-93744799D01*
X141451613Y-93685489D01*
X141535489Y-93601613D01*
X141594799Y-93498886D01*
X141625500Y-93384309D01*
X141625500Y-93265691D01*
X141596133Y-93156092D01*
X141597796Y-93086244D01*
X141636958Y-93028381D01*
X141701187Y-93000877D01*
X141715908Y-93000000D01*
X142350500Y-93000000D01*
X142417539Y-93019685D01*
X142463294Y-93072489D01*
X142474500Y-93124000D01*
X142474500Y-93184309D01*
X142505201Y-93298886D01*
X142564511Y-93401613D01*
X142648387Y-93485489D01*
X142751114Y-93544799D01*
X142865691Y-93575500D01*
X142865694Y-93575500D01*
X142984306Y-93575500D01*
X142984309Y-93575500D01*
X143098886Y-93544799D01*
X143201613Y-93485489D01*
X143285489Y-93401613D01*
X143344799Y-93298886D01*
X143375500Y-93184309D01*
X143375500Y-93124000D01*
X143378050Y-93115314D01*
X143376762Y-93106353D01*
X143387740Y-93082312D01*
X143395185Y-93056961D01*
X143402025Y-93051033D01*
X143405787Y-93042797D01*
X143428021Y-93028507D01*
X143447989Y-93011206D01*
X143458503Y-93008918D01*
X143464565Y-93005023D01*
X143499500Y-93000000D01*
X143598460Y-93000000D01*
X143665499Y-93019685D01*
X143711254Y-93072489D01*
X143718232Y-93091899D01*
X143740201Y-93173886D01*
X143799511Y-93276613D01*
X143799513Y-93276615D01*
X143860683Y-93337785D01*
X143894168Y-93399108D01*
X143889184Y-93468800D01*
X143871385Y-93500943D01*
X143869516Y-93503379D01*
X143869511Y-93503386D01*
X143869511Y-93503387D01*
X143828808Y-93573886D01*
X143812799Y-93601615D01*
X143810201Y-93606114D01*
X143779500Y-93720691D01*
X143779500Y-93839309D01*
X143810201Y-93953886D01*
X143869511Y-94056613D01*
X143953387Y-94140489D01*
X144056114Y-94199799D01*
X144170691Y-94230500D01*
X144170694Y-94230500D01*
X144289306Y-94230500D01*
X144289309Y-94230500D01*
X144403886Y-94199799D01*
X144506613Y-94140489D01*
X144590489Y-94056613D01*
X144649799Y-93953886D01*
X144656895Y-93927403D01*
X144693260Y-93867745D01*
X144756107Y-93837217D01*
X144776669Y-93835500D01*
X144886016Y-93835500D01*
X144886018Y-93835500D01*
X144994237Y-93806503D01*
X145091263Y-93750485D01*
X145170485Y-93671263D01*
X145226503Y-93574237D01*
X145255500Y-93466018D01*
X145255500Y-93353982D01*
X145226503Y-93245763D01*
X145206401Y-93210946D01*
X145191999Y-93186000D01*
X145190567Y-93180098D01*
X145186592Y-93175511D01*
X145182427Y-93146546D01*
X145175526Y-93118100D01*
X145177512Y-93112361D01*
X145176648Y-93106353D01*
X145188807Y-93079728D01*
X145198379Y-93052073D01*
X145203150Y-93048320D01*
X145205673Y-93042797D01*
X145230295Y-93026973D01*
X145253300Y-93008882D01*
X145260650Y-93007465D01*
X145264451Y-93005023D01*
X145299386Y-93000000D01*
X145520614Y-93000000D01*
X145587653Y-93019685D01*
X145633408Y-93072489D01*
X145643352Y-93141647D01*
X145628001Y-93186000D01*
X145593498Y-93245760D01*
X145593497Y-93245763D01*
X145564500Y-93353982D01*
X145564500Y-93466018D01*
X145571834Y-93493387D01*
X145593497Y-93574236D01*
X145593498Y-93574239D01*
X145606128Y-93596114D01*
X145649515Y-93671263D01*
X145728737Y-93750485D01*
X145825763Y-93806503D01*
X145933982Y-93835500D01*
X145933984Y-93835500D01*
X146046015Y-93835500D01*
X146046018Y-93835500D01*
X146052328Y-93833809D01*
X146122175Y-93835468D01*
X146180040Y-93874628D01*
X146204198Y-93921485D01*
X146210201Y-93943886D01*
X146269511Y-94046613D01*
X146353387Y-94130489D01*
X146456114Y-94189799D01*
X146570691Y-94220500D01*
X146570694Y-94220500D01*
X146689306Y-94220500D01*
X146689309Y-94220500D01*
X146803886Y-94189799D01*
X146906613Y-94130489D01*
X146990489Y-94046613D01*
X147049799Y-93943886D01*
X147080500Y-93829309D01*
X147080500Y-93710691D01*
X147049799Y-93596114D01*
X146990489Y-93493387D01*
X146964783Y-93467681D01*
X146931298Y-93406358D01*
X146936282Y-93336666D01*
X146964783Y-93292319D01*
X146980740Y-93276362D01*
X147010489Y-93246613D01*
X147069799Y-93143886D01*
X147083727Y-93091904D01*
X147120091Y-93032247D01*
X147182937Y-93001717D01*
X147203501Y-93000000D01*
X148363101Y-93000000D01*
X148430140Y-93019685D01*
X148475895Y-93072489D01*
X148482873Y-93091899D01*
X148510201Y-93193886D01*
X148569511Y-93296613D01*
X148653387Y-93380489D01*
X148756114Y-93439799D01*
X148870691Y-93470500D01*
X148870694Y-93470500D01*
X148989306Y-93470500D01*
X148989309Y-93470500D01*
X149103886Y-93439799D01*
X149206613Y-93380489D01*
X149290489Y-93296613D01*
X149349799Y-93193886D01*
X149366926Y-93129967D01*
X149370084Y-93124784D01*
X149370518Y-93118728D01*
X149388057Y-93095298D01*
X149403290Y-93070308D01*
X149408751Y-93067654D01*
X149412390Y-93062795D01*
X149439809Y-93052567D01*
X149466137Y-93039779D01*
X149472165Y-93040499D01*
X149477854Y-93038378D01*
X149506454Y-93044599D01*
X149535512Y-93048074D01*
X149541710Y-93052269D01*
X149546127Y-93053230D01*
X149574381Y-93074381D01*
X149688681Y-93188681D01*
X149722166Y-93250004D01*
X149725000Y-93276362D01*
X149725000Y-93798638D01*
X149705315Y-93865677D01*
X149688681Y-93886319D01*
X149636819Y-93938181D01*
X149575496Y-93971666D01*
X149549138Y-93974500D01*
X148285438Y-93974500D01*
X148247224Y-93984739D01*
X148209009Y-93994979D01*
X148209008Y-93994980D01*
X148147540Y-94030468D01*
X148147540Y-94030469D01*
X148142947Y-94033120D01*
X148140485Y-94034542D01*
X147098830Y-95076198D01*
X147037507Y-95109683D01*
X146967815Y-95104699D01*
X146911882Y-95062827D01*
X146896584Y-95035961D01*
X146896505Y-95035770D01*
X146896503Y-95035763D01*
X146840485Y-94938737D01*
X146761263Y-94859515D01*
X146664237Y-94803497D01*
X146556018Y-94774500D01*
X146443982Y-94774500D01*
X146335763Y-94803497D01*
X146335760Y-94803498D01*
X146238740Y-94859513D01*
X146238734Y-94859517D01*
X146159517Y-94938734D01*
X146159513Y-94938740D01*
X146103498Y-95035760D01*
X146103497Y-95035763D01*
X146074500Y-95143982D01*
X146074500Y-95256018D01*
X146095868Y-95335763D01*
X146103497Y-95364236D01*
X146103498Y-95364239D01*
X146117610Y-95388681D01*
X146159515Y-95461263D01*
X146238737Y-95540485D01*
X146335763Y-95596503D01*
X146443982Y-95625500D01*
X146443984Y-95625500D01*
X146556016Y-95625500D01*
X146556018Y-95625500D01*
X146643908Y-95601950D01*
X146713757Y-95603613D01*
X146771619Y-95642776D01*
X146799123Y-95707004D01*
X146800000Y-95721725D01*
X146800000Y-97525000D01*
X146909824Y-97634824D01*
X146943309Y-97696147D01*
X146946143Y-97722505D01*
X146946143Y-97824137D01*
X146976844Y-97938714D01*
X147036154Y-98041441D01*
X147120030Y-98125317D01*
X147222757Y-98184627D01*
X147337334Y-98215328D01*
X147337337Y-98215328D01*
X147438966Y-98215328D01*
X147506005Y-98235013D01*
X147526647Y-98251647D01*
X147575000Y-98300000D01*
X148715292Y-98300000D01*
X148782331Y-98319685D01*
X148828086Y-98372489D01*
X148838030Y-98441647D01*
X148817383Y-98490661D01*
X148818575Y-98491349D01*
X148814512Y-98498385D01*
X148814511Y-98498387D01*
X148755201Y-98601114D01*
X148724500Y-98715691D01*
X148724500Y-98834309D01*
X148755201Y-98948886D01*
X148814511Y-99051613D01*
X148814513Y-99051615D01*
X148856403Y-99093505D01*
X148889888Y-99154828D01*
X148884904Y-99224520D01*
X148876110Y-99243184D01*
X148848842Y-99290415D01*
X148848840Y-99290420D01*
X148819843Y-99398639D01*
X148819843Y-99510675D01*
X148848840Y-99618894D01*
X148904858Y-99715920D01*
X148984080Y-99795142D01*
X149081106Y-99851160D01*
X149189325Y-99880157D01*
X149189327Y-99880157D01*
X149301359Y-99880157D01*
X149301361Y-99880157D01*
X149409580Y-99851160D01*
X149506606Y-99795142D01*
X149547766Y-99753982D01*
X151334500Y-99753982D01*
X151334500Y-99866018D01*
X151363497Y-99974237D01*
X151419515Y-100071263D01*
X151419517Y-100071265D01*
X151469889Y-100121637D01*
X151503374Y-100182960D01*
X151501983Y-100241410D01*
X151474500Y-100343980D01*
X151474500Y-100343982D01*
X151474500Y-100456018D01*
X151503497Y-100564237D01*
X151559515Y-100661263D01*
X151638737Y-100740485D01*
X151735763Y-100796503D01*
X151843982Y-100825500D01*
X151843984Y-100825500D01*
X151956016Y-100825500D01*
X151956018Y-100825500D01*
X152064237Y-100796503D01*
X152161263Y-100740485D01*
X152240485Y-100661263D01*
X152296503Y-100564237D01*
X152301930Y-100543982D01*
X153199500Y-100543982D01*
X153199500Y-100656018D01*
X153214150Y-100710691D01*
X153228497Y-100764236D01*
X153228498Y-100764239D01*
X153237880Y-100780489D01*
X153284515Y-100861263D01*
X153363737Y-100940485D01*
X153460763Y-100996503D01*
X153568982Y-101025500D01*
X153568984Y-101025500D01*
X153681016Y-101025500D01*
X153681018Y-101025500D01*
X153789237Y-100996503D01*
X153886263Y-100940485D01*
X153965485Y-100861263D01*
X154021503Y-100764237D01*
X154050500Y-100656018D01*
X154050500Y-100543982D01*
X154021503Y-100435763D01*
X153978160Y-100360691D01*
X156589500Y-100360691D01*
X156589500Y-100479309D01*
X156620201Y-100593886D01*
X156679511Y-100696613D01*
X156763387Y-100780489D01*
X156866114Y-100839799D01*
X156980691Y-100870500D01*
X156980694Y-100870500D01*
X157096949Y-100870500D01*
X157163988Y-100890185D01*
X157204993Y-100937507D01*
X157206137Y-100936847D01*
X157209563Y-100942782D01*
X157209743Y-100942989D01*
X157209926Y-100943410D01*
X157212009Y-100947017D01*
X157269511Y-101046613D01*
X157353387Y-101130489D01*
X157456114Y-101189799D01*
X157570691Y-101220500D01*
X157570694Y-101220500D01*
X157689306Y-101220500D01*
X157689309Y-101220500D01*
X157803886Y-101189799D01*
X157906613Y-101130489D01*
X157990489Y-101046613D01*
X158049799Y-100943886D01*
X158080500Y-100829309D01*
X158080500Y-100710691D01*
X158049799Y-100596114D01*
X157990489Y-100493387D01*
X157906613Y-100409511D01*
X157803886Y-100350201D01*
X157689309Y-100319500D01*
X157573051Y-100319500D01*
X157506012Y-100299815D01*
X157465006Y-100252492D01*
X157463863Y-100253153D01*
X157460436Y-100247217D01*
X157460257Y-100247011D01*
X157460073Y-100246589D01*
X157457083Y-100241410D01*
X157400489Y-100143387D01*
X157316613Y-100059511D01*
X157213886Y-100000201D01*
X157099309Y-99969500D01*
X156980691Y-99969500D01*
X156866114Y-100000201D01*
X156866112Y-100000201D01*
X156866112Y-100000202D01*
X156763387Y-100059511D01*
X156763384Y-100059513D01*
X156679513Y-100143384D01*
X156679511Y-100143387D01*
X156644806Y-100203498D01*
X156620201Y-100246114D01*
X156589500Y-100360691D01*
X153978160Y-100360691D01*
X153965485Y-100338737D01*
X153886263Y-100259515D01*
X153789237Y-100203497D01*
X153681018Y-100174500D01*
X153568982Y-100174500D01*
X153460763Y-100203497D01*
X153460760Y-100203498D01*
X153363740Y-100259513D01*
X153363734Y-100259517D01*
X153284517Y-100338734D01*
X153284513Y-100338740D01*
X153228498Y-100435760D01*
X153228497Y-100435763D01*
X153199500Y-100543982D01*
X152301930Y-100543982D01*
X152325500Y-100456018D01*
X152325500Y-100343982D01*
X152296503Y-100235763D01*
X152240485Y-100138737D01*
X152190110Y-100088362D01*
X152156625Y-100027039D01*
X152158015Y-99968590D01*
X152185500Y-99866018D01*
X152185500Y-99753982D01*
X152156503Y-99645763D01*
X152100485Y-99548737D01*
X152021263Y-99469515D01*
X151924237Y-99413497D01*
X151816018Y-99384500D01*
X151703982Y-99384500D01*
X151595763Y-99413497D01*
X151595760Y-99413498D01*
X151498740Y-99469513D01*
X151498734Y-99469517D01*
X151419517Y-99548734D01*
X151419513Y-99548740D01*
X151363498Y-99645760D01*
X151363497Y-99645763D01*
X151334500Y-99753982D01*
X149547766Y-99753982D01*
X149585828Y-99715920D01*
X149641846Y-99618894D01*
X149670843Y-99510675D01*
X149670843Y-99398639D01*
X149641846Y-99290420D01*
X149585828Y-99193394D01*
X149569299Y-99176865D01*
X149558308Y-99156737D01*
X149543517Y-99139206D01*
X149541880Y-99126651D01*
X149535814Y-99115542D01*
X149537449Y-99092666D01*
X149534485Y-99069922D01*
X149540240Y-99053640D01*
X149540798Y-99045850D01*
X149544874Y-99036192D01*
X149547049Y-99031590D01*
X149594799Y-98948886D01*
X149606126Y-98906609D01*
X149610902Y-98896508D01*
X149626995Y-98878421D01*
X149639597Y-98857747D01*
X149649804Y-98852788D01*
X149657348Y-98844311D01*
X149680665Y-98837796D01*
X149702444Y-98827217D01*
X149723008Y-98825500D01*
X149781016Y-98825500D01*
X149781018Y-98825500D01*
X149889237Y-98796503D01*
X149893603Y-98793982D01*
X155624500Y-98793982D01*
X155624500Y-98906018D01*
X155653497Y-99014237D01*
X155709515Y-99111263D01*
X155788737Y-99190485D01*
X155885763Y-99246503D01*
X155993982Y-99275500D01*
X155993984Y-99275500D01*
X156106016Y-99275500D01*
X156106018Y-99275500D01*
X156214237Y-99246503D01*
X156311263Y-99190485D01*
X156390485Y-99111263D01*
X156446503Y-99014237D01*
X156475500Y-98906018D01*
X156475500Y-98793982D01*
X156446503Y-98685763D01*
X156390485Y-98588737D01*
X156311263Y-98509515D01*
X156232839Y-98464237D01*
X156214239Y-98453498D01*
X156214238Y-98453497D01*
X156214237Y-98453497D01*
X156106018Y-98424500D01*
X155993982Y-98424500D01*
X155885763Y-98453497D01*
X155885760Y-98453498D01*
X155788740Y-98509513D01*
X155788734Y-98509517D01*
X155709517Y-98588734D01*
X155709513Y-98588740D01*
X155653498Y-98685760D01*
X155653497Y-98685763D01*
X155624500Y-98793982D01*
X149893603Y-98793982D01*
X149986263Y-98740485D01*
X150065485Y-98661263D01*
X150121503Y-98564237D01*
X150150500Y-98456018D01*
X150150500Y-98343982D01*
X150121503Y-98235763D01*
X150065485Y-98138737D01*
X150038554Y-98111806D01*
X150005069Y-98050483D01*
X150010053Y-97980791D01*
X150038550Y-97936449D01*
X150677932Y-97297067D01*
X150697605Y-97286325D01*
X150714616Y-97271721D01*
X150727679Y-97269903D01*
X150739253Y-97263584D01*
X150761613Y-97265183D01*
X150783820Y-97262094D01*
X150800694Y-97267977D01*
X150808945Y-97268568D01*
X150817638Y-97272193D01*
X150822747Y-97274554D01*
X150860763Y-97296503D01*
X150883288Y-97302538D01*
X150892947Y-97307003D01*
X150911558Y-97323279D01*
X150932674Y-97336150D01*
X150937400Y-97345879D01*
X150945541Y-97352999D01*
X150952398Y-97376755D01*
X150963203Y-97398997D01*
X150964920Y-97419560D01*
X150964920Y-97523538D01*
X150984994Y-97598453D01*
X150993917Y-97631756D01*
X150993918Y-97631759D01*
X151053999Y-97735822D01*
X151051798Y-97737092D01*
X151072412Y-97790407D01*
X151058376Y-97858852D01*
X151056230Y-97862727D01*
X151028497Y-97910762D01*
X151028497Y-97910763D01*
X150999500Y-98018982D01*
X150999500Y-98131018D01*
X151027566Y-98235760D01*
X151028497Y-98239236D01*
X151028498Y-98239239D01*
X151034855Y-98250250D01*
X151084515Y-98336263D01*
X151163737Y-98415485D01*
X151260763Y-98471503D01*
X151368982Y-98500500D01*
X151368984Y-98500500D01*
X151481016Y-98500500D01*
X151481018Y-98500500D01*
X151589237Y-98471503D01*
X151686263Y-98415485D01*
X151765485Y-98336263D01*
X151821503Y-98239237D01*
X151850500Y-98131018D01*
X151850500Y-98018982D01*
X151821503Y-97910763D01*
X151765485Y-97813737D01*
X151765484Y-97813736D01*
X151761421Y-97806698D01*
X151763621Y-97805427D01*
X151743008Y-97752118D01*
X151757041Y-97683672D01*
X151759163Y-97679837D01*
X151786923Y-97631757D01*
X151815920Y-97523538D01*
X151815920Y-97411502D01*
X151786923Y-97303283D01*
X151730905Y-97206257D01*
X151651683Y-97127035D01*
X151558662Y-97073329D01*
X151554659Y-97071018D01*
X151554658Y-97071017D01*
X151554657Y-97071017D01*
X151554654Y-97071016D01*
X151554651Y-97071015D01*
X151542401Y-97067732D01*
X151482742Y-97031365D01*
X151452216Y-96968517D01*
X151450500Y-96947959D01*
X151450500Y-96843984D01*
X151450500Y-96843982D01*
X151421503Y-96735763D01*
X151420784Y-96734517D01*
X151402363Y-96702610D01*
X151385890Y-96634710D01*
X151408743Y-96568683D01*
X151422063Y-96552936D01*
X151938681Y-96036319D01*
X151965608Y-96021615D01*
X151991427Y-96005023D01*
X151997627Y-96004131D01*
X152000004Y-96002834D01*
X152026362Y-96000000D01*
X152247570Y-96000000D01*
X152314609Y-96019685D01*
X152360364Y-96072489D01*
X152370308Y-96141647D01*
X152362134Y-96171445D01*
X152360203Y-96176105D01*
X152356351Y-96190482D01*
X152329500Y-96290691D01*
X152329500Y-96409309D01*
X152360201Y-96523886D01*
X152419511Y-96626613D01*
X152503387Y-96710489D01*
X152606114Y-96769799D01*
X152720691Y-96800500D01*
X152720694Y-96800500D01*
X152732405Y-96800500D01*
X152799444Y-96820185D01*
X152845199Y-96872989D01*
X152855143Y-96942147D01*
X152826118Y-97005703D01*
X152820086Y-97012181D01*
X152758937Y-97073329D01*
X152758933Y-97073335D01*
X152702918Y-97170355D01*
X152702917Y-97170358D01*
X152673920Y-97278577D01*
X152673920Y-97390613D01*
X152700072Y-97488212D01*
X152702917Y-97498831D01*
X152702918Y-97498834D01*
X152721231Y-97530553D01*
X152737704Y-97598453D01*
X152721232Y-97654552D01*
X152668706Y-97745530D01*
X152668706Y-97745531D01*
X152639709Y-97853750D01*
X152639709Y-97965786D01*
X152668706Y-98074005D01*
X152724724Y-98171031D01*
X152803946Y-98250253D01*
X152900972Y-98306271D01*
X153009191Y-98335268D01*
X153009193Y-98335268D01*
X153121225Y-98335268D01*
X153121227Y-98335268D01*
X153229446Y-98306271D01*
X153326472Y-98250253D01*
X153405694Y-98171031D01*
X153443895Y-98104864D01*
X153453921Y-98087500D01*
X153504488Y-98039284D01*
X153561308Y-98025500D01*
X153656016Y-98025500D01*
X153656018Y-98025500D01*
X153764237Y-97996503D01*
X153861263Y-97940485D01*
X153940485Y-97861263D01*
X153996503Y-97764237D01*
X154025500Y-97656018D01*
X154025500Y-97543982D01*
X153996503Y-97435763D01*
X153940485Y-97338737D01*
X153861263Y-97259515D01*
X153769023Y-97206260D01*
X153764239Y-97203498D01*
X153764238Y-97203497D01*
X153764237Y-97203497D01*
X153656018Y-97174500D01*
X153569906Y-97174500D01*
X153502867Y-97154815D01*
X153462519Y-97112501D01*
X153458370Y-97105315D01*
X153439905Y-97073332D01*
X153360683Y-96994110D01*
X153280747Y-96947959D01*
X153263659Y-96938093D01*
X153263658Y-96938092D01*
X153263657Y-96938092D01*
X153155438Y-96909095D01*
X153155437Y-96909095D01*
X153147378Y-96908034D01*
X153147615Y-96906230D01*
X153090330Y-96889410D01*
X153044575Y-96836606D01*
X153034631Y-96767448D01*
X153063656Y-96703892D01*
X153069688Y-96697414D01*
X153103368Y-96663734D01*
X153140489Y-96626613D01*
X153199799Y-96523886D01*
X153199802Y-96523872D01*
X153201217Y-96520459D01*
X153203195Y-96518002D01*
X153203863Y-96516847D01*
X153204043Y-96516950D01*
X153245050Y-96466049D01*
X153311341Y-96443975D01*
X153379043Y-96461244D01*
X153403466Y-96480214D01*
X153463737Y-96540485D01*
X153560763Y-96596503D01*
X153668982Y-96625500D01*
X153668984Y-96625500D01*
X153781016Y-96625500D01*
X153781018Y-96625500D01*
X153889237Y-96596503D01*
X153986263Y-96540485D01*
X154065485Y-96461263D01*
X154121503Y-96364237D01*
X154150500Y-96256018D01*
X154150500Y-96143982D01*
X154121503Y-96035763D01*
X154065485Y-95938737D01*
X153986263Y-95859515D01*
X153889237Y-95803497D01*
X153853726Y-95793982D01*
X154474500Y-95793982D01*
X154474500Y-95906018D01*
X154499683Y-96000000D01*
X154503497Y-96014236D01*
X154503498Y-96014239D01*
X154522169Y-96046579D01*
X154559515Y-96111263D01*
X154638737Y-96190485D01*
X154735763Y-96246503D01*
X154843982Y-96275500D01*
X154843984Y-96275500D01*
X154956015Y-96275500D01*
X154956018Y-96275500D01*
X155044117Y-96251894D01*
X155113963Y-96253557D01*
X155163275Y-96283379D01*
X155175213Y-96295151D01*
X155184515Y-96311263D01*
X155263737Y-96390485D01*
X155283392Y-96401833D01*
X155294703Y-96412987D01*
X155304259Y-96430201D01*
X155317849Y-96444453D01*
X155320869Y-96460124D01*
X155328614Y-96474075D01*
X155327346Y-96493722D01*
X155331074Y-96513060D01*
X155327410Y-96533369D01*
X155315131Y-96579196D01*
X155315131Y-96691232D01*
X155340461Y-96785763D01*
X155344128Y-96799450D01*
X155344129Y-96799453D01*
X155352374Y-96813734D01*
X155400146Y-96896477D01*
X155479368Y-96975699D01*
X155576394Y-97031717D01*
X155684613Y-97060714D01*
X155684615Y-97060714D01*
X155796647Y-97060714D01*
X155796649Y-97060714D01*
X155904868Y-97031717D01*
X155966892Y-96995907D01*
X156034789Y-96979435D01*
X156100816Y-97002287D01*
X156144007Y-97057208D01*
X156148662Y-97071195D01*
X156153348Y-97088681D01*
X156153497Y-97089236D01*
X156153498Y-97089239D01*
X156166928Y-97112501D01*
X156209515Y-97186263D01*
X156288737Y-97265485D01*
X156385763Y-97321503D01*
X156493982Y-97350500D01*
X156493984Y-97350500D01*
X156606016Y-97350500D01*
X156606018Y-97350500D01*
X156714237Y-97321503D01*
X156811263Y-97265485D01*
X156890485Y-97186263D01*
X156946503Y-97089237D01*
X156975500Y-96981018D01*
X156975500Y-96868982D01*
X156946503Y-96760763D01*
X156890485Y-96663737D01*
X156811263Y-96584515D01*
X156714237Y-96528497D01*
X156606018Y-96499500D01*
X156493982Y-96499500D01*
X156385763Y-96528497D01*
X156385762Y-96528497D01*
X156323739Y-96564306D01*
X156255839Y-96580777D01*
X156189812Y-96557925D01*
X156146622Y-96503003D01*
X156141970Y-96489028D01*
X156137134Y-96470977D01*
X156081116Y-96373951D01*
X156001894Y-96294729D01*
X155995993Y-96291322D01*
X155947779Y-96240755D01*
X155934557Y-96172147D01*
X155938219Y-96151850D01*
X155950500Y-96106018D01*
X155950500Y-95993982D01*
X155921503Y-95885763D01*
X155865485Y-95788737D01*
X155786263Y-95709515D01*
X155689237Y-95653497D01*
X155581018Y-95624500D01*
X155468982Y-95624500D01*
X155468980Y-95624500D01*
X155380884Y-95648105D01*
X155311035Y-95646442D01*
X155253172Y-95607279D01*
X155241407Y-95590333D01*
X155240488Y-95588743D01*
X155240485Y-95588737D01*
X155161263Y-95509515D01*
X155064237Y-95453497D01*
X154956018Y-95424500D01*
X154843982Y-95424500D01*
X154735763Y-95453497D01*
X154735760Y-95453498D01*
X154638740Y-95509513D01*
X154638734Y-95509517D01*
X154559517Y-95588734D01*
X154559513Y-95588740D01*
X154503498Y-95685760D01*
X154503497Y-95685763D01*
X154474500Y-95793982D01*
X153853726Y-95793982D01*
X153781018Y-95774500D01*
X153668982Y-95774500D01*
X153560763Y-95803497D01*
X153560760Y-95803498D01*
X153463740Y-95859513D01*
X153463734Y-95859517D01*
X153384517Y-95938734D01*
X153384515Y-95938737D01*
X153326709Y-96038859D01*
X153276141Y-96087074D01*
X153207534Y-96100296D01*
X153142670Y-96074328D01*
X153131641Y-96064539D01*
X153056615Y-95989513D01*
X153056613Y-95989511D01*
X152953886Y-95930201D01*
X152872893Y-95908498D01*
X152813234Y-95872135D01*
X152782705Y-95809288D01*
X152791000Y-95739913D01*
X152817303Y-95701048D01*
X152841739Y-95676613D01*
X152901049Y-95573886D01*
X152931750Y-95459309D01*
X152931750Y-95459305D01*
X152932481Y-95453755D01*
X152960748Y-95389859D01*
X152967727Y-95382272D01*
X153161448Y-95188551D01*
X153222767Y-95155069D01*
X153292458Y-95160053D01*
X153336806Y-95188554D01*
X153413737Y-95265485D01*
X153510763Y-95321503D01*
X153618982Y-95350500D01*
X153618984Y-95350500D01*
X153731016Y-95350500D01*
X153731018Y-95350500D01*
X153839237Y-95321503D01*
X153936263Y-95265485D01*
X154015485Y-95186263D01*
X154071503Y-95089237D01*
X154100500Y-94981018D01*
X154100500Y-94868982D01*
X154071503Y-94760763D01*
X154015485Y-94663737D01*
X153938554Y-94586806D01*
X153934216Y-94578861D01*
X153926967Y-94573435D01*
X153917731Y-94548672D01*
X153905069Y-94525483D01*
X153905714Y-94516452D01*
X153902551Y-94507970D01*
X153908167Y-94482149D01*
X153910053Y-94455791D01*
X153915871Y-94446736D01*
X153917403Y-94439698D01*
X153938545Y-94411454D01*
X154113683Y-94236316D01*
X154175005Y-94202834D01*
X154201362Y-94200000D01*
X154974023Y-94200000D01*
X155041062Y-94219685D01*
X155061704Y-94236319D01*
X155338181Y-94512796D01*
X155371666Y-94574119D01*
X155374500Y-94600477D01*
X155374500Y-94641018D01*
X155398158Y-94729309D01*
X155403497Y-94749236D01*
X155403498Y-94749239D01*
X155418083Y-94774500D01*
X155459515Y-94846263D01*
X155538737Y-94925485D01*
X155635763Y-94981503D01*
X155743982Y-95010500D01*
X155743984Y-95010500D01*
X155856016Y-95010500D01*
X155856018Y-95010500D01*
X155964237Y-94981503D01*
X156061263Y-94925485D01*
X156140485Y-94846263D01*
X156196503Y-94749237D01*
X156225500Y-94641018D01*
X156225500Y-94528982D01*
X156196503Y-94420763D01*
X156176432Y-94385999D01*
X156159960Y-94318099D01*
X156182813Y-94252072D01*
X156237735Y-94208882D01*
X156283820Y-94200000D01*
X156596455Y-94200000D01*
X156663494Y-94219685D01*
X156709249Y-94272489D01*
X156719193Y-94341647D01*
X156700993Y-94384858D01*
X156703575Y-94386349D01*
X156699512Y-94393385D01*
X156699511Y-94393387D01*
X156640201Y-94496114D01*
X156609500Y-94610691D01*
X156609500Y-94729309D01*
X156640201Y-94843886D01*
X156699511Y-94946613D01*
X156783387Y-95030489D01*
X156886114Y-95089799D01*
X157000691Y-95120500D01*
X157000694Y-95120500D01*
X157119306Y-95120500D01*
X157119309Y-95120500D01*
X157233886Y-95089799D01*
X157317277Y-95041652D01*
X157385175Y-95025179D01*
X157451203Y-95048031D01*
X157486663Y-95087038D01*
X157529517Y-95161263D01*
X157608739Y-95240485D01*
X157705765Y-95296503D01*
X157813984Y-95325500D01*
X157813986Y-95325500D01*
X157926018Y-95325500D01*
X157926020Y-95325500D01*
X158034239Y-95296503D01*
X158131265Y-95240485D01*
X158210487Y-95161263D01*
X158212322Y-95158083D01*
X158214573Y-95155937D01*
X158215435Y-95154814D01*
X158215610Y-95154948D01*
X158262880Y-95109866D01*
X158331486Y-95096635D01*
X158396354Y-95122596D01*
X158407394Y-95132394D01*
X158713681Y-95438681D01*
X158747166Y-95500004D01*
X158750000Y-95526362D01*
X158750000Y-96898638D01*
X158730315Y-96965677D01*
X158713681Y-96986319D01*
X158375000Y-97324999D01*
X158375000Y-101898638D01*
X158355315Y-101965677D01*
X158338681Y-101986319D01*
X157300000Y-103024999D01*
X157300000Y-104061664D01*
X157280315Y-104128703D01*
X157227511Y-104174458D01*
X157158353Y-104184402D01*
X157094797Y-104155377D01*
X157057023Y-104096599D01*
X157056225Y-104093758D01*
X157054083Y-104085763D01*
X157044799Y-104051114D01*
X156985489Y-103948387D01*
X156901613Y-103864511D01*
X156798886Y-103805201D01*
X156684309Y-103774500D01*
X156565691Y-103774500D01*
X156451114Y-103805201D01*
X156451112Y-103805201D01*
X156451112Y-103805202D01*
X156348387Y-103864511D01*
X156348384Y-103864513D01*
X156264513Y-103948384D01*
X156264511Y-103948387D01*
X156201137Y-104058153D01*
X156199446Y-104057177D01*
X156162266Y-104103303D01*
X156095968Y-104125359D01*
X156028271Y-104108070D01*
X155980668Y-104056926D01*
X155971786Y-104033532D01*
X155969799Y-104026114D01*
X155910489Y-103923387D01*
X155826613Y-103839511D01*
X155723886Y-103780201D01*
X155609309Y-103749500D01*
X155490691Y-103749500D01*
X155376114Y-103780201D01*
X155376112Y-103780201D01*
X155376112Y-103780202D01*
X155273387Y-103839511D01*
X155273384Y-103839513D01*
X155189513Y-103923384D01*
X155189511Y-103923387D01*
X155130201Y-104026114D01*
X155099500Y-104140691D01*
X155099500Y-104259309D01*
X155130201Y-104373886D01*
X155189511Y-104476613D01*
X155273387Y-104560489D01*
X155376114Y-104619799D01*
X155490691Y-104650500D01*
X155490694Y-104650500D01*
X155609306Y-104650500D01*
X155609309Y-104650500D01*
X155723886Y-104619799D01*
X155826613Y-104560489D01*
X155910489Y-104476613D01*
X155969799Y-104373886D01*
X155969799Y-104373885D01*
X155973863Y-104366847D01*
X155975556Y-104367824D01*
X156012710Y-104321712D01*
X156079002Y-104299641D01*
X156146703Y-104316915D01*
X156194318Y-104368048D01*
X156203214Y-104391469D01*
X156205201Y-104398887D01*
X156207863Y-104403497D01*
X156264511Y-104501613D01*
X156348387Y-104585489D01*
X156451114Y-104644799D01*
X156565691Y-104675500D01*
X156565694Y-104675500D01*
X156684306Y-104675500D01*
X156684309Y-104675500D01*
X156798886Y-104644799D01*
X156901613Y-104585489D01*
X156985489Y-104501613D01*
X157044799Y-104398886D01*
X157056225Y-104356240D01*
X157092590Y-104296581D01*
X157155437Y-104266052D01*
X157224812Y-104274347D01*
X157278690Y-104318832D01*
X157299965Y-104385384D01*
X157300000Y-104388335D01*
X157300000Y-106008595D01*
X157283389Y-106070591D01*
X157280201Y-106076114D01*
X157249500Y-106190691D01*
X157249500Y-106309309D01*
X157280201Y-106423886D01*
X157283386Y-106429403D01*
X157300000Y-106491403D01*
X157300000Y-107150000D01*
X158742441Y-108592441D01*
X158742336Y-108592545D01*
X158770276Y-108615062D01*
X158792340Y-108681356D01*
X158788194Y-108717872D01*
X158774500Y-108768980D01*
X158774500Y-108768982D01*
X158774500Y-108881018D01*
X158799549Y-108974500D01*
X158803497Y-108989236D01*
X158803498Y-108989239D01*
X158809563Y-108999743D01*
X158859515Y-109086263D01*
X158938737Y-109165485D01*
X159035763Y-109221503D01*
X159143982Y-109250500D01*
X159143984Y-109250500D01*
X159151000Y-109250500D01*
X159159685Y-109253050D01*
X159168647Y-109251762D01*
X159192687Y-109262740D01*
X159218039Y-109270185D01*
X159223966Y-109277025D01*
X159232203Y-109280787D01*
X159246492Y-109303021D01*
X159263794Y-109322989D01*
X159266081Y-109333503D01*
X159269977Y-109339565D01*
X159275000Y-109374500D01*
X159275000Y-109552060D01*
X159255315Y-109619099D01*
X159202511Y-109664854D01*
X159139145Y-109674352D01*
X159139145Y-109674500D01*
X159138158Y-109674500D01*
X159134822Y-109675000D01*
X159131022Y-109674500D01*
X159131018Y-109674500D01*
X159018982Y-109674500D01*
X158910763Y-109703497D01*
X158910760Y-109703498D01*
X158813740Y-109759513D01*
X158813734Y-109759517D01*
X158734517Y-109838734D01*
X158734513Y-109838740D01*
X158678498Y-109935760D01*
X158678497Y-109935763D01*
X158649500Y-110043982D01*
X158649500Y-110156018D01*
X158676306Y-110256058D01*
X158678497Y-110264236D01*
X158678498Y-110264239D01*
X158691214Y-110286263D01*
X158734515Y-110361263D01*
X158813737Y-110440485D01*
X158910763Y-110496503D01*
X159018982Y-110525500D01*
X159018984Y-110525500D01*
X159131015Y-110525500D01*
X159131018Y-110525500D01*
X159131020Y-110525499D01*
X159134812Y-110525000D01*
X159138019Y-110525500D01*
X159139145Y-110525500D01*
X159139145Y-110525675D01*
X159151715Y-110527635D01*
X159168647Y-110525201D01*
X159185518Y-110532906D01*
X159203848Y-110535764D01*
X159216642Y-110547119D01*
X159232203Y-110554226D01*
X159242231Y-110569830D01*
X159256104Y-110582143D01*
X159260919Y-110598909D01*
X159269977Y-110613004D01*
X159275000Y-110647939D01*
X159275000Y-110798638D01*
X159255315Y-110865677D01*
X159238681Y-110886319D01*
X158748830Y-111376169D01*
X158687507Y-111409654D01*
X158617815Y-111404670D01*
X158596546Y-111392890D01*
X158596151Y-111393575D01*
X158589114Y-111389512D01*
X158589113Y-111389511D01*
X158486386Y-111330201D01*
X158371809Y-111299500D01*
X158253191Y-111299500D01*
X158138614Y-111330201D01*
X158138612Y-111330201D01*
X158138612Y-111330202D01*
X158035887Y-111389511D01*
X158035883Y-111389514D01*
X157986715Y-111438682D01*
X157925392Y-111472166D01*
X157899035Y-111475000D01*
X156350965Y-111475000D01*
X156283926Y-111455315D01*
X156263285Y-111438682D01*
X156214116Y-111389514D01*
X156214113Y-111389511D01*
X156111386Y-111330201D01*
X155996809Y-111299500D01*
X155878191Y-111299500D01*
X155763614Y-111330201D01*
X155763612Y-111330201D01*
X155763612Y-111330202D01*
X155660887Y-111389511D01*
X155660883Y-111389514D01*
X155611715Y-111438682D01*
X155584788Y-111453384D01*
X155558970Y-111469977D01*
X155552767Y-111470868D01*
X155550392Y-111472166D01*
X155524035Y-111475000D01*
X155451362Y-111475000D01*
X155384323Y-111455315D01*
X155363681Y-111438681D01*
X155086319Y-111161319D01*
X155052834Y-111099996D01*
X155050000Y-111073638D01*
X155050000Y-110903672D01*
X155056764Y-110869658D01*
X155055195Y-110869238D01*
X155057299Y-110861386D01*
X155073840Y-110799652D01*
X155093628Y-110765380D01*
X155100000Y-110749999D01*
X155100000Y-109950000D01*
X153772069Y-108622069D01*
X153738584Y-108560746D01*
X153743568Y-108491054D01*
X153752359Y-108472394D01*
X153771503Y-108439237D01*
X153800500Y-108331018D01*
X153800500Y-108255691D01*
X154189500Y-108255691D01*
X154189500Y-108374309D01*
X154220201Y-108488886D01*
X154279511Y-108591613D01*
X154363387Y-108675489D01*
X154466114Y-108734799D01*
X154580691Y-108765500D01*
X154580694Y-108765500D01*
X154699306Y-108765500D01*
X154699309Y-108765500D01*
X154813886Y-108734799D01*
X154916613Y-108675489D01*
X155000489Y-108591613D01*
X155059799Y-108488886D01*
X155090500Y-108374309D01*
X155090500Y-108255691D01*
X155059799Y-108141114D01*
X155000489Y-108038387D01*
X154916613Y-107954511D01*
X154813886Y-107895201D01*
X154699309Y-107864500D01*
X154580691Y-107864500D01*
X154466114Y-107895201D01*
X154466112Y-107895201D01*
X154466112Y-107895202D01*
X154363387Y-107954511D01*
X154363384Y-107954513D01*
X154279513Y-108038384D01*
X154279511Y-108038387D01*
X154220201Y-108141114D01*
X154189500Y-108255691D01*
X153800500Y-108255691D01*
X153800500Y-108218982D01*
X153771503Y-108110763D01*
X153715485Y-108013737D01*
X153636263Y-107934515D01*
X153539237Y-107878497D01*
X153431018Y-107849500D01*
X153378797Y-107849500D01*
X153311758Y-107829815D01*
X153266003Y-107777011D01*
X153256059Y-107707853D01*
X153271410Y-107663500D01*
X153279493Y-107649500D01*
X153321503Y-107576737D01*
X153350500Y-107468518D01*
X153350500Y-107356482D01*
X153321503Y-107248263D01*
X153265485Y-107151237D01*
X153186263Y-107072015D01*
X153089237Y-107015997D01*
X152981018Y-106987000D01*
X152868982Y-106987000D01*
X152760763Y-107015997D01*
X152760760Y-107015998D01*
X152663740Y-107072013D01*
X152663734Y-107072017D01*
X152584517Y-107151234D01*
X152584513Y-107151240D01*
X152528498Y-107248260D01*
X152528497Y-107248263D01*
X152499500Y-107356482D01*
X152499500Y-107468518D01*
X152528497Y-107576737D01*
X152579016Y-107664239D01*
X152585807Y-107676000D01*
X152602280Y-107743900D01*
X152579428Y-107809927D01*
X152524507Y-107853117D01*
X152478420Y-107862000D01*
X152468982Y-107862000D01*
X152360763Y-107890997D01*
X152360760Y-107890998D01*
X152263740Y-107947013D01*
X152263734Y-107947017D01*
X152184517Y-108026234D01*
X152184513Y-108026240D01*
X152128498Y-108123260D01*
X152128497Y-108123263D01*
X152099500Y-108231482D01*
X152099500Y-108301000D01*
X152096949Y-108309685D01*
X152098238Y-108318647D01*
X152087259Y-108342687D01*
X152079815Y-108368039D01*
X152072974Y-108373966D01*
X152069213Y-108382203D01*
X152046978Y-108396492D01*
X152027011Y-108413794D01*
X152016496Y-108416081D01*
X152010435Y-108419977D01*
X151975500Y-108425000D01*
X151891880Y-108425000D01*
X151824841Y-108405315D01*
X151784493Y-108362999D01*
X151773245Y-108343518D01*
X151770485Y-108338737D01*
X151691263Y-108259515D01*
X151604664Y-108209517D01*
X151594239Y-108203498D01*
X151594238Y-108203497D01*
X151594237Y-108203497D01*
X151486018Y-108174500D01*
X151373982Y-108174500D01*
X151265763Y-108203497D01*
X151265758Y-108203499D01*
X151214698Y-108232978D01*
X151146798Y-108249449D01*
X151080771Y-108226596D01*
X151065019Y-108213271D01*
X151061265Y-108209517D01*
X151061263Y-108209515D01*
X150996579Y-108172169D01*
X150964239Y-108153498D01*
X150964238Y-108153497D01*
X150964237Y-108153497D01*
X150856018Y-108124500D01*
X150743982Y-108124500D01*
X150635763Y-108153497D01*
X150635760Y-108153498D01*
X150538740Y-108209513D01*
X150538734Y-108209517D01*
X150459517Y-108288734D01*
X150459513Y-108288740D01*
X150416639Y-108363000D01*
X150366072Y-108411216D01*
X150309252Y-108425000D01*
X149392845Y-108425000D01*
X149325806Y-108405315D01*
X149280051Y-108352511D01*
X149270107Y-108283353D01*
X149299132Y-108219797D01*
X149330845Y-108193613D01*
X149336263Y-108190485D01*
X149415485Y-108111263D01*
X149471503Y-108014237D01*
X149500500Y-107906018D01*
X149500500Y-107793982D01*
X149471503Y-107685763D01*
X149415485Y-107588737D01*
X149336263Y-107509515D01*
X149239237Y-107453497D01*
X149131018Y-107424500D01*
X149018982Y-107424500D01*
X148910763Y-107453497D01*
X148910760Y-107453498D01*
X148813740Y-107509513D01*
X148813734Y-107509517D01*
X148734517Y-107588734D01*
X148734513Y-107588740D01*
X148678498Y-107685760D01*
X148678497Y-107685763D01*
X148649500Y-107793982D01*
X148649500Y-107906018D01*
X148669707Y-107981431D01*
X148675898Y-108004537D01*
X148674235Y-108074387D01*
X148635072Y-108132249D01*
X148570844Y-108159753D01*
X148522749Y-108153133D01*
X148522088Y-108155601D01*
X148514238Y-108153497D01*
X148514237Y-108153497D01*
X148406018Y-108124500D01*
X148293982Y-108124500D01*
X148185763Y-108153497D01*
X148185760Y-108153498D01*
X148088740Y-108209513D01*
X148088734Y-108209517D01*
X148009517Y-108288734D01*
X148009513Y-108288740D01*
X147966639Y-108363000D01*
X147916072Y-108411216D01*
X147859252Y-108425000D01*
X144324999Y-108425000D01*
X144160514Y-108589485D01*
X144099191Y-108622970D01*
X144029499Y-108617986D01*
X143973566Y-108576114D01*
X143949149Y-108510650D01*
X143949894Y-108485615D01*
X143950498Y-108481022D01*
X143950500Y-108481018D01*
X143950500Y-108368982D01*
X143921503Y-108260763D01*
X143865485Y-108163737D01*
X143786263Y-108084515D01*
X143710886Y-108040996D01*
X143689239Y-108028498D01*
X143689238Y-108028497D01*
X143689237Y-108028497D01*
X143581018Y-107999500D01*
X143468982Y-107999500D01*
X143360763Y-108028497D01*
X143360760Y-108028498D01*
X143263740Y-108084513D01*
X143263734Y-108084517D01*
X143184517Y-108163734D01*
X143184513Y-108163740D01*
X143128498Y-108260760D01*
X143128497Y-108260763D01*
X143099500Y-108368982D01*
X143099500Y-108481018D01*
X143124549Y-108574500D01*
X143128497Y-108589236D01*
X143128498Y-108589239D01*
X143143407Y-108615062D01*
X143184515Y-108686263D01*
X143263737Y-108765485D01*
X143360763Y-108821503D01*
X143468982Y-108850500D01*
X143468984Y-108850500D01*
X143581013Y-108850500D01*
X143581018Y-108850500D01*
X143581022Y-108850498D01*
X143585615Y-108849894D01*
X143615236Y-108854512D01*
X143645138Y-108856651D01*
X143649396Y-108859838D01*
X143654650Y-108860658D01*
X143677072Y-108880557D01*
X143701071Y-108898523D01*
X143702929Y-108903504D01*
X143706908Y-108907036D01*
X143715012Y-108935900D01*
X143725488Y-108963987D01*
X143724357Y-108969184D01*
X143725795Y-108974305D01*
X143717008Y-109002964D01*
X143710636Y-109032260D01*
X143706219Y-109038160D01*
X143705316Y-109041106D01*
X143689485Y-109060514D01*
X143596689Y-109153310D01*
X143556463Y-109180189D01*
X143500198Y-109203496D01*
X143500195Y-109203497D01*
X143468946Y-109216440D01*
X143468938Y-109216445D01*
X142883874Y-109801509D01*
X142822551Y-109834994D01*
X142752859Y-109830010D01*
X142696926Y-109788138D01*
X142692192Y-109780962D01*
X142690487Y-109778740D01*
X142690485Y-109778737D01*
X142611263Y-109699515D01*
X142514237Y-109643497D01*
X142406018Y-109614500D01*
X142293982Y-109614500D01*
X142185763Y-109643497D01*
X142185760Y-109643498D01*
X142088740Y-109699513D01*
X142088734Y-109699517D01*
X142009517Y-109778734D01*
X142009513Y-109778740D01*
X141953498Y-109875760D01*
X141953496Y-109875764D01*
X141944835Y-109908092D01*
X141908471Y-109967753D01*
X141845624Y-109998283D01*
X141825060Y-110000000D01*
X141520412Y-110000000D01*
X141453373Y-109980315D01*
X141413025Y-109938000D01*
X141399305Y-109914237D01*
X141384583Y-109888737D01*
X141305361Y-109809515D01*
X141218762Y-109759517D01*
X141208337Y-109753498D01*
X141208336Y-109753497D01*
X141208335Y-109753497D01*
X141100116Y-109724500D01*
X140988080Y-109724500D01*
X140906093Y-109746468D01*
X140881098Y-109745872D01*
X140856353Y-109749431D01*
X140846772Y-109745055D01*
X140836243Y-109744805D01*
X140815539Y-109730792D01*
X140792797Y-109720406D01*
X140787102Y-109711544D01*
X140778381Y-109705642D01*
X140768540Y-109682661D01*
X140755023Y-109661628D01*
X140752743Y-109645770D01*
X140750877Y-109641413D01*
X140750000Y-109626693D01*
X140750000Y-109415977D01*
X140769685Y-109348938D01*
X140786319Y-109328296D01*
X140985297Y-109129318D01*
X141383557Y-108731059D01*
X141403048Y-108684003D01*
X141425500Y-108629800D01*
X141425500Y-108551819D01*
X141427676Y-108540359D01*
X141438497Y-108519224D01*
X141445185Y-108496450D01*
X141459043Y-108479099D01*
X141459520Y-108478168D01*
X141460018Y-108477878D01*
X141461062Y-108476571D01*
X141496103Y-108440920D01*
X141557133Y-108406909D01*
X141626865Y-108411292D01*
X141683158Y-108452679D01*
X141691923Y-108465843D01*
X141705227Y-108488886D01*
X141747014Y-108561263D01*
X141826236Y-108640485D01*
X141923262Y-108696503D01*
X142031481Y-108725500D01*
X142031483Y-108725500D01*
X142143515Y-108725500D01*
X142143517Y-108725500D01*
X142251736Y-108696503D01*
X142348762Y-108640485D01*
X142427984Y-108561263D01*
X142484002Y-108464237D01*
X142512999Y-108356018D01*
X142512999Y-108243982D01*
X142484002Y-108135763D01*
X142427984Y-108038737D01*
X142370678Y-107981431D01*
X142337193Y-107920108D01*
X142342177Y-107850416D01*
X142370677Y-107806070D01*
X142415485Y-107761263D01*
X142471503Y-107664237D01*
X142500500Y-107556018D01*
X142500500Y-107469792D01*
X142520185Y-107402753D01*
X142536057Y-107382880D01*
X143588556Y-106312078D01*
X143649589Y-106278065D01*
X143676990Y-106275000D01*
X144742116Y-106275000D01*
X144743982Y-106275500D01*
X144856018Y-106275500D01*
X144857884Y-106275000D01*
X145149998Y-106275000D01*
X145150000Y-106275000D01*
X145170061Y-106256482D01*
X146487000Y-106256482D01*
X146487000Y-106368518D01*
X146515997Y-106476737D01*
X146572015Y-106573763D01*
X146572017Y-106573765D01*
X146651236Y-106652984D01*
X146656877Y-106657313D01*
X146698078Y-106713742D01*
X146702230Y-106783488D01*
X146701164Y-106787768D01*
X146699500Y-106793982D01*
X146699500Y-106906018D01*
X146728497Y-107014237D01*
X146784515Y-107111263D01*
X146863737Y-107190485D01*
X146960763Y-107246503D01*
X147068982Y-107275500D01*
X147068984Y-107275500D01*
X147181016Y-107275500D01*
X147181018Y-107275500D01*
X147289237Y-107246503D01*
X147386263Y-107190485D01*
X147465485Y-107111263D01*
X147521503Y-107014237D01*
X147550500Y-106906018D01*
X147550500Y-106793982D01*
X147521503Y-106685763D01*
X147465485Y-106588737D01*
X147392439Y-106515691D01*
X153374500Y-106515691D01*
X153374500Y-106634309D01*
X153405201Y-106748886D01*
X153464511Y-106851613D01*
X153548387Y-106935489D01*
X153651114Y-106994799D01*
X153765691Y-107025500D01*
X153765694Y-107025500D01*
X153884306Y-107025500D01*
X153884309Y-107025500D01*
X153998886Y-106994799D01*
X154101613Y-106935489D01*
X154185489Y-106851613D01*
X154244799Y-106748886D01*
X154275500Y-106634309D01*
X154275500Y-106515691D01*
X154268680Y-106490238D01*
X154270341Y-106420390D01*
X154309503Y-106362527D01*
X154373731Y-106335022D01*
X154442634Y-106346608D01*
X154450450Y-106350755D01*
X154466114Y-106359799D01*
X154580691Y-106390500D01*
X154580694Y-106390500D01*
X154699306Y-106390500D01*
X154699309Y-106390500D01*
X154813886Y-106359799D01*
X154916613Y-106300489D01*
X155000489Y-106216613D01*
X155015455Y-106190691D01*
X155474500Y-106190691D01*
X155474500Y-106309309D01*
X155505201Y-106423886D01*
X155564511Y-106526613D01*
X155648387Y-106610489D01*
X155751114Y-106669799D01*
X155865691Y-106700500D01*
X155865694Y-106700500D01*
X155984306Y-106700500D01*
X155984309Y-106700500D01*
X156098886Y-106669799D01*
X156201613Y-106610489D01*
X156285489Y-106526613D01*
X156344799Y-106423886D01*
X156375500Y-106309309D01*
X156375500Y-106190691D01*
X156344799Y-106076114D01*
X156285489Y-105973387D01*
X156281028Y-105968926D01*
X156247546Y-105907601D01*
X156252534Y-105837910D01*
X156281033Y-105793568D01*
X156297989Y-105776613D01*
X156357299Y-105673886D01*
X156388000Y-105559309D01*
X156388000Y-105440691D01*
X156357299Y-105326114D01*
X156297989Y-105223387D01*
X156214113Y-105139511D01*
X156111386Y-105080201D01*
X155996809Y-105049500D01*
X155878191Y-105049500D01*
X155763614Y-105080201D01*
X155763612Y-105080201D01*
X155763612Y-105080202D01*
X155660887Y-105139511D01*
X155660884Y-105139513D01*
X155577013Y-105223384D01*
X155577011Y-105223387D01*
X155517701Y-105326114D01*
X155487000Y-105440691D01*
X155487000Y-105559309D01*
X155517701Y-105673886D01*
X155577011Y-105776613D01*
X155577012Y-105776614D01*
X155577013Y-105776615D01*
X155581466Y-105781068D01*
X155614951Y-105842391D01*
X155609967Y-105912083D01*
X155581470Y-105956426D01*
X155564515Y-105973382D01*
X155564511Y-105973387D01*
X155508389Y-106070593D01*
X155505201Y-106076114D01*
X155474500Y-106190691D01*
X155015455Y-106190691D01*
X155059799Y-106113886D01*
X155090500Y-105999309D01*
X155090500Y-105880691D01*
X155059799Y-105766114D01*
X155000489Y-105663387D01*
X154916613Y-105579511D01*
X154813886Y-105520201D01*
X154699309Y-105489500D01*
X154580691Y-105489500D01*
X154466114Y-105520201D01*
X154466112Y-105520201D01*
X154466112Y-105520202D01*
X154363387Y-105579511D01*
X154363384Y-105579513D01*
X154279513Y-105663384D01*
X154279511Y-105663387D01*
X154220201Y-105766114D01*
X154189500Y-105880691D01*
X154189500Y-105999309D01*
X154190118Y-106001615D01*
X154196320Y-106024761D01*
X154194657Y-106094611D01*
X154155494Y-106152473D01*
X154091265Y-106179977D01*
X154022363Y-106168390D01*
X154014545Y-106164241D01*
X153998889Y-106155202D01*
X153998890Y-106155202D01*
X153960065Y-106144799D01*
X153884309Y-106124500D01*
X153765691Y-106124500D01*
X153651114Y-106155201D01*
X153651112Y-106155201D01*
X153651112Y-106155202D01*
X153548387Y-106214511D01*
X153548384Y-106214513D01*
X153464513Y-106298384D01*
X153464511Y-106298387D01*
X153405201Y-106401114D01*
X153374500Y-106515691D01*
X147392439Y-106515691D01*
X147386263Y-106509515D01*
X147380289Y-106506066D01*
X147369570Y-106495620D01*
X147355880Y-106471301D01*
X147339423Y-106448763D01*
X147338976Y-106441272D01*
X147335296Y-106434734D01*
X147336927Y-106406875D01*
X147335268Y-106379017D01*
X147336329Y-106374753D01*
X147338000Y-106368518D01*
X147338000Y-106256482D01*
X147309003Y-106148263D01*
X147252985Y-106051237D01*
X147173763Y-105972015D01*
X147076737Y-105915997D01*
X146968518Y-105887000D01*
X146856482Y-105887000D01*
X146748263Y-105915997D01*
X146748260Y-105915998D01*
X146651240Y-105972013D01*
X146651234Y-105972017D01*
X146572017Y-106051234D01*
X146572013Y-106051240D01*
X146515998Y-106148260D01*
X146515997Y-106148263D01*
X146487000Y-106256482D01*
X145170061Y-106256482D01*
X145800000Y-105675000D01*
X145800000Y-105665691D01*
X151524500Y-105665691D01*
X151524500Y-105784309D01*
X151555201Y-105898886D01*
X151614511Y-106001613D01*
X151698387Y-106085489D01*
X151801114Y-106144799D01*
X151915691Y-106175500D01*
X151915694Y-106175500D01*
X152034306Y-106175500D01*
X152034309Y-106175500D01*
X152148886Y-106144799D01*
X152251613Y-106085489D01*
X152335489Y-106001613D01*
X152394799Y-105898886D01*
X152425500Y-105784309D01*
X152425500Y-105665691D01*
X152394799Y-105551114D01*
X152335489Y-105448387D01*
X152251613Y-105364511D01*
X152148886Y-105305201D01*
X152034309Y-105274500D01*
X151915691Y-105274500D01*
X151801114Y-105305201D01*
X151801112Y-105305201D01*
X151801112Y-105305202D01*
X151698387Y-105364511D01*
X151698384Y-105364513D01*
X151614513Y-105448384D01*
X151614511Y-105448387D01*
X151555201Y-105551114D01*
X151524500Y-105665691D01*
X145800000Y-105665691D01*
X145800000Y-104929918D01*
X145730217Y-104868982D01*
X146349500Y-104868982D01*
X146349500Y-104981018D01*
X146378497Y-105089237D01*
X146434515Y-105186263D01*
X146513737Y-105265485D01*
X146610763Y-105321503D01*
X146718982Y-105350500D01*
X146718984Y-105350500D01*
X146831016Y-105350500D01*
X146831018Y-105350500D01*
X146939237Y-105321503D01*
X147036263Y-105265485D01*
X147115485Y-105186263D01*
X147171503Y-105089237D01*
X147200500Y-104981018D01*
X147200500Y-104868982D01*
X147171503Y-104760763D01*
X147115485Y-104663737D01*
X147036263Y-104584515D01*
X146982008Y-104553191D01*
X151074500Y-104553191D01*
X151074500Y-104671809D01*
X151105201Y-104786386D01*
X151164511Y-104889113D01*
X151248387Y-104972989D01*
X151351114Y-105032299D01*
X151465691Y-105063000D01*
X151465694Y-105063000D01*
X151584306Y-105063000D01*
X151584309Y-105063000D01*
X151698886Y-105032299D01*
X151801613Y-104972989D01*
X151885489Y-104889113D01*
X151944799Y-104786386D01*
X151975500Y-104671809D01*
X151975500Y-104553191D01*
X151944799Y-104438614D01*
X151885489Y-104335887D01*
X151801613Y-104252011D01*
X151698886Y-104192701D01*
X151584309Y-104162000D01*
X151465691Y-104162000D01*
X151351114Y-104192701D01*
X151351112Y-104192701D01*
X151351112Y-104192702D01*
X151248387Y-104252011D01*
X151248384Y-104252013D01*
X151164513Y-104335884D01*
X151164511Y-104335887D01*
X151126563Y-104401615D01*
X151105201Y-104438614D01*
X151074500Y-104553191D01*
X146982008Y-104553191D01*
X146939237Y-104528497D01*
X146831018Y-104499500D01*
X146718982Y-104499500D01*
X146610763Y-104528497D01*
X146610760Y-104528498D01*
X146513740Y-104584513D01*
X146513734Y-104584517D01*
X146434517Y-104663734D01*
X146434513Y-104663740D01*
X146378498Y-104760760D01*
X146378497Y-104760763D01*
X146349500Y-104868982D01*
X145730217Y-104868982D01*
X145050000Y-104275000D01*
X145049999Y-104275000D01*
X144702007Y-104275000D01*
X144634968Y-104255315D01*
X144613553Y-104237902D01*
X144444363Y-104065691D01*
X153324500Y-104065691D01*
X153324500Y-104184309D01*
X153355201Y-104298886D01*
X153414511Y-104401613D01*
X153498387Y-104485489D01*
X153601114Y-104544799D01*
X153715691Y-104575500D01*
X153715694Y-104575500D01*
X153834306Y-104575500D01*
X153834309Y-104575500D01*
X153948886Y-104544799D01*
X154051613Y-104485489D01*
X154135489Y-104401613D01*
X154194799Y-104298886D01*
X154225500Y-104184309D01*
X154225500Y-104065691D01*
X154194799Y-103951114D01*
X154135489Y-103848387D01*
X154051613Y-103764511D01*
X153948886Y-103705201D01*
X153834309Y-103674500D01*
X153715691Y-103674500D01*
X153601114Y-103705201D01*
X153601112Y-103705201D01*
X153601112Y-103705202D01*
X153498387Y-103764511D01*
X153498384Y-103764513D01*
X153414513Y-103848384D01*
X153414511Y-103848387D01*
X153386732Y-103896502D01*
X153355201Y-103951114D01*
X153324500Y-104065691D01*
X144444363Y-104065691D01*
X144278141Y-103896501D01*
X143833561Y-103443982D01*
X147349500Y-103443982D01*
X147349500Y-103556017D01*
X147378497Y-103664236D01*
X147378498Y-103664239D01*
X147379218Y-103665486D01*
X147434515Y-103761263D01*
X147513737Y-103840485D01*
X147610763Y-103896503D01*
X147718982Y-103925500D01*
X147718984Y-103925500D01*
X147831016Y-103925500D01*
X147831018Y-103925500D01*
X147939237Y-103896503D01*
X148036263Y-103840485D01*
X148115485Y-103761263D01*
X148171503Y-103664237D01*
X148200500Y-103556018D01*
X148200500Y-103443982D01*
X148171503Y-103335763D01*
X148170306Y-103333690D01*
X148164050Y-103322853D01*
X148132947Y-103268982D01*
X150124500Y-103268982D01*
X150124500Y-103381018D01*
X150153497Y-103489237D01*
X150209515Y-103586263D01*
X150288737Y-103665485D01*
X150385763Y-103721503D01*
X150493982Y-103750500D01*
X150493984Y-103750500D01*
X150606016Y-103750500D01*
X150606018Y-103750500D01*
X150714237Y-103721503D01*
X150811263Y-103665485D01*
X150890485Y-103586263D01*
X150946503Y-103489237D01*
X150975500Y-103381018D01*
X150975500Y-103268982D01*
X150946503Y-103160763D01*
X150890485Y-103063737D01*
X150811263Y-102984515D01*
X150714237Y-102928497D01*
X150606018Y-102899500D01*
X150493982Y-102899500D01*
X150385763Y-102928497D01*
X150385760Y-102928498D01*
X150288740Y-102984513D01*
X150288734Y-102984517D01*
X150209517Y-103063734D01*
X150209513Y-103063740D01*
X150153498Y-103160760D01*
X150153497Y-103160763D01*
X150124500Y-103268982D01*
X148132947Y-103268982D01*
X148115487Y-103238740D01*
X148115482Y-103238734D01*
X148036265Y-103159517D01*
X148036263Y-103159515D01*
X147939237Y-103103497D01*
X147831018Y-103074500D01*
X147718982Y-103074500D01*
X147610763Y-103103497D01*
X147610760Y-103103498D01*
X147513740Y-103159513D01*
X147513734Y-103159517D01*
X147434517Y-103238734D01*
X147434513Y-103238740D01*
X147378498Y-103335760D01*
X147378497Y-103335763D01*
X147349500Y-103443982D01*
X143833561Y-103443982D01*
X142482684Y-102068982D01*
X146324500Y-102068982D01*
X146324500Y-102181018D01*
X146353497Y-102289237D01*
X146409515Y-102386263D01*
X146488737Y-102465485D01*
X146585763Y-102521503D01*
X146693982Y-102550500D01*
X146693984Y-102550500D01*
X146806016Y-102550500D01*
X146806018Y-102550500D01*
X146914237Y-102521503D01*
X147011263Y-102465485D01*
X147090485Y-102386263D01*
X147146503Y-102289237D01*
X147166770Y-102213598D01*
X147203132Y-102153941D01*
X147254450Y-102125919D01*
X147256014Y-102125500D01*
X147256018Y-102125500D01*
X147364237Y-102096503D01*
X147461263Y-102040485D01*
X147482766Y-102018982D01*
X148749500Y-102018982D01*
X148749500Y-102131018D01*
X148778497Y-102239237D01*
X148834515Y-102336263D01*
X148913737Y-102415485D01*
X148914471Y-102415909D01*
X148915333Y-102416407D01*
X148916406Y-102417532D01*
X148920186Y-102420433D01*
X148919733Y-102421022D01*
X148963547Y-102466975D01*
X148976768Y-102535582D01*
X148973105Y-102555884D01*
X148949500Y-102643980D01*
X148949500Y-102643982D01*
X148949500Y-102756018D01*
X148978497Y-102864237D01*
X149034515Y-102961263D01*
X149113737Y-103040485D01*
X149210763Y-103096503D01*
X149318982Y-103125500D01*
X149318984Y-103125500D01*
X149431016Y-103125500D01*
X149431018Y-103125500D01*
X149539237Y-103096503D01*
X149636263Y-103040485D01*
X149715485Y-102961263D01*
X149771503Y-102864237D01*
X149800500Y-102756018D01*
X149800500Y-102643982D01*
X149771503Y-102535763D01*
X149715485Y-102438737D01*
X149636263Y-102359515D01*
X149636260Y-102359513D01*
X149636256Y-102359510D01*
X149634662Y-102358590D01*
X149633586Y-102357461D01*
X149629814Y-102354567D01*
X149630265Y-102353978D01*
X149586450Y-102308020D01*
X149573231Y-102239412D01*
X149576891Y-102219126D01*
X149600500Y-102131018D01*
X149600500Y-102018982D01*
X149571503Y-101910763D01*
X149515485Y-101813737D01*
X149436263Y-101734515D01*
X149339237Y-101678497D01*
X149231018Y-101649500D01*
X149118982Y-101649500D01*
X149010763Y-101678497D01*
X149010760Y-101678498D01*
X148913740Y-101734513D01*
X148913734Y-101734517D01*
X148834517Y-101813734D01*
X148834513Y-101813740D01*
X148778498Y-101910760D01*
X148778497Y-101910763D01*
X148749500Y-102018982D01*
X147482766Y-102018982D01*
X147540485Y-101961263D01*
X147596503Y-101864237D01*
X147620246Y-101775623D01*
X147623642Y-101767632D01*
X147640515Y-101747076D01*
X147654358Y-101724366D01*
X147663057Y-101719615D01*
X147667973Y-101713628D01*
X147682773Y-101708849D01*
X147705674Y-101696345D01*
X147751737Y-101684003D01*
X147826756Y-101640691D01*
X150774500Y-101640691D01*
X150774500Y-101759309D01*
X150805201Y-101873886D01*
X150864511Y-101976613D01*
X150948387Y-102060489D01*
X151051114Y-102119799D01*
X151165691Y-102150500D01*
X151165694Y-102150500D01*
X151284306Y-102150500D01*
X151284309Y-102150500D01*
X151398886Y-102119799D01*
X151501613Y-102060489D01*
X151585489Y-101976613D01*
X151644799Y-101873886D01*
X151675500Y-101759309D01*
X151675500Y-101640691D01*
X151644799Y-101526114D01*
X151585489Y-101423387D01*
X151501613Y-101339511D01*
X151398886Y-101280201D01*
X151284309Y-101249500D01*
X151165691Y-101249500D01*
X151051114Y-101280201D01*
X151051112Y-101280201D01*
X151051112Y-101280202D01*
X150948387Y-101339511D01*
X150948384Y-101339513D01*
X150864513Y-101423384D01*
X150864511Y-101423387D01*
X150825772Y-101490485D01*
X150805201Y-101526114D01*
X150774500Y-101640691D01*
X147826756Y-101640691D01*
X147848763Y-101627985D01*
X147927985Y-101548763D01*
X147984003Y-101451737D01*
X148013000Y-101343518D01*
X148013000Y-101231482D01*
X147984003Y-101123263D01*
X147927985Y-101026237D01*
X147848763Y-100947015D01*
X147751737Y-100890997D01*
X147643518Y-100862000D01*
X147531482Y-100862000D01*
X147423263Y-100890997D01*
X147423260Y-100890998D01*
X147326240Y-100947013D01*
X147326234Y-100947017D01*
X147247017Y-101026234D01*
X147247013Y-101026240D01*
X147190998Y-101123260D01*
X147190997Y-101123261D01*
X147186850Y-101138740D01*
X147173170Y-101189797D01*
X147169505Y-101203474D01*
X147133140Y-101263134D01*
X147081825Y-101291154D01*
X147035767Y-101303495D01*
X147035760Y-101303498D01*
X146938740Y-101359513D01*
X146938734Y-101359517D01*
X146859517Y-101438734D01*
X146859513Y-101438740D01*
X146803498Y-101535760D01*
X146803498Y-101535761D01*
X146803497Y-101535763D01*
X146795822Y-101564409D01*
X146783231Y-101611399D01*
X146746866Y-101671059D01*
X146695550Y-101699080D01*
X146585761Y-101728497D01*
X146585760Y-101728498D01*
X146488740Y-101784513D01*
X146488734Y-101784517D01*
X146409517Y-101863734D01*
X146409513Y-101863740D01*
X146353498Y-101960760D01*
X146353497Y-101960763D01*
X146324500Y-102068982D01*
X142482684Y-102068982D01*
X141986963Y-101564409D01*
X141975327Y-101542643D01*
X141960139Y-101523188D01*
X141959145Y-101512374D01*
X141954024Y-101502795D01*
X141956002Y-101478188D01*
X141953744Y-101453611D01*
X141959135Y-101439232D01*
X141959625Y-101433150D01*
X141965406Y-101420300D01*
X141969694Y-101412053D01*
X141970485Y-101411263D01*
X142009330Y-101343982D01*
X145224500Y-101343982D01*
X145224500Y-101456018D01*
X145253497Y-101564237D01*
X145309515Y-101661263D01*
X145388737Y-101740485D01*
X145485763Y-101796503D01*
X145593982Y-101825500D01*
X145593984Y-101825500D01*
X145706016Y-101825500D01*
X145706018Y-101825500D01*
X145814237Y-101796503D01*
X145911263Y-101740485D01*
X145990485Y-101661263D01*
X146046503Y-101564237D01*
X146075500Y-101456018D01*
X146075500Y-101343982D01*
X146046503Y-101235763D01*
X145990485Y-101138737D01*
X145911263Y-101059515D01*
X145846579Y-101022169D01*
X145814239Y-101003498D01*
X145814238Y-101003497D01*
X145814237Y-101003497D01*
X145706018Y-100974500D01*
X145593982Y-100974500D01*
X145485763Y-101003497D01*
X145485760Y-101003498D01*
X145388740Y-101059513D01*
X145388734Y-101059517D01*
X145309517Y-101138734D01*
X145309513Y-101138740D01*
X145253498Y-101235760D01*
X145253497Y-101235763D01*
X145224500Y-101343982D01*
X142009330Y-101343982D01*
X142026503Y-101314237D01*
X142055500Y-101206018D01*
X142055500Y-101093982D01*
X142026503Y-100985763D01*
X142015983Y-100967542D01*
X141999511Y-100899645D01*
X142022363Y-100833618D01*
X142061371Y-100798157D01*
X142064234Y-100796503D01*
X142064237Y-100796503D01*
X142161263Y-100740485D01*
X142240485Y-100661263D01*
X142268927Y-100611999D01*
X142319494Y-100563784D01*
X142376314Y-100550000D01*
X143775000Y-100550000D01*
X144011441Y-100313558D01*
X144037108Y-100293864D01*
X144086263Y-100265485D01*
X144165485Y-100186263D01*
X144202024Y-100122974D01*
X144250000Y-100075000D01*
X144250000Y-99982884D01*
X144250500Y-99981018D01*
X144250500Y-99868982D01*
X144250500Y-99864689D01*
X144250000Y-99857059D01*
X144250000Y-99492665D01*
X145151474Y-99492665D01*
X145151474Y-99611283D01*
X145182175Y-99725860D01*
X145241485Y-99828587D01*
X145325361Y-99912463D01*
X145428088Y-99971773D01*
X145542665Y-100002474D01*
X145542668Y-100002474D01*
X145661280Y-100002474D01*
X145661283Y-100002474D01*
X145775860Y-99971773D01*
X145878587Y-99912463D01*
X145962463Y-99828587D01*
X146021773Y-99725860D01*
X146052474Y-99611283D01*
X146052474Y-99492665D01*
X146051416Y-99488717D01*
X146947526Y-99488717D01*
X146947526Y-99607335D01*
X146978227Y-99721912D01*
X147037537Y-99824639D01*
X147121413Y-99908515D01*
X147224140Y-99967825D01*
X147338717Y-99998526D01*
X147338720Y-99998526D01*
X147457332Y-99998526D01*
X147457335Y-99998526D01*
X147571912Y-99967825D01*
X147674639Y-99908515D01*
X147758515Y-99824639D01*
X147817825Y-99721912D01*
X147848526Y-99607335D01*
X147848526Y-99488717D01*
X147817825Y-99374140D01*
X147758515Y-99271413D01*
X147674639Y-99187537D01*
X147571912Y-99128227D01*
X147457335Y-99097526D01*
X147338717Y-99097526D01*
X147224140Y-99128227D01*
X147224138Y-99128227D01*
X147224138Y-99128228D01*
X147121413Y-99187537D01*
X147121410Y-99187539D01*
X147037539Y-99271410D01*
X147037537Y-99271413D01*
X146978227Y-99374140D01*
X146947526Y-99488717D01*
X146051416Y-99488717D01*
X146021773Y-99378088D01*
X145962463Y-99275361D01*
X145878587Y-99191485D01*
X145775860Y-99132175D01*
X145661283Y-99101474D01*
X145542665Y-99101474D01*
X145428088Y-99132175D01*
X145428086Y-99132175D01*
X145428086Y-99132176D01*
X145325361Y-99191485D01*
X145325358Y-99191487D01*
X145241487Y-99275358D01*
X145241485Y-99275361D01*
X145184456Y-99374138D01*
X145182175Y-99378088D01*
X145151474Y-99492665D01*
X144250000Y-99492665D01*
X144250000Y-98975000D01*
X143558079Y-98283079D01*
X143525985Y-98227491D01*
X143521503Y-98210763D01*
X143465485Y-98113737D01*
X143386263Y-98034515D01*
X143386261Y-98034514D01*
X143386259Y-98034512D01*
X143289240Y-97978498D01*
X143289238Y-97978497D01*
X143272504Y-97974013D01*
X143258618Y-97965995D01*
X143245174Y-97963071D01*
X143216920Y-97941920D01*
X142980519Y-97705519D01*
X145150092Y-97705519D01*
X145150092Y-97824137D01*
X145180793Y-97938714D01*
X145240103Y-98041441D01*
X145323979Y-98125317D01*
X145426706Y-98184627D01*
X145541283Y-98215328D01*
X145541286Y-98215328D01*
X145659898Y-98215328D01*
X145659901Y-98215328D01*
X145774478Y-98184627D01*
X145877205Y-98125317D01*
X145961081Y-98041441D01*
X146020391Y-97938714D01*
X146051092Y-97824137D01*
X146051092Y-97705519D01*
X146020391Y-97590942D01*
X145961081Y-97488215D01*
X145877205Y-97404339D01*
X145774478Y-97345029D01*
X145659901Y-97314328D01*
X145541283Y-97314328D01*
X145426706Y-97345029D01*
X145426704Y-97345029D01*
X145426704Y-97345030D01*
X145323979Y-97404339D01*
X145323976Y-97404341D01*
X145240105Y-97488212D01*
X145240103Y-97488215D01*
X145180793Y-97590942D01*
X145150092Y-97705519D01*
X142980519Y-97705519D01*
X142400000Y-97125000D01*
X142103110Y-97125000D01*
X142036071Y-97105315D01*
X142015429Y-97088681D01*
X141986265Y-97059517D01*
X141986263Y-97059515D01*
X141916058Y-97018982D01*
X144099500Y-97018982D01*
X144099500Y-97131018D01*
X144125620Y-97228497D01*
X144128497Y-97239236D01*
X144128498Y-97239239D01*
X144140206Y-97259517D01*
X144184515Y-97336263D01*
X144263737Y-97415485D01*
X144360763Y-97471503D01*
X144468982Y-97500500D01*
X144468984Y-97500500D01*
X144581016Y-97500500D01*
X144581018Y-97500500D01*
X144689237Y-97471503D01*
X144786263Y-97415485D01*
X144865485Y-97336263D01*
X144921503Y-97239237D01*
X144950500Y-97131018D01*
X144950500Y-97018982D01*
X144921503Y-96910763D01*
X144865485Y-96813737D01*
X144786263Y-96734515D01*
X144689237Y-96678497D01*
X144581018Y-96649500D01*
X144468982Y-96649500D01*
X144360763Y-96678497D01*
X144360760Y-96678498D01*
X144263740Y-96734513D01*
X144263734Y-96734517D01*
X144184517Y-96813734D01*
X144184513Y-96813740D01*
X144128498Y-96910760D01*
X144128497Y-96910763D01*
X144099500Y-97018982D01*
X141916058Y-97018982D01*
X141902785Y-97011319D01*
X141889239Y-97003498D01*
X141889238Y-97003497D01*
X141889237Y-97003497D01*
X141781018Y-96974500D01*
X141668982Y-96974500D01*
X141560763Y-97003497D01*
X141560760Y-97003498D01*
X141463740Y-97059513D01*
X141463734Y-97059517D01*
X141434571Y-97088681D01*
X141373248Y-97122166D01*
X141346890Y-97125000D01*
X140951362Y-97125000D01*
X140921921Y-97116355D01*
X140891935Y-97109832D01*
X140886919Y-97106077D01*
X140884323Y-97105315D01*
X140863681Y-97088681D01*
X140786319Y-97011319D01*
X140752834Y-96949996D01*
X140750000Y-96923638D01*
X140750000Y-96551362D01*
X140769685Y-96484323D01*
X140786319Y-96463681D01*
X140863681Y-96386319D01*
X140925004Y-96352834D01*
X140951362Y-96350000D01*
X141150000Y-96350000D01*
X141329202Y-96170797D01*
X141390523Y-96137314D01*
X141460214Y-96142298D01*
X141516148Y-96184169D01*
X141536655Y-96226385D01*
X141553495Y-96289232D01*
X141553498Y-96289239D01*
X141554701Y-96291322D01*
X141609515Y-96386263D01*
X141688737Y-96465485D01*
X141785763Y-96521503D01*
X141893982Y-96550500D01*
X141893984Y-96550500D01*
X142006016Y-96550500D01*
X142006018Y-96550500D01*
X142114237Y-96521503D01*
X142211263Y-96465485D01*
X142290485Y-96386263D01*
X142346503Y-96289237D01*
X142375500Y-96181018D01*
X142375500Y-96143982D01*
X142749500Y-96143982D01*
X142749500Y-96256018D01*
X142778497Y-96364237D01*
X142834515Y-96461263D01*
X142913737Y-96540485D01*
X143010763Y-96596503D01*
X143118982Y-96625500D01*
X143118984Y-96625500D01*
X143231016Y-96625500D01*
X143231018Y-96625500D01*
X143339237Y-96596503D01*
X143436263Y-96540485D01*
X143515485Y-96461263D01*
X143571503Y-96364237D01*
X143600500Y-96256018D01*
X143600500Y-96143982D01*
X143575094Y-96049164D01*
X145244318Y-96049164D01*
X145244318Y-96161200D01*
X145269725Y-96256018D01*
X145273315Y-96269418D01*
X145273316Y-96269421D01*
X145285961Y-96291322D01*
X145329333Y-96366445D01*
X145408555Y-96445667D01*
X145505581Y-96501685D01*
X145613800Y-96530682D01*
X145613802Y-96530682D01*
X145725834Y-96530682D01*
X145725836Y-96530682D01*
X145834055Y-96501685D01*
X145931081Y-96445667D01*
X146010303Y-96366445D01*
X146066321Y-96269419D01*
X146095318Y-96161200D01*
X146095318Y-96049164D01*
X146066321Y-95940945D01*
X146010303Y-95843919D01*
X145931081Y-95764697D01*
X145856651Y-95721725D01*
X145834057Y-95708680D01*
X145834056Y-95708679D01*
X145834055Y-95708679D01*
X145725836Y-95679682D01*
X145613800Y-95679682D01*
X145505581Y-95708679D01*
X145505578Y-95708680D01*
X145408558Y-95764695D01*
X145408552Y-95764699D01*
X145329335Y-95843916D01*
X145329331Y-95843922D01*
X145273316Y-95940942D01*
X145273315Y-95940945D01*
X145244318Y-96049164D01*
X143575094Y-96049164D01*
X143571503Y-96035763D01*
X143515485Y-95938737D01*
X143436263Y-95859515D01*
X143339237Y-95803497D01*
X143231018Y-95774500D01*
X143118982Y-95774500D01*
X143010763Y-95803497D01*
X143010760Y-95803498D01*
X142913740Y-95859513D01*
X142913734Y-95859517D01*
X142834517Y-95938734D01*
X142834513Y-95938740D01*
X142778498Y-96035760D01*
X142778497Y-96035763D01*
X142749500Y-96143982D01*
X142375500Y-96143982D01*
X142375500Y-96068982D01*
X142346503Y-95960763D01*
X142290485Y-95863737D01*
X142211263Y-95784515D01*
X142114237Y-95728497D01*
X142006018Y-95699500D01*
X141893982Y-95699500D01*
X141785763Y-95728497D01*
X141785760Y-95728498D01*
X141688740Y-95784513D01*
X141688734Y-95784517D01*
X141636681Y-95836571D01*
X141575358Y-95870056D01*
X141505666Y-95865072D01*
X141449733Y-95823200D01*
X141425316Y-95757736D01*
X141425000Y-95748890D01*
X141425000Y-95575000D01*
X141275000Y-95425000D01*
X141032884Y-95425000D01*
X141031018Y-95424500D01*
X140918982Y-95424500D01*
X140917116Y-95425000D01*
X140147942Y-95425000D01*
X140140313Y-95424500D01*
X140136018Y-95424500D01*
X140023982Y-95424500D01*
X140019687Y-95424500D01*
X140012058Y-95425000D01*
X139676362Y-95425000D01*
X139609323Y-95405315D01*
X139588681Y-95388681D01*
X138986319Y-94786319D01*
X138952834Y-94724996D01*
X138950000Y-94698638D01*
X138950000Y-93926361D01*
X138969685Y-93859322D01*
X138986314Y-93838685D01*
X139378465Y-93446534D01*
X139407936Y-93426846D01*
X139407198Y-93425567D01*
X139433802Y-93410207D01*
X139511263Y-93365485D01*
X139590485Y-93286263D01*
X139646503Y-93189237D01*
X139646503Y-93189235D01*
X139650110Y-93182989D01*
X139650388Y-93181712D01*
X139671534Y-93153465D01*
X139788682Y-93036318D01*
X139850005Y-93002834D01*
X139876362Y-93000000D01*
X140634092Y-93000000D01*
X140701131Y-93019685D01*
G37*
%TD.AperFunction*%
%TD*%
%TA.AperFunction,Conductor*%
%TO.N,GND*%
G36*
X152008691Y-109494407D02*
G01*
X152044655Y-109543907D01*
X152049500Y-109574500D01*
X152049500Y-109662601D01*
X152079484Y-109774500D01*
X152081906Y-109783538D01*
X152127783Y-109863001D01*
X152140504Y-109922849D01*
X152127783Y-109961999D01*
X152081906Y-110041461D01*
X152081905Y-110041463D01*
X152081905Y-110041464D01*
X152049500Y-110162399D01*
X152049500Y-110287601D01*
X152081905Y-110408536D01*
X152144505Y-110516964D01*
X152233036Y-110605495D01*
X152328067Y-110660360D01*
X152369008Y-110705830D01*
X152375404Y-110766680D01*
X152348571Y-110816100D01*
X152194169Y-110970503D01*
X152139652Y-110998281D01*
X152124165Y-110999500D01*
X150024835Y-110999500D01*
X149966644Y-110980593D01*
X149930680Y-110931093D01*
X149930680Y-110869907D01*
X149954831Y-110830497D01*
X150255830Y-110529497D01*
X150310347Y-110501719D01*
X150325834Y-110500500D01*
X150362599Y-110500500D01*
X150362601Y-110500500D01*
X150483536Y-110468095D01*
X150591964Y-110405495D01*
X150662434Y-110335024D01*
X150716948Y-110307248D01*
X150777380Y-110316819D01*
X150781893Y-110319268D01*
X150866464Y-110368095D01*
X150987399Y-110400500D01*
X150987401Y-110400500D01*
X151112599Y-110400500D01*
X151112601Y-110400500D01*
X151233536Y-110368095D01*
X151341964Y-110305495D01*
X151430495Y-110216964D01*
X151493095Y-110108536D01*
X151525500Y-109987601D01*
X151525500Y-109862399D01*
X151493095Y-109741464D01*
X151430495Y-109633036D01*
X151430492Y-109633033D01*
X151427250Y-109627417D01*
X151428886Y-109626472D01*
X151411399Y-109577092D01*
X151428776Y-109518426D01*
X151477317Y-109481179D01*
X151510365Y-109475500D01*
X151950500Y-109475500D01*
X152008691Y-109494407D01*
G37*
%TD.AperFunction*%
%TA.AperFunction,Conductor*%
G36*
X144250305Y-110294407D02*
G01*
X144286269Y-110343907D01*
X144286269Y-110405093D01*
X144250305Y-110454593D01*
X144241618Y-110460233D01*
X144228002Y-110468095D01*
X144184285Y-110493334D01*
X144184284Y-110493334D01*
X144184284Y-110493335D01*
X144120040Y-110557578D01*
X144111810Y-110561771D01*
X144106193Y-110569107D01*
X144085115Y-110575372D01*
X144065526Y-110585354D01*
X144056401Y-110583908D01*
X144047544Y-110586542D01*
X144032633Y-110580144D01*
X144005094Y-110575783D01*
X143989848Y-110566174D01*
X143984660Y-110562201D01*
X143941964Y-110519505D01*
X143888896Y-110488866D01*
X143883788Y-110484955D01*
X143869909Y-110464803D01*
X143853538Y-110446622D01*
X143852844Y-110440025D01*
X143849083Y-110434564D01*
X143849699Y-110410104D01*
X143847142Y-110385772D01*
X143850467Y-110379647D01*
X143850625Y-110373398D01*
X143861745Y-110358876D01*
X143873976Y-110336350D01*
X143905832Y-110304495D01*
X143960349Y-110276719D01*
X143975834Y-110275500D01*
X144192114Y-110275500D01*
X144250305Y-110294407D01*
G37*
%TD.AperFunction*%
%TA.AperFunction,Conductor*%
G36*
X140750651Y-109992413D02*
G01*
X140780093Y-109992413D01*
X140782423Y-109993202D01*
X140793178Y-109996997D01*
X140814553Y-109998141D01*
X140826161Y-109999740D01*
X140830174Y-110000232D01*
X140830178Y-110000233D01*
X140840707Y-110000483D01*
X140840707Y-110000482D01*
X140870624Y-110001193D01*
X140872059Y-110001221D01*
X140892727Y-110002329D01*
X140896349Y-110001807D01*
X140900002Y-110001895D01*
X140932286Y-109998035D01*
X140969657Y-110000709D01*
X140978206Y-110003000D01*
X140978210Y-110003000D01*
X141096506Y-110003000D01*
X141104103Y-110005468D01*
X141111993Y-110004219D01*
X141132648Y-110014743D01*
X141154697Y-110021907D01*
X141166510Y-110031996D01*
X141170916Y-110036402D01*
X141186647Y-110056903D01*
X141191755Y-110065751D01*
X141210785Y-110091170D01*
X141230523Y-110149084D01*
X141212450Y-110207539D01*
X141163469Y-110244207D01*
X141131533Y-110249500D01*
X140775833Y-110249500D01*
X140717642Y-110230593D01*
X140705828Y-110220502D01*
X140679495Y-110194168D01*
X140651719Y-110139651D01*
X140650500Y-110124166D01*
X140650500Y-110086568D01*
X140650900Y-110085336D01*
X140650531Y-110084095D01*
X140660312Y-110056366D01*
X140669407Y-110028377D01*
X140670455Y-110027615D01*
X140670886Y-110026395D01*
X140695082Y-110009722D01*
X140718907Y-109992413D01*
X140720204Y-109992413D01*
X140721269Y-109991679D01*
X140750651Y-109992413D01*
G37*
%TD.AperFunction*%
%TA.AperFunction,Conductor*%
G36*
X142324779Y-109877143D02*
G01*
X142332857Y-109875427D01*
X142353801Y-109884751D01*
X142375977Y-109890565D01*
X142384966Y-109896333D01*
X142399835Y-109911202D01*
X142482607Y-109958990D01*
X142484565Y-109960247D01*
X142502539Y-109982199D01*
X142521539Y-110003300D01*
X142521792Y-110005711D01*
X142523328Y-110007587D01*
X142524966Y-110035909D01*
X142527935Y-110064150D01*
X142526722Y-110066250D01*
X142526862Y-110068670D01*
X142501102Y-110113570D01*
X142394170Y-110220503D01*
X142339653Y-110248281D01*
X142324166Y-110249500D01*
X142212244Y-110249500D01*
X142154053Y-110230593D01*
X142118089Y-110181093D01*
X142118089Y-110119907D01*
X142127709Y-110098975D01*
X142132466Y-110091170D01*
X142163004Y-110041068D01*
X142189159Y-109979981D01*
X142194425Y-109969462D01*
X142199745Y-109960247D01*
X142207450Y-109946901D01*
X142223177Y-109926404D01*
X142236406Y-109913175D01*
X142256901Y-109897449D01*
X142273010Y-109888148D01*
X142295433Y-109883382D01*
X142316792Y-109875050D01*
X142324779Y-109877143D01*
G37*
%TD.AperFunction*%
%TA.AperFunction,Conductor*%
G36*
X148956913Y-108249687D02*
G01*
X149004006Y-108288750D01*
X149018341Y-108327598D01*
X149027149Y-108388861D01*
X149027151Y-108388871D01*
X149027152Y-108388875D01*
X149037626Y-108433198D01*
X149085970Y-108518094D01*
X149086957Y-108519828D01*
X149086962Y-108519834D01*
X149132697Y-108572616D01*
X149132706Y-108572626D01*
X149132710Y-108572630D01*
X149132712Y-108572632D01*
X149158702Y-108597711D01*
X149165486Y-108604257D01*
X149165489Y-108604259D01*
X149232500Y-108639312D01*
X149253821Y-108650465D01*
X149253822Y-108650465D01*
X149253824Y-108650466D01*
X149273413Y-108656218D01*
X149320860Y-108670150D01*
X149360851Y-108675900D01*
X149392841Y-108680500D01*
X149692723Y-108680500D01*
X149750914Y-108699407D01*
X149786878Y-108748907D01*
X149786878Y-108810093D01*
X149750914Y-108859593D01*
X149742224Y-108865236D01*
X149700140Y-108889533D01*
X148844169Y-109745504D01*
X148789652Y-109773281D01*
X148774165Y-109774500D01*
X145950834Y-109774500D01*
X145892643Y-109755593D01*
X145880830Y-109745504D01*
X145624887Y-109489561D01*
X145324862Y-109189535D01*
X145324859Y-109189533D01*
X145324858Y-109189532D01*
X145324855Y-109189530D01*
X145250642Y-109146683D01*
X145250644Y-109146683D01*
X145218521Y-109138076D01*
X145167853Y-109124500D01*
X145167851Y-109124500D01*
X144076264Y-109124500D01*
X144018073Y-109105593D01*
X143982109Y-109056093D01*
X143977409Y-109020137D01*
X143977822Y-109012515D01*
X143979490Y-109004624D01*
X143978760Y-108995221D01*
X143979114Y-108988710D01*
X143979605Y-108987435D01*
X143979742Y-108981729D01*
X143981709Y-108966077D01*
X143984637Y-108966445D01*
X143998770Y-108920101D01*
X144047608Y-108883243D01*
X144078766Y-108878457D01*
X144078756Y-108877859D01*
X144120954Y-108877105D01*
X144126503Y-108877006D01*
X144221639Y-108847217D01*
X144278728Y-108816044D01*
X144282957Y-108813735D01*
X144282962Y-108813732D01*
X144290385Y-108808175D01*
X144341180Y-108770151D01*
X144377795Y-108733536D01*
X144401836Y-108709496D01*
X144456353Y-108681719D01*
X144471839Y-108680500D01*
X145865059Y-108680500D01*
X145923250Y-108699407D01*
X145959214Y-108748907D01*
X145959214Y-108810093D01*
X145957018Y-108816044D01*
X145956905Y-108816462D01*
X145956905Y-108816464D01*
X145924500Y-108937399D01*
X145924500Y-109062601D01*
X145956905Y-109183536D01*
X146019505Y-109291964D01*
X146108036Y-109380495D01*
X146216464Y-109443095D01*
X146337399Y-109475500D01*
X146337401Y-109475500D01*
X146462599Y-109475500D01*
X146462601Y-109475500D01*
X146583536Y-109443095D01*
X146691964Y-109380495D01*
X146780495Y-109291964D01*
X146843095Y-109183536D01*
X146875500Y-109062601D01*
X146875500Y-108937399D01*
X146843095Y-108816464D01*
X146843093Y-108816461D01*
X146841415Y-108810197D01*
X146842879Y-108809804D01*
X146838678Y-108756384D01*
X146870650Y-108704217D01*
X146927179Y-108680805D01*
X146934941Y-108680500D01*
X147859253Y-108680500D01*
X147865064Y-108679804D01*
X147919487Y-108673298D01*
X147976307Y-108659514D01*
X148008204Y-108649527D01*
X148092388Y-108596129D01*
X148142955Y-108547913D01*
X148187908Y-108490751D01*
X148207451Y-108456900D01*
X148223178Y-108436403D01*
X148236406Y-108423175D01*
X148256906Y-108407447D01*
X148258985Y-108406247D01*
X148273092Y-108398102D01*
X148296967Y-108388212D01*
X148315034Y-108383371D01*
X148340651Y-108380000D01*
X148359345Y-108380000D01*
X148384967Y-108383373D01*
X148420978Y-108393021D01*
X148455959Y-108402395D01*
X148455988Y-108402403D01*
X148464161Y-108402937D01*
X148467639Y-108403456D01*
X148487909Y-108406246D01*
X148487909Y-108406247D01*
X148536004Y-108412867D01*
X148573884Y-108415235D01*
X148671422Y-108394624D01*
X148735650Y-108367120D01*
X148775751Y-108345532D01*
X148846663Y-108275461D01*
X148846665Y-108275457D01*
X148850122Y-108272042D01*
X148851740Y-108273680D01*
X148895853Y-108245766D01*
X148956913Y-108249687D01*
G37*
%TD.AperFunction*%
%TA.AperFunction,Conductor*%
G36*
X139244501Y-102454828D02*
G01*
X140270505Y-103480832D01*
X140298281Y-103535347D01*
X140299500Y-103550834D01*
X140299500Y-103795684D01*
X140280593Y-103853875D01*
X140231093Y-103889839D01*
X140169907Y-103889839D01*
X140151002Y-103881422D01*
X140130360Y-103869505D01*
X140108536Y-103856905D01*
X139987601Y-103824500D01*
X139862399Y-103824500D01*
X139781775Y-103846103D01*
X139741463Y-103856905D01*
X139633036Y-103919505D01*
X139544505Y-104008036D01*
X139481905Y-104116463D01*
X139476003Y-104138489D01*
X139449500Y-104237399D01*
X139449500Y-104362601D01*
X139481905Y-104483536D01*
X139544505Y-104591964D01*
X139633036Y-104680495D01*
X139741464Y-104743095D01*
X139862399Y-104775500D01*
X139862401Y-104775500D01*
X139987599Y-104775500D01*
X139987601Y-104775500D01*
X140108536Y-104743095D01*
X140151002Y-104718577D01*
X140210849Y-104705857D01*
X140266744Y-104730744D01*
X140297337Y-104783732D01*
X140299500Y-104804315D01*
X140299500Y-108324165D01*
X140280593Y-108382356D01*
X140270503Y-108394169D01*
X139808203Y-108856468D01*
X139753687Y-108884245D01*
X139693255Y-108874674D01*
X139649990Y-108831409D01*
X139640419Y-108770977D01*
X139642574Y-108760839D01*
X139645562Y-108749691D01*
X139655500Y-108712601D01*
X139655500Y-108587399D01*
X139623095Y-108466464D01*
X139560495Y-108358036D01*
X139471964Y-108269505D01*
X139363536Y-108206905D01*
X139242601Y-108174500D01*
X139174500Y-108174500D01*
X139116309Y-108155593D01*
X139080345Y-108106093D01*
X139075500Y-108075500D01*
X139075500Y-102524834D01*
X139094407Y-102466643D01*
X139143907Y-102430679D01*
X139205093Y-102430679D01*
X139244501Y-102454828D01*
G37*
%TD.AperFunction*%
%TA.AperFunction,Conductor*%
G36*
X153041473Y-107906907D02*
G01*
X153069310Y-107938009D01*
X153072904Y-107944321D01*
X153072914Y-107944334D01*
X153118649Y-107997116D01*
X153118658Y-107997126D01*
X153151438Y-108028757D01*
X153151441Y-108028759D01*
X153200033Y-108054177D01*
X153239773Y-108074965D01*
X153306812Y-108094650D01*
X153346803Y-108100400D01*
X153378793Y-108105000D01*
X153378797Y-108105000D01*
X153384348Y-108105000D01*
X153409968Y-108108373D01*
X153428026Y-108113211D01*
X153451905Y-108123101D01*
X153468091Y-108132446D01*
X153488594Y-108148178D01*
X153501820Y-108161404D01*
X153517552Y-108181908D01*
X153526897Y-108198094D01*
X153536786Y-108221966D01*
X153540138Y-108234473D01*
X153541547Y-108239733D01*
X153541625Y-108240022D01*
X153545000Y-108265650D01*
X153545000Y-108284348D01*
X153541625Y-108309976D01*
X153536474Y-108329196D01*
X153528574Y-108349453D01*
X153521218Y-108363515D01*
X153512435Y-108382159D01*
X153512433Y-108382164D01*
X153488719Y-108472827D01*
X153483734Y-108542532D01*
X153484547Y-108588054D01*
X153484548Y-108588060D01*
X153513875Y-108681719D01*
X153514337Y-108683194D01*
X153517812Y-108689558D01*
X153529107Y-108749691D01*
X153502899Y-108804979D01*
X153449199Y-108834303D01*
X153405302Y-108832632D01*
X153374951Y-108824500D01*
X153374949Y-108824500D01*
X152188725Y-108824500D01*
X152130534Y-108805593D01*
X152094570Y-108756093D01*
X152094570Y-108694907D01*
X152130534Y-108645407D01*
X152137243Y-108640939D01*
X152144535Y-108636499D01*
X152148590Y-108634904D01*
X152154651Y-108631008D01*
X152154342Y-108630528D01*
X152175286Y-108617778D01*
X152175397Y-108617751D01*
X152177739Y-108616333D01*
X152194331Y-108606886D01*
X152195123Y-108606199D01*
X152206459Y-108597713D01*
X152207343Y-108597146D01*
X152243329Y-108569190D01*
X152250928Y-108558650D01*
X152255073Y-108552900D01*
X152278758Y-108528357D01*
X152294588Y-108498094D01*
X152301632Y-108488325D01*
X152305393Y-108480088D01*
X152305392Y-108480087D01*
X152313804Y-108461664D01*
X152313812Y-108461646D01*
X152314899Y-108459265D01*
X152324966Y-108440022D01*
X152327262Y-108432201D01*
X152330648Y-108424788D01*
X152345805Y-108381821D01*
X152347010Y-108359288D01*
X152347302Y-108355345D01*
X152347527Y-108352951D01*
X152355000Y-108301000D01*
X152355000Y-108273504D01*
X152355435Y-108268880D01*
X152356564Y-108266267D01*
X152358372Y-108252532D01*
X152363213Y-108234465D01*
X152373100Y-108210595D01*
X152382448Y-108194403D01*
X152398175Y-108173906D01*
X152411406Y-108160675D01*
X152431904Y-108144948D01*
X152448092Y-108135601D01*
X152471964Y-108125712D01*
X152508041Y-108116046D01*
X152524253Y-108113122D01*
X152526776Y-108112882D01*
X152572863Y-108103999D01*
X152584106Y-108101342D01*
X152593563Y-108099108D01*
X152593564Y-108099107D01*
X152593566Y-108099107D01*
X152682446Y-108053954D01*
X152737367Y-108010764D01*
X152770518Y-107979529D01*
X152791118Y-107944334D01*
X152795417Y-107936990D01*
X152810666Y-107923422D01*
X152822666Y-107906907D01*
X152833006Y-107903547D01*
X152841129Y-107896321D01*
X152880857Y-107888000D01*
X152983282Y-107888000D01*
X153041473Y-107906907D01*
G37*
%TD.AperFunction*%
%TA.AperFunction,Conductor*%
G36*
X151464968Y-108433373D02*
G01*
X151483026Y-108438211D01*
X151506905Y-108448101D01*
X151522154Y-108456905D01*
X151523091Y-108457446D01*
X151543594Y-108473178D01*
X151564347Y-108493931D01*
X151573597Y-108504607D01*
X151599577Y-108539314D01*
X151639911Y-108581615D01*
X151639926Y-108581630D01*
X151664521Y-108604257D01*
X151728603Y-108637778D01*
X151771400Y-108681503D01*
X151780324Y-108742034D01*
X151751963Y-108796250D01*
X151697152Y-108823441D01*
X151682714Y-108824500D01*
X151347741Y-108824500D01*
X151326025Y-108817444D01*
X151303451Y-108814040D01*
X151297499Y-108808175D01*
X151289550Y-108805593D01*
X151276126Y-108787117D01*
X151259867Y-108771097D01*
X151259052Y-108763617D01*
X151253586Y-108756093D01*
X151249848Y-108710738D01*
X151250677Y-108705239D01*
X151275500Y-108612601D01*
X151275500Y-108540631D01*
X151276607Y-108533291D01*
X151287133Y-108512246D01*
X151294407Y-108489862D01*
X151300835Y-108484856D01*
X151303980Y-108478570D01*
X151318757Y-108470901D01*
X151337712Y-108456143D01*
X151342446Y-108454248D01*
X151353088Y-108448103D01*
X151376963Y-108438213D01*
X151395035Y-108433371D01*
X151420653Y-108430000D01*
X151439348Y-108430000D01*
X151464968Y-108433373D01*
G37*
%TD.AperFunction*%
%TA.AperFunction,Conductor*%
G36*
X142285665Y-107096402D02*
G01*
X142328930Y-107139667D01*
X142338501Y-107200099D01*
X142321672Y-107238304D01*
X142323166Y-107239276D01*
X142320546Y-107243301D01*
X142275034Y-107330769D01*
X142255351Y-107397803D01*
X142255349Y-107397812D01*
X142245000Y-107469787D01*
X142245000Y-107509348D01*
X142241625Y-107534976D01*
X142236786Y-107553032D01*
X142226897Y-107576906D01*
X142217551Y-107593093D01*
X142201824Y-107613589D01*
X142190012Y-107625402D01*
X142155742Y-107667928D01*
X142155741Y-107667928D01*
X142127234Y-107712286D01*
X142127233Y-107712288D01*
X142113703Y-107736047D01*
X142113701Y-107736053D01*
X142109243Y-107752304D01*
X142075613Y-107803419D01*
X142031054Y-107822406D01*
X142031166Y-107822821D01*
X142028244Y-107823603D01*
X142026700Y-107824262D01*
X142024906Y-107824498D01*
X142024899Y-107824500D01*
X142024898Y-107824500D01*
X142013262Y-107827618D01*
X141903962Y-107856905D01*
X141795535Y-107919505D01*
X141707002Y-108008038D01*
X141660236Y-108089040D01*
X141614767Y-108129981D01*
X141553917Y-108136377D01*
X141500929Y-108105784D01*
X141476042Y-108049888D01*
X141475500Y-108039540D01*
X141475500Y-107850833D01*
X141494407Y-107792642D01*
X141504490Y-107780835D01*
X142170718Y-107114606D01*
X142225233Y-107086831D01*
X142285665Y-107096402D01*
G37*
%TD.AperFunction*%
%TA.AperFunction,Conductor*%
G36*
X149109968Y-107683373D02*
G01*
X149128026Y-107688211D01*
X149151907Y-107698102D01*
X149168091Y-107707446D01*
X149188594Y-107723178D01*
X149201820Y-107736404D01*
X149217552Y-107756908D01*
X149226897Y-107773094D01*
X149236786Y-107796966D01*
X149240232Y-107809826D01*
X149240609Y-107811233D01*
X149241625Y-107815022D01*
X149245000Y-107840650D01*
X149245000Y-107859348D01*
X149241625Y-107884976D01*
X149236786Y-107903032D01*
X149226897Y-107926904D01*
X149217552Y-107943090D01*
X149201820Y-107963594D01*
X149175242Y-107990172D01*
X149168271Y-107996508D01*
X149136456Y-108022776D01*
X149125035Y-108032793D01*
X149125025Y-108032803D01*
X149109612Y-108054177D01*
X149060239Y-108090315D01*
X148999054Y-108090531D01*
X148949428Y-108054742D01*
X148931015Y-108008024D01*
X148922692Y-107938409D01*
X148908373Y-107884969D01*
X148905000Y-107859346D01*
X148905000Y-107840650D01*
X148908372Y-107815032D01*
X148909767Y-107809826D01*
X148913213Y-107796965D01*
X148923101Y-107773094D01*
X148932448Y-107756903D01*
X148948175Y-107736406D01*
X148961406Y-107723175D01*
X148981906Y-107707447D01*
X148998092Y-107698102D01*
X149021967Y-107688212D01*
X149040034Y-107683371D01*
X149065651Y-107680000D01*
X149084348Y-107680000D01*
X149109968Y-107683373D01*
G37*
%TD.AperFunction*%
%TA.AperFunction,Conductor*%
G36*
X140358595Y-99798474D02*
G01*
X140401860Y-99841739D01*
X140411431Y-99902171D01*
X140399387Y-99936182D01*
X140381907Y-99966459D01*
X140381906Y-99966460D01*
X140381905Y-99966464D01*
X140349500Y-100087399D01*
X140349500Y-100212601D01*
X140381905Y-100333536D01*
X140444505Y-100441964D01*
X140533036Y-100530495D01*
X140641464Y-100593095D01*
X140701946Y-100609301D01*
X140722749Y-100622811D01*
X140745050Y-100633672D01*
X140747997Y-100639207D01*
X140753258Y-100642624D01*
X140762146Y-100665779D01*
X140773807Y-100687678D01*
X140772783Y-100693490D01*
X140775185Y-100699746D01*
X140765327Y-100748273D01*
X140763791Y-100751425D01*
X140721682Y-100824361D01*
X140716081Y-100845266D01*
X140713623Y-100854438D01*
X140713621Y-100854443D01*
X140701698Y-100898944D01*
X140699500Y-100907147D01*
X140699500Y-101532147D01*
X140699500Y-101617853D01*
X140711489Y-101662598D01*
X140721683Y-101700643D01*
X140764531Y-101774857D01*
X140764533Y-101774859D01*
X140764535Y-101774862D01*
X142020505Y-103030832D01*
X142048281Y-103085347D01*
X142049500Y-103100834D01*
X142049500Y-105661637D01*
X142030593Y-105719828D01*
X141981093Y-105755792D01*
X141924877Y-105757264D01*
X141857751Y-105739277D01*
X141802601Y-105724500D01*
X141677399Y-105724500D01*
X141600893Y-105745000D01*
X141556463Y-105756905D01*
X141448036Y-105819505D01*
X141359505Y-105908036D01*
X141296905Y-106016463D01*
X141293268Y-106030037D01*
X141264500Y-106137399D01*
X141264500Y-106262601D01*
X141296905Y-106383536D01*
X141359505Y-106491964D01*
X141448036Y-106580495D01*
X141549408Y-106639021D01*
X141590349Y-106684489D01*
X141596745Y-106745339D01*
X141569912Y-106794761D01*
X141119504Y-107245169D01*
X141064987Y-107272946D01*
X141004555Y-107263375D01*
X140961290Y-107220110D01*
X140950500Y-107175165D01*
X140950500Y-105318748D01*
X140969407Y-105260557D01*
X141018907Y-105224593D01*
X141080093Y-105224593D01*
X141098994Y-105233009D01*
X141116464Y-105243095D01*
X141237399Y-105275500D01*
X141237401Y-105275500D01*
X141362599Y-105275500D01*
X141362601Y-105275500D01*
X141483536Y-105243095D01*
X141591964Y-105180495D01*
X141680495Y-105091964D01*
X141743095Y-104983536D01*
X141775500Y-104862601D01*
X141775500Y-104737399D01*
X141743095Y-104616464D01*
X141680495Y-104508036D01*
X141591964Y-104419505D01*
X141483536Y-104356905D01*
X141362601Y-104324500D01*
X141237399Y-104324500D01*
X141130751Y-104353076D01*
X141116460Y-104356906D01*
X141116459Y-104356907D01*
X141098998Y-104366988D01*
X141039150Y-104379708D01*
X140983255Y-104354821D01*
X140952663Y-104301833D01*
X140950500Y-104281251D01*
X140950500Y-103599500D01*
X140969407Y-103541309D01*
X141018907Y-103505345D01*
X141049500Y-103500500D01*
X141062599Y-103500500D01*
X141062601Y-103500500D01*
X141183536Y-103468095D01*
X141291964Y-103405495D01*
X141380495Y-103316964D01*
X141443095Y-103208536D01*
X141475500Y-103087601D01*
X141475500Y-102962399D01*
X141443095Y-102841464D01*
X141380495Y-102733036D01*
X141291964Y-102644505D01*
X141183536Y-102581905D01*
X141062601Y-102549500D01*
X140937399Y-102549500D01*
X140856775Y-102571103D01*
X140816463Y-102581905D01*
X140708036Y-102644505D01*
X140619499Y-102733042D01*
X140615556Y-102738182D01*
X140614584Y-102737436D01*
X140574068Y-102773914D01*
X140513218Y-102780307D01*
X140463802Y-102753475D01*
X139841996Y-102131669D01*
X139814219Y-102077152D01*
X139813000Y-102061665D01*
X139813000Y-100288335D01*
X139831907Y-100230144D01*
X139841996Y-100218332D01*
X140243646Y-99816681D01*
X140298163Y-99788903D01*
X140358595Y-99798474D01*
G37*
%TD.AperFunction*%
%TA.AperFunction,Conductor*%
G36*
X155994409Y-105988512D02*
G01*
X156019453Y-106026382D01*
X156021392Y-106025560D01*
X156023291Y-106030034D01*
X156023293Y-106030038D01*
X156039505Y-106059731D01*
X156056776Y-106091365D01*
X156056777Y-106091367D01*
X156061121Y-106097170D01*
X156067598Y-106106990D01*
X156100194Y-106163448D01*
X156110083Y-106187320D01*
X156116626Y-106211737D01*
X156120000Y-106237362D01*
X156120000Y-106262636D01*
X156116626Y-106288261D01*
X156110083Y-106312678D01*
X156100193Y-106336553D01*
X156087556Y-106358442D01*
X156071824Y-106378944D01*
X156053944Y-106396824D01*
X156033443Y-106412554D01*
X156011550Y-106425194D01*
X155987679Y-106435082D01*
X155963260Y-106441626D01*
X155937637Y-106445000D01*
X155912363Y-106445000D01*
X155886735Y-106441625D01*
X155862317Y-106435081D01*
X155838446Y-106425193D01*
X155816559Y-106412557D01*
X155796054Y-106396824D01*
X155778174Y-106378944D01*
X155762443Y-106358441D01*
X155749805Y-106336553D01*
X155739916Y-106312678D01*
X155733373Y-106288259D01*
X155730000Y-106262636D01*
X155730000Y-106237362D01*
X155733373Y-106211739D01*
X155739916Y-106187320D01*
X155749804Y-106163448D01*
X155768483Y-106131095D01*
X155777118Y-106118498D01*
X155796411Y-106094558D01*
X155824908Y-106050215D01*
X155824910Y-106050212D01*
X155824918Y-106050199D01*
X155838435Y-106026460D01*
X155838442Y-106026448D01*
X155838445Y-106026433D01*
X155838655Y-106025930D01*
X155838902Y-106025639D01*
X155841506Y-106021068D01*
X155842380Y-106021566D01*
X155878385Y-105979398D01*
X155937878Y-105965106D01*
X155994409Y-105988512D01*
G37*
%TD.AperFunction*%
%TA.AperFunction,Conductor*%
G36*
X142870118Y-102827907D02*
G01*
X143336501Y-103302618D01*
X143508431Y-103477618D01*
X143651304Y-103623042D01*
X143666274Y-103638279D01*
X143693567Y-103693037D01*
X143683462Y-103753382D01*
X143639817Y-103796262D01*
X143579302Y-103805299D01*
X143570030Y-103803286D01*
X143541659Y-103795684D01*
X143462601Y-103774500D01*
X143337399Y-103774500D01*
X143258341Y-103795684D01*
X143216463Y-103806905D01*
X143108036Y-103869505D01*
X143019505Y-103958036D01*
X142956905Y-104066463D01*
X142948976Y-104096054D01*
X142924500Y-104187399D01*
X142924500Y-104312601D01*
X142956905Y-104433536D01*
X143019505Y-104541964D01*
X143108036Y-104630495D01*
X143216464Y-104693095D01*
X143337399Y-104725500D01*
X143337401Y-104725500D01*
X143462599Y-104725500D01*
X143462601Y-104725500D01*
X143583536Y-104693095D01*
X143691964Y-104630495D01*
X143780495Y-104541964D01*
X143843095Y-104433536D01*
X143875500Y-104312601D01*
X143875500Y-104187399D01*
X143848995Y-104088482D01*
X143852196Y-104027381D01*
X143890701Y-103979831D01*
X143949801Y-103963995D01*
X144006923Y-103985921D01*
X144015241Y-103993478D01*
X144119234Y-104099328D01*
X144262106Y-104244751D01*
X144431286Y-104416952D01*
X144431301Y-104416967D01*
X144452350Y-104436129D01*
X144452356Y-104436134D01*
X144452362Y-104436139D01*
X144458910Y-104441463D01*
X144473818Y-104453585D01*
X144474649Y-104454258D01*
X144530620Y-104483536D01*
X144562983Y-104500465D01*
X144630022Y-104520150D01*
X144670013Y-104525900D01*
X144702003Y-104530500D01*
X144702007Y-104530500D01*
X144917004Y-104530500D01*
X144921373Y-104531919D01*
X144925853Y-104530896D01*
X144950109Y-104541256D01*
X144975195Y-104549407D01*
X144982117Y-104554926D01*
X145018651Y-104586828D01*
X145120732Y-104675967D01*
X145152127Y-104728483D01*
X145152126Y-104728483D01*
X145152127Y-104728484D01*
X145149031Y-104762987D01*
X145146658Y-104789424D01*
X145106414Y-104835511D01*
X145068544Y-104848690D01*
X145062407Y-104849498D01*
X145062400Y-104849500D01*
X145062399Y-104849500D01*
X144941464Y-104881905D01*
X144941463Y-104881905D01*
X144941461Y-104881906D01*
X144849499Y-104935000D01*
X144789651Y-104947721D01*
X144750501Y-104935000D01*
X144658538Y-104881906D01*
X144658537Y-104881905D01*
X144658536Y-104881905D01*
X144537601Y-104849500D01*
X144412399Y-104849500D01*
X144331775Y-104871103D01*
X144291463Y-104881905D01*
X144183036Y-104944505D01*
X144094505Y-105033036D01*
X144031905Y-105141463D01*
X144031905Y-105141464D01*
X143999500Y-105262399D01*
X143999500Y-105387601D01*
X144031905Y-105508536D01*
X144094505Y-105616964D01*
X144183036Y-105705495D01*
X144291464Y-105768095D01*
X144412399Y-105800500D01*
X144412401Y-105800500D01*
X144537599Y-105800500D01*
X144537601Y-105800500D01*
X144658536Y-105768095D01*
X144750503Y-105714998D01*
X144778500Y-105709047D01*
X144806204Y-105701931D01*
X144808590Y-105702651D01*
X144810348Y-105702278D01*
X144816650Y-105705083D01*
X144849495Y-105714997D01*
X144941464Y-105768095D01*
X145062399Y-105800500D01*
X145062401Y-105800500D01*
X145063192Y-105800712D01*
X145073707Y-105807540D01*
X145086001Y-105809995D01*
X145098746Y-105823801D01*
X145114507Y-105834037D01*
X145118999Y-105845741D01*
X145127503Y-105854953D01*
X145129699Y-105873615D01*
X145136433Y-105891158D01*
X145133188Y-105903266D01*
X145134654Y-105915719D01*
X145125460Y-105932109D01*
X145120597Y-105950259D01*
X145104721Y-105969083D01*
X145078545Y-105993244D01*
X145022965Y-106018822D01*
X145011396Y-106019500D01*
X144857884Y-106019500D01*
X144857883Y-106019500D01*
X144854651Y-106019712D01*
X144854639Y-106019538D01*
X144847598Y-106020000D01*
X144752402Y-106020000D01*
X144746855Y-106019636D01*
X144746198Y-106019805D01*
X144745556Y-106019550D01*
X144745360Y-106019538D01*
X144745349Y-106019712D01*
X144742116Y-106019500D01*
X143676990Y-106019500D01*
X143676984Y-106019500D01*
X143648610Y-106021081D01*
X143648564Y-106021085D01*
X143625505Y-106023665D01*
X143565573Y-106011344D01*
X143524330Y-105966148D01*
X143515500Y-105925279D01*
X143515500Y-105847401D01*
X143515500Y-105847399D01*
X143483095Y-105726464D01*
X143420495Y-105618036D01*
X143331964Y-105529505D01*
X143223536Y-105466905D01*
X143102601Y-105434500D01*
X142977399Y-105434500D01*
X142870751Y-105463076D01*
X142856460Y-105466906D01*
X142856458Y-105466907D01*
X142848995Y-105471216D01*
X142789146Y-105483934D01*
X142733252Y-105459044D01*
X142702662Y-105406054D01*
X142700500Y-105385477D01*
X142700500Y-102897289D01*
X142719407Y-102839098D01*
X142768907Y-102803134D01*
X142830093Y-102803134D01*
X142870118Y-102827907D01*
G37*
%TD.AperFunction*%
%TA.AperFunction,Conductor*%
G36*
X155975759Y-105308373D02*
G01*
X156000170Y-105314914D01*
X156000178Y-105314916D01*
X156024053Y-105324805D01*
X156045941Y-105337443D01*
X156066444Y-105353174D01*
X156084324Y-105371054D01*
X156100052Y-105391551D01*
X156112696Y-105413451D01*
X156122583Y-105437320D01*
X156129126Y-105461737D01*
X156132500Y-105487362D01*
X156132500Y-105512636D01*
X156129126Y-105538261D01*
X156122583Y-105562678D01*
X156112693Y-105586553D01*
X156094026Y-105618885D01*
X156085374Y-105631506D01*
X156066103Y-105655418D01*
X156066093Y-105655431D01*
X156037598Y-105699768D01*
X156037593Y-105699776D01*
X156024064Y-105723532D01*
X156023831Y-105724096D01*
X156023568Y-105724402D01*
X156021001Y-105728912D01*
X156020136Y-105728419D01*
X155984088Y-105770616D01*
X155924591Y-105784892D01*
X155868067Y-105761470D01*
X155845926Y-105734449D01*
X155840946Y-105725528D01*
X155839198Y-105719943D01*
X155805713Y-105658620D01*
X155797851Y-105648118D01*
X155762301Y-105586544D01*
X155752415Y-105562674D01*
X155745873Y-105538257D01*
X155742500Y-105512636D01*
X155742500Y-105487362D01*
X155745873Y-105461739D01*
X155752416Y-105437320D01*
X155762304Y-105413448D01*
X155774945Y-105391553D01*
X155790669Y-105371059D01*
X155808555Y-105353172D01*
X155829047Y-105337448D01*
X155850956Y-105324800D01*
X155874826Y-105314914D01*
X155899239Y-105308373D01*
X155924860Y-105305000D01*
X155950136Y-105305000D01*
X155975759Y-105308373D01*
G37*
%TD.AperFunction*%
%TA.AperFunction,Conductor*%
G36*
X156663259Y-104033373D02*
G01*
X156687670Y-104039914D01*
X156687678Y-104039916D01*
X156711553Y-104049805D01*
X156733441Y-104062443D01*
X156753944Y-104078174D01*
X156771824Y-104096054D01*
X156787557Y-104116559D01*
X156800218Y-104138489D01*
X156809940Y-104161747D01*
X156810238Y-104162831D01*
X156811040Y-104165686D01*
X156811043Y-104165696D01*
X156819689Y-104184925D01*
X156820688Y-104194112D01*
X156825554Y-104201972D01*
X156823825Y-104222949D01*
X156826306Y-104245751D01*
X156821030Y-104262990D01*
X156820695Y-104263808D01*
X156809430Y-104290117D01*
X156808463Y-104293721D01*
X156806093Y-104299520D01*
X156804305Y-104301632D01*
X156800194Y-104311552D01*
X156787556Y-104333441D01*
X156771824Y-104353944D01*
X156753944Y-104371824D01*
X156733443Y-104387554D01*
X156711550Y-104400194D01*
X156687679Y-104410082D01*
X156663260Y-104416626D01*
X156637637Y-104420000D01*
X156612363Y-104420000D01*
X156586735Y-104416625D01*
X156562317Y-104410081D01*
X156538446Y-104400193D01*
X156516559Y-104387557D01*
X156496054Y-104371824D01*
X156478173Y-104353943D01*
X156462441Y-104333440D01*
X156457279Y-104324500D01*
X156443161Y-104300046D01*
X156439385Y-104292837D01*
X156437730Y-104289335D01*
X156433169Y-104277325D01*
X156428542Y-104269886D01*
X156426109Y-104264735D01*
X156422916Y-104239766D01*
X156416879Y-104215336D01*
X156418935Y-104208635D01*
X156418348Y-104204044D01*
X156422886Y-104195757D01*
X156429887Y-104172947D01*
X156462445Y-104116555D01*
X156478172Y-104096056D01*
X156496055Y-104078172D01*
X156516547Y-104062448D01*
X156538456Y-104049800D01*
X156562326Y-104039914D01*
X156586739Y-104033373D01*
X156612360Y-104030000D01*
X156637636Y-104030000D01*
X156663259Y-104033373D01*
G37*
%TD.AperFunction*%
%TA.AperFunction,Conductor*%
G36*
X155588259Y-104008373D02*
G01*
X155612670Y-104014914D01*
X155612678Y-104014916D01*
X155636553Y-104024805D01*
X155658441Y-104037443D01*
X155678944Y-104053174D01*
X155696823Y-104071053D01*
X155712553Y-104091553D01*
X155731839Y-104124957D01*
X155735599Y-104132132D01*
X155737261Y-104135649D01*
X155741805Y-104147615D01*
X155746456Y-104155096D01*
X155748883Y-104160230D01*
X155752086Y-104185225D01*
X155758123Y-104209684D01*
X155756075Y-104216352D01*
X155756661Y-104220919D01*
X155752135Y-104229186D01*
X155745117Y-104252045D01*
X155712555Y-104308442D01*
X155696823Y-104328945D01*
X155678944Y-104346824D01*
X155658443Y-104362554D01*
X155636550Y-104375194D01*
X155612679Y-104385082D01*
X155588260Y-104391626D01*
X155562637Y-104395000D01*
X155537363Y-104395000D01*
X155511735Y-104391625D01*
X155487317Y-104385081D01*
X155463446Y-104375193D01*
X155441559Y-104362557D01*
X155421054Y-104346824D01*
X155403174Y-104328944D01*
X155387443Y-104308441D01*
X155374805Y-104286553D01*
X155364916Y-104262678D01*
X155358373Y-104238259D01*
X155355000Y-104212636D01*
X155355000Y-104187362D01*
X155358373Y-104161739D01*
X155364916Y-104137317D01*
X155374804Y-104113448D01*
X155387445Y-104091553D01*
X155403169Y-104071059D01*
X155421055Y-104053172D01*
X155441547Y-104037448D01*
X155463456Y-104024800D01*
X155487326Y-104014914D01*
X155511739Y-104008373D01*
X155537360Y-104005000D01*
X155562636Y-104005000D01*
X155588259Y-104008373D01*
G37*
%TD.AperFunction*%
%TA.AperFunction,Conductor*%
G36*
X141675558Y-100824005D02*
G01*
X141677082Y-100823942D01*
X141679388Y-100825474D01*
X141698940Y-100832977D01*
X141699920Y-100833543D01*
X141712448Y-100847451D01*
X141728036Y-100857814D01*
X141732428Y-100869634D01*
X141740869Y-100879005D01*
X141749349Y-100915167D01*
X141751344Y-100963051D01*
X141749384Y-100980838D01*
X141750350Y-100980966D01*
X141749503Y-100987401D01*
X141749503Y-101112600D01*
X141770077Y-101189385D01*
X141769658Y-101197361D01*
X141772908Y-101204659D01*
X141768087Y-101227337D01*
X141766874Y-101250487D01*
X141760187Y-101264507D01*
X141744480Y-101291713D01*
X141742836Y-101294457D01*
X141742745Y-101294602D01*
X141741479Y-101296913D01*
X141736039Y-101306335D01*
X141735991Y-101307253D01*
X141732682Y-101314890D01*
X141732405Y-101315461D01*
X141726620Y-101328319D01*
X141726615Y-101328334D01*
X141725255Y-101333627D01*
X141722474Y-101342641D01*
X141719970Y-101349563D01*
X141719897Y-101349536D01*
X141714506Y-101363915D01*
X141709814Y-101377618D01*
X141709737Y-101377842D01*
X141707622Y-101397958D01*
X141705051Y-101412236D01*
X141704949Y-101412629D01*
X141701376Y-101456979D01*
X141701323Y-101457716D01*
X141701262Y-101458462D01*
X141699316Y-101476986D01*
X141699560Y-101479644D01*
X141699345Y-101482323D01*
X141699367Y-101484842D01*
X141699367Y-101484853D01*
X141699756Y-101527860D01*
X141700826Y-101534854D01*
X141698726Y-101535175D01*
X141697720Y-101586292D01*
X141660788Y-101635074D01*
X141602236Y-101652832D01*
X141544429Y-101632782D01*
X141534182Y-101623855D01*
X141379496Y-101469169D01*
X141351719Y-101414652D01*
X141350500Y-101399165D01*
X141350500Y-101125834D01*
X141369407Y-101067643D01*
X141379496Y-101055830D01*
X141464352Y-100970974D01*
X141499860Y-100935466D01*
X141499862Y-100935465D01*
X141560465Y-100874862D01*
X141563717Y-100869228D01*
X141567652Y-100865684D01*
X141567989Y-100864482D01*
X141576292Y-100857903D01*
X141609181Y-100828286D01*
X141614369Y-100827740D01*
X141615949Y-100826489D01*
X141633021Y-100825777D01*
X141670030Y-100821884D01*
X141675558Y-100824005D01*
G37*
%TD.AperFunction*%
%TA.AperFunction,Conductor*%
G36*
X157078259Y-100228373D02*
G01*
X157102670Y-100234914D01*
X157102678Y-100234916D01*
X157126553Y-100244805D01*
X157148441Y-100257443D01*
X157168944Y-100273174D01*
X157186826Y-100291056D01*
X157202556Y-100311557D01*
X157238804Y-100374339D01*
X157240309Y-100376946D01*
X157251365Y-100396095D01*
X157264980Y-100411808D01*
X157264982Y-100411811D01*
X157267037Y-100414183D01*
X157267074Y-100414225D01*
X157271913Y-100419809D01*
X157271913Y-100419810D01*
X157312919Y-100467133D01*
X157317616Y-100471665D01*
X157321694Y-100475600D01*
X157350439Y-100529613D01*
X157342734Y-100584579D01*
X157370541Y-100555764D01*
X157430793Y-100545117D01*
X157444933Y-100548167D01*
X157501066Y-100564650D01*
X157539131Y-100570123D01*
X157573047Y-100575000D01*
X157573051Y-100575000D01*
X157642636Y-100575000D01*
X157668259Y-100578373D01*
X157692678Y-100584916D01*
X157716553Y-100594805D01*
X157738441Y-100607443D01*
X157758944Y-100623174D01*
X157776824Y-100641054D01*
X157792552Y-100661551D01*
X157805196Y-100683451D01*
X157815083Y-100707320D01*
X157821626Y-100731737D01*
X157825000Y-100757362D01*
X157825000Y-100782636D01*
X157821626Y-100808261D01*
X157815083Y-100832678D01*
X157805194Y-100856550D01*
X157792556Y-100878442D01*
X157776824Y-100898944D01*
X157758944Y-100916824D01*
X157738443Y-100932554D01*
X157716550Y-100945194D01*
X157692679Y-100955082D01*
X157668260Y-100961626D01*
X157642637Y-100965000D01*
X157617363Y-100965000D01*
X157591735Y-100961625D01*
X157567317Y-100955081D01*
X157543446Y-100945193D01*
X157521559Y-100932557D01*
X157521558Y-100932556D01*
X157501054Y-100916824D01*
X157483174Y-100898944D01*
X157467443Y-100878442D01*
X157431195Y-100815659D01*
X157431194Y-100815659D01*
X157430841Y-100815048D01*
X157430842Y-100815048D01*
X157427416Y-100809113D01*
X157427413Y-100809109D01*
X157424990Y-100804912D01*
X157424985Y-100804904D01*
X157418630Y-100793896D01*
X157404960Y-100778121D01*
X157404868Y-100778007D01*
X157402936Y-100775785D01*
X157402822Y-100775654D01*
X157380712Y-100750138D01*
X157357082Y-100722867D01*
X157348305Y-100714398D01*
X157319561Y-100660386D01*
X157327265Y-100605419D01*
X157299459Y-100634235D01*
X157239207Y-100644882D01*
X157225056Y-100641829D01*
X157168946Y-100625353D01*
X157168938Y-100625351D01*
X157168934Y-100625350D01*
X157168929Y-100625349D01*
X157168928Y-100625349D01*
X157096953Y-100615000D01*
X157096949Y-100615000D01*
X157027363Y-100615000D01*
X157001735Y-100611625D01*
X156977317Y-100605081D01*
X156953446Y-100595193D01*
X156931559Y-100582557D01*
X156911054Y-100566824D01*
X156893174Y-100548944D01*
X156877443Y-100528441D01*
X156864805Y-100506553D01*
X156854916Y-100482678D01*
X156848373Y-100458259D01*
X156845000Y-100432636D01*
X156845000Y-100407362D01*
X156848373Y-100381739D01*
X156848598Y-100380899D01*
X156854916Y-100357317D01*
X156864804Y-100333448D01*
X156877445Y-100311553D01*
X156893169Y-100291059D01*
X156911055Y-100273172D01*
X156931547Y-100257448D01*
X156953456Y-100244800D01*
X156977326Y-100234914D01*
X157001739Y-100228373D01*
X157027360Y-100225000D01*
X157052636Y-100225000D01*
X157078259Y-100228373D01*
G37*
%TD.AperFunction*%
%TA.AperFunction,Conductor*%
G36*
X140452633Y-96929436D02*
G01*
X140495898Y-96972701D01*
X140502165Y-96988063D01*
X140522378Y-97052615D01*
X140528587Y-97072444D01*
X140528591Y-97072452D01*
X140562068Y-97133762D01*
X140562071Y-97133767D01*
X140598107Y-97181905D01*
X140605653Y-97191985D01*
X140683015Y-97269347D01*
X140683023Y-97269354D01*
X140683037Y-97269367D01*
X140703365Y-97287626D01*
X140703370Y-97287630D01*
X140703734Y-97287924D01*
X140708269Y-97291578D01*
X140708274Y-97291582D01*
X140724005Y-97304259D01*
X140724019Y-97304269D01*
X140724023Y-97304272D01*
X140724027Y-97304274D01*
X140727410Y-97306408D01*
X140727278Y-97306616D01*
X140734740Y-97311316D01*
X140738818Y-97314369D01*
X140746218Y-97319705D01*
X140789835Y-97338691D01*
X140812362Y-97350472D01*
X140814958Y-97351234D01*
X140815376Y-97349808D01*
X140837625Y-97359493D01*
X140837630Y-97359494D01*
X140837633Y-97359495D01*
X140855226Y-97363321D01*
X140862074Y-97365068D01*
X140879377Y-97370150D01*
X140893774Y-97372220D01*
X140951358Y-97380500D01*
X140951362Y-97380500D01*
X141151871Y-97380500D01*
X141210062Y-97399407D01*
X141246026Y-97448907D01*
X141247711Y-97456362D01*
X141247821Y-97456333D01*
X141249500Y-97462599D01*
X141249500Y-97462601D01*
X141281905Y-97583536D01*
X141344298Y-97691606D01*
X141344860Y-97694249D01*
X141346771Y-97696160D01*
X141351169Y-97723933D01*
X141357019Y-97751453D01*
X141355919Y-97753922D01*
X141356342Y-97756592D01*
X141343571Y-97781654D01*
X141332132Y-97807348D01*
X141328571Y-97811100D01*
X141307645Y-97832026D01*
X141291010Y-97848662D01*
X141236493Y-97876438D01*
X141176061Y-97866866D01*
X141171509Y-97864395D01*
X141158536Y-97856905D01*
X141037601Y-97824500D01*
X140912399Y-97824500D01*
X140831775Y-97846103D01*
X140791463Y-97856905D01*
X140683036Y-97919505D01*
X140594505Y-98008036D01*
X140531905Y-98116463D01*
X140525432Y-98140621D01*
X140499500Y-98237399D01*
X140499500Y-98362601D01*
X140530376Y-98477829D01*
X140531906Y-98483539D01*
X140539393Y-98496506D01*
X140552115Y-98556354D01*
X140527228Y-98612250D01*
X140523661Y-98616010D01*
X139244504Y-99895169D01*
X139189987Y-99922946D01*
X139129555Y-99913375D01*
X139086290Y-99870110D01*
X139075500Y-99825165D01*
X139075500Y-98250835D01*
X139094407Y-98192644D01*
X139104496Y-98180831D01*
X139715499Y-97569828D01*
X140337686Y-96947640D01*
X140392201Y-96919865D01*
X140452633Y-96929436D01*
G37*
%TD.AperFunction*%
%TA.AperFunction,Conductor*%
G36*
X149231387Y-98477829D02*
G01*
X149266849Y-98527690D01*
X149268016Y-98531705D01*
X149281903Y-98583532D01*
X149281904Y-98583533D01*
X149281905Y-98583536D01*
X149344505Y-98691964D01*
X149350496Y-98697955D01*
X149361752Y-98720047D01*
X149375633Y-98740590D01*
X149375408Y-98746850D01*
X149378272Y-98752470D01*
X149373549Y-98801740D01*
X149373502Y-98801868D01*
X149364053Y-98827618D01*
X149359330Y-98840487D01*
X149358899Y-98842094D01*
X149357587Y-98845709D01*
X149356684Y-98846866D01*
X149350267Y-98861424D01*
X149325781Y-98903836D01*
X149316048Y-98922417D01*
X149316028Y-98922460D01*
X149316023Y-98922465D01*
X149315107Y-98924214D01*
X149314617Y-98923957D01*
X149274069Y-98966991D01*
X149226521Y-98979157D01*
X149182739Y-98979157D01*
X149167474Y-98983247D01*
X149141962Y-98981908D01*
X149116459Y-98983306D01*
X149112066Y-98980340D01*
X149106373Y-98980042D01*
X149065066Y-98950103D01*
X149063793Y-98948539D01*
X149037069Y-98912839D01*
X149024589Y-98900359D01*
X149021388Y-98896425D01*
X149020355Y-98893755D01*
X149012443Y-98883443D01*
X148999804Y-98861551D01*
X148989916Y-98837678D01*
X148983373Y-98813259D01*
X148980000Y-98787636D01*
X148980000Y-98762362D01*
X148983373Y-98736742D01*
X148989915Y-98712324D01*
X148999803Y-98688448D01*
X149039486Y-98619719D01*
X149040280Y-98618371D01*
X149041895Y-98615681D01*
X149042000Y-98615589D01*
X149052843Y-98589847D01*
X149052844Y-98589848D01*
X149073491Y-98540834D01*
X149078550Y-98525784D01*
X149115012Y-98476652D01*
X149173391Y-98458334D01*
X149231387Y-98477829D01*
G37*
%TD.AperFunction*%
%TA.AperFunction,Conductor*%
G36*
X147224501Y-96995183D02*
G01*
X147659788Y-97430470D01*
X147739712Y-97476614D01*
X147828856Y-97500500D01*
X147828858Y-97500500D01*
X148171142Y-97500500D01*
X148171144Y-97500500D01*
X148260288Y-97476614D01*
X148333911Y-97434107D01*
X148393759Y-97421387D01*
X148449654Y-97446274D01*
X148480247Y-97499262D01*
X148479037Y-97545466D01*
X148474500Y-97562399D01*
X148474500Y-97687601D01*
X148504168Y-97798321D01*
X148506906Y-97808538D01*
X148557402Y-97896001D01*
X148570123Y-97955849D01*
X148545236Y-98011745D01*
X148492247Y-98042337D01*
X148471665Y-98044500D01*
X147706769Y-98044500D01*
X147660882Y-98033223D01*
X147658817Y-98032143D01*
X147634657Y-98019505D01*
X147577991Y-97989863D01*
X147577986Y-97989861D01*
X147510963Y-97970181D01*
X147510955Y-97970179D01*
X147510951Y-97970178D01*
X147510946Y-97970177D01*
X147510945Y-97970177D01*
X147438970Y-97959828D01*
X147438966Y-97959828D01*
X147384006Y-97959828D01*
X147358378Y-97956453D01*
X147333960Y-97949909D01*
X147310089Y-97940021D01*
X147288202Y-97927385D01*
X147267697Y-97911652D01*
X147249817Y-97893772D01*
X147234086Y-97873269D01*
X147221448Y-97851381D01*
X147211559Y-97827506D01*
X147205016Y-97803087D01*
X147201643Y-97777464D01*
X147201643Y-97722504D01*
X147201460Y-97719090D01*
X147200179Y-97695191D01*
X147197345Y-97668833D01*
X147167556Y-97573699D01*
X147153835Y-97548571D01*
X147134074Y-97512380D01*
X147134071Y-97512375D01*
X147090490Y-97454157D01*
X147084492Y-97448159D01*
X147056718Y-97393641D01*
X147055500Y-97378160D01*
X147055500Y-97065189D01*
X147074407Y-97006998D01*
X147123907Y-96971034D01*
X147185093Y-96971034D01*
X147224501Y-96995183D01*
G37*
%TD.AperFunction*%
%TA.AperFunction,Conductor*%
G36*
X153615542Y-94178678D02*
G01*
X153625765Y-94177542D01*
X153643997Y-94187923D01*
X153663952Y-94194407D01*
X153669997Y-94202728D01*
X153678935Y-94207817D01*
X153687582Y-94226931D01*
X153699916Y-94243907D01*
X153699916Y-94254193D01*
X153704155Y-94263563D01*
X153699916Y-94284109D01*
X153699916Y-94305093D01*
X153691792Y-94323487D01*
X153681582Y-94341417D01*
X153674429Y-94367485D01*
X153669732Y-94380798D01*
X153667746Y-94385360D01*
X153666859Y-94388105D01*
X153666088Y-94389169D01*
X153665812Y-94389804D01*
X153665672Y-94389743D01*
X153630971Y-94437660D01*
X153598282Y-94453282D01*
X153491467Y-94481903D01*
X153491466Y-94481904D01*
X153491464Y-94481904D01*
X153491464Y-94481905D01*
X153407301Y-94530496D01*
X153383036Y-94544505D01*
X153294505Y-94633036D01*
X153231904Y-94741466D01*
X153231903Y-94741467D01*
X153202660Y-94850603D01*
X153169336Y-94901917D01*
X153136617Y-94919456D01*
X153100324Y-94930819D01*
X153038999Y-94964304D01*
X152980783Y-95007884D01*
X152787021Y-95201646D01*
X152779693Y-95209287D01*
X152772708Y-95216880D01*
X152772704Y-95216884D01*
X152727092Y-95286488D01*
X152698822Y-95350390D01*
X152698065Y-95353089D01*
X152697848Y-95353850D01*
X152686357Y-95393555D01*
X152684956Y-95393180D01*
X152666075Y-95463638D01*
X152665805Y-95464574D01*
X152665143Y-95465549D01*
X152656445Y-95486549D01*
X152641678Y-95512126D01*
X152632286Y-95525653D01*
X152605714Y-95557833D01*
X152605707Y-95557843D01*
X152579409Y-95596700D01*
X152568226Y-95614803D01*
X152568225Y-95614805D01*
X152537306Y-95709579D01*
X152536748Y-95712112D01*
X152536146Y-95713135D01*
X152535798Y-95714204D01*
X152535563Y-95714127D01*
X152505748Y-95764862D01*
X152449663Y-95789317D01*
X152394188Y-95778507D01*
X152386597Y-95774536D01*
X152386590Y-95774533D01*
X152319567Y-95754853D01*
X152319559Y-95754851D01*
X152319555Y-95754850D01*
X152319550Y-95754849D01*
X152319549Y-95754849D01*
X152247574Y-95744500D01*
X152247570Y-95744500D01*
X152026362Y-95744500D01*
X152026361Y-95744500D01*
X151999054Y-95745963D01*
X151999040Y-95745964D01*
X151998573Y-95746014D01*
X151998574Y-95746015D01*
X151992668Y-95746650D01*
X151992658Y-95746651D01*
X151992655Y-95746650D01*
X151972691Y-95748797D01*
X151967932Y-95749788D01*
X151967900Y-95749635D01*
X151960157Y-95751391D01*
X151956668Y-95751893D01*
X151955043Y-95752127D01*
X151955036Y-95752128D01*
X151955016Y-95752131D01*
X151946071Y-95753581D01*
X151946057Y-95753585D01*
X151905271Y-95769631D01*
X151901961Y-95770933D01*
X151877624Y-95778550D01*
X151875247Y-95779847D01*
X151875963Y-95781160D01*
X151859017Y-95787827D01*
X151859016Y-95787828D01*
X151853302Y-95790076D01*
X151853296Y-95790079D01*
X151838109Y-95799838D01*
X151832045Y-95803436D01*
X151816228Y-95812074D01*
X151758017Y-95855650D01*
X151289339Y-96324327D01*
X151241402Y-96372264D01*
X151226995Y-96387924D01*
X151216568Y-96400251D01*
X151164550Y-96432466D01*
X151115365Y-96431938D01*
X151087605Y-96424500D01*
X151087601Y-96424500D01*
X150962399Y-96424500D01*
X150881775Y-96446103D01*
X150841463Y-96456905D01*
X150733036Y-96519505D01*
X150644505Y-96608036D01*
X150581905Y-96716463D01*
X150581905Y-96716464D01*
X150549500Y-96837399D01*
X150549500Y-96837401D01*
X150549500Y-96962601D01*
X150549499Y-96962601D01*
X150557756Y-96993415D01*
X150554553Y-97054517D01*
X150521459Y-97098290D01*
X150497269Y-97116398D01*
X149857879Y-97755788D01*
X149823605Y-97798321D01*
X149795115Y-97842652D01*
X149778515Y-97871806D01*
X149776581Y-97870705D01*
X149743115Y-97909903D01*
X149691374Y-97924500D01*
X149662399Y-97924500D01*
X149541464Y-97956905D01*
X149541462Y-97956905D01*
X149541462Y-97956906D01*
X149510390Y-97974845D01*
X149450541Y-97987564D01*
X149394646Y-97962677D01*
X149364055Y-97909688D01*
X149370452Y-97848838D01*
X149375148Y-97839620D01*
X149393095Y-97808536D01*
X149425500Y-97687601D01*
X149425500Y-97562399D01*
X149393095Y-97441464D01*
X149330495Y-97333036D01*
X149241964Y-97244505D01*
X149133536Y-97181905D01*
X149012601Y-97149500D01*
X148887399Y-97149500D01*
X148859553Y-97156961D01*
X148812153Y-97169662D01*
X148751051Y-97166459D01*
X148703501Y-97127954D01*
X148687666Y-97068853D01*
X148690902Y-97048419D01*
X148700500Y-97012601D01*
X148700500Y-96887399D01*
X148668095Y-96766464D01*
X148605495Y-96658036D01*
X148516964Y-96569505D01*
X148408536Y-96506905D01*
X148287601Y-96474500D01*
X148195796Y-96474500D01*
X148137605Y-96455593D01*
X148101641Y-96406093D01*
X148101641Y-96344907D01*
X148125790Y-96305498D01*
X148147410Y-96283879D01*
X148210010Y-96175451D01*
X148242415Y-96054516D01*
X148242415Y-96008919D01*
X148261322Y-95950728D01*
X148271411Y-95938915D01*
X148745698Y-95464628D01*
X148800215Y-95436851D01*
X148860647Y-95446422D01*
X148903912Y-95489687D01*
X148914702Y-95534632D01*
X148914702Y-95562601D01*
X148947107Y-95683536D01*
X149009707Y-95791964D01*
X149098238Y-95880495D01*
X149206666Y-95943095D01*
X149327601Y-95975500D01*
X149327603Y-95975500D01*
X149438594Y-95975500D01*
X149496785Y-95994407D01*
X149532749Y-96043907D01*
X149534213Y-96048851D01*
X149556905Y-96133536D01*
X149619505Y-96241964D01*
X149708036Y-96330495D01*
X149816464Y-96393095D01*
X149937399Y-96425500D01*
X149937401Y-96425500D01*
X150062599Y-96425500D01*
X150062601Y-96425500D01*
X150183536Y-96393095D01*
X150291964Y-96330495D01*
X150380495Y-96241964D01*
X150443095Y-96133536D01*
X150475500Y-96012601D01*
X150475500Y-95887399D01*
X150443095Y-95766464D01*
X150380495Y-95658036D01*
X150291964Y-95569505D01*
X150232606Y-95535235D01*
X150191667Y-95489767D01*
X150185271Y-95428917D01*
X150215864Y-95375929D01*
X150271759Y-95351042D01*
X150282108Y-95350500D01*
X151442851Y-95350500D01*
X151442853Y-95350500D01*
X151525639Y-95328318D01*
X151525641Y-95328316D01*
X151525643Y-95328316D01*
X151599857Y-95285468D01*
X151599857Y-95285467D01*
X151599862Y-95285465D01*
X152680831Y-94204496D01*
X152735348Y-94176719D01*
X152750835Y-94175500D01*
X153605761Y-94175500D01*
X153615542Y-94178678D01*
G37*
%TD.AperFunction*%
%TA.AperFunction,Conductor*%
G36*
X152727628Y-96129461D02*
G01*
X152754086Y-96132734D01*
X152806753Y-96155288D01*
X152806757Y-96155289D01*
X152806762Y-96155291D01*
X152833173Y-96162368D01*
X152842674Y-96164914D01*
X152866549Y-96174803D01*
X152868901Y-96176161D01*
X152888442Y-96187443D01*
X152908945Y-96203175D01*
X152942190Y-96236420D01*
X152942189Y-96236420D01*
X152950971Y-96245201D01*
X152962037Y-96255627D01*
X152966186Y-96259310D01*
X152969081Y-96264244D01*
X152974036Y-96267105D01*
X152984335Y-96290239D01*
X152997153Y-96312081D01*
X152996595Y-96317774D01*
X152998922Y-96323001D01*
X152993655Y-96347773D01*
X152991187Y-96372974D01*
X152986200Y-96382849D01*
X152982476Y-96389299D01*
X152982440Y-96389361D01*
X152961710Y-96425203D01*
X152961537Y-96425566D01*
X152942554Y-96458445D01*
X152926822Y-96478947D01*
X152889027Y-96516742D01*
X152882660Y-96523340D01*
X152882388Y-96523633D01*
X152882367Y-96523644D01*
X152882086Y-96523936D01*
X152881996Y-96523849D01*
X152867801Y-96531722D01*
X152856176Y-96543688D01*
X152841713Y-96546192D01*
X152828882Y-96553309D01*
X152795888Y-96554127D01*
X152790959Y-96553418D01*
X152785551Y-96552641D01*
X152774016Y-96550275D01*
X152717321Y-96535083D01*
X152693451Y-96525196D01*
X152671551Y-96512552D01*
X152651054Y-96496824D01*
X152633174Y-96478944D01*
X152617443Y-96458441D01*
X152604805Y-96436553D01*
X152594916Y-96412678D01*
X152588373Y-96388259D01*
X152585000Y-96362636D01*
X152585000Y-96337360D01*
X152588373Y-96311738D01*
X152589123Y-96308939D01*
X152604570Y-96251287D01*
X152604856Y-96250246D01*
X152605613Y-96247547D01*
X152608532Y-96239035D01*
X152616706Y-96209237D01*
X152617872Y-96204832D01*
X152617937Y-96203618D01*
X152619794Y-96196999D01*
X152633675Y-96176161D01*
X152645013Y-96153834D01*
X152650377Y-96151091D01*
X152653717Y-96146078D01*
X152677196Y-96137379D01*
X152699490Y-96125981D01*
X152705841Y-96126766D01*
X152711091Y-96124822D01*
X152727628Y-96129461D01*
G37*
%TD.AperFunction*%
%TA.AperFunction,Conductor*%
G36*
X146809191Y-87819407D02*
G01*
X146845155Y-87868907D01*
X146850000Y-87899500D01*
X146850000Y-90500000D01*
X146850001Y-90500000D01*
X153149999Y-90500000D01*
X153150000Y-90500000D01*
X153150000Y-87899500D01*
X153168907Y-87841309D01*
X153218407Y-87805345D01*
X153249000Y-87800500D01*
X161495117Y-87800500D01*
X161497541Y-87800530D01*
X161509647Y-87800826D01*
X161556487Y-87801974D01*
X161573377Y-87803846D01*
X161693768Y-87827793D01*
X161712340Y-87833427D01*
X161821195Y-87878516D01*
X161838303Y-87887660D01*
X161936263Y-87953115D01*
X161951260Y-87965422D01*
X162034572Y-88048734D01*
X162046884Y-88063737D01*
X162112338Y-88161697D01*
X162121486Y-88178812D01*
X162166572Y-88287658D01*
X162172206Y-88306230D01*
X162196153Y-88426621D01*
X162198025Y-88443509D01*
X162199470Y-88502458D01*
X162199500Y-88504884D01*
X162199500Y-111495114D01*
X162199470Y-111497539D01*
X162199470Y-111497540D01*
X162198025Y-111556489D01*
X162196153Y-111573377D01*
X162172206Y-111693768D01*
X162166572Y-111712340D01*
X162121486Y-111821186D01*
X162112338Y-111838301D01*
X162046884Y-111936261D01*
X162034572Y-111951264D01*
X161951260Y-112034576D01*
X161936257Y-112046888D01*
X161838310Y-112112334D01*
X161821195Y-112121482D01*
X161712340Y-112166571D01*
X161693768Y-112172205D01*
X161573376Y-112196153D01*
X161556488Y-112198025D01*
X161497541Y-112199470D01*
X161495115Y-112199500D01*
X138504885Y-112199500D01*
X138502461Y-112199470D01*
X138499368Y-112199394D01*
X138443507Y-112198024D01*
X138426622Y-112196152D01*
X138306231Y-112172206D01*
X138287658Y-112166572D01*
X138178812Y-112121486D01*
X138161697Y-112112338D01*
X138063737Y-112046884D01*
X138048734Y-112034572D01*
X137965422Y-111951260D01*
X137953115Y-111936263D01*
X137887659Y-111838301D01*
X137878516Y-111821195D01*
X137833427Y-111712340D01*
X137827793Y-111693768D01*
X137803846Y-111573377D01*
X137801974Y-111556487D01*
X137800530Y-111497539D01*
X137800500Y-111495115D01*
X137800500Y-98032143D01*
X138424500Y-98032143D01*
X138424500Y-98032147D01*
X138424500Y-110232147D01*
X138424500Y-110317853D01*
X138444062Y-110390863D01*
X138446683Y-110400643D01*
X138489531Y-110474857D01*
X138489533Y-110474859D01*
X138489535Y-110474862D01*
X139600138Y-111585465D01*
X139600140Y-111585466D01*
X139600142Y-111585468D01*
X139674357Y-111628316D01*
X139674355Y-111628316D01*
X139674359Y-111628317D01*
X139674361Y-111628318D01*
X139757147Y-111650500D01*
X139757149Y-111650500D01*
X152342851Y-111650500D01*
X152342853Y-111650500D01*
X152425639Y-111628318D01*
X152425641Y-111628316D01*
X152425643Y-111628316D01*
X152499857Y-111585468D01*
X152499857Y-111585467D01*
X152499862Y-111585465D01*
X153355831Y-110729496D01*
X153362948Y-110725869D01*
X153367644Y-110719407D01*
X153389692Y-110712243D01*
X153410348Y-110701719D01*
X153425835Y-110700500D01*
X153497033Y-110700500D01*
X153555224Y-110719407D01*
X153567036Y-110729496D01*
X153604221Y-110766680D01*
X153618036Y-110780495D01*
X153726464Y-110843095D01*
X153847399Y-110875500D01*
X153847401Y-110875500D01*
X153972599Y-110875500D01*
X153972601Y-110875500D01*
X154093536Y-110843095D01*
X154201964Y-110780495D01*
X154290495Y-110691964D01*
X154353095Y-110583536D01*
X154385500Y-110462601D01*
X154385500Y-110337399D01*
X154353095Y-110216464D01*
X154331666Y-110179348D01*
X154318946Y-110119501D01*
X154343833Y-110063605D01*
X154347402Y-110059845D01*
X154365279Y-110041968D01*
X154365279Y-110041967D01*
X154365283Y-110041964D01*
X154427883Y-109933536D01*
X154445700Y-109867040D01*
X154479023Y-109815729D01*
X154536144Y-109793802D01*
X154595245Y-109809637D01*
X154611330Y-109822662D01*
X154815504Y-110026836D01*
X154843281Y-110081353D01*
X154844500Y-110096840D01*
X154844500Y-110671692D01*
X154839858Y-110701652D01*
X154838578Y-110705680D01*
X154827045Y-110733525D01*
X154812497Y-110787818D01*
X154812156Y-110788894D01*
X154811809Y-110790387D01*
X154808401Y-110803109D01*
X154808385Y-110803171D01*
X154808271Y-110804918D01*
X154806581Y-110817762D01*
X154799408Y-110853828D01*
X154799406Y-110853845D01*
X154794500Y-110903665D01*
X154794500Y-111073638D01*
X154795963Y-111100944D01*
X154798797Y-111127306D01*
X154798797Y-111127308D01*
X154798798Y-111127310D01*
X154828587Y-111222444D01*
X154828588Y-111222447D01*
X154828589Y-111222448D01*
X154828591Y-111222452D01*
X154862068Y-111283762D01*
X154862071Y-111283767D01*
X154905649Y-111341980D01*
X154905653Y-111341985D01*
X155183015Y-111619347D01*
X155183023Y-111619354D01*
X155183037Y-111619367D01*
X155203365Y-111637626D01*
X155203365Y-111637627D01*
X155219341Y-111650500D01*
X155224007Y-111654260D01*
X155312338Y-111700465D01*
X155379377Y-111720150D01*
X155415641Y-111725364D01*
X155451358Y-111730500D01*
X155451362Y-111730500D01*
X155524036Y-111730500D01*
X155526518Y-111730366D01*
X155551350Y-111729036D01*
X155577707Y-111726202D01*
X155577799Y-111726192D01*
X155577808Y-111726189D01*
X155582537Y-111725201D01*
X155582571Y-111725364D01*
X155590417Y-111723582D01*
X155590922Y-111723509D01*
X155595297Y-111722881D01*
X155604340Y-111721416D01*
X155648691Y-111703964D01*
X155672924Y-111696367D01*
X155675299Y-111695069D01*
X155674591Y-111693773D01*
X155697108Y-111684914D01*
X155712291Y-111675155D01*
X155718338Y-111671568D01*
X155734155Y-111662933D01*
X155792381Y-111619348D01*
X155808551Y-111603176D01*
X155829051Y-111587446D01*
X155850947Y-111574804D01*
X155874826Y-111564914D01*
X155899240Y-111558373D01*
X155924860Y-111555000D01*
X155950136Y-111555000D01*
X155975759Y-111558373D01*
X156000170Y-111564914D01*
X156000178Y-111564916D01*
X156024051Y-111574804D01*
X156045945Y-111587444D01*
X156066445Y-111603174D01*
X156082627Y-111619356D01*
X156082643Y-111619370D01*
X156098821Y-111633901D01*
X156102970Y-111637628D01*
X156123611Y-111654261D01*
X156123613Y-111654262D01*
X156204196Y-111696414D01*
X156211941Y-111700465D01*
X156278980Y-111720150D01*
X156315244Y-111725364D01*
X156350961Y-111730500D01*
X156350965Y-111730500D01*
X157899036Y-111730500D01*
X157902070Y-111730337D01*
X157926350Y-111729036D01*
X157952707Y-111726202D01*
X158047838Y-111696414D01*
X158109161Y-111662930D01*
X158167356Y-111619367D01*
X158167372Y-111619355D01*
X158167378Y-111619350D01*
X158167381Y-111619348D01*
X158183551Y-111603176D01*
X158204051Y-111587446D01*
X158225947Y-111574804D01*
X158249826Y-111564914D01*
X158274240Y-111558373D01*
X158299860Y-111555000D01*
X158325136Y-111555000D01*
X158350756Y-111558373D01*
X158375174Y-111564915D01*
X158399053Y-111574805D01*
X158448188Y-111603174D01*
X158468309Y-111614791D01*
X158468521Y-111614913D01*
X158472928Y-111616904D01*
X158472770Y-111617253D01*
X158480291Y-111620573D01*
X158493980Y-111628155D01*
X158494010Y-111628170D01*
X158494023Y-111628178D01*
X158503450Y-111633145D01*
X158599590Y-111659519D01*
X158669282Y-111664503D01*
X158714819Y-111663690D01*
X158809955Y-111633901D01*
X158848416Y-111612899D01*
X158871273Y-111600419D01*
X158871278Y-111600416D01*
X158929496Y-111556835D01*
X159419347Y-111066985D01*
X159437626Y-111046635D01*
X159454260Y-111025993D01*
X159500465Y-110937662D01*
X159520150Y-110870623D01*
X159530500Y-110798638D01*
X159530500Y-110647939D01*
X159527899Y-110611577D01*
X159527024Y-110605494D01*
X159522876Y-110576639D01*
X159521419Y-110567650D01*
X159521418Y-110567643D01*
X159506024Y-110528517D01*
X159506493Y-110528383D01*
X159501678Y-110511617D01*
X159485923Y-110470503D01*
X159457491Y-110432990D01*
X159456929Y-110431852D01*
X159457172Y-110431697D01*
X159455786Y-110429541D01*
X159455784Y-110429536D01*
X159447147Y-110416096D01*
X159447144Y-110416093D01*
X159419207Y-110380129D01*
X159419206Y-110380128D01*
X159409873Y-110373398D01*
X159386063Y-110356227D01*
X159386241Y-110356027D01*
X159373447Y-110344672D01*
X159336822Y-110317594D01*
X159292642Y-110301415D01*
X159291540Y-110300755D01*
X159291660Y-110300496D01*
X159289341Y-110299437D01*
X159289338Y-110299435D01*
X159274793Y-110292793D01*
X159274794Y-110292793D01*
X159274789Y-110292791D01*
X159231840Y-110277639D01*
X159231839Y-110277638D01*
X159231841Y-110277638D01*
X159198705Y-110275862D01*
X159188753Y-110274822D01*
X159157977Y-110270023D01*
X159156564Y-110269307D01*
X159153653Y-110269081D01*
X159150848Y-110270000D01*
X159065652Y-110270000D01*
X159040033Y-110266627D01*
X159021967Y-110261786D01*
X158998095Y-110251898D01*
X158981906Y-110242551D01*
X158961403Y-110226819D01*
X158948178Y-110213594D01*
X158932446Y-110193091D01*
X158923103Y-110176909D01*
X158913211Y-110153026D01*
X158908372Y-110134963D01*
X158905000Y-110109345D01*
X158905000Y-110090651D01*
X158908372Y-110065032D01*
X158913213Y-110046965D01*
X158923100Y-110023095D01*
X158932448Y-110006903D01*
X158948175Y-109986406D01*
X158961406Y-109973175D01*
X158981906Y-109957447D01*
X158998092Y-109948102D01*
X159021967Y-109938212D01*
X159040034Y-109933371D01*
X159065651Y-109930000D01*
X159148422Y-109930000D01*
X159151192Y-109930900D01*
X159158509Y-109929803D01*
X159158665Y-109929779D01*
X159169268Y-109928190D01*
X159169287Y-109928188D01*
X159172689Y-109927678D01*
X159172693Y-109927678D01*
X159176029Y-109927178D01*
X159176028Y-109927177D01*
X159216567Y-109921102D01*
X159216578Y-109921099D01*
X159240385Y-109917531D01*
X159283198Y-109907279D01*
X159369828Y-109857948D01*
X159422632Y-109812193D01*
X159454257Y-109779419D01*
X159500465Y-109691084D01*
X159520150Y-109624045D01*
X159529418Y-109559588D01*
X159530500Y-109552064D01*
X159530500Y-109374501D01*
X159530500Y-109374500D01*
X159527899Y-109338138D01*
X159522876Y-109303203D01*
X159521416Y-109294195D01*
X159515532Y-109279242D01*
X159515743Y-109279197D01*
X159513456Y-109268683D01*
X159506220Y-109242305D01*
X159489321Y-109212629D01*
X159484914Y-109201427D01*
X159481018Y-109195365D01*
X159469062Y-109176762D01*
X159469058Y-109176756D01*
X159467623Y-109174523D01*
X159456890Y-109155674D01*
X159451553Y-109149516D01*
X159447725Y-109143558D01*
X159447724Y-109143555D01*
X159447718Y-109143547D01*
X159447143Y-109142652D01*
X159419209Y-109106692D01*
X159419207Y-109106691D01*
X159419207Y-109106690D01*
X159402930Y-109094952D01*
X159378364Y-109071248D01*
X159348122Y-109055427D01*
X159342377Y-109051284D01*
X159342376Y-109051283D01*
X159338350Y-109048380D01*
X159338345Y-109048377D01*
X159311631Y-109036177D01*
X159309218Y-109035075D01*
X159290030Y-109025037D01*
X159282207Y-109022739D01*
X159281108Y-109022237D01*
X159275767Y-109019798D01*
X159275766Y-109019797D01*
X159274790Y-109019352D01*
X159274784Y-109019350D01*
X159274780Y-109019348D01*
X159231848Y-109004202D01*
X159231845Y-109004201D01*
X159231843Y-109004201D01*
X159217304Y-109003420D01*
X159196994Y-109000190D01*
X159146971Y-108986787D01*
X159123093Y-108976896D01*
X159106907Y-108967551D01*
X159086403Y-108951819D01*
X159073178Y-108938594D01*
X159057446Y-108918091D01*
X159048103Y-108901909D01*
X159038211Y-108878026D01*
X159038166Y-108877859D01*
X159035606Y-108868305D01*
X159033372Y-108859963D01*
X159030000Y-108834345D01*
X159030000Y-108815648D01*
X159033373Y-108790027D01*
X159034989Y-108783996D01*
X159042063Y-108746696D01*
X159046209Y-108710180D01*
X159047189Y-108699586D01*
X159041144Y-108651456D01*
X159052652Y-108591365D01*
X159097283Y-108549512D01*
X159113743Y-108543495D01*
X159208536Y-108518095D01*
X159316964Y-108455495D01*
X159405495Y-108366964D01*
X159468095Y-108258536D01*
X159500500Y-108137601D01*
X159500500Y-108012399D01*
X159492942Y-107984193D01*
X159496143Y-107923094D01*
X159534647Y-107875543D01*
X159593747Y-107859706D01*
X159638066Y-107872832D01*
X159716464Y-107918095D01*
X159837399Y-107950500D01*
X159837401Y-107950500D01*
X159962599Y-107950500D01*
X159962601Y-107950500D01*
X160083536Y-107918095D01*
X160191964Y-107855495D01*
X160236227Y-107811231D01*
X160290741Y-107783455D01*
X160351173Y-107793026D01*
X160394438Y-107836290D01*
X160404010Y-107896722D01*
X160391966Y-107930735D01*
X160356906Y-107991461D01*
X160356905Y-107991463D01*
X160356905Y-107991464D01*
X160324500Y-108112399D01*
X160324500Y-108237601D01*
X160356905Y-108358536D01*
X160419505Y-108466964D01*
X160508036Y-108555495D01*
X160616464Y-108618095D01*
X160737399Y-108650500D01*
X160737401Y-108650500D01*
X160862599Y-108650500D01*
X160862601Y-108650500D01*
X160983536Y-108618095D01*
X161091964Y-108555495D01*
X161180495Y-108466964D01*
X161243095Y-108358536D01*
X161275500Y-108237601D01*
X161275500Y-108112399D01*
X161243095Y-107991464D01*
X161180495Y-107883036D01*
X161091964Y-107794505D01*
X160990170Y-107735735D01*
X160949231Y-107690267D01*
X160942835Y-107629417D01*
X160973428Y-107576429D01*
X160990166Y-107564266D01*
X161091964Y-107505495D01*
X161180495Y-107416964D01*
X161243095Y-107308536D01*
X161275500Y-107187601D01*
X161275500Y-107062399D01*
X161243095Y-106941464D01*
X161180495Y-106833036D01*
X161091964Y-106744505D01*
X160983536Y-106681905D01*
X160862601Y-106649500D01*
X160737399Y-106649500D01*
X160656775Y-106671103D01*
X160616463Y-106681905D01*
X160566994Y-106710466D01*
X160508036Y-106744505D01*
X160419505Y-106833036D01*
X160371827Y-106915619D01*
X160356904Y-106941466D01*
X160356903Y-106941467D01*
X160332685Y-107031849D01*
X160299361Y-107083163D01*
X160242239Y-107105089D01*
X160187560Y-107091962D01*
X160083538Y-107031906D01*
X160083537Y-107031905D01*
X160083536Y-107031905D01*
X159962601Y-106999500D01*
X159837399Y-106999500D01*
X159765943Y-107018647D01*
X159716463Y-107031905D01*
X159608036Y-107094505D01*
X159519505Y-107183036D01*
X159456905Y-107291463D01*
X159456905Y-107291464D01*
X159424500Y-107412399D01*
X159424500Y-107412401D01*
X159424500Y-107537603D01*
X159432057Y-107565805D01*
X159428856Y-107626907D01*
X159390351Y-107674457D01*
X159331250Y-107690293D01*
X159286932Y-107677166D01*
X159208538Y-107631906D01*
X159208537Y-107631905D01*
X159208536Y-107631905D01*
X159087601Y-107599500D01*
X158962399Y-107599500D01*
X158881775Y-107621103D01*
X158841463Y-107631905D01*
X158738094Y-107691585D01*
X158733036Y-107694505D01*
X158644505Y-107783036D01*
X158589515Y-107878284D01*
X158580857Y-107893280D01*
X158535387Y-107934221D01*
X158474537Y-107940617D01*
X158425116Y-107913784D01*
X157584496Y-107073164D01*
X157556719Y-107018647D01*
X157555500Y-107003160D01*
X157555500Y-106491404D01*
X157555500Y-106491403D01*
X157547641Y-106431710D01*
X157546794Y-106425276D01*
X157546791Y-106425261D01*
X157530183Y-106363282D01*
X157530180Y-106363276D01*
X157530179Y-106363270D01*
X157527825Y-106357588D01*
X157523665Y-106345331D01*
X157521313Y-106336554D01*
X157508373Y-106288258D01*
X157505000Y-106262636D01*
X157505000Y-106237362D01*
X157508373Y-106211739D01*
X157523666Y-106154665D01*
X157527828Y-106142404D01*
X157530184Y-106136716D01*
X157543398Y-106087399D01*
X159124500Y-106087399D01*
X159124500Y-106212601D01*
X159156905Y-106333536D01*
X159219505Y-106441964D01*
X159308036Y-106530495D01*
X159416464Y-106593095D01*
X159537399Y-106625500D01*
X159537401Y-106625500D01*
X159662599Y-106625500D01*
X159662601Y-106625500D01*
X159783536Y-106593095D01*
X159891964Y-106530495D01*
X159980495Y-106441964D01*
X160043095Y-106333536D01*
X160075500Y-106212601D01*
X160075500Y-106087399D01*
X160043095Y-105966464D01*
X159980495Y-105858036D01*
X159891964Y-105769505D01*
X159783536Y-105706905D01*
X159662601Y-105674500D01*
X159537399Y-105674500D01*
X159456775Y-105696103D01*
X159416463Y-105706905D01*
X159308036Y-105769505D01*
X159219505Y-105858036D01*
X159156905Y-105966463D01*
X159154777Y-105974404D01*
X159124500Y-106087399D01*
X157543398Y-106087399D01*
X157546795Y-106074720D01*
X157555500Y-106008595D01*
X157555500Y-104562399D01*
X158699500Y-104562399D01*
X158699500Y-104687601D01*
X158731905Y-104808536D01*
X158794505Y-104916964D01*
X158883036Y-105005495D01*
X158991464Y-105068095D01*
X159112399Y-105100500D01*
X159112401Y-105100500D01*
X159237599Y-105100500D01*
X159237601Y-105100500D01*
X159358536Y-105068095D01*
X159466964Y-105005495D01*
X159555495Y-104916964D01*
X159618095Y-104808536D01*
X159650500Y-104687601D01*
X159650500Y-104562399D01*
X159618095Y-104441464D01*
X159555495Y-104333036D01*
X159466964Y-104244505D01*
X159358536Y-104181905D01*
X159237601Y-104149500D01*
X159112399Y-104149500D01*
X159051971Y-104165692D01*
X158991463Y-104181905D01*
X158883036Y-104244505D01*
X158794505Y-104333036D01*
X158731905Y-104441463D01*
X158731905Y-104441464D01*
X158699500Y-104562399D01*
X157555500Y-104562399D01*
X157555500Y-104388335D01*
X157555500Y-104388271D01*
X157555483Y-104385374D01*
X157555447Y-104382358D01*
X157555447Y-104382354D01*
X157543332Y-104307586D01*
X157538717Y-104293151D01*
X157537748Y-104290117D01*
X157526900Y-104256186D01*
X157526210Y-104198150D01*
X157545150Y-104133649D01*
X157554810Y-104066463D01*
X157555500Y-104061668D01*
X157555500Y-103171839D01*
X157574407Y-103113648D01*
X157584496Y-103101835D01*
X158021796Y-102664535D01*
X158519347Y-102166985D01*
X158537626Y-102146635D01*
X158554260Y-102125993D01*
X158600465Y-102037662D01*
X158602451Y-102030895D01*
X158636981Y-101980391D01*
X158694607Y-101959826D01*
X158753315Y-101977059D01*
X158757709Y-101980244D01*
X158758031Y-101980491D01*
X158758033Y-101980492D01*
X158758036Y-101980495D01*
X158866464Y-102043095D01*
X158987399Y-102075500D01*
X158987401Y-102075500D01*
X159112599Y-102075500D01*
X159112601Y-102075500D01*
X159233536Y-102043095D01*
X159341964Y-101980495D01*
X159430495Y-101891964D01*
X159493095Y-101783536D01*
X159525500Y-101662601D01*
X159525500Y-101537399D01*
X159493095Y-101416464D01*
X159439998Y-101324496D01*
X159427278Y-101264652D01*
X159439997Y-101225505D01*
X159493095Y-101133536D01*
X159525500Y-101012601D01*
X159525500Y-100887399D01*
X159493095Y-100766464D01*
X159430495Y-100658036D01*
X159341964Y-100569505D01*
X159233536Y-100506905D01*
X159112601Y-100474500D01*
X158987399Y-100474500D01*
X158866464Y-100506905D01*
X158866463Y-100506905D01*
X158866461Y-100506906D01*
X158778999Y-100557402D01*
X158719151Y-100570123D01*
X158663255Y-100545236D01*
X158632663Y-100492247D01*
X158630500Y-100471665D01*
X158630500Y-97471838D01*
X158649407Y-97413647D01*
X158659497Y-97401834D01*
X158757072Y-97304259D01*
X158894347Y-97166985D01*
X158912626Y-97146635D01*
X158929260Y-97125993D01*
X158975465Y-97037662D01*
X158995150Y-96970623D01*
X159005410Y-96899267D01*
X159005500Y-96898642D01*
X159005500Y-96737399D01*
X159449500Y-96737399D01*
X159449500Y-96862601D01*
X159481905Y-96983536D01*
X159544505Y-97091964D01*
X159633036Y-97180495D01*
X159741464Y-97243095D01*
X159862399Y-97275500D01*
X159862401Y-97275500D01*
X159987599Y-97275500D01*
X159987601Y-97275500D01*
X160108536Y-97243095D01*
X160216964Y-97180495D01*
X160305495Y-97091964D01*
X160368095Y-96983536D01*
X160400500Y-96862601D01*
X160400500Y-96848656D01*
X160419407Y-96790465D01*
X160468907Y-96754501D01*
X160505910Y-96751101D01*
X160505910Y-96750500D01*
X160637599Y-96750500D01*
X160637601Y-96750500D01*
X160758536Y-96718095D01*
X160866964Y-96655495D01*
X160955495Y-96566964D01*
X161018095Y-96458536D01*
X161050500Y-96337601D01*
X161050500Y-96212399D01*
X161018095Y-96091464D01*
X160955495Y-95983036D01*
X160866964Y-95894505D01*
X160758536Y-95831905D01*
X160637601Y-95799500D01*
X160512399Y-95799500D01*
X160433120Y-95820743D01*
X160391463Y-95831905D01*
X160283036Y-95894505D01*
X160194505Y-95983036D01*
X160131905Y-96091463D01*
X160131905Y-96091464D01*
X160099500Y-96212399D01*
X160099500Y-96212401D01*
X160099500Y-96226343D01*
X160080593Y-96284534D01*
X160031093Y-96320498D01*
X159994090Y-96323900D01*
X159994090Y-96324500D01*
X159987601Y-96324500D01*
X159862399Y-96324500D01*
X159786240Y-96344907D01*
X159741463Y-96356905D01*
X159633036Y-96419505D01*
X159544505Y-96508036D01*
X159481905Y-96616463D01*
X159471447Y-96655494D01*
X159449500Y-96737399D01*
X159005500Y-96737399D01*
X159005500Y-95526361D01*
X159004967Y-95516415D01*
X159004036Y-95499048D01*
X159001202Y-95472690D01*
X158971413Y-95377556D01*
X158958053Y-95353089D01*
X158937931Y-95316237D01*
X158937928Y-95316232D01*
X158894350Y-95258019D01*
X158894349Y-95258018D01*
X158894347Y-95258015D01*
X158588060Y-94951728D01*
X158576991Y-94941299D01*
X158576970Y-94941280D01*
X158565950Y-94931499D01*
X158491295Y-94885392D01*
X158491282Y-94885385D01*
X158426429Y-94859430D01*
X158426423Y-94859428D01*
X158424966Y-94858991D01*
X158418127Y-94856939D01*
X158382792Y-94846338D01*
X158283106Y-94845757D01*
X158257980Y-94850603D01*
X158214497Y-94858989D01*
X158214494Y-94858989D01*
X158214488Y-94858991D01*
X158214485Y-94858992D01*
X158170724Y-94871564D01*
X158170721Y-94871565D01*
X158086546Y-94924969D01*
X158058489Y-94951728D01*
X158042498Y-94966980D01*
X158038832Y-94970476D01*
X158038822Y-94970485D01*
X158033481Y-94975576D01*
X158033462Y-94975596D01*
X158020295Y-94988154D01*
X158019902Y-94989273D01*
X158011217Y-94999200D01*
X157983597Y-95026819D01*
X157963096Y-95042550D01*
X157946907Y-95051897D01*
X157923034Y-95061786D01*
X157904978Y-95066625D01*
X157879350Y-95070000D01*
X157860654Y-95070000D01*
X157835035Y-95066627D01*
X157816969Y-95061786D01*
X157793097Y-95051898D01*
X157776908Y-95042551D01*
X157756405Y-95026819D01*
X157743180Y-95013594D01*
X157727447Y-94993090D01*
X157707932Y-94959288D01*
X157675720Y-94915173D01*
X157675710Y-94915162D01*
X157675706Y-94915157D01*
X157640274Y-94876180D01*
X157640262Y-94876168D01*
X157620804Y-94856939D01*
X157534767Y-94806582D01*
X157534765Y-94806581D01*
X157468746Y-94783733D01*
X157468741Y-94783731D01*
X157468739Y-94783731D01*
X157424539Y-94772730D01*
X157424538Y-94772730D01*
X157424536Y-94772729D01*
X157324937Y-94776881D01*
X157257034Y-94793355D01*
X157193795Y-94818674D01*
X157158244Y-94825758D01*
X157146154Y-94825910D01*
X157140892Y-94824500D01*
X157009108Y-94824500D01*
X156996836Y-94827788D01*
X156984435Y-94827944D01*
X156966482Y-94822359D01*
X156947704Y-94821374D01*
X156933353Y-94812054D01*
X156926011Y-94809770D01*
X156922416Y-94804950D01*
X156913186Y-94798956D01*
X156913174Y-94798944D01*
X156897443Y-94778441D01*
X156884805Y-94756553D01*
X156874916Y-94732678D01*
X156868373Y-94708259D01*
X156865000Y-94682636D01*
X156865000Y-94657362D01*
X156868373Y-94631742D01*
X156874915Y-94607324D01*
X156884805Y-94583445D01*
X156924843Y-94514101D01*
X156928074Y-94504581D01*
X156930568Y-94498017D01*
X156936457Y-94484033D01*
X156936459Y-94484034D01*
X156954659Y-94440823D01*
X156966757Y-94404832D01*
X156972092Y-94305283D01*
X156962148Y-94236125D01*
X156951674Y-94191802D01*
X156902343Y-94105172D01*
X156896432Y-94098350D01*
X156856602Y-94052383D01*
X156856593Y-94052373D01*
X156823813Y-94020742D01*
X156823810Y-94020740D01*
X156735480Y-93974535D01*
X156735475Y-93974533D01*
X156668452Y-93954853D01*
X156668444Y-93954851D01*
X156668440Y-93954850D01*
X156668435Y-93954849D01*
X156668434Y-93954849D01*
X156596459Y-93944500D01*
X156596455Y-93944500D01*
X156283820Y-93944500D01*
X156235466Y-93949116D01*
X156189373Y-93958000D01*
X156168681Y-93962889D01*
X156168678Y-93962890D01*
X156079796Y-94008043D01*
X156079794Y-94008045D01*
X156024889Y-94051221D01*
X156024872Y-94051236D01*
X155991720Y-94082472D01*
X155991687Y-94082514D01*
X155991650Y-94082538D01*
X155986573Y-94087322D01*
X155985744Y-94086442D01*
X155940648Y-94116257D01*
X155902737Y-94119173D01*
X155895572Y-94118334D01*
X155862601Y-94109500D01*
X155820065Y-94109500D01*
X155814330Y-94108829D01*
X155791520Y-94098350D01*
X155767644Y-94090593D01*
X155759509Y-94083645D01*
X155758731Y-94083288D01*
X155758399Y-94082697D01*
X155755831Y-94080504D01*
X155514313Y-93838986D01*
X155264862Y-93589535D01*
X155264859Y-93589533D01*
X155264858Y-93589532D01*
X155264857Y-93589531D01*
X155190642Y-93546683D01*
X155190644Y-93546683D01*
X155153829Y-93536819D01*
X155107853Y-93524500D01*
X152617853Y-93524500D01*
X152532147Y-93524500D01*
X152486171Y-93536819D01*
X152449356Y-93546683D01*
X152375142Y-93589531D01*
X151294169Y-94670504D01*
X151239652Y-94698281D01*
X151224165Y-94699500D01*
X150185189Y-94699500D01*
X150126998Y-94680593D01*
X150091034Y-94631093D01*
X150091034Y-94569907D01*
X150115183Y-94530498D01*
X151858283Y-92787399D01*
X160224500Y-92787399D01*
X160224500Y-92912601D01*
X160256905Y-93033536D01*
X160319505Y-93141964D01*
X160408036Y-93230495D01*
X160516464Y-93293095D01*
X160637399Y-93325500D01*
X160637401Y-93325500D01*
X160762599Y-93325500D01*
X160762601Y-93325500D01*
X160883536Y-93293095D01*
X160991964Y-93230495D01*
X161080495Y-93141964D01*
X161143095Y-93033536D01*
X161175500Y-92912601D01*
X161175500Y-92787399D01*
X161143095Y-92666464D01*
X161080495Y-92558036D01*
X160991964Y-92469505D01*
X160883536Y-92406905D01*
X160762601Y-92374500D01*
X160637399Y-92374500D01*
X160556775Y-92396103D01*
X160516463Y-92406905D01*
X160408036Y-92469505D01*
X160319505Y-92558036D01*
X160256905Y-92666463D01*
X160256905Y-92666464D01*
X160224500Y-92787399D01*
X151858283Y-92787399D01*
X152066186Y-92579496D01*
X152120703Y-92551719D01*
X152136190Y-92550500D01*
X155346142Y-92550500D01*
X155346144Y-92550500D01*
X155435288Y-92526614D01*
X155515212Y-92480470D01*
X157386574Y-90609108D01*
X160249500Y-90609108D01*
X160249500Y-90740892D01*
X160267296Y-90807309D01*
X160283609Y-90868190D01*
X160349496Y-90982309D01*
X160349498Y-90982311D01*
X160349500Y-90982314D01*
X160442686Y-91075500D01*
X160442688Y-91075501D01*
X160442690Y-91075503D01*
X160556810Y-91141390D01*
X160556808Y-91141390D01*
X160556812Y-91141391D01*
X160556814Y-91141392D01*
X160684108Y-91175500D01*
X160684110Y-91175500D01*
X160815890Y-91175500D01*
X160815892Y-91175500D01*
X160943186Y-91141392D01*
X160943188Y-91141390D01*
X160943190Y-91141390D01*
X161057309Y-91075503D01*
X161057309Y-91075502D01*
X161057314Y-91075500D01*
X161150500Y-90982314D01*
X161197734Y-90900503D01*
X161216390Y-90868190D01*
X161216390Y-90868188D01*
X161216392Y-90868186D01*
X161250500Y-90740892D01*
X161250500Y-90609108D01*
X161216392Y-90481814D01*
X161216390Y-90481811D01*
X161216390Y-90481809D01*
X161150503Y-90367690D01*
X161150501Y-90367688D01*
X161150500Y-90367686D01*
X161057314Y-90274500D01*
X161057311Y-90274498D01*
X161057309Y-90274496D01*
X160943189Y-90208609D01*
X160943191Y-90208609D01*
X160893799Y-90195375D01*
X160815892Y-90174500D01*
X160684108Y-90174500D01*
X160606200Y-90195375D01*
X160556809Y-90208609D01*
X160442690Y-90274496D01*
X160349496Y-90367690D01*
X160283609Y-90481809D01*
X160274209Y-90516891D01*
X160249500Y-90609108D01*
X157386574Y-90609108D01*
X157391186Y-90604496D01*
X157445703Y-90576719D01*
X157461190Y-90575500D01*
X158146142Y-90575500D01*
X158146144Y-90575500D01*
X158235288Y-90551614D01*
X158315212Y-90505470D01*
X159124705Y-89695976D01*
X159179220Y-89668201D01*
X159239652Y-89677772D01*
X159244198Y-89680240D01*
X159306814Y-89716392D01*
X159434108Y-89750500D01*
X159434110Y-89750500D01*
X159565890Y-89750500D01*
X159565892Y-89750500D01*
X159693186Y-89716392D01*
X159693188Y-89716390D01*
X159693190Y-89716390D01*
X159807309Y-89650503D01*
X159807309Y-89650502D01*
X159807314Y-89650500D01*
X159900500Y-89557314D01*
X159966392Y-89443186D01*
X160000500Y-89315892D01*
X160000500Y-89184108D01*
X159966392Y-89056814D01*
X159966390Y-89056811D01*
X159966390Y-89056809D01*
X159900503Y-88942690D01*
X159900501Y-88942688D01*
X159900500Y-88942686D01*
X159807314Y-88849500D01*
X159807311Y-88849498D01*
X159807309Y-88849496D01*
X159693189Y-88783609D01*
X159693191Y-88783609D01*
X159643799Y-88770375D01*
X159565892Y-88749500D01*
X159434108Y-88749500D01*
X159356200Y-88770375D01*
X159306809Y-88783609D01*
X159192690Y-88849496D01*
X159192689Y-88849497D01*
X159192686Y-88849499D01*
X159192686Y-88849500D01*
X159171680Y-88870505D01*
X159117166Y-88898281D01*
X159101679Y-88899500D01*
X159028856Y-88899500D01*
X158939712Y-88923386D01*
X158859788Y-88969530D01*
X157983814Y-89845504D01*
X157929297Y-89873281D01*
X157913810Y-89874500D01*
X157321144Y-89874500D01*
X157228856Y-89874500D01*
X157139712Y-89898386D01*
X157059788Y-89944530D01*
X155183814Y-91820504D01*
X155129297Y-91848281D01*
X155113810Y-91849500D01*
X151903856Y-91849500D01*
X151814712Y-91873386D01*
X151734788Y-91919530D01*
X150149504Y-93504814D01*
X150094987Y-93532591D01*
X150034555Y-93523020D01*
X149991290Y-93479755D01*
X149980500Y-93434810D01*
X149980500Y-93276361D01*
X149979420Y-93256208D01*
X149979036Y-93249048D01*
X149976202Y-93222690D01*
X149946413Y-93127556D01*
X149937723Y-93111641D01*
X149912931Y-93066237D01*
X149912928Y-93066232D01*
X149869350Y-93008019D01*
X149869349Y-93008018D01*
X149869347Y-93008015D01*
X149755047Y-92893715D01*
X149727498Y-92869844D01*
X149727492Y-92869839D01*
X149727488Y-92869836D01*
X149699270Y-92848711D01*
X149691851Y-92843361D01*
X149691839Y-92843354D01*
X149691567Y-92843236D01*
X149691567Y-92843235D01*
X149683532Y-92839737D01*
X149678723Y-92836483D01*
X149660625Y-92825303D01*
X149619694Y-92811948D01*
X149615374Y-92810068D01*
X149615362Y-92810064D01*
X149600447Y-92803572D01*
X149600448Y-92803572D01*
X149600445Y-92803571D01*
X149596028Y-92802610D01*
X149596027Y-92802610D01*
X149586044Y-92800438D01*
X149581148Y-92799372D01*
X149565851Y-92794382D01*
X149548876Y-92792351D01*
X149544266Y-92791348D01*
X149544265Y-92791347D01*
X149532162Y-92788716D01*
X149487006Y-92783041D01*
X149481922Y-92783864D01*
X149481923Y-92783865D01*
X149472602Y-92785373D01*
X149450954Y-92784731D01*
X149409316Y-92795619D01*
X149404655Y-92796374D01*
X149392146Y-92798400D01*
X149388599Y-92798975D01*
X149388597Y-92798975D01*
X149374765Y-92804131D01*
X149374766Y-92804132D01*
X149370062Y-92805886D01*
X149354507Y-92809955D01*
X149339116Y-92817429D01*
X149334695Y-92819079D01*
X149334693Y-92819079D01*
X149323107Y-92823401D01*
X149323099Y-92823405D01*
X149323095Y-92823406D01*
X149323092Y-92823408D01*
X149315056Y-92827252D01*
X149282061Y-92843034D01*
X149282058Y-92843036D01*
X149278224Y-92846477D01*
X149278225Y-92846478D01*
X149271648Y-92852383D01*
X149271204Y-92852782D01*
X149252624Y-92863959D01*
X149223497Y-92895614D01*
X149219976Y-92898777D01*
X149219974Y-92898777D01*
X149207889Y-92909630D01*
X149207882Y-92909638D01*
X149198996Y-92921503D01*
X149196005Y-92925497D01*
X149185126Y-92937323D01*
X149176233Y-92951910D01*
X149173408Y-92955684D01*
X149173404Y-92955692D01*
X149165984Y-92965606D01*
X149165981Y-92965609D01*
X149142058Y-93004331D01*
X149142058Y-93004332D01*
X149137510Y-93020901D01*
X149135125Y-93028405D01*
X149134155Y-93031081D01*
X149120132Y-93063839D01*
X149113988Y-93086764D01*
X149112541Y-93090762D01*
X149110818Y-93092973D01*
X149105197Y-93106546D01*
X149102256Y-93111641D01*
X149094544Y-93124997D01*
X149049078Y-93165939D01*
X149008807Y-93174500D01*
X148909107Y-93174500D01*
X148885148Y-93180919D01*
X148864480Y-93179834D01*
X148844042Y-93183072D01*
X148834613Y-93178268D01*
X148824046Y-93177714D01*
X148789525Y-93155295D01*
X148783174Y-93148944D01*
X148767444Y-93128444D01*
X148754802Y-93106546D01*
X148744916Y-93082679D01*
X148744242Y-93080163D01*
X148729667Y-93025769D01*
X148723308Y-93005461D01*
X148716330Y-92986051D01*
X148674446Y-92914495D01*
X148668987Y-92905168D01*
X148623248Y-92852383D01*
X148623239Y-92852373D01*
X148613892Y-92843354D01*
X148590460Y-92820743D01*
X148590459Y-92820742D01*
X148590456Y-92820740D01*
X148502126Y-92774535D01*
X148502121Y-92774533D01*
X148435098Y-92754853D01*
X148435090Y-92754851D01*
X148435086Y-92754850D01*
X148435081Y-92754849D01*
X148435080Y-92754849D01*
X148363105Y-92744500D01*
X148363101Y-92744500D01*
X147203501Y-92744500D01*
X147203499Y-92744500D01*
X147182245Y-92745385D01*
X147161678Y-92747102D01*
X147071293Y-92771900D01*
X147008448Y-92802429D01*
X146969423Y-92825898D01*
X146969422Y-92825899D01*
X146901926Y-92899262D01*
X146865563Y-92958918D01*
X146865560Y-92958923D01*
X146836929Y-93025784D01*
X146835079Y-93032688D01*
X146825191Y-93056556D01*
X146812555Y-93078442D01*
X146796825Y-93098943D01*
X146784127Y-93111641D01*
X146784121Y-93111648D01*
X146749850Y-93154175D01*
X146749841Y-93154187D01*
X146721342Y-93198531D01*
X146721338Y-93198539D01*
X146707808Y-93222296D01*
X146707807Y-93222299D01*
X146681432Y-93318443D01*
X146676448Y-93388144D01*
X146677261Y-93433666D01*
X146677262Y-93433672D01*
X146707051Y-93528807D01*
X146740532Y-93590124D01*
X146740535Y-93590129D01*
X146784135Y-93648372D01*
X146790616Y-93658198D01*
X146798850Y-93672459D01*
X146802256Y-93678359D01*
X146805192Y-93683443D01*
X146815083Y-93707320D01*
X146821626Y-93731737D01*
X146825000Y-93757362D01*
X146825000Y-93782636D01*
X146821626Y-93808261D01*
X146815083Y-93832678D01*
X146805194Y-93856550D01*
X146792556Y-93878442D01*
X146776824Y-93898944D01*
X146758944Y-93916824D01*
X146738443Y-93932554D01*
X146716550Y-93945194D01*
X146692679Y-93955082D01*
X146668260Y-93961626D01*
X146642637Y-93965000D01*
X146617363Y-93965000D01*
X146591735Y-93961625D01*
X146567317Y-93955081D01*
X146543446Y-93945193D01*
X146521559Y-93932557D01*
X146501054Y-93916824D01*
X146483174Y-93898944D01*
X146467441Y-93878439D01*
X146460579Y-93866554D01*
X146448499Y-93845630D01*
X146441897Y-93831832D01*
X146436649Y-93818259D01*
X146431292Y-93804402D01*
X146431288Y-93804396D01*
X146431286Y-93804388D01*
X146407137Y-93757551D01*
X146407129Y-93757536D01*
X146393315Y-93733937D01*
X146323237Y-93663027D01*
X146323236Y-93663026D01*
X146265380Y-93623872D01*
X146225529Y-93601805D01*
X146128238Y-93580039D01*
X146128242Y-93580039D01*
X146058404Y-93578381D01*
X146058401Y-93578381D01*
X146058395Y-93578381D01*
X146058387Y-93578381D01*
X146058385Y-93578382D01*
X146050720Y-93579299D01*
X146038962Y-93580000D01*
X145980652Y-93580000D01*
X145955033Y-93576627D01*
X145936967Y-93571786D01*
X145913095Y-93561898D01*
X145896906Y-93552551D01*
X145876403Y-93536819D01*
X145863178Y-93523594D01*
X145847446Y-93503091D01*
X145838102Y-93486907D01*
X145828211Y-93463026D01*
X145823372Y-93444963D01*
X145820000Y-93419345D01*
X145820000Y-93400652D01*
X145823373Y-93375030D01*
X145828212Y-93356970D01*
X145838101Y-93333095D01*
X145849271Y-93313749D01*
X145869448Y-93269567D01*
X145884799Y-93225214D01*
X145890916Y-93204832D01*
X145896251Y-93105283D01*
X145886307Y-93036125D01*
X145875833Y-92991802D01*
X145826502Y-92905172D01*
X145819103Y-92896633D01*
X145780761Y-92852383D01*
X145780752Y-92852373D01*
X145771405Y-92843354D01*
X145747973Y-92820743D01*
X145747972Y-92820742D01*
X145747969Y-92820740D01*
X145659639Y-92774535D01*
X145659634Y-92774533D01*
X145592611Y-92754853D01*
X145592603Y-92754851D01*
X145592599Y-92754850D01*
X145592594Y-92754849D01*
X145592593Y-92754849D01*
X145520618Y-92744500D01*
X145520614Y-92744500D01*
X145299386Y-92744500D01*
X145287265Y-92745367D01*
X145263022Y-92747101D01*
X145228065Y-92752127D01*
X145219129Y-92753574D01*
X145219123Y-92753575D01*
X145219121Y-92753576D01*
X145219118Y-92753577D01*
X145219115Y-92753578D01*
X145218953Y-92753641D01*
X145210688Y-92756892D01*
X145204933Y-92758002D01*
X145184242Y-92762892D01*
X145145875Y-92782381D01*
X145141477Y-92784111D01*
X145141474Y-92784111D01*
X145126349Y-92790061D01*
X145113891Y-92798065D01*
X145113890Y-92798064D01*
X145109680Y-92800769D01*
X145095362Y-92808044D01*
X145081933Y-92818603D01*
X145077966Y-92821153D01*
X145067554Y-92827845D01*
X145067549Y-92827849D01*
X145067539Y-92827856D01*
X145067537Y-92827858D01*
X145035982Y-92852368D01*
X145031591Y-92855779D01*
X145031582Y-92855788D01*
X145028579Y-92859950D01*
X145028580Y-92859951D01*
X145023053Y-92867613D01*
X145007292Y-92882467D01*
X144985547Y-92919613D01*
X144982783Y-92923447D01*
X144982780Y-92923448D01*
X144973276Y-92936627D01*
X144973272Y-92936634D01*
X144967135Y-92950066D01*
X144967136Y-92950067D01*
X144965049Y-92954634D01*
X144956933Y-92968503D01*
X144951346Y-92984640D01*
X144949390Y-92988925D01*
X144944240Y-93000205D01*
X144944239Y-93000209D01*
X144944236Y-93000216D01*
X144941873Y-93006914D01*
X144929082Y-93043174D01*
X144928807Y-93048307D01*
X144928806Y-93048306D01*
X144928300Y-93057740D01*
X144923077Y-93078732D01*
X144924870Y-93121779D01*
X144924619Y-93126477D01*
X144924619Y-93126493D01*
X144923750Y-93142726D01*
X144925843Y-93157281D01*
X144925844Y-93157283D01*
X144926556Y-93162241D01*
X144927228Y-93178337D01*
X144931259Y-93194956D01*
X144931930Y-93199620D01*
X144933693Y-93211878D01*
X144944169Y-93256206D01*
X144944172Y-93256211D01*
X144952669Y-93271132D01*
X144956151Y-93277827D01*
X144957434Y-93280543D01*
X144970729Y-93313749D01*
X144983933Y-93336621D01*
X144985671Y-93340298D01*
X144986023Y-93343055D01*
X144991786Y-93356968D01*
X144995759Y-93371793D01*
X144996626Y-93375026D01*
X145000000Y-93400652D01*
X145000000Y-93419348D01*
X144996625Y-93444976D01*
X144991786Y-93463032D01*
X144981897Y-93486904D01*
X144972552Y-93503090D01*
X144956820Y-93523594D01*
X144943594Y-93536820D01*
X144923090Y-93552552D01*
X144906904Y-93561897D01*
X144883032Y-93571786D01*
X144864976Y-93576625D01*
X144839348Y-93580000D01*
X144776667Y-93580000D01*
X144755413Y-93580885D01*
X144734849Y-93582602D01*
X144644471Y-93607396D01*
X144644467Y-93607397D01*
X144581639Y-93637916D01*
X144581628Y-93637921D01*
X144581624Y-93637924D01*
X144581616Y-93637928D01*
X144581612Y-93637931D01*
X144542594Y-93661395D01*
X144542593Y-93661396D01*
X144475096Y-93734761D01*
X144475090Y-93734769D01*
X144438733Y-93794413D01*
X144417761Y-93843386D01*
X144412496Y-93853903D01*
X144392558Y-93888439D01*
X144392556Y-93888442D01*
X144376824Y-93908944D01*
X144358944Y-93926824D01*
X144338443Y-93942554D01*
X144316550Y-93955194D01*
X144292679Y-93965082D01*
X144268260Y-93971626D01*
X144242637Y-93975000D01*
X144217363Y-93975000D01*
X144191735Y-93971625D01*
X144167317Y-93965081D01*
X144143446Y-93955193D01*
X144126047Y-93945148D01*
X144121558Y-93942556D01*
X144101054Y-93926824D01*
X144083174Y-93908944D01*
X144067443Y-93888441D01*
X144054805Y-93866553D01*
X144044916Y-93842678D01*
X144038373Y-93818259D01*
X144035000Y-93792636D01*
X144035000Y-93767361D01*
X144038371Y-93741744D01*
X144044916Y-93717318D01*
X144054802Y-93693450D01*
X144090781Y-93631136D01*
X144090780Y-93631135D01*
X144091405Y-93630052D01*
X144094904Y-93624715D01*
X144104671Y-93607076D01*
X144105067Y-93606391D01*
X144105096Y-93606340D01*
X144109277Y-93599099D01*
X144110294Y-93596921D01*
X144112703Y-93592572D01*
X144117659Y-93583165D01*
X144144033Y-93487025D01*
X144149017Y-93417333D01*
X144148487Y-93387674D01*
X144148204Y-93371799D01*
X144148203Y-93371793D01*
X144139620Y-93344382D01*
X144118415Y-93276660D01*
X144115774Y-93271824D01*
X144084933Y-93215341D01*
X144084930Y-93215336D01*
X144041349Y-93157119D01*
X144013173Y-93128942D01*
X143997444Y-93108444D01*
X143984804Y-93086551D01*
X143974917Y-93062683D01*
X143965026Y-93025769D01*
X143958667Y-93005461D01*
X143951689Y-92986051D01*
X143909805Y-92914495D01*
X143904346Y-92905168D01*
X143858607Y-92852383D01*
X143858598Y-92852373D01*
X143849251Y-92843354D01*
X143825819Y-92820743D01*
X143825818Y-92820742D01*
X143825815Y-92820740D01*
X143737485Y-92774535D01*
X143737480Y-92774533D01*
X143670457Y-92754853D01*
X143670449Y-92754851D01*
X143670445Y-92754850D01*
X143670440Y-92754849D01*
X143670439Y-92754849D01*
X143598464Y-92744500D01*
X143598460Y-92744500D01*
X143499500Y-92744500D01*
X143487379Y-92745367D01*
X143463136Y-92747101D01*
X143428177Y-92752127D01*
X143419224Y-92753577D01*
X143412926Y-92756053D01*
X143412927Y-92756054D01*
X143404220Y-92759478D01*
X143404174Y-92759261D01*
X143393660Y-92761549D01*
X143367312Y-92768778D01*
X143337661Y-92785660D01*
X143331070Y-92788253D01*
X143331068Y-92788253D01*
X143326457Y-92790067D01*
X143326452Y-92790069D01*
X143326452Y-92790070D01*
X143320635Y-92793808D01*
X143301711Y-92805967D01*
X143301710Y-92805966D01*
X143299469Y-92807405D01*
X143280680Y-92818105D01*
X143274523Y-92823438D01*
X143268590Y-92827252D01*
X143268591Y-92827252D01*
X143267663Y-92827848D01*
X143267661Y-92827850D01*
X143267650Y-92827857D01*
X143267646Y-92827861D01*
X143250136Y-92841463D01*
X143231696Y-92855787D01*
X143231695Y-92855788D01*
X143224104Y-92866311D01*
X143224105Y-92866312D01*
X143219962Y-92872055D01*
X143196250Y-92896633D01*
X143180433Y-92926863D01*
X143176293Y-92932605D01*
X143173386Y-92936636D01*
X143173382Y-92936642D01*
X143161167Y-92963381D01*
X143161168Y-92963382D01*
X143160055Y-92965818D01*
X143150038Y-92984967D01*
X143147739Y-92992790D01*
X143144812Y-92999202D01*
X143144812Y-92999205D01*
X143144353Y-93000209D01*
X143144344Y-93000231D01*
X143129202Y-93043152D01*
X143129199Y-93043163D01*
X143127994Y-93065615D01*
X143127593Y-93070665D01*
X143127393Y-93072560D01*
X143120000Y-93124000D01*
X143120000Y-93142826D01*
X143119456Y-93147996D01*
X143118291Y-93150610D01*
X143116626Y-93163261D01*
X143110083Y-93187678D01*
X143100194Y-93211550D01*
X143087556Y-93233442D01*
X143071824Y-93253944D01*
X143053944Y-93271824D01*
X143033443Y-93287554D01*
X143011550Y-93300194D01*
X142987679Y-93310082D01*
X142963260Y-93316626D01*
X142937637Y-93320000D01*
X142912363Y-93320000D01*
X142886735Y-93316625D01*
X142862317Y-93310081D01*
X142838446Y-93300193D01*
X142816559Y-93287557D01*
X142816558Y-93287556D01*
X142796054Y-93271824D01*
X142778174Y-93253944D01*
X142762443Y-93233441D01*
X142749805Y-93211553D01*
X142739916Y-93187678D01*
X142733373Y-93163259D01*
X142730000Y-93137636D01*
X142730000Y-93124003D01*
X142729541Y-93119731D01*
X142724161Y-93069687D01*
X142723410Y-93066237D01*
X142712961Y-93018203D01*
X142712949Y-93018153D01*
X142708027Y-93000216D01*
X142705719Y-92991802D01*
X142705718Y-92991800D01*
X142705717Y-92991797D01*
X142656392Y-92905178D01*
X142656389Y-92905175D01*
X142656388Y-92905172D01*
X142648989Y-92896633D01*
X142610647Y-92852383D01*
X142610638Y-92852373D01*
X142601291Y-92843354D01*
X142577859Y-92820743D01*
X142577858Y-92820742D01*
X142577855Y-92820740D01*
X142489525Y-92774535D01*
X142489520Y-92774533D01*
X142422497Y-92754853D01*
X142422489Y-92754851D01*
X142422485Y-92754850D01*
X142422480Y-92754849D01*
X142422479Y-92754849D01*
X142350504Y-92744500D01*
X142350500Y-92744500D01*
X141715908Y-92744500D01*
X141715904Y-92744500D01*
X141708311Y-92744726D01*
X141700714Y-92744952D01*
X141697407Y-92745149D01*
X141685996Y-92745828D01*
X141600614Y-92766004D01*
X141600608Y-92766006D01*
X141536385Y-92793507D01*
X141496272Y-92815102D01*
X141425365Y-92885171D01*
X141386204Y-92943030D01*
X141386203Y-92943033D01*
X141364140Y-92982876D01*
X141364138Y-92982882D01*
X141342368Y-93080158D01*
X141342368Y-93080163D01*
X141340736Y-93148730D01*
X141340705Y-93150013D01*
X141343633Y-93174500D01*
X141349339Y-93222220D01*
X141366627Y-93286740D01*
X141370000Y-93312360D01*
X141370000Y-93337636D01*
X141366625Y-93363264D01*
X141360083Y-93387674D01*
X141326757Y-93438987D01*
X141313961Y-93447781D01*
X141267687Y-93474498D01*
X141251180Y-93491005D01*
X141244064Y-93494630D01*
X141239369Y-93501093D01*
X141217320Y-93508256D01*
X141196663Y-93518782D01*
X141181178Y-93520000D01*
X141162363Y-93520000D01*
X141136735Y-93516625D01*
X141112317Y-93510081D01*
X141088446Y-93500193D01*
X141066559Y-93487557D01*
X141046054Y-93471824D01*
X141028174Y-93453944D01*
X141012443Y-93433441D01*
X140999805Y-93411553D01*
X140989916Y-93387678D01*
X140983373Y-93363259D01*
X140980000Y-93337636D01*
X140980000Y-93312360D01*
X140983373Y-93286737D01*
X140984900Y-93281038D01*
X141000661Y-93222217D01*
X141004154Y-93207437D01*
X141007117Y-93192994D01*
X141009729Y-93105283D01*
X140999785Y-93036125D01*
X140989311Y-92991802D01*
X140939980Y-92905172D01*
X140932581Y-92896633D01*
X140894239Y-92852383D01*
X140894230Y-92852373D01*
X140884883Y-92843354D01*
X140861451Y-92820743D01*
X140861450Y-92820742D01*
X140861447Y-92820740D01*
X140773117Y-92774535D01*
X140773112Y-92774533D01*
X140706089Y-92754853D01*
X140706081Y-92754851D01*
X140706077Y-92754850D01*
X140706072Y-92754849D01*
X140706071Y-92754849D01*
X140634096Y-92744500D01*
X140634092Y-92744500D01*
X139876362Y-92744500D01*
X139876361Y-92744500D01*
X139849054Y-92745963D01*
X139822689Y-92748798D01*
X139743298Y-92773657D01*
X139682117Y-92773002D01*
X139634843Y-92737875D01*
X139634444Y-92738182D01*
X139633368Y-92736779D01*
X139633005Y-92736510D01*
X139632207Y-92735267D01*
X139630500Y-92733042D01*
X139630496Y-92733038D01*
X139630495Y-92733036D01*
X139541964Y-92644505D01*
X139433536Y-92581905D01*
X139312601Y-92549500D01*
X139187399Y-92549500D01*
X139106775Y-92571103D01*
X139066463Y-92581905D01*
X138958036Y-92644505D01*
X138869505Y-92733036D01*
X138806905Y-92841463D01*
X138799303Y-92869836D01*
X138774500Y-92962399D01*
X138774500Y-93087601D01*
X138806905Y-93208536D01*
X138869505Y-93316964D01*
X138938101Y-93385560D01*
X138965877Y-93440075D01*
X138956306Y-93500507D01*
X138938100Y-93525565D01*
X138805657Y-93658009D01*
X138805630Y-93658037D01*
X138787378Y-93678359D01*
X138770736Y-93699011D01*
X138724534Y-93787338D01*
X138704853Y-93854363D01*
X138704849Y-93854381D01*
X138694500Y-93926356D01*
X138694500Y-94698638D01*
X138695963Y-94725944D01*
X138698797Y-94752306D01*
X138698797Y-94752308D01*
X138698798Y-94752310D01*
X138728587Y-94847444D01*
X138728588Y-94847447D01*
X138728589Y-94847448D01*
X138728591Y-94847452D01*
X138762068Y-94908762D01*
X138762071Y-94908767D01*
X138799888Y-94959284D01*
X138805653Y-94966985D01*
X139408015Y-95569347D01*
X139408023Y-95569354D01*
X139408037Y-95569367D01*
X139428365Y-95587626D01*
X139428365Y-95587627D01*
X139445649Y-95601554D01*
X139449007Y-95604260D01*
X139529538Y-95646385D01*
X139537336Y-95650464D01*
X139537338Y-95650465D01*
X139540863Y-95651500D01*
X139591369Y-95686037D01*
X139611929Y-95743664D01*
X139608596Y-95772109D01*
X139604500Y-95787394D01*
X139604500Y-95787399D01*
X139604500Y-95912601D01*
X139636905Y-96033536D01*
X139699505Y-96141964D01*
X139788036Y-96230495D01*
X139895746Y-96292680D01*
X139936688Y-96338149D01*
X139943084Y-96399000D01*
X139916251Y-96448421D01*
X138489532Y-97875141D01*
X138489531Y-97875142D01*
X138446683Y-97949356D01*
X138438179Y-97981093D01*
X138427887Y-98019505D01*
X138427887Y-98019506D01*
X138427886Y-98019505D01*
X138424500Y-98032143D01*
X137800500Y-98032143D01*
X137800500Y-90434108D01*
X138699500Y-90434108D01*
X138699500Y-90565892D01*
X138709844Y-90604496D01*
X138733609Y-90693190D01*
X138799496Y-90807309D01*
X138799498Y-90807311D01*
X138799500Y-90807314D01*
X138892686Y-90900500D01*
X138892688Y-90900501D01*
X138892690Y-90900503D01*
X139006810Y-90966390D01*
X139006808Y-90966390D01*
X139006812Y-90966391D01*
X139006814Y-90966392D01*
X139134108Y-91000500D01*
X139134110Y-91000500D01*
X139265890Y-91000500D01*
X139265892Y-91000500D01*
X139393186Y-90966392D01*
X139393188Y-90966390D01*
X139393190Y-90966390D01*
X139507309Y-90900503D01*
X139507309Y-90900502D01*
X139507314Y-90900500D01*
X139600500Y-90807314D01*
X139666392Y-90693186D01*
X139700500Y-90565892D01*
X139700500Y-90434108D01*
X139679362Y-90355219D01*
X139682565Y-90294119D01*
X139721070Y-90246569D01*
X139780170Y-90230734D01*
X139824489Y-90243862D01*
X139906810Y-90291390D01*
X139906808Y-90291390D01*
X139906812Y-90291391D01*
X139906814Y-90291392D01*
X140034108Y-90325500D01*
X140034110Y-90325500D01*
X140165890Y-90325500D01*
X140165892Y-90325500D01*
X140293186Y-90291392D01*
X140293188Y-90291390D01*
X140293190Y-90291390D01*
X140407309Y-90225503D01*
X140407309Y-90225502D01*
X140407314Y-90225500D01*
X140500500Y-90132314D01*
X140566392Y-90018186D01*
X140600500Y-89890892D01*
X140600500Y-89759108D01*
X140566392Y-89631814D01*
X140566390Y-89631811D01*
X140566390Y-89631809D01*
X140500503Y-89517690D01*
X140500501Y-89517688D01*
X140500500Y-89517686D01*
X140407314Y-89424500D01*
X140407311Y-89424498D01*
X140407309Y-89424496D01*
X140293189Y-89358609D01*
X140293191Y-89358609D01*
X140243799Y-89345375D01*
X140165892Y-89324500D01*
X140034108Y-89324500D01*
X139956200Y-89345375D01*
X139906809Y-89358609D01*
X139792690Y-89424496D01*
X139699496Y-89517690D01*
X139633609Y-89631809D01*
X139633608Y-89631814D01*
X139601807Y-89750500D01*
X139599500Y-89759109D01*
X139599500Y-89890891D01*
X139620637Y-89969779D01*
X139617434Y-90030880D01*
X139578928Y-90078430D01*
X139519828Y-90094265D01*
X139475510Y-90081137D01*
X139393189Y-90033609D01*
X139393191Y-90033609D01*
X139343799Y-90020375D01*
X139265892Y-89999500D01*
X139134108Y-89999500D01*
X139056200Y-90020375D01*
X139006809Y-90033609D01*
X138892690Y-90099496D01*
X138799496Y-90192690D01*
X138733609Y-90306809D01*
X138717298Y-90367686D01*
X138699500Y-90434108D01*
X137800500Y-90434108D01*
X137800500Y-88504883D01*
X137800530Y-88502459D01*
X137801974Y-88443511D01*
X137803846Y-88426621D01*
X137827793Y-88306230D01*
X137833427Y-88287658D01*
X137878517Y-88178799D01*
X137887657Y-88161699D01*
X137953119Y-88063729D01*
X137965417Y-88048743D01*
X138048739Y-87965421D01*
X138063731Y-87953118D01*
X138161703Y-87887656D01*
X138178806Y-87878515D01*
X138287664Y-87833424D01*
X138306224Y-87827793D01*
X138426623Y-87803845D01*
X138443508Y-87801974D01*
X138495357Y-87800703D01*
X138502459Y-87800530D01*
X138504883Y-87800500D01*
X146751000Y-87800500D01*
X146809191Y-87819407D01*
G37*
%TD.AperFunction*%
%TD*%
M02*
