%TF.GenerationSoftware,KiCad,Pcbnew,9.0.1*%
%TF.CreationDate,2025-12-15T21:38:02-06:00*%
%TF.ProjectId,ProtoCore_v1,50726f74-6f43-46f7-9265-5f76312e6b69,rev?*%
%TF.SameCoordinates,Original*%
%TF.FileFunction,Soldermask,Top*%
%TF.FilePolarity,Negative*%
%FSLAX46Y46*%
G04 Gerber Fmt 4.6, Leading zero omitted, Abs format (unit mm)*
G04 Created by KiCad (PCBNEW 9.0.1) date 2025-12-15 21:38:02*
%MOMM*%
%LPD*%
G01*
G04 APERTURE LIST*
G04 Aperture macros list*
%AMRoundRect*
0 Rectangle with rounded corners*
0 $1 Rounding radius*
0 $2 $3 $4 $5 $6 $7 $8 $9 X,Y pos of 4 corners*
0 Add a 4 corners polygon primitive as box body*
4,1,4,$2,$3,$4,$5,$6,$7,$8,$9,$2,$3,0*
0 Add four circle primitives for the rounded corners*
1,1,$1+$1,$2,$3*
1,1,$1+$1,$4,$5*
1,1,$1+$1,$6,$7*
1,1,$1+$1,$8,$9*
0 Add four rect primitives between the rounded corners*
20,1,$1+$1,$2,$3,$4,$5,0*
20,1,$1+$1,$4,$5,$6,$7,0*
20,1,$1+$1,$6,$7,$8,$9,0*
20,1,$1+$1,$8,$9,$2,$3,0*%
G04 Aperture macros list end*
%ADD10C,0.000000*%
%ADD11C,0.010000*%
%ADD12C,0.100000*%
%ADD13R,0.580000X0.730000*%
%ADD14RoundRect,0.082500X-0.192500X0.197500X-0.192500X-0.197500X0.192500X-0.197500X0.192500X0.197500X0*%
%ADD15R,0.246234X0.804110*%
%ADD16R,0.246236X0.804111*%
%ADD17R,0.242472X0.804111*%
%ADD18R,0.246232X0.804111*%
%ADD19RoundRect,0.076500X0.243500X-0.178500X0.243500X0.178500X-0.243500X0.178500X-0.243500X-0.178500X0*%
%ADD20RoundRect,0.082500X0.197500X0.192500X-0.197500X0.192500X-0.197500X-0.192500X0.197500X-0.192500X0*%
%ADD21RoundRect,0.082500X0.192500X-0.197500X0.192500X0.197500X-0.192500X0.197500X-0.192500X-0.197500X0*%
%ADD22RoundRect,0.076500X-0.243500X0.178500X-0.243500X-0.178500X0.243500X-0.178500X0.243500X0.178500X0*%
%ADD23RoundRect,0.082500X-0.197500X-0.192500X0.197500X-0.192500X0.197500X0.192500X-0.197500X0.192500X0*%
%ADD24RoundRect,0.076500X0.178500X0.243500X-0.178500X0.243500X-0.178500X-0.243500X0.178500X-0.243500X0*%
%ADD25C,0.600000*%
%ADD26RoundRect,0.102000X-0.650000X0.375000X-0.650000X-0.375000X0.650000X-0.375000X0.650000X0.375000X0*%
%ADD27R,1.800000X0.800000*%
%ADD28C,0.290000*%
%ADD29RoundRect,0.125000X-0.250000X-0.125000X0.250000X-0.125000X0.250000X0.125000X-0.250000X0.125000X0*%
%ADD30R,3.000000X3.750000*%
%ADD31RoundRect,0.123750X-0.288750X-0.338750X0.288750X-0.338750X0.288750X0.338750X-0.288750X0.338750X0*%
%ADD32RoundRect,0.123750X-0.288750X-0.351250X0.288750X-0.351250X0.288750X0.351250X-0.288750X0.351250X0*%
%ADD33RoundRect,0.123750X0.288750X0.338750X-0.288750X0.338750X-0.288750X-0.338750X0.288750X-0.338750X0*%
%ADD34RoundRect,0.123750X0.288750X0.351250X-0.288750X0.351250X-0.288750X-0.351250X0.288750X-0.351250X0*%
%ADD35RoundRect,0.076500X-0.178500X-0.243500X0.178500X-0.243500X0.178500X0.243500X-0.178500X0.243500X0*%
%ADD36RoundRect,0.135000X0.540000X-0.315000X0.540000X0.315000X-0.540000X0.315000X-0.540000X-0.315000X0*%
%ADD37RoundRect,0.087500X-0.225000X-0.087500X0.225000X-0.087500X0.225000X0.087500X-0.225000X0.087500X0*%
%ADD38RoundRect,0.087500X-0.087500X-0.225000X0.087500X-0.225000X0.087500X0.225000X-0.087500X0.225000X0*%
%ADD39RoundRect,0.055000X-0.240000X-0.220000X0.240000X-0.220000X0.240000X0.220000X-0.240000X0.220000X0*%
%ADD40R,0.200000X0.600000*%
%ADD41R,0.200000X1.600000*%
%ADD42RoundRect,0.056250X0.143750X-0.131250X0.143750X0.131250X-0.143750X0.131250X-0.143750X-0.131250X0*%
%ADD43R,1.600000X1.000000*%
%ADD44R,0.275000X0.250000*%
%ADD45R,0.250000X0.275000*%
%ADD46RoundRect,0.135000X-0.540000X0.315000X-0.540000X-0.315000X0.540000X-0.315000X0.540000X0.315000X0*%
%ADD47RoundRect,0.135000X-0.315000X-0.540000X0.315000X-0.540000X0.315000X0.540000X-0.315000X0.540000X0*%
%ADD48RoundRect,0.102000X0.750000X0.300000X-0.750000X0.300000X-0.750000X-0.300000X0.750000X-0.300000X0*%
G04 APERTURE END LIST*
D10*
G36*
X146850000Y-88725000D02*
G01*
X142797500Y-88725000D01*
X139025000Y-88725000D01*
X138990000Y-88730000D01*
X138930000Y-88750000D01*
X138825000Y-88825000D01*
X138750000Y-88930000D01*
X138730000Y-88990000D01*
X138725000Y-89025000D01*
X138725000Y-110975000D01*
X138737642Y-111034148D01*
X138782912Y-111143440D01*
X138866560Y-111227088D01*
X138975852Y-111272358D01*
X139035000Y-111275000D01*
X160985000Y-111275000D01*
X161044148Y-111272358D01*
X161153440Y-111227088D01*
X161237088Y-111143440D01*
X161282358Y-111034148D01*
X161285000Y-110975000D01*
X161285000Y-89025000D01*
X161280000Y-88990000D01*
X161260000Y-88930000D01*
X161185000Y-88825000D01*
X161080000Y-88750000D01*
X161020000Y-88730000D01*
X160985000Y-88725000D01*
X153160000Y-88725000D01*
X153160000Y-87800000D01*
X161560000Y-87800000D01*
X161740000Y-87840000D01*
X161910000Y-87930000D01*
X162050000Y-88060000D01*
X162130000Y-88190000D01*
X162180000Y-88320000D01*
X162200000Y-88440000D01*
X162200000Y-111560000D01*
X162170000Y-111710000D01*
X162120000Y-111830000D01*
X162040000Y-111950000D01*
X161940000Y-112040000D01*
X161830000Y-112120000D01*
X161700000Y-112170000D01*
X161520000Y-112200000D01*
X138440000Y-112200000D01*
X138300000Y-112170000D01*
X138190000Y-112130000D01*
X138100000Y-112070000D01*
X138030000Y-112020000D01*
X137940000Y-111920000D01*
X137890000Y-111850000D01*
X137820000Y-111670000D01*
X137800000Y-111550000D01*
X137800000Y-88430000D01*
X137840000Y-88260000D01*
X137920000Y-88110000D01*
X138000000Y-88010000D01*
X138140000Y-87900000D01*
X138290000Y-87830000D01*
X138440000Y-87800000D01*
X146850000Y-87800000D01*
X146850000Y-88725000D01*
G37*
D11*
X153775000Y-91050000D02*
X146075000Y-91050000D01*
X146075000Y-90500000D01*
X153150000Y-90500000D01*
X153150000Y-88350000D01*
X153775000Y-88350000D01*
X153775000Y-91050000D01*
G36*
X153775000Y-91050000D02*
G01*
X146075000Y-91050000D01*
X146075000Y-90500000D01*
X153150000Y-90500000D01*
X153150000Y-88350000D01*
X153775000Y-88350000D01*
X153775000Y-91050000D01*
G37*
X146850000Y-91050000D02*
X145875000Y-91050000D01*
X145875000Y-90175000D01*
X146850000Y-90175000D01*
X146850000Y-91050000D01*
G36*
X146850000Y-91050000D02*
G01*
X145875000Y-91050000D01*
X145875000Y-90175000D01*
X146850000Y-90175000D01*
X146850000Y-91050000D01*
G37*
D12*
X161450000Y-105750000D02*
X154900000Y-105750347D01*
X154900000Y-111300000D01*
X154377476Y-111300000D01*
X154377476Y-105250000D01*
X161450000Y-105250000D01*
X161450000Y-105750000D01*
G36*
X161450000Y-105750000D02*
G01*
X154900000Y-105750347D01*
X154900000Y-111300000D01*
X154377476Y-111300000D01*
X154377476Y-105250000D01*
X161450000Y-105250000D01*
X161450000Y-105750000D01*
G37*
D11*
%TO.C,U1*%
X142685699Y-98294203D02*
X142459425Y-98520477D01*
X141794744Y-97855797D01*
X142021018Y-97629523D01*
X142685699Y-98294203D01*
G36*
X142685699Y-98294203D02*
G01*
X142459425Y-98520477D01*
X141794744Y-97855797D01*
X142021018Y-97629523D01*
X142685699Y-98294203D01*
G37*
X142968542Y-98011360D02*
X142742267Y-98237634D01*
X142077587Y-97572954D01*
X142303861Y-97346680D01*
X142968542Y-98011360D01*
G36*
X142968542Y-98011360D02*
G01*
X142742267Y-98237634D01*
X142077587Y-97572954D01*
X142303861Y-97346680D01*
X142968542Y-98011360D01*
G37*
X142685699Y-99036665D02*
X142021018Y-99701345D01*
X141794744Y-99475071D01*
X142459425Y-98810391D01*
X142685699Y-99036665D01*
G36*
X142685699Y-99036665D02*
G01*
X142021018Y-99701345D01*
X141794744Y-99475071D01*
X142459425Y-98810391D01*
X142685699Y-99036665D01*
G37*
X143251384Y-97728518D02*
X143025110Y-97954792D01*
X142360430Y-97290111D01*
X142586704Y-97063837D01*
X143251384Y-97728518D01*
G36*
X143251384Y-97728518D02*
G01*
X143025110Y-97954792D01*
X142360430Y-97290111D01*
X142586704Y-97063837D01*
X143251384Y-97728518D01*
G37*
X142968542Y-99319508D02*
X142303861Y-99984188D01*
X142077587Y-99757914D01*
X142742267Y-99093234D01*
X142968542Y-99319508D01*
G36*
X142968542Y-99319508D02*
G01*
X142303861Y-99984188D01*
X142077587Y-99757914D01*
X142742267Y-99093234D01*
X142968542Y-99319508D01*
G37*
X143534227Y-97445675D02*
X143307953Y-97671949D01*
X142643272Y-97007269D01*
X142869547Y-96780994D01*
X143534227Y-97445675D01*
G36*
X143534227Y-97445675D02*
G01*
X143307953Y-97671949D01*
X142643272Y-97007269D01*
X142869547Y-96780994D01*
X143534227Y-97445675D01*
G37*
X143251384Y-99602350D02*
X142586704Y-100267031D01*
X142360430Y-100040757D01*
X143025110Y-99376076D01*
X143251384Y-99602350D01*
G36*
X143251384Y-99602350D02*
G01*
X142586704Y-100267031D01*
X142360430Y-100040757D01*
X143025110Y-99376076D01*
X143251384Y-99602350D01*
G37*
X143817070Y-97162832D02*
X143590796Y-97389106D01*
X142926115Y-96724426D01*
X143152389Y-96498152D01*
X143817070Y-97162832D01*
G36*
X143817070Y-97162832D02*
G01*
X143590796Y-97389106D01*
X142926115Y-96724426D01*
X143152389Y-96498152D01*
X143817070Y-97162832D01*
G37*
X143534227Y-99885193D02*
X142869547Y-100549874D01*
X142643272Y-100323599D01*
X143307953Y-99658919D01*
X143534227Y-99885193D01*
G36*
X143534227Y-99885193D02*
G01*
X142869547Y-100549874D01*
X142643272Y-100323599D01*
X143307953Y-99658919D01*
X143534227Y-99885193D01*
G37*
X144099912Y-96879989D02*
X143873638Y-97106264D01*
X143208958Y-96441583D01*
X143435232Y-96215309D01*
X144099912Y-96879989D01*
G36*
X144099912Y-96879989D02*
G01*
X143873638Y-97106264D01*
X143208958Y-96441583D01*
X143435232Y-96215309D01*
X144099912Y-96879989D01*
G37*
X143817070Y-100168036D02*
X143152389Y-100832716D01*
X142926115Y-100606442D01*
X143590796Y-99941762D01*
X143817070Y-100168036D01*
G36*
X143817070Y-100168036D02*
G01*
X143152389Y-100832716D01*
X142926115Y-100606442D01*
X143590796Y-99941762D01*
X143817070Y-100168036D01*
G37*
X144382755Y-96597147D02*
X144156481Y-96823421D01*
X143491801Y-96158740D01*
X143718075Y-95932466D01*
X144382755Y-96597147D01*
G36*
X144382755Y-96597147D02*
G01*
X144156481Y-96823421D01*
X143491801Y-96158740D01*
X143718075Y-95932466D01*
X144382755Y-96597147D01*
G37*
X144099912Y-100450879D02*
X143435232Y-101115559D01*
X143208958Y-100889285D01*
X143873638Y-100224604D01*
X144099912Y-100450879D01*
G36*
X144099912Y-100450879D02*
G01*
X143435232Y-101115559D01*
X143208958Y-100889285D01*
X143873638Y-100224604D01*
X144099912Y-100450879D01*
G37*
X144665598Y-96314304D02*
X144439324Y-96540578D01*
X143774643Y-95875898D01*
X144000917Y-95649624D01*
X144665598Y-96314304D01*
G36*
X144665598Y-96314304D02*
G01*
X144439324Y-96540578D01*
X143774643Y-95875898D01*
X144000917Y-95649624D01*
X144665598Y-96314304D01*
G37*
X144382755Y-100733721D02*
X143718075Y-101398402D01*
X143491801Y-101172128D01*
X144156481Y-100507447D01*
X144382755Y-100733721D01*
G36*
X144382755Y-100733721D02*
G01*
X143718075Y-101398402D01*
X143491801Y-101172128D01*
X144156481Y-100507447D01*
X144382755Y-100733721D01*
G37*
X144948441Y-96031461D02*
X144722166Y-96257735D01*
X144057486Y-95593055D01*
X144283760Y-95366781D01*
X144948441Y-96031461D01*
G36*
X144948441Y-96031461D02*
G01*
X144722166Y-96257735D01*
X144057486Y-95593055D01*
X144283760Y-95366781D01*
X144948441Y-96031461D01*
G37*
X144665598Y-101016564D02*
X144000917Y-101681244D01*
X143774643Y-101454970D01*
X144439324Y-100790290D01*
X144665598Y-101016564D01*
G36*
X144665598Y-101016564D02*
G01*
X144000917Y-101681244D01*
X143774643Y-101454970D01*
X144439324Y-100790290D01*
X144665598Y-101016564D01*
G37*
X145231283Y-95748619D02*
X145005009Y-95974893D01*
X144340329Y-95310212D01*
X144566603Y-95083938D01*
X145231283Y-95748619D01*
G36*
X145231283Y-95748619D02*
G01*
X145005009Y-95974893D01*
X144340329Y-95310212D01*
X144566603Y-95083938D01*
X145231283Y-95748619D01*
G37*
X144948441Y-101299407D02*
X144283760Y-101964087D01*
X144057486Y-101737813D01*
X144722166Y-101073133D01*
X144948441Y-101299407D01*
G36*
X144948441Y-101299407D02*
G01*
X144283760Y-101964087D01*
X144057486Y-101737813D01*
X144722166Y-101073133D01*
X144948441Y-101299407D01*
G37*
X145514126Y-95465776D02*
X145287852Y-95692050D01*
X144623171Y-95027370D01*
X144849446Y-94801095D01*
X145514126Y-95465776D01*
G36*
X145514126Y-95465776D02*
G01*
X145287852Y-95692050D01*
X144623171Y-95027370D01*
X144849446Y-94801095D01*
X145514126Y-95465776D01*
G37*
X145231283Y-101582249D02*
X144566603Y-102246930D01*
X144340329Y-102020656D01*
X145005009Y-101355975D01*
X145231283Y-101582249D01*
G36*
X145231283Y-101582249D02*
G01*
X144566603Y-102246930D01*
X144340329Y-102020656D01*
X145005009Y-101355975D01*
X145231283Y-101582249D01*
G37*
X145796969Y-95182933D02*
X145570695Y-95409207D01*
X144906014Y-94744527D01*
X145132288Y-94518253D01*
X145796969Y-95182933D01*
G36*
X145796969Y-95182933D02*
G01*
X145570695Y-95409207D01*
X144906014Y-94744527D01*
X145132288Y-94518253D01*
X145796969Y-95182933D01*
G37*
X145514126Y-101865092D02*
X144849446Y-102529773D01*
X144623171Y-102303498D01*
X145287852Y-101638818D01*
X145514126Y-101865092D01*
G36*
X145514126Y-101865092D02*
G01*
X144849446Y-102529773D01*
X144623171Y-102303498D01*
X145287852Y-101638818D01*
X145514126Y-101865092D01*
G37*
X146079811Y-94900090D02*
X145853537Y-95126365D01*
X145188857Y-94461684D01*
X145415131Y-94235410D01*
X146079811Y-94900090D01*
G36*
X146079811Y-94900090D02*
G01*
X145853537Y-95126365D01*
X145188857Y-94461684D01*
X145415131Y-94235410D01*
X146079811Y-94900090D01*
G37*
X145796969Y-102147935D02*
X145132288Y-102812615D01*
X144906014Y-102586341D01*
X145570695Y-101921661D01*
X145796969Y-102147935D01*
G36*
X145796969Y-102147935D02*
G01*
X145132288Y-102812615D01*
X144906014Y-102586341D01*
X145570695Y-101921661D01*
X145796969Y-102147935D01*
G37*
X146362654Y-94617248D02*
X146136380Y-94843522D01*
X145471700Y-94178841D01*
X145697974Y-93952567D01*
X146362654Y-94617248D01*
G36*
X146362654Y-94617248D02*
G01*
X146136380Y-94843522D01*
X145471700Y-94178841D01*
X145697974Y-93952567D01*
X146362654Y-94617248D01*
G37*
X146079811Y-102430778D02*
X145415131Y-103095458D01*
X145188857Y-102869184D01*
X145853537Y-102204503D01*
X146079811Y-102430778D01*
G36*
X146079811Y-102430778D02*
G01*
X145415131Y-103095458D01*
X145188857Y-102869184D01*
X145853537Y-102204503D01*
X146079811Y-102430778D01*
G37*
X146362654Y-102713620D02*
X145697974Y-103378301D01*
X145471700Y-103152027D01*
X146136380Y-102487346D01*
X146362654Y-102713620D01*
G36*
X146362654Y-102713620D02*
G01*
X145697974Y-103378301D01*
X145471700Y-103152027D01*
X146136380Y-102487346D01*
X146362654Y-102713620D01*
G37*
X149336038Y-98665434D02*
X146507611Y-101493861D01*
X143679184Y-98665434D01*
X146507611Y-95837007D01*
X149336038Y-98665434D01*
G36*
X149336038Y-98665434D02*
G01*
X146507611Y-101493861D01*
X143679184Y-98665434D01*
X146507611Y-95837007D01*
X149336038Y-98665434D01*
G37*
X147543522Y-103152027D02*
X147317248Y-103378301D01*
X146652568Y-102713620D01*
X146878842Y-102487346D01*
X147543522Y-103152027D01*
G36*
X147543522Y-103152027D02*
G01*
X147317248Y-103378301D01*
X146652568Y-102713620D01*
X146878842Y-102487346D01*
X147543522Y-103152027D01*
G37*
X147826365Y-102869184D02*
X147600091Y-103095458D01*
X146935411Y-102430778D01*
X147161685Y-102204503D01*
X147826365Y-102869184D01*
G36*
X147826365Y-102869184D02*
G01*
X147600091Y-103095458D01*
X146935411Y-102430778D01*
X147161685Y-102204503D01*
X147826365Y-102869184D01*
G37*
X147543522Y-94178841D02*
X146878842Y-94843522D01*
X146652568Y-94617248D01*
X147317248Y-93952567D01*
X147543522Y-94178841D01*
G36*
X147543522Y-94178841D02*
G01*
X146878842Y-94843522D01*
X146652568Y-94617248D01*
X147317248Y-93952567D01*
X147543522Y-94178841D01*
G37*
X148109208Y-102586341D02*
X147882934Y-102812615D01*
X147218253Y-102147935D01*
X147444527Y-101921661D01*
X148109208Y-102586341D01*
G36*
X148109208Y-102586341D02*
G01*
X147882934Y-102812615D01*
X147218253Y-102147935D01*
X147444527Y-101921661D01*
X148109208Y-102586341D01*
G37*
X147826365Y-94461684D02*
X147161685Y-95126365D01*
X146935411Y-94900090D01*
X147600091Y-94235410D01*
X147826365Y-94461684D01*
G36*
X147826365Y-94461684D02*
G01*
X147161685Y-95126365D01*
X146935411Y-94900090D01*
X147600091Y-94235410D01*
X147826365Y-94461684D01*
G37*
X148392051Y-102303498D02*
X148165776Y-102529773D01*
X147501096Y-101865092D01*
X147727370Y-101638818D01*
X148392051Y-102303498D01*
G36*
X148392051Y-102303498D02*
G01*
X148165776Y-102529773D01*
X147501096Y-101865092D01*
X147727370Y-101638818D01*
X148392051Y-102303498D01*
G37*
X148109208Y-94744527D02*
X147444527Y-95409207D01*
X147218253Y-95182933D01*
X147882934Y-94518253D01*
X148109208Y-94744527D01*
G36*
X148109208Y-94744527D02*
G01*
X147444527Y-95409207D01*
X147218253Y-95182933D01*
X147882934Y-94518253D01*
X148109208Y-94744527D01*
G37*
X148674893Y-102020656D02*
X148448619Y-102246930D01*
X147783939Y-101582249D01*
X148010213Y-101355975D01*
X148674893Y-102020656D01*
G36*
X148674893Y-102020656D02*
G01*
X148448619Y-102246930D01*
X147783939Y-101582249D01*
X148010213Y-101355975D01*
X148674893Y-102020656D01*
G37*
X148392051Y-95027370D02*
X147727370Y-95692050D01*
X147501096Y-95465776D01*
X148165776Y-94801095D01*
X148392051Y-95027370D01*
G36*
X148392051Y-95027370D02*
G01*
X147727370Y-95692050D01*
X147501096Y-95465776D01*
X148165776Y-94801095D01*
X148392051Y-95027370D01*
G37*
X148957736Y-101737813D02*
X148731462Y-101964087D01*
X148066781Y-101299407D01*
X148293056Y-101073133D01*
X148957736Y-101737813D01*
G36*
X148957736Y-101737813D02*
G01*
X148731462Y-101964087D01*
X148066781Y-101299407D01*
X148293056Y-101073133D01*
X148957736Y-101737813D01*
G37*
X148674893Y-95310212D02*
X148010213Y-95974893D01*
X147783939Y-95748619D01*
X148448619Y-95083938D01*
X148674893Y-95310212D01*
G36*
X148674893Y-95310212D02*
G01*
X148010213Y-95974893D01*
X147783939Y-95748619D01*
X148448619Y-95083938D01*
X148674893Y-95310212D01*
G37*
X149240579Y-101454970D02*
X149014305Y-101681244D01*
X148349624Y-101016564D01*
X148575898Y-100790290D01*
X149240579Y-101454970D01*
G36*
X149240579Y-101454970D02*
G01*
X149014305Y-101681244D01*
X148349624Y-101016564D01*
X148575898Y-100790290D01*
X149240579Y-101454970D01*
G37*
X148957736Y-95593055D02*
X148293056Y-96257735D01*
X148066781Y-96031461D01*
X148731462Y-95366781D01*
X148957736Y-95593055D01*
G36*
X148957736Y-95593055D02*
G01*
X148293056Y-96257735D01*
X148066781Y-96031461D01*
X148731462Y-95366781D01*
X148957736Y-95593055D01*
G37*
X149523421Y-101172128D02*
X149297147Y-101398402D01*
X148632467Y-100733721D01*
X148858741Y-100507447D01*
X149523421Y-101172128D01*
G36*
X149523421Y-101172128D02*
G01*
X149297147Y-101398402D01*
X148632467Y-100733721D01*
X148858741Y-100507447D01*
X149523421Y-101172128D01*
G37*
X149240579Y-95875898D02*
X148575898Y-96540578D01*
X148349624Y-96314304D01*
X149014305Y-95649624D01*
X149240579Y-95875898D01*
G36*
X149240579Y-95875898D02*
G01*
X148575898Y-96540578D01*
X148349624Y-96314304D01*
X149014305Y-95649624D01*
X149240579Y-95875898D01*
G37*
X149806264Y-100889285D02*
X149579990Y-101115559D01*
X148915310Y-100450879D01*
X149141584Y-100224604D01*
X149806264Y-100889285D01*
G36*
X149806264Y-100889285D02*
G01*
X149579990Y-101115559D01*
X148915310Y-100450879D01*
X149141584Y-100224604D01*
X149806264Y-100889285D01*
G37*
X149523421Y-96158740D02*
X148858741Y-96823421D01*
X148632467Y-96597147D01*
X149297147Y-95932466D01*
X149523421Y-96158740D01*
G36*
X149523421Y-96158740D02*
G01*
X148858741Y-96823421D01*
X148632467Y-96597147D01*
X149297147Y-95932466D01*
X149523421Y-96158740D01*
G37*
X150089107Y-100606442D02*
X149862833Y-100832716D01*
X149198152Y-100168036D01*
X149424426Y-99941762D01*
X150089107Y-100606442D01*
G36*
X150089107Y-100606442D02*
G01*
X149862833Y-100832716D01*
X149198152Y-100168036D01*
X149424426Y-99941762D01*
X150089107Y-100606442D01*
G37*
X149806264Y-96441583D02*
X149141584Y-97106264D01*
X148915310Y-96879989D01*
X149579990Y-96215309D01*
X149806264Y-96441583D01*
G36*
X149806264Y-96441583D02*
G01*
X149141584Y-97106264D01*
X148915310Y-96879989D01*
X149579990Y-96215309D01*
X149806264Y-96441583D01*
G37*
X150371950Y-100323599D02*
X150145675Y-100549874D01*
X149480995Y-99885193D01*
X149707269Y-99658919D01*
X150371950Y-100323599D01*
G36*
X150371950Y-100323599D02*
G01*
X150145675Y-100549874D01*
X149480995Y-99885193D01*
X149707269Y-99658919D01*
X150371950Y-100323599D01*
G37*
X150089107Y-96724426D02*
X149424426Y-97389106D01*
X149198152Y-97162832D01*
X149862833Y-96498152D01*
X150089107Y-96724426D01*
G36*
X150089107Y-96724426D02*
G01*
X149424426Y-97389106D01*
X149198152Y-97162832D01*
X149862833Y-96498152D01*
X150089107Y-96724426D01*
G37*
X150654792Y-100040757D02*
X150428518Y-100267031D01*
X149763838Y-99602350D01*
X149990112Y-99376076D01*
X150654792Y-100040757D01*
G36*
X150654792Y-100040757D02*
G01*
X150428518Y-100267031D01*
X149763838Y-99602350D01*
X149990112Y-99376076D01*
X150654792Y-100040757D01*
G37*
X150371950Y-97007269D02*
X149707269Y-97671949D01*
X149480995Y-97445675D01*
X150145675Y-96780994D01*
X150371950Y-97007269D01*
G36*
X150371950Y-97007269D02*
G01*
X149707269Y-97671949D01*
X149480995Y-97445675D01*
X150145675Y-96780994D01*
X150371950Y-97007269D01*
G37*
X150937635Y-99757914D02*
X150711361Y-99984188D01*
X150046680Y-99319508D01*
X150272955Y-99093234D01*
X150937635Y-99757914D01*
G36*
X150937635Y-99757914D02*
G01*
X150711361Y-99984188D01*
X150046680Y-99319508D01*
X150272955Y-99093234D01*
X150937635Y-99757914D01*
G37*
X150654792Y-97290111D02*
X149990112Y-97954792D01*
X149763838Y-97728518D01*
X150428518Y-97063837D01*
X150654792Y-97290111D01*
G36*
X150654792Y-97290111D02*
G01*
X149990112Y-97954792D01*
X149763838Y-97728518D01*
X150428518Y-97063837D01*
X150654792Y-97290111D01*
G37*
X151220478Y-99475071D02*
X150994204Y-99701345D01*
X150329523Y-99036665D01*
X150555797Y-98810391D01*
X151220478Y-99475071D01*
G36*
X151220478Y-99475071D02*
G01*
X150994204Y-99701345D01*
X150329523Y-99036665D01*
X150555797Y-98810391D01*
X151220478Y-99475071D01*
G37*
X150937635Y-97572954D02*
X150272955Y-98237634D01*
X150046680Y-98011360D01*
X150711361Y-97346680D01*
X150937635Y-97572954D01*
G36*
X150937635Y-97572954D02*
G01*
X150272955Y-98237634D01*
X150046680Y-98011360D01*
X150711361Y-97346680D01*
X150937635Y-97572954D01*
G37*
X151220478Y-97855797D02*
X150555797Y-98520477D01*
X150329523Y-98294203D01*
X150994204Y-97629523D01*
X151220478Y-97855797D01*
G36*
X151220478Y-97855797D02*
G01*
X150555797Y-98520477D01*
X150329523Y-98294203D01*
X150994204Y-97629523D01*
X151220478Y-97855797D01*
G37*
%TO.C,U2*%
X158175000Y-107975000D02*
X157425000Y-107975000D01*
X157425000Y-107675000D01*
X158175000Y-107675000D01*
X158175000Y-107975000D01*
G36*
X158175000Y-107975000D02*
G01*
X157425000Y-107975000D01*
X157425000Y-107675000D01*
X158175000Y-107675000D01*
X158175000Y-107975000D01*
G37*
X158175000Y-108475000D02*
X157425000Y-108475000D01*
X157425000Y-108175000D01*
X158175000Y-108175000D01*
X158175000Y-108475000D01*
G36*
X158175000Y-108475000D02*
G01*
X157425000Y-108475000D01*
X157425000Y-108175000D01*
X158175000Y-108175000D01*
X158175000Y-108475000D01*
G37*
X158175000Y-108975000D02*
X157425000Y-108975000D01*
X157425000Y-108675000D01*
X158175000Y-108675000D01*
X158175000Y-108975000D01*
G36*
X158175000Y-108975000D02*
G01*
X157425000Y-108975000D01*
X157425000Y-108675000D01*
X158175000Y-108675000D01*
X158175000Y-108975000D01*
G37*
X158100000Y-107475000D02*
X157750000Y-107475000D01*
X157750000Y-106825000D01*
X158100000Y-106825000D01*
X158100000Y-107475000D01*
G36*
X158100000Y-107475000D02*
G01*
X157750000Y-107475000D01*
X157750000Y-106825000D01*
X158100000Y-106825000D01*
X158100000Y-107475000D01*
G37*
X158600000Y-107475000D02*
X158250000Y-107475000D01*
X158250000Y-106825000D01*
X158600000Y-106825000D01*
X158600000Y-107475000D01*
G36*
X158600000Y-107475000D02*
G01*
X158250000Y-107475000D01*
X158250000Y-106825000D01*
X158600000Y-106825000D01*
X158600000Y-107475000D01*
G37*
X159425000Y-107975000D02*
X158325000Y-107975000D01*
X158325000Y-107675000D01*
X159425000Y-107675000D01*
X159425000Y-107975000D01*
G36*
X159425000Y-107975000D02*
G01*
X158325000Y-107975000D01*
X158325000Y-107675000D01*
X159425000Y-107675000D01*
X159425000Y-107975000D01*
G37*
X159425000Y-108975000D02*
X158325000Y-108975000D01*
X158325000Y-108675000D01*
X159425000Y-108675000D01*
X159425000Y-108975000D01*
G36*
X159425000Y-108975000D02*
G01*
X158325000Y-108975000D01*
X158325000Y-108675000D01*
X159425000Y-108675000D01*
X159425000Y-108975000D01*
G37*
X159425000Y-108475000D02*
X158675000Y-108475000D01*
X158675000Y-108175000D01*
X159425000Y-108175000D01*
X159425000Y-108475000D01*
G36*
X159425000Y-108475000D02*
G01*
X158675000Y-108475000D01*
X158675000Y-108175000D01*
X159425000Y-108175000D01*
X159425000Y-108475000D01*
G37*
X159100000Y-107475000D02*
X158750000Y-107475000D01*
X158750000Y-106825000D01*
X159100000Y-106825000D01*
X159100000Y-107475000D01*
G36*
X159100000Y-107475000D02*
G01*
X158750000Y-107475000D01*
X158750000Y-106825000D01*
X159100000Y-106825000D01*
X159100000Y-107475000D01*
G37*
%TD*%
D13*
%TO.C,Y2*%
X151650000Y-93512500D03*
X151650000Y-94512500D03*
X152350000Y-94512500D03*
X152350000Y-93512500D03*
%TD*%
D14*
%TO.C,C37*%
X143175000Y-109327500D03*
X143175000Y-110287500D03*
%TD*%
D15*
%TO.C,U4*%
X139261883Y-97775444D03*
D16*
X139761882Y-97775444D03*
D17*
X140259999Y-97775444D03*
D16*
X140261881Y-96729556D03*
X139761882Y-96729556D03*
D18*
X139261884Y-96729556D03*
%TD*%
D19*
%TO.C,R4*%
X143400000Y-105240000D03*
X143400000Y-104250000D03*
%TD*%
D20*
%TO.C,C31*%
X153025000Y-98950000D03*
X152065000Y-98950000D03*
%TD*%
D14*
%TO.C,C3*%
X150790000Y-93712500D03*
X150790000Y-94672500D03*
%TD*%
D21*
%TO.C,C26*%
X151975000Y-106575000D03*
X151975000Y-105615000D03*
%TD*%
D22*
%TO.C,R7*%
X154000000Y-94580000D03*
X154000000Y-95570000D03*
%TD*%
D14*
%TO.C,C40*%
X141469098Y-109327500D03*
X141469098Y-110287500D03*
%TD*%
D23*
%TO.C,C9*%
X152040000Y-96350000D03*
X153000000Y-96350000D03*
%TD*%
D14*
%TO.C,C25*%
X139425000Y-104825000D03*
X139425000Y-105785000D03*
%TD*%
D24*
%TO.C,R22*%
X153015000Y-98100000D03*
X152025000Y-98100000D03*
%TD*%
D19*
%TO.C,R3*%
X142475000Y-105240000D03*
X142475000Y-104250000D03*
%TD*%
D22*
%TO.C,R15*%
X139180000Y-94860000D03*
X139180000Y-95850000D03*
%TD*%
D14*
%TO.C,C11*%
X147175000Y-104265000D03*
X147175000Y-105225000D03*
%TD*%
D25*
%TO.C,TP9*%
X149375000Y-102700000D03*
%TD*%
D26*
%TO.C,Y1*%
X139625000Y-101250002D03*
X139625000Y-102700000D03*
%TD*%
D24*
%TO.C,R13*%
X156915000Y-107175000D03*
X155925000Y-107175000D03*
%TD*%
D21*
%TO.C,C5*%
X141575000Y-94075000D03*
X141575000Y-93115000D03*
%TD*%
%TO.C,C29*%
X156650000Y-95575000D03*
X156650000Y-94615000D03*
%TD*%
D27*
%TO.C,L3*%
X156275000Y-108625001D03*
X156275000Y-110224999D03*
%TD*%
D23*
%TO.C,C13*%
X139165000Y-103675000D03*
X140125000Y-103675000D03*
%TD*%
D19*
%TO.C,R11*%
X149975000Y-105240000D03*
X149975000Y-104250000D03*
%TD*%
D21*
%TO.C,C8*%
X142400000Y-94075000D03*
X142400000Y-93115000D03*
%TD*%
D28*
%TO.C,U7*%
X154050000Y-97350000D03*
X154550000Y-97350000D03*
X155050000Y-97350000D03*
X155550000Y-97350000D03*
X156050000Y-97350000D03*
X156550000Y-97350000D03*
X157050000Y-97350000D03*
X158050000Y-97350000D03*
X158550000Y-97350000D03*
X159050000Y-97350000D03*
X159550000Y-97350000D03*
X160050000Y-97350000D03*
X160550000Y-97350000D03*
X154050000Y-97850000D03*
X154550000Y-97850000D03*
X155050000Y-97850000D03*
X155550000Y-97850000D03*
X156050000Y-97850000D03*
X156550000Y-97850000D03*
X157550000Y-97850000D03*
X158050000Y-97850000D03*
X158550000Y-97850000D03*
X159050000Y-97850000D03*
X159550000Y-97850000D03*
X160050000Y-97850000D03*
X160550000Y-97850000D03*
X154050000Y-98350000D03*
X154550000Y-98350000D03*
X155050000Y-98350000D03*
X155550000Y-98350000D03*
X156050000Y-98350000D03*
X156550000Y-98350000D03*
X157050000Y-97850000D03*
X157550000Y-97350000D03*
X157050000Y-98350000D03*
X157550000Y-98350000D03*
X158050000Y-98350000D03*
X158550000Y-98350000D03*
X159050000Y-98350000D03*
X159550000Y-98350000D03*
X160050000Y-98350000D03*
X160550000Y-98350000D03*
X154050000Y-98850000D03*
X154550000Y-98850000D03*
X155050000Y-98850000D03*
X155550000Y-98850000D03*
X159550000Y-98850000D03*
X160050000Y-98850000D03*
X160550000Y-98850000D03*
X154050000Y-99350000D03*
X154550000Y-99350000D03*
X155050000Y-99350000D03*
X156050000Y-99350000D03*
X156550000Y-99350000D03*
X157050000Y-99350000D03*
X157550000Y-99350000D03*
X158050000Y-99350000D03*
X158550000Y-99350000D03*
X159550000Y-99350000D03*
X160050000Y-99350000D03*
X160550000Y-99350000D03*
X154050000Y-99850000D03*
X154550000Y-99850000D03*
X155050000Y-99850000D03*
X156050000Y-99850000D03*
X158550000Y-99850000D03*
X159550000Y-99850000D03*
X160050000Y-99850000D03*
X160550000Y-99850000D03*
X154050000Y-100350000D03*
X154550000Y-100350000D03*
X155050000Y-100350000D03*
X156050000Y-100350000D03*
X158550000Y-100350000D03*
X159550000Y-100350000D03*
X160050000Y-100350000D03*
X160550000Y-100350000D03*
X154050000Y-100850000D03*
X154550000Y-100850000D03*
X155050000Y-100850000D03*
X156050000Y-100850000D03*
X158550000Y-100850000D03*
X159550000Y-100850000D03*
X160050000Y-100850000D03*
X160550000Y-100850000D03*
X156050000Y-101350000D03*
X158550000Y-101350000D03*
X159550000Y-101350000D03*
X160050000Y-101350000D03*
X160550000Y-101350000D03*
X154050000Y-101350000D03*
X154550000Y-101350000D03*
X155050000Y-101350000D03*
X156050000Y-101850000D03*
X156550000Y-101850000D03*
X157050000Y-101850000D03*
X157550000Y-101850000D03*
X158050000Y-101850000D03*
X158550000Y-101850000D03*
X159550000Y-101850000D03*
X160050000Y-101850000D03*
X160550000Y-101850000D03*
X159550000Y-102350000D03*
X160050000Y-102350000D03*
X160550000Y-102350000D03*
X154050000Y-102850000D03*
X154550000Y-102850000D03*
X155050000Y-102850000D03*
X155550000Y-102850000D03*
X154050000Y-102350000D03*
X154550000Y-102350000D03*
X155050000Y-102350000D03*
X156050000Y-102850000D03*
X154050000Y-101850000D03*
X154550000Y-101850000D03*
X155050000Y-101850000D03*
X156550000Y-102850000D03*
X157050000Y-102850000D03*
X157550000Y-102850000D03*
X158050000Y-102850000D03*
X158550000Y-102850000D03*
X159050000Y-102850000D03*
X159550000Y-102850000D03*
X160050000Y-102850000D03*
X160550000Y-102850000D03*
X154050000Y-103350000D03*
X154050000Y-103850000D03*
X154550000Y-103350000D03*
X155050000Y-103350000D03*
X155550000Y-103350000D03*
X156050000Y-103350000D03*
X156550000Y-103350000D03*
X157050000Y-103350000D03*
X157550000Y-103350000D03*
X158050000Y-103350000D03*
X158550000Y-103350000D03*
X159050000Y-103350000D03*
X159550000Y-103350000D03*
X160050000Y-103350000D03*
X160550000Y-103350000D03*
X154550000Y-103850000D03*
X155050000Y-103850000D03*
X155550000Y-103850000D03*
X156050000Y-103850000D03*
X156550000Y-103850000D03*
X157050000Y-103850000D03*
X157550000Y-103850000D03*
X158050000Y-103850000D03*
X158550000Y-103850000D03*
X159050000Y-103850000D03*
X159550000Y-103850000D03*
X160050000Y-103850000D03*
X160550000Y-103850000D03*
%TD*%
D20*
%TO.C,C15*%
X145400000Y-90530000D03*
X144440000Y-90530000D03*
%TD*%
D21*
%TO.C,C4*%
X140750000Y-94075000D03*
X140750000Y-93115000D03*
%TD*%
D25*
%TO.C,TP15*%
X151225000Y-101700000D03*
%TD*%
D29*
%TO.C,U6*%
X145650000Y-106645000D03*
X145650000Y-107915000D03*
X145650000Y-109185000D03*
X145650000Y-110455000D03*
X151050000Y-110455000D03*
X151050000Y-109185000D03*
X151050000Y-107915000D03*
X151050000Y-106645000D03*
D30*
X148350000Y-108550000D03*
%TD*%
D25*
%TO.C,TP8*%
X148875000Y-103375000D03*
%TD*%
D20*
%TO.C,C10*%
X142375000Y-101050000D03*
X141415000Y-101050000D03*
%TD*%
D14*
%TO.C,C39*%
X140619098Y-109327500D03*
X140619098Y-110287500D03*
%TD*%
D21*
%TO.C,C7*%
X149350000Y-93910000D03*
X149350000Y-92950000D03*
%TD*%
D31*
%TO.C,C27*%
X159200000Y-95337500D03*
D32*
X160675000Y-95350000D03*
%TD*%
D33*
%TO.C,C34*%
X152825000Y-104625000D03*
D34*
X151350000Y-104612500D03*
%TD*%
D25*
%TO.C,TP19*%
X139825000Y-109850000D03*
%TD*%
D20*
%TO.C,C33*%
X153025000Y-99750000D03*
X152065000Y-99750000D03*
%TD*%
D35*
%TO.C,R17*%
X152025000Y-102700000D03*
X153015000Y-102700000D03*
%TD*%
D36*
%TO.C,C1*%
X139575000Y-93900000D03*
X139575000Y-92100000D03*
%TD*%
D14*
%TO.C,C6*%
X146350000Y-104265000D03*
X146350000Y-105225000D03*
%TD*%
D23*
%TO.C,C24*%
X139160000Y-98670000D03*
X140120000Y-98670000D03*
%TD*%
%TO.C,C23*%
X139160000Y-99470000D03*
X140120000Y-99470000D03*
%TD*%
D22*
%TO.C,R9*%
X149050000Y-104250000D03*
X149050000Y-105240000D03*
%TD*%
D35*
%TO.C,R8*%
X152025000Y-101475000D03*
X153015000Y-101475000D03*
%TD*%
D25*
%TO.C,TP18*%
X150800000Y-105675000D03*
%TD*%
D14*
%TO.C,C35*%
X144025000Y-109327500D03*
X144025000Y-110287500D03*
%TD*%
D21*
%TO.C,C38*%
X157450000Y-95575000D03*
X157450000Y-94615000D03*
%TD*%
D14*
%TO.C,C22*%
X141020000Y-96600000D03*
X141020000Y-97560000D03*
%TD*%
D21*
%TO.C,C18*%
X152900000Y-106575000D03*
X152900000Y-105615000D03*
%TD*%
D37*
%TO.C,U8*%
X142087500Y-106762500D03*
X142087500Y-107262500D03*
X142087500Y-107762500D03*
X142087500Y-108262500D03*
D38*
X142750000Y-108425000D03*
X143250000Y-108425000D03*
X143750000Y-108425000D03*
D37*
X144412500Y-108262500D03*
X144412500Y-107762500D03*
X144412500Y-107262500D03*
X144412500Y-106762500D03*
D38*
X143750000Y-106600000D03*
X143250000Y-106600000D03*
X142750000Y-106600000D03*
%TD*%
D39*
%TO.C,L1*%
X141825000Y-94850000D03*
X142795000Y-94850000D03*
%TD*%
D14*
%TO.C,C21*%
X152525000Y-109915000D03*
X152525000Y-110875000D03*
%TD*%
D22*
%TO.C,R5*%
X144325000Y-104250000D03*
X144325000Y-105240000D03*
%TD*%
D14*
%TO.C,C28*%
X142319098Y-109327500D03*
X142319098Y-110287500D03*
%TD*%
D24*
%TO.C,R12*%
X156915000Y-106250000D03*
X155925000Y-106250000D03*
%TD*%
D21*
%TO.C,C12*%
X148550000Y-93910000D03*
X148550000Y-92950000D03*
%TD*%
D22*
%TO.C,R14*%
X140080000Y-94860000D03*
X140080000Y-95850000D03*
%TD*%
D40*
%TO.C,U5*%
X140300000Y-105812500D03*
D41*
X140700000Y-105312500D03*
D40*
X141100000Y-105812500D03*
X141100000Y-104812500D03*
X140300000Y-104812500D03*
%TD*%
D22*
%TO.C,R1*%
X140970000Y-94860000D03*
X140970000Y-95850000D03*
%TD*%
D20*
%TO.C,C16*%
X145410000Y-91350000D03*
X144450000Y-91350000D03*
%TD*%
D23*
%TO.C,C2*%
X139165000Y-100275000D03*
X140125000Y-100275000D03*
%TD*%
D39*
%TO.C,L2*%
X145410000Y-89700000D03*
X146380000Y-89700000D03*
%TD*%
D25*
%TO.C,TP11*%
X160675000Y-106225000D03*
%TD*%
%TO.C,TP20*%
X139300000Y-110725000D03*
%TD*%
D23*
%TO.C,C14*%
X151521250Y-95443750D03*
X152481250Y-95443750D03*
%TD*%
D42*
%TO.C,U3*%
X152275000Y-109187500D03*
X152925000Y-109187500D03*
X153575000Y-109187500D03*
X153575000Y-107412500D03*
X152925000Y-107412500D03*
X152275000Y-107412500D03*
D43*
X152925000Y-108300000D03*
%TD*%
D14*
%TO.C,C19*%
X153350000Y-109915000D03*
X153350000Y-110875000D03*
%TD*%
D44*
%TO.C,U10*%
X140932098Y-107925500D03*
X140932098Y-107425500D03*
D45*
X140669098Y-106913500D03*
X140169098Y-106913500D03*
X139669098Y-106913500D03*
D44*
X139406098Y-107425500D03*
X139406098Y-107925500D03*
D45*
X139669098Y-108437500D03*
X140169098Y-108437500D03*
X140669098Y-108437500D03*
%TD*%
D21*
%TO.C,C32*%
X158250000Y-95575000D03*
X158250000Y-94615000D03*
%TD*%
D24*
%TO.C,R21*%
X153015000Y-97200000D03*
X152025000Y-97200000D03*
%TD*%
D25*
%TO.C,TP14*%
X151150000Y-100850000D03*
%TD*%
D22*
%TO.C,R6*%
X145250000Y-104250000D03*
X145250000Y-105240000D03*
%TD*%
D19*
%TO.C,R20*%
X154900000Y-95575000D03*
X154900000Y-94585000D03*
%TD*%
D24*
%TO.C,R10*%
X158690000Y-106250000D03*
X157700000Y-106250000D03*
%TD*%
D46*
%TO.C,C17*%
X160350000Y-107220000D03*
X160350000Y-109020000D03*
%TD*%
D47*
%TO.C,C20*%
X157875000Y-110350000D03*
X159675000Y-110350000D03*
%TD*%
D14*
%TO.C,C30*%
X153825000Y-105615000D03*
X153825000Y-106575000D03*
%TD*%
D22*
%TO.C,R2*%
X155800000Y-94585000D03*
X155800000Y-95575000D03*
%TD*%
D35*
%TO.C,R19*%
X152025000Y-100575000D03*
X153015000Y-100575000D03*
%TD*%
D48*
%TO.C,ANT1*%
X148250000Y-89700000D03*
X151750000Y-89700000D03*
X151750000Y-88100000D03*
X148250000Y-88100000D03*
%TD*%
M02*
