%TF.GenerationSoftware,KiCad,Pcbnew,9.0.1*%
%TF.CreationDate,2025-12-21T16:37:51-06:00*%
%TF.ProjectId,ProtoCarrier_v1,50726f74-6f43-4617-9272-6965725f7631,rev?*%
%TF.SameCoordinates,Original*%
%TF.FileFunction,Copper,L2,Inr*%
%TF.FilePolarity,Positive*%
%FSLAX46Y46*%
G04 Gerber Fmt 4.6, Leading zero omitted, Abs format (unit mm)*
G04 Created by KiCad (PCBNEW 9.0.1) date 2025-12-21 16:37:51*
%MOMM*%
%LPD*%
G01*
G04 APERTURE LIST*
%TA.AperFunction,ComponentPad*%
%ADD10C,1.700000*%
%TD*%
%TA.AperFunction,ComponentPad*%
%ADD11R,1.700000X1.700000*%
%TD*%
%TA.AperFunction,HeatsinkPad*%
%ADD12O,1.000000X2.100000*%
%TD*%
%TA.AperFunction,HeatsinkPad*%
%ADD13O,1.000000X1.800000*%
%TD*%
%TA.AperFunction,ViaPad*%
%ADD14C,0.600000*%
%TD*%
G04 APERTURE END LIST*
D10*
%TO.N,Net-(D1-A1)*%
%TO.C,J2*%
X134300000Y-112970000D03*
D11*
%TO.N,GND*%
X134300000Y-110430000D03*
%TD*%
D10*
%TO.N,/SoM Breakout/IO7*%
%TO.C,J1*%
X134300000Y-81810000D03*
%TO.N,/SoM Breakout/IO6*%
X134300000Y-84350000D03*
D11*
%TO.N,GND*%
X134300000Y-86890000D03*
D10*
%TO.N,/SoM Breakout/IO5*%
X134300000Y-89430000D03*
%TO.N,/SoM Breakout/IO4*%
X134300000Y-91970000D03*
%TO.N,/SoM Breakout/IO3*%
X134300000Y-94510000D03*
%TO.N,/SoM Breakout/IO2*%
X134300000Y-97050000D03*
%TO.N,/SoM Breakout/IO1*%
X134300000Y-99590000D03*
D11*
%TO.N,GND*%
X134300000Y-102130000D03*
D10*
%TO.N,+3V3*%
X134300000Y-104670000D03*
%TO.N,/SoM Breakout/IO0*%
X134300000Y-107210000D03*
%TD*%
D12*
%TO.N,GND*%
%TO.C,J4*%
X145680000Y-112895000D03*
D13*
X145680000Y-117075000D03*
D12*
X154320000Y-112895000D03*
D13*
X154320000Y-117075000D03*
%TD*%
D10*
%TO.N,/SoM Breakout/IO8*%
%TO.C,J3*%
X165750000Y-81800000D03*
%TO.N,/SoM Breakout/IO9*%
X165750000Y-84340000D03*
%TO.N,/SoM Breakout/IO10*%
X165750000Y-86880000D03*
D11*
%TO.N,GND*%
X165750000Y-89420000D03*
D10*
%TO.N,/SoM Breakout/IO11*%
X165750000Y-91960000D03*
%TO.N,/SoM Breakout/IO12*%
X165750000Y-94500000D03*
%TO.N,/SoM Breakout/UART0_RX*%
X165750000Y-97040000D03*
%TO.N,/SoM Breakout/UART0_TX*%
X165750000Y-99580000D03*
D11*
%TO.N,GND*%
X165750000Y-102120000D03*
D10*
%TO.N,+3V3*%
X165750000Y-104660000D03*
%TO.N,/SoM Breakout/BOOT0*%
X165750000Y-107200000D03*
%TD*%
D14*
%TO.N,VSYS*%
X163000000Y-110050000D03*
%TO.N,GND*%
X159950000Y-85150000D03*
X138400000Y-92524999D03*
X163100000Y-115800000D03*
X147600000Y-103400000D03*
X142012500Y-115325000D03*
X159625000Y-101750000D03*
X161600000Y-99225000D03*
X163575000Y-90725000D03*
X163150000Y-117975000D03*
X144250000Y-98475000D03*
X140500000Y-106725000D03*
X145950000Y-111100000D03*
X147625000Y-106725000D03*
X166850000Y-116325000D03*
X156050000Y-85500000D03*
X163600000Y-85600000D03*
X151800000Y-80900000D03*
X148600000Y-105100000D03*
X147675000Y-108975000D03*
X157125000Y-83525000D03*
X152075000Y-116725000D03*
X155925000Y-82450000D03*
X139350000Y-101800000D03*
X152850000Y-84625000D03*
X144050000Y-103225000D03*
X141700000Y-97350000D03*
X138850000Y-116425000D03*
X150012500Y-109112500D03*
X154750000Y-103475000D03*
X139525000Y-105100000D03*
X136200000Y-101150000D03*
X149550000Y-98425000D03*
X165775000Y-119100000D03*
X159400000Y-112725000D03*
X155925000Y-81300000D03*
X163550000Y-93300000D03*
X159975000Y-98250001D03*
X140150000Y-87550000D03*
X137612500Y-115328500D03*
X164325000Y-111900000D03*
X153700000Y-101175000D03*
X139100000Y-89950000D03*
X154650000Y-110025000D03*
X155825000Y-117050000D03*
X138961798Y-97140458D03*
X142875000Y-83525000D03*
X138850000Y-80950000D03*
X166900000Y-114150000D03*
X144075000Y-82425000D03*
X164325000Y-111025000D03*
X140500000Y-103475000D03*
X159425000Y-115300000D03*
X154750000Y-106725000D03*
X157100000Y-109175000D03*
X161375000Y-104675000D03*
X155725000Y-105100000D03*
X136650000Y-82950000D03*
X147125000Y-84750000D03*
X161350000Y-81050000D03*
X148450000Y-117925000D03*
X136500000Y-85500000D03*
X163600000Y-83025000D03*
X135950000Y-108850000D03*
X152525000Y-109000000D03*
X142500000Y-101725000D03*
X144500000Y-109850000D03*
X145275000Y-83525000D03*
X145975000Y-108675000D03*
X163550000Y-88050000D03*
X136775000Y-93500000D03*
X142425000Y-117400000D03*
X160975000Y-94700000D03*
X146650000Y-105100000D03*
X154725000Y-83525000D03*
X163225000Y-98250000D03*
X141475000Y-105100000D03*
X136300000Y-90450000D03*
X152625000Y-97175000D03*
X150225000Y-85625000D03*
X155600000Y-98550000D03*
X163150000Y-113775000D03*
X138400000Y-94475001D03*
X140825000Y-84775000D03*
X160850000Y-105950000D03*
X143950000Y-85600000D03*
X160000000Y-92450000D03*
X161600000Y-97275000D03*
X160900000Y-89925000D03*
X137400000Y-106000000D03*
X146700000Y-97200000D03*
X147625000Y-115250000D03*
X147975000Y-80925000D03*
X159425000Y-117425000D03*
X158175000Y-97200000D03*
X156050000Y-111150000D03*
X160000000Y-87600000D03*
X153775000Y-105100000D03*
X146100000Y-101750000D03*
X139850000Y-109300000D03*
X163717524Y-96211471D03*
X140925000Y-111225000D03*
X144050000Y-81300000D03*
%TO.N,/SoM Breakout/CORE_RST_N*%
X140900000Y-101025000D03*
X139450000Y-110875000D03*
%TO.N,+3V3*%
X151450000Y-100000000D03*
X153225000Y-100000000D03*
X152375000Y-100025000D03*
%TO.N,/SoM Breakout/BOOT0*%
X142350000Y-108450000D03*
X158325000Y-104675000D03*
X156217385Y-106579439D03*
%TO.N,VSYS*%
X159150000Y-109525000D03*
X155275000Y-119175000D03*
X152200000Y-119200000D03*
X163800000Y-109475000D03*
X165700000Y-114800000D03*
X162175000Y-109450000D03*
X165700000Y-116925000D03*
X148175000Y-119150000D03*
X150350000Y-119150000D03*
X145450000Y-119175000D03*
X164625000Y-113200000D03*
%TO.N,/Status Indication/BUZZ_DRAIN*%
X164925000Y-109025000D03*
X165925000Y-109375000D03*
%TD*%
%TA.AperFunction,Conductor*%
%TO.N,GND*%
G36*
X165216867Y-80319454D02*
G01*
X165297649Y-80373430D01*
X165351625Y-80454212D01*
X165370579Y-80549500D01*
X165351625Y-80644788D01*
X165297649Y-80725570D01*
X165234623Y-80771360D01*
X165147014Y-80815998D01*
X165147007Y-80816003D01*
X165000501Y-80922445D01*
X164872445Y-81050501D01*
X164766003Y-81197007D01*
X164765999Y-81197014D01*
X164683794Y-81358350D01*
X164683786Y-81358367D01*
X164627831Y-81530581D01*
X164627827Y-81530598D01*
X164599501Y-81709443D01*
X164599500Y-81709458D01*
X164599500Y-81890541D01*
X164599501Y-81890556D01*
X164627827Y-82069401D01*
X164627831Y-82069418D01*
X164683786Y-82241632D01*
X164683794Y-82241649D01*
X164762513Y-82396144D01*
X164766004Y-82402994D01*
X164872447Y-82549501D01*
X165000499Y-82677553D01*
X165147006Y-82783996D01*
X165147010Y-82783998D01*
X165272894Y-82848140D01*
X165349191Y-82908288D01*
X165396662Y-82993056D01*
X165408081Y-83089538D01*
X165381709Y-83183045D01*
X165321561Y-83259342D01*
X165272894Y-83291860D01*
X165147010Y-83356001D01*
X165147007Y-83356003D01*
X165000501Y-83462445D01*
X164872445Y-83590501D01*
X164766003Y-83737007D01*
X164765999Y-83737014D01*
X164683794Y-83898350D01*
X164683786Y-83898367D01*
X164627831Y-84070581D01*
X164627827Y-84070598D01*
X164599501Y-84249443D01*
X164599500Y-84249458D01*
X164599500Y-84430541D01*
X164599501Y-84430556D01*
X164627827Y-84609401D01*
X164627831Y-84609418D01*
X164683786Y-84781632D01*
X164683794Y-84781649D01*
X164762513Y-84936144D01*
X164766004Y-84942994D01*
X164872447Y-85089501D01*
X165000499Y-85217553D01*
X165147006Y-85323996D01*
X165147010Y-85323998D01*
X165272894Y-85388140D01*
X165349191Y-85448288D01*
X165396662Y-85533056D01*
X165408081Y-85629538D01*
X165381709Y-85723045D01*
X165321561Y-85799342D01*
X165272894Y-85831860D01*
X165147010Y-85896001D01*
X165147007Y-85896003D01*
X165000501Y-86002445D01*
X164872445Y-86130501D01*
X164766003Y-86277007D01*
X164765999Y-86277014D01*
X164683794Y-86438350D01*
X164683786Y-86438367D01*
X164627831Y-86610581D01*
X164627827Y-86610598D01*
X164599501Y-86789443D01*
X164599500Y-86789458D01*
X164599500Y-86970541D01*
X164599501Y-86970556D01*
X164627827Y-87149401D01*
X164627831Y-87149418D01*
X164683786Y-87321632D01*
X164683794Y-87321649D01*
X164759386Y-87470007D01*
X164766004Y-87482994D01*
X164872447Y-87629501D01*
X164902957Y-87660011D01*
X164956931Y-87740790D01*
X164975885Y-87836078D01*
X164956931Y-87931366D01*
X164902955Y-88012148D01*
X164822173Y-88066124D01*
X164807216Y-88070955D01*
X164807218Y-88070959D01*
X164657912Y-88126646D01*
X164542812Y-88212810D01*
X164542810Y-88212812D01*
X164456646Y-88327912D01*
X164406403Y-88462621D01*
X164406401Y-88462628D01*
X164400000Y-88522167D01*
X164400000Y-89169999D01*
X164400001Y-89170000D01*
X165316988Y-89170000D01*
X165284075Y-89227007D01*
X165250000Y-89354174D01*
X165250000Y-89485826D01*
X165284075Y-89612993D01*
X165316988Y-89670000D01*
X164400001Y-89670000D01*
X164400000Y-89670001D01*
X164400000Y-90317832D01*
X164406401Y-90377371D01*
X164406403Y-90377378D01*
X164456646Y-90512087D01*
X164542810Y-90627187D01*
X164542812Y-90627189D01*
X164657912Y-90713353D01*
X164807218Y-90769041D01*
X164806233Y-90771681D01*
X164872517Y-90801950D01*
X164938722Y-90873055D01*
X164972677Y-90964083D01*
X164969213Y-91061176D01*
X164928856Y-91149553D01*
X164902957Y-91179988D01*
X164872448Y-91210497D01*
X164766003Y-91357007D01*
X164765999Y-91357014D01*
X164683794Y-91518350D01*
X164683786Y-91518367D01*
X164627831Y-91690581D01*
X164627827Y-91690598D01*
X164599501Y-91869443D01*
X164599500Y-91869458D01*
X164599500Y-92050541D01*
X164599501Y-92050556D01*
X164627827Y-92229401D01*
X164627831Y-92229418D01*
X164683786Y-92401632D01*
X164683794Y-92401649D01*
X164762513Y-92556144D01*
X164766004Y-92562994D01*
X164872447Y-92709501D01*
X165000499Y-92837553D01*
X165147006Y-92943996D01*
X165147010Y-92943998D01*
X165272894Y-93008140D01*
X165349191Y-93068288D01*
X165396662Y-93153056D01*
X165408081Y-93249538D01*
X165381709Y-93343045D01*
X165321561Y-93419342D01*
X165272894Y-93451860D01*
X165147010Y-93516001D01*
X165147007Y-93516003D01*
X165000501Y-93622445D01*
X164872445Y-93750501D01*
X164766003Y-93897007D01*
X164765999Y-93897014D01*
X164683794Y-94058350D01*
X164683786Y-94058367D01*
X164627831Y-94230581D01*
X164627827Y-94230598D01*
X164599501Y-94409443D01*
X164599500Y-94409458D01*
X164599500Y-94590541D01*
X164599501Y-94590556D01*
X164627827Y-94769401D01*
X164627831Y-94769418D01*
X164683786Y-94941632D01*
X164683794Y-94941649D01*
X164762513Y-95096144D01*
X164766004Y-95102994D01*
X164872447Y-95249501D01*
X165000499Y-95377553D01*
X165147006Y-95483996D01*
X165147010Y-95483998D01*
X165272894Y-95548140D01*
X165349191Y-95608288D01*
X165396662Y-95693056D01*
X165408081Y-95789538D01*
X165381709Y-95883045D01*
X165321561Y-95959342D01*
X165272894Y-95991860D01*
X165147010Y-96056001D01*
X165147007Y-96056003D01*
X165000501Y-96162445D01*
X164872445Y-96290501D01*
X164766003Y-96437007D01*
X164765999Y-96437014D01*
X164683794Y-96598350D01*
X164683786Y-96598367D01*
X164627831Y-96770581D01*
X164627827Y-96770598D01*
X164599501Y-96949443D01*
X164599500Y-96949458D01*
X164599500Y-97130541D01*
X164599501Y-97130556D01*
X164627827Y-97309401D01*
X164627831Y-97309418D01*
X164683786Y-97481632D01*
X164683794Y-97481649D01*
X164762513Y-97636144D01*
X164766004Y-97642994D01*
X164872447Y-97789501D01*
X165000499Y-97917553D01*
X165147006Y-98023996D01*
X165147010Y-98023998D01*
X165272894Y-98088140D01*
X165349191Y-98148288D01*
X165396662Y-98233056D01*
X165408081Y-98329538D01*
X165381709Y-98423045D01*
X165321561Y-98499342D01*
X165272894Y-98531860D01*
X165147010Y-98596001D01*
X165147007Y-98596003D01*
X165000501Y-98702445D01*
X164872445Y-98830501D01*
X164766003Y-98977007D01*
X164765999Y-98977014D01*
X164683794Y-99138350D01*
X164683786Y-99138367D01*
X164627831Y-99310581D01*
X164627827Y-99310598D01*
X164599501Y-99489443D01*
X164599500Y-99489458D01*
X164599500Y-99670541D01*
X164599501Y-99670556D01*
X164627827Y-99849401D01*
X164627831Y-99849418D01*
X164683786Y-100021632D01*
X164683788Y-100021636D01*
X164683789Y-100021639D01*
X164766004Y-100182994D01*
X164872447Y-100329501D01*
X164902957Y-100360011D01*
X164956931Y-100440790D01*
X164975885Y-100536078D01*
X164956931Y-100631366D01*
X164902955Y-100712148D01*
X164822173Y-100766124D01*
X164807216Y-100770955D01*
X164807218Y-100770959D01*
X164657912Y-100826646D01*
X164542812Y-100912810D01*
X164542810Y-100912812D01*
X164456646Y-101027912D01*
X164406403Y-101162621D01*
X164406401Y-101162628D01*
X164400000Y-101222167D01*
X164400000Y-101869999D01*
X164400001Y-101870000D01*
X165316988Y-101870000D01*
X165284075Y-101927007D01*
X165250000Y-102054174D01*
X165250000Y-102185826D01*
X165284075Y-102312993D01*
X165316988Y-102370000D01*
X164400001Y-102370000D01*
X164400000Y-102370001D01*
X164400000Y-103017832D01*
X164406401Y-103077371D01*
X164406403Y-103077378D01*
X164456646Y-103212087D01*
X164542810Y-103327187D01*
X164542812Y-103327189D01*
X164657912Y-103413353D01*
X164807218Y-103469041D01*
X164806233Y-103471681D01*
X164872517Y-103501950D01*
X164938722Y-103573055D01*
X164972677Y-103664083D01*
X164969213Y-103761176D01*
X164928856Y-103849553D01*
X164902957Y-103879988D01*
X164872448Y-103910497D01*
X164766003Y-104057007D01*
X164765999Y-104057014D01*
X164683794Y-104218350D01*
X164683786Y-104218367D01*
X164627831Y-104390581D01*
X164627827Y-104390598D01*
X164599501Y-104569443D01*
X164599500Y-104569458D01*
X164599500Y-104750541D01*
X164599501Y-104750556D01*
X164627827Y-104929401D01*
X164627831Y-104929418D01*
X164683786Y-105101632D01*
X164683794Y-105101649D01*
X164762513Y-105256144D01*
X164766004Y-105262994D01*
X164872447Y-105409501D01*
X165000499Y-105537553D01*
X165147006Y-105643996D01*
X165147010Y-105643998D01*
X165272894Y-105708140D01*
X165349191Y-105768288D01*
X165396662Y-105853056D01*
X165408081Y-105949538D01*
X165381709Y-106043045D01*
X165321561Y-106119342D01*
X165272894Y-106151860D01*
X165147010Y-106216001D01*
X165147007Y-106216003D01*
X165000501Y-106322445D01*
X164872445Y-106450501D01*
X164766003Y-106597007D01*
X164765999Y-106597014D01*
X164683794Y-106758350D01*
X164683786Y-106758367D01*
X164627831Y-106930581D01*
X164627827Y-106930598D01*
X164599501Y-107109443D01*
X164599500Y-107109458D01*
X164599500Y-107290541D01*
X164599501Y-107290556D01*
X164627827Y-107469401D01*
X164627831Y-107469418D01*
X164683786Y-107641632D01*
X164683794Y-107641649D01*
X164762513Y-107796144D01*
X164766004Y-107802994D01*
X164872447Y-107949501D01*
X164936506Y-108013560D01*
X164990480Y-108094339D01*
X165009434Y-108189627D01*
X164990480Y-108284915D01*
X164936504Y-108365697D01*
X164855722Y-108419673D01*
X164824881Y-108430142D01*
X164693220Y-108465420D01*
X164693217Y-108465422D01*
X164556286Y-108544478D01*
X164444478Y-108656286D01*
X164357263Y-108807350D01*
X164354911Y-108805992D01*
X164314663Y-108866226D01*
X164233880Y-108920200D01*
X164138591Y-108939151D01*
X164043308Y-108920196D01*
X164031787Y-108915424D01*
X164031784Y-108915423D01*
X163879057Y-108874500D01*
X163720943Y-108874500D01*
X163568216Y-108915422D01*
X163431286Y-108994478D01*
X163319478Y-109106286D01*
X163240422Y-109243217D01*
X163240421Y-109243219D01*
X163234601Y-109264943D01*
X163227335Y-109279675D01*
X163224131Y-109295788D01*
X163206035Y-109322869D01*
X163191632Y-109352079D01*
X163179282Y-109362909D01*
X163170155Y-109376570D01*
X163143073Y-109394664D01*
X163118588Y-109416139D01*
X163103031Y-109421419D01*
X163089373Y-109430546D01*
X163057428Y-109436900D01*
X163026589Y-109447369D01*
X162994085Y-109449500D01*
X162987614Y-109449500D01*
X162892326Y-109430546D01*
X162811544Y-109376570D01*
X162757568Y-109295788D01*
X162747098Y-109264945D01*
X162744911Y-109256784D01*
X162734577Y-109218216D01*
X162655520Y-109081284D01*
X162543716Y-108969480D01*
X162536689Y-108965423D01*
X162406783Y-108890422D01*
X162254057Y-108849500D01*
X162095943Y-108849500D01*
X161943216Y-108890422D01*
X161806286Y-108969478D01*
X161694478Y-109081286D01*
X161615422Y-109218216D01*
X161574500Y-109370942D01*
X161574500Y-109529057D01*
X161615422Y-109681783D01*
X161651177Y-109743713D01*
X161694480Y-109818716D01*
X161806284Y-109930520D01*
X161884192Y-109975500D01*
X161943216Y-110009577D01*
X162095943Y-110050500D01*
X162187386Y-110050500D01*
X162282674Y-110069454D01*
X162363456Y-110123430D01*
X162417432Y-110204212D01*
X162427902Y-110235055D01*
X162440421Y-110281780D01*
X162440423Y-110281784D01*
X162519480Y-110418716D01*
X162631284Y-110530520D01*
X162768216Y-110609577D01*
X162920943Y-110650500D01*
X163079057Y-110650500D01*
X163231784Y-110609577D01*
X163368716Y-110530520D01*
X163480520Y-110418716D01*
X163559577Y-110281784D01*
X163565399Y-110260057D01*
X163608368Y-110172921D01*
X163681412Y-110108861D01*
X163773411Y-110077631D01*
X163805915Y-110075500D01*
X163879057Y-110075500D01*
X164031784Y-110034577D01*
X164168716Y-109955520D01*
X164280520Y-109843716D01*
X164359577Y-109706784D01*
X164359577Y-109706783D01*
X164367737Y-109692650D01*
X164370090Y-109694008D01*
X164410307Y-109633803D01*
X164491081Y-109579815D01*
X164586367Y-109560848D01*
X164681658Y-109579789D01*
X164681695Y-109579805D01*
X164693212Y-109584575D01*
X164693216Y-109584577D01*
X164845943Y-109625500D01*
X165004060Y-109625500D01*
X165141811Y-109588589D01*
X165238758Y-109582234D01*
X165330757Y-109613463D01*
X165403802Y-109677522D01*
X165421898Y-109704604D01*
X165444477Y-109743712D01*
X165444478Y-109743713D01*
X165444480Y-109743716D01*
X165556284Y-109855520D01*
X165693216Y-109934577D01*
X165845943Y-109975500D01*
X166004057Y-109975500D01*
X166156784Y-109934577D01*
X166293716Y-109855520D01*
X166405520Y-109743716D01*
X166484577Y-109606784D01*
X166525500Y-109454057D01*
X166525500Y-109295943D01*
X166525458Y-109295788D01*
X166484577Y-109143216D01*
X166448080Y-109080001D01*
X166405520Y-109006284D01*
X166293716Y-108894480D01*
X166286689Y-108890423D01*
X166156783Y-108815422D01*
X166073906Y-108793216D01*
X166061488Y-108789888D01*
X165974354Y-108746918D01*
X165910295Y-108673873D01*
X165879065Y-108581874D01*
X165885419Y-108484927D01*
X165928390Y-108397792D01*
X166001435Y-108333733D01*
X166048991Y-108312560D01*
X166134073Y-108284915D01*
X166191639Y-108266211D01*
X166352994Y-108183996D01*
X166499501Y-108077553D01*
X166627553Y-107949501D01*
X166733996Y-107802994D01*
X166734001Y-107802985D01*
X166738194Y-107796144D01*
X166804143Y-107724802D01*
X166892374Y-107684127D01*
X166989454Y-107680314D01*
X167080604Y-107713942D01*
X167151946Y-107779891D01*
X167192621Y-107868122D01*
X167199500Y-107926248D01*
X167199500Y-117991101D01*
X167198866Y-118008863D01*
X167198866Y-118008864D01*
X167183472Y-118224104D01*
X167178415Y-118259271D01*
X167134444Y-118461399D01*
X167124436Y-118495485D01*
X167052144Y-118689310D01*
X167037385Y-118721628D01*
X166938243Y-118903191D01*
X166919036Y-118933077D01*
X166795070Y-119098676D01*
X166771805Y-119125526D01*
X166625526Y-119271805D01*
X166598676Y-119295070D01*
X166433077Y-119419036D01*
X166403191Y-119438243D01*
X166221628Y-119537385D01*
X166189310Y-119552144D01*
X165995485Y-119624436D01*
X165961399Y-119634444D01*
X165759271Y-119678415D01*
X165724104Y-119683472D01*
X165508865Y-119698866D01*
X165491102Y-119699500D01*
X156080648Y-119699500D01*
X155985360Y-119680546D01*
X155904578Y-119626570D01*
X155850602Y-119545788D01*
X155831648Y-119450500D01*
X155840132Y-119386055D01*
X155875500Y-119254058D01*
X155875500Y-119095942D01*
X155834577Y-118943216D01*
X155828723Y-118933077D01*
X155755520Y-118806284D01*
X155643716Y-118694480D01*
X155643713Y-118694478D01*
X155506783Y-118615422D01*
X155354057Y-118574500D01*
X155235853Y-118574500D01*
X155140565Y-118555546D01*
X155059783Y-118501570D01*
X155005807Y-118420788D01*
X154986853Y-118325500D01*
X155005807Y-118230212D01*
X155059783Y-118149430D01*
X155096753Y-118112459D01*
X155206188Y-117948679D01*
X155206191Y-117948672D01*
X155281570Y-117766691D01*
X155320000Y-117573489D01*
X155320000Y-117325001D01*
X155319999Y-117325000D01*
X154620000Y-117325000D01*
X154620000Y-116845942D01*
X165099500Y-116845942D01*
X165099500Y-117004057D01*
X165140422Y-117156783D01*
X165140423Y-117156784D01*
X165219480Y-117293716D01*
X165331284Y-117405520D01*
X165468216Y-117484577D01*
X165620943Y-117525500D01*
X165779057Y-117525500D01*
X165931784Y-117484577D01*
X166068716Y-117405520D01*
X166180520Y-117293716D01*
X166259577Y-117156784D01*
X166300500Y-117004057D01*
X166300500Y-116845943D01*
X166294888Y-116825000D01*
X166259577Y-116693216D01*
X166180521Y-116556286D01*
X166180520Y-116556284D01*
X166068716Y-116444480D01*
X166068713Y-116444478D01*
X165931783Y-116365422D01*
X165779057Y-116324500D01*
X165620943Y-116324500D01*
X165468216Y-116365422D01*
X165331286Y-116444478D01*
X165219478Y-116556286D01*
X165140422Y-116693216D01*
X165099500Y-116845942D01*
X154620000Y-116845942D01*
X154620000Y-116825000D01*
X155319999Y-116825000D01*
X155320000Y-116824999D01*
X155320000Y-116576510D01*
X155281570Y-116383308D01*
X155206191Y-116201327D01*
X155206188Y-116201320D01*
X155096753Y-116037540D01*
X154957459Y-115898246D01*
X154793679Y-115788811D01*
X154793676Y-115788810D01*
X154611691Y-115713430D01*
X154611692Y-115713430D01*
X154570000Y-115705136D01*
X154570000Y-116508011D01*
X154560060Y-116490795D01*
X154504205Y-116434940D01*
X154435796Y-116395444D01*
X154359496Y-116375000D01*
X154280504Y-116375000D01*
X154204204Y-116395444D01*
X154135795Y-116434940D01*
X154079940Y-116490795D01*
X154070000Y-116508011D01*
X154070000Y-115705136D01*
X154069999Y-115705136D01*
X154028308Y-115713430D01*
X153846323Y-115788810D01*
X153846320Y-115788811D01*
X153682540Y-115898246D01*
X153543246Y-116037540D01*
X153433811Y-116201320D01*
X153433808Y-116201327D01*
X153358429Y-116383308D01*
X153320000Y-116576510D01*
X153320000Y-116824999D01*
X153320001Y-116825000D01*
X154020000Y-116825000D01*
X154020000Y-117325000D01*
X153320001Y-117325000D01*
X153320000Y-117325001D01*
X153320000Y-117573489D01*
X153358429Y-117766691D01*
X153433808Y-117948672D01*
X153433811Y-117948679D01*
X153543246Y-118112459D01*
X153682540Y-118251753D01*
X153846320Y-118361188D01*
X153846324Y-118361189D01*
X154028311Y-118436571D01*
X154069999Y-118444863D01*
X154070000Y-118444862D01*
X154070000Y-117641988D01*
X154079940Y-117659205D01*
X154135795Y-117715060D01*
X154204204Y-117754556D01*
X154280504Y-117775000D01*
X154359496Y-117775000D01*
X154435796Y-117754556D01*
X154504205Y-117715060D01*
X154560060Y-117659205D01*
X154570000Y-117641988D01*
X154570000Y-118444862D01*
X154582033Y-118454738D01*
X154617506Y-118454739D01*
X154707265Y-118491919D01*
X154775963Y-118560619D01*
X154813142Y-118650379D01*
X154813141Y-118747534D01*
X154784567Y-118823452D01*
X154715423Y-118943213D01*
X154715423Y-118943215D01*
X154674500Y-119095942D01*
X154674500Y-119254058D01*
X154709868Y-119386055D01*
X154716222Y-119483002D01*
X154684992Y-119575001D01*
X154620933Y-119648045D01*
X154533797Y-119691016D01*
X154469352Y-119699500D01*
X153012346Y-119699500D01*
X152917058Y-119680546D01*
X152836276Y-119626570D01*
X152782300Y-119545788D01*
X152763346Y-119450500D01*
X152771831Y-119386054D01*
X152800500Y-119279060D01*
X152800500Y-119120942D01*
X152759577Y-118968216D01*
X152680521Y-118831286D01*
X152680520Y-118831284D01*
X152568716Y-118719480D01*
X152550552Y-118708993D01*
X152431783Y-118640422D01*
X152279057Y-118599500D01*
X152120943Y-118599500D01*
X151968216Y-118640422D01*
X151831286Y-118719478D01*
X151719478Y-118831286D01*
X151640422Y-118968216D01*
X151599500Y-119120942D01*
X151599500Y-119279060D01*
X151628169Y-119386054D01*
X151630299Y-119418553D01*
X151636654Y-119450500D01*
X151633449Y-119466609D01*
X151634524Y-119483000D01*
X151624053Y-119513844D01*
X151617700Y-119545788D01*
X151608575Y-119559444D01*
X151603295Y-119575000D01*
X151581818Y-119599488D01*
X151563724Y-119626570D01*
X151550065Y-119635695D01*
X151539236Y-119648045D01*
X151510024Y-119662450D01*
X151482942Y-119680546D01*
X151466830Y-119683750D01*
X151452100Y-119691015D01*
X151387654Y-119699500D01*
X151148949Y-119699500D01*
X151053661Y-119680546D01*
X150972879Y-119626570D01*
X150918903Y-119545788D01*
X150899949Y-119450500D01*
X150908433Y-119386054D01*
X150950500Y-119229057D01*
X150950500Y-119070942D01*
X150909577Y-118918216D01*
X150844955Y-118806286D01*
X150830520Y-118781284D01*
X150718716Y-118669480D01*
X150685632Y-118650379D01*
X150581783Y-118590422D01*
X150429057Y-118549500D01*
X150270943Y-118549500D01*
X150118216Y-118590422D01*
X149981286Y-118669478D01*
X149869478Y-118781286D01*
X149790422Y-118918216D01*
X149749500Y-119070942D01*
X149749500Y-119229057D01*
X149791567Y-119386054D01*
X149797921Y-119483001D01*
X149766691Y-119575000D01*
X149702632Y-119648045D01*
X149615497Y-119691016D01*
X149551051Y-119699500D01*
X148973949Y-119699500D01*
X148878661Y-119680546D01*
X148797879Y-119626570D01*
X148743903Y-119545788D01*
X148724949Y-119450500D01*
X148733433Y-119386054D01*
X148775500Y-119229057D01*
X148775500Y-119070942D01*
X148734577Y-118918216D01*
X148669955Y-118806286D01*
X148655520Y-118781284D01*
X148543716Y-118669480D01*
X148510632Y-118650379D01*
X148406783Y-118590422D01*
X148254057Y-118549500D01*
X148095943Y-118549500D01*
X147943216Y-118590422D01*
X147806286Y-118669478D01*
X147694478Y-118781286D01*
X147615422Y-118918216D01*
X147574500Y-119070942D01*
X147574500Y-119229057D01*
X147616567Y-119386054D01*
X147622921Y-119483001D01*
X147591691Y-119575000D01*
X147527632Y-119648045D01*
X147440497Y-119691016D01*
X147376051Y-119699500D01*
X146255648Y-119699500D01*
X146160360Y-119680546D01*
X146079578Y-119626570D01*
X146025602Y-119545788D01*
X146006648Y-119450500D01*
X146015132Y-119386055D01*
X146050500Y-119254058D01*
X146050500Y-119095942D01*
X146009577Y-118943216D01*
X146003723Y-118933077D01*
X145930520Y-118806284D01*
X145930515Y-118806279D01*
X145922726Y-118796128D01*
X145879754Y-118708993D01*
X145873397Y-118612047D01*
X145904625Y-118520047D01*
X145968682Y-118447000D01*
X146024982Y-118414495D01*
X146153678Y-118361188D01*
X146153679Y-118361188D01*
X146317459Y-118251753D01*
X146456753Y-118112459D01*
X146566188Y-117948679D01*
X146566191Y-117948672D01*
X146641570Y-117766691D01*
X146680000Y-117573489D01*
X146680000Y-117325001D01*
X146679999Y-117325000D01*
X145980000Y-117325000D01*
X145980000Y-116825000D01*
X146679999Y-116825000D01*
X146680000Y-116824999D01*
X146680000Y-116576510D01*
X146641570Y-116383308D01*
X146566191Y-116201327D01*
X146566188Y-116201320D01*
X146456753Y-116037540D01*
X146317459Y-115898246D01*
X146153679Y-115788811D01*
X146153676Y-115788810D01*
X145971691Y-115713430D01*
X145971692Y-115713430D01*
X145930000Y-115705136D01*
X145930000Y-116508011D01*
X145920060Y-116490795D01*
X145864205Y-116434940D01*
X145795796Y-116395444D01*
X145719496Y-116375000D01*
X145640504Y-116375000D01*
X145564204Y-116395444D01*
X145495795Y-116434940D01*
X145439940Y-116490795D01*
X145430000Y-116508011D01*
X145430000Y-115705136D01*
X145429999Y-115705136D01*
X145388308Y-115713430D01*
X145206323Y-115788810D01*
X145206320Y-115788811D01*
X145042540Y-115898246D01*
X144903246Y-116037540D01*
X144793811Y-116201320D01*
X144793808Y-116201327D01*
X144718429Y-116383308D01*
X144680000Y-116576510D01*
X144680000Y-116824999D01*
X144680001Y-116825000D01*
X145380000Y-116825000D01*
X145380000Y-117325000D01*
X144680001Y-117325000D01*
X144680000Y-117325001D01*
X144680000Y-117573489D01*
X144718429Y-117766691D01*
X144793808Y-117948672D01*
X144793811Y-117948679D01*
X144903246Y-118112459D01*
X145042540Y-118251753D01*
X145083011Y-118278795D01*
X145151710Y-118347494D01*
X145188890Y-118437254D01*
X145188889Y-118534409D01*
X145151710Y-118624168D01*
X145092975Y-118682902D01*
X145094234Y-118684543D01*
X145081288Y-118694476D01*
X144969478Y-118806286D01*
X144890422Y-118943216D01*
X144849500Y-119095942D01*
X144849500Y-119254058D01*
X144884868Y-119386055D01*
X144891222Y-119483002D01*
X144859992Y-119575001D01*
X144795933Y-119648045D01*
X144708797Y-119691016D01*
X144644352Y-119699500D01*
X134508898Y-119699500D01*
X134491135Y-119698866D01*
X134275895Y-119683472D01*
X134240728Y-119678415D01*
X134038600Y-119634444D01*
X134004514Y-119624436D01*
X133855121Y-119568716D01*
X133810687Y-119552143D01*
X133778371Y-119537385D01*
X133735259Y-119513844D01*
X133596808Y-119438243D01*
X133566922Y-119419036D01*
X133401323Y-119295070D01*
X133374473Y-119271805D01*
X133228194Y-119125526D01*
X133204929Y-119098676D01*
X133107268Y-118968216D01*
X133080960Y-118933073D01*
X133061756Y-118903191D01*
X132962610Y-118721620D01*
X132947859Y-118689319D01*
X132875560Y-118495477D01*
X132865557Y-118461408D01*
X132821582Y-118259261D01*
X132816528Y-118224113D01*
X132801134Y-118008863D01*
X132800500Y-117991101D01*
X132800500Y-114720942D01*
X165099500Y-114720942D01*
X165099500Y-114879057D01*
X165140422Y-115031783D01*
X165140423Y-115031784D01*
X165219480Y-115168716D01*
X165331284Y-115280520D01*
X165468216Y-115359577D01*
X165620943Y-115400500D01*
X165779057Y-115400500D01*
X165931784Y-115359577D01*
X166068716Y-115280520D01*
X166180520Y-115168716D01*
X166259577Y-115031784D01*
X166300500Y-114879057D01*
X166300500Y-114720943D01*
X166259577Y-114568216D01*
X166180520Y-114431284D01*
X166068716Y-114319480D01*
X166068713Y-114319478D01*
X165931783Y-114240422D01*
X165779057Y-114199500D01*
X165620943Y-114199500D01*
X165468216Y-114240422D01*
X165331286Y-114319478D01*
X165219478Y-114431286D01*
X165140422Y-114568216D01*
X165099500Y-114720942D01*
X132800500Y-114720942D01*
X132800500Y-113598420D01*
X132819454Y-113503132D01*
X132873430Y-113422350D01*
X132954212Y-113368374D01*
X133049500Y-113349420D01*
X133144788Y-113368374D01*
X133225570Y-113422350D01*
X133271359Y-113485375D01*
X133316004Y-113572994D01*
X133422447Y-113719501D01*
X133550499Y-113847553D01*
X133697006Y-113953996D01*
X133858361Y-114036211D01*
X133858366Y-114036212D01*
X133858367Y-114036213D01*
X134030581Y-114092168D01*
X134030583Y-114092168D01*
X134030591Y-114092171D01*
X134209454Y-114120500D01*
X134209458Y-114120500D01*
X134390542Y-114120500D01*
X134390546Y-114120500D01*
X134569409Y-114092171D01*
X134741639Y-114036211D01*
X134902994Y-113953996D01*
X135049501Y-113847553D01*
X135177553Y-113719501D01*
X135283996Y-113572994D01*
X135366211Y-113411639D01*
X135422171Y-113239409D01*
X135450500Y-113060546D01*
X135450500Y-112879454D01*
X135422171Y-112700591D01*
X135404108Y-112644999D01*
X135366213Y-112528367D01*
X135366212Y-112528366D01*
X135366211Y-112528361D01*
X135283996Y-112367006D01*
X135196451Y-112246510D01*
X144680000Y-112246510D01*
X144680000Y-112644999D01*
X144680001Y-112645000D01*
X145380000Y-112645000D01*
X145380000Y-113145000D01*
X144680001Y-113145000D01*
X144680000Y-113145001D01*
X144680000Y-113543489D01*
X144718429Y-113736691D01*
X144793808Y-113918672D01*
X144793811Y-113918679D01*
X144903246Y-114082459D01*
X145042540Y-114221753D01*
X145206320Y-114331188D01*
X145206324Y-114331189D01*
X145388311Y-114406571D01*
X145429999Y-114414863D01*
X145430000Y-114414862D01*
X145430000Y-113611988D01*
X145439940Y-113629205D01*
X145495795Y-113685060D01*
X145564204Y-113724556D01*
X145640504Y-113745000D01*
X145719496Y-113745000D01*
X145795796Y-113724556D01*
X145864205Y-113685060D01*
X145920060Y-113629205D01*
X145930000Y-113611988D01*
X145930000Y-114414863D01*
X145971687Y-114406571D01*
X145971689Y-114406571D01*
X146153675Y-114331189D01*
X146153679Y-114331188D01*
X146317459Y-114221753D01*
X146456755Y-114082457D01*
X146520094Y-113987664D01*
X146588792Y-113918964D01*
X146678552Y-113881785D01*
X146775707Y-113881784D01*
X146851625Y-113910357D01*
X146887865Y-113931281D01*
X146887867Y-113931281D01*
X146887868Y-113931282D01*
X147034234Y-113970500D01*
X147185766Y-113970500D01*
X147332135Y-113931281D01*
X147463365Y-113855515D01*
X147570515Y-113748365D01*
X147646281Y-113617135D01*
X147685500Y-113470766D01*
X147685500Y-113319234D01*
X147685500Y-113319233D01*
X152314500Y-113319233D01*
X152314500Y-113470766D01*
X152353718Y-113617133D01*
X152429482Y-113748361D01*
X152429483Y-113748362D01*
X152429485Y-113748365D01*
X152536635Y-113855515D01*
X152667865Y-113931281D01*
X152814234Y-113970500D01*
X152965766Y-113970500D01*
X153112135Y-113931281D01*
X153148369Y-113910360D01*
X153240364Y-113879131D01*
X153337311Y-113885483D01*
X153424448Y-113928453D01*
X153479904Y-113987662D01*
X153543245Y-114082458D01*
X153682540Y-114221753D01*
X153846320Y-114331188D01*
X153846324Y-114331189D01*
X154028311Y-114406571D01*
X154069999Y-114414863D01*
X154070000Y-114414862D01*
X154070000Y-113611988D01*
X154079940Y-113629205D01*
X154135795Y-113685060D01*
X154204204Y-113724556D01*
X154280504Y-113745000D01*
X154359496Y-113745000D01*
X154435796Y-113724556D01*
X154504205Y-113685060D01*
X154560060Y-113629205D01*
X154570000Y-113611988D01*
X154570000Y-114414863D01*
X154611687Y-114406571D01*
X154611689Y-114406571D01*
X154793675Y-114331189D01*
X154793679Y-114331188D01*
X154957459Y-114221753D01*
X155096753Y-114082459D01*
X155206188Y-113918679D01*
X155206191Y-113918672D01*
X155281570Y-113736691D01*
X155320000Y-113543489D01*
X155320000Y-113145001D01*
X155319999Y-113145000D01*
X154620000Y-113145000D01*
X154620000Y-113120942D01*
X164024500Y-113120942D01*
X164024500Y-113279057D01*
X164065422Y-113431783D01*
X164106615Y-113503132D01*
X164144480Y-113568716D01*
X164256284Y-113680520D01*
X164393216Y-113759577D01*
X164545943Y-113800500D01*
X164704057Y-113800500D01*
X164856784Y-113759577D01*
X164993716Y-113680520D01*
X165105520Y-113568716D01*
X165184577Y-113431784D01*
X165225500Y-113279057D01*
X165225500Y-113120943D01*
X165209319Y-113060556D01*
X165184577Y-112968216D01*
X165121359Y-112858718D01*
X165105520Y-112831284D01*
X164993716Y-112719480D01*
X164993713Y-112719478D01*
X164856783Y-112640422D01*
X164704057Y-112599500D01*
X164545943Y-112599500D01*
X164393216Y-112640422D01*
X164256286Y-112719478D01*
X164144478Y-112831286D01*
X164065422Y-112968216D01*
X164024500Y-113120942D01*
X154620000Y-113120942D01*
X154620000Y-112645000D01*
X155319999Y-112645000D01*
X155320000Y-112644999D01*
X155320000Y-112246510D01*
X155281570Y-112053308D01*
X155206191Y-111871327D01*
X155206188Y-111871320D01*
X155096753Y-111707540D01*
X154957459Y-111568246D01*
X154793679Y-111458811D01*
X154793676Y-111458810D01*
X154611691Y-111383430D01*
X154611692Y-111383430D01*
X154570000Y-111375136D01*
X154570000Y-112178011D01*
X154560060Y-112160795D01*
X154504205Y-112104940D01*
X154435796Y-112065444D01*
X154359496Y-112045000D01*
X154280504Y-112045000D01*
X154204204Y-112065444D01*
X154135795Y-112104940D01*
X154079940Y-112160795D01*
X154070000Y-112178011D01*
X154070000Y-111375136D01*
X154069999Y-111375136D01*
X154028308Y-111383430D01*
X153846323Y-111458810D01*
X153846320Y-111458811D01*
X153682540Y-111568246D01*
X153543246Y-111707540D01*
X153433811Y-111871320D01*
X153433808Y-111871327D01*
X153358429Y-112053308D01*
X153320000Y-112246510D01*
X153320000Y-112589913D01*
X153301046Y-112685201D01*
X153247070Y-112765983D01*
X153166288Y-112819959D01*
X153071000Y-112838913D01*
X153006555Y-112830429D01*
X152965767Y-112819500D01*
X152965766Y-112819500D01*
X152814234Y-112819500D01*
X152667866Y-112858718D01*
X152536638Y-112934482D01*
X152429482Y-113041638D01*
X152353718Y-113172866D01*
X152314500Y-113319233D01*
X147685500Y-113319233D01*
X147646281Y-113172865D01*
X147581433Y-113060546D01*
X147570517Y-113041638D01*
X147570516Y-113041637D01*
X147570515Y-113041635D01*
X147463365Y-112934485D01*
X147463362Y-112934483D01*
X147463361Y-112934482D01*
X147399659Y-112897704D01*
X147332135Y-112858719D01*
X147332132Y-112858718D01*
X147332134Y-112858718D01*
X147185766Y-112819500D01*
X147034234Y-112819500D01*
X147034233Y-112819500D01*
X146993445Y-112830429D01*
X146896498Y-112836783D01*
X146804499Y-112805553D01*
X146731454Y-112741494D01*
X146688484Y-112654358D01*
X146680000Y-112589913D01*
X146680000Y-112246510D01*
X146641570Y-112053308D01*
X146566191Y-111871327D01*
X146566188Y-111871320D01*
X146456753Y-111707540D01*
X146317459Y-111568246D01*
X146153679Y-111458811D01*
X146153676Y-111458810D01*
X145971691Y-111383430D01*
X145971692Y-111383430D01*
X145930000Y-111375136D01*
X145930000Y-112178011D01*
X145920060Y-112160795D01*
X145864205Y-112104940D01*
X145795796Y-112065444D01*
X145719496Y-112045000D01*
X145640504Y-112045000D01*
X145564204Y-112065444D01*
X145495795Y-112104940D01*
X145439940Y-112160795D01*
X145430000Y-112178011D01*
X145430000Y-111375136D01*
X145429999Y-111375136D01*
X145388308Y-111383430D01*
X145206323Y-111458810D01*
X145206320Y-111458811D01*
X145042540Y-111568246D01*
X144903246Y-111707540D01*
X144793811Y-111871320D01*
X144793808Y-111871327D01*
X144718429Y-112053308D01*
X144680000Y-112246510D01*
X135196451Y-112246510D01*
X135177553Y-112220499D01*
X135136128Y-112179074D01*
X135126648Y-112166899D01*
X135111645Y-112137012D01*
X135093068Y-112109209D01*
X135090035Y-112093963D01*
X135083061Y-112080070D01*
X135080637Y-112046716D01*
X135074114Y-112013921D01*
X135077146Y-111998674D01*
X135076020Y-111983170D01*
X135086544Y-111951429D01*
X135093068Y-111918633D01*
X135101704Y-111905707D01*
X135106597Y-111890952D01*
X135128465Y-111865656D01*
X135147044Y-111837851D01*
X135159969Y-111829214D01*
X135170136Y-111817455D01*
X135200022Y-111802452D01*
X135227826Y-111783875D01*
X135242783Y-111779045D01*
X135242782Y-111779041D01*
X135392087Y-111723353D01*
X135507187Y-111637189D01*
X135507189Y-111637187D01*
X135593353Y-111522087D01*
X135643596Y-111387378D01*
X135643598Y-111387371D01*
X135649999Y-111327832D01*
X135650000Y-111327825D01*
X135650000Y-110795942D01*
X138849500Y-110795942D01*
X138849500Y-110954057D01*
X138890422Y-111106783D01*
X138890423Y-111106784D01*
X138969480Y-111243716D01*
X139081284Y-111355520D01*
X139218216Y-111434577D01*
X139370943Y-111475500D01*
X139529057Y-111475500D01*
X139681784Y-111434577D01*
X139818716Y-111355520D01*
X139930520Y-111243716D01*
X140009577Y-111106784D01*
X140050500Y-110954057D01*
X140050500Y-110795943D01*
X140019433Y-110680001D01*
X140009577Y-110643216D01*
X139944513Y-110530521D01*
X139930520Y-110506284D01*
X139818716Y-110394480D01*
X139818713Y-110394478D01*
X139681783Y-110315422D01*
X139529057Y-110274500D01*
X139370943Y-110274500D01*
X139218216Y-110315422D01*
X139081286Y-110394478D01*
X138969478Y-110506286D01*
X138890422Y-110643216D01*
X138849500Y-110795942D01*
X135650000Y-110795942D01*
X135650000Y-110680001D01*
X135649999Y-110680000D01*
X134733012Y-110680000D01*
X134765925Y-110622993D01*
X134800000Y-110495826D01*
X134800000Y-110364174D01*
X134765925Y-110237007D01*
X134733012Y-110180000D01*
X135649999Y-110180000D01*
X135650000Y-110179999D01*
X135650000Y-109532175D01*
X135649999Y-109532167D01*
X135643598Y-109472626D01*
X135643597Y-109472623D01*
X135633646Y-109445942D01*
X158549500Y-109445942D01*
X158549500Y-109604057D01*
X158590422Y-109756783D01*
X158647428Y-109855521D01*
X158669480Y-109893716D01*
X158781284Y-110005520D01*
X158918216Y-110084577D01*
X159070943Y-110125500D01*
X159229057Y-110125500D01*
X159381784Y-110084577D01*
X159518716Y-110005520D01*
X159630520Y-109893716D01*
X159709577Y-109756784D01*
X159750500Y-109604057D01*
X159750500Y-109445943D01*
X159746374Y-109430546D01*
X159709577Y-109293216D01*
X159630521Y-109156286D01*
X159630520Y-109156284D01*
X159518716Y-109044480D01*
X159458262Y-109009577D01*
X159381783Y-108965422D01*
X159229057Y-108924500D01*
X159070943Y-108924500D01*
X158918216Y-108965422D01*
X158781286Y-109044478D01*
X158669478Y-109156286D01*
X158590422Y-109293216D01*
X158549500Y-109445942D01*
X135633646Y-109445942D01*
X135593353Y-109337912D01*
X135507189Y-109222812D01*
X135507187Y-109222810D01*
X135392087Y-109136646D01*
X135257378Y-109086403D01*
X135257371Y-109086401D01*
X135197832Y-109080000D01*
X134550001Y-109080000D01*
X134550000Y-109080001D01*
X134550000Y-109996988D01*
X134492993Y-109964075D01*
X134365826Y-109930000D01*
X134234174Y-109930000D01*
X134107007Y-109964075D01*
X134050000Y-109996988D01*
X134050000Y-109080001D01*
X134049999Y-109080000D01*
X133402167Y-109080000D01*
X133342628Y-109086401D01*
X133342621Y-109086403D01*
X133207910Y-109136647D01*
X133198719Y-109143528D01*
X133111078Y-109185458D01*
X133014062Y-109190657D01*
X132922442Y-109158335D01*
X132850164Y-109093411D01*
X132808234Y-109005770D01*
X132800500Y-108944192D01*
X132800500Y-108370942D01*
X141749500Y-108370942D01*
X141749500Y-108529057D01*
X141790422Y-108681783D01*
X141862134Y-108805992D01*
X141869480Y-108818716D01*
X141981284Y-108930520D01*
X142118216Y-109009577D01*
X142270943Y-109050500D01*
X142429057Y-109050500D01*
X142581784Y-109009577D01*
X142718716Y-108930520D01*
X142830520Y-108818716D01*
X142909577Y-108681784D01*
X142950500Y-108529057D01*
X142950500Y-108370943D01*
X142949094Y-108365697D01*
X142909577Y-108218216D01*
X142830521Y-108081286D01*
X142830520Y-108081284D01*
X142718716Y-107969480D01*
X142701427Y-107959498D01*
X142581783Y-107890422D01*
X142429057Y-107849500D01*
X142270943Y-107849500D01*
X142118216Y-107890422D01*
X141981286Y-107969478D01*
X141869478Y-108081286D01*
X141790422Y-108218216D01*
X141749500Y-108370942D01*
X132800500Y-108370942D01*
X132800500Y-107838420D01*
X132819454Y-107743132D01*
X132873430Y-107662350D01*
X132954212Y-107608374D01*
X133049500Y-107589420D01*
X133144788Y-107608374D01*
X133225570Y-107662350D01*
X133271359Y-107725375D01*
X133316004Y-107812994D01*
X133422447Y-107959501D01*
X133550499Y-108087553D01*
X133697006Y-108193996D01*
X133858361Y-108276211D01*
X133858366Y-108276212D01*
X133858367Y-108276213D01*
X134030581Y-108332168D01*
X134030583Y-108332168D01*
X134030591Y-108332171D01*
X134209454Y-108360500D01*
X134209458Y-108360500D01*
X134390542Y-108360500D01*
X134390546Y-108360500D01*
X134569409Y-108332171D01*
X134741639Y-108276211D01*
X134902994Y-108193996D01*
X135049501Y-108087553D01*
X135177553Y-107959501D01*
X135283996Y-107812994D01*
X135366211Y-107651639D01*
X135422171Y-107479409D01*
X135450500Y-107300546D01*
X135450500Y-107119454D01*
X135422171Y-106940591D01*
X135380137Y-106811223D01*
X135366213Y-106768367D01*
X135366212Y-106768366D01*
X135366211Y-106768361D01*
X135327874Y-106693122D01*
X135283999Y-106607011D01*
X135283997Y-106607008D01*
X135283996Y-106607006D01*
X135206529Y-106500381D01*
X155616885Y-106500381D01*
X155616885Y-106658496D01*
X155657807Y-106811222D01*
X155732492Y-106940581D01*
X155736865Y-106948155D01*
X155848669Y-107059959D01*
X155985601Y-107139016D01*
X156138328Y-107179939D01*
X156296442Y-107179939D01*
X156449169Y-107139016D01*
X156586101Y-107059959D01*
X156697905Y-106948155D01*
X156776962Y-106811223D01*
X156817885Y-106658496D01*
X156817885Y-106500382D01*
X156807198Y-106460499D01*
X156776962Y-106347655D01*
X156706726Y-106226001D01*
X156697905Y-106210723D01*
X156586101Y-106098919D01*
X156573618Y-106091712D01*
X156449168Y-106019861D01*
X156296442Y-105978939D01*
X156138328Y-105978939D01*
X155985601Y-106019861D01*
X155848671Y-106098917D01*
X155736863Y-106210725D01*
X155657807Y-106347655D01*
X155616885Y-106500381D01*
X135206529Y-106500381D01*
X135177553Y-106460499D01*
X135049501Y-106332447D01*
X134902994Y-106226004D01*
X134902988Y-106226001D01*
X134902985Y-106225999D01*
X134777106Y-106161860D01*
X134700809Y-106101712D01*
X134653337Y-106016945D01*
X134641918Y-105920463D01*
X134668290Y-105826956D01*
X134728438Y-105750659D01*
X134777106Y-105718140D01*
X134832046Y-105690145D01*
X134902994Y-105653996D01*
X135049501Y-105547553D01*
X135177553Y-105419501D01*
X135283996Y-105272994D01*
X135366211Y-105111639D01*
X135422171Y-104939409D01*
X135450500Y-104760546D01*
X135450500Y-104595942D01*
X157724500Y-104595942D01*
X157724500Y-104754057D01*
X157765422Y-104906783D01*
X157784264Y-104939418D01*
X157844480Y-105043716D01*
X157956284Y-105155520D01*
X158093216Y-105234577D01*
X158245943Y-105275500D01*
X158404057Y-105275500D01*
X158556784Y-105234577D01*
X158693716Y-105155520D01*
X158805520Y-105043716D01*
X158884577Y-104906784D01*
X158925500Y-104754057D01*
X158925500Y-104595943D01*
X158918403Y-104569458D01*
X158884577Y-104443216D01*
X158805521Y-104306286D01*
X158805520Y-104306284D01*
X158693716Y-104194480D01*
X158693713Y-104194478D01*
X158556783Y-104115422D01*
X158404057Y-104074500D01*
X158245943Y-104074500D01*
X158093216Y-104115422D01*
X157956286Y-104194478D01*
X157844478Y-104306286D01*
X157765422Y-104443216D01*
X157724500Y-104595942D01*
X135450500Y-104595942D01*
X135450500Y-104579454D01*
X135422171Y-104400591D01*
X135366211Y-104228361D01*
X135283996Y-104067006D01*
X135177553Y-103920499D01*
X135147041Y-103889987D01*
X135093068Y-103809209D01*
X135074114Y-103713921D01*
X135093068Y-103618633D01*
X135147044Y-103537851D01*
X135227826Y-103483875D01*
X135242783Y-103479045D01*
X135242782Y-103479041D01*
X135392087Y-103423353D01*
X135507187Y-103337189D01*
X135507189Y-103337187D01*
X135593353Y-103222087D01*
X135643596Y-103087378D01*
X135643598Y-103087371D01*
X135649999Y-103027832D01*
X135650000Y-103027825D01*
X135650000Y-102380001D01*
X135649999Y-102380000D01*
X134733012Y-102380000D01*
X134765925Y-102322993D01*
X134800000Y-102195826D01*
X134800000Y-102064174D01*
X134765925Y-101937007D01*
X134733012Y-101880000D01*
X135649999Y-101880000D01*
X135650000Y-101879999D01*
X135650000Y-101232175D01*
X135649999Y-101232167D01*
X135643598Y-101172628D01*
X135643596Y-101172621D01*
X135593353Y-101037912D01*
X135593353Y-101037911D01*
X135524504Y-100945942D01*
X140299500Y-100945942D01*
X140299500Y-101104057D01*
X140340422Y-101256783D01*
X140340423Y-101256784D01*
X140419480Y-101393716D01*
X140531284Y-101505520D01*
X140668216Y-101584577D01*
X140820943Y-101625500D01*
X140979057Y-101625500D01*
X141131784Y-101584577D01*
X141268716Y-101505520D01*
X141380520Y-101393716D01*
X141459577Y-101256784D01*
X141500500Y-101104057D01*
X141500500Y-100945943D01*
X141459577Y-100793216D01*
X141380520Y-100656284D01*
X141268716Y-100544480D01*
X141268713Y-100544478D01*
X141131783Y-100465422D01*
X140979057Y-100424500D01*
X140820943Y-100424500D01*
X140668216Y-100465422D01*
X140531286Y-100544478D01*
X140419478Y-100656286D01*
X140340422Y-100793216D01*
X140299500Y-100945942D01*
X135524504Y-100945942D01*
X135507189Y-100922812D01*
X135507187Y-100922810D01*
X135392087Y-100836646D01*
X135242782Y-100780959D01*
X135243766Y-100778320D01*
X135177460Y-100748034D01*
X135111263Y-100676921D01*
X135077317Y-100585889D01*
X135080792Y-100488797D01*
X135121158Y-100400424D01*
X135147041Y-100370012D01*
X135177553Y-100339501D01*
X135283996Y-100192994D01*
X135366211Y-100031639D01*
X135402178Y-99920942D01*
X150849500Y-99920942D01*
X150849500Y-100079057D01*
X150890422Y-100231783D01*
X150946839Y-100329501D01*
X150969480Y-100368716D01*
X151081284Y-100480520D01*
X151218216Y-100559577D01*
X151370943Y-100600500D01*
X151529057Y-100600500D01*
X151681784Y-100559577D01*
X151766351Y-100510752D01*
X151858349Y-100479524D01*
X151955296Y-100485879D01*
X152015347Y-100510752D01*
X152143216Y-100584577D01*
X152295943Y-100625500D01*
X152454057Y-100625500D01*
X152606784Y-100584577D01*
X152697152Y-100532403D01*
X152789148Y-100501174D01*
X152886095Y-100507528D01*
X152946148Y-100532402D01*
X152993216Y-100559577D01*
X153145943Y-100600500D01*
X153304057Y-100600500D01*
X153456784Y-100559577D01*
X153593716Y-100480520D01*
X153705520Y-100368716D01*
X153784577Y-100231784D01*
X153825500Y-100079057D01*
X153825500Y-99920943D01*
X153809014Y-99859418D01*
X153784577Y-99768216D01*
X153705520Y-99631284D01*
X153593716Y-99519480D01*
X153590235Y-99517470D01*
X153456783Y-99440422D01*
X153304057Y-99399500D01*
X153145943Y-99399500D01*
X152993215Y-99440423D01*
X152993213Y-99440424D01*
X152902847Y-99492596D01*
X152810848Y-99523825D01*
X152713901Y-99517470D01*
X152653851Y-99492597D01*
X152606782Y-99465422D01*
X152454057Y-99424500D01*
X152295943Y-99424500D01*
X152143215Y-99465423D01*
X152058647Y-99514247D01*
X151966647Y-99545475D01*
X151869700Y-99539120D01*
X151809651Y-99514246D01*
X151681783Y-99440422D01*
X151529057Y-99399500D01*
X151370943Y-99399500D01*
X151218216Y-99440422D01*
X151081286Y-99519478D01*
X150969478Y-99631286D01*
X150890422Y-99768216D01*
X150849500Y-99920942D01*
X135402178Y-99920942D01*
X135422171Y-99859409D01*
X135450500Y-99680546D01*
X135450500Y-99499454D01*
X135422171Y-99320591D01*
X135366211Y-99148361D01*
X135283996Y-98987006D01*
X135177553Y-98840499D01*
X135049501Y-98712447D01*
X134902994Y-98606004D01*
X134902988Y-98606001D01*
X134902985Y-98605999D01*
X134777106Y-98541860D01*
X134700809Y-98481712D01*
X134653337Y-98396945D01*
X134641918Y-98300463D01*
X134668290Y-98206956D01*
X134728438Y-98130659D01*
X134777106Y-98098140D01*
X134832046Y-98070145D01*
X134902994Y-98033996D01*
X135049501Y-97927553D01*
X135177553Y-97799501D01*
X135283996Y-97652994D01*
X135366211Y-97491639D01*
X135422171Y-97319409D01*
X135450500Y-97140546D01*
X135450500Y-96959454D01*
X135422171Y-96780591D01*
X135366211Y-96608361D01*
X135283996Y-96447006D01*
X135177553Y-96300499D01*
X135049501Y-96172447D01*
X134902994Y-96066004D01*
X134902988Y-96066001D01*
X134902985Y-96065999D01*
X134777106Y-96001860D01*
X134700809Y-95941712D01*
X134653337Y-95856945D01*
X134641918Y-95760463D01*
X134668290Y-95666956D01*
X134728438Y-95590659D01*
X134777106Y-95558140D01*
X134832046Y-95530145D01*
X134902994Y-95493996D01*
X135049501Y-95387553D01*
X135177553Y-95259501D01*
X135283996Y-95112994D01*
X135366211Y-94951639D01*
X135422171Y-94779409D01*
X135450500Y-94600546D01*
X135450500Y-94419454D01*
X135422171Y-94240591D01*
X135366211Y-94068361D01*
X135283996Y-93907006D01*
X135177553Y-93760499D01*
X135049501Y-93632447D01*
X134902994Y-93526004D01*
X134902988Y-93526001D01*
X134902985Y-93525999D01*
X134777106Y-93461860D01*
X134700809Y-93401712D01*
X134653337Y-93316945D01*
X134641918Y-93220463D01*
X134668290Y-93126956D01*
X134728438Y-93050659D01*
X134777106Y-93018140D01*
X134832046Y-92990145D01*
X134902994Y-92953996D01*
X135049501Y-92847553D01*
X135177553Y-92719501D01*
X135283996Y-92572994D01*
X135366211Y-92411639D01*
X135422171Y-92239409D01*
X135450500Y-92060546D01*
X135450500Y-91879454D01*
X135422171Y-91700591D01*
X135366211Y-91528361D01*
X135283996Y-91367006D01*
X135177553Y-91220499D01*
X135049501Y-91092447D01*
X134902994Y-90986004D01*
X134902988Y-90986001D01*
X134902985Y-90985999D01*
X134777106Y-90921860D01*
X134700809Y-90861712D01*
X134653337Y-90776945D01*
X134641918Y-90680463D01*
X134668290Y-90586956D01*
X134728438Y-90510659D01*
X134777106Y-90478140D01*
X134832046Y-90450145D01*
X134902994Y-90413996D01*
X135049501Y-90307553D01*
X135177553Y-90179501D01*
X135283996Y-90032994D01*
X135366211Y-89871639D01*
X135422171Y-89699409D01*
X135450500Y-89520546D01*
X135450500Y-89339454D01*
X135422171Y-89160591D01*
X135366211Y-88988361D01*
X135283996Y-88827006D01*
X135177553Y-88680499D01*
X135147041Y-88649987D01*
X135093068Y-88569209D01*
X135074114Y-88473921D01*
X135093068Y-88378633D01*
X135147044Y-88297851D01*
X135227826Y-88243875D01*
X135242783Y-88239045D01*
X135242782Y-88239041D01*
X135392087Y-88183353D01*
X135507187Y-88097189D01*
X135507189Y-88097187D01*
X135593353Y-87982087D01*
X135612038Y-87931989D01*
X140699500Y-87931989D01*
X140699500Y-88010438D01*
X140699500Y-94452405D01*
X140699500Y-94500000D01*
X140699500Y-94618011D01*
X140730307Y-94852014D01*
X140791394Y-95079993D01*
X140815595Y-95138420D01*
X140881713Y-95298043D01*
X140881718Y-95298054D01*
X140989075Y-95484000D01*
X140999727Y-95502450D01*
X141143408Y-95689699D01*
X141310301Y-95856592D01*
X141497550Y-96000273D01*
X141497559Y-96000278D01*
X141701945Y-96118281D01*
X141701948Y-96118282D01*
X141701951Y-96118284D01*
X141920007Y-96208606D01*
X142147986Y-96269693D01*
X142381989Y-96300500D01*
X157618011Y-96300500D01*
X157852014Y-96269693D01*
X158079993Y-96208606D01*
X158298049Y-96118284D01*
X158502450Y-96000273D01*
X158689699Y-95856592D01*
X158856592Y-95689699D01*
X159000273Y-95502450D01*
X159118284Y-95298049D01*
X159208606Y-95079993D01*
X159269693Y-94852014D01*
X159300500Y-94618011D01*
X159300500Y-94500000D01*
X159300500Y-94452405D01*
X159300500Y-88010438D01*
X159300500Y-87931989D01*
X159269693Y-87697986D01*
X159208606Y-87470007D01*
X159118284Y-87251951D01*
X159000273Y-87047550D01*
X158856592Y-86860301D01*
X158689699Y-86693408D01*
X158502450Y-86549727D01*
X158502440Y-86549721D01*
X158298054Y-86431718D01*
X158298043Y-86431713D01*
X158177222Y-86381667D01*
X158079993Y-86341394D01*
X157852014Y-86280307D01*
X157852007Y-86280306D01*
X157618011Y-86249500D01*
X157539562Y-86249500D01*
X142547595Y-86249500D01*
X142500000Y-86249500D01*
X142381989Y-86249500D01*
X142147992Y-86280306D01*
X142147990Y-86280306D01*
X142147986Y-86280307D01*
X141975640Y-86326487D01*
X141920010Y-86341393D01*
X141920007Y-86341394D01*
X141701956Y-86431713D01*
X141701945Y-86431718D01*
X141497559Y-86549721D01*
X141497549Y-86549727D01*
X141310301Y-86693408D01*
X141310297Y-86693411D01*
X141143411Y-86860297D01*
X141143408Y-86860301D01*
X140999727Y-87047549D01*
X140999721Y-87047559D01*
X140881718Y-87251945D01*
X140881713Y-87251956D01*
X140791394Y-87470007D01*
X140791393Y-87470010D01*
X140787915Y-87482992D01*
X140730307Y-87697986D01*
X140730306Y-87697990D01*
X140730306Y-87697992D01*
X140712127Y-87836078D01*
X140699500Y-87931989D01*
X135612038Y-87931989D01*
X135643597Y-87847376D01*
X135643598Y-87847371D01*
X135649999Y-87787832D01*
X135650000Y-87787825D01*
X135650000Y-87140001D01*
X135649999Y-87140000D01*
X134733012Y-87140000D01*
X134765925Y-87082993D01*
X134800000Y-86955826D01*
X134800000Y-86824174D01*
X134765925Y-86697007D01*
X134733012Y-86640000D01*
X135649999Y-86640000D01*
X135650000Y-86639999D01*
X135650000Y-85992175D01*
X135649999Y-85992167D01*
X135643598Y-85932628D01*
X135643596Y-85932621D01*
X135593353Y-85797912D01*
X135507189Y-85682812D01*
X135507187Y-85682810D01*
X135392087Y-85596646D01*
X135242782Y-85540959D01*
X135243766Y-85538320D01*
X135177460Y-85508034D01*
X135111263Y-85436921D01*
X135077317Y-85345889D01*
X135080792Y-85248797D01*
X135121158Y-85160424D01*
X135147041Y-85130012D01*
X135177553Y-85099501D01*
X135283996Y-84952994D01*
X135366211Y-84791639D01*
X135422171Y-84619409D01*
X135450500Y-84440546D01*
X135450500Y-84259454D01*
X135422171Y-84080591D01*
X135366211Y-83908361D01*
X135283996Y-83747006D01*
X135177553Y-83600499D01*
X135049501Y-83472447D01*
X134902994Y-83366004D01*
X134902988Y-83366001D01*
X134902985Y-83365999D01*
X134777106Y-83301860D01*
X134700809Y-83241712D01*
X134653337Y-83156945D01*
X134641918Y-83060463D01*
X134668290Y-82966956D01*
X134728438Y-82890659D01*
X134777106Y-82858140D01*
X134832046Y-82830145D01*
X134902994Y-82793996D01*
X135049501Y-82687553D01*
X135177553Y-82559501D01*
X135283996Y-82412994D01*
X135366211Y-82251639D01*
X135422171Y-82079409D01*
X135450500Y-81900546D01*
X135450500Y-81719454D01*
X135422171Y-81540591D01*
X135415869Y-81521196D01*
X135366213Y-81368367D01*
X135366212Y-81368366D01*
X135366211Y-81368361D01*
X135283996Y-81207006D01*
X135177553Y-81060499D01*
X135049501Y-80932447D01*
X134902994Y-80826004D01*
X134902991Y-80826002D01*
X134902985Y-80825998D01*
X134795751Y-80771360D01*
X134719453Y-80711212D01*
X134671982Y-80626445D01*
X134660563Y-80529963D01*
X134686935Y-80436456D01*
X134747083Y-80360158D01*
X134831850Y-80312687D01*
X134908795Y-80300500D01*
X165121579Y-80300500D01*
X165216867Y-80319454D01*
G37*
%TD.AperFunction*%
%TD*%
M02*
