%TF.GenerationSoftware,KiCad,Pcbnew,9.0.1*%
%TF.CreationDate,2025-12-21T16:37:51-06:00*%
%TF.ProjectId,ProtoCarrier_v1,50726f74-6f43-4617-9272-6965725f7631,rev?*%
%TF.SameCoordinates,Original*%
%TF.FileFunction,Soldermask,Top*%
%TF.FilePolarity,Negative*%
%FSLAX46Y46*%
G04 Gerber Fmt 4.6, Leading zero omitted, Abs format (unit mm)*
G04 Created by KiCad (PCBNEW 9.0.1) date 2025-12-21 16:37:51*
%MOMM*%
%LPD*%
G01*
G04 APERTURE LIST*
G04 Aperture macros list*
%AMRoundRect*
0 Rectangle with rounded corners*
0 $1 Rounding radius*
0 $2 $3 $4 $5 $6 $7 $8 $9 X,Y pos of 4 corners*
0 Add a 4 corners polygon primitive as box body*
4,1,4,$2,$3,$4,$5,$6,$7,$8,$9,$2,$3,0*
0 Add four circle primitives for the rounded corners*
1,1,$1+$1,$2,$3*
1,1,$1+$1,$4,$5*
1,1,$1+$1,$6,$7*
1,1,$1+$1,$8,$9*
0 Add four rect primitives between the rounded corners*
20,1,$1+$1,$2,$3,$4,$5,0*
20,1,$1+$1,$4,$5,$6,$7,0*
20,1,$1+$1,$6,$7,$8,$9,0*
20,1,$1+$1,$8,$9,$2,$3,0*%
G04 Aperture macros list end*
%ADD10RoundRect,0.123750X0.288750X0.338750X-0.288750X0.338750X-0.288750X-0.338750X0.288750X-0.338750X0*%
%ADD11RoundRect,0.123750X0.288750X0.351250X-0.288750X0.351250X-0.288750X-0.351250X0.288750X-0.351250X0*%
%ADD12RoundRect,0.082500X-0.197500X-0.192500X0.197500X-0.192500X0.197500X0.192500X-0.197500X0.192500X0*%
%ADD13RoundRect,0.050000X0.200000X0.275000X-0.200000X0.275000X-0.200000X-0.275000X0.200000X-0.275000X0*%
%ADD14RoundRect,0.135000X-0.185000X0.135000X-0.185000X-0.135000X0.185000X-0.135000X0.185000X0.135000X0*%
%ADD15RoundRect,0.093750X-0.093750X-0.106250X0.093750X-0.106250X0.093750X0.106250X-0.093750X0.106250X0*%
%ADD16R,1.000000X1.600000*%
%ADD17RoundRect,0.225000X0.375000X-0.225000X0.375000X0.225000X-0.375000X0.225000X-0.375000X-0.225000X0*%
%ADD18RoundRect,0.082500X0.197500X0.192500X-0.197500X0.192500X-0.197500X-0.192500X0.197500X-0.192500X0*%
%ADD19RoundRect,0.050000X-0.200000X-0.275000X0.200000X-0.275000X0.200000X0.275000X-0.200000X0.275000X0*%
%ADD20RoundRect,0.135000X0.185000X-0.135000X0.185000X0.135000X-0.185000X0.135000X-0.185000X-0.135000X0*%
%ADD21C,1.700000*%
%ADD22R,1.700000X1.700000*%
%ADD23RoundRect,0.082500X-0.192500X0.197500X-0.192500X-0.197500X0.192500X-0.197500X0.192500X0.197500X0*%
%ADD24RoundRect,0.082500X0.192500X-0.197500X0.192500X0.197500X-0.192500X0.197500X-0.192500X-0.197500X0*%
%ADD25RoundRect,0.050100X-0.099900X0.174900X-0.099900X-0.174900X0.099900X-0.174900X0.099900X0.174900X0*%
%ADD26RoundRect,0.050100X-0.099900X0.324900X-0.099900X-0.324900X0.099900X-0.324900X0.099900X0.324900X0*%
%ADD27RoundRect,0.050350X-0.424650X0.449650X-0.424650X-0.449650X0.424650X-0.449650X0.424650X0.449650X0*%
%ADD28RoundRect,0.123750X0.338750X-0.288750X0.338750X0.288750X-0.338750X0.288750X-0.338750X-0.288750X0*%
%ADD29RoundRect,0.123750X0.351250X-0.288750X0.351250X0.288750X-0.351250X0.288750X-0.351250X-0.288750X0*%
%ADD30RoundRect,0.102000X0.325000X-0.525000X0.325000X0.525000X-0.325000X0.525000X-0.325000X-0.525000X0*%
%ADD31RoundRect,0.135000X0.540000X-0.315000X0.540000X0.315000X-0.540000X0.315000X-0.540000X-0.315000X0*%
%ADD32RoundRect,0.135000X0.315000X0.540000X-0.315000X0.540000X-0.315000X-0.540000X0.315000X-0.540000X0*%
%ADD33RoundRect,0.150000X-0.512500X-0.150000X0.512500X-0.150000X0.512500X0.150000X-0.512500X0.150000X0*%
%ADD34RoundRect,0.075000X-0.075000X-0.200000X0.075000X-0.200000X0.075000X0.200000X-0.075000X0.200000X0*%
%ADD35C,0.650000*%
%ADD36RoundRect,0.150000X-0.150000X-0.425000X0.150000X-0.425000X0.150000X0.425000X-0.150000X0.425000X0*%
%ADD37RoundRect,0.075000X-0.075000X-0.500000X0.075000X-0.500000X0.075000X0.500000X-0.075000X0.500000X0*%
%ADD38O,1.000000X2.100000*%
%ADD39O,1.000000X1.800000*%
%ADD40R,2.400000X1.100000*%
%ADD41R,1.100000X2.400000*%
G04 APERTURE END LIST*
D10*
%TO.C,C14*%
X162896078Y-107503922D03*
D11*
X161421078Y-107491422D03*
%TD*%
D12*
%TO.C,C1*%
X139460000Y-111800000D03*
X140420000Y-111800000D03*
%TD*%
D13*
%TO.C,LED1*%
X162375000Y-113200000D03*
X161075000Y-113200000D03*
X161075000Y-114150000D03*
X162375000Y-114150000D03*
%TD*%
D14*
%TO.C,R5*%
X162550000Y-110830002D03*
X162550000Y-111850000D03*
%TD*%
D15*
%TO.C,U1*%
X145075000Y-109200000D03*
X145075000Y-109850000D03*
X145075000Y-110500000D03*
X146850000Y-110500000D03*
X146850000Y-109850000D03*
X146850000Y-109200000D03*
D16*
X145962500Y-109850000D03*
%TD*%
D17*
%TO.C,D1*%
X137500000Y-111400000D03*
X137500000Y-108100000D03*
%TD*%
D18*
%TO.C,C2*%
X142360000Y-111800000D03*
X141400000Y-111800000D03*
%TD*%
D19*
%TO.C,LED4*%
X163900000Y-118400000D03*
X165200000Y-118400000D03*
X165200000Y-117450000D03*
X163900000Y-117450000D03*
%TD*%
D20*
%TO.C,R3*%
X159950000Y-111869998D03*
X159950000Y-110850000D03*
%TD*%
D13*
%TO.C,LED2*%
X162375000Y-115325000D03*
X161075000Y-115325000D03*
X161075000Y-116275000D03*
X162375000Y-116275000D03*
%TD*%
D21*
%TO.C,J2*%
X134300000Y-112970000D03*
D22*
X134300000Y-110430000D03*
%TD*%
D23*
%TO.C,C11*%
X166150000Y-115345000D03*
X166150000Y-116305000D03*
%TD*%
D24*
%TO.C,C13*%
X163475000Y-100310000D03*
X163475000Y-99350000D03*
%TD*%
D23*
%TO.C,C10*%
X166150000Y-117445000D03*
X166150000Y-118405000D03*
%TD*%
D19*
%TO.C,LED5*%
X163900000Y-116275000D03*
X165200000Y-116275000D03*
X165200000Y-115325000D03*
X163900000Y-115325000D03*
%TD*%
D13*
%TO.C,LED3*%
X162375000Y-117450000D03*
X161075000Y-117450000D03*
X161075000Y-118400000D03*
X162375000Y-118400000D03*
%TD*%
D25*
%TO.C,Q1*%
X166250000Y-109949999D03*
X165600000Y-109950000D03*
X164950000Y-109949999D03*
X164950000Y-111900001D03*
X165600000Y-111900000D03*
X166250000Y-111900001D03*
D26*
X164950000Y-111020001D03*
D27*
X165925000Y-110925000D03*
%TD*%
D14*
%TO.C,R4*%
X161259999Y-110840001D03*
X161259999Y-111859999D03*
%TD*%
D28*
%TO.C,C4*%
X156450000Y-113825000D03*
D29*
X156462500Y-112350000D03*
%TD*%
D12*
%TO.C,C3*%
X153165000Y-110325000D03*
X154125000Y-110325000D03*
%TD*%
D24*
%TO.C,C8*%
X160125000Y-116255000D03*
X160125000Y-115295000D03*
%TD*%
D21*
%TO.C,J1*%
X134300000Y-81810000D03*
X134300000Y-84350000D03*
D22*
X134300000Y-86890000D03*
D21*
X134300000Y-89430000D03*
X134300000Y-91970000D03*
X134300000Y-94510000D03*
X134300000Y-97050000D03*
X134300000Y-99590000D03*
D22*
X134300000Y-102130000D03*
D21*
X134300000Y-104670000D03*
X134300000Y-107210000D03*
%TD*%
D30*
%TO.C,SW1*%
X136675000Y-117403500D03*
X136675000Y-113253500D03*
X138825000Y-117403500D03*
X138825000Y-113253500D03*
%TD*%
D20*
%TO.C,R2*%
X152112500Y-110622501D03*
X152112500Y-109602503D03*
%TD*%
D19*
%TO.C,LED6*%
X163900000Y-114150000D03*
X165200000Y-114150000D03*
X165200000Y-113200000D03*
X163900000Y-113200000D03*
%TD*%
D31*
%TO.C,C5*%
X158275000Y-113925000D03*
X158275000Y-112125000D03*
%TD*%
D32*
%TO.C,C6*%
X163000000Y-108950000D03*
X161200000Y-108950000D03*
%TD*%
D17*
%TO.C,D3*%
X156650000Y-118750000D03*
X156650000Y-115450000D03*
%TD*%
D20*
%TO.C,R1*%
X147912500Y-110642499D03*
X147912500Y-109622501D03*
%TD*%
D33*
%TO.C,U3*%
X155612500Y-108137501D03*
X155612500Y-109087500D03*
X155612500Y-110037499D03*
X157887500Y-110037499D03*
X157887500Y-108137501D03*
%TD*%
D34*
%TO.C,U2*%
X149012500Y-110572500D03*
X149512500Y-110572501D03*
X150012500Y-110572500D03*
X150512500Y-110572501D03*
X151012500Y-110572500D03*
X151012500Y-109802500D03*
X150512500Y-109802499D03*
X150012500Y-109802500D03*
X149512500Y-109802499D03*
X149012500Y-109802500D03*
%TD*%
D24*
%TO.C,C7*%
X160125000Y-114155000D03*
X160125000Y-113195000D03*
%TD*%
D35*
%TO.C,J4*%
X147110000Y-113395000D03*
X152890000Y-113395000D03*
D36*
X146800000Y-112320000D03*
X147600000Y-112320000D03*
D37*
X148750000Y-112320000D03*
X149750000Y-112320000D03*
X150250000Y-112320000D03*
X151250000Y-112320000D03*
D36*
X152400000Y-112320000D03*
X153200000Y-112320000D03*
X153200000Y-112320000D03*
X152400000Y-112320000D03*
D37*
X151750000Y-112320000D03*
X150750000Y-112320000D03*
X149250000Y-112320000D03*
X148250000Y-112320000D03*
D36*
X147600000Y-112320000D03*
X146800000Y-112320000D03*
D38*
X145680000Y-112895000D03*
D39*
X145680000Y-117075000D03*
D38*
X154320000Y-112895000D03*
D39*
X154320000Y-117075000D03*
%TD*%
D40*
%TO.C,MOD1*%
X138400000Y-103000000D03*
X138400000Y-100625000D03*
X138400000Y-98250000D03*
X138400000Y-95875000D03*
X138400000Y-93500000D03*
X138400000Y-91125000D03*
X138400000Y-88750000D03*
X138400000Y-86375000D03*
X138400000Y-84000000D03*
D41*
X140500000Y-81900000D03*
X142875000Y-81900000D03*
X145250000Y-81900000D03*
X154750000Y-81900000D03*
X157125000Y-81900000D03*
X159500000Y-81900000D03*
D40*
X161600000Y-84000000D03*
X161600000Y-86375000D03*
X161600000Y-88750000D03*
X161600000Y-91125000D03*
X161600000Y-93500000D03*
X161600000Y-95875000D03*
X161600000Y-98250000D03*
X161600000Y-100625000D03*
X161600000Y-103000000D03*
D41*
X159500000Y-105100000D03*
X157125000Y-105100000D03*
X154750000Y-105100000D03*
X152375000Y-105100000D03*
X150000000Y-105100000D03*
X147625000Y-105100000D03*
X145250000Y-105100000D03*
X142875000Y-105100000D03*
X140500000Y-105100000D03*
%TD*%
D24*
%TO.C,C9*%
X160125000Y-118405000D03*
X160125000Y-117445000D03*
%TD*%
D30*
%TO.C,SW2*%
X141075000Y-117400000D03*
X141075000Y-113250000D03*
X143225000Y-117400000D03*
X143225000Y-113250000D03*
%TD*%
D17*
%TO.C,D2*%
X134450000Y-118400000D03*
X134450000Y-115100000D03*
%TD*%
D21*
%TO.C,J3*%
X165750000Y-81800000D03*
X165750000Y-84340000D03*
X165750000Y-86880000D03*
D22*
X165750000Y-89420000D03*
D21*
X165750000Y-91960000D03*
X165750000Y-94500000D03*
X165750000Y-97040000D03*
X165750000Y-99580000D03*
D22*
X165750000Y-102120000D03*
D21*
X165750000Y-104660000D03*
X165750000Y-107200000D03*
%TD*%
D23*
%TO.C,C12*%
X166150000Y-113195000D03*
X166150000Y-114155000D03*
%TD*%
M02*
