M48
; DRILL file {KiCad 9.0.1} date 2025-12-21T16:38:01-0600
; FORMAT={-:-/ absolute / metric / decimal}
; #@! TF.CreationDate,2025-12-21T16:38:01-06:00
; #@! TF.GenerationSoftware,Kicad,Pcbnew,9.0.1
; #@! TF.FileFunction,Plated,1,4,PTH
FMAT,2
METRIC
; #@! TA.AperFunction,Plated,PTH,ViaDrill
T1C0.300
; #@! TA.AperFunction,Plated,PTH,ComponentDrill
T2C0.600
; #@! TA.AperFunction,Plated,PTH,ComponentDrill
T3C1.000
%
G90
G05
T1
X135.95Y-108.85
X136.2Y-101.15
X136.3Y-90.45
X136.5Y-85.5
X136.65Y-82.95
X136.775Y-93.5
X137.4Y-106.0
X137.612Y-115.328
X138.4Y-92.525
X138.4Y-94.475
X138.85Y-80.95
X138.85Y-116.425
X138.962Y-97.14
X139.1Y-89.95
X139.35Y-101.8
X139.45Y-110.875
X139.525Y-105.1
X139.85Y-109.3
X140.15Y-87.55
X140.5Y-103.475
X140.5Y-106.725
X140.825Y-84.775
X140.9Y-101.025
X140.925Y-111.225
X141.475Y-105.1
X141.7Y-97.35
X142.012Y-115.325
X142.35Y-108.45
X142.425Y-117.4
X142.5Y-101.725
X142.875Y-83.525
X143.95Y-85.6
X144.05Y-81.3
X144.05Y-103.225
X144.075Y-82.425
X144.25Y-98.475
X144.5Y-109.85
X145.275Y-83.525
X145.45Y-119.175
X145.95Y-111.1
X145.975Y-108.675
X146.1Y-101.75
X146.65Y-105.1
X146.7Y-97.2
X147.125Y-84.75
X147.6Y-103.4
X147.625Y-106.725
X147.625Y-115.25
X147.675Y-108.975
X147.975Y-80.925
X148.175Y-119.15
X148.45Y-117.925
X148.6Y-105.1
X149.55Y-98.425
X150.012Y-109.112
X150.225Y-85.625
X150.35Y-119.15
X151.45Y-100.0
X151.8Y-80.9
X152.075Y-116.725
X152.2Y-119.2
X152.375Y-100.025
X152.525Y-109.0
X152.625Y-97.175
X152.85Y-84.625
X153.225Y-100.0
X153.7Y-101.175
X153.775Y-105.1
X154.65Y-110.025
X154.725Y-83.525
X154.75Y-103.475
X154.75Y-106.725
X155.275Y-119.175
X155.6Y-98.55
X155.725Y-105.1
X155.825Y-117.05
X155.925Y-81.3
X155.925Y-82.45
X156.05Y-85.5
X156.05Y-111.15
X156.217Y-106.579
X157.1Y-109.175
X157.125Y-83.525
X158.175Y-97.2
X158.325Y-104.675
X159.15Y-109.525
X159.4Y-112.725
X159.425Y-115.3
X159.425Y-117.425
X159.625Y-101.75
X159.95Y-85.15
X159.975Y-98.25
X160.0Y-87.6
X160.0Y-92.45
X160.85Y-105.95
X160.9Y-89.925
X160.975Y-94.7
X161.35Y-81.05
X161.375Y-104.675
X161.6Y-97.275
X161.6Y-99.225
X162.175Y-109.45
X163.0Y-110.05
X163.1Y-115.8
X163.15Y-113.775
X163.15Y-117.975
X163.225Y-98.25
X163.55Y-88.05
X163.55Y-93.3
X163.575Y-90.725
X163.6Y-83.025
X163.6Y-85.6
X163.718Y-96.211
X163.8Y-109.475
X164.325Y-111.025
X164.325Y-111.9
X164.625Y-113.2
X164.925Y-109.025
X165.7Y-114.8
X165.7Y-116.925
X165.775Y-119.1
X165.925Y-109.375
X166.85Y-116.325
X166.9Y-114.15
T3
X134.3Y-81.81
X134.3Y-84.35
X134.3Y-86.89
X134.3Y-89.43
X134.3Y-91.97
X134.3Y-94.51
X134.3Y-97.05
X134.3Y-99.59
X134.3Y-102.13
X134.3Y-104.67
X134.3Y-107.21
X134.3Y-110.43
X134.3Y-112.97
X165.75Y-81.8
X165.75Y-84.34
X165.75Y-86.88
X165.75Y-89.42
X165.75Y-91.96
X165.75Y-94.5
X165.75Y-97.04
X165.75Y-99.58
X165.75Y-102.12
X165.75Y-104.66
X165.75Y-107.2
T2
G00X145.68Y-112.345
M15
G01X145.68Y-113.445
M16
G05
G00X145.68Y-116.675
M15
G01X145.68Y-117.475
M16
G05
G00X154.32Y-112.345
M15
G01X154.32Y-113.445
M16
G05
G00X154.32Y-116.675
M15
G01X154.32Y-117.475
M16
G05
M30
