%TF.GenerationSoftware,KiCad,Pcbnew,9.0.1*%
%TF.CreationDate,2025-12-21T16:37:51-06:00*%
%TF.ProjectId,ProtoCarrier_v1,50726f74-6f43-4617-9272-6965725f7631,rev?*%
%TF.SameCoordinates,Original*%
%TF.FileFunction,Legend,Top*%
%TF.FilePolarity,Positive*%
%FSLAX46Y46*%
G04 Gerber Fmt 4.6, Leading zero omitted, Abs format (unit mm)*
G04 Created by KiCad (PCBNEW 9.0.1) date 2025-12-21 16:37:51*
%MOMM*%
%LPD*%
G01*
G04 APERTURE LIST*
%ADD10C,0.150000*%
%ADD11C,0.200000*%
%ADD12C,0.120000*%
%ADD13C,0.100000*%
%ADD14C,0.127000*%
G04 APERTURE END LIST*
D10*
X133043750Y-114950000D02*
X133043750Y-114400000D01*
X132781250Y-114675000D02*
X133318750Y-114675000D01*
D11*
G36*
X141605512Y-118675005D02*
G01*
X141662709Y-118688784D01*
X141714680Y-118711420D01*
X141760241Y-118742533D01*
X141798771Y-118782585D01*
X141830543Y-118832930D01*
X141852430Y-118887598D01*
X141866255Y-118950540D01*
X141871130Y-119023135D01*
X141865719Y-119101655D01*
X141850583Y-119167613D01*
X141826961Y-119222986D01*
X141793020Y-119273737D01*
X141753549Y-119313143D01*
X141708360Y-119342787D01*
X141657206Y-119364270D01*
X141603061Y-119377141D01*
X141545029Y-119381500D01*
X141477730Y-119375775D01*
X141417510Y-119359091D01*
X141363232Y-119331296D01*
X141314567Y-119291435D01*
X141275634Y-119241635D01*
X141245120Y-119177313D01*
X141226898Y-119105958D01*
X141220473Y-119023135D01*
X141226909Y-118941040D01*
X141245120Y-118870727D01*
X141275167Y-118807413D01*
X141312250Y-118759352D01*
X141358942Y-118720928D01*
X141413577Y-118693040D01*
X141474482Y-118676064D01*
X141541869Y-118670265D01*
X141605512Y-118675005D01*
G37*
G36*
X142879580Y-118675005D02*
G01*
X142936777Y-118688784D01*
X142988748Y-118711420D01*
X143034309Y-118742533D01*
X143072840Y-118782585D01*
X143104611Y-118832930D01*
X143126498Y-118887598D01*
X143140324Y-118950540D01*
X143145198Y-119023135D01*
X143139787Y-119101655D01*
X143124651Y-119167613D01*
X143101030Y-119222986D01*
X143067089Y-119273737D01*
X143027618Y-119313143D01*
X142982428Y-119342787D01*
X142931275Y-119364270D01*
X142877130Y-119377141D01*
X142819097Y-119381500D01*
X142751798Y-119375775D01*
X142691578Y-119359091D01*
X142637301Y-119331296D01*
X142588636Y-119291435D01*
X142549702Y-119241635D01*
X142519188Y-119177313D01*
X142500966Y-119105958D01*
X142494541Y-119023135D01*
X142500977Y-118941040D01*
X142519188Y-118870727D01*
X142549236Y-118807413D01*
X142586318Y-118759352D01*
X142633011Y-118720928D01*
X142687646Y-118693040D01*
X142748550Y-118676064D01*
X142815937Y-118670265D01*
X142879580Y-118675005D01*
G37*
G36*
X140432860Y-119089007D02*
G01*
X140491773Y-119100879D01*
X140534074Y-119118267D01*
X140567033Y-119144623D01*
X140587230Y-119179872D01*
X140594533Y-119227016D01*
X140588261Y-119271089D01*
X140570718Y-119305635D01*
X140542101Y-119332966D01*
X140500358Y-119354043D01*
X140441542Y-119368286D01*
X140360280Y-119373684D01*
X140111912Y-119373684D01*
X140111912Y-119084501D01*
X140352415Y-119084501D01*
X140432860Y-119089007D01*
G37*
G36*
X140384111Y-118685362D02*
G01*
X140444895Y-118694101D01*
X140486956Y-118706474D01*
X140520106Y-118727472D01*
X140540579Y-118759069D01*
X140548188Y-118805270D01*
X140543272Y-118838640D01*
X140528808Y-118868224D01*
X140509597Y-118892022D01*
X140485908Y-118909692D01*
X140457113Y-118921896D01*
X140405103Y-118931934D01*
X140323344Y-118936001D01*
X140111912Y-118936001D01*
X140111912Y-118681988D01*
X140299048Y-118681988D01*
X140384111Y-118685362D01*
G37*
G36*
X144533607Y-119656742D02*
G01*
X139763037Y-119656742D01*
X139763037Y-118651824D01*
X139874148Y-118651824D01*
X139874148Y-118936001D01*
X139874148Y-119373684D01*
X139874148Y-119403848D01*
X139878498Y-119446726D01*
X139890026Y-119477715D01*
X139907362Y-119499774D01*
X139931967Y-119515498D01*
X139967500Y-119526003D01*
X140017818Y-119530000D01*
X140369689Y-119530000D01*
X140458181Y-119527885D01*
X140529510Y-119522123D01*
X140595604Y-119511037D01*
X140651060Y-119494951D01*
X140703798Y-119469350D01*
X140748364Y-119436179D01*
X140785601Y-119394811D01*
X140813181Y-119347980D01*
X140829793Y-119297486D01*
X140835457Y-119242342D01*
X140829072Y-119183832D01*
X140810879Y-119134105D01*
X140781405Y-119091403D01*
X140739925Y-119054553D01*
X140684623Y-119023135D01*
X140979478Y-119023135D01*
X140983691Y-119097962D01*
X140996017Y-119167895D01*
X141016133Y-119233489D01*
X141045019Y-119296249D01*
X141081186Y-119351545D01*
X141124623Y-119400184D01*
X141175853Y-119442497D01*
X141235245Y-119478255D01*
X141303753Y-119507590D01*
X141376508Y-119528305D01*
X141457057Y-119541169D01*
X141546574Y-119545631D01*
X141636719Y-119541257D01*
X141716971Y-119528710D01*
X141788621Y-119508628D01*
X141856077Y-119479938D01*
X141915249Y-119444331D01*
X141966980Y-119401589D01*
X142010995Y-119352540D01*
X142047245Y-119297650D01*
X142075820Y-119236236D01*
X142095606Y-119171959D01*
X142107882Y-119101645D01*
X142112124Y-119024539D01*
X142112017Y-119023135D01*
X142253547Y-119023135D01*
X142257759Y-119097962D01*
X142270086Y-119167895D01*
X142290201Y-119233489D01*
X142319088Y-119296249D01*
X142355255Y-119351545D01*
X142398691Y-119400184D01*
X142449921Y-119442497D01*
X142509314Y-119478255D01*
X142577822Y-119507590D01*
X142650577Y-119528305D01*
X142731125Y-119541169D01*
X142820642Y-119545631D01*
X142910788Y-119541257D01*
X142991040Y-119528710D01*
X143062690Y-119508628D01*
X143130145Y-119479938D01*
X143189317Y-119444331D01*
X143241048Y-119401589D01*
X143285063Y-119352540D01*
X143321313Y-119297650D01*
X143349889Y-119236236D01*
X143369675Y-119171959D01*
X143381950Y-119101645D01*
X143386192Y-119024539D01*
X143378323Y-118920798D01*
X143355850Y-118829957D01*
X143319905Y-118750071D01*
X143282526Y-118694523D01*
X143237795Y-118646332D01*
X143194457Y-118612013D01*
X143439138Y-118612013D01*
X143446769Y-118647190D01*
X143468911Y-118674112D01*
X143490412Y-118686460D01*
X143519725Y-118694586D01*
X143559284Y-118697620D01*
X143811514Y-118697620D01*
X143811514Y-119420518D01*
X143815770Y-119461376D01*
X143827220Y-119491864D01*
X143844728Y-119514429D01*
X143868906Y-119531669D01*
X143897182Y-119542028D01*
X143930817Y-119545631D01*
X143963956Y-119542073D01*
X143991841Y-119531839D01*
X144015713Y-119514795D01*
X144032978Y-119492431D01*
X144044335Y-119461864D01*
X144048576Y-119420518D01*
X144048576Y-118697620D01*
X144300876Y-118697620D01*
X144356266Y-118691113D01*
X144391951Y-118674112D01*
X144414696Y-118647133D01*
X144422496Y-118612013D01*
X144414782Y-118576760D01*
X144392302Y-118549548D01*
X144370539Y-118537003D01*
X144340884Y-118528752D01*
X144300876Y-118525673D01*
X143559284Y-118525673D01*
X143505820Y-118532010D01*
X143470105Y-118548815D01*
X143447127Y-118575685D01*
X143439138Y-118612013D01*
X143194457Y-118612013D01*
X143185385Y-118604829D01*
X143124624Y-118569637D01*
X143059225Y-118542621D01*
X142986691Y-118522789D01*
X142905991Y-118510430D01*
X142815937Y-118506133D01*
X142728402Y-118510373D01*
X142649934Y-118522571D01*
X142579367Y-118542159D01*
X142512835Y-118570030D01*
X142454185Y-118604626D01*
X142402623Y-118646146D01*
X142358625Y-118693867D01*
X142321661Y-118748463D01*
X142291746Y-118810765D01*
X142270855Y-118875990D01*
X142257975Y-118946548D01*
X142253547Y-119023135D01*
X142112017Y-119023135D01*
X142104254Y-118920798D01*
X142081781Y-118829957D01*
X142045836Y-118750071D01*
X142008457Y-118694523D01*
X141963727Y-118646332D01*
X141911317Y-118604829D01*
X141850555Y-118569637D01*
X141785157Y-118542621D01*
X141712622Y-118522789D01*
X141631922Y-118510430D01*
X141541869Y-118506133D01*
X141454333Y-118510373D01*
X141375866Y-118522571D01*
X141305298Y-118542159D01*
X141238766Y-118570030D01*
X141180116Y-118604626D01*
X141128555Y-118646146D01*
X141084556Y-118693867D01*
X141047593Y-118748463D01*
X141017678Y-118810765D01*
X140996787Y-118875990D01*
X140983907Y-118946548D01*
X140979478Y-119023135D01*
X140684623Y-119023135D01*
X140684546Y-119023091D01*
X140612369Y-118997306D01*
X140675465Y-118965369D01*
X140721952Y-118928178D01*
X140754481Y-118885466D01*
X140774326Y-118836140D01*
X140781248Y-118778403D01*
X140777041Y-118735340D01*
X140764606Y-118694994D01*
X140744248Y-118657275D01*
X140716294Y-118622882D01*
X140682132Y-118593037D01*
X140643406Y-118569026D01*
X140592610Y-118547841D01*
X140534355Y-118534588D01*
X140470899Y-118528078D01*
X140390896Y-118525673D01*
X140017818Y-118525673D01*
X139968545Y-118529555D01*
X139933181Y-118539828D01*
X139908205Y-118555287D01*
X139890485Y-118576993D01*
X139878644Y-118608090D01*
X139874148Y-118651824D01*
X139763037Y-118651824D01*
X139763037Y-118395022D01*
X144533607Y-118395022D01*
X144533607Y-119656742D01*
G37*
G36*
X136684774Y-118686708D02*
G01*
X136735131Y-118696826D01*
X136773314Y-118716288D01*
X136801629Y-118743232D01*
X136819511Y-118776356D01*
X136825644Y-118815101D01*
X136821972Y-118848997D01*
X136811827Y-118875802D01*
X136795871Y-118897044D01*
X136760810Y-118921708D01*
X136709290Y-118939176D01*
X136648994Y-118948217D01*
X136568640Y-118951632D01*
X136361912Y-118951632D01*
X136361912Y-118681988D01*
X136574889Y-118681988D01*
X136684774Y-118686708D01*
G37*
G36*
X139338764Y-119656742D02*
G01*
X136013037Y-119656742D01*
X136013037Y-118651641D01*
X136124148Y-118651641D01*
X136124148Y-118951632D01*
X136124148Y-119420334D01*
X136128126Y-119460425D01*
X136138876Y-119490814D01*
X136155326Y-119513696D01*
X136178428Y-119531126D01*
X136207221Y-119541822D01*
X136243452Y-119545631D01*
X136277117Y-119542071D01*
X136305218Y-119531876D01*
X136329050Y-119514979D01*
X136346263Y-119492747D01*
X136357643Y-119462007D01*
X136361912Y-119420029D01*
X136361912Y-119100132D01*
X136441401Y-119100132D01*
X136500049Y-119104020D01*
X136543431Y-119114359D01*
X136581952Y-119133606D01*
X136623200Y-119167238D01*
X136662416Y-119211181D01*
X136712801Y-119280200D01*
X136806334Y-119415511D01*
X136858718Y-119488173D01*
X136880165Y-119510962D01*
X136905273Y-119529328D01*
X136934833Y-119541356D01*
X136972404Y-119545631D01*
X137004545Y-119542651D01*
X137031599Y-119534152D01*
X137054673Y-119520449D01*
X137072116Y-119502705D01*
X137083426Y-119482248D01*
X137087002Y-119462405D01*
X137082330Y-119439560D01*
X137062144Y-119391758D01*
X137033683Y-119339724D01*
X136992767Y-119277269D01*
X136971408Y-119249609D01*
X137242820Y-119249609D01*
X137247935Y-119291193D01*
X137263897Y-119334818D01*
X137292255Y-119381378D01*
X137328613Y-119423570D01*
X137371280Y-119459467D01*
X137420757Y-119489516D01*
X137497535Y-119519525D01*
X137590498Y-119538736D01*
X137703111Y-119545631D01*
X137797331Y-119540695D01*
X137879022Y-119526685D01*
X137950004Y-119504476D01*
X138015428Y-119472625D01*
X138067638Y-119434712D01*
X138108350Y-119390537D01*
X138138334Y-119340247D01*
X138156397Y-119285920D01*
X138162559Y-119226467D01*
X138158759Y-119176157D01*
X138148068Y-119133564D01*
X138131241Y-119097445D01*
X138093877Y-119049355D01*
X138044239Y-119010434D01*
X137984451Y-118979425D01*
X137909347Y-118952060D01*
X137827694Y-118929630D01*
X137732744Y-118908279D01*
X137621305Y-118882390D01*
X137554947Y-118857965D01*
X137525233Y-118840487D01*
X137503827Y-118820963D01*
X137490084Y-118797841D01*
X137485359Y-118770160D01*
X137491090Y-118740803D01*
X137508542Y-118713995D01*
X137539990Y-118688644D01*
X137578283Y-118670448D01*
X137625621Y-118658825D01*
X137684222Y-118654633D01*
X137747874Y-118658883D01*
X137792987Y-118669985D01*
X137824240Y-118686263D01*
X137863533Y-118722821D01*
X137899024Y-118774740D01*
X137924473Y-118810805D01*
X137944878Y-118831770D01*
X137969709Y-118844519D01*
X138007093Y-118849295D01*
X138035571Y-118845964D01*
X138060260Y-118836218D01*
X138082158Y-118819619D01*
X138104880Y-118787825D01*
X138112282Y-118752941D01*
X138106560Y-118713134D01*
X138088477Y-118670753D01*
X138058884Y-118630769D01*
X138037662Y-118612013D01*
X138244295Y-118612013D01*
X138251926Y-118647190D01*
X138274068Y-118674112D01*
X138295569Y-118686460D01*
X138324882Y-118694586D01*
X138364441Y-118697620D01*
X138616671Y-118697620D01*
X138616671Y-119420518D01*
X138620927Y-119461376D01*
X138632377Y-119491864D01*
X138649885Y-119514429D01*
X138674063Y-119531669D01*
X138702339Y-119542028D01*
X138735974Y-119545631D01*
X138769113Y-119542073D01*
X138796998Y-119531839D01*
X138820870Y-119514795D01*
X138838135Y-119492431D01*
X138849492Y-119461864D01*
X138853733Y-119420518D01*
X138853733Y-118697620D01*
X139106033Y-118697620D01*
X139161423Y-118691113D01*
X139197108Y-118674112D01*
X139219853Y-118647133D01*
X139227653Y-118612013D01*
X139219939Y-118576760D01*
X139197459Y-118549548D01*
X139175696Y-118537003D01*
X139146041Y-118528752D01*
X139106033Y-118525673D01*
X138364441Y-118525673D01*
X138310977Y-118532010D01*
X138275262Y-118548815D01*
X138252284Y-118575685D01*
X138244295Y-118612013D01*
X138037662Y-118612013D01*
X138013272Y-118590458D01*
X137956865Y-118556787D01*
X137884138Y-118529214D01*
X137802311Y-118512298D01*
X137699951Y-118506133D01*
X137611835Y-118510303D01*
X137535059Y-118522142D01*
X137468085Y-118540877D01*
X137405799Y-118568218D01*
X137356055Y-118601326D01*
X137317113Y-118640284D01*
X137288212Y-118685251D01*
X137270816Y-118734235D01*
X137264869Y-118788356D01*
X137270746Y-118845262D01*
X137287436Y-118893494D01*
X137314304Y-118934719D01*
X137350570Y-118970761D01*
X137394736Y-119001685D01*
X137447792Y-119027653D01*
X137537526Y-119058186D01*
X137656274Y-119086943D01*
X137803876Y-119121687D01*
X137854706Y-119142063D01*
X137893407Y-119168642D01*
X137912287Y-119190656D01*
X137923828Y-119216823D01*
X137927885Y-119248326D01*
X137920937Y-119286847D01*
X137900211Y-119320826D01*
X137863774Y-119351702D01*
X137818778Y-119374034D01*
X137763925Y-119388163D01*
X137696791Y-119393224D01*
X137626264Y-119387566D01*
X137576083Y-119372646D01*
X137534699Y-119348728D01*
X137504880Y-119320195D01*
X137481342Y-119285906D01*
X137457763Y-119240755D01*
X137436527Y-119203598D01*
X137413384Y-119179145D01*
X137384663Y-119163569D01*
X137349554Y-119158262D01*
X137306790Y-119165109D01*
X137272944Y-119185129D01*
X137250356Y-119214672D01*
X137242820Y-119249609D01*
X136971408Y-119249609D01*
X136945293Y-119215791D01*
X136891581Y-119157773D01*
X136832650Y-119107486D01*
X136777824Y-119075219D01*
X136869597Y-119051239D01*
X136940130Y-119019632D01*
X136993399Y-118981186D01*
X137024662Y-118945914D01*
X137047397Y-118905030D01*
X137061625Y-118857458D01*
X137066639Y-118801789D01*
X137061123Y-118748205D01*
X137044800Y-118698047D01*
X137017938Y-118652017D01*
X136981041Y-118612074D01*
X136935901Y-118579326D01*
X136884559Y-118555226D01*
X136837553Y-118540550D01*
X136783442Y-118531535D01*
X136648760Y-118525673D01*
X136269363Y-118525673D01*
X136219586Y-118529594D01*
X136183832Y-118539971D01*
X136158556Y-118555593D01*
X136140589Y-118577495D01*
X136128656Y-118608485D01*
X136124148Y-118651641D01*
X136013037Y-118651641D01*
X136013037Y-118395022D01*
X139338764Y-118395022D01*
X139338764Y-119656742D01*
G37*
D12*
%TO.C,C14*%
X162299159Y-106981422D02*
X162017997Y-106981422D01*
X162299159Y-108001422D02*
X162017997Y-108001422D01*
%TO.C,C1*%
X139832163Y-111500000D02*
X140047837Y-111500000D01*
X139832163Y-112100000D02*
X140047837Y-112100000D01*
X139940000Y-112100000D02*
X139940000Y-111500000D01*
D13*
%TO.C,LED1*%
X162025000Y-112775000D02*
X161425000Y-112775000D01*
X162025000Y-114575000D02*
X161425000Y-114575000D01*
X162775000Y-112775000D02*
G75*
G02*
X162675000Y-112775000I-50000J0D01*
G01*
X162675000Y-112775000D02*
G75*
G02*
X162775000Y-112775000I50000J0D01*
G01*
D12*
%TO.C,R5*%
X162170000Y-111186360D02*
X162170000Y-111493642D01*
X162930000Y-111186360D02*
X162930000Y-111493642D01*
%TO.C,U1*%
X144962500Y-108740000D02*
X146962500Y-108740000D01*
X144962500Y-110960000D02*
X146962500Y-110960000D01*
X144722500Y-108840000D02*
X144442500Y-108840000D01*
X144722500Y-108560000D01*
X144722500Y-108840000D01*
G36*
X144722500Y-108840000D02*
G01*
X144442500Y-108840000D01*
X144722500Y-108560000D01*
X144722500Y-108840000D01*
G37*
%TO.C,D1*%
X136500000Y-112110000D02*
X136500000Y-108100000D01*
X136500000Y-112110000D02*
X138500000Y-112110000D01*
X138500000Y-112110000D02*
X138500000Y-108100000D01*
%TO.C,C2*%
X141880000Y-111500000D02*
X141880000Y-112100000D01*
X141987837Y-111500000D02*
X141772163Y-111500000D01*
X141987837Y-112100000D02*
X141772163Y-112100000D01*
D13*
%TO.C,LED4*%
X164250000Y-117025000D02*
X164850000Y-117025000D01*
X164250000Y-118825000D02*
X164850000Y-118825000D01*
X163600000Y-118825000D02*
G75*
G02*
X163500000Y-118825000I-50000J0D01*
G01*
X163500000Y-118825000D02*
G75*
G02*
X163600000Y-118825000I50000J0D01*
G01*
D12*
%TO.C,R3*%
X159570000Y-111513640D02*
X159570000Y-111206358D01*
X160330000Y-111513640D02*
X160330000Y-111206358D01*
D13*
%TO.C,LED2*%
X162025000Y-114900000D02*
X161425000Y-114900000D01*
X162025000Y-116700000D02*
X161425000Y-116700000D01*
X162775000Y-114900000D02*
G75*
G02*
X162675000Y-114900000I-50000J0D01*
G01*
X162675000Y-114900000D02*
G75*
G02*
X162775000Y-114900000I50000J0D01*
G01*
D12*
%TO.C,J2*%
X132920000Y-111700000D02*
X132920000Y-109050000D01*
X135679999Y-112970000D02*
X135680000Y-114350000D01*
X135680000Y-109050000D02*
X132920000Y-109050000D01*
X135680000Y-111700000D02*
X132920000Y-111700000D01*
X135680000Y-111700000D02*
X135680000Y-109050000D01*
X135680000Y-114350000D02*
X134300000Y-114349999D01*
%TO.C,C11*%
X165850000Y-115717163D02*
X165850000Y-115932837D01*
X165850000Y-115825000D02*
X166450000Y-115825000D01*
X166450000Y-115717163D02*
X166450000Y-115932837D01*
%TO.C,C13*%
X163175000Y-99937837D02*
X163175000Y-99722163D01*
X163775000Y-99937837D02*
X163775000Y-99722163D01*
%TO.C,C10*%
X165850000Y-117817163D02*
X165850000Y-118032837D01*
X165850000Y-117925000D02*
X166450000Y-117925000D01*
X166450000Y-117817163D02*
X166450000Y-118032837D01*
D13*
%TO.C,LED5*%
X164250000Y-114900000D02*
X164850000Y-114900000D01*
X164250000Y-116700000D02*
X164850000Y-116700000D01*
X163600000Y-116700000D02*
G75*
G02*
X163500000Y-116700000I-50000J0D01*
G01*
X163500000Y-116700000D02*
G75*
G02*
X163600000Y-116700000I50000J0D01*
G01*
%TO.C,LED3*%
X162025000Y-117025000D02*
X161425000Y-117025000D01*
X162025000Y-118825000D02*
X161425000Y-118825000D01*
X162775000Y-117025000D02*
G75*
G02*
X162675000Y-117025000I-50000J0D01*
G01*
X162675000Y-117025000D02*
G75*
G02*
X162775000Y-117025000I50000J0D01*
G01*
D12*
%TO.C,Q1*%
X164490000Y-109815000D02*
X164490000Y-112035000D01*
X164670000Y-109815000D02*
X164490000Y-109815000D01*
X164670000Y-112035000D02*
X164490000Y-112035000D01*
X166710000Y-110135000D02*
X166710000Y-112035000D01*
X166710000Y-112035000D02*
X166530000Y-112035000D01*
X166940001Y-109815000D02*
X166660000Y-109815000D01*
X166660000Y-109535000D01*
X166940001Y-109815000D01*
G36*
X166940001Y-109815000D02*
G01*
X166660000Y-109815000D01*
X166660000Y-109535000D01*
X166940001Y-109815000D01*
G37*
%TO.C,R4*%
X160879999Y-111196359D02*
X160879999Y-111503641D01*
X161639999Y-111196359D02*
X161639999Y-111503641D01*
%TO.C,C4*%
X155952500Y-113228081D02*
X155952500Y-112946919D01*
X156972500Y-113228081D02*
X156972500Y-112946919D01*
%TO.C,C3*%
X153537163Y-110025000D02*
X153752837Y-110025000D01*
X153537163Y-110625000D02*
X153752837Y-110625000D01*
X153645000Y-110625000D02*
X153645000Y-110025000D01*
%TO.C,C8*%
X159825000Y-115882837D02*
X159825000Y-115667163D01*
X160425000Y-115775000D02*
X159825000Y-115775000D01*
X160425000Y-115882837D02*
X160425000Y-115667163D01*
%TO.C,J1*%
X132970000Y-80510000D02*
X132970000Y-108560000D01*
X132970000Y-80510000D02*
X135630000Y-80510000D01*
X132975000Y-108560000D02*
X135625000Y-108560000D01*
X135625000Y-80510000D02*
X135625000Y-108540011D01*
D13*
X135550000Y-101360000D02*
X135850000Y-101360000D01*
X135850000Y-102910000D01*
X135550000Y-102910000D01*
X135550000Y-101360000D01*
G36*
X135550000Y-101360000D02*
G01*
X135850000Y-101360000D01*
X135850000Y-102910000D01*
X135550000Y-102910000D01*
X135550000Y-101360000D01*
G37*
X135600000Y-86110000D02*
X135900000Y-86110000D01*
X135900000Y-87660000D01*
X135600000Y-87660000D01*
X135600000Y-86110000D01*
G36*
X135600000Y-86110000D02*
G01*
X135900000Y-86110000D01*
X135900000Y-87660000D01*
X135600000Y-87660000D01*
X135600000Y-86110000D01*
G37*
D14*
%TO.C,SW1*%
X136150000Y-116558500D02*
X136150000Y-114098500D01*
X139350000Y-116558500D02*
X139350000Y-114098500D01*
D11*
X135900000Y-117428500D02*
G75*
G02*
X135700000Y-117428500I-100000J0D01*
G01*
X135700000Y-117428500D02*
G75*
G02*
X135900000Y-117428500I100000J0D01*
G01*
D12*
%TO.C,R2*%
X151732500Y-110266143D02*
X151732500Y-109958861D01*
X152492500Y-110266143D02*
X152492500Y-109958861D01*
D13*
%TO.C,LED6*%
X164250000Y-112775000D02*
X164850000Y-112775000D01*
X164250000Y-114575000D02*
X164850000Y-114575000D01*
X163600000Y-114575000D02*
G75*
G02*
X163500000Y-114575000I-50000J0D01*
G01*
X163500000Y-114575000D02*
G75*
G02*
X163600000Y-114575000I50000J0D01*
G01*
D12*
%TO.C,C5*%
X157600000Y-113286252D02*
X157600000Y-112763748D01*
X158950000Y-113286252D02*
X158950000Y-112763748D01*
%TO.C,C6*%
X162361252Y-108275000D02*
X161838748Y-108275000D01*
X162361252Y-109625000D02*
X161838748Y-109625000D01*
%TO.C,D3*%
X155650000Y-119460000D02*
X155650000Y-115450000D01*
X155650000Y-119460000D02*
X157650000Y-119460000D01*
X157650000Y-119460000D02*
X157650000Y-115450000D01*
%TO.C,R1*%
X147532500Y-110286141D02*
X147532500Y-109978859D01*
X148292500Y-110286141D02*
X148292500Y-109978859D01*
%TO.C,U3*%
X156750000Y-107527499D02*
X155950000Y-107527500D01*
X156750000Y-107527499D02*
X157550000Y-107527500D01*
X156750000Y-110647501D02*
X155950000Y-110647500D01*
X156750000Y-110647501D02*
X157550000Y-110647500D01*
X155450000Y-107577500D02*
X155210000Y-107247500D01*
X155690000Y-107247500D01*
X155450000Y-107577500D01*
G36*
X155450000Y-107577500D02*
G01*
X155210000Y-107247500D01*
X155690000Y-107247500D01*
X155450000Y-107577500D01*
G37*
%TO.C,U2*%
X148602500Y-109687500D02*
X148602499Y-110477500D01*
X151422500Y-109687500D02*
X151422500Y-110687500D01*
X148602500Y-111087501D02*
X148322500Y-110807500D01*
X148602500Y-110807500D01*
X148602500Y-111087501D01*
G36*
X148602500Y-111087501D02*
G01*
X148322500Y-110807500D01*
X148602500Y-110807500D01*
X148602500Y-111087501D01*
G37*
%TO.C,C7*%
X159825000Y-113782837D02*
X159825000Y-113567163D01*
X160425000Y-113675000D02*
X159825000Y-113675000D01*
X160425000Y-113782837D02*
X160425000Y-113567163D01*
%TO.C,J4*%
X145330000Y-115900000D02*
X145330000Y-114200000D01*
X154670000Y-115900000D02*
X154670000Y-114200000D01*
%TO.C,C9*%
X159825000Y-118032837D02*
X159825000Y-117817163D01*
X160425000Y-117925000D02*
X159825000Y-117925000D01*
X160425000Y-118032837D02*
X160425000Y-117817163D01*
D14*
%TO.C,SW2*%
X140550000Y-116555000D02*
X140550000Y-114095000D01*
X143750000Y-116555000D02*
X143750000Y-114095000D01*
D11*
X140300000Y-117425000D02*
G75*
G02*
X140100000Y-117425000I-100000J0D01*
G01*
X140100000Y-117425000D02*
G75*
G02*
X140300000Y-117425000I100000J0D01*
G01*
D12*
%TO.C,D2*%
X133450000Y-119110000D02*
X133450000Y-115100000D01*
X133450000Y-119110000D02*
X135450000Y-119110000D01*
X135450000Y-119110000D02*
X135450000Y-115100000D01*
%TO.C,J3*%
X164400000Y-80475000D02*
X167075000Y-80475000D01*
X164400018Y-80475000D02*
X164420000Y-108530000D01*
X164420000Y-108530000D02*
X167080000Y-108530000D01*
X167075000Y-80475000D02*
X167080000Y-108530000D01*
D13*
X164112500Y-101325000D02*
X164487500Y-101325000D01*
X164487500Y-102925000D01*
X164112500Y-102925000D01*
X164112500Y-101325000D01*
G36*
X164112500Y-101325000D02*
G01*
X164487500Y-101325000D01*
X164487500Y-102925000D01*
X164112500Y-102925000D01*
X164112500Y-101325000D01*
G37*
X164137500Y-88625000D02*
X164512500Y-88625000D01*
X164512500Y-90225000D01*
X164137500Y-90225000D01*
X164137500Y-88625000D01*
G36*
X164137500Y-88625000D02*
G01*
X164512500Y-88625000D01*
X164512500Y-90225000D01*
X164137500Y-90225000D01*
X164137500Y-88625000D01*
G37*
D12*
%TO.C,C12*%
X165850000Y-113567163D02*
X165850000Y-113782837D01*
X165850000Y-113675000D02*
X166450000Y-113675000D01*
X166450000Y-113567163D02*
X166450000Y-113782837D01*
%TD*%
M02*
